<?xml version="1.0" encoding="UTF-8"?>
<svg height="54px" version="1.1" viewBox="0 0 50 54" width="50px"
    xmlns="http://www.w3.org/2000/svg">
    <!-- Generator: Sketch 52.4 (67378) - http://www.bohemiancoding.com/sketch -->
    <title>Bee Copy 2</title>
    <desc>Created with Sketch.</desc>
    <g fill="none" fill-rule="evenodd" id="Page-1" stroke="none" stroke-width="1">
        <g id="Learn---1" transform="translate(-677.000000, -135.000000)">
            <g id="Body" transform="translate(-25.000000, -116.000000)">
                <g id="Progress-Indicators-/-Linear" transform="translate(100.000000, 0.000000)">
                    <g id="Bee-Copy-2"
                        transform="translate(627.075050, 276.386700) rotate(-208.000000) translate(-627.075050, -276.386700) translate(604.075050, 251.386700)">
                        <path
                            d="M17.3086694,10.9875857 C15.7811421,11.3963812 14.4653821,11.9232901 13.3263544,12.5353329 C13.2469416,12.1549153 13.1605219,11.7729639 13.0546382,11.3956142 C12.269075,8.55091925 9.94197053,8.08766884 7.59306646,9.64385273 C6.41277525,10.4299979 7.70595711,12.189429 8.88157698,11.4101866 C9.55191387,10.9645766 10.2580644,10.4353667 10.6909416,11.3235189 C11.0630915,12.0889559 11.2226955,12.9610017 11.3581643,13.8192421 C9.30666867,15.454424 8.16997661,17.4968674 7.79704818,19.7172481 C6.98267839,19.956543 6.14728758,20.1751297 5.31656811,20.1735958 C4.3176805,20.1720618 4.49674842,19.3153554 4.61586752,18.5276763 C4.82374203,17.1455948 2.65468444,16.7567405 2.44525282,18.1457248 C2.03261803,20.9022181 3.45815444,22.773627 6.40343257,22.2436501 C6.8331956,22.1661861 7.25361595,22.0687808 7.67481486,21.9652397 C7.83986877,25.4902378 9.63911217,29.2468611 12.5073132,32.4221205 C8.4704993,45.0594994 13.5513571,54.285392 22.0804403,47.6917435 C24.8521004,45.5472929 25.9296222,42.7977024 26.009035,39.8908828 C26.6427797,40.0243357 27.6805951,40.2107096 28.9776698,40.3249883 C31.6636887,40.5635162 35.4132154,40.4868191 38.7438788,38.9582462 C40.1507299,38.3116898 41.4766111,37.4051302 42.6195316,36.1595695 C43.6783681,36.5622292 45.0961189,36.9786944 45.1303754,36.3597489 C45.1599605,35.8113647 44.3494835,35.1088194 43.6230906,34.594182 C44.1641871,33.277293 44.2630638,31.6551496 43.9625411,29.8688745 C43.50475,27.1292545 42.1337126,24.0245565 40.0775456,21.1077663 C39.4975212,20.2840396 38.8443126,19.4871568 38.1599617,18.7056135 C40.6536772,17.1417599 42.4934055,14.8124694 42.9301756,11.3641684 C44.252164,0.924927923 33.9487512,1.22021171 25.1207023,10.7091753 C22.6293225,10.2313524 20.0001382,10.2658661 17.3086694,10.9875857 Z"
                            fill="#C2C2C2" id="Fill-1" opacity="0.481361607"></path>
                        <path
                            d="M22.565581,7.70378004 C19.8687931,6.96674646 16.985891,6.88791934 14.0200223,7.74082879 C0.845526,11.5237423 3.27248558,24.5136635 11.6311825,32.0668782 C12.3180861,31.4149779 12.9743443,30.7654425 13.5065264,29.9708651 C17.5748791,23.349387 21.7717925,15.7275927 22.565581,7.70378004"
                            fill="#582A00" id="Fill-3"></path>
                        <path
                            d="M17.8912741,35.288082 C22.121402,27.4475082 27.6692253,19.7255762 29.6915539,10.981439 C27.3968395,9.22538302 24.8126667,7.85353796 22.0414712,7.12597294 C21.2173296,15.1236882 16.8599331,22.7206927 12.6360133,29.3206346 C12.0834815,30.1126276 11.402129,30.7600505 10.6889594,31.4098305 C12.7314648,33.1800291 15.1154224,34.6500876 17.7089075,35.6298647 C17.7702137,35.51908 17.832296,35.403581 17.8912741,35.288082"
                            fill="#FFCA00" id="Fill-5"></path>
                        <path
                            d="M35.6298647,18.3993725 C34.0072104,15.9968716 31.9490055,13.7219301 29.573275,11.8766216 C27.5881695,20.5858832 22.1453102,28.2770166 17.994635,36.0863185 C17.9367647,36.2013569 17.8758485,36.3163952 17.8149324,36.4259555 C18.9121848,36.8469801 20.0467483,37.1795739 21.2102471,37.4049551 C21.2102471,37.4049551 22.6531987,37.8103282 24.7746042,38.005189 C28.6260287,31.5794772 32.6312665,25.2398484 35.6298647,18.3993725"
                            fill="#582A00" id="Fill-7"></path>
                        <path
                            d="M34.4422025,35.6298647 C36.0436183,34.9322422 37.5566387,33.948354 38.8473833,32.5763631 C40.2754411,31.0544236 40.6573436,28.7554769 40.1939114,26.1285675 C37.4854075,28.772316 35.4977982,32.0888293 34.4422025,35.6298647"
                            fill="#582A00" id="Fill-9"></path>
                        <path
                            d="M35.4971343,16.6272702 C32.581139,23.2223713 28.686234,29.3345912 24.9409053,35.5298063 C27.4948078,35.7637019 31.0609413,35.6882517 34.2301795,34.1852839 C35.1417058,30.852649 36.8559082,27.7327837 39.1928512,25.2451909 C38.7574512,22.5516191 37.4534725,19.4966409 35.4971343,16.6272702"
                            fill="#FFCA00" id="Fill-11"></path>
                        <path
                            d="M14.8402307,17.8149324 C14.8402307,17.8149324 29.1620397,35.651145 18.805378,44.1099696 C8.44722968,52.5657014 3.40716611,35.2266573 14.8402307,17.8149324"
                            fill="#FFFFFF" id="Fill-16"></path>
                        <path
                            d="M37.8242672,30.8792161 C37.8242672,30.8792161 40.4305724,32.1445819 40.3797805,32.9866372 C40.3282305,33.8306492 36.8175269,32.4107001 36.8175269,32.4107001 L37.8242672,30.8792161 Z"
                            fill="#582A00" id="Fill-18"></path>
                        <path
                            d="M5.05096034,7.27315923 C5.9024943,6.67624463 6.66168489,8.04904642 5.81562138,8.64133839 C5.33275518,8.97995487 4.78444954,9.31983546 5.23191909,9.8607983 C5.76252021,10.5020761 6.54009677,10.9224189 7.21666559,11.3699649 C8.38157616,12.1409656 10.0487207,13.1434608 9.9768329,14.8459659 C9.93142549,15.8923882 8.38878911,15.9547766 8.43209087,14.9036724 C8.46385528,14.1538694 7.57480364,13.6104478 7.07434399,13.2521764 C6.24951348,12.6621487 5.37646071,12.1526656 4.58891168,11.5064905 C2.98012344,10.1846875 3.36131053,8.45879469 5.05096034,7.27315923 Z"
                            fill="#582A00" id="Fill-20"></path>
                        <path
                            d="M1.6429401,15.9152469 C1.66012865,16.8195482 0.153062095,16.8631362 0.137160646,15.9535073 C0.104412163,14.148639 1.24043625,13.0869204 3.19043358,13.7070062 C4.14391483,14.0092678 5.03969512,14.4386277 5.97098549,14.795359 C6.53603483,15.0114815 7.4672348,15.4378071 8.03735172,15.0777555 C8.83694394,14.57118 9.66536935,15.7632601 8.87016279,16.2654444 C7.57624151,17.0831312 5.84228007,16.2780764 4.57751519,15.7467821 C3.84249379,15.4376654 3.06983146,15.0401309 2.26625305,14.927696 C1.58871188,14.8339761 1.63462939,15.3997888 1.6429401,15.9152469 Z"
                            fill="#582A00" id="Fill-22"
                            transform="translate(4.664580, 15.072047) rotate(-6.000000) translate(-4.664580, -15.072047) "></path>
                        <g fill="#FFFFFF" id="Group-8" transform="translate(14.251946, 0.000000)">
                            <path
                                d="M0.158196599,17.2043255 C0.158196599,17.2043255 23.6723238,20.6351846 25.4086858,7.58648894 C27.1434644,-5.46072214 9.15988397,-1.19330355 0.158196599,17.2043255"
                                id="Fill-13"></path>
                        </g>
                    </g>
                </g>
            </g>
        </g>
    </g>
</svg>