<?xml version="1.0" encoding="UTF-8"?>
<svg height="25px" version="1.1" viewBox="0 0 25 25" width="25px"
    xmlns="http://www.w3.org/2000/svg">
    <!-- Generator: Sketch 52.4 (67378) - http://www.bohemiancoding.com/sketch -->
    <title>Filled</title>
    <desc>Created with Sketch.</desc>
    <g fill="none" fill-rule="evenodd" id="Page-1" stroke="none" stroke-width="1">
        <g fill="#FACA0D" fill-rule="nonzero" id="Mutual-Fund-B2B---Mutual-fund-vs-Insurance"
            transform="translate(-534.000000, -640.000000)">
            <g id="Group-2" transform="translate(385.000000, 624.000000)">
                <g id="Group-4">
                    <g id="Group-3" transform="translate(57.000000, 15.000000)">
                        <g id="Calc" transform="translate(92.000000, 1.000000)">
                            <g id="Filled">
                                <path
                                    d="M0,12.0689655 L12.0689655,12.0689655 L12.0689655,0 L0,0 L0,12.0689655 Z M3.44827586,5.17241379 L5.17241379,5.17241379 L5.17241379,3.44827586 C5.17241379,2.97241379 5.55862069,2.5862069 6.03448276,2.5862069 C6.51034483,2.5862069 6.89655172,2.97241379 6.89655172,3.44827586 L6.89655172,5.17241379 L8.62068966,5.17241379 C9.09655172,5.17241379 9.48275862,5.55862069 9.48275862,6.03448276 C9.48275862,6.51034483 9.09655172,6.89655172 8.62068966,6.89655172 L6.89655172,6.89655172 L6.89655172,8.62068966 C6.89655172,9.09655172 6.51034483,9.48275862 6.03448276,9.48275862 C5.55862069,9.48275862 5.17241379,9.09655172 5.17241379,8.62068966 L5.17241379,6.89655172 L3.44827586,6.89655172 C2.97241379,6.89655172 2.5862069,6.51034483 2.5862069,6.03448276 C2.5862069,5.55862069 2.97241379,5.17241379 3.44827586,5.17241379 Z"
                                    id="Shape"></path>
                                <path
                                    d="M12.9310345,0 L12.9310345,12.0689655 L25,12.0689655 L25,0 L12.9310345,0 Z M21.5517241,6.89655172 L16.3793103,6.89655172 C15.9034483,6.89655172 15.5172414,6.51034483 15.5172414,6.03448276 C15.5172414,5.55862069 15.9034483,5.17241379 16.3793103,5.17241379 L21.5517241,5.17241379 C22.0275862,5.17241379 22.4137931,5.55862069 22.4137931,6.03448276 C22.4137931,6.51034483 22.0275862,6.89655172 21.5517241,6.89655172 Z"
                                    id="Shape"></path>
                                <path
                                    d="M12.9310345,25 L25,25 L25,12.9310345 L12.9310345,12.9310345 L12.9310345,25 Z M16.3793103,16.8103448 L21.5517241,16.8103448 C22.0275862,16.8103448 22.4137931,17.1965517 22.4137931,17.6724138 C22.4137931,18.1482759 22.0275862,18.5344828 21.5517241,18.5344828 L16.3793103,18.5344828 C15.9034483,18.5344828 15.5172414,18.1482759 15.5172414,17.6724138 C15.5172414,17.1965517 15.9034483,16.8103448 16.3793103,16.8103448 Z M16.3793103,19.3965517 L21.5517241,19.3965517 C22.0275862,19.3965517 22.4137931,19.7827586 22.4137931,20.2586207 C22.4137931,20.7344828 22.0275862,21.1206897 21.5517241,21.1206897 L16.3793103,21.1206897 C15.9034483,21.1206897 15.5172414,20.7344828 15.5172414,20.2586207 C15.5172414,19.7827586 15.9034483,19.3965517 16.3793103,19.3965517 Z"
                                    id="Shape"></path>
                                <path
                                    d="M0,25 L12.0689655,25 L12.0689655,12.9310345 L0,12.9310345 L0,25 Z M3.26982759,17.4198276 C2.93318966,17.0831897 2.93318966,16.5375 3.26982759,16.2008621 C3.60603448,15.8642241 4.15258621,15.8642241 4.4887931,16.2008621 L6.03448276,17.7465517 L7.58017241,16.2008621 C7.91637931,15.8642241 8.46293103,15.8642241 8.79913793,16.2008621 C9.13577586,16.5375 9.13577586,17.0831897 8.79913793,17.4198276 L7.25344828,18.9655172 L8.79913793,20.5112069 C9.13577586,20.8478448 9.13577586,21.3935345 8.79913793,21.7301724 C8.63103448,21.8987069 8.41034483,21.9827586 8.18965517,21.9827586 C7.96896552,21.9827586 7.74827586,21.8987069 7.58017241,21.7301724 L6.03448276,20.1844828 L4.4887931,21.7301724 C4.32068966,21.8987069 4.1,21.9827586 3.87931034,21.9827586 C3.65862069,21.9827586 3.43793103,21.8987069 3.26982759,21.7301724 C2.93318966,21.3935345 2.93318966,20.8478448 3.26982759,20.5112069 L4.81551724,18.9655172 L3.26982759,17.4198276 Z"
                                    id="Shape"></path>
                            </g>
                        </g>
                    </g>
                </g>
            </g>
        </g>
    </g>
</svg>