<?xml version="1.0" encoding="UTF-8"?>
<svg height="25px" version="1.1" viewBox="0 0 25 25" width="25px"
    xmlns="http://www.w3.org/2000/svg">
    <!-- Generator: Sketch 52.4 (67378) - http://www.bohemiancoding.com/sketch -->
    <title>Outline</title>
    <desc>Created with Sketch.</desc>
    <g fill="none" fill-rule="evenodd" id="Page-1" stroke="none" stroke-width="1">
        <g fill="#FACA0D" id="Mutual-Fund-B2B---Mutual-fund-vs-Insurance"
            transform="translate(-534.000000, -640.000000)">
            <g id="Group-2" transform="translate(385.000000, 624.000000)">
                <g id="Group-4">
                    <g id="Group-3" transform="translate(57.000000, 15.000000)">
                        <g id="Calc" transform="translate(92.000000, 1.000000)">
                            <g id="Outline">
                                <path
                                    d="M9.05172414,6.03448276 L6.89655172,6.03448276 L6.89655172,3.87931034 C6.89655172,3.64094828 6.70344828,3.44827586 6.46551724,3.44827586 C6.22758621,3.44827586 6.03448276,3.64094828 6.03448276,3.87931034 L6.03448276,6.03448276 L3.87931034,6.03448276 C3.64137931,6.03448276 3.44827586,6.22715517 3.44827586,6.46551724 C3.44827586,6.70387931 3.64137931,6.89655172 3.87931034,6.89655172 L6.03448276,6.89655172 L6.03448276,9.05172414 C6.03448276,9.29008621 6.22758621,9.48275862 6.46551724,9.48275862 C6.70344828,9.48275862 6.89655172,9.29008621 6.89655172,9.05172414 L6.89655172,6.89655172 L9.05172414,6.89655172 C9.28965517,6.89655172 9.48275862,6.70387931 9.48275862,6.46551724 C9.48275862,6.22715517 9.28965517,6.03448276 9.05172414,6.03448276 Z"
                                    id="Path"></path>
                                <path
                                    d="M21.1206897,6.03448276 L15.9482759,6.03448276 C15.7103448,6.03448276 15.5172414,6.22715517 15.5172414,6.46551724 C15.5172414,6.70387931 15.7103448,6.89655172 15.9482759,6.89655172 L21.1206897,6.89655172 C21.3586207,6.89655172 21.5517241,6.70387931 21.5517241,6.46551724 C21.5517241,6.22715517 21.3586207,6.03448276 21.1206897,6.03448276 Z"
                                    id="Path"></path>
                                <path
                                    d="M12.9310345,0 L12.0689655,0 L0,0 L0,12.0689655 L0,12.9310345 L0,25 L12.0689655,25 L12.9310345,25 L25,25 L25,12.9310345 L25,12.0689655 L25,0 L12.9310345,0 Z M0.862068966,0.862068966 L12.0689655,0.862068966 L12.0689655,12.0689655 L0.862068966,12.0689655 L0.862068966,0.862068966 Z M0.862068966,24.137931 L0.862068966,12.9310345 L12.0689655,12.9310345 L12.0689655,24.137931 L0.862068966,24.137931 Z M24.137931,24.137931 L12.9310345,24.137931 L12.9310345,12.9310345 L24.137931,12.9310345 L24.137931,24.137931 Z M12.9310345,12.0689655 L12.9310345,0.862068966 L24.137931,0.862068966 L24.137931,12.0689655 L12.9310345,12.0689655 Z"
                                    fill-rule="nonzero" id="Shape"></path>
                                <path
                                    d="M15.9482759,20.2586207 L21.1206897,20.2586207 C21.3586207,20.2586207 21.5517241,20.0659483 21.5517241,19.8275862 C21.5517241,19.5892241 21.3586207,19.3965517 21.1206897,19.3965517 L15.9482759,19.3965517 C15.7103448,19.3965517 15.5172414,19.5892241 15.5172414,19.8275862 C15.5172414,20.0659483 15.7103448,20.2586207 15.9482759,20.2586207 Z"
                                    id="Path"></path>
                                <path
                                    d="M15.9482759,17.6724138 L21.1206897,17.6724138 C21.3586207,17.6724138 21.5517241,17.4797414 21.5517241,17.2413793 C21.5517241,17.0030172 21.3586207,16.8103448 21.1206897,16.8103448 L15.9482759,16.8103448 C15.7103448,16.8103448 15.5172414,17.0030172 15.5172414,17.2413793 C15.5172414,17.4797414 15.7103448,17.6724138 15.9482759,17.6724138 Z"
                                    id="Path"></path>
                                <path
                                    d="M8.92543103,16.074569 C8.75689655,15.9060345 8.48448276,15.9060345 8.31594828,16.074569 L6.46551724,17.925 L4.61508621,16.074569 C4.44655172,15.9060345 4.17413793,15.9060345 4.00560345,16.074569 C3.83706897,16.2431034 3.83706897,16.5155172 4.00560345,16.6840517 L5.85603448,18.5344828 L4.00560345,20.3849138 C3.83706897,20.5534483 3.83706897,20.8258621 4.00560345,20.9943966 C4.08965517,21.0784483 4.2,21.1206897 4.31034483,21.1206897 C4.42068966,21.1206897 4.53103448,21.0784483 4.61508621,20.9943966 L6.46551724,19.1439655 L8.31594828,20.9943966 C8.4,21.0784483 8.51034483,21.1206897 8.62068966,21.1206897 C8.73103448,21.1206897 8.84137931,21.0784483 8.92543103,20.9943966 C9.09396552,20.8258621 9.09396552,20.5534483 8.92543103,20.3849138 L7.075,18.5344828 L8.92543103,16.6840517 C9.09396552,16.5155172 9.09396552,16.2431034 8.92543103,16.074569 Z"
                                    id="Path"></path>
                            </g>
                        </g>
                    </g>
                </g>
            </g>
        </g>
    </g>
</svg>