<?xml version="1.0" encoding="UTF-8"?>
<svg height="25px" version="1.1" viewBox="0 0 23 25" width="23px"
    xmlns="http://www.w3.org/2000/svg">
    <!-- Generator: Sketch 52.4 (67378) - http://www.bohemiancoding.com/sketch -->
    <title>Group 14</title>
    <desc>Created with Sketch.</desc>
    <g fill="none" fill-rule="evenodd" id="Page-1" stroke="none" stroke-width="1">
        <g id="Learn---2" transform="translate(-165.000000, -498.000000)">
            <g id="Body" transform="translate(-25.000000, 205.000000)">
                <g id="Group-4-Copy" transform="translate(83.000000, 184.000000)">
                    <g id="Group-10" transform="translate(107.000000, 109.000000)">
                        <g id="Group-14">
                            <path
                                d="M11.8936966,24.7967966 C11.4259706,25.0676454 10.6606628,25.0677637 10.193035,24.796976 L0.85017672,19.3879386 C0.382603801,19.1172462 -3.16563326e-06,18.452572 0,17.9109907 L0.0010132707,7.09114536 C0.00101643633,6.54956401 0.38377215,5.8848668 0.851498205,5.61401806 L10.1954648,0.203155182 C10.6630958,-0.0676384929 11.4284036,-0.0677568234 11.8960314,0.203030848 L21.2388896,5.61206832 C21.7065174,5.882856 22.0891244,6.54753022 22.0890664,7.08901622 L22.0880531,17.9088615 C22.0880499,18.4504429 21.7052942,19.1151401 21.2376632,19.3859338 L11.8936966,24.7967966 Z"
                                fill="#41894E" id="Fill-1-Copy-6"></path>
                            <polygon fill="#FFFFFF" fill-rule="nonzero" id="Shape"
                                points="8.66998291 14.7354126 5.79522705 11.8608856 4.54507449 13.1110382 8.66998291 17.2359466 17.1026764 8.80348207 15.8525238 7.55332945"></polygon>
                        </g>
                    </g>
                </g>
            </g>
        </g>
    </g>
</svg>