<?xml version="1.0" encoding="UTF-8"?>
<svg height="21px" version="1.1" viewBox="0 0 18 21" width="18px"
    xmlns="http://www.w3.org/2000/svg">
    <!-- Generator: Sketch 52.4 (67378) - http://www.bohemiancoding.com/sketch -->
    <title>Icon</title>
    <desc>Created with Sketch.</desc>
    <g fill="none" fill-rule="evenodd" id="Page-1" stroke="none" stroke-width="1">
        <g fill="#666666" fill-rule="nonzero" id="Login"
            transform="translate(-803.000000, -258.000000)">
            <g id="Body">
                <g id="Group" transform="translate(359.000000, 257.000000)">
                    <g id="Icon" transform="translate(444.000000, 1.000000)">
                        <path
                            d="M4.15413863,4.86347925 C4.15413863,6.152853 4.65825675,7.64095237 5.50260638,8.844276 C6.461175,10.2102735 7.67320838,10.9625644 8.91545025,10.9625644 C10.157637,10.9625644 11.3696704,10.2102735 12.328239,8.84422087 C13.1725886,7.64095237 13.6767068,6.15279787 13.6767068,4.86347925 C13.6767068,2.238096 11.5408335,0.10222275 8.91545025,0.10222275 C6.290067,0.10222275 4.15413863,2.238096 4.15413863,4.86347925 Z M8.91545025,0.92909775 C11.0848395,0.92909775 12.8498318,2.69409 12.8498318,4.86347925 C12.8498318,5.972484 12.3906405,7.31582512 11.6514143,8.369319 C10.863678,9.4918845 9.86646675,10.1356894 8.91545025,10.1356894 C7.96443375,10.1356894 6.9672225,9.4918845 6.17948625,8.369319 C5.44026,7.31588025 4.98101363,5.97253912 4.98101363,4.86347925 C4.98101363,2.69403487 6.74600588,0.92909775 8.91545025,0.92909775 Z"
                            id="Shape"></path>
                        <path
                            d="M12.4682565,10.0393309 C12.3104887,9.9641955 12.1224574,9.99644362 11.9985915,10.1198685 C11.0738696,11.0419995 10.0076419,11.5293596 8.91517462,11.5293596 C7.822542,11.5293596 6.75658987,11.0419995 5.83241925,10.1199787 C5.7086085,9.99644362 5.52046687,9.9641955 5.36269912,10.0393309 C3.97057237,10.7020436 2.79233062,11.7387795 1.95536775,13.0374694 C1.09563825,14.3714944 0.64118775,15.919239 0.64118775,17.5133437 L0.64118775,17.5200139 C0.64118775,17.6366584 0.6904695,17.7479006 0.776850375,17.8262884 C3.00897187,19.8505886 5.89917562,20.9653815 8.9151195,20.9653815 C11.9310634,20.9653815 14.8212671,19.8505335 17.0533335,17.8262884 C17.1397695,17.7479006 17.1890512,17.6367135 17.1890512,17.5200139 L17.1890512,17.5133437 C17.1890512,15.919239 16.734711,14.3714944 15.875202,13.0375245 C15.0384596,11.7387244 13.8603281,10.7019885 12.4682565,10.0393309 Z M8.91522975,20.1385065 C6.16664212,20.1385065 3.53034412,19.1449886 1.47021262,17.3366681 C1.5023505,15.9642761 1.90878712,14.6363149 2.650494,13.48536 C3.35284162,12.3955387 4.32199425,11.5106171 5.46506625,10.9123455 C6.4984395,11.8581251 7.68577687,12.3562346 8.91522975,12.3562346 C10.1445172,12.3562346 11.33202,11.8581802 12.3659445,10.9123455 C13.5089062,11.5106171 14.4779486,12.3955387 15.1802411,13.48536 C15.9217826,14.6362046 16.328109,15.964221 16.3602469,17.3366681 C14.3000602,19.1449886 11.6637622,20.1385065 8.91522975,20.1385065 Z"
                            id="Shape"></path>
                    </g>
                </g>
            </g>
        </g>
    </g>
</svg>