<?xml version="1.0" encoding="UTF-8"?>
<svg xmlns:xlink="http://www.w3.org/1999/xlink" height="63px" version="1.1" viewBox="0 0 66 63"
    width="66px" xmlns="http://www.w3.org/2000/svg">
    <!-- Generator: Sketch 52.4 (67378) - http://www.bohemiancoding.com/sketch -->
    <title>Group 35</title>
    <desc>Created with Sketch.</desc>
    <defs>
        <polygon id="path-1"
            points="0 0.0646578947 56.8958047 0.0646578947 56.8958047 12.8004905 0 12.8004905"></polygon>
        <path
            d="M47.5075731,52.6778836 L47.5075731,52.6762257 C47.5273403,52.6762257 47.5437917,52.6762257 47.5635589,52.6778836 L47.5075731,52.6778836 Z M60.5654071,42.3369565 C61.3812188,41.5211447 61.8857289,40.3950516 61.8857289,39.1488249 C61.8857289,36.6580294 59.8680711,34.6387136 57.3756176,34.6387136 L53.5064739,34.6387136 C54.7511702,34.6387136 55.8787937,34.1357338 56.6963909,33.3181366 C57.5122026,32.5038553 58.0167128,31.3762318 58.0167128,30.1300051 C58.0167128,27.6392095 55.9972694,25.623082 53.5064739,25.623082 L47.5075731,25.623082 L47.5075731,25.6215516 C48.6237188,25.6215516 49.6457472,25.2160051 50.4336298,24.5416245 C50.5243038,24.4658715 50.6134476,24.3850172 50.6974901,24.3011022 C51.5133018,23.4850354 52.0178119,22.3575395 52.0178119,21.1113128 C52.0178119,18.62192 49.9983686,16.6027318 47.5075731,16.6027318 L28.5369213,16.6027318 C27.2922249,16.6027318 26.1647289,17.1071144 25.3487897,17.9231812 C24.5328504,18.7389929 24.0283403,19.8667439 24.0283403,21.1113128 C24.0283403,22.4859626 24.6430366,23.7157379 25.6123949,24.5416245 C26.2653504,25.1005901 27.0812897,25.4731063 27.9779557,25.5852055 L27.9779557,25.6229545 L22.5395508,25.6229545 C21.294982,25.6229545 20.167486,26.1258067 19.3515468,26.9434038 C18.5339496,27.7579403 18.0294395,28.8836508 18.0294395,30.1298775 C18.0294395,32.622331 20.0487553,34.638586 22.5395508,34.638586 L18.6690043,34.638586 C17.4227775,34.638586 16.2968119,35.1446265 15.4790872,35.9606933 C14.6646783,36.7765051 14.1586379,37.9025982 14.1586379,39.1486974 C14.1586379,41.6380901 16.1780812,43.6589362 18.6690043,43.6589362 L22.5395508,43.6589362 C21.9182229,43.6589362 21.324569,43.7842986 20.7840953,44.0134706 C20.2450245,44.2409848 19.7587512,44.5721812 19.3514192,44.9795132 C18.5339496,45.7953249 18.0294395,46.9212905 18.0294395,48.1676447 C18.0294395,50.6583128 20.0487553,52.6778836 22.5395508,52.6778836 L27.9779557,52.6778836 L27.9779557,52.7124443 C26.9560549,52.8376791 26.0394941,53.3058431 25.3487897,53.9966751 C24.5328504,54.8124868 24.0283403,55.9401103 24.0283403,57.1864646 C24.0283403,59.6772601 26.0477836,61.694918 28.5369213,61.694918 L47.5075731,61.694918 C48.7522694,61.694918 49.8798929,61.190663 50.6974901,60.3745962 C51.5133018,59.5585294 52.0178119,58.4326913 52.0178119,57.1864646 C52.0178119,54.7154362 50.0297411,52.7073431 47.5670022,52.6778836 L53.5063464,52.6778836 C54.7510427,52.6778836 55.8786662,52.1717156 56.6962634,51.3557763 C57.5120751,50.5397095 58.0165852,49.4137439 58.0165852,48.1676447 C58.0165852,45.678252 55.9971419,43.6589362 53.5063464,43.6589362 L57.3754901,43.6589362 C58.6217168,43.6589362 59.7492128,43.1528957 60.5654071,42.3369565 Z"
            id="path-3"></path>
        <filter filterUnits="objectBoundingBox" height="106.7%" id="filter-4" width="112.6%"
            x="-9.4%" y="-3.3%">
            <feOffset dx="-3" dy="0" in="SourceAlpha" result="shadowOffsetOuter1"></feOffset>
            <feColorMatrix in="shadowOffsetOuter1" type="matrix"
                values="0 0 0 0 0.789195366   0 0 0 0 0.789195366   0 0 0 0 0.789195366  0 0 0 0.5 0"></feColorMatrix>
        </filter>
        <polygon id="path-5"
            points="0.0500046559 0.0777297571 2.52281842 0.0777297571 2.52281842 2.55060729 0.0500046559 2.55060729"></polygon>
    </defs>
    <g fill="none" fill-rule="evenodd" id="Page-1" stroke="none" stroke-width="1">
        <g id="Learn---1" transform="translate(-1008.000000, -122.000000)">
            <g id="Body" transform="translate(-25.000000, -116.000000)">
                <g id="Progress-Indicators-/-Linear" transform="translate(100.000000, 0.000000)">
                    <g id="Group-35" transform="translate(933.000000, 238.000000)">
                        <g id="Group-3" transform="translate(0.000000, 0.062872)">
                            <mask fill="white" id="mask-2">
                                <use xlink:href="#path-1"></use>
                            </mask>
                            <g id="Clip-2"></g>
                            <path
                                d="M55.6373915,9.39466457 C53.5132457,9.43228603 51.4510798,9.42897024 49.4482154,9.39249656 L51.3350271,7.05346215 C51.7636567,6.52204312 51.6803794,5.74359777 51.1489603,5.31496822 C50.6170312,4.8860836 49.839096,4.96948846 49.4103389,5.50090749 L46.3399178,9.30743381 C32.9165818,8.81452895 22.4965858,6.80541559 15.6831486,5.02942773 C15.0378449,4.86134271 14.416517,4.69262004 13.8145737,4.52427996 L19.6260049,2.79751883 C20.2804907,2.60303502 20.653517,1.91475364 20.4590332,1.26014028 C20.2645494,0.605654453 19.5761405,0.233010729 18.9219097,0.427111943 L9.51794818,3.22130223 C4.49159393,1.56965648 1.83819717,0.220385223 1.80299879,0.202275911 C1.19595425,-0.110428543 0.451049393,0.127543117 0.137834818,0.734205061 C-0.175252227,1.34099453 0.0629744939,2.08679211 0.669636437,2.39987915 C0.871389474,2.50407146 5.71779838,4.97841559 14.9572457,7.39549858 C16.2567802,7.73562206 17.5555494,8.05113219 18.8504927,8.34419696 L21.6919968,12.2869257 C21.9336668,12.622203 22.3121769,12.8004905 22.6959158,12.8004905 C22.9466405,12.8004905 23.1992781,12.7246099 23.4177377,12.5671099 C23.971602,12.1678123 24.0972194,11.3952334 23.6977943,10.841114 L22.4444259,9.10185486 C33.70727,11.3124662 44.4598652,11.8940047 52.6422134,11.8940047 C53.6994401,11.8940047 54.7143267,11.8843123 55.681517,11.8670957 C56.364187,11.8548528 56.9077215,11.2918063 56.8956061,10.6090087 C56.8834907,9.92621113 56.3162356,9.38152895 55.6373915,9.39466457"
                                fill="#995C0D" id="Fill-1" mask="url(#mask-2)"></path>
                        </g>
                        <path
                            d="M38.0230123,18.8279709 C37.3400872,18.8279709 36.7866055,18.2743615 36.7866055,17.591564 L36.7866055,8.042983 C36.7866055,7.36018543 37.3399597,6.80657611 38.0230123,6.80657611 C38.7059374,6.80657611 39.2592917,7.36018543 39.2592917,8.042983 L39.2592917,17.5916915 C39.2591642,18.2743615 38.7058099,18.8279709 38.0230123,18.8279709"
                            fill="#B27214" id="Fill-4"></path>
                        <g id="Fill-6">
                            <use fill="black" fill-opacity="1" filter="url(#filter-4)"
                                xlink:href="#path-3"></use>
                            <use fill="#FACA0A" fill-rule="evenodd" xlink:href="#path-3"></use>
                        </g>
                        <path
                            d="M44.6260628,34.6385605 C45.5048745,35.9226638 46.0190769,37.475601 46.0190769,39.1486719 C46.0190769,40.8218702 45.5048745,42.374935 44.6260628,43.6589107 L44.6244049,43.6589107 C43.1852247,45.7640545 40.7654636,47.1454634 38.0221579,47.1454634 C35.2789798,47.1454634 32.8590911,45.7640545 31.4199109,43.6589107 C30.5412267,42.3748075 30.0268968,40.8218702 30.0268968,39.1486719 C30.0268968,37.475601 30.5412267,35.9225362 31.4199109,34.6385605 C32.8590911,32.5332893 35.2789798,31.1536658 38.0221579,31.1536658 C40.7654636,31.1536658 43.1852247,32.5332893 44.6244049,34.6385605 L44.6260628,34.6385605 Z"
                            fill="#4D4D4D" id="Fill-8"></path>
                        <path
                            d="M29.468199,21.1110067 C29.468199,19.8664379 29.9725816,18.7388144 30.7886484,17.9228751 C31.6045877,17.1069358 32.7322111,16.6024257 33.97678,16.6024257 L28.5367172,16.6024257 C27.2921484,16.6024257 26.1645249,17.1068083 25.3485856,17.9228751 C24.5326464,18.7388144 24.0281362,19.8664379 24.0281362,21.1110067 C24.0281362,23.6019298 26.0475796,25.6212455 28.5367172,25.6212455 L33.97678,25.6212455 C31.4876423,25.6213731 29.468199,23.6019298 29.468199,21.1110067"
                            fill="#F7B239" id="Fill-10"></path>
                        <path
                            d="M23.469413,30.1299158 C23.469413,28.885347 23.9737955,27.7577235 24.7898623,26.9417842 C25.6059291,26.1258449 26.7334251,25.6213348 27.9779939,25.6213348 L22.5379312,25.6213348 C21.2933623,25.6213348 20.1657389,26.1257174 19.3497996,26.9417842 C18.5338603,27.757851 18.0293502,28.885347 18.0293502,30.1299158 C18.0293502,32.6208389 20.0487935,34.6401547 22.5379312,34.6401547 L27.9779939,34.6401547 C25.4887287,34.6401547 23.469413,32.6207113 23.469413,30.1299158"
                            fill="#F7B239" id="Fill-12"></path>
                        <path
                            d="M19.5987899,39.1486974 C19.5987899,37.9041285 20.1031725,36.7765051 20.9192393,35.9605658 C21.7351785,35.144754 22.862802,34.6401164 24.1073709,34.6401164 L18.6673081,34.6401164 C17.4227393,34.6401164 16.2951158,35.1446265 15.4791765,35.9605658 C14.6632372,36.7765051 14.1587271,37.9041285 14.1587271,39.1486974 C14.1587271,41.6396204 16.1781704,43.6589362 18.6673081,43.6589362 L24.1073709,43.6589362 C21.6182332,43.6589362 19.5987899,41.6396204 19.5987899,39.1486974"
                            fill="#F7B239" id="Fill-14"></path>
                        <path
                            d="M23.469413,48.167734 C23.469413,46.9230377 23.9737955,45.7954142 24.7898623,44.9796024 C25.6058016,44.1636632 26.7334251,43.6590255 27.9779939,43.6590255 L22.5379312,43.6590255 C21.2933623,43.6590255 20.1657389,44.1635356 19.3497996,44.9796024 C18.5338603,45.7955417 18.0293502,46.9230377 18.0293502,48.167734 C18.0293502,50.658402 20.0487935,52.6778453 22.5379312,52.6778453 L27.9779939,52.6778453 C25.4887287,52.6778453 23.469413,50.658402 23.469413,48.167734"
                            fill="#F7B239" id="Fill-16"></path>
                        <path
                            d="M29.468199,57.1865283 C29.468199,55.9419595 29.9725816,54.814336 30.7886484,53.9983968 C31.6045877,53.1824575 32.7322111,52.6778198 33.97678,52.6778198 L28.5367172,52.6778198 C27.2921484,52.6778198 26.1645249,53.18233 25.3485856,53.9983968 C24.5326464,54.814336 24.0281362,55.9419595 24.0281362,57.1865283 C24.0281362,59.6773239 26.0475796,61.6967672 28.5367172,61.6967672 L33.97678,61.6967672 C31.4876423,61.6967672 29.468199,59.6773239 29.468199,57.1865283"
                            fill="#F7B239" id="Fill-18"></path>
                        <path
                            d="M61.9021931,16.6968874 C62.5849907,16.6968874 63.1386,17.2504968 63.1386,17.9332943 C63.1386,18.6162194 62.5849907,19.1697012 61.9021931,19.1697012 C61.2193955,19.1697012 60.6659138,18.6162194 60.6659138,17.9332943 C60.6659138,17.2504968 61.2193955,16.6968874 61.9021931,16.6968874"
                            fill="#F7B239" id="Fill-20"></path>
                        <g id="Group-24" transform="translate(61.852227, 60.384735)">
                            <mask fill="white" id="mask-6">
                                <use xlink:href="#path-5"></use>
                            </mask>
                            <g id="Clip-23"></g>
                            <path
                                d="M1.28641154,0.0777297571 C1.96920911,0.0777297571 2.52281842,0.631339069 2.52281842,1.31413664 C2.52281842,1.99706174 1.96920911,2.55067105 1.28641154,2.55067105 C0.603613968,2.55067105 0.0500046559,1.99706174 0.0500046559,1.31413664 C0.0500046559,0.631339069 0.603613968,0.0777297571 1.28641154,0.0777297571"
                                fill="#F7B239" id="Fill-22" mask="url(#mask-6)"></path>
                        </g>
                        <path
                            d="M51.8595468,41.5214636 C52.5423443,41.5214636 53.0959536,42.0750729 53.0959536,42.7578704 C53.0959536,43.4407955 52.5423443,43.9942773 51.8595468,43.9942773 C51.1767492,43.9942773 50.6232674,43.4407955 50.6232674,42.7578704 C50.6232674,42.0750729 51.1767492,41.5214636 51.8595468,41.5214636"
                            fill="#F7B239" id="Fill-25"></path>
                        <path
                            d="M64.0583745,28.9104704 C64.7411721,28.9104704 65.2947814,29.4640798 65.2947814,30.1468773 C65.2947814,30.8298024 64.7411721,31.3832842 64.0583745,31.3832842 C63.3755769,31.3832842 62.8219676,30.8298024 62.8219676,30.1468773 C62.8219676,29.4640798 63.3755769,28.9104704 64.0583745,28.9104704"
                            fill="#F7B239" id="Fill-27"></path>
                        <path
                            d="M39.0904543,55.7792053 C39.7732518,55.7792053 40.3268611,56.3328146 40.3268611,57.0156121 C40.3268611,57.6985372 39.7732518,58.2521466 39.0904543,58.2521466 C38.4076567,58.2521466 37.8541749,57.6985372 37.8541749,57.0156121 C37.8541749,56.3328146 38.4076567,55.7792053 39.0904543,55.7792053"
                            fill="#F7B239" id="Fill-29"></path>
                        <path
                            d="M8.74183664,41.4241962 C9.42463421,41.4241962 9.97824352,41.9776779 9.97824352,42.6604755 C9.97824352,43.3434006 9.42463421,43.8970099 8.74183664,43.8970099 C8.05903907,43.8970099 7.50542976,43.3434006 7.50542976,42.6604755 C7.50542976,41.9776779 8.05903907,41.4241962 8.74183664,41.4241962"
                            fill="#F7B239" id="Fill-31"></path>
                        <path
                            d="M10.2255632,21.6422982 C10.9083607,21.6422982 11.46197,22.19578 11.46197,22.8787051 C11.46197,23.5615026 10.9083607,24.1151119 10.2255632,24.1151119 C9.54276559,24.1151119 8.98915628,23.5615026 8.98915628,22.8787051 C8.98915628,22.19578 9.54276559,21.6422982 10.2255632,21.6422982"
                            fill="#F7B239" id="Fill-33"></path>
                    </g>
                </g>
            </g>
        </g>
    </g>
</svg>