<?xml version="1.0" encoding="UTF-8"?>
<svg height="20px" version="1.1" viewBox="0 0 23 20" width="23px"
    xmlns="http://www.w3.org/2000/svg">
    <!-- Generator: Sketch 52.4 (67378) - http://www.bohemiancoding.com/sketch -->
    <title>Icon</title>
    <desc>Created with Sketch.</desc>
    <g fill="none" fill-rule="evenodd" id="Page-1" stroke="none" stroke-width="1">
        <g fill="#FACA0A" id="Share---Documents" transform="translate(-815.000000, -624.000000)">
            <g id="Bottom-Navigation" transform="translate(0.000000, 613.000000)">
                <g id="Learn" transform="translate(772.000000, 11.000000)">
                    <g id="Icon" transform="translate(43.000000, 0.000000)">
                        <path
                            d="M11.0599213,19.1430337 L15.4488765,19.1430337 L15.4488765,5.23631461 L11.0599213,5.23631461 L11.0599213,19.1430337 Z M10.3291685,19.8737865 L16.1841573,19.8737865 L16.1841573,4.5055618 L10.3291685,4.5055618 L10.3291685,19.8737865 Z"
                            id="Fill-1"></path>
                        <polygon id="Fill-2"
                            points="11.7951573 7.42857303 14.7226965 7.42857303 14.7226965 6.69782022 11.7951573 6.69782022"></polygon>
                        <polygon id="Fill-3"
                            points="11.7951573 9.62531461 14.7226965 9.62531461 14.7226965 8.8945618 11.7951573 8.8945618"></polygon>
                        <polygon id="Fill-4"
                            points="12.8890449 17.6770449 13.6197978 17.6770449 13.6197978 11.0913034 12.8890449 11.0913034"></polygon>
                        <path
                            d="M16.9194381,19.8738313 L22.774382,19.8738313 L22.774382,0.847359438 L16.9194381,0.847359438 L16.9194381,19.8738313 Z M17.6545844,19.1430337 L22.0436292,19.1430337 L22.0436292,1.57806742 L17.6545844,1.57806742 L17.6545844,19.1430337 Z"
                            id="Fill-5"></path>
                        <polygon id="Fill-6"
                            points="18.3808989 3.77032584 21.3083933 3.77032584 21.3083933 3.03957303 18.3808989 3.03957303"></polygon>
                        <polygon id="Fill-7"
                            points="18.3808989 5.96706742 21.3083933 5.96706742 21.3083933 5.23631461 18.3808989 5.23631461"></polygon>
                        <polygon id="Fill-8"
                            points="18.3808989 8.16380899 21.3083933 8.16380899 21.3083933 7.43305618 18.3808989 7.43305618"></polygon>
                        <path
                            d="M19.8423866,15.4803213 C20.2458697,15.4803213 20.5731842,15.807591 20.5731842,16.2110741 C20.5731842,16.6145573 20.2458697,16.9418269 19.8423866,16.9418269 C19.4389034,16.9418269 19.1116338,16.6145573 19.1116338,16.2110741 C19.1116338,15.8120293 19.4389034,15.4803213 19.8423866,15.4803213 M19.8423866,17.6770629 C20.6493529,17.6770629 21.303937,17.0224787 21.303937,16.2155124 C21.303937,15.4085461 20.6493529,14.7540516 19.8423866,14.7540516 C19.0354203,14.7540516 18.3808809,15.4085461 18.3808809,16.2155124 C18.3808809,17.0224787 19.0354203,17.6770629 19.8423866,17.6770629"
                            id="Fill-9"></path>
                        <path
                            d="M3.79274606,16.3679753 C3.38926291,16.3679753 3.06199325,16.0407056 3.06199325,15.6372224 C3.06199325,15.2337393 3.38926291,14.9064248 3.79274606,14.9064248 C4.1962292,14.9064248 4.52349887,15.2337393 4.52349887,15.6372224 C4.52349887,16.0407056 4.1962292,16.3679753 3.79274606,16.3679753 M3.79274606,14.1757168 C2.98577976,14.1757168 2.33124044,14.8302562 2.33124044,15.6372224 C2.33124044,16.4441887 2.98577976,17.0987281 3.79274606,17.0987281 C4.59971235,17.0987281 5.25425167,16.4441887 5.25425167,15.6372224 C5.25873482,14.8302562 4.59971235,14.1757168 3.79274606,14.1757168"
                            id="Fill-11"></path>
                        <g id="Group-15" transform="translate(0.000000, 0.040348)">
                            <path
                                d="M5.13320225,19.0040741 L0.90111236,17.8384561 L5.55910112,0.901130292 L9.79119101,2.06674827 L5.13320225,19.0040741 Z M5.04802247,0.00450107865 L0,18.34949 L5.6442809,19.9051865 L10.6923034,1.55566962 L5.04802247,0.00450107865 Z"
                                id="Fill-13"></path>
                        </g>
                        <polygon id="Fill-16"
                            points="5.87740898 2.54642248 5.6846337 3.25475956 8.50453257 4.03034383 8.701791 3.3264899"></polygon>
                        <polygon id="Fill-18"
                            points="5.10181126 5.37080451 7.92171013 6.14638878 8.11896856 5.44253484 5.29458654 4.66695057"></polygon>
                        <polygon id="Fill-20"
                            points="4.51900227 7.48685842 7.33890115 8.26692583 7.53615957 7.55858875 4.71177755 6.78300448"></polygon>
                    </g>
                </g>
            </g>
        </g>
    </g>
</svg>