<?xml version="1.0" encoding="UTF-8"?>
<svg height="20px" version="1.1" viewBox="0 0 23 20" width="23px"
    xmlns="http://www.w3.org/2000/svg">
    <!-- Generator: Sketch 52.4 (67378) - http://www.bohemiancoding.com/sketch -->
    <title>Icon Fill</title>
    <desc>Created with Sketch.</desc>
    <g fill="none" fill-rule="evenodd" id="Page-1" stroke="none" stroke-width="1">
        <g id="Share---Documents" transform="translate(-815.000000, -624.000000)">
            <g id="Bottom-Navigation" transform="translate(0.000000, 613.000000)">
                <g id="Learn" transform="translate(772.000000, 11.000000)">
                    <g id="Icon-Fill" transform="translate(43.000000, 0.000000)">
                        <polygon fill="#FACA0A" id="Path"
                            points="10.3291685 19.8737865 16.1841573 19.8737865 16.1841573 4.5055618 10.3291685 4.5055618"></polygon>
                        <polygon fill="#1E1E1E" id="Fill-2"
                            points="11.7951573 7.42857303 14.7226965 7.42857303 14.7226965 6.69782022 11.7951573 6.69782022"></polygon>
                        <polygon fill="#1E1E1E" id="Fill-3"
                            points="11.7951573 9.62531461 14.7226965 9.62531461 14.7226965 8.8945618 11.7951573 8.8945618"></polygon>
                        <polygon fill="#1E1E1E" id="Fill-4"
                            points="12.8890449 17.6770449 13.6197978 17.6770449 13.6197978 11.0913034 12.8890449 11.0913034"></polygon>
                        <polygon fill="#FACA0A" id="Path"
                            points="16.9194381 19.8738313 22.774382 19.8738313 22.774382 0.847359438 16.9194381 0.847359438"></polygon>
                        <polygon fill="#1E1E1E" id="Fill-6"
                            points="18.3808989 3.77032584 21.3083933 3.77032584 21.3083933 3.03957303 18.3808989 3.03957303"></polygon>
                        <polygon fill="#1E1E1E" id="Fill-7"
                            points="18.3808989 5.96706742 21.3083933 5.96706742 21.3083933 5.23631461 18.3808989 5.23631461"></polygon>
                        <polygon fill="#1E1E1E" id="Fill-8"
                            points="18.3808989 8.16380899 21.3083933 8.16380899 21.3083933 7.43305618 18.3808989 7.43305618"></polygon>
                        <g id="Group-15" transform="translate(0.000000, 0.040348)">
                            <path
                                d="M19.8423866,17.6367146 C20.6493529,17.6367146 21.303937,16.9821304 21.303937,16.1751641 C21.303937,15.3681978 20.6493529,14.7137033 19.8423866,14.7137033 C19.0354203,14.7137033 18.3808809,15.3681978 18.3808809,16.1751641 C18.3808809,16.9821304 19.0354203,17.6367146 19.8423866,17.6367146"
                                fill="#1E1E1E" id="Path"></path>
                            <polygon fill="#FACA0A" id="Path"
                                points="5.04802247 0.00450107865 0 18.34949 5.6442809 19.9051865 10.6923034 1.55566962"></polygon>
                            <path
                                d="M3.79274606,14.1353685 C2.98577976,14.1353685 2.33124044,14.7899078 2.33124044,15.5968741 C2.33124044,16.4038404 2.98577976,17.0583798 3.79274606,17.0583798 C4.59971235,17.0583798 5.25425167,16.4038404 5.25425167,15.5968741 C5.25873482,14.7899078 4.59971235,14.1353685 3.79274606,14.1353685"
                                fill="#1E1E1E" id="Path"></path>
                        </g>
                        <polygon fill="#1E1E1E" id="Fill-16"
                            points="5.87740898 2.54642248 5.6846337 3.25475956 8.50453257 4.03034383 8.701791 3.3264899"></polygon>
                        <polygon fill="#1E1E1E" id="Fill-18"
                            points="5.10181126 5.37080451 7.92171013 6.14638878 8.11896856 5.44253484 5.29458654 4.66695057"></polygon>
                        <polygon fill="#1E1E1E" id="Fill-20"
                            points="4.51900227 7.48685842 7.33890115 8.26692583 7.53615957 7.55858875 4.71177755 6.78300448"></polygon>
                    </g>
                </g>
            </g>
        </g>
    </g>
</svg>