<?xml version="1.0" encoding="UTF-8"?>
<svg height="19px" version="1.1" viewBox="0 0 21 19" width="21px"
    xmlns="http://www.w3.org/2000/svg">
    <!-- Generator: Sketch 52.4 (67378) - http://www.bohemiancoding.com/sketch -->
    <title>Icon Fill</title>
    <desc>Created with Sketch.</desc>
    <g fill="none" fill-rule="evenodd" id="Page-1" stroke="none" stroke-width="1">
        <g fill="#FACA0A" id="Today" transform="translate(-118.000000, -1433.000000)">
            <g id="Bottom-Navigation" transform="translate(0.000000, 1422.000000)">
                <g id="Today" transform="translate(74.000000, 11.000000)">
                    <g id="Icon-Fill" transform="translate(44.000000, 0.000000)">
                        <polygon id="Fill-1"
                            points="7.14303797 4.47341772 20.443038 4.47341772 20.443038 0.937974684 7.14303797 0.937974684"></polygon>
                        <polygon id="Fill-2"
                            points="7.14303797 11.6888481 20.443038 11.6888481 20.443038 8.15316456 7.14303797 8.15316456"></polygon>
                        <polygon id="Fill-3"
                            points="7.14303797 18.2544304 20.443038 18.2544304 20.443038 14.7187468 7.14303797 14.7187468"></polygon>
                        <path
                            d="M2.47716709,5.19498481 C1.10628101,5.19498481 -4.81012658e-05,4.0886557 -4.81012658e-05,2.71776962 C-4.81012658e-05,1.34688354 1.10628101,0.24055443 2.47716709,0.24055443 C3.84805316,0.24055443 4.95438228,1.34688354 4.95438228,2.71776962 C4.95438228,4.0886557 3.84805316,5.19498481 2.47716709,5.19498481"
                            id="Fill-4"></path>
                        <path
                            d="M2.47716709,12.3861241 C1.10628101,12.3861241 -4.81012658e-05,11.2797949 -4.81012658e-05,9.90890886 C-4.81012658e-05,8.53802278 1.10628101,7.43169367 2.47716709,7.43169367 C3.84805316,7.43169367 4.95438228,8.53802278 4.95438228,9.90890886 C4.95438228,11.2797949 3.84805316,12.3861241 2.47716709,12.3861241"
                            id="Fill-7"></path>
                        <path
                            d="M2.47716709,18.9518987 C1.10628101,18.9518987 -4.81012658e-05,17.8455696 -4.81012658e-05,16.4746835 C-4.81012658e-05,15.1037975 1.10628101,13.9974684 2.47716709,13.9974684 C3.84805316,13.9974684 4.95438228,15.1037975 4.95438228,16.4746835 C4.95438228,17.8455696 3.84805316,18.9518987 2.47716709,18.9518987"
                            id="Fill-10"></path>
                    </g>
                </g>
            </g>
        </g>
    </g>
</svg>