<?xml version="1.0" encoding="UTF-8"?>
<svg xmlns:xlink="http://www.w3.org/1999/xlink" height="19px" version="1.1" viewBox="0 0 21 19"
    width="21px" xmlns="http://www.w3.org/2000/svg">
    <!-- Generator: Sketch 52.4 (67378) - http://www.bohemiancoding.com/sketch -->
    <title>Icon</title>
    <desc>Created with Sketch.</desc>
    <defs>
        <polygon id="path-1"
            points="0 0.0481493671 4.95438228 0.0481493671 4.95438228 5.00257975 0 5.00257975"></polygon>
        <polygon id="path-3"
            points="0 0.0240987342 4.95438228 0.0240987342 4.95438228 4.97852911 0 4.97852911"></polygon>
        <polygon id="path-5"
            points="0 0.0962025316 4.95438228 0.0962025316 4.95438228 5.05063291 0 5.05063291"></polygon>
    </defs>
    <g fill="none" fill-rule="evenodd" id="Page-1" stroke="none" stroke-width="1">
        <g id="Today" transform="translate(-118.000000, -1433.000000)">
            <g id="Bottom-Navigation" transform="translate(0.000000, 1422.000000)">
                <g id="Today" transform="translate(74.000000, 11.000000)">
                    <g id="Icon" transform="translate(44.000000, 0.000000)">
                        <path
                            d="M7.14303797,4.47341772 L20.443038,4.47341772 L20.443038,0.937974684 L7.14303797,0.937974684 L7.14303797,4.47341772 Z M7.98481013,3.51163291 L19.5772152,3.51163291 L19.5772152,1.92405063 L7.98481013,1.92405063 L7.98481013,3.51163291 Z"
                            fill="#FACA0A" id="Fill-1"></path>
                        <path
                            d="M7.14303797,11.6888481 L20.443038,11.6888481 L20.443038,8.15316456 L7.14303797,8.15316456 L7.14303797,11.6888481 Z M7.98481013,10.7025316 L19.5772152,10.7025316 L19.5772152,9.11518987 L7.98481013,9.11518987 L7.98481013,10.7025316 Z"
                            fill="#FACA0A" id="Fill-2"></path>
                        <path
                            d="M7.14303797,18.2544304 L20.443038,18.2544304 L20.443038,14.7187468 L7.14303797,14.7187468 L7.14303797,18.2544304 Z M7.98481013,17.2685949 L19.5772152,17.2685949 L19.5772152,15.6810127 L7.98481013,15.6810127 L7.98481013,17.2685949 Z"
                            fill="#FACA0A" id="Fill-3"></path>
                        <g id="Group-13" transform="translate(0.000000, 0.192405)">
                            <g id="Group-6">
                                <mask fill="white" id="mask-2">
                                    <use xlink:href="#path-1"></use>
                                </mask>
                                <g id="Clip-5"></g>
                                <path
                                    d="M2.47716709,0.913972152 C1.58729367,0.913972152 0.889825316,1.63549114 0.889825316,2.50131392 C0.889825316,3.39118734 1.6113443,4.0886557 2.47716709,4.0886557 C3.36704051,4.0886557 4.06450886,3.36713671 4.06450886,2.50131392 C4.06450886,1.63549114 3.36704051,0.913972152 2.47716709,0.913972152 M2.47716709,5.00257975 C1.10628101,5.00257975 -4.81012658e-05,3.89625063 -4.81012658e-05,2.52536456 C-4.81012658e-05,1.15447848 1.10628101,0.0481493671 2.47716709,0.0481493671 C3.84805316,0.0481493671 4.95438228,1.15447848 4.95438228,2.52536456 C4.95438228,3.89625063 3.84805316,5.00257975 2.47716709,5.00257975"
                                    fill="#FACA0A" id="Fill-4" mask="url(#mask-2)"></path>
                            </g>
                            <g id="Group-9" transform="translate(0.000000, 7.215190)">
                                <mask fill="white" id="mask-4">
                                    <use xlink:href="#path-3"></use>
                                </mask>
                                <g id="Clip-8"></g>
                                <path
                                    d="M2.47716709,0.913972152 C1.58729367,0.913972152 0.889825316,1.63549114 0.889825316,2.50131392 C0.889825316,3.36713671 1.6113443,4.0886557 2.47716709,4.0886557 C3.36704051,4.0886557 4.06450886,3.36713671 4.06450886,2.50131392 C4.06450886,1.63549114 3.36704051,0.913972152 2.47716709,0.913972152 M2.47716709,4.97852911 C1.10628101,4.97852911 -4.81012658e-05,3.8722 -4.81012658e-05,2.50131392 C-4.81012658e-05,1.13042785 1.10628101,0.0240987342 2.47716709,0.0240987342 C3.84805316,0.0240987342 4.95438228,1.13042785 4.95438228,2.50131392 C4.95438228,3.8722 3.84805316,4.97852911 2.47716709,4.97852911"
                                    fill="#FACA0A" id="Fill-7" mask="url(#mask-4)"></path>
                            </g>
                            <g id="Group-12" transform="translate(0.000000, 13.708861)">
                                <mask fill="white" id="mask-6">
                                    <use xlink:href="#path-5"></use>
                                </mask>
                                <g id="Clip-11"></g>
                                <path
                                    d="M2.47716709,0.986075949 C1.58729367,0.986075949 0.889825316,1.70759494 0.889825316,2.57341772 C0.889825316,3.46329114 1.6113443,4.16075949 2.47716709,4.16075949 C3.36704051,4.16075949 4.06450886,3.43924051 4.06450886,2.57341772 C4.06450886,1.70759494 3.36704051,0.986075949 2.47716709,0.986075949 M2.47716709,5.05063291 C1.10628101,5.05063291 -4.81012658e-05,3.9443038 -4.81012658e-05,2.57341772 C-4.81012658e-05,1.20253165 1.10628101,0.0962025316 2.47716709,0.0962025316 C3.84805316,0.0962025316 4.95438228,1.20253165 4.95438228,2.57341772 C4.95438228,3.9443038 3.84805316,5.05063291 2.47716709,5.05063291"
                                    fill="#FACA0A" id="Fill-10" mask="url(#mask-6)"></path>
                            </g>
                        </g>
                    </g>
                </g>
            </g>
        </g>
    </g>
</svg>