<?xml version="1.0" encoding="UTF-8"?>
<svg height="21px" version="1.1" viewBox="0 0 16 21" width="16px"
    xmlns="http://www.w3.org/2000/svg">
    <!-- Generator: Sketch 52.4 (67378) - http://www.bohemiancoding.com/sketch -->
    <title>263133</title>
    <desc>Created with Sketch.</desc>
    <g fill="none" fill-rule="evenodd" id="Page-1" stroke="none" stroke-width="1">
        <g fill="#666666" fill-rule="nonzero" id="Login"
            transform="translate(-807.000000, -340.000000)">
            <g id="Body">
                <g id="Group" transform="translate(359.000000, 257.000000)">
                    <g id="263133" transform="translate(448.000000, 83.000000)">
                        <path
                            d="M7.62894727,11.347916 C6.4798125,11.347916 5.54494336,12.2827852 5.54494336,13.4319199 C5.54494336,14.001832 5.78180859,14.552877 6.19536914,14.9450273 L6.19536914,16.8266191 C6.19536914,17.6171133 6.83849414,18.2602383 7.62898828,18.2602383 C8.41948242,18.2602383 9.06260742,17.6171133 9.06260742,16.8266191 L9.06260742,14.9450273 C9.47596289,14.553123 9.71299219,14.0019551 9.71299219,13.4319199 C9.71291016,12.2827852 8.778,11.347916 7.62894727,11.347916 Z M8.36632617,14.214293 C8.16735938,14.4017754 8.05325391,14.6638242 8.05325391,14.9332969 L8.05325391,16.8266191 C8.05325391,17.0606133 7.86294141,17.2509258 7.62894727,17.2509258 C7.39499414,17.2509258 7.20464062,17.0606133 7.20464062,16.8266191 L7.20464062,14.9332969 C7.20464062,14.6638652 7.09053516,14.4018574 6.89169141,14.214416 C6.67402148,14.0092148 6.55417383,13.731334 6.55417383,13.4319199 C6.55417383,12.8393672 7.0363125,12.3572285 7.62886523,12.3572285 C8.22141797,12.3572285 8.70355664,12.8393672 8.70355664,13.4319199 C8.70363867,13.731334 8.58379102,14.0092148 8.36632617,14.214293 Z"
                            id="Shape"></path>
                        <path
                            d="M13.739373,8.60819531 L12.2255684,8.60819531 L12.2255684,4.59670313 C12.2255684,2.06206055 10.1634668,0 7.62894727,0 C5.0943457,0 3.03228516,2.06206055 3.03228516,4.59670313 L3.03228516,8.60819531 L1.51843945,8.60819531 C0.683648438,8.60819531 0.00451171875,9.28737305 0.00451171875,10.122123 L0.00451171875,19.4860312 C0.00451171875,20.3208223 0.683648438,20.999959 1.51843945,20.999959 L13.739373,20.999959 C14.5741641,20.999959 15.2533008,20.3208223 15.2533008,19.4860312 L15.2533008,10.1221641 C15.2533008,9.28737305 14.5741641,8.60819531 13.739373,8.60819531 Z M4.04151563,4.59670312 C4.04151563,2.61864258 5.65080469,1.0093125 7.62890625,1.0093125 C9.6069668,1.0093125 11.2162559,2.61864258 11.2162559,4.59670312 L11.2162559,8.60819531 L4.04151563,8.60819531 L4.04151563,4.59670312 Z M14.2440293,19.4860723 C14.2440293,19.7643223 14.017623,19.9907285 13.739373,19.9907285 L1.51843945,19.9907285 C1.24018945,19.9907285 1.0137832,19.7643633 1.0137832,19.4860723 L1.0137832,10.1221641 C1.0137832,9.84391406 1.24018945,9.61750781 1.51843945,9.61750781 L13.739373,9.61750781 C14.017623,9.61750781 14.2440293,9.84387305 14.2440293,10.1221641 L14.2440293,19.4860723 Z"
                            id="Shape"></path>
                    </g>
                </g>
            </g>
        </g>
    </g>
</svg>