<?xml version="1.0" encoding="UTF-8"?>
<svg height="59px" version="1.1" viewBox="0 0 52 59" width="52px"
    xmlns="http://www.w3.org/2000/svg">
    <!-- Generator: Sketch 52.4 (67378) - http://www.bohemiancoding.com/sketch -->
    <title>PDF</title>
    <desc>Created with Sketch.</desc>
    <g fill="none" fill-rule="evenodd" id="Page-1" stroke="none" stroke-width="1">
        <g fill-rule="nonzero" id="Share---Documents"
            transform="translate(-623.000000, -326.000000)">
            <g id="Body" transform="translate(-24.000000, 50.000000)">
                <g id="Card-1-Copy-3" transform="translate(630.000000, 243.000000)">
                    <g id="PDF" transform="translate(17.000000, 33.000000)">
                        <path
                            d="M10.75,0 C8.6875,0 7,1.659375 7,3.6875 L7,55.3125 C7,57.340625 8.6875,59 10.75,59 L48.25,59 C50.3125,59 52,57.340625 52,55.3125 L52,14.75 L37,0 L10.75,0 Z"
                            fill="#E2E5E7" id="Shape"></path>
                        <path d="M40.75,15 L52,15 L37,0 L37,11.25 C37,13.3125 38.6875,15 40.75,15 Z"
                            fill="#B0B7BD" id="Shape"></path>
                        <polygon fill="#CAD1D8" id="Shape" points="52 26 41 15 52 15"></polygon>
                        <path
                            d="M45,48.1666667 C45,49.175 44.15625,50 43.125,50 L1.875,50 C0.84375,50 0,49.175 0,48.1666667 L0,29.8333333 C0,28.825 0.84375,28 1.875,28 L43.125,28 C44.15625,28 45,28.825 45,29.8333333 L45,48.1666667 Z"
                            fill="#F15642" id="Shape"></path>
                        <g fill="#FFFFFF" id="Group" transform="translate(8.000000, 34.000000)">
                            <path
                                d="M0.086304,1.01688889 C0.086304,0.547555556 0.472352,0.0355555556 1.094112,0.0355555556 L4.522144,0.0355555556 C6.452384,0.0355555556 8.1896,1.27288889 8.1896,3.64444444 C8.1896,5.89155556 6.452384,7.14311111 4.522144,7.14311111 L2.044384,7.14311111 L2.044384,9.02044444 C2.044384,9.64622222 1.62864,10 1.094112,10 C0.604128,10 0.086304,9.64622222 0.086304,9.02044444 L0.086304,1.01688889 Z M2.044384,1.82577778 L2.044384,5.36711111 L4.522144,5.36711111 C5.51696,5.36711111 6.303904,4.52622222 6.303904,3.64444444 C6.303904,2.65066667 5.51696,1.82577778 4.522144,1.82577778 L2.044384,1.82577778 Z"
                                id="Shape"></path>
                            <path
                                d="M11.096096,10 C10.606112,10 10.071584,9.744 10.071584,9.12 L10.071584,1.04533333 C10.071584,0.535111111 10.606112,0.163555556 11.096096,0.163555556 L14.494432,0.163555556 C21.276256,0.163555556 21.127776,10 14.628064,10 L11.096096,10 Z M12.03152,1.89866667 L12.03152,8.26666667 L14.494432,8.26666667 C18.501536,8.26666667 18.679712,1.89866667 14.494432,1.89866667 L12.03152,1.89866667 Z"
                                id="Shape"></path>
                            <path
                                d="M23.533152,2.01244444 L23.533152,4.272 L27.317536,4.272 C27.852064,4.272 28.386592,4.784 28.386592,5.28 C28.386592,5.74933333 27.852064,6.13333333 27.317536,6.13333333 L23.533152,6.13333333 L23.533152,9.11822222 C23.533152,9.616 23.163808,9.99822222 22.644128,9.99822222 C21.990816,9.99822222 21.591776,9.616 21.591776,9.11822222 L21.591776,1.04355556 C21.591776,0.533333333 21.992672,0.161777778 22.644128,0.161777778 L27.85392,0.161777778 C28.507232,0.161777778 28.89328,0.533333333 28.89328,1.04355556 C28.89328,1.49866667 28.507232,2.01066667 27.85392,2.01066667 L23.533152,2.01066667 L23.533152,2.01244444 Z"
                                id="Shape"></path>
                        </g>
                        <path
                            d="M42.15,50 L7,50 L7,52 L42.15,52 C43.1675,52 44,51.1 44,50 L44,48 C44,49.1 43.1675,50 42.15,50 Z"
                            fill="#CAD1D8" id="Shape"></path>
                    </g>
                </g>
            </g>
        </g>
    </g>
</svg>