<?xml version="1.0" encoding="UTF-8"?>
<svg height="21px" version="1.1" viewBox="0 0 22 21" width="22px"
    xmlns="http://www.w3.org/2000/svg">
    <!-- Generator: Sketch 52.4 (67378) - http://www.bohemiancoding.com/sketch -->
    <title>Icon fill</title>
    <desc>Created with Sketch.</desc>
    <g fill="none" fill-rule="evenodd" id="Page-1" stroke="none" stroke-width="1">
        <g fill-rule="nonzero" id="Share---Documents"
            transform="translate(-350.000000, -624.000000)">
            <g id="Bottom-Navigation" transform="translate(0.000000, 613.000000)">
                <g id="Pitch" transform="translate(306.000000, 11.000000)">
                    <g id="Icon-fill" transform="translate(44.000000, 0.000000)">
                        <path
                            d="M20.9461391,1.06559293 L11.4555094,1.06559293 L11.4555094,0.512709522 C11.4555094,0.241428751 11.235581,0.0215003074 10.9643002,0.0215003074 C10.6930194,0.0215003074 10.473091,0.241428751 10.473091,0.512709522 L10.473091,1.06559293 L0.982461259,1.06559293 C0.440713473,1.06559293 0,1.5063064 0,2.04805419 L0,2.95963296 C0,3.50133791 0.440713473,3.94209422 0.982461259,3.94209422 L1.11596018,3.94209422 L1.11596018,14.983273 C1.11596018,15.524978 1.55667365,15.9657343 2.09842144,15.9657343 L10.473091,15.9657343 L10.473091,17.4074541 L6.83290049,20.077561 C6.61417127,20.2380424 6.56684489,20.5454711 6.72732627,20.7642003 C6.88785048,20.9829723 7.19523635,21.0302131 7.41396557,20.8697745 L10.473091,18.6258619 L10.473091,20.4736892 C10.473091,20.7449699 10.6930194,20.9648984 10.9643002,20.9648984 C11.2356238,20.9648984 11.4555094,20.7449699 11.4555094,20.4736892 L11.4555094,18.6258619 L14.5146348,20.8697745 C14.6021779,20.9339756 14.7039403,20.9649412 14.8048033,20.9649412 C14.9559479,20.9649412 15.1050367,20.8954293 15.2012741,20.7642431 C15.3617555,20.5455139 15.314472,20.2380852 15.0956999,20.0776038 L11.4555094,17.4074969 L11.4555094,15.9657771 L19.830179,15.9657771 C20.3718839,15.9657771 20.8126402,15.5250636 20.8126402,14.9833158 L20.8126402,3.94205139 L20.9461391,3.94205139 C21.4878441,3.94205139 21.9286004,3.50133791 21.9286004,2.95959013 L21.9286004,2.04805419 C21.9286004,1.5063064 21.4878869,1.06559293 20.9461391,1.06559293 Z M20.946182,2.95959013 L0.982461259,2.95959013 L0.982461259,2.04805419 L20.946182,2.04805419 L20.946182,2.95959013 Z"
                            fill="#FACA0A" id="Shape"></path>
                        <path
                            d="M10.9549634,5.36454085 C10.7107936,5.36454085 10.5128794,5.56245503 10.5128794,5.80662486 L10.5128794,9.19686358 L7.12264069,9.19686358 C6.87847086,9.19686358 6.68055668,9.39477776 6.68055668,9.63894759 C6.68055668,11.9958867 8.59806717,13.9133543 10.9550062,13.9133543 C13.3119453,13.9133543 15.2294986,11.9958438 15.2294986,9.63894759 C15.2294986,7.28205134 13.3119025,5.36454085 10.9549634,5.36454085 Z"
                            fill="#1E1E1E" id="Path"></path>
                        <path
                            d="M9.45863624,4.90716678 C7.67471034,4.90716678 6.22335393,6.35869451 6.22335393,8.14283456 C6.22335393,8.38700439 6.42126811,8.58491857 6.66543794,8.58491857 L9.45863624,8.58491857 C9.70280607,8.58491857 9.90072025,8.38700439 9.90072025,8.14283456 L9.90072025,5.34925079 C9.90076308,5.10508096 9.7028489,4.90716678 9.45863624,4.90716678 Z"
                            fill="#1E1E1E" id="Path"></path>
                    </g>
                </g>
            </g>
        </g>
    </g>
</svg>