<?xml version="1.0" encoding="UTF-8"?>
<svg height="21px" version="1.1" viewBox="0 0 20 21" width="20px"
    xmlns="http://www.w3.org/2000/svg">
    <!-- Generator: Sketch 52.4 (67378) - http://www.bohemiancoding.com/sketch -->
    <title>Icon Fill</title>
    <desc>Created with Sketch.</desc>
    <g fill="none" fill-rule="evenodd" id="Page-1" stroke="none" stroke-width="1">
        <g fill="#FACA0A" fill-rule="nonzero" id="Share---Documents"
            transform="translate(-584.000000, -624.000000)">
            <g id="Bottom-Navigation" transform="translate(0.000000, 613.000000)">
                <g id="Share" transform="translate(539.000000, 11.000000)">
                    <g id="Icon-Fill" transform="translate(45.000000, 0.000000)">
                        <path
                            d="M16.0244813,13.480083 C14.8176349,13.480083 13.7414938,14.0551867 13.053112,14.9439834 L7.28900415,11.7242739 C7.42406639,11.3365145 7.49813278,10.9182573 7.49813278,10.4869295 C7.49813278,10.0512448 7.42406639,9.6373444 7.2846473,9.24522822 L13.0443983,6.02987552 C13.7284232,6.92302905 14.8089212,7.50248963 16.0201245,7.50248963 C18.0852697,7.50248963 19.7713693,5.82074689 19.7713693,3.75124481 C19.7713693,1.68174274 18.0896266,0 16.0201245,0 C13.9506224,0 12.2688797,1.68174274 12.2688797,3.75124481 C12.2688797,4.18692946 12.3429461,4.60518672 12.4823651,4.99294606 L6.72697095,8.20829876 C6.04294606,7.31078838 4.96244813,6.73568465 3.75124481,6.73568465 C1.68609959,6.73568465 0,8.41742739 0,10.4869295 C0,12.5564315 1.68609959,14.2381743 3.75560166,14.2381743 C4.96680498,14.2381743 6.0473029,13.6587137 6.73568465,12.7612033 L12.4954357,15.9809129 C12.3560166,16.373029 12.2775934,16.7956432 12.2775934,17.2313278 C12.2775934,19.296473 13.9593361,20.9825726 16.0288382,20.9825726 C18.0983402,20.9825726 19.780083,19.3008299 19.780083,17.2313278 C19.780083,15.1618257 18.0939834,13.480083 16.0244813,13.480083 Z"
                            id="Path"></path>
                    </g>
                </g>
            </g>
        </g>
    </g>
</svg>