<?xml version="1.0" encoding="UTF-8"?>
<svg height="25px" version="1.1" viewBox="0 0 25 25" width="25px"
    xmlns="http://www.w3.org/2000/svg">
    <!-- Generator: Sketch 52.4 (67378) - http://www.bohemiancoding.com/sketch -->
    <title>Stop</title>
    <desc>Created with Sketch.</desc>
    <g fill="none" fill-rule="evenodd" id="Page-1" stroke="none" stroke-width="1">
        <g id="Pitch---Thumbnail-1" transform="translate(-714.000000, -640.000000)">
            <g id="Group-2" transform="translate(385.000000, 624.000000)">
                <g id="Group-4">
                    <g id="Group-3" transform="translate(57.000000, 15.000000)">
                        <g id="Stop" transform="translate(272.000000, 1.000000)">
                            <rect height="24" id="Rectangle-3-Copy-4" stroke="#FACA0D" width="24"
                                x="0.5" y="0.5"></rect>
                            <path
                                d="M12.3304895,13.0021478 L6.1334974,19.2424335 C5.96133443,19.4157993 5.96133443,19.696665 6.1334974,19.8700308 C6.21946951,19.9568238 6.33234892,20 6.44500957,20 C6.55788898,20 6.67054963,19.9568238 6.75652174,19.8700308 L13.0001094,13.5828239 L19.243697,19.8700308 C19.3298879,19.9568238 19.4425485,20 19.5552092,20 C19.6678698,20 19.7807492,19.9568238 19.8667214,19.8700308 C20.0388843,19.696665 20.0388843,19.4157993 19.8667214,19.2424335 L13.669948,13.0021478 L19.8708778,6.75745632 C20.0430407,6.58409057 20.0430407,6.30322484 19.8708778,6.1298591 C19.6987148,5.95671363 19.4197976,5.95671363 19.2478534,6.1298591 L13.0003281,12.4214717 L6.75214657,6.13007938 C6.57998359,5.95693392 6.30128521,5.95693392 6.12912223,6.13007938 C5.95695926,6.30344513 5.95695926,6.58431086 6.12912223,6.7576766 L12.3304895,13.0021478 Z"
                                fill="#FACA0D" id="Path"></path>
                        </g>
                    </g>
                </g>
            </g>
        </g>
    </g>
</svg>