<?xml version="1.0" encoding="utf-8"?><svg id="14-workWithTheMarketLeaders" image-rendering="auto" baseProfile="basic" version="1.1" x="0px" y="0px" width="1180" height="560" xmlns="http://www.w3.org/2000/svg" xmlns:xlink="http://www.w3.org/1999/xlink"><defs><g id="Symbol-35" overflow="visible"><path fill="#FFF" stroke="none" d="M121.35 145.75L109.25 133.7 97.2 145.75 121.35 145.75M145.45 145.75L133.4 133.7 121.35 145.75 145.45 145.75M157.75 133.7L145.65 145.75 169.85 145.75 157.75 133.7M36.3 133.7L24.2 145.75 48.4 145.75 36.3 133.7M12.05 133.7L0 145.75 24.15 145.75 12.05 133.7M60.65 133.7L48.6 145.75 72.75 145.75 60.65 133.7M60.5 12.7L48.4 .65 36.45 12.65 36.3 12.5 36.15 12.7 24.05 .65 12 12.7 36.1 12.7 24.2 24.6 48.4 24.6 36.5 12.7 60.5 12.7M97.2 121.5L97 121.3 96.9 121.4 84.9 109.45 72.85 121.5 96.8 121.5 84.95 133.4 109.1 133.4 97.2 121.5M121.35 121.5L121.25 121.4 109.25 109.45 97.2 121.5 120.95 121.5 109.1 133.4 109.2 133.4 133.25 133.4 121.35 121.5M157.75 109.45L145.7 121.5 169.85 121.5 157.75 109.45M145.7 121.5L145.5 121.3 145.4 121.45 133.4 109.45 121.35 121.5 145.3 121.5 133.45 133.4 157.6 133.4 145.7 121.5M24.25 121.5L24.05 121.3 24 121.35 12.05 109.45 0 121.5 23.85 121.5 12 133.4 36.15 133.4 24.25 121.5M74.2 144.4L72.8 145.75 78.45 145.75 91.3 145.75 97 145.75 95.6 144.35 84.9 133.7 74.2 144.4M48.6 121.5L48.4 121.3 48.4 121.35 48.3 121.4 36.3 109.45 24.25 121.5 48.2 121.5 36.35 133.4 60.45 133.4 60.5 133.4 48.6 121.5M72.85 121.5L72.65 121.3 72.6 121.35 60.65 109.45 48.6 121.5 72.45 121.5 60.6 133.4 84.75 133.4 72.85 121.5M24.3 97.25L24.25 97.3 24.35 97.3 48.2 97.3 36.35 109.15 60.5 109.15 48.6 97.3 48.4 97.1 48.3 97.2 36.5 85.4 60.45 85.4 48.6 97.3 72.45 97.3 60.6 109.15 84.75 109.15 72.85 97.3 72.65 97.1 72.6 97.15 60.65 85.2 60.5 85.4 48.4 73.35 36.45 85.35 36.3 85.2 24.3 97.25M12.05 85.2L0 97.3 23.85 97.3 12 109.15 36.15 109.15 24.25 97.3 24.05 97.1 24 97.15 12.05 85.2M133.55 85.35L133.4 85.2 121.35 97.3 145.3 97.3 133.45 109.15 157.6 109.15 145.7 97.3 145.5 97.1 145.4 97.25 133.6 85.4 155.3 85.4 157.55 85.4 145.7 97.3 169.85 97.3 157.75 85.2 157.6 85.4 156.05 83.85 145.5 73.35 133.55 85.35M85.05 85.35L84.9 85.2 72.85 97.3 96.8 97.3 84.95 109.15 109.1 109.15 97.2 97.3 97 97.1 96.9 97.2 85.1 85.4 109.05 85.4 97.2 97.3 120.95 97.3 109.1 109.15 133.25 109.15 121.35 97.3 109.25 85.2 109.1 85.4 97 73.35 85.05 85.35M108.85 12.7L109.1 12.7 97 .65 95.55 2.1 85.05 12.65 84.9 12.5 84.75 12.7 74.1 2.1 72.65 .65 60.6 12.7 60.8 12.7 84.7 12.7 72.8 24.6 97 24.6 85.1 12.7 108.85 12.7M145.5 49.1L145.4 49.25 133.55 61.1 133.4 60.95 133.2 61.15 121.15 49.1 109.3 61 109.25 60.95 109.05 61.15 97 49.1 85.05 61.1 84.9 60.95 84.7 61.15 72.65 49.1 60.75 61.05 60.65 60.95 60.45 61.15 48.4 49.1 36.45 61.1 36.3 60.95 36.1 61.15 24.25 49.3 24.05 49.1 12.15 61.05 12.05 60.95 0 73.05 11.6 73.05 23.85 73.05 13.5 83.45 12 84.9 14.1 84.9 36.15 84.9 24.25 73.05 24.05 72.85 24 72.9 13.7 62.6 12.3 61.2 14.3 61.2 36.05 61.2 24.25 73.05 48.4 73.05 36.55 61.2 60.4 61.2 48.6 73.05 72.45 73.05 60.6 84.9 84.75 84.9 72.85 73.05 72.65 72.85 72.6 72.9 60.9 61.2 84.65 61.2 72.85 73.05 97 73.05 85.15 61.2 109 61.2 97.2 73.05 120.95 73.05 109.05 84.9 133.25 84.9 121.35 73.05 109.5 61.2 133.15 61.2 121.35 73.05 145.45 73.05 133.65 61.2 155.35 61.2 157.5 61.2 156.05 62.7 145.65 73.05 158.05 73.05 169.85 73.05 157.75 60.95 157.55 61.15 145.5 49.1M133.4 36.75L133.25 36.95 121.15 24.85 121.15 24.9 109.25 13 109.2 13.05 97.25 25.1 120.9 25.1 109.1 36.95 97.25 25.1 97 24.85 85.05 36.9 84.9 36.75 84.75 36.95 72.65 24.85 72.6 24.95 60.65 13 48.65 25.1 72.4 25.1 60.75 36.85 60.65 36.75 60.5 36.95 48.65 25.1 48.55 25 48.4 24.85 36.45 36.9 36.3 36.75 36.15 36.95 24.05 24.85 24 24.95 12.05 13 0 25.1 23.8 25.1 12.15 36.85 12.05 36.75 0 48.8 24.15 48.8 12.25 36.95 36.1 36.95 24.2 48.8 24.7 48.8 48.4 48.8 36.55 37 36.5 36.95 36.55 36.95 60.45 36.95 48.6 48.8 72.75 48.8 60.85 36.95 84.7 36.95 72.8 48.8 97 48.8 85.1 36.95 109.05 36.95 97.2 48.8 121.35 48.8 109.45 36.95 133.1 36.95 133.2 36.95 133.15 37 121.35 48.8 144.95 48.8 145.45 48.8 133.6 36.95 157.55 36.95 145.65 48.8 169.85 48.8 157.75 36.75 157.6 36.95 145.75 25.1 169.85 25.1 157.75 13 145.7 25.05 145.5 24.85 133.55 36.9 133.4 36.75M157.6 12.7L145.5 .65 133.55 12.65 133.4 12.5 133.25 12.7 121.15 .65 109.1 12.7 133.2 12.7 121.3 24.6 145.45 24.6 133.6 12.7 157.6 12.7Z"/><path fill="#D4D4D4" stroke="none" d="M97.2 121.5L109.1 133.4 120.95 121.5 97.2 121.5M84.85 146.45Q88.2 146.45 91.3 145.75L78.45 145.75Q81.5 146.45 84.85 146.45M60.5 133.4L60.45 133.4 65.6 138.55Q69.5 142.4 74.2 144.4L84.9 133.7 95.6 144.35Q100.2 142.35 104.05 138.55L109.2 133.4 109.1 133.4 84.95 133.4 96.8 121.5 72.85 121.5 84.75 133.4 60.6 133.4 72.45 121.5 48.6 121.5 60.5 133.4M48.6 97.3L60.45 85.4 36.5 85.4 48.3 97.2 48.4 97.1 48.6 97.3M60.9 61.2L72.6 72.9 72.65 72.85 72.85 73.05 84.65 61.2 60.9 61.2M11.6 73.05Q11.6 73.15 11.6 73.25 11.6 78.75 13.5 83.45L23.85 73.05 11.6 73.05M24.25 73.05L36.05 61.2 14.3 61.2Q13.95 61.9 13.7 62.6L24 72.9 24.05 72.85 24.25 73.05M48.65 25.1L60.5 36.95 60.65 36.75 60.75 36.85 72.4 25.1 48.65 25.1M145.3 97.3L121.35 97.3 133.25 109.15 109.1 109.15 84.95 109.15 96.8 97.3 72.85 97.3 84.75 109.15 60.6 109.15 72.45 97.3 48.6 97.3 60.5 109.15 36.35 109.15 48.2 97.3 24.35 97.3 48.4 121.35 48.4 121.3 48.6 121.5 60.65 109.45 72.6 121.35 72.65 121.3 72.85 121.5 84.9 109.45 96.9 121.4 97 121.3 97.2 121.5 109.25 109.45 121.25 121.4 133.45 109.15 145.3 97.3M150.15 92.45Q153.4 89.2 155.3 85.4L133.6 85.4 145.4 97.25 145.5 97.1 150.15 92.45M120.95 97.3L97.2 97.3 109.1 109.15 120.95 97.3M85.1 85.4L96.9 97.2 97 97.1 97.2 97.3 109.05 85.4 85.1 85.4M85.15 61.2L97 73.05 72.85 73.05 84.75 84.9 60.6 84.9 72.45 73.05 48.6 73.05 60.4 61.2 36.55 61.2 48.4 73.05 24.25 73.05 36.15 84.9 14.1 84.9Q16.05 89 19.5 92.45L24.3 97.25 36.3 85.2 36.45 85.35 48.4 73.35 60.5 85.4 60.65 85.2 72.6 97.15 72.65 97.1 72.85 97.3 84.9 85.2 85.05 85.35 97 73.35 109.1 85.4 109.25 85.2 121.35 97.3 133.4 85.2 133.55 85.35 145.5 73.35 156.05 83.85Q158.05 79 158.05 73.25 158.05 73.15 158.05 73.05L145.65 73.05 156.05 62.7Q155.7 61.95 155.35 61.2L133.65 61.2 145.45 73.05 121.35 73.05 133.25 84.9 109.05 84.9 120.95 73.05 97.2 73.05 109 61.2 85.15 61.2M109.5 61.2L121.35 73.05 133.15 61.2 109.5 61.2M109.1 36.95L120.9 25.1 97.25 25.1 109.1 36.95M95.55 2.1Q90.65 0 84.85 0 79.05 0 74.1 2.1L84.75 12.7 84.9 12.5 85.05 12.65 95.55 2.1M109.2 13.05L108.85 12.7 85.1 12.7 97 24.6 72.8 24.6 84.7 12.7 60.8 12.7 48.55 25 48.65 25.1 60.65 13 72.6 24.95 72.65 24.85 84.75 36.95 84.9 36.75 85.05 36.9 97 24.85 97.25 25.1 109.2 13.05M145.4 49.25L144.95 48.8 121.35 48.8 97.2 48.8 109.05 36.95 85.1 36.95 97 48.8 72.8 48.8 84.7 36.95 60.85 36.95 72.75 48.8 48.6 48.8 60.45 36.95 36.55 36.95 36.55 37 48.4 48.8 24.7 48.8 24.25 49.3 36.1 61.15 36.3 60.95 36.45 61.1 48.4 49.1 60.45 61.15 60.65 60.95 60.75 61.05 72.65 49.1 84.7 61.15 84.9 60.95 85.05 61.1 97 49.1 109.05 61.15 109.25 60.95 109.3 61 121.15 49.1 133.2 61.15 133.4 60.95 133.55 61.1 145.4 49.25M133.15 37L133.1 36.95 109.45 36.95 121.35 48.8 133.15 37Z"/></g></defs><g id="Scene-1r1" overflow="visible" display="none"><g id="Tween-17" transform="translate(692.5 310.35)" opacity="0"><animateTransform attributeName="transform" additive="replace" type="translate" dur="0.828s" keyTimes="0;.375;.666;1" values="692.5,310.35;692.5,310.35;692.5,260.35;692.5,260.35" keySplines=".25 .5 .5 1;.25 .5 .5 1;.1 .1 .9 .9" calcMode="spline" fill="freeze"/><animate attributeName="opacity" dur="0.828s" keyTimes="0;.375;.666;1" values="0;0;1;1" keySplines=".25 .5 .5 1;.25 .5 .5 1;.1 .1 .9 .9" calcMode="spline" fill="freeze"/><use xlink:href="#Symbol-35" transform="translate(-197.3 72.35)" opacity=".2"/><use xlink:href="#Symbol-35" transform="translate(116.1 72.35)" opacity=".2"/><use xlink:href="#Symbol-35" transform="translate(-510.4 -156.5)" opacity=".2"/><use xlink:href="#Symbol-35" transform="translate(-197.3 -156.5)" opacity=".2"/><use xlink:href="#Symbol-35" transform="translate(116.1 -156.75)" opacity=".2"/><use xlink:href="#Symbol-35" transform="translate(-510.4 72.35)" opacity=".2"/><path fill="#404041" stroke="none" d="M-450.6 246.9Q-452 245.7 -454 245.7 -456 245.7 -457.5 247.05 -458.95 248.4 -458.95 250.7 -458.95 252.95 -457.5 254.35 -456.05 255.7 -453.85 255.7 -451.65 255.7 -450 254.15L-451.55 252.5Q-452.45 253.45 -453.85 253.45 -454.75 253.45 -455.45 252.95 -456.15 252.45 -456.3 251.65L-449.25 251.65 -449.25 250.2Q-449.25 248.1 -450.6 246.9M-453.95 247.95Q-453.15 247.95 -452.6 248.4 -452.05 248.85 -451.95 249.75L-456.2 249.75Q-456.1 248.9 -455.45 248.4 -454.8 247.95 -453.95 247.95M-465.8 242.95L-465.8 245.85 -466.95 245.85 -466.95 247.8 -465.8 247.8 -465.8 252.25Q-465.8 253.85 -464.85 254.75 -463.9 255.65 -462.5 255.7 -461.1 255.7 -459.85 254.5L-460.85 252.65Q-461.35 253.3 -462.15 253.3 -462.5 253.3 -462.8 253 -463.1 252.7 -463.1 252.15L-463.1 247.8 -460.75 247.8 -460.75 245.85 -463.1 245.85 -463.1 242.95 -465.8 242.95M-472.7 245.7Q-475.15 245.7 -477.05 247.1L-475.85 248.85Q-475.3 248.4 -474.55 248.15 -473.75 247.85 -473.05 247.85 -471.4 247.85 -471.4 249.4L-471.4 249.45 -473.4 249.45Q-475.3 249.45 -476.35 250.2 -477.45 250.95 -477.45 252.4 -477.45 253.9 -476.4 254.8 -475.35 255.7 -473.8 255.7 -472.3 255.7 -471.25 254.4L-471.25 255.55 -468.7 255.55 -468.7 249.35Q-468.7 247.45 -469.8 246.6 -470.95 245.7 -472.7 245.7M-474.35 253.2Q-474.75 252.9 -474.75 252.4 -474.75 251.4 -473.1 251.4L-471.4 251.4 -471.4 251.85Q-471.4 252.6 -471.95 253.05 -472.5 253.45 -473.25 253.5 -473.95 253.45 -474.35 253.2M-414.3 245.7Q-416.75 245.7 -418.65 247.1L-417.45 248.85Q-416.9 248.4 -416.1 248.15 -415.35 247.85 -414.65 247.85 -413 247.85 -413 249.4L-413 249.45 -415 249.45Q-416.9 249.45 -417.95 250.2 -419.05 250.95 -419.05 252.4 -419.05 253.9 -418 254.8 -416.95 255.7 -415.4 255.7 -413.9 255.7 -412.85 254.4L-412.85 255.55 -410.3 255.55 -410.3 249.35Q-410.3 247.45 -411.4 246.6 -412.55 245.7 -414.3 245.7M-413 251.85Q-413 252.6 -413.55 253.05 -414.1 253.45 -414.85 253.5 -415.55 253.45 -415.95 253.2 -416.35 252.9 -416.35 252.4 -416.35 251.4 -414.7 251.4L-413 251.4 -413 251.85M-440.55 242.2L-440.55 246.95Q-441.65 245.7 -443.4 245.7 -445.15 245.7 -446.5 247.1 -447.8 248.45 -447.8 250.6 -447.8 252.8 -446.45 254.25 -445.1 255.7 -443.4 255.7 -441.65 255.7 -440.55 254.3L-440.55 255.55 -437.85 255.55 -437.85 242.2 -440.55 242.2M-444.4 248.75Q-443.7 247.95 -442.75 248 -441.8 248 -441.15 248.75 -440.5 249.55 -440.5 250.7 -440.5 251.9 -441.15 252.65 -441.8 253.4 -442.75 253.4 -443.65 253.4 -444.4 252.65 -445.1 251.9 -445.1 250.75 -445.1 249.55 -444.4 248.75M-427.85 245.85L-430.55 245.85 -430.55 259.05 -427.85 259.05 -427.85 254.25Q-426.75 255.7 -425 255.7 -423.2 255.7 -421.9 254.25 -420.55 252.8 -420.6 250.65 -420.6 248.55 -421.9 247.1 -423.25 245.7 -424.9 245.7 -426.6 245.7 -427.85 246.95L-427.85 245.85M-424 248.75Q-423.3 249.55 -423.3 250.7 -423.3 251.9 -424 252.65 -424.7 253.4 -425.65 253.4 -426.55 253.4 -427.25 252.65 -427.9 251.9 -427.9 250.7 -427.9 249.55 -427.25 248.75 -426.6 247.95 -425.6 247.95 -424.65 247.95 -424 248.75M-373.25 246.9Q-374.7 245.7 -376.65 245.7 -378.65 245.7 -380.15 247.05 -381.6 248.4 -381.6 250.7 -381.6 252.95 -380.15 254.35 -378.7 255.7 -376.5 255.7 -374.3 255.7 -372.65 254.15L-374.2 252.5Q-375.1 253.45 -376.5 253.45 -377.4 253.45 -378.1 252.95 -378.8 252.45 -378.95 251.65L-371.9 251.65 -371.9 250.2Q-371.9 248.1 -373.25 246.9M-378.85 249.75Q-378.75 248.9 -378.1 248.4 -377.45 247.95 -376.6 247.95 -375.85 247.95 -375.25 248.4 -374.7 248.85 -374.6 249.75L-378.85 249.75M-367.2 247.15L-367.2 245.85 -369.9 245.85 -369.9 255.55 -367.2 255.55 -367.2 251.35Q-367.2 249.95 -366.6 249.1 -366 248.25 -364.8 248.25L-364.3 248.25 -364.3 245.7Q-365.1 245.7 -365.9 246.15 -366.7 246.55 -367.2 247.15M-387.1 245.7Q-388.65 245.7 -389.85 246.95L-389.85 245.85 -392.55 245.85 -392.55 255.55 -389.85 255.55 -389.85 250.15Q-389.85 249 -389.25 248.45 -388.65 247.85 -387.85 247.85 -386.2 247.85 -386.2 250.05L-386.2 255.55 -383.5 255.55 -383.5 249.65Q-383.5 247.85 -384.55 246.8 -385.55 245.7 -387.1 245.7M-402.25 245.7Q-403.05 245.7 -403.85 246.15 -404.65 246.55 -405.15 247.15L-405.15 245.85 -407.85 245.85 -407.85 255.55 -405.15 255.55 -405.15 251.35Q-405.15 249.95 -404.55 249.1 -403.95 248.25 -402.75 248.25L-402.25 248.25 -402.25 245.7M-399.95 242.95L-399.95 245.85 -401.1 245.85 -401.1 247.8 -399.95 247.8 -399.95 252.25Q-399.95 253.85 -399 254.75 -398.05 255.65 -396.65 255.7 -395.25 255.7 -394 254.5L-395 252.65Q-395.5 253.3 -396.3 253.3 -396.65 253.3 -396.95 253 -397.25 252.7 -397.25 252.15L-397.25 247.8 -394.9 247.8 -394.9 245.85 -397.25 245.85 -397.25 242.95 -399.95 242.95M-358.9 245.7Q-360.65 245.7 -361.7 246.55 -362.8 247.4 -362.8 248.75 -362.8 250.1 -361.7 250.75 -361.15 251.1 -360.75 251.3 -360.3 251.45 -359.5 251.7 -358.7 251.95 -358.3 252.25 -357.85 252.55 -357.85 252.9 -357.85 253.2 -358.15 253.45 -358.45 253.65 -359 253.65 -360.7 253.65 -362.2 252.45L-363.4 254.15Q-362.45 254.9 -361.3 255.3 -360.1 255.7 -359.05 255.7 -357.45 255.7 -356.35 254.85 -355.3 253.95 -355.3 252.55 -355.3 251.1 -356.35 250.5 -356.85 250.15 -357.25 250 -357.65 249.85 -358.55 249.55 -359.5 249.3 -359.85 249.05 -360.25 248.85 -360.25 248.45 -360.25 247.8 -359 247.8 -357.75 247.8 -356.5 248.65L-355.5 246.85Q-357.2 245.7 -358.9 245.7M-328.7 246.9Q-330.1 245.7 -332.1 245.7 -334.1 245.7 -335.6 247.05 -337.05 248.4 -337.05 250.7 -337.05 252.95 -335.6 254.35 -334.15 255.7 -331.95 255.7 -329.75 255.7 -328.1 254.15L-329.65 252.5Q-330.55 253.45 -331.95 253.45 -332.85 253.45 -333.55 252.95 -334.25 252.45 -334.4 251.65L-327.35 251.65 -327.35 250.2Q-327.35 248.1 -328.7 246.9M-330.7 248.4Q-330.15 248.85 -330.05 249.75L-334.3 249.75Q-334.2 248.9 -333.55 248.4 -332.9 247.95 -332.05 247.95 -331.25 247.95 -330.7 248.4M-341.75 246.95Q-342.85 245.7 -344.6 245.7 -346.35 245.7 -347.7 247.1 -349 248.45 -349 250.6 -349 252.8 -347.65 254.25 -346.3 255.7 -344.6 255.7 -342.85 255.7 -341.75 254.3L-341.75 255.55 -339.05 255.55 -339.05 242.2 -341.75 242.2 -341.75 246.95M-341.7 250.7Q-341.7 251.9 -342.35 252.65 -343 253.4 -343.95 253.4 -344.85 253.4 -345.6 252.65 -346.3 251.9 -346.3 250.75 -346.3 249.55 -345.6 248.75 -344.9 247.95 -343.95 248 -343 248 -342.35 248.75 -341.7 249.55 -341.7 250.7M-487.95 250.7Q-487.95 252.95 -486.45 254.3 -484.95 255.7 -482.75 255.7 -480.6 255.7 -478.7 253.75L-480.3 251.95Q-481.4 253.3 -482.75 253.3 -483.75 253.3 -484.55 252.6 -485.3 251.95 -485.3 250.7 -485.3 249.45 -484.55 248.75 -483.8 248.05 -482.7 248.1 -482.05 248.05 -481.35 248.4 -480.7 248.7 -480.25 249.25L-478.8 247.4Q-479.65 246.55 -480.7 246.15 -481.8 245.7 -482.8 245.7 -484.9 245.7 -486.45 247.1 -487.95 248.5 -487.95 250.7M-489.9 245.85L-492.6 245.85 -492.6 255.55 -489.9 255.55 -489.9 245.85M-492.4 242.35Q-492.85 242.8 -492.85 243.5 -492.85 244.15 -492.4 244.6 -491.95 245.05 -491.25 245.05 -490.6 245.05 -490.15 244.6 -489.7 244.15 -489.7 243.5 -489.7 242.8 -490.15 242.35 -490.6 241.9 -491.25 241.9 -491.95 241.9 -492.4 242.35M-497.9 246.95Q-499 245.7 -500.75 245.7 -502.5 245.7 -503.85 247.1 -505.15 248.45 -505.15 250.6 -505.15 252.8 -503.8 254.25 -502.45 255.7 -500.75 255.7 -499 255.7 -497.9 254.3L-497.9 255.55 -495.2 255.55 -495.2 242.2 -497.9 242.2 -497.9 246.95M-498.5 252.65Q-499.15 253.4 -500.1 253.4 -501 253.4 -501.75 252.65 -502.45 251.9 -502.45 250.75 -502.45 249.55 -501.75 248.75 -501.05 247.95 -500.1 248 -499.15 248 -498.5 248.75 -497.85 249.55 -497.85 250.7 -497.85 251.9 -498.5 252.65M-519.7 244.6Q-521.5 242.95 -524.85 242.95L-529.3 242.95 -529.3 255.55 -525 255.55Q-521.4 255.55 -519.65 253.8 -517.9 252.1 -517.9 249.2 -517.9 246.25 -519.7 244.6M-526.5 245.4L-524.95 245.4Q-522.8 245.4 -521.75 246.4 -520.7 247.4 -520.7 249.25 -520.7 251.1 -521.75 252.1 -522.8 253.05 -524.7 253.05L-526.5 253.05 -526.5 245.4M-507.95 246.9Q-509.4 245.7 -511.35 245.7 -513.35 245.7 -514.85 247.05 -516.3 248.4 -516.3 250.7 -516.3 252.95 -514.85 254.35 -513.4 255.7 -511.2 255.7 -509 255.7 -507.35 254.15L-508.9 252.5Q-509.8 253.45 -511.2 253.45 -512.1 253.45 -512.8 252.95 -513.5 252.45 -513.65 251.65L-506.6 251.65 -506.6 250.2Q-506.6 248.1 -507.95 246.9M-509.95 248.4Q-509.4 248.85 -509.3 249.75L-513.55 249.75Q-513.45 248.9 -512.8 248.4 -512.15 247.95 -511.3 247.95 -510.55 247.95 -509.95 248.4M-499.7 11.7Q-500.65 11.4 -501.9 11.4L-506.8 11.4 -506.8 24 -501.3 24Q-498.7 24 -497.65 22.8 -496.75 21.8 -496.75 20.5 -496.75 19.3 -497.45 18.5 -498.15 17.7 -499.3 17.45 -499 17.3 -498.85 17.25 -498.75 17.15 -498.4 16.95 -497.45 16.2 -497.45 14.75 -497.45 13.5 -498.3 12.55 -498.75 12 -499.7 11.7M-500.9 14.05Q-500.35 14.3 -500.35 15.15 -500.35 16 -500.9 16.25 -501.5 16.5 -502.65 16.5L-504 16.5 -504 13.8 -502.65 13.8Q-501.4 13.75 -500.9 14.05M-504 18.7L-502.35 18.7Q-500.95 18.7 -500.3 19 -499.65 19.25 -499.65 20.15 -499.65 21 -500.25 21.3 -500.85 21.6 -502.05 21.6L-504 21.6 -504 18.7M-446.1 35.9L-453.9 35.9 -453.9 38.15 -449.7 38.15 -454.25 43.35 -454.25 45.6 -445.85 45.6 -445.85 43.35 -450.8 43.35 -446.1 38 -446.1 35.9M-465.9 35.9L-467.05 35.9 -467.05 37.85 -465.9 37.85 -465.9 42.3Q-465.9 43.9 -464.95 44.8 -464 45.7 -462.6 45.75 -461.2 45.75 -459.95 44.55L-460.95 42.7Q-461.45 43.35 -462.25 43.35 -462.6 43.35 -462.9 43.05 -463.2 42.75 -463.2 42.2L-463.2 37.85 -460.85 37.85 -460.85 35.9 -463.2 35.9 -463.2 33 -465.9 33 -465.9 35.9M-469.85 36.65Q-471 35.75 -472.75 35.75 -475.2 35.75 -477.1 37.15L-475.9 38.9Q-475.35 38.45 -474.55 38.2 -473.8 37.9 -473.1 37.9 -471.45 37.9 -471.45 39.45L-471.45 39.5 -473.45 39.5Q-475.35 39.5 -476.4 40.25 -477.5 41 -477.5 42.45 -477.5 43.95 -476.45 44.85 -475.4 45.75 -473.85 45.75 -472.35 45.75 -471.3 44.45L-471.3 45.6 -468.75 45.6 -468.75 39.4Q-468.75 37.5 -469.85 36.65M-474.4 43.25Q-474.8 42.95 -474.8 42.45 -474.8 41.45 -473.15 41.45L-471.45 41.45 -471.45 41.9Q-471.45 42.65 -472 43.1 -472.55 43.5 -473.3 43.55 -474 43.5 -474.4 43.25M-485.5 20.1L-485.5 18.65Q-485.5 16.55 -486.85 15.35 -488.3 14.15 -490.25 14.15 -492.25 14.15 -493.75 15.5 -495.2 16.85 -495.2 19.15 -495.2 21.4 -493.75 22.8 -492.3 24.15 -490.1 24.15 -487.9 24.15 -486.25 22.6L-487.8 20.95Q-488.7 21.9 -490.1 21.9 -491 21.9 -491.7 21.4 -492.4 20.9 -492.55 20.1L-485.5 20.1M-490.2 16.4Q-489.45 16.4 -488.85 16.85 -488.3 17.3 -488.2 18.2L-492.45 18.2Q-492.35 17.35 -491.7 16.85 -491.05 16.4 -490.2 16.4M-477.5 16.85Q-476.85 17.15 -476.4 17.7L-474.95 15.85Q-475.8 15 -476.85 14.6 -477.95 14.15 -478.95 14.15 -481.05 14.15 -482.6 15.55 -484.1 16.95 -484.1 19.15 -484.1 21.4 -482.6 22.75 -481.1 24.15 -478.9 24.15 -476.75 24.15 -474.85 22.2L-476.45 20.4Q-477.55 21.75 -478.9 21.75 -479.9 21.75 -480.7 21.05 -481.45 20.4 -481.45 19.15 -481.45 17.9 -480.7 17.2 -479.95 16.5 -478.85 16.55 -478.2 16.5 -477.5 16.85M-465 22.7Q-463.55 21.25 -463.55 19.15 -463.55 17.05 -465 15.6 -466.45 14.15 -468.7 14.15 -470.9 14.15 -472.35 15.6 -473.8 17.05 -473.8 19.15 -473.8 21.25 -472.35 22.7 -470.9 24.15 -468.7 24.15 -466.5 24.15 -465 22.7M-470.4 17.2Q-469.75 16.45 -468.7 16.45 -467.65 16.45 -466.95 17.2 -466.25 17.95 -466.3 19.15 -466.3 20.35 -466.95 21.1 -467.6 21.85 -468.7 21.85 -469.75 21.85 -470.4 21.1 -471.1 20.35 -471.1 19.15 -471.1 17.95 -470.4 17.2M-456.85 16.45Q-456.05 16.45 -455.75 17 -455.35 17.55 -455.4 18.7L-455.4 24 -452.65 24 -452.65 18.8Q-452.65 17.65 -452.05 17.05 -451.45 16.5 -450.65 16.45 -449.05 16.45 -449 18.7L-449 24 -446.3 24 -446.3 18.1Q-446.3 16.2 -447.35 15.15 -448.4 14.15 -450.1 14.15 -451.05 14.15 -452 14.65 -452.95 15.1 -453.5 16 -453.9 15.25 -454.65 14.7 -455.35 14.15 -456.3 14.15 -457.75 14.15 -458.85 15.4L-458.85 14.3 -461.55 14.3 -461.55 24 -458.85 24 -458.85 18.8Q-458.85 17.65 -458.25 17.05 -457.65 16.5 -456.85 16.45M-415.7 40.75Q-415.7 38.65 -417.15 37.2 -418.6 35.75 -420.85 35.75 -423.05 35.75 -424.5 37.2 -425.95 38.65 -425.95 40.75 -425.95 42.85 -424.5 44.3 -423.05 45.75 -420.85 45.75 -418.65 45.75 -417.15 44.3 -415.7 42.85 -415.7 40.75M-418.45 40.75Q-418.45 41.95 -419.1 42.7 -419.75 43.45 -420.85 43.45 -421.9 43.45 -422.55 42.7 -423.25 41.95 -423.25 40.75 -423.25 39.55 -422.55 38.8 -421.9 38.05 -420.85 38.05 -419.8 38.05 -419.1 38.8 -418.4 39.55 -418.45 40.75M-436 36.95Q-437.4 35.75 -439.4 35.75 -441.4 35.75 -442.9 37.1 -444.35 38.45 -444.35 40.75 -444.35 43 -442.9 44.4 -441.45 45.75 -439.25 45.75 -437.05 45.75 -435.4 44.2L-436.95 42.55Q-437.85 43.5 -439.25 43.5 -440.15 43.5 -440.85 43 -441.55 42.5 -441.7 41.7L-434.65 41.7 -434.65 40.25Q-434.65 38.15 -436 36.95M-439.35 38Q-438.55 38 -438 38.45 -437.45 38.9 -437.35 39.8L-441.6 39.8Q-441.5 38.95 -440.85 38.45 -440.2 38 -439.35 38M-427.05 35.75Q-427.85 35.75 -428.65 36.2 -429.45 36.6 -429.95 37.2L-429.95 35.9 -432.65 35.9 -432.65 45.6 -429.95 45.6 -429.95 41.4Q-429.95 40 -429.35 39.15 -428.75 38.3 -427.55 38.3L-427.05 38.3 -427.05 35.75M-436.05 15.35Q-437.5 14.15 -439.45 14.15 -441.45 14.15 -442.95 15.5 -444.4 16.85 -444.4 19.15 -444.4 21.4 -442.95 22.8 -441.5 24.15 -439.3 24.15 -437.1 24.15 -435.45 22.6L-437 20.95Q-437.9 21.9 -439.3 21.9 -440.2 21.9 -440.9 21.4 -441.6 20.9 -441.75 20.1L-434.7 20.1 -434.7 18.65Q-434.7 16.55 -436.05 15.35M-438.05 16.85Q-437.5 17.3 -437.4 18.2L-441.65 18.2Q-441.55 17.35 -440.9 16.85 -440.25 16.4 -439.4 16.4 -438.65 16.4 -438.05 16.85M-420.85 15.05Q-422 14.15 -423.75 14.15 -426.2 14.15 -428.1 15.55L-426.9 17.3Q-426.35 16.85 -425.55 16.6 -424.8 16.3 -424.1 16.3 -422.45 16.3 -422.45 17.85L-422.45 17.9 -424.45 17.9Q-426.35 17.9 -427.4 18.65 -428.5 19.4 -428.5 20.85 -428.5 22.35 -427.45 23.25 -426.4 24.15 -424.85 24.15 -423.35 24.15 -422.3 22.85L-422.3 24 -419.75 24 -419.75 17.8Q-419.75 15.9 -420.85 15.05M-422.45 19.85L-422.45 20.3Q-422.45 21.05 -423 21.5 -423.55 21.9 -424.3 21.95 -425 21.9 -425.4 21.65 -425.8 21.35 -425.8 20.85 -425.8 19.85 -424.15 19.85L-422.45 19.85M-372.2 35.9L-374.55 35.9 -374.55 33 -377.25 33 -377.25 35.9 -378.4 35.9 -378.4 37.85 -377.25 37.85 -377.25 42.3Q-377.25 43.9 -376.3 44.8 -375.35 45.7 -373.95 45.75 -372.55 45.75 -371.3 44.55L-372.3 42.7Q-372.8 43.35 -373.6 43.35 -373.95 43.35 -374.25 43.05 -374.55 42.75 -374.55 42.2L-374.55 37.85 -372.2 37.85 -372.2 35.9M-387.25 38.8Q-387.25 40.15 -386.15 40.8 -385.6 41.15 -385.2 41.35 -384.75 41.5 -383.95 41.75 -383.15 42 -382.75 42.3 -382.3 42.6 -382.3 42.95 -382.3 43.25 -382.6 43.5 -382.9 43.7 -383.45 43.7 -385.15 43.7 -386.65 42.5L-387.85 44.2Q-386.9 44.95 -385.75 45.35 -384.55 45.75 -383.5 45.75 -381.9 45.75 -380.8 44.9 -379.75 44 -379.75 42.6 -379.75 41.15 -380.8 40.55 -381.3 40.2 -381.7 40.05 -382.1 39.9 -383 39.6 -383.95 39.35 -384.3 39.1 -384.7 38.9 -384.7 38.5 -384.7 37.85 -383.45 37.85 -382.2 37.85 -380.95 38.7L-379.95 36.9Q-381.65 35.75 -383.35 35.75 -385.1 35.75 -386.15 36.6 -387.25 37.45 -387.25 38.8M-397.75 37.2Q-399.2 38.65 -399.2 40.75 -399.2 42.85 -397.75 44.3 -396.3 45.75 -394.1 45.75 -391.9 45.75 -390.4 44.3 -388.95 42.85 -388.95 40.75 -388.95 38.65 -390.4 37.2 -391.85 35.75 -394.1 35.75 -396.3 35.75 -397.75 37.2M-396.5 40.75Q-396.5 39.55 -395.8 38.8 -395.15 38.05 -394.1 38.05 -393.05 38.05 -392.35 38.8 -391.65 39.55 -391.7 40.75 -391.7 41.95 -392.35 42.7 -393 43.45 -394.1 43.45 -395.15 43.45 -395.8 42.7 -396.5 41.95 -396.5 40.75M-402.3 36.2Q-403.4 35.75 -404.4 35.75 -406.5 35.75 -408.05 37.15 -409.55 38.55 -409.55 40.75 -409.55 43 -408.05 44.35 -406.55 45.75 -404.35 45.75 -402.2 45.75 -400.3 43.8L-401.9 42Q-403 43.35 -404.35 43.35 -405.35 43.35 -406.15 42.65 -406.9 42 -406.9 40.75 -406.9 39.5 -406.15 38.8 -405.4 38.1 -404.3 38.15 -403.65 38.1 -402.95 38.45 -402.3 38.75 -401.85 39.3L-400.4 37.45Q-401.25 36.6 -402.3 36.2M-403.9 22.7Q-402.55 21.25 -402.6 19.1 -402.6 17 -403.9 15.55 -405.25 14.15 -406.9 14.15 -408.6 14.15 -409.85 15.4L-409.85 14.3 -412.55 14.3 -412.55 27.5 -409.85 27.5 -409.85 22.7Q-408.75 24.15 -407 24.15 -405.2 24.15 -403.9 22.7M-407.6 16.4Q-406.65 16.4 -406 17.2 -405.3 18 -405.3 19.15 -405.3 20.35 -406 21.1 -406.7 21.85 -407.65 21.85 -408.55 21.85 -409.25 21.1 -409.9 20.35 -409.9 19.15 -409.9 18 -409.25 17.2 -408.6 16.4 -407.6 16.4M-399.5 17.3Q-398.95 16.85 -398.2 16.6 -397.4 16.3 -396.7 16.3 -395.05 16.3 -395.05 17.85L-395.05 17.9 -397.05 17.9Q-398.95 17.9 -400 18.65 -401.1 19.4 -401.1 20.85 -401.1 22.35 -400.05 23.25 -399 24.15 -397.45 24.15 -395.95 24.15 -394.9 22.85L-394.9 24 -392.35 24 -392.35 17.8Q-392.35 15.9 -393.45 15.05 -394.6 14.15 -396.35 14.15 -398.8 14.15 -400.7 15.55L-399.5 17.3M-396.75 19.85L-395.05 19.85 -395.05 20.3Q-395.05 21.05 -395.6 21.5 -396.15 21.9 -396.9 21.95 -397.6 21.9 -398 21.65 -398.4 21.35 -398.4 20.85 -398.4 19.85 -396.75 19.85M-365.5 18.1Q-365.5 16.3 -366.55 15.25 -367.55 14.15 -369.1 14.15 -370.65 14.15 -371.85 15.4L-371.85 14.3 -374.55 14.3 -374.55 24 -371.85 24 -371.85 18.6Q-371.85 17.45 -371.25 16.9 -370.65 16.3 -369.85 16.3 -368.2 16.3 -368.2 18.5L-368.2 24 -365.5 24 -365.5 18.1M-384.75 16.7L-384.25 16.7 -384.25 14.15Q-385.05 14.15 -385.85 14.6 -386.65 15 -387.15 15.6L-387.15 14.3 -389.85 14.3 -389.85 24 -387.15 24 -387.15 19.8Q-387.15 18.4 -386.55 17.55 -385.95 16.7 -384.75 16.7M-379.25 11.4L-381.95 11.4 -381.95 14.3 -383.1 14.3 -383.1 16.25 -381.95 16.25 -381.95 20.7Q-381.95 22.3 -381 23.2 -380.05 24.1 -378.65 24.15 -377.25 24.15 -376 22.95L-377 21.1Q-377.5 21.75 -378.3 21.75 -378.65 21.75 -378.95 21.45 -379.25 21.15 -379.25 20.6L-379.25 16.25 -376.9 16.25 -376.9 14.3 -379.25 14.3 -379.25 11.4M-346.85 16.7L-346.35 16.7 -346.35 14.15Q-347.15 14.15 -347.95 14.6 -348.75 15 -349.25 15.6L-349.25 14.3 -351.95 14.3 -351.95 24 -349.25 24 -349.25 19.8Q-349.25 18.4 -348.65 17.55 -348.05 16.7 -346.85 16.7M-355.25 15.35Q-356.65 14.15 -358.65 14.15 -360.65 14.15 -362.15 15.5 -363.6 16.85 -363.6 19.15 -363.6 21.4 -362.15 22.8 -360.7 24.15 -358.5 24.15 -356.3 24.15 -354.65 22.6L-356.2 20.95Q-357.1 21.9 -358.5 21.9 -359.4 21.9 -360.1 21.4 -360.8 20.9 -360.95 20.1L-353.9 20.1 -353.9 18.65Q-353.9 16.55 -355.25 15.35M-357.25 16.85Q-356.7 17.3 -356.6 18.2L-360.85 18.2Q-360.75 17.35 -360.1 16.85 -359.45 16.4 -358.6 16.4 -357.8 16.4 -357.25 16.85M-156.45 242.2L-159.15 242.2 -159.15 255.55 -156.45 255.55 -156.45 252.75 -155.55 251.85 -153.1 255.55 -149.9 255.55 -153.75 249.8 -150.05 245.85 -153.45 245.85 -156.45 249.05 -156.45 242.2M-130.65 246.9Q-132.05 245.7 -134.05 245.7 -136.05 245.7 -137.55 247.05 -139 248.4 -139 250.7 -139 252.95 -137.55 254.35 -136.1 255.7 -133.9 255.7 -131.7 255.7 -130.05 254.15L-131.6 252.5Q-132.5 253.45 -133.9 253.45 -134.8 253.45 -135.5 252.95 -136.2 252.45 -136.35 251.65L-129.3 251.65 -129.3 250.2Q-129.3 248.1 -130.65 246.9M-132.65 248.4Q-132.1 248.85 -132 249.75L-136.25 249.75Q-136.15 248.9 -135.5 248.4 -134.85 247.95 -134 247.95 -133.2 247.95 -132.65 248.4M-141 242.2L-143.7 242.2 -143.7 255.55 -141 255.55 -141 242.2M-103.1 242.2L-105.8 242.2 -105.8 255.55 -103.1 255.55 -103.1 242.2M-109.15 246.9Q-110.5 245.7 -112.5 245.7 -114.5 245.7 -116 247.05 -117.45 248.4 -117.45 250.7 -117.45 252.95 -116 254.35 -114.55 255.7 -112.35 255.7 -110.15 255.7 -108.5 254.15L-110.05 252.5Q-110.95 253.45 -112.35 253.45 -113.25 253.45 -113.95 252.95 -114.65 252.45 -114.8 251.65L-107.75 251.65 -107.75 250.2Q-107.7 248.1 -109.15 246.9M-111.1 248.4Q-110.55 248.85 -110.45 249.75L-114.7 249.75Q-114.6 248.9 -113.95 248.4 -113.3 247.95 -112.45 247.95 -111.7 247.95 -111.1 248.4M-118.25 245.85L-121.05 245.85 -123.5 251.95 -125.9 245.85 -128.7 245.85 -124.85 255.55 -122.1 255.55 -118.25 245.85M-88.7 246.85Q-90.4 245.7 -92.1 245.7 -93.85 245.7 -94.9 246.55 -96 247.4 -96 248.75 -96 250.1 -94.9 250.75 -94.35 251.1 -93.95 251.3 -93.5 251.45 -92.7 251.7 -91.9 251.95 -91.5 252.25 -91.05 252.55 -91.05 252.9 -91.05 253.2 -91.35 253.45 -91.65 253.65 -92.2 253.65 -93.9 253.65 -95.4 252.45L-96.6 254.15Q-95.65 254.9 -94.5 255.3 -93.3 255.7 -92.25 255.7 -90.65 255.7 -89.55 254.85 -88.5 253.95 -88.5 252.55 -88.5 251.1 -89.55 250.5 -90.05 250.15 -90.45 250 -90.85 249.85 -91.75 249.55 -92.7 249.3 -93.05 249.05 -93.45 248.85 -93.45 248.45 -93.45 247.8 -92.2 247.8 -90.95 247.8 -89.7 248.65L-88.7 246.85M-77.25 251.65L-77.25 250.2Q-77.25 248.1 -78.6 246.9 -80 245.7 -82 245.7 -84 245.7 -85.5 247.05 -86.95 248.4 -86.95 250.7 -86.95 252.95 -85.5 254.35 -84.05 255.7 -81.85 255.7 -79.65 255.7 -78 254.15L-79.55 252.5Q-80.45 253.45 -81.85 253.45 -82.75 253.45 -83.45 252.95 -84.15 252.45 -84.3 251.65L-77.25 251.65M-80.6 248.4Q-80.05 248.85 -79.95 249.75L-84.2 249.75Q-84.1 248.9 -83.45 248.4 -82.8 247.95 -81.95 247.95 -81.15 247.95 -80.6 248.4M-43.2 245.85L-45.9 245.85 -45.9 255.55 -43.2 255.55 -43.2 245.85M-46.15 243.5Q-46.15 244.15 -45.7 244.6 -45.25 245.05 -44.55 245.05 -43.9 245.05 -43.45 244.6 -43 244.15 -43 243.5 -43 242.8 -43.45 242.35 -43.9 241.9 -44.55 241.9 -45.25 241.9 -45.7 242.35 -46.15 242.8 -46.15 243.5M-50.6 247.15L-50.6 245.85 -53.3 245.85 -53.3 255.55 -50.6 255.55 -50.6 251.35Q-50.6 249.95 -50 249.1 -49.4 248.25 -48.2 248.25L-47.7 248.25 -47.7 245.7Q-48.5 245.7 -49.3 246.15 -50.1 246.55 -50.6 247.15M-70.7 245.7Q-72.8 245.7 -74.35 247.1 -75.85 248.5 -75.85 250.7 -75.85 252.95 -74.35 254.3 -72.85 255.7 -70.65 255.7 -68.5 255.7 -66.6 253.75L-68.2 251.95Q-69.3 253.3 -70.65 253.3 -71.65 253.3 -72.45 252.6 -73.2 251.95 -73.2 250.7 -73.2 249.45 -72.45 248.75 -71.7 248.05 -70.6 248.1 -69.95 248.05 -69.25 248.4 -68.6 248.7 -68.15 249.25L-66.7 247.4Q-67.55 246.55 -68.6 246.15 -69.7 245.7 -70.7 245.7M-62.25 245.85L-64.95 245.85 -64.95 251.7Q-64.95 253.65 -63.85 254.7 -62.8 255.65 -61.2 255.7 -59.6 255.7 -58.6 254.25L-58.6 255.55 -55.9 255.55 -55.9 245.85 -58.6 245.85 -58.6 251.05Q-58.6 252.2 -59.2 252.75 -59.8 253.35 -60.6 253.35 -62.25 253.35 -62.25 251.1L-62.25 245.85M-23.45 245.85L-26.35 245.85 -28.7 251.9 -31.05 245.85 -33.95 245.85Q-30.2 255.3 -30.2 255.7 -30.2 256.15 -30.5 256.5 -30.75 256.85 -31.1 256.85 -31.85 256.85 -32.55 256.2L-33.75 258.2Q-32.5 259.35 -31.05 259.35 -30.05 259.35 -29.2 258.8 -28.4 258.25 -27.95 257.25L-23.45 245.85M-35.1 245.85L-37.45 245.85 -37.45 242.95 -40.15 242.95 -40.15 245.85 -41.3 245.85 -41.3 247.8 -40.15 247.8 -40.15 252.25Q-40.15 253.85 -39.2 254.75 -38.25 255.65 -36.85 255.7 -35.45 255.7 -34.2 254.5L-35.2 252.65Q-35.7 253.3 -36.5 253.3 -36.85 253.3 -37.15 253 -37.45 252.7 -37.45 252.15L-37.45 247.8 -35.1 247.8 -35.1 245.85M-313.3 242.2L-316 242.2 -316 255.55 -313.3 255.55 -313.3 252.75 -312.4 251.85 -309.95 255.55 -306.75 255.55 -310.6 249.8 -306.9 245.85 -310.3 245.85 -313.3 249.05 -313.3 242.2M-318.25 246.85Q-319.95 245.7 -321.65 245.7 -323.4 245.7 -324.45 246.55 -325.55 247.4 -325.55 248.75 -325.55 250.1 -324.45 250.75 -323.9 251.1 -323.5 251.3 -323.05 251.45 -322.25 251.7 -321.45 251.95 -321.05 252.25 -320.6 252.55 -320.6 252.9 -320.6 253.2 -320.9 253.45 -321.2 253.65 -321.75 253.65 -323.45 253.65 -324.95 252.45L-326.15 254.15Q-325.2 254.9 -324.05 255.3 -322.85 255.7 -321.8 255.7 -320.2 255.7 -319.1 254.85 -318.05 253.95 -318.05 252.55 -318.05 251.1 -319.1 250.5 -319.6 250.15 -320 250 -320.4 249.85 -321.3 249.55 -322.25 249.3 -322.6 249.05 -323 248.85 -323 248.45 -323 247.8 -321.75 247.8 -320.5 247.8 -319.25 248.65L-318.25 246.85M-174.25 246.6Q-175.4 245.7 -177.15 245.7 -179.6 245.7 -181.5 247.1L-180.3 248.85Q-179.75 248.4 -178.95 248.15 -178.2 247.85 -177.5 247.85 -175.85 247.85 -175.85 249.4L-175.85 249.45 -177.85 249.45Q-179.75 249.45 -180.8 250.2 -181.9 250.95 -181.9 252.4 -181.9 253.9 -180.85 254.8 -179.8 255.7 -178.25 255.7 -176.75 255.7 -175.7 254.4L-175.7 255.55 -173.15 255.55 -173.15 249.35Q-173.15 247.45 -174.25 246.6M-175.85 251.4L-175.85 251.85Q-175.85 252.6 -176.4 253.05 -176.95 253.45 -177.7 253.5 -178.4 253.45 -178.8 253.2 -179.2 252.9 -179.2 252.4 -179.2 251.4 -177.55 251.4L-175.85 251.4M-162.65 246.8Q-163.65 245.7 -165.2 245.7 -166.75 245.7 -167.95 246.95L-167.95 245.85 -170.65 245.85 -170.65 255.55 -167.95 255.55 -167.95 250.15Q-167.95 249 -167.35 248.45 -166.75 247.85 -165.95 247.85 -164.3 247.85 -164.3 250.05L-164.3 255.55 -161.6 255.55 -161.6 249.65Q-161.6 247.85 -162.65 246.8M-185 244.1Q-185.45 243.55 -186.4 243.25 -187.35 242.95 -188.6 242.95L-193.5 242.95 -193.5 255.55 -188 255.55Q-185.4 255.55 -184.35 254.35 -183.45 253.35 -183.45 252.05 -183.45 250.85 -184.15 250.05 -184.85 249.25 -186 249 -185.7 248.85 -185.55 248.8 -185.45 248.7 -185.1 248.5 -184.15 247.75 -184.15 246.3 -184.15 245.05 -185 244.1M-187.6 245.6Q-187.05 245.85 -187.05 246.7 -187.05 247.55 -187.6 247.8 -188.2 248.05 -189.35 248.05L-190.7 248.05 -190.7 245.35 -189.35 245.35Q-188.1 245.3 -187.6 245.6M-186.35 251.7Q-186.35 252.55 -186.95 252.85 -187.55 253.15 -188.75 253.15L-190.7 253.15 -190.7 250.25 -189.05 250.25Q-187.65 250.25 -187 250.55 -186.35 250.8 -186.35 251.7M-172.4 35.75Q-174.4 35.75 -175.9 37.1 -177.35 38.45 -177.35 40.75 -177.35 43 -175.9 44.4 -174.45 45.75 -172.25 45.75 -170.05 45.75 -168.4 44.2L-169.95 42.55Q-170.85 43.5 -172.25 43.5 -173.15 43.5 -173.85 43 -174.55 42.5 -174.7 41.7L-167.65 41.7 -167.65 40.25Q-167.65 38.15 -169 36.95 -170.45 35.75 -172.4 35.75M-174.6 39.8Q-174.5 38.95 -173.85 38.45 -173.2 38 -172.35 38 -171.6 38 -171 38.45 -170.45 38.9 -170.35 39.8L-174.6 39.8M-184.85 33L-189.6 33 -189.6 45.6 -186.8 45.6 -186.8 41.55 -184.85 41.55 -182.05 45.6 -178.6 45.6 -181.8 41.1Q-179.4 40.2 -179.4 37.2 -179.4 35 -180.65 34 -181.9 33 -184.85 33M-184.7 35.4Q-183.35 35.4 -182.8 35.8 -182.25 36.15 -182.25 37.2 -182.25 38.2 -182.8 38.65 -183.3 39.15 -184.75 39.15L-186.8 39.15 -186.8 35.4 -184.7 35.4M-175.45 19.15Q-175.45 21.4 -174 22.8 -172.55 24.15 -170.35 24.15 -168.15 24.15 -166.5 22.6L-168.05 20.95Q-168.95 21.9 -170.35 21.9 -171.25 21.9 -171.95 21.4 -172.65 20.9 -172.8 20.1L-165.75 20.1 -165.75 18.65Q-165.75 16.55 -167.1 15.35 -168.5 14.15 -170.5 14.15 -172.5 14.15 -174 15.5 -175.45 16.85 -175.45 19.15M-169.1 16.85Q-168.55 17.3 -168.45 18.2L-172.7 18.2Q-172.6 17.35 -171.95 16.85 -171.3 16.4 -170.45 16.4 -169.65 16.4 -169.1 16.85M-179.95 11.7Q-180.9 11.4 -182.15 11.4L-187.05 11.4 -187.05 24 -181.55 24Q-178.95 24 -177.9 22.8 -177 21.8 -177 20.5 -177 19.3 -177.7 18.5 -178.4 17.7 -179.55 17.45 -179.25 17.3 -179.1 17.25 -179 17.15 -178.65 16.95 -177.7 16.2 -177.7 14.75 -177.7 13.5 -178.55 12.55 -179 12 -179.95 11.7M-180.6 15.15Q-180.6 16 -181.15 16.25 -181.75 16.5 -182.9 16.5L-184.25 16.5 -184.25 13.8 -182.9 13.8Q-181.65 13.75 -181.15 14.05 -180.6 14.3 -180.6 15.15M-180.55 19Q-179.9 19.25 -179.9 20.15 -179.9 21 -180.5 21.3 -181.1 21.6 -182.3 21.6L-184.25 21.6 -184.25 18.7 -182.6 18.7Q-181.2 18.7 -180.55 19M-110.1 104Q-110.55 103.8 -111.05 104L-146 122.4Q-146.8 122.9 -146.45 123.75 -146 124.45 -145.2 124.2 -145.25 124.4 -145.25 124.65L-145.25 127.65Q-145.15 129.65 -143.3 130.45L-143.3 134.9Q-143.1 137.35 -140.65 137.7L-140.65 163.4Q-143.1 163.7 -143.3 166.15L-143.3 170.6Q-145.15 171.4 -145.25 173.45L-145.25 176.4Q-145.15 177.3 -144.25 177.4L-76.9 177.4Q-75.95 177.3 -75.9 176.4L-75.9 173.45Q-75.95 171.4 -77.8 170.6L-77.8 166.15Q-78.05 163.7 -80.5 163.35L-80.5 137.7Q-78.05 137.35 -77.8 134.9L-77.8 130.45Q-76 129.65 -75.9 127.65L-75.9 124.65Q-75.9 124.45 -75.95 124.2 -75.05 124.5 -74.6 123.7 -74.35 122.85 -75.1 122.4L-110.1 104M-104.8 134.9Q-104.9 135.65 -105.6 135.7L-115.55 135.7Q-116.25 135.65 -116.35 134.9L-116.35 134.2 -104.8 134.2 -104.8 134.9M-104.8 130.65L-104.8 132.2 -116.3 132.2 -116.3 130.65 -104.8 130.65M-102.8 134.9L-102.8 130.65 -93.35 130.65 -93.35 134.9Q-93.1 137.35 -90.7 137.7L-90.65 137.7 -90.65 163.4Q-93.1 163.7 -93.35 166.15L-93.35 170.4 -102.8 170.4 -102.8 166.15Q-103.05 163.7 -105.45 163.4L-105.45 137.7Q-103.05 137.35 -102.8 134.9M-118.35 130.65L-118.35 134.9Q-118.1 137.35 -115.65 137.7L-115.65 163.4Q-118.1 163.7 -118.3 166.15L-118.3 170.4 -127.8 170.4 -127.8 166.15Q-128 163.7 -130.45 163.4L-130.45 137.7Q-128 137.35 -127.8 134.9L-127.8 130.65 -118.35 130.65M-113.65 137.7L-107.45 137.7 -107.45 163.35 -107.45 163.4 -113.65 163.4 -113.65 163.35 -113.65 137.7M-91.35 134.95L-91.35 134.2 -79.8 134.2 -79.8 134.95Q-79.9 135.65 -80.6 135.75L-90.55 135.75Q-91.25 135.65 -91.35 134.95M-88.7 137.7L-82.5 137.7 -82.5 163.35 -82.5 163.4 -88.7 163.4 -88.7 163.35 -88.7 137.7M-91.35 132.2L-91.35 130.65 -79.8 130.65 -79.8 132.2 -91.35 132.2M-143.25 127.7L-143.25 124.65Q-143.2 123.75 -142.25 123.65L-78.9 123.65Q-77.95 123.75 -77.9 124.65L-77.9 127.7Q-77.95 128.6 -78.9 128.7L-142.25 128.7Q-143.2 128.6 -143.25 127.7M-129.8 134.2L-129.8 134.9Q-129.85 135.65 -130.6 135.7L-140.55 135.7Q-141.25 135.65 -141.3 134.95L-141.3 134.2 -129.8 134.2M-129.8 130.65L-129.8 132.2 -141.3 132.2 -141.3 130.65 -129.8 130.65M-138.65 137.7L-132.45 137.75 -132.45 163.35 -132.45 163.4 -138.65 163.4 -138.65 163.35 -138.65 137.7M-141.3 166.9L-141.3 166.2Q-141.25 165.45 -140.5 165.4L-130.6 165.4Q-129.85 165.45 -129.8 166.2L-129.8 166.9 -141.3 166.9M-141.3 170.4L-141.3 168.9 -129.8 168.9 -129.8 170.4 -141.3 170.4M-143.25 175.45L-143.25 173.45Q-143.15 172.55 -142.25 172.45L-78.9 172.45Q-78 172.5 -77.9 173.45L-77.9 175.45 -143.25 175.45M-91.35 170.4L-91.35 168.9 -79.8 168.9 -79.8 170.4 -91.35 170.4M-91.35 166.9L-91.35 166.2Q-91.25 165.45 -90.55 165.4L-80.6 165.4Q-79.9 165.45 -79.8 166.15L-79.8 166.9 -91.35 166.9M-116.35 170.4L-116.35 168.9 -104.8 168.9 -104.8 170.4 -116.35 170.4M-116.35 166.9L-116.35 166.15Q-116.25 165.45 -115.55 165.35L-105.6 165.35Q-104.9 165.45 -104.8 166.15L-104.8 166.9 -116.35 166.9M-140.3 121.65L-110.55 106 -80.8 121.65 -140.3 121.65M-123.7 35.9L-126.4 35.9 -126.4 41.1Q-126.4 42.25 -127 42.8 -127.6 43.4 -128.4 43.4 -130.05 43.4 -130.05 41.15L-130.05 35.9 -132.75 35.9 -132.75 41.75Q-132.75 43.7 -131.65 44.75 -130.6 45.7 -129 45.75 -127.4 45.75 -126.4 44.3L-126.4 45.6 -123.7 45.6 -123.7 35.9M-144.15 35.9L-144.15 45.6 -141.45 45.6 -141.45 40.2Q-141.45 39.05 -140.85 38.5 -140.25 37.9 -139.45 37.9 -137.8 37.9 -137.8 40.1L-137.8 45.6 -135.1 45.6 -135.1 39.7Q-135.1 37.9 -136.15 36.85 -137.15 35.75 -138.7 35.75 -140.25 35.75 -141.45 37L-141.45 35.9 -144.15 35.9M-156.6 35.9L-159.4 35.9 -161.85 42 -164.25 35.9 -167.05 35.9 -163.2 45.6 -160.45 45.6 -156.6 35.9M-147.45 36.95Q-148.85 35.75 -150.85 35.75 -152.85 35.75 -154.35 37.1 -155.8 38.45 -155.8 40.75 -155.8 43 -154.35 44.4 -152.9 45.75 -150.7 45.75 -148.5 45.75 -146.85 44.2L-148.4 42.55Q-149.3 43.5 -150.7 43.5 -151.6 43.5 -152.3 43 -153 42.5 -153.15 41.7L-146.1 41.7 -146.1 40.25Q-146.1 38.15 -147.45 36.95M-153.05 39.8Q-152.95 38.95 -152.3 38.45 -151.65 38 -150.8 38 -150 38 -149.45 38.45 -148.9 38.9 -148.8 39.8L-153.05 39.8M-158.45 18.45Q-158.85 18.3 -159.75 18 -160.7 17.75 -161.05 17.5 -161.45 17.3 -161.45 16.9 -161.45 16.25 -160.2 16.25 -158.95 16.25 -157.7 17.1L-156.7 15.3Q-158.4 14.15 -160.1 14.15 -161.85 14.15 -162.9 15 -164 15.85 -164 17.2 -164 18.55 -162.9 19.2 -162.35 19.55 -161.95 19.75 -161.5 19.9 -160.7 20.15 -159.9 20.4 -159.5 20.7 -159.05 21 -159.05 21.35 -159.05 21.65 -159.35 21.9 -159.65 22.1 -160.2 22.1 -161.9 22.1 -163.4 20.9L-164.6 22.6Q-163.65 23.35 -162.5 23.75 -161.3 24.15 -160.25 24.15 -158.65 24.15 -157.55 23.3 -156.5 22.4 -156.5 21 -156.5 19.55 -157.55 18.95 -158.05 18.6 -158.45 18.45M-155.15 16.25L-154 16.25 -154 20.7Q-154 22.3 -153.05 23.2 -152.1 24.1 -150.7 24.15 -149.3 24.15 -148.05 22.95L-149.05 21.1Q-149.55 21.75 -150.35 21.75 -150.7 21.75 -151 21.45 -151.3 21.15 -151.3 20.6L-151.3 16.25 -148.95 16.25 -148.95 14.3 -151.3 14.3 -151.3 11.4 -154 11.4 -154 14.3 -155.15 14.3 -155.15 16.25M-139.1 24.05L-139.1 14.35 -141.8 14.35 -141.8 24.05 -139.1 24.05M-133.85 14.3L-136.55 14.3 -136.55 24 -133.85 24 -133.85 18.6Q-133.85 17.45 -133.25 16.9 -132.65 16.3 -131.85 16.3 -130.2 16.3 -130.2 18.5L-130.2 24 -127.5 24 -127.5 18.1Q-127.5 16.3 -128.55 15.25 -129.55 14.15 -131.1 14.15 -132.65 14.15 -133.85 15.4L-133.85 14.3M-138.9 12Q-138.9 11.3 -139.35 10.85 -139.8 10.4 -140.45 10.4 -141.15 10.4 -141.6 10.85 -142.05 11.3 -142.05 12 -142.05 12.65 -141.6 13.1 -141.15 13.55 -140.45 13.55 -139.8 13.55 -139.35 13.1 -138.9 12.65 -138.9 12M-87.9 36.85Q-88.95 35.75 -90.45 35.75 -92 35.75 -93.2 37L-93.2 32.25 -95.9 32.25 -95.9 45.6 -93.2 45.6 -93.2 40.4Q-93.2 39.25 -92.6 38.65 -92 38.1 -91.2 38.1 -89.55 38.1 -89.55 40.3L-89.55 45.6 -86.85 45.6 -86.85 39.7Q-86.85 37.9 -87.9 36.85M-113.3 36.95Q-114.75 35.75 -116.7 35.75 -118.7 35.75 -120.2 37.1 -121.65 38.45 -121.65 40.75 -121.65 43 -120.2 44.4 -118.75 45.75 -116.55 45.75 -114.35 45.75 -112.7 44.2L-114.25 42.55Q-115.15 43.5 -116.55 43.5 -117.45 43.5 -118.15 43 -118.85 42.5 -119 41.7L-111.95 41.7 -111.95 40.25Q-111.95 38.15 -113.3 36.95M-115.3 38.45Q-114.75 38.9 -114.65 39.8L-118.9 39.8Q-118.8 38.95 -118.15 38.45 -117.5 38 -116.65 38 -115.9 38 -115.3 38.45M-101.55 35.75Q-103.3 35.75 -104.35 36.6 -105.45 37.45 -105.45 38.8 -105.45 40.15 -104.35 40.8 -103.8 41.15 -103.4 41.35 -102.95 41.5 -102.15 41.75 -101.35 42 -100.95 42.3 -100.5 42.6 -100.5 42.95 -100.5 43.25 -100.8 43.5 -101.1 43.7 -101.65 43.7 -103.35 43.7 -104.85 42.5L-106.05 44.2Q-105.1 44.95 -103.95 45.35 -102.75 45.75 -101.7 45.75 -100.1 45.75 -99 44.9 -97.95 44 -97.95 42.6 -97.95 41.15 -99 40.55 -99.5 40.2 -99.9 40.05 -100.3 39.9 -101.2 39.6 -102.15 39.35 -102.5 39.1 -102.9 38.9 -102.9 38.5 -102.9 37.85 -101.65 37.85 -100.4 37.85 -99.15 38.7L-98.15 36.9Q-99.85 35.75 -101.55 35.75M-117.6 14.35L-120.3 14.35 -120.3 24.05 -117.6 24.05 -117.6 14.35M-112.35 15.4L-112.35 14.3 -115.05 14.3 -115.05 24 -112.35 24 -112.35 18.6Q-112.35 17.45 -111.75 16.9 -111.15 16.3 -110.35 16.3 -108.7 16.3 -108.7 18.5L-108.7 24 -106 24 -106 18.1Q-106 16.3 -107.05 15.25 -108.05 14.15 -109.6 14.15 -111.15 14.15 -112.35 15.4M-118.95 10.4Q-119.65 10.4 -120.1 10.85 -120.55 11.3 -120.55 12 -120.55 12.65 -120.1 13.1 -119.65 13.55 -118.95 13.55 -118.3 13.55 -117.85 13.1 -117.4 12.65 -117.4 12 -117.4 11.3 -117.85 10.85 -118.3 10.4 -118.95 10.4M-91.7 14.3L-91.7 20.15Q-91.7 22.1 -90.6 23.15 -89.55 24.1 -87.95 24.15 -86.35 24.15 -85.35 22.7L-85.35 24 -82.65 24 -82.65 14.3 -85.35 14.3 -85.35 19.5Q-85.35 20.65 -85.95 21.2 -86.55 21.8 -87.35 21.8 -89 21.8 -89 19.55L-89 14.3 -91.7 14.3M-94.15 10.65L-96.85 10.65 -96.85 15.4Q-97.95 14.15 -99.7 14.15 -101.45 14.15 -102.8 15.55 -104.1 16.9 -104.1 19.05 -104.1 21.25 -102.75 22.7 -101.4 24.15 -99.7 24.15 -97.95 24.15 -96.85 22.75L-96.85 24 -94.15 24 -94.15 10.65M-99.05 16.45Q-98.1 16.45 -97.45 17.2 -96.8 18 -96.8 19.15 -96.8 20.35 -97.45 21.1 -98.1 21.85 -99.05 21.85 -99.95 21.85 -100.7 21.1 -101.4 20.35 -101.4 19.2 -101.4 18 -100.7 17.2 -100 16.4 -99.05 16.45M-61.05 35.9L-61.05 45.6 -58.35 45.6 -58.35 40.2Q-58.35 39.05 -57.75 38.5 -57.15 37.9 -56.35 37.9 -54.7 37.9 -54.7 40.1L-54.7 45.6 -52 45.6 -52 39.7Q-52 37.9 -53.05 36.85 -54.05 35.75 -55.6 35.75 -57.15 35.75 -58.35 37L-58.35 35.9 -61.05 35.9M-77.25 36.65Q-78.4 35.75 -80.15 35.75 -82.6 35.75 -84.5 37.15L-83.3 38.9Q-82.75 38.45 -81.95 38.2 -81.2 37.9 -80.5 37.9 -78.85 37.9 -78.85 39.45L-78.85 39.5 -80.85 39.5Q-82.75 39.5 -83.8 40.25 -84.9 41 -84.9 42.45 -84.9 43.95 -83.85 44.85 -82.8 45.75 -81.25 45.75 -79.75 45.75 -78.7 44.45L-78.7 45.6 -76.15 45.6 -76.15 39.4Q-76.15 37.5 -77.25 36.65M-78.85 41.9Q-78.85 42.65 -79.4 43.1 -79.95 43.5 -80.7 43.55 -81.4 43.5 -81.8 43.25 -82.2 42.95 -82.2 42.45 -82.2 41.45 -80.55 41.45L-78.85 41.45 -78.85 41.9M-63.55 35.9L-66.25 35.9 -66.25 45.6 -63.55 45.6 -63.55 35.9M-66.5 33.55Q-66.5 34.2 -66.05 34.65 -65.6 35.1 -64.9 35.1 -64.25 35.1 -63.8 34.65 -63.35 34.2 -63.35 33.55 -63.35 32.85 -63.8 32.4 -64.25 31.95 -64.9 31.95 -65.6 31.95 -66.05 32.4 -66.5 32.85 -66.5 33.55M-68.1 35.75Q-68.9 35.75 -69.7 36.2 -70.5 36.6 -71 37.2L-71 35.9 -73.7 35.9 -73.7 45.6 -71 45.6 -71 41.4Q-71 40 -70.4 39.15 -69.8 38.3 -68.6 38.3L-68.1 38.3 -68.1 35.75M-73.95 17.1L-72.95 15.3Q-74.65 14.15 -76.35 14.15 -78.1 14.15 -79.15 15 -80.25 15.85 -80.25 17.2 -80.25 18.55 -79.15 19.2 -78.6 19.55 -78.2 19.75 -77.75 19.9 -76.95 20.15 -76.15 20.4 -75.75 20.7 -75.3 21 -75.3 21.35 -75.3 21.65 -75.6 21.9 -75.9 22.1 -76.45 22.1 -78.15 22.1 -79.65 20.9L-80.85 22.6Q-79.9 23.35 -78.75 23.75 -77.55 24.15 -76.5 24.15 -74.9 24.15 -73.8 23.3 -72.75 22.4 -72.75 21 -72.75 19.55 -73.8 18.95 -74.3 18.6 -74.7 18.45 -75.1 18.3 -76 18 -76.95 17.75 -77.3 17.5 -77.7 17.3 -77.7 16.9 -77.7 16.25 -76.45 16.25 -75.2 16.25 -73.95 17.1M-67.55 11.4L-70.25 11.4 -70.25 14.3 -71.4 14.3 -71.4 16.25 -70.25 16.25 -70.25 20.7Q-70.25 22.3 -69.3 23.2 -68.35 24.1 -66.95 24.15 -65.55 24.15 -64.3 22.95L-65.3 21.1Q-65.8 21.75 -66.6 21.75 -66.95 21.75 -67.25 21.45 -67.55 21.15 -67.55 20.6L-67.55 16.25 -65.2 16.25 -65.2 14.3 -67.55 14.3 -67.55 11.4M-56.65 14.3Q-52.9 23.75 -52.9 24.15 -52.9 24.6 -53.2 24.95 -53.45 25.3 -53.8 25.3 -54.55 25.3 -55.25 24.65L-56.45 26.65Q-55.2 27.8 -53.75 27.8 -52.75 27.8 -51.9 27.25 -51.1 26.7 -50.65 25.7L-46.15 14.3 -49.05 14.3 -51.4 20.35 -53.75 14.3 -56.65 14.3M-57.25 14.15Q-58.05 14.15 -58.85 14.6 -59.65 15 -60.15 15.6L-60.15 14.3 -62.85 14.3 -62.85 24 -60.15 24 -60.15 19.8Q-60.15 18.4 -59.55 17.55 -58.95 16.7 -57.75 16.7L-57.25 16.7 -57.25 14.15M-40.1 44.35L-40.1 35.9 -42.8 35.9 -42.8 37.15Q-43.9 35.75 -45.65 35.75 -47.35 35.75 -48.7 37.15 -50.05 38.5 -50.05 40.65 -50.05 42.8 -48.75 44.1 -47.45 45.4 -45.55 45.4 -43.65 45.4 -42.35 43.95 -42.35 45.55 -43.25 46.3 -44.1 47.05 -45.6 47.05 -47.05 47.05 -48.4 46.05L-49.45 48.05Q-48.6 48.7 -47.45 49.05 -46.35 49.4 -45.25 49.4 -43.2 49.4 -41.75 48.2 -40.95 47.65 -40.55 46.65 -40.05 45.65 -40.1 44.35M-42.75 40.55Q-42.75 41.7 -43.4 42.4 -44.05 43.1 -45 43.1 -46 43.1 -46.65 42.4 -47.35 41.7 -47.35 40.55 -47.35 39.4 -46.65 38.7 -45.95 38.05 -45 38.05 -44.05 38.05 -43.4 38.7 -42.75 39.4 -42.75 40.55M195.8 245.85L192.9 245.85Q196.65 255.3 196.65 255.7 196.65 256.15 196.35 256.5 196.1 256.85 195.75 256.85 195 256.85 194.3 256.2L193.1 258.2Q194.35 259.35 195.8 259.35 196.8 259.35 197.65 258.8 198.45 258.25 198.9 257.25L203.4 245.85 200.5 245.85 198.15 251.9 195.8 245.85M189.4 247.15L189.4 245.85 186.7 245.85 186.7 255.55 189.4 255.55 189.4 251.35Q189.4 249.95 190 249.1 190.6 248.25 191.8 248.25L192.3 248.25 192.3 245.7Q191.5 245.7 190.7 246.15 189.9 246.55 189.4 247.15M169.35 245.7Q167.6 245.7 166.55 246.55 165.45 247.4 165.45 248.75 165.45 250.1 166.55 250.75 167.1 251.1 167.5 251.3 167.95 251.45 168.75 251.7 169.55 251.95 169.95 252.25 170.4 252.55 170.4 252.9 170.4 253.2 170.1 253.45 169.8 253.65 169.25 253.65 167.55 253.65 166.05 252.45L164.85 254.15Q165.8 254.9 166.95 255.3 168.15 255.7 169.2 255.7 170.8 255.7 171.9 254.85 172.95 253.95 172.95 252.55 172.95 251.1 171.9 250.5 171.4 250.15 171 250 170.6 249.85 169.7 249.55 168.75 249.3 168.4 249.05 168 248.85 168 248.45 168 247.8 169.25 247.8 170.5 247.8 171.75 248.65L172.75 246.85Q171.05 245.7 169.35 245.7M179.55 245.7Q177.35 245.7 175.9 247.15 174.45 248.6 174.45 250.7 174.45 252.8 175.9 254.25 177.35 255.7 179.55 255.7 181.75 255.7 183.25 254.25 184.7 252.8 184.7 250.7 184.7 248.6 183.25 247.15 181.8 245.7 179.55 245.7M177.85 248.75Q178.5 248 179.55 248 180.6 248 181.3 248.75 182 249.5 181.95 250.7 181.95 251.9 181.3 252.65 180.65 253.4 179.55 253.4 178.5 253.4 177.85 252.65 177.15 251.9 177.15 250.7 177.15 249.5 177.85 248.75M213.2 245.7Q211.45 245.7 210.4 246.55 209.3 247.4 209.3 248.75 209.3 250.1 210.4 250.75 210.95 251.1 211.35 251.3 211.8 251.45 212.6 251.7 213.4 251.95 213.8 252.25 214.25 252.55 214.25 252.9 214.25 253.2 213.95 253.45 213.65 253.65 213.1 253.65 211.4 253.65 209.9 252.45L208.7 254.15Q209.65 254.9 210.8 255.3 212 255.7 213.05 255.7 214.65 255.7 215.75 254.85 216.8 253.95 216.8 252.55 216.8 251.1 215.75 250.5 215.25 250.15 214.85 250 214.45 249.85 213.55 249.55 212.6 249.3 212.25 249.05 211.85 248.85 211.85 248.45 211.85 247.8 213.1 247.8 214.35 247.8 215.6 248.65L216.6 246.85Q214.9 245.7 213.2 245.7M239 247.1Q237.65 245.7 236 245.7 234.3 245.7 233.05 246.95L233.05 245.85 230.35 245.85 230.35 259.05 233.05 259.05 233.05 254.25Q234.15 255.7 235.9 255.7 237.7 255.7 239 254.25 240.35 252.8 240.3 250.65 240.3 248.55 239 247.1M235.3 247.95Q236.25 247.95 236.9 248.75 237.6 249.55 237.6 250.7 237.6 251.9 236.9 252.65 236.2 253.4 235.25 253.4 234.35 253.4 233.65 252.65 233 251.9 233 250.7 233 249.55 233.65 248.75 234.3 247.95 235.3 247.95M227.8 245.85L225.1 245.85 225.1 251.05Q225.1 252.2 224.5 252.75 223.9 253.35 223.1 253.35 221.45 253.35 221.45 251.1L221.45 245.85 218.75 245.85 218.75 251.7Q218.75 253.65 219.85 254.7 220.9 255.65 222.5 255.7 224.1 255.7 225.1 254.25L225.1 255.55 227.8 255.55 227.8 245.85M279 245.85L276.65 245.85 276.65 242.95 273.95 242.95 273.95 245.85 272.8 245.85 272.8 247.8 273.95 247.8 273.95 252.25Q273.95 253.85 274.9 254.75 275.85 255.65 277.25 255.7 278.65 255.7 279.9 254.5L278.9 252.65Q278.4 253.3 277.6 253.3 277.25 253.3 276.95 253 276.65 252.7 276.65 252.15L276.65 247.8 279 247.8 279 245.85M270 246.15Q269.2 246.55 268.7 247.15L268.7 245.85 266 245.85 266 255.55 268.7 255.55 268.7 251.35Q268.7 249.95 269.3 249.1 269.9 248.25 271.1 248.25L271.6 248.25 271.6 245.7Q270.8 245.7 270 246.15M251 247.1Q249.65 245.7 248 245.7 246.3 245.7 245.05 246.95L245.05 245.85 242.35 245.85 242.35 259.05 245.05 259.05 245.05 254.25Q246.15 255.7 247.9 255.7 249.7 255.7 251 254.25 252.35 252.8 252.3 250.65 252.3 248.55 251 247.1M249.6 250.7Q249.6 251.9 248.9 252.65 248.2 253.4 247.25 253.4 246.35 253.4 245.65 252.65 245 251.9 245 250.7 245 249.55 245.65 248.75 246.3 247.95 247.3 247.95 248.25 247.95 248.9 248.75 249.6 249.55 249.6 250.7M262.55 247.15Q261.1 245.7 258.85 245.7 256.65 245.7 255.2 247.15 253.75 248.6 253.75 250.7 253.75 252.8 255.2 254.25 256.65 255.7 258.85 255.7 261.05 255.7 262.55 254.25 264 252.8 264 250.7 264 248.6 262.55 247.15M258.85 248Q259.9 248 260.6 248.75 261.3 249.5 261.25 250.7 261.25 251.9 260.6 252.65 259.95 253.4 258.85 253.4 257.8 253.4 257.15 252.65 256.45 251.9 256.45 250.7 256.45 249.5 257.15 248.75 257.8 248 258.85 248M160.4 245.85L160.4 255.55 163.1 255.55 163.1 245.85 160.4 245.85M160.15 243.5Q160.15 244.15 160.6 244.6 161.05 245.05 161.75 245.05 162.4 245.05 162.85 244.6 163.3 244.15 163.3 243.5 163.3 242.8 162.85 242.35 162.4 241.9 161.75 241.9 161.05 241.9 160.6 242.35 160.15 242.8 160.15 243.5M144.6 242.2L144.6 246.95Q143.5 245.7 141.75 245.7 140 245.7 138.65 247.1 137.35 248.45 137.35 250.6 137.35 252.8 138.7 254.25 140.05 255.7 141.75 255.7 143.5 255.7 144.6 254.3L144.6 255.55 147.3 255.55 147.3 242.2 144.6 242.2M144 252.65Q143.35 253.4 142.4 253.4 141.5 253.4 140.75 252.65 140.05 251.9 140.05 250.75 140.05 249.55 140.75 248.75 141.45 247.95 142.4 248 143.35 248 144 248.75 144.65 249.55 144.65 250.7 144.65 251.9 144 252.65M151.45 245.85L148.65 245.85 152.5 255.55 155.25 255.55 159.1 245.85 156.3 245.85 153.85 251.95 151.45 245.85M131.5 242.95L128.8 242.95 123.35 255.55 126.35 255.55 127.5 252.8 132.8 252.8 133.95 255.55 136.95 255.55 131.5 242.95M131.7 250.35L128.55 250.35 130.15 246.7 131.7 250.35M120.65 14.15Q119.85 14.15 119.05 14.6 118.25 15 117.75 15.6L117.75 14.3 115.05 14.3 115.05 24 117.75 24 117.75 19.8Q117.75 18.4 118.35 17.55 118.95 16.7 120.15 16.7L120.65 16.7 120.65 14.15M106.9 24L109.7 24 109.7 13.85 113.3 13.85 113.3 11.4 103.35 11.4 103.35 13.85 106.9 13.85 106.9 24M160.85 36.9Q159.15 35.75 157.45 35.75 155.7 35.75 154.65 36.6 153.55 37.45 153.55 38.8 153.55 40.15 154.65 40.8 155.2 41.15 155.6 41.35 156.05 41.5 156.85 41.75 157.65 42 158.05 42.3 158.5 42.6 158.5 42.95 158.5 43.25 158.2 43.5 157.9 43.7 157.35 43.7 155.65 43.7 154.15 42.5L152.95 44.2Q153.9 44.95 155.05 45.35 156.25 45.75 157.3 45.75 158.9 45.75 160 44.9 161.05 44 161.05 42.6 161.05 41.15 160 40.55 159.5 40.2 159.1 40.05 158.7 39.9 157.8 39.6 156.85 39.35 156.5 39.1 156.1 38.9 156.1 38.5 156.1 37.85 157.35 37.85 158.6 37.85 159.85 38.7L160.85 36.9M127.9 17.85L127.9 17.9 125.9 17.9Q124 17.9 122.95 18.65 121.85 19.4 121.85 20.85 121.85 22.35 122.9 23.25 123.95 24.15 125.5 24.15 127 24.15 128.05 22.85L128.05 24 130.6 24 130.6 17.8Q130.6 15.9 129.5 15.05 128.35 14.15 126.6 14.15 124.15 14.15 122.25 15.55L123.45 17.3Q124 16.85 124.8 16.6 125.55 16.3 126.25 16.3 127.9 16.3 127.9 17.85M124.95 21.65Q124.55 21.35 124.55 20.85 124.55 19.85 126.2 19.85L127.9 19.85 127.9 20.3Q127.9 21.05 127.35 21.5 126.8 21.9 126.05 21.95 125.35 21.9 124.95 21.65M142.1 24L142.1 18.1Q142.1 16.3 141.05 15.25 140.05 14.15 138.5 14.15 136.95 14.15 135.75 15.4L135.75 14.3 133.05 14.3 133.05 24 135.75 24 135.75 18.6Q135.75 17.45 136.35 16.9 136.95 16.3 137.75 16.3 139.4 16.3 139.4 18.5L139.4 24 142.1 24M149.9 18.45Q149.5 18.3 148.6 18 147.65 17.75 147.3 17.5 146.9 17.3 146.9 16.9 146.9 16.25 148.15 16.25 149.4 16.25 150.65 17.1L151.65 15.3Q149.95 14.15 148.25 14.15 146.5 14.15 145.45 15 144.35 15.85 144.35 17.2 144.35 18.55 145.45 19.2 146 19.55 146.4 19.75 146.85 19.9 147.65 20.15 148.45 20.4 148.85 20.7 149.3 21 149.3 21.35 149.3 21.65 149 21.9 148.7 22.1 148.15 22.1 146.45 22.1 144.95 20.9L143.75 22.6Q144.7 23.35 145.85 23.75 147.05 24.15 148.1 24.15 149.7 24.15 150.8 23.3 151.85 22.4 151.85 21 151.85 19.55 150.8 18.95 150.3 18.6 149.9 18.45M196.55 36.2Q195.45 35.75 194.45 35.75 192.35 35.75 190.8 37.15 189.3 38.55 189.3 40.75 189.3 43 190.8 44.35 192.3 45.75 194.5 45.75 196.65 45.75 198.55 43.8L196.95 42Q195.85 43.35 194.5 43.35 193.5 43.35 192.7 42.65 191.95 42 191.95 40.75 191.95 39.5 192.7 38.8 193.45 38.1 194.55 38.15 195.2 38.1 195.9 38.45 196.55 38.75 197 39.3L198.45 37.45Q197.6 36.6 196.55 36.2M166.25 33L163.55 33 163.55 35.9 162.4 35.9 162.4 37.85 163.55 37.85 163.55 42.3Q163.55 43.9 164.5 44.8 165.45 45.7 166.85 45.75 168.25 45.75 169.5 44.55L168.5 42.7Q168 43.35 167.2 43.35 166.85 43.35 166.55 43.05 166.25 42.75 166.25 42.2L166.25 37.85 168.6 37.85 168.6 35.9 166.25 35.9 166.25 33M180.95 35.9L178.25 35.9 178.25 41.75Q178.25 43.7 179.35 44.75 180.4 45.7 182 45.75 183.6 45.75 184.6 44.3L184.6 45.6 187.3 45.6 187.3 35.9 184.6 35.9 184.6 41.1Q184.6 42.25 184 42.8 183.4 43.4 182.6 43.4 180.95 43.4 180.95 41.15L180.95 35.9M176.55 35.75Q175.75 35.75 174.95 36.2 174.15 36.6 173.65 37.2L173.65 35.9 170.95 35.9 170.95 45.6 173.65 45.6 173.65 41.4Q173.65 40 174.25 39.15 174.85 38.3 176.05 38.3L176.55 38.3 176.55 35.75M181.7 16.7L182.2 16.7 182.2 14.15Q181.4 14.15 180.6 14.6 179.8 15 179.3 15.6L179.3 14.3 176.6 14.3 176.6 24 179.3 24 179.3 19.8Q179.3 18.4 179.9 17.55 180.5 16.7 181.7 16.7M162.55 22.7Q163.9 21.25 163.85 19.1 163.85 17 162.55 15.55 161.2 14.15 159.55 14.15 157.85 14.15 156.6 15.4L156.6 14.3 153.9 14.3 153.9 27.5 156.6 27.5 156.6 22.7Q157.7 24.15 159.45 24.15 161.25 24.15 162.55 22.7M157.2 17.2Q157.85 16.4 158.85 16.4 159.8 16.4 160.45 17.2 161.15 18 161.15 19.15 161.15 20.35 160.45 21.1 159.75 21.85 158.8 21.85 157.9 21.85 157.2 21.1 156.55 20.35 156.55 19.15 156.55 18 157.2 17.2M171.45 17.85L171.45 17.9 169.45 17.9Q167.55 17.9 166.5 18.65 165.4 19.4 165.4 20.85 165.4 22.35 166.45 23.25 167.5 24.15 169.05 24.15 170.55 24.15 171.6 22.85L171.6 24 174.15 24 174.15 17.8Q174.15 15.9 173.05 15.05 171.9 14.15 170.15 14.15 167.7 14.15 165.8 15.55L167 17.3Q167.55 16.85 168.35 16.6 169.1 16.3 169.8 16.3 171.45 16.3 171.45 17.85M169.75 19.85L171.45 19.85 171.45 20.3Q171.45 21.05 170.9 21.5 170.35 21.9 169.6 21.95 168.9 21.9 168.5 21.65 168.1 21.35 168.1 20.85 168.1 19.85 169.75 19.85M191.75 15.35Q190.4 14.15 188.4 14.15 186.4 14.15 184.9 15.5 183.45 16.85 183.45 19.15 183.45 21.4 184.9 22.8 186.35 24.15 188.55 24.15 190.75 24.15 192.4 22.6L190.85 20.95Q189.95 21.9 188.55 21.9 187.65 21.9 186.95 21.4 186.25 20.9 186.1 20.1L193.15 20.1 193.15 18.65Q193.2 16.55 191.75 15.35M188.45 16.4Q189.2 16.4 189.8 16.85 190.35 17.3 190.45 18.2L186.2 18.2Q186.3 17.35 186.95 16.85 187.6 16.4 188.45 16.4M231.6 35.75Q229.6 35.75 228.1 37.1 226.65 38.45 226.65 40.75 226.65 43 228.1 44.4 229.55 45.75 231.75 45.75 233.95 45.75 235.6 44.2L234.05 42.55Q233.15 43.5 231.75 43.5 230.85 43.5 230.15 43 229.45 42.5 229.3 41.7L236.35 41.7 236.35 40.25Q236.35 38.15 235 36.95 233.55 35.75 231.6 35.75M229.4 39.8Q229.5 38.95 230.15 38.45 230.8 38 231.65 38 232.45 38 233 38.45 233.55 38.9 233.65 39.8L229.4 39.8M205.95 35.9L203.6 35.9 203.6 33 200.9 33 200.9 35.9 199.75 35.9 199.75 37.85 200.9 37.85 200.9 42.3Q200.9 43.9 201.85 44.8 202.8 45.7 204.2 45.75 205.6 45.75 206.85 44.55L205.85 42.7Q205.35 43.35 204.55 43.35 204.2 43.35 203.9 43.05 203.6 42.75 203.6 42.2L203.6 37.85 205.95 37.85 205.95 35.9M222.5 35.9L219.8 35.9 219.8 45.6 222.5 45.6 222.5 41.4Q222.5 40 223.1 39.15 223.7 38.3 224.9 38.3L225.4 38.3 225.4 35.75Q224.6 35.75 223.8 36.2 223 36.6 222.5 37.2L222.5 35.9M217.2 35.9L214.5 35.9 214.5 41.1Q214.5 42.25 213.9 42.8 213.3 43.4 212.5 43.4 210.85 43.4 210.85 41.15L210.85 35.9 208.15 35.9 208.15 41.75Q208.15 43.7 209.25 44.75 210.3 45.7 211.9 45.75 213.5 45.75 214.5 44.3L214.5 45.6 217.2 45.6 217.2 35.9M204.15 18.1Q204.15 16.3 203.1 15.25 202.1 14.15 200.55 14.15 199 14.15 197.8 15.4L197.8 14.3 195.1 14.3 195.1 24 197.8 24 197.8 18.6Q197.8 17.45 198.4 16.9 199 16.3 199.8 16.3 201.45 16.3 201.45 18.5L201.45 24 204.15 24 204.15 18.1M209.7 11.4L207 11.4 207 14.3 205.85 14.3 205.85 16.25 207 16.25 207 20.7Q207 22.3 207.95 23.2 208.9 24.1 210.3 24.15 211.7 24.15 212.95 22.95L211.95 21.1Q211.45 21.75 210.65 21.75 210.3 21.75 210 21.45 209.7 21.15 209.7 20.6L209.7 16.25 212.05 16.25 212.05 14.3 209.7 14.3 209.7 11.4M227.8 15.55Q226.45 14.15 224.8 14.15 223.1 14.15 221.85 15.4L221.85 14.3 219.15 14.3 219.15 27.5 221.85 27.5 221.85 22.7Q222.95 24.15 224.7 24.15 226.5 24.15 227.8 22.7 229.15 21.25 229.1 19.1 229.1 17 227.8 15.55M224.1 16.4Q225.05 16.4 225.7 17.2 226.4 18 226.4 19.15 226.4 20.35 225.7 21.1 225 21.85 224.05 21.85 223.15 21.85 222.45 21.1 221.8 20.35 221.8 19.15 221.8 18 222.45 17.2 223.1 16.4 224.1 16.4M231 15.55L232.2 17.3Q232.75 16.85 233.5 16.6 234.3 16.3 235 16.3 236.65 16.3 236.65 17.85L236.65 17.9 234.65 17.9Q232.75 17.9 231.7 18.65 230.6 19.4 230.6 20.85 230.6 22.35 231.65 23.25 232.7 24.15 234.25 24.15 235.75 24.15 236.8 22.85L236.8 24 239.35 24 239.35 17.8Q239.35 15.9 238.25 15.05 237.1 14.15 235.35 14.15 232.9 14.15 231 15.55M236.65 19.85L236.65 20.3Q236.65 21.05 236.1 21.5 235.55 21.9 234.8 21.95 234.1 21.9 233.7 21.65 233.3 21.35 233.3 20.85 233.3 19.85 234.95 19.85L236.65 19.85M253 15.6Q251.55 17.05 251.55 19.15 251.55 21.25 253 22.7 254.45 24.15 256.65 24.15 258.85 24.15 260.35 22.7 261.8 21.25 261.8 19.15 261.8 17.05 260.35 15.6 258.9 14.15 256.65 14.15 254.45 14.15 253 15.6M254.95 17.2Q255.6 16.45 256.65 16.45 257.7 16.45 258.4 17.2 259.1 17.95 259.05 19.15 259.05 20.35 258.4 21.1 257.75 21.85 256.65 21.85 255.6 21.85 254.95 21.1 254.25 20.35 254.25 19.15 254.25 17.95 254.95 17.2M251 14.3L248.1 14.3 245.75 20.35 243.4 14.3 240.5 14.3Q244.25 23.75 244.25 24.15 244.25 24.6 243.95 24.95 243.7 25.3 243.35 25.3 242.6 25.3 241.9 24.65L240.7 26.65Q241.95 27.8 243.4 27.8 244.4 27.8 245.25 27.25 246.05 26.7 246.5 25.7L251 14.3M272.7 14.3L270 14.3 270 19.5Q270 20.65 269.4 21.2 268.8 21.8 268 21.8 266.35 21.8 266.35 19.55L266.35 14.3 263.65 14.3 263.65 20.15Q263.65 22.1 264.75 23.15 265.8 24.1 267.4 24.15 269 24.15 270 22.7L270 24 272.7 24 272.7 14.3M278.5 11.4L275.8 11.4 275.8 14.3 274.65 14.3 274.65 16.25 275.8 16.25 275.8 20.7Q275.8 22.3 276.75 23.2 277.7 24.1 279.1 24.15 280.5 24.15 281.75 22.95L280.75 21.1Q280.25 21.75 279.45 21.75 279.1 21.75 278.8 21.45 278.5 21.15 278.5 20.6L278.5 16.25 280.85 16.25 280.85 14.3 278.5 14.3 278.5 11.4Z"/><path fill="#515151" stroke="none" d="M-438.8 134.75L-441.55 134.75Q-441.65 140.8 -446.35 144.55L-447.35 145.25 -446.7 146.3Q-446.65 146.5 -445.85 147.4 -445.05 148.35 -443.65 149.35L-445.05 149.85Q-449 151.2 -451.65 154.25 -454.3 157.35 -455.05 161.55L-458.05 179.4 -384.35 179.4 -387.3 161.55Q-388 157.35 -390.65 154.35 -393.3 151.2 -397.25 149.85L-398.7 149.35Q-397.25 148.35 -396.45 147.4 -395.7 146.5 -395.65 146.3L-394.95 145.25 -395.95 144.55Q-398.45 142.55 -399.8 139.6L-402.25 140.7Q-401 143.65 -398.65 145.75 -400.05 147.55 -402.7 148.05L-408.95 146 -408.95 144.25 -411.65 144.25 -411.65 146.85 -413.75 154.9 -419.2 148.35 -423.1 148.35 -428.6 154.9 -430.65 146.85 -430.65 144.25 -433.35 144.25 -433.35 146 -439.6 148.05Q-440.9 147.95 -441.95 147.3 -443.05 146.6 -443.7 145.75 -438.9 141.35 -438.8 134.75M-454.85 176.75L-452.35 161.95Q-450.95 154.9 -444.15 152.35L-439.2 150.7Q-439.15 150.75 -439.1 150.7L-433 148.6 -429.95 160.6 -421.9 150.9 -420.4 150.9 -412.35 160.6 -409.35 148.6 -403.2 150.7Q-403.1 150.75 -403.05 150.7L-398.15 152.35Q-391.4 154.9 -390 161.95L-387.4 176.75 -397.25 176.75Q-396.8 175.3 -396.75 172.7 -396.95 169.2 -398.25 167.15 -399.55 165.1 -399.85 164.95L-401.75 166.85Q-401.65 166.9 -400.6 168.45 -399.6 170.05 -399.45 172.7 -399.6 175.9 -400.25 176.75L-419.8 176.75 -419.8 153.65 -422.55 153.65 -422.55 176.75 -442.1 176.75Q-442.7 175.95 -442.9 172.7 -442.75 170.1 -441.7 168.5 -440.7 166.9 -440.55 166.85L-442.5 164.9Q-442.8 165.05 -444.05 167.15 -445.4 169.15 -445.6 172.7 -445.55 175.3 -445.05 176.75L-454.85 176.75M-441.3 113.05L-442.9 113.05Q-445.75 113.15 -447.65 114.95 -449.55 116.95 -449.6 119.8L-449.6 125.3Q-449.55 128.1 -447.65 130 -445.75 131.9 -442.9 132L-438.2 132Q-437.1 135.55 -434.4 138.3L-429.15 143.55Q-427.1 145.55 -424.3 145.6L-418.05 145.6Q-415.2 145.55 -413.2 143.55L-409.75 140.15 -407.6 140.15Q-404.75 140.05 -402.8 138.15 -400.95 136.25 -400.85 133.35L-400.85 132 -399.45 132Q-396.65 132 -394.7 130 -392.8 128.1 -392.7 125.3L-392.7 119.8Q-392.8 116.95 -394.7 114.95 -396.65 113.15 -399.45 113.05L-401.1 113.05Q-402.25 105.4 -407.8 100.45 -413.35 95.6 -421.2 95.4 -429.05 95.6 -434.6 100.45 -440.1 105.4 -441.3 113.05M-416 112.25L-416.8 111.1 -420.9 114.2Q-423 115.7 -425.55 115.7L-428 115.7Q-432.95 115.9 -436.1 119.4L-436.1 113 -438.6 113Q-437.45 106.55 -432.65 102.35 -427.8 98.2 -421.2 98.1 -414.55 98.2 -409.75 102.35 -404.95 106.55 -403.8 113L-406.25 113 -406.25 115.7 -409.5 115.7Q-413.6 115.6 -416 112.25M-417.4 114.9Q-414.3 118.25 -409.5 118.4L-406.25 118.4 -406.25 127.7Q-406.3 132.75 -409.85 136.35L-410.9 137.4 -425.3 137.4 -425.3 140.1 -413.6 140.1 -415.1 141.65Q-416.3 142.8 -418.05 142.8L-424.3 142.8Q-426.05 142.8 -427.25 141.65L-432.55 136.35Q-436.05 132.75 -436.1 127.7L-436.1 126.5Q-436.05 123.1 -433.7 120.75 -431.4 118.45 -428 118.4L-425.55 118.4Q-422.05 118.35 -419.3 116.35L-417.4 114.9M-441.55 115.7L-438.85 115.7 -438.85 129.25 -441.55 129.25 -441.55 115.7M-444.25 116L-444.25 129.05Q-446.8 128.05 -446.95 125.2L-446.95 119.8Q-446.8 117 -444.25 116M-403.55 115.7L-400.8 115.7 -400.8 129.25 -403.55 129.25 -403.55 115.7M-398.15 116Q-395.6 117 -395.4 119.8L-395.4 125.2Q-395.6 128.05 -398.15 129.05L-398.15 116M-403.6 132L-403.6 133.35 -403.55 133.35Q-403.85 136.7 -407.1 137.35 -405 134.95 -404.2 132L-403.6 132M-116.45 -125.95Q-116.5 -125.95 -117.4 -124.6L-117.4 -124.55 -114.9 -124.55Q-114.25 -124.55 -113.5 -124.3 -112.4 -123.9 -112 -123.1L-116.45 -123.1 -117.4 -121.75Q-117.4 -121.7 -117.35 -121.7L-111.75 -121.7Q-111.75 -121.4 -111.9 -121.1 -112.65 -119.1 -115.75 -119.1 -116.4 -119.1 -116.85 -119.15L-116.9 -119.1 -116.9 -117.8Q-116.9 -117.75 -111.4 -111.35L-109.35 -111.35Q-109.3 -111.35 -109.3 -111.4L-109.3 -111.65 -113.95 -117.25Q-114.55 -117.95 -114.55 -118.05L-114.55 -118.1Q-113.3 -118.1 -111.9 -118.75 -111.2 -119.05 -110.4 -120 -109.8 -121 -109.7 -121.7L-108 -121.7Q-107.95 -121.7 -107.05 -123.05L-107.1 -123.1 -109.8 -123.1Q-110 -123.95 -110.5 -124.55L-108 -124.55Q-107.85 -124.65 -107.05 -125.95L-116.45 -125.95M225.05 109.1Q224.95 106.45 223.25 104.75 221.45 103 218.9 102.9L183.75 102.9Q181.1 103 179.4 104.75 177.65 106.45 177.55 109.1L177.55 122.4Q171.95 124.65 168.5 129.4 165.15 134.3 165 140.65 165.15 147.6 169.2 152.75L171.1 154.8Q173.9 157.5 177.55 158.9L177.55 180.65Q177.6 183.2 179.4 184.95 181.1 186.7 183.75 186.75L218.9 186.75Q221.45 186.65 223.25 184.95 225 183.2 225.05 180.65L225.05 109.1M222.25 109.1L222.25 111.35 182.35 111.35 180.4 111.35 180.4 111.3 180.4 109.1Q180.35 107.65 181.35 106.7 182.25 105.75 183.75 105.7L218.9 105.7Q220.3 105.75 221.25 106.7 222.2 107.65 222.25 109.1M182.45 121.2Q182.35 121.2 182.25 121.25 181.3 121.35 180.4 121.5L180.4 114.15 222.25 114.15 222.25 167.2 180.4 167.2 180.4 159.8Q181.3 159.95 182.25 160.05 182.3 160.05 182.45 160.05 183.5 160.2 184.55 160.2 192.85 160 198.35 154.45 203.95 149 204.15 140.65 203.95 132.35 198.35 126.85 192.85 121.25 184.55 121.1 183.5 121.1 182.45 121.2M179.4 124.7Q179.75 124.65 180.1 124.5 180.5 124.4 180.9 124.35 181.3 124.25 181.55 124.2 182 124.1 182.45 124.05 182.75 124 183.05 124 183.8 123.95 184.55 123.95 191.65 124.1 196.4 128.85 201.15 133.55 201.3 140.7 201.15 147.8 196.4 152.5 191.7 157.2 184.55 157.45 183.8 157.45 183.05 157.3 182.75 157.3 182.45 157.25 182 157.2 181.6 157.15 181.3 157.05 180.9 157 180.5 156.9 180.1 156.85 179.8 156.75 179.45 156.6 174.3 154.9 171.1 150.65 167.95 146.35 167.8 140.65 167.95 135 171.1 130.7 174.35 126.45 179.4 124.7M181.35 182.95Q180.35 182 180.4 180.65L180.4 170 222.25 170 222.25 180.65Q222.2 182 221.25 182.95 220.3 183.9 218.9 183.95L183.75 183.95Q182.3 183.9 181.35 182.95M201.3 171.4Q198.95 171.5 197.4 173.05 195.8 174.65 195.75 176.95 195.8 179.4 197.4 180.95 198.95 182.5 201.3 182.55 203.7 182.5 205.25 180.95 206.85 179.4 206.95 176.95 206.85 174.65 205.25 173.05 203.7 171.5 201.3 171.4M198.55 176.95Q198.55 175.85 199.3 175 200.15 174.25 201.3 174.2 202.5 174.25 203.25 175 204.1 175.85 204.1 176.95 204.1 178.15 203.25 178.95 202.5 179.75 201.3 179.8 200.15 179.7 199.3 178.95 198.55 178.15 198.55 176.95M195.75 107.1Q194.45 107.3 194.35 108.55 194.45 109.8 195.75 109.9L201.3 109.9Q202.6 109.8 202.75 108.55 202.6 107.3 201.3 107.1L195.75 107.1M206.9 107.1L205.5 107.1Q204.15 107.3 204.05 108.55 204.2 109.8 205.5 109.9L206.9 109.9Q208.15 109.8 208.25 108.55 208.15 107.3 206.9 107.1M198.6 -121.25L202.2 -121.25Q202.35 -121.4 203.55 -123.2L203.55 -123.25 190.1 -123.25Q190.05 -123.25 188.8 -121.35L188.8 -121.25 192.3 -121.25Q193.2 -121.25 194.35 -120.9 195.9 -120.3 196.45 -119.2L196.45 -119.15 190.1 -119.15 188.75 -117.25Q188.75 -117.2 188.8 -117.2L196.8 -117.2Q196.8 -116.75 196.6 -116.3 195.55 -113.45 191.15 -113.45 190.2 -113.45 189.5 -113.55L189.5 -111.65Q189.45 -111.6 197.35 -102.4L200.25 -102.4Q200.35 -102.4 200.35 -102.5L200.35 -102.85 193.7 -110.85Q192.85 -111.85 192.8 -112L192.8 -112.05Q194.6 -112.05 196.55 -112.95 197.6 -113.4 198.75 -114.8 199.6 -116.2 199.7 -117.2L202.2 -117.2 203.5 -119.1Q203.5 -119.15 203.45 -119.15L199.6 -119.15Q199.35 -120.4 198.6 -121.25Z"/><path fill="#FFCC04" stroke="none" d="M-414.35 171.35L-417.1 171.35 -417.1 174.05 -414.35 174.05 -414.35 171.35M-417.1 161.8L-417.1 164.55 -414.35 164.55 -414.35 161.8 -417.1 161.8M-395.4 119.8Q-395.6 117 -398.15 116L-398.15 129.05Q-395.6 128.05 -395.4 125.2L-395.4 119.8M-400.8 115.7L-403.55 115.7 -403.55 129.25 -400.8 129.25 -400.8 115.7M-444.25 129.05L-444.25 116Q-446.8 117 -446.95 119.8L-446.95 125.2Q-446.8 128.05 -444.25 129.05M-438.85 115.7L-441.55 115.7 -441.55 129.25 -438.85 129.25 -438.85 115.7M180.4 180.65Q180.35 182 181.35 182.95 182.3 183.9 183.75 183.95L218.9 183.95Q220.3 183.9 221.25 182.95 222.2 182 222.25 180.65L222.25 170 180.4 170 180.4 180.65M197.4 173.05Q198.95 171.5 201.3 171.4 203.7 171.5 205.25 173.05 206.85 174.65 206.95 176.95 206.85 179.4 205.25 180.95 203.7 182.5 201.3 182.55 198.95 182.5 197.4 180.95 195.8 179.4 195.75 176.95 195.8 174.65 197.4 173.05M199.3 175Q198.55 175.85 198.55 176.95 198.55 178.15 199.3 178.95 200.15 179.7 201.3 179.8 202.5 179.75 203.25 178.95 204.1 178.15 204.1 176.95 204.1 175.85 203.25 175 202.5 174.25 201.3 174.2 200.15 174.25 199.3 175M222.25 111.35L222.25 109.1Q222.2 107.65 221.25 106.7 220.3 105.75 218.9 105.7L183.75 105.7Q182.25 105.75 181.35 106.7 180.35 107.65 180.4 109.1L180.4 111.3 182.35 111.35 222.25 111.35M205.5 107.1L206.9 107.1Q208.15 107.3 208.25 108.55 208.15 109.8 206.9 109.9L205.5 109.9Q204.2 109.8 204.05 108.55 204.15 107.3 205.5 107.1M194.35 108.55Q194.45 107.3 195.75 107.1L201.3 107.1Q202.6 107.3 202.75 108.55 202.6 109.8 201.3 109.9L195.75 109.9Q194.45 109.8 194.35 108.55Z"/><path fill="#FACA0E" stroke="none" d="M-132.45 137.75L-138.65 137.7 -138.65 163.35 -132.45 163.35 -132.45 137.75M-82.5 137.7L-88.7 137.7 -88.7 163.35 -82.5 163.35 -82.5 137.7M-107.45 137.7L-113.65 137.7 -113.65 163.35 -107.45 163.35 -107.45 137.7M-121.6 -128Q-125.35 -124.25 -125.5 -118.65 -125.35 -113 -121.6 -109.25 -117.85 -105.5 -112.25 -105.35 -106.6 -105.5 -102.85 -109.25 -99.1 -113 -98.95 -118.65 -99.1 -124.25 -102.85 -128 -106.6 -131.75 -112.25 -131.9 -117.85 -131.75 -121.6 -128M-117.4 -124.6Q-116.5 -125.95 -116.45 -125.95L-107.05 -125.95Q-107.85 -124.65 -108 -124.55L-110.5 -124.55Q-110 -123.95 -109.8 -123.1L-107.1 -123.1 -107.05 -123.05Q-107.95 -121.7 -108 -121.7L-109.7 -121.7Q-109.8 -121 -110.4 -120 -111.2 -119.05 -111.9 -118.75 -113.3 -118.1 -114.55 -118.1L-114.55 -118.05Q-114.55 -117.95 -113.95 -117.25L-109.3 -111.65 -109.3 -111.4Q-109.3 -111.35 -109.35 -111.35L-111.4 -111.35Q-116.9 -117.75 -116.9 -117.8L-116.9 -119.1 -116.85 -119.15Q-116.4 -119.1 -115.75 -119.1 -112.65 -119.1 -111.9 -121.1 -111.75 -121.4 -111.75 -121.7L-117.35 -121.7Q-117.4 -121.7 -117.4 -121.75L-116.45 -123.1 -112 -123.1Q-112.4 -123.9 -113.5 -124.3 -114.25 -124.55 -114.9 -124.55L-117.4 -124.55 -117.4 -124.6M196.15 -131.8Q188.1 -131.6 182.75 -126.25 177.4 -120.9 177.2 -112.85 177.4 -104.8 182.75 -99.5 188.1 -94.15 196.15 -93.95 204.2 -94.15 209.5 -99.45 214.85 -104.8 215.05 -112.85 214.85 -120.9 209.55 -126.25 204.2 -131.6 196.15 -131.8M202.2 -121.25L198.6 -121.25Q199.35 -120.4 199.6 -119.15L203.45 -119.15Q203.5 -119.15 203.5 -119.1L202.2 -117.2 199.7 -117.2Q199.6 -116.2 198.75 -114.8 197.6 -113.4 196.55 -112.95 194.6 -112.05 192.8 -112.05L192.8 -112Q192.85 -111.85 193.7 -110.85L200.35 -102.85 200.35 -102.5Q200.35 -102.4 200.25 -102.4L197.35 -102.4Q189.45 -111.6 189.5 -111.65L189.5 -113.55Q190.2 -113.45 191.15 -113.45 195.55 -113.45 196.6 -116.3 196.8 -116.75 196.8 -117.2L188.8 -117.2Q188.75 -117.2 188.75 -117.25L190.1 -119.15 196.45 -119.15 196.45 -119.2Q195.9 -120.3 194.35 -120.9 193.2 -121.25 192.3 -121.25L188.8 -121.25 188.8 -121.35Q190.05 -123.25 190.1 -123.25L203.55 -123.25 203.55 -123.2Q202.35 -121.4 202.2 -121.25Z"/><path fill="#50504F" stroke="none" d="M-130.6 -110.45Q-131.55 -111.25 -132.5 -110.45L-150.4 -92.55Q-151.2 -91.6 -150.4 -90.65L-140.35 -80.6 -156.3 -80.6 -156.3 -77.85 -138.45 -77.85Q-138.15 -77.85 -137.9 -77.95L-128.5 -82 -108.2 -82 -108.2 -76.5 -123.3 -76.5Q-124.55 -76.35 -124.7 -75.1 -124.65 -74.25 -123.9 -73.85L-106 -65.6Q-105.3 -65.3 -104.65 -65.75L-80.8 -82.95 -77.2 -79.3 -104.55 -55.85 -112.05 -55.85 -137.95 -65.4Q-138.2 -65.5 -138.45 -65.5L-156.3 -65.5 -156.3 -62.75 -138.65 -62.75 -112.8 -53.2Q-112.55 -53.1 -112.3 -53.1L-104.05 -53.1Q-103.55 -53.1 -103.15 -53.45L-74.3 -78.2Q-73.4 -79.1 -74.15 -80.1 -74.15 -80.15 -74.2 -80.2L-78.75 -84.75 -74.2 -89.25Q-73.4 -90.25 -74.2 -91.2L-92.1 -109.05Q-93.05 -109.9 -94.05 -109.05L-111.6 -91.5 -130.6 -110.45M-92.25 -89.6Q-94.7 -92.5 -98.25 -92.9 -101.8 -93.3 -104.85 -91 -106.65 -89.55 -107.55 -87.4L-109.65 -89.55 -93.05 -106.15 -77.1 -90.25 -81.55 -85.8 -93.7 -77.05Q-90.8 -79.5 -90.4 -83 -90 -86.55 -92.25 -89.6M-95.7 -75.6L-95.9 -75.75Q-95.05 -76.1 -94.3 -76.6L-95.7 -75.6M-93.05 -84.05Q-93.4 -79.2 -98.1 -78L-105.3 -85.15Q-104.1 -89.9 -99.25 -90.25 -93.6 -89.7 -93.05 -84.05M-108.75 -84.75L-114.1 -84.75Q-116.4 -91.25 -123.3 -91.6 -131.3 -90.95 -132.85 -83.1L-137.15 -81.25 -147.5 -91.6 -131.55 -107.55 -108.75 -84.75M-120.85 -88.4Q-118.2 -87.35 -117 -84.75L-128.8 -84.75Q-129.1 -84.7 -129.35 -84.6L-129.7 -84.5Q-126.9 -90.1 -120.85 -88.4M-105.45 -75.1L-105.45 -81.4 -97.95 -73.95 -105.6 -68.45 -117.05 -73.75 -106.8 -73.75Q-105.55 -73.85 -105.45 -75.1M-400.2 -101.95Q-401.15 -103.25 -402.6 -102.55L-414.3 -95.8Q-414.9 -95.45 -415.1 -94.75 -415.2 -94.4 -415.15 -94L-417.45 -94Q-420.6 -93.95 -422.85 -91.75L-425.9 -88.7 -428 -91.25Q-430.3 -93.95 -433.85 -94L-441.85 -94Q-441.8 -94.4 -441.9 -94.75 -442.1 -95.45 -442.7 -95.8L-454.4 -102.55Q-455.85 -103.25 -456.75 -101.95L-460.65 -95.2Q-461.35 -93.75 -460 -92.8 -458.55 -92.15 -457.65 -93.45L-454.65 -98.7 -445.95 -93.65 -460.3 -68.8 -469 -73.8 -465.75 -79.4Q-465.1 -80.9 -466.4 -81.8 -467.85 -82.45 -468.75 -81.15L-472.85 -74.05Q-473.2 -73.45 -473.05 -72.75 -472.85 -72.05 -472.25 -71.65L-460.55 -64.9Q-460.1 -64.7 -459.65 -64.7 -459.45 -64.7 -459.2 -64.75 -458.55 -64.95 -458.15 -65.55L-458 -65.85 -453.3 -63.05Q-453.3 -61.25 -452.05 -59.75 -450.8 -58.35 -449.05 -58.1 -449 -56.3 -447.8 -54.9 -446.55 -53.5 -444.75 -53.25 -444.7 -51.45 -443.5 -50 -442.2 -48.6 -440.45 -48.35 -440.45 -46.6 -439.2 -45.15 -437.65 -43.45 -435.45 -43.45 -433.7 -43.45 -432.25 -44.6 -432.25 -44.65 -432.2 -44.65L-429.4 -47.15Q-429.15 -46.7 -428.75 -46.3L-426.55 -44.1Q-425 -42.6 -422.95 -42.6 -420.95 -42.65 -419.4 -44.1 -418.05 -45.5 -417.95 -47.3 -416.1 -47.45 -414.7 -48.8 -413.35 -50.2 -413.25 -52 -411.45 -52.1 -410.05 -53.45 -408.7 -54.85 -408.55 -56.7 -406.75 -56.8 -405.35 -58.15 -403.15 -60.6 -404.2 -63.55L-399.5 -66.75 -398.85 -65.55Q-398.45 -64.95 -397.8 -64.75 -397.55 -64.7 -397.3 -64.7 -396.85 -64.7 -396.45 -64.9L-384.75 -71.65Q-383.45 -72.6 -384.1 -74.05L-400.2 -101.95M-420.35 -89.3Q-419.15 -90.5 -417.45 -90.5L-413.25 -90.5 -401.25 -69.75 -406.35 -66.3 -407.55 -67.5Q-411.15 -70.45 -414.7 -67.5 -416.05 -66.1 -416.2 -64.3 -418 -64.15 -419.4 -62.85 -420.75 -61.4 -420.85 -59.6 -422.7 -59.5 -424.1 -58.15 -425.4 -56.75 -425.55 -54.95 -427.35 -54.8 -428.75 -53.45 -429.75 -52.5 -430.05 -51.2L-434.45 -47.35Q-434.45 -47.3 -434.5 -47.3 -435.6 -46.5 -436.6 -47.45 -437.4 -48.55 -436.45 -49.55 -436.1 -49.9 -433.9 -52 -431.75 -54.15 -431.4 -54.45 -430.4 -55.65 -431.4 -56.9 -432.65 -57.95 -433.85 -56.9 -434.15 -56.65 -436.15 -54.65 -438.1 -52.7 -438.4 -52.4 -438.6 -52.3 -438.75 -52.15 -439.9 -51.35 -440.9 -52.3 -441.7 -53.4 -440.75 -54.4 -440.5 -54.65 -440.35 -54.95L-435.6 -59.75Q-434.55 -60.95 -435.6 -62.2 -436.8 -63.2 -438.05 -62.2L-443.1 -57.1Q-443.25 -57 -443.3 -56.85 -443.7 -56.65 -444.15 -56.65 -444.75 -56.7 -445.15 -57.2 -445.55 -57.65 -445.55 -58.25 -445.5 -58.9 -445.05 -59.3 -445 -59.3 -445 -59.35L-444.95 -59.35 -439.4 -64.9Q-438.4 -66.15 -439.4 -67.4 -440.65 -68.4 -441.9 -67.4L-447.35 -61.9Q-448.45 -61.1 -449.45 -62.05 -450.25 -63.15 -449.3 -64.15 -448.95 -64.5 -446.85 -66.5 -444.75 -68.55 -444.45 -68.85 -443.4 -70.05 -444.4 -71.3 -445.6 -72.35 -446.85 -71.35 -447.15 -71.05 -449.4 -68.9 -451.65 -66.75 -452.05 -66.35L-456.25 -68.85 -443.75 -90.5 -433.85 -90.5Q-431.95 -90.5 -430.7 -89.05L-423.65 -80.55Q-423.05 -79.8 -423.25 -78.85 -423.45 -77.9 -424.35 -77.5 -425.55 -77 -426.55 -77.85L-434.1 -85Q-435.35 -86 -436.55 -84.95 -437.55 -83.7 -436.5 -82.5L-436 -82Q-438.4 -77.7 -443.4 -77.8L-443.45 -77.8Q-445.05 -77.8 -445.3 -76.2 -445.3 -74.6 -443.7 -74.35L-443.65 -74.35Q-443.25 -74.3 -442.85 -74.3 -436.75 -74.55 -433.4 -79.55L-428.95 -75.3Q-427.3 -73.85 -425.15 -73.8 -424 -73.8 -422.9 -74.3 -420.45 -75.5 -419.85 -78.05 -419.3 -80.7 -420.95 -82.8L-423.65 -86 -420.35 -89.3M-426.75 -49.9Q-426.75 -50.55 -426.3 -51 -425.85 -51.45 -425.2 -51.45 -424.55 -51.45 -424.1 -51L-421.85 -48.8Q-420.95 -47.65 -421.85 -46.55 -422.95 -45.65 -424.1 -46.55L-426.3 -48.8Q-426.75 -49.25 -426.75 -49.9M-412.25 -62.85Q-413.15 -63.95 -412.25 -65.05 -411.75 -65.5 -411.15 -65.5 -410.5 -65.5 -410.05 -65.05L-407.8 -62.85Q-406.9 -61.7 -407.8 -60.6 -408.9 -59.7 -410.05 -60.6L-412.25 -62.85M-416.95 -60.35Q-416.45 -60.8 -415.8 -60.8 -415.2 -60.8 -414.7 -60.35L-412.5 -58.15Q-411.6 -57.05 -412.5 -55.95 -413.6 -55 -414.7 -55.95L-416.95 -58.15Q-417.4 -58.6 -417.4 -59.25 -417.4 -59.9 -416.95 -60.35M-421.6 -55.7Q-421.15 -56.15 -420.5 -56.15 -419.85 -56.15 -419.4 -55.7L-417.2 -53.45Q-416.25 -52.35 -417.2 -51.25 -418.3 -50.35 -419.4 -51.25L-421.6 -53.45Q-422.05 -53.95 -422.05 -54.55 -422.05 -55.25 -421.6 -55.7M-388 -73.8L-396.7 -68.8 -411.05 -93.65 -402.35 -98.7 -388 -73.8M231.65 -82.45L229.55 -80.95Q227.5 -83.65 224.05 -83.75L223.55 -83.75Q221.3 -83.75 219.5 -82.45L204.65 -71.6 199.05 -71.6 199.05 -68.6 217.75 -68.6 233.4 -80Q234.45 -80.7 235.7 -80.7L236.15 -80.7Q237.8 -80.7 238.9 -79.6 239.95 -78.5 240 -76.85 240 -75.3 238.9 -74.15L224.3 -59.55Q221.15 -56.5 216.8 -56.45L186.5 -56.45 177 -50.15 178.7 -47.6 187.4 -53.4 216.8 -53.4Q222.4 -53.5 226.45 -57.4L241 -72Q243 -74.05 243.05 -76.85 242.95 -79.8 241 -81.75 239.1 -83.65 236.15 -83.75L235.7 -83.75Q233.45 -83.75 231.65 -82.45M224.05 -80.7Q225.95 -80.65 227.1 -79.15L216.75 -71.6 209.8 -71.6 221.3 -80Q222.3 -80.7 223.55 -80.7L224.05 -80.7M156.1 -67.1L157.7 -64.5 177.05 -76.4 191 -76.4Q192.6 -76.4 193.7 -75.3 194.75 -74.25 194.8 -72.65 194.75 -71 193.7 -69.95 192.6 -68.85 191 -68.85L179.65 -68.85 179.65 -65.8 191 -65.8Q193.9 -65.9 195.85 -67.8 197.75 -69.7 197.85 -72.65 197.75 -75.55 195.85 -77.45 193.9 -79.35 191 -79.45L176.2 -79.45 156.1 -67.1Z"/><path fill="#FACB14" stroke="none" d="M-461.95 -77.85Q-462.7 -77.85 -463.2 -77.35 -463.7 -76.8 -463.7 -76.1 -463.7 -75.4 -463.2 -74.9 -462.65 -74.35 -461.95 -74.35 -461.25 -74.4 -460.75 -74.9 -460.2 -75.4 -460.2 -76.1 -460.25 -76.85 -460.75 -77.35 -461.25 -77.85 -461.95 -77.85M-462.35 -88.7Q-463.85 -89.4 -464.75 -88.1L-464.85 -87.9Q-465.55 -86.4 -464.25 -85.5 -463.8 -85.25 -463.35 -85.25 -462.4 -85.3 -461.85 -86.15L-461.75 -86.35Q-461.05 -87.8 -462.35 -88.7M-395.05 -77.85Q-395.8 -77.85 -396.3 -77.35 -396.8 -76.8 -396.8 -76.1 -396.8 -75.4 -396.3 -74.9 -395.75 -74.35 -395.05 -74.35 -394.35 -74.4 -393.85 -74.9 -393.3 -75.4 -393.3 -76.1 -393.35 -76.85 -393.85 -77.35 -394.35 -77.85 -395.05 -77.85Z"/><path id="Layer1_0_1_STROKES" stroke="#50504F" stroke-width="2" stroke-linejoin="round" stroke-linecap="round" fill="none" d="M177.2 -112.85Q177.4 -120.9 182.75 -126.25 188.1 -131.6 196.15 -131.8 204.2 -131.6 209.55 -126.25 214.85 -120.9 215.05 -112.85 214.85 -104.8 209.5 -99.45 204.2 -94.15 196.15 -93.95 188.1 -94.15 182.75 -99.5 177.4 -104.8 177.2 -112.85ZM-125.5 -118.65Q-125.35 -124.25 -121.6 -128 -117.85 -131.75 -112.25 -131.9 -106.6 -131.75 -102.85 -128 -99.1 -124.25 -98.95 -118.65 -99.1 -113 -102.85 -109.25 -106.6 -105.5 -112.25 -105.35 -117.85 -105.5 -121.6 -109.25 -125.35 -113 -125.5 -118.65Z"/><path id="Layer1_0_2_STROKES" stroke="#515151" stroke-width="2.15" stroke-linejoin="round" stroke-linecap="round" fill="none" d="M196.15 142.95L183.95 142.95 183.8 130.6"/><path id="Layer1_0_3_STROKES" stroke="#FACB14" stroke-width="1" stroke-linejoin="round" stroke-linecap="round" fill="none" d="M-464.85 -87.9Q-465.55 -86.4 -464.25 -85.5 -463.8 -85.25 -463.35 -85.25 -462.4 -85.3 -461.85 -86.15L-461.75 -86.35Q-461.05 -87.8 -462.35 -88.7 -463.85 -89.4 -464.75 -88.1L-464.85 -87.9ZM-463.2 -77.35Q-463.7 -76.8 -463.7 -76.1 -463.7 -75.4 -463.2 -74.9 -462.65 -74.35 -461.95 -74.35 -461.25 -74.4 -460.75 -74.9 -460.2 -75.4 -460.2 -76.1 -460.25 -76.85 -460.75 -77.35 -461.25 -77.85 -461.95 -77.85 -462.7 -77.85 -463.2 -77.35ZM-396.3 -77.35Q-396.8 -76.8 -396.8 -76.1 -396.8 -75.4 -396.3 -74.9 -395.75 -74.35 -395.05 -74.35 -394.35 -74.4 -393.85 -74.9 -393.3 -75.4 -393.3 -76.1 -393.35 -76.85 -393.85 -77.35 -394.35 -77.85 -395.05 -77.85 -395.8 -77.85 -396.3 -77.35Z"/></g><animate attributeName="display" fill="freeze" repeatCount="1" dur="0.828s" keyTimes="0;.375;1" values="none;inline;inline"/></g></svg>