<?xml version="1.0" encoding="utf-8"?><svg id="15-End-to-endSolutions" image-rendering="auto" baseProfile="basic" version="1.1" x="0px" y="0px" width="1180" height="560" xmlns="http://www.w3.org/2000/svg" xmlns:xlink="http://www.w3.org/1999/xlink"><defs><g id="Symbol-35" overflow="visible"><path fill="#FFF" stroke="none" d="M121.35 145.75L109.25 133.7 97.2 145.75 121.35 145.75M145.45 145.75L133.4 133.7 121.35 145.75 145.45 145.75M157.75 133.7L145.65 145.75 169.85 145.75 157.75 133.7M36.3 133.7L24.2 145.75 48.4 145.75 36.3 133.7M12.05 133.7L0 145.75 24.15 145.75 12.05 133.7M60.65 133.7L48.6 145.75 72.75 145.75 60.65 133.7M60.5 12.7L48.4 .65 36.45 12.65 36.3 12.5 36.15 12.7 24.05 .65 12 12.7 36.1 12.7 24.2 24.6 48.4 24.6 36.5 12.7 60.5 12.7M97.2 121.5L97 121.3 96.9 121.4 84.9 109.45 72.85 121.5 96.8 121.5 84.95 133.4 109.1 133.4 97.2 121.5M121.35 121.5L121.25 121.4 109.25 109.45 97.2 121.5 120.95 121.5 109.1 133.4 109.2 133.4 133.25 133.4 121.35 121.5M157.75 109.45L145.7 121.5 169.85 121.5 157.75 109.45M145.7 121.5L145.5 121.3 145.4 121.45 133.4 109.45 121.35 121.5 145.3 121.5 133.45 133.4 157.6 133.4 145.7 121.5M24.25 121.5L24.05 121.3 24 121.35 12.05 109.45 0 121.5 23.85 121.5 12 133.4 36.15 133.4 24.25 121.5M74.2 144.4L72.8 145.75 78.45 145.75 91.3 145.75 97 145.75 95.6 144.35 84.9 133.7 74.2 144.4M48.6 121.5L48.4 121.3 48.4 121.35 48.3 121.4 36.3 109.45 24.25 121.5 48.2 121.5 36.35 133.4 60.45 133.4 60.5 133.4 48.6 121.5M72.85 121.5L72.65 121.3 72.6 121.35 60.65 109.45 48.6 121.5 72.45 121.5 60.6 133.4 84.75 133.4 72.85 121.5M24.3 97.25L24.25 97.3 24.35 97.3 48.2 97.3 36.35 109.15 60.5 109.15 48.6 97.3 48.4 97.1 48.3 97.2 36.5 85.4 60.45 85.4 48.6 97.3 72.45 97.3 60.6 109.15 84.75 109.15 72.85 97.3 72.65 97.1 72.6 97.15 60.65 85.2 60.5 85.4 48.4 73.35 36.45 85.35 36.3 85.2 24.3 97.25M12.05 85.2L0 97.3 23.85 97.3 12 109.15 36.15 109.15 24.25 97.3 24.05 97.1 24 97.15 12.05 85.2M133.55 85.35L133.4 85.2 121.35 97.3 145.3 97.3 133.45 109.15 157.6 109.15 145.7 97.3 145.5 97.1 145.4 97.25 133.6 85.4 155.3 85.4 157.55 85.4 145.7 97.3 169.85 97.3 157.75 85.2 157.6 85.4 156.05 83.85 145.5 73.35 133.55 85.35M85.05 85.35L84.9 85.2 72.85 97.3 96.8 97.3 84.95 109.15 109.1 109.15 97.2 97.3 97 97.1 96.9 97.2 85.1 85.4 109.05 85.4 97.2 97.3 120.95 97.3 109.1 109.15 133.25 109.15 121.35 97.3 109.25 85.2 109.1 85.4 97 73.35 85.05 85.35M108.85 12.7L109.1 12.7 97 .65 95.55 2.1 85.05 12.65 84.9 12.5 84.75 12.7 74.1 2.1 72.65 .65 60.6 12.7 60.8 12.7 84.7 12.7 72.8 24.6 97 24.6 85.1 12.7 108.85 12.7M145.5 49.1L145.4 49.25 133.55 61.1 133.4 60.95 133.2 61.15 121.15 49.1 109.3 61 109.25 60.95 109.05 61.15 97 49.1 85.05 61.1 84.9 60.95 84.7 61.15 72.65 49.1 60.75 61.05 60.65 60.95 60.45 61.15 48.4 49.1 36.45 61.1 36.3 60.95 36.1 61.15 24.25 49.3 24.05 49.1 12.15 61.05 12.05 60.95 0 73.05 11.6 73.05 23.85 73.05 13.5 83.45 12 84.9 14.1 84.9 36.15 84.9 24.25 73.05 24.05 72.85 24 72.9 13.7 62.6 12.3 61.2 14.3 61.2 36.05 61.2 24.25 73.05 48.4 73.05 36.55 61.2 60.4 61.2 48.6 73.05 72.45 73.05 60.6 84.9 84.75 84.9 72.85 73.05 72.65 72.85 72.6 72.9 60.9 61.2 84.65 61.2 72.85 73.05 97 73.05 85.15 61.2 109 61.2 97.2 73.05 120.95 73.05 109.05 84.9 133.25 84.9 121.35 73.05 109.5 61.2 133.15 61.2 121.35 73.05 145.45 73.05 133.65 61.2 155.35 61.2 157.5 61.2 156.05 62.7 145.65 73.05 158.05 73.05 169.85 73.05 157.75 60.95 157.55 61.15 145.5 49.1M133.4 36.75L133.25 36.95 121.15 24.85 121.15 24.9 109.25 13 109.2 13.05 97.25 25.1 120.9 25.1 109.1 36.95 97.25 25.1 97 24.85 85.05 36.9 84.9 36.75 84.75 36.95 72.65 24.85 72.6 24.95 60.65 13 48.65 25.1 72.4 25.1 60.75 36.85 60.65 36.75 60.5 36.95 48.65 25.1 48.55 25 48.4 24.85 36.45 36.9 36.3 36.75 36.15 36.95 24.05 24.85 24 24.95 12.05 13 0 25.1 23.8 25.1 12.15 36.85 12.05 36.75 0 48.8 24.15 48.8 12.25 36.95 36.1 36.95 24.2 48.8 24.7 48.8 48.4 48.8 36.55 37 36.5 36.95 36.55 36.95 60.45 36.95 48.6 48.8 72.75 48.8 60.85 36.95 84.7 36.95 72.8 48.8 97 48.8 85.1 36.95 109.05 36.95 97.2 48.8 121.35 48.8 109.45 36.95 133.1 36.95 133.2 36.95 133.15 37 121.35 48.8 144.95 48.8 145.45 48.8 133.6 36.95 157.55 36.95 145.65 48.8 169.85 48.8 157.75 36.75 157.6 36.95 145.75 25.1 169.85 25.1 157.75 13 145.7 25.05 145.5 24.85 133.55 36.9 133.4 36.75M157.6 12.7L145.5 .65 133.55 12.65 133.4 12.5 133.25 12.7 121.15 .65 109.1 12.7 133.2 12.7 121.3 24.6 145.45 24.6 133.6 12.7 157.6 12.7Z"/><path fill="#D4D4D4" stroke="none" d="M97.2 121.5L109.1 133.4 120.95 121.5 97.2 121.5M84.85 146.45Q88.2 146.45 91.3 145.75L78.45 145.75Q81.5 146.45 84.85 146.45M60.5 133.4L60.45 133.4 65.6 138.55Q69.5 142.4 74.2 144.4L84.9 133.7 95.6 144.35Q100.2 142.35 104.05 138.55L109.2 133.4 109.1 133.4 84.95 133.4 96.8 121.5 72.85 121.5 84.75 133.4 60.6 133.4 72.45 121.5 48.6 121.5 60.5 133.4M48.6 97.3L60.45 85.4 36.5 85.4 48.3 97.2 48.4 97.1 48.6 97.3M60.9 61.2L72.6 72.9 72.65 72.85 72.85 73.05 84.65 61.2 60.9 61.2M11.6 73.05Q11.6 73.15 11.6 73.25 11.6 78.75 13.5 83.45L23.85 73.05 11.6 73.05M24.25 73.05L36.05 61.2 14.3 61.2Q13.95 61.9 13.7 62.6L24 72.9 24.05 72.85 24.25 73.05M48.65 25.1L60.5 36.95 60.65 36.75 60.75 36.85 72.4 25.1 48.65 25.1M145.3 97.3L121.35 97.3 133.25 109.15 109.1 109.15 84.95 109.15 96.8 97.3 72.85 97.3 84.75 109.15 60.6 109.15 72.45 97.3 48.6 97.3 60.5 109.15 36.35 109.15 48.2 97.3 24.35 97.3 48.4 121.35 48.4 121.3 48.6 121.5 60.65 109.45 72.6 121.35 72.65 121.3 72.85 121.5 84.9 109.45 96.9 121.4 97 121.3 97.2 121.5 109.25 109.45 121.25 121.4 133.45 109.15 145.3 97.3M150.15 92.45Q153.4 89.2 155.3 85.4L133.6 85.4 145.4 97.25 145.5 97.1 150.15 92.45M120.95 97.3L97.2 97.3 109.1 109.15 120.95 97.3M85.1 85.4L96.9 97.2 97 97.1 97.2 97.3 109.05 85.4 85.1 85.4M85.15 61.2L97 73.05 72.85 73.05 84.75 84.9 60.6 84.9 72.45 73.05 48.6 73.05 60.4 61.2 36.55 61.2 48.4 73.05 24.25 73.05 36.15 84.9 14.1 84.9Q16.05 89 19.5 92.45L24.3 97.25 36.3 85.2 36.45 85.35 48.4 73.35 60.5 85.4 60.65 85.2 72.6 97.15 72.65 97.1 72.85 97.3 84.9 85.2 85.05 85.35 97 73.35 109.1 85.4 109.25 85.2 121.35 97.3 133.4 85.2 133.55 85.35 145.5 73.35 156.05 83.85Q158.05 79 158.05 73.25 158.05 73.15 158.05 73.05L145.65 73.05 156.05 62.7Q155.7 61.95 155.35 61.2L133.65 61.2 145.45 73.05 121.35 73.05 133.25 84.9 109.05 84.9 120.95 73.05 97.2 73.05 109 61.2 85.15 61.2M109.5 61.2L121.35 73.05 133.15 61.2 109.5 61.2M109.1 36.95L120.9 25.1 97.25 25.1 109.1 36.95M95.55 2.1Q90.65 0 84.85 0 79.05 0 74.1 2.1L84.75 12.7 84.9 12.5 85.05 12.65 95.55 2.1M109.2 13.05L108.85 12.7 85.1 12.7 97 24.6 72.8 24.6 84.7 12.7 60.8 12.7 48.55 25 48.65 25.1 60.65 13 72.6 24.95 72.65 24.85 84.75 36.95 84.9 36.75 85.05 36.9 97 24.85 97.25 25.1 109.2 13.05M145.4 49.25L144.95 48.8 121.35 48.8 97.2 48.8 109.05 36.95 85.1 36.95 97 48.8 72.8 48.8 84.7 36.95 60.85 36.95 72.75 48.8 48.6 48.8 60.45 36.95 36.55 36.95 36.55 37 48.4 48.8 24.7 48.8 24.25 49.3 36.1 61.15 36.3 60.95 36.45 61.1 48.4 49.1 60.45 61.15 60.65 60.95 60.75 61.05 72.65 49.1 84.7 61.15 84.9 60.95 85.05 61.1 97 49.1 109.05 61.15 109.25 60.95 109.3 61 121.15 49.1 133.2 61.15 133.4 60.95 133.55 61.1 145.4 49.25M133.15 37L133.1 36.95 109.45 36.95 121.35 48.8 133.15 37Z"/></g></defs><g id="Scene-1r1" overflow="visible" display="none"><g id="Symbol-34" transform="translate(58.7 310.35)" opacity="0"><animateTransform attributeName="transform" additive="replace" type="translate" dur="1.034s" keyTimes="0;.3;.567;1" values="58.7,310.35;58.7,310.35;58.7,260.35;58.7,260.35" keySplines=".25 .5 .5 1;.25 .5 .5 1;.1 .1 .9 .9" calcMode="spline" fill="freeze"/><animate attributeName="opacity" dur="1.034s" keyTimes="0;.3;.567;1" values="0;0;1;1" keySplines=".25 .5 .5 1;.25 .5 .5 1;.1 .1 .9 .9" calcMode="spline" fill="freeze"/><use xlink:href="#Symbol-35" transform="translate(124.25 72.4)" opacity=".2"/><use xlink:href="#Symbol-35" transform="translate(436.85 72.4)" opacity=".2"/><use xlink:href="#Symbol-35" transform="translate(124.3 -156.25)" opacity=".2"/><use xlink:href="#Symbol-35" transform="translate(436.85 -156.25)" opacity=".2"/><use xlink:href="#Symbol-35" transform="translate(763.75 -156.75)" opacity=".2"/><use xlink:href="#Symbol-35" transform="translate(760.45 72.4)" opacity=".2"/><path fill="#404041" stroke="none" d="M835.25 245.7Q833.55 245.7 832.2 247.1 830.85 248.45 830.85 250.6 830.85 252.75 832.15 254.05 833.45 255.35 835.35 255.35 837.25 255.35 838.55 253.9 838.55 255.5 837.65 256.25 836.8 257 835.3 257 833.85 257 832.5 256L831.45 258Q832.3 258.65 833.45 259 834.55 259.35 835.65 259.35 837.7 259.35 839.15 258.15 839.95 257.6 840.35 256.6 840.85 255.6 840.8 254.3L840.8 245.85 838.1 245.85 838.1 247.1Q837 245.7 835.25 245.7M837.5 248.65Q838.15 249.35 838.15 250.5 838.15 251.65 837.5 252.35 836.85 253.05 835.9 253.05 834.9 253.05 834.25 252.35 833.55 251.65 833.55 250.5 833.55 249.35 834.25 248.65 834.95 248 835.9 248 836.85 248 837.5 248.65M847.65 245.7Q845.2 245.7 843.3 247.1L844.5 248.85Q845.05 248.4 845.8 248.15 846.6 247.85 847.3 247.85 848.95 247.85 848.95 249.4L848.95 249.45 846.95 249.45Q845.05 249.45 844 250.2 842.9 250.95 842.9 252.4 842.9 253.9 843.95 254.8 845 255.7 846.55 255.7 848.05 255.7 849.1 254.4L849.1 255.55 851.65 255.55 851.65 249.35Q851.65 247.45 850.55 246.6 849.4 245.7 847.65 245.7M847.1 253.5Q846.4 253.45 846 253.2 845.6 252.9 845.6 252.4 845.6 251.4 847.25 251.4L848.95 251.4 848.95 251.85Q848.95 252.6 848.4 253.05 847.85 253.45 847.1 253.5M827.9 246.8Q826.9 245.7 825.35 245.7 823.8 245.7 822.6 246.95L822.6 245.85 819.9 245.85 819.9 255.55 822.6 255.55 822.6 250.15Q822.6 249 823.2 248.45 823.8 247.85 824.6 247.85 826.25 247.85 826.25 250.05L826.25 255.55 828.95 255.55 828.95 249.65Q828.95 247.85 827.9 246.8M870.5 245.7Q868.5 245.7 867 247.05 865.55 248.4 865.55 250.7 865.55 252.95 867 254.35 868.45 255.7 870.65 255.7 872.85 255.7 874.5 254.15L872.95 252.5Q872.05 253.45 870.65 253.45 869.75 253.45 869.05 252.95 868.35 252.45 868.2 251.65L875.25 251.65 875.25 250.2Q875.25 248.1 873.9 246.9 872.5 245.7 870.5 245.7M871.9 248.4Q872.45 248.85 872.55 249.75L868.3 249.75Q868.4 248.9 869.05 248.4 869.7 247.95 870.55 247.95 871.3 247.95 871.9 248.4M863.5 245.85L860.8 245.85 860.8 247.1Q859.7 245.7 857.95 245.7 856.25 245.7 854.9 247.1 853.55 248.45 853.55 250.6 853.55 252.75 854.85 254.05 856.15 255.35 858.05 255.35 859.95 255.35 861.25 253.9 861.25 255.5 860.35 256.25 859.5 257 858 257 856.55 257 855.2 256L854.15 258Q855 258.65 856.15 259 857.25 259.35 858.35 259.35 860.4 259.35 861.85 258.15 862.65 257.6 863.05 256.6 863.55 255.6 863.5 254.3L863.5 245.85M858.6 248Q859.55 248 860.2 248.65 860.85 249.35 860.85 250.5 860.85 251.65 860.2 252.35 859.55 253.05 858.6 253.05 857.6 253.05 856.95 252.35 856.25 251.65 856.25 250.5 856.25 249.35 856.95 248.65 857.65 248 858.6 248M892.45 255.55L892.45 249.65Q892.45 247.75 891.4 246.7 890.35 245.7 888.65 245.7 887.7 245.7 886.75 246.2 885.8 246.65 885.25 247.55 884.85 246.8 884.1 246.25 883.4 245.7 882.45 245.7 881 245.7 879.9 246.95L879.9 245.85 877.2 245.85 877.2 255.55 879.9 255.55 879.9 250.35Q879.9 249.2 880.5 248.6 881.1 248.05 881.9 248 882.7 248 883 248.55 883.4 249.1 883.35 250.25L883.35 255.55 886.1 255.55 886.1 250.35Q886.1 249.2 886.7 248.6 887.3 248.05 888.1 248 889.7 248 889.75 250.25L889.75 255.55 892.45 255.55M920.6 242.95L917.9 242.95 917.9 245.85 916.75 245.85 916.75 247.8 917.9 247.8 917.9 252.25Q917.9 253.85 918.85 254.75 919.8 255.65 921.2 255.7 922.6 255.7 923.85 254.5L922.85 252.65Q922.35 253.3 921.55 253.3 921.2 253.3 920.9 253 920.6 252.7 920.6 252.15L920.6 247.8 922.95 247.8 922.95 245.85 920.6 245.85 920.6 242.95M902.7 246.9Q901.3 245.7 899.3 245.7 897.3 245.7 895.8 247.05 894.35 248.4 894.35 250.7 894.35 252.95 895.8 254.35 897.25 255.7 899.45 255.7 901.65 255.7 903.3 254.15L901.75 252.5Q900.85 253.45 899.45 253.45 898.55 253.45 897.85 252.95 897.15 252.45 897 251.65L904.05 251.65 904.05 250.2Q904.05 248.1 902.7 246.9M897.85 248.4Q898.5 247.95 899.35 247.95 900.15 247.95 900.7 248.4 901.25 248.85 901.35 249.75L897.1 249.75Q897.2 248.9 897.85 248.4M908.75 246.95L908.75 245.85 906.05 245.85 906.05 255.55 908.75 255.55 908.75 250.15Q908.75 249 909.35 248.45 909.95 247.85 910.75 247.85 912.4 247.85 912.4 250.05L912.4 255.55 915.1 255.55 915.1 249.65Q915.1 247.85 914.05 246.8 913.05 245.7 911.5 245.7 909.95 245.7 908.75 246.95M965.65 246.95L965.65 245.85 962.95 245.85 962.95 259.05 965.65 259.05 965.65 254.25Q966.75 255.7 968.5 255.7 970.3 255.7 971.6 254.25 972.95 252.8 972.9 250.65 972.9 248.55 971.6 247.1 970.25 245.7 968.6 245.7 966.9 245.7 965.65 246.95M967.9 247.95Q968.85 247.95 969.5 248.75 970.2 249.55 970.2 250.7 970.2 251.9 969.5 252.65 968.8 253.4 967.85 253.4 966.95 253.4 966.25 252.65 965.6 251.9 965.6 250.7 965.6 249.55 966.25 248.75 966.9 247.95 967.9 247.95M953.65 246.95L953.65 245.85 950.95 245.85 950.95 259.05 953.65 259.05 953.65 254.25Q954.75 255.7 956.5 255.7 958.3 255.7 959.6 254.25 960.95 252.8 960.9 250.65 960.9 248.55 959.6 247.1 958.25 245.7 956.6 245.7 954.9 245.7 953.65 246.95M957.5 248.75Q958.2 249.55 958.2 250.7 958.2 251.9 957.5 252.65 956.8 253.4 955.85 253.4 954.95 253.4 954.25 252.65 953.6 251.9 953.6 250.7 953.6 249.55 954.25 248.75 954.9 247.95 955.9 247.95 956.85 247.95 957.5 248.75M937.15 246.85Q935.45 245.7 933.75 245.7 932 245.7 930.95 246.55 929.85 247.4 929.85 248.75 929.85 250.1 930.95 250.75 931.5 251.1 931.9 251.3 932.35 251.45 933.15 251.7 933.95 251.95 934.35 252.25 934.8 252.55 934.8 252.9 934.8 253.2 934.5 253.45 934.2 253.65 933.65 253.65 931.95 253.65 930.45 252.45L929.25 254.15Q930.2 254.9 931.35 255.3 932.55 255.7 933.6 255.7 935.2 255.7 936.3 254.85 937.35 253.95 937.35 252.55 937.35 251.1 936.3 250.5 935.8 250.15 935.4 250 935 249.85 934.1 249.55 933.15 249.3 932.8 249.05 932.4 248.85 932.4 248.45 932.4 247.8 933.65 247.8 934.9 247.8 936.15 248.65L937.15 246.85M948.35 245.85L945.65 245.85 945.65 251.05Q945.65 252.2 945.05 252.75 944.45 253.35 943.65 253.35 942 253.35 942 251.1L942 245.85 939.3 245.85 939.3 251.7Q939.3 253.65 940.4 254.7 941.45 255.65 943.05 255.7 944.65 255.7 945.65 254.25L945.65 255.55 948.35 255.55 948.35 245.85M721.45 244.6Q721.9 244.15 721.9 243.5 721.9 242.8 721.45 242.35 721 241.9 720.35 241.9 719.65 241.9 719.2 242.35 718.75 242.8 718.75 243.5 718.75 244.15 719.2 244.6 719.65 245.05 720.35 245.05 721 245.05 721.45 244.6M721.7 245.85L719 245.85 719 255.55 721.7 255.55 721.7 245.85M715.45 246.6Q714.3 245.7 712.55 245.7 710.1 245.7 708.2 247.1L709.4 248.85Q709.95 248.4 710.7 248.15 711.5 247.85 712.2 247.85 713.85 247.85 713.85 249.4L713.85 249.45 711.85 249.45Q709.95 249.45 708.9 250.2 707.8 250.95 707.8 252.4 707.8 253.9 708.85 254.8 709.9 255.7 711.45 255.7 712.95 255.7 714 254.4L714 255.55 716.55 255.55 716.55 249.35Q716.55 247.45 715.45 246.6M713.85 251.4L713.85 251.85Q713.85 252.6 713.3 253.05 712.75 253.45 712 253.5 711.3 253.45 710.9 253.2 710.5 252.9 710.5 252.4 710.5 251.4 712.15 251.4L713.85 251.4M706.6 245.7Q705.8 245.7 705 246.15 704.2 246.55 703.7 247.15L703.7 245.85 701 245.85 701 255.55 703.7 255.55 703.7 251.35Q703.7 249.95 704.3 249.1 704.9 248.25 706.1 248.25L706.6 248.25 706.6 245.7M689.3 242.95L689.3 245.4 692.85 245.4 692.85 255.55 695.65 255.55 695.65 245.4 699.25 245.4 699.25 242.95 689.3 242.95M808.5 242.95L808.5 255.55 817.75 255.55 817.75 253.05 811.3 253.05 811.3 250.45 816.95 250.45 816.95 248.05 811.3 248.05 811.3 245.45 817.55 245.45 817.55 242.95 808.5 242.95M756.4 245.7Q754.7 245.7 753.35 247.1 752 248.45 752 250.6 752 252.75 753.3 254.05 754.6 255.35 756.5 255.35 758.4 255.35 759.7 253.9 759.7 255.5 758.8 256.25 757.95 257 756.45 257 755 257 753.65 256L752.6 258Q753.45 258.65 754.6 259 755.7 259.35 756.8 259.35 758.85 259.35 760.3 258.15 761.1 257.6 761.5 256.6 762 255.6 761.95 254.3L761.95 245.85 759.25 245.85 759.25 247.1Q758.15 245.7 756.4 245.7M759.3 250.5Q759.3 251.65 758.65 252.35 758 253.05 757.05 253.05 756.05 253.05 755.4 252.35 754.7 251.65 754.7 250.5 754.7 249.35 755.4 248.65 756.1 248 757.05 248 758 248 758.65 248.65 759.3 249.35 759.3 250.5M743.7 245.85L741 245.85 741 255.55 743.7 255.55 743.7 250.15Q743.7 249 744.3 248.45 744.9 247.85 745.7 247.85 747.35 247.85 747.35 250.05L747.35 255.55 750.05 255.55 750.05 249.65Q750.05 247.85 749 246.8 748 245.7 746.45 245.7 744.9 245.7 743.7 246.95L743.7 245.85M738.45 245.85L735.75 245.85 735.75 255.55 738.45 255.55 738.45 245.85M738.65 243.5Q738.65 242.8 738.2 242.35 737.75 241.9 737.1 241.9 736.4 241.9 735.95 242.35 735.5 242.8 735.5 243.5 735.5 244.15 735.95 244.6 736.4 245.05 737.1 245.05 737.75 245.05 738.2 244.6 738.65 244.15 738.65 243.5M732.25 246.8Q731.25 245.7 729.7 245.7 728.15 245.7 726.95 246.95L726.95 245.85 724.25 245.85 724.25 255.55 726.95 255.55 726.95 250.15Q726.95 249 727.55 248.45 728.15 247.85 728.95 247.85 730.6 247.85 730.6 250.05L730.6 255.55 733.3 255.55 733.3 249.65Q733.3 247.85 732.25 246.8M800.9 242.2L798.2 242.2 798.2 246.95Q797.1 245.7 795.35 245.7 793.6 245.7 792.25 247.1 790.95 248.45 790.95 250.6 790.95 252.8 792.3 254.25 793.65 255.7 795.35 255.7 797.1 255.7 798.2 254.3L798.2 255.55 800.9 255.55 800.9 242.2M796 248Q796.95 248 797.6 248.75 798.25 249.55 798.25 250.7 798.25 251.9 797.6 252.65 796.95 253.4 796 253.4 795.1 253.4 794.35 252.65 793.65 251.9 793.65 250.75 793.65 249.55 794.35 248.75 795.05 247.95 796 248M776.4 246.6Q775.25 245.7 773.5 245.7 771.05 245.7 769.15 247.1L770.35 248.85Q770.9 248.4 771.65 248.15 772.45 247.85 773.15 247.85 774.8 247.85 774.8 249.4L774.8 249.45 772.8 249.45Q770.9 249.45 769.85 250.2 768.75 250.95 768.75 252.4 768.75 253.9 769.8 254.8 770.85 255.7 772.4 255.7 773.9 255.7 774.95 254.4L774.95 255.55 777.5 255.55 777.5 249.35Q777.5 247.45 776.4 246.6M774.8 251.4L774.8 251.85Q774.8 252.6 774.25 253.05 773.7 253.45 772.95 253.5 772.25 253.45 771.85 253.2 771.45 252.9 771.45 252.4 771.45 251.4 773.1 251.4L774.8 251.4M782.65 246.95L782.65 245.85 779.95 245.85 779.95 255.55 782.65 255.55 782.65 250.15Q782.65 249 783.25 248.45 783.85 247.85 784.65 247.85 786.3 247.85 786.3 250.05L786.3 255.55 789 255.55 789 249.65Q789 247.85 787.95 246.8 786.95 245.7 785.4 245.7 783.85 245.7 782.65 246.95M706.55 24.05L706.55 14.35 703.85 14.35 703.85 24.05 706.55 24.05M694.8 11.45L690.35 11.45 690.35 24.05 694.65 24.05Q698.25 24.05 700 22.3 701.75 20.6 701.75 17.7 701.75 14.75 699.95 13.1 698.15 11.45 694.8 11.45M694.95 21.55L693.15 21.55 693.15 13.9 694.7 13.9Q696.85 13.9 697.9 14.9 698.95 15.9 698.95 17.75 698.95 19.6 697.9 20.6 696.85 21.55 694.95 21.55M704.05 10.85Q703.6 11.3 703.6 12 703.6 12.65 704.05 13.1 704.5 13.55 705.2 13.55 705.85 13.55 706.3 13.1 706.75 12.65 706.75 12 706.75 11.3 706.3 10.85 705.85 10.4 705.2 10.4 704.5 10.4 704.05 10.85M723.8 14.35L721.1 14.35 721.1 24.05 723.8 24.05 723.8 14.35M718.5 14.3L715.8 14.3 715.8 15.55Q714.7 14.15 712.95 14.15 711.25 14.15 709.9 15.55 708.55 16.9 708.55 19.05 708.55 21.2 709.85 22.5 711.15 23.8 713.05 23.8 714.95 23.8 716.25 22.35 716.25 23.95 715.35 24.7 714.5 25.45 713 25.45 711.55 25.45 710.2 24.45L709.15 26.45Q710 27.1 711.15 27.45 712.25 27.8 713.35 27.8 715.4 27.8 716.85 26.6 717.65 26.05 718.05 25.05 718.55 24.05 718.5 22.75L718.5 14.3M711.95 17.1Q712.65 16.45 713.6 16.45 714.55 16.45 715.2 17.1 715.85 17.8 715.85 18.95 715.85 20.1 715.2 20.8 714.55 21.5 713.6 21.5 712.6 21.5 711.95 20.8 711.25 20.1 711.25 18.95 711.25 17.8 711.95 17.1M721.3 10.85Q720.85 11.3 720.85 12 720.85 12.65 721.3 13.1 721.75 13.55 722.45 13.55 723.1 13.55 723.55 13.1 724 12.65 724 12 724 11.3 723.55 10.85 723.1 10.4 722.45 10.4 721.75 10.4 721.3 10.85M731.9 14.35L729.55 14.35 729.55 11.45 726.85 11.45 726.85 14.35 725.7 14.35 725.7 16.3 726.85 16.3 726.85 20.75Q726.85 22.35 727.8 23.25 728.75 24.15 730.15 24.2 731.55 24.2 732.8 23L731.8 21.15Q731.3 21.8 730.5 21.8 730.15 21.8 729.85 21.5 729.55 21.2 729.55 20.65L729.55 16.3 731.9 16.3 731.9 14.35M738.5 14.15Q736.05 14.15 734.15 15.55L735.35 17.3Q735.9 16.85 736.7 16.6 737.45 16.3 738.15 16.3 739.8 16.3 739.8 17.85L739.8 17.9 737.8 17.9Q735.9 17.9 734.85 18.65 733.75 19.4 733.75 20.85 733.75 22.35 734.8 23.25 735.85 24.15 737.4 24.15 738.9 24.15 739.95 22.85L739.95 24 742.5 24 742.5 17.8Q742.5 15.9 741.4 15.05 740.25 14.15 738.5 14.15M737.95 21.95Q737.25 21.9 736.85 21.65 736.45 21.35 736.45 20.85 736.45 19.85 738.1 19.85L739.8 19.85 739.8 20.3Q739.8 21.05 739.25 21.5 738.7 21.9 737.95 21.95M747.65 10.65L744.95 10.65 744.95 24 747.65 24 747.65 10.65M753.6 24.05L756.6 24.05 757.75 21.3 763.05 21.3 764.2 24.05 767.2 24.05 761.75 11.45 759.05 11.45 753.6 24.05M760.4 15.2L761.95 18.85 758.8 18.85 760.4 15.2M778.2 19.15Q778.2 21.35 779.6 22.75 780.95 24.15 782.85 24.15 784.3 24.15 785.45 23.2L785.45 27.5 788.15 27.5 788.15 14.3 785.45 14.3 785.45 15.4Q784.2 14.15 782.55 14.15 780.9 14.15 779.55 15.55 778.2 17 778.2 19.15M781.6 17.2Q782.3 16.4 783.25 16.4 784.2 16.4 784.85 17.2 785.5 18 785.5 19.15 785.5 20.35 784.85 21.1 784.2 21.85 783.25 21.85 782.35 21.85 781.6 21.1 780.9 20.35 780.9 19.15 780.9 18 781.6 17.2M777 15.85Q776.15 15 775.1 14.6 774 14.15 773 14.15 770.9 14.15 769.35 15.55 767.85 16.95 767.85 19.15 767.85 21.4 769.35 22.75 770.85 24.15 773.05 24.15 775.2 24.15 777.1 22.2L775.5 20.4Q774.4 21.75 773.05 21.75 772.05 21.75 771.25 21.05 770.5 20.4 770.5 19.15 770.5 17.9 771.25 17.2 772 16.5 773.1 16.55 773.75 16.5 774.45 16.85 775.1 17.15 775.55 17.7L777 15.85M802.25 24.05L804.95 24.05 804.95 14.35 802.25 14.35 802.25 24.05M799.65 14.35L796.95 14.35 796.95 19.55Q796.95 20.7 796.35 21.25 795.75 21.85 794.95 21.85 793.3 21.85 793.3 19.6L793.3 14.35 790.6 14.35 790.6 20.2Q790.6 22.15 791.7 23.2 792.75 24.15 794.35 24.2 795.95 24.2 796.95 22.75L796.95 24.05 799.65 24.05 799.65 14.35M803.6 10.4Q802.9 10.4 802.45 10.85 802 11.3 802 12 802 12.65 802.45 13.1 802.9 13.55 803.6 13.55 804.25 13.55 804.7 13.1 805.15 12.65 805.15 12 805.15 11.3 804.7 10.85 804.25 10.4 803.6 10.4M812.85 18.45Q812.45 18.3 811.55 18 810.6 17.75 810.25 17.5 809.85 17.3 809.85 16.9 809.85 16.25 811.1 16.25 812.35 16.25 813.6 17.1L814.6 15.3Q812.9 14.15 811.2 14.15 809.45 14.15 808.4 15 807.3 15.85 807.3 17.2 807.3 18.55 808.4 19.2 808.95 19.55 809.35 19.75 809.8 19.9 810.6 20.15 811.4 20.4 811.8 20.7 812.25 21 812.25 21.35 812.25 21.65 811.95 21.9 811.65 22.1 811.1 22.1 809.4 22.1 807.9 20.9L806.7 22.6Q807.65 23.35 808.8 23.75 810 24.15 811.05 24.15 812.65 24.15 813.75 23.3 814.8 22.4 814.8 21 814.8 19.55 813.75 18.95 813.25 18.6 812.85 18.45M819.55 14.35L816.85 14.35 816.85 24.05 819.55 24.05 819.55 14.35M819.75 12Q819.75 11.3 819.3 10.85 818.85 10.4 818.2 10.4 817.5 10.4 817.05 10.85 816.6 11.3 816.6 12 816.6 12.65 817.05 13.1 817.5 13.55 818.2 13.55 818.85 13.55 819.3 13.1 819.75 12.65 819.75 12M825.3 11.45L822.6 11.45 822.6 14.35 821.45 14.35 821.45 16.3 822.6 16.3 822.6 20.75Q822.6 22.35 823.55 23.25 824.5 24.15 825.9 24.2 827.3 24.2 828.55 23L827.55 21.15Q827.05 21.8 826.25 21.8 825.9 21.8 825.6 21.5 825.3 21.2 825.3 20.65L825.3 16.3 827.65 16.3 827.65 14.35 825.3 14.35 825.3 11.45M832.75 24.05L832.75 14.35 830.05 14.35 830.05 24.05 832.75 24.05M839.8 14.15Q837.6 14.15 836.15 15.6 834.7 17.05 834.7 19.15 834.7 21.25 836.15 22.7 837.6 24.15 839.8 24.15 842 24.15 843.5 22.7 844.95 21.25 844.95 19.15 844.95 17.05 843.5 15.6 842.05 14.15 839.8 14.15M838.1 17.2Q838.75 16.45 839.8 16.45 840.85 16.45 841.55 17.2 842.25 17.95 842.2 19.15 842.2 20.35 841.55 21.1 840.9 21.85 839.8 21.85 838.75 21.85 838.1 21.1 837.4 20.35 837.4 19.15 837.4 17.95 838.1 17.2M832.95 12Q832.95 11.3 832.5 10.85 832.05 10.4 831.4 10.4 830.7 10.4 830.25 10.85 829.8 11.3 829.8 12 829.8 12.65 830.25 13.1 830.7 13.55 831.4 13.55 832.05 13.55 832.5 13.1 832.95 12.65 832.95 12M851.65 16.3Q853.3 16.3 853.3 18.5L853.3 24 856 24 856 18.1Q856 16.3 854.95 15.25 853.95 14.15 852.4 14.15 850.85 14.15 849.65 15.4L849.65 14.3 846.95 14.3 846.95 24 849.65 24 849.65 18.6Q849.65 17.45 850.25 16.9 850.85 16.3 851.65 16.3M885.1 14.15Q882.9 14.15 881.45 15.6 880 17.05 880 19.15 880 21.25 881.45 22.7 882.9 24.15 885.1 24.15 887.3 24.15 888.8 22.7 890.25 21.25 890.25 19.15 890.25 17.05 888.8 15.6 887.35 14.15 885.1 14.15M883.4 17.2Q884.05 16.45 885.1 16.45 886.15 16.45 886.85 17.2 887.55 17.95 887.5 19.15 887.5 20.35 886.85 21.1 886.2 21.85 885.1 21.85 884.05 21.85 883.4 21.1 882.7 20.35 882.7 19.15 882.7 17.95 883.4 17.2M873.35 19L871.25 17.45Q871.05 18.4 870.6 19.2 870.1 18.65 869.05 17.4 871.65 15.9 871.65 14.1 871.65 12.7 870.55 11.95 869.5 11.15 868 11.15 866.5 11.15 865.35 11.95 864.25 12.75 864.25 14.3 864.25 15.05 864.55 15.6 864.8 16.15 865.4 16.85 862.75 18.4 862.75 20.35 862.75 22.15 864.05 23.15 865.3 24.15 867.3 24.15 869.3 24.15 870.8 22.95L872.35 24.55 874.15 22.85 872.35 21.1Q872.95 20.1 873.35 19M868.7 13.55Q869.05 13.8 869.05 14.35 869.05 14.95 867.7 15.7 866.95 14.8 866.95 14.3 866.95 13.85 867.3 13.55 867.6 13.3 868 13.25 868.4 13.25 868.7 13.55M867.3 21.9Q866.5 21.9 865.95 21.5 865.45 21.1 865.45 20.45 865.45 19.45 866.8 18.6 867.75 19.75 869.1 21.1 868.15 21.9 867.3 21.9M910.05 17.4L903.65 17.4 903.65 19.8 910.05 19.8 910.05 17.4M900.25 15.25Q899.25 14.15 897.7 14.15 896.15 14.15 894.95 15.4L894.95 14.3 892.25 14.3 892.25 24 894.95 24 894.95 18.6Q894.95 17.45 895.55 16.9 896.15 16.3 896.95 16.3 898.6 16.3 898.6 18.5L898.6 24 901.3 24 901.3 18.1Q901.3 16.3 900.25 15.25M920.8 15.6Q919.35 14.15 917.1 14.15 914.9 14.15 913.45 15.6 912 17.05 912 19.15 912 21.25 913.45 22.7 914.9 24.15 917.1 24.15 919.3 24.15 920.8 22.7 922.25 21.25 922.25 19.15 922.25 17.05 920.8 15.6M917.1 16.45Q918.15 16.45 918.85 17.2 919.55 17.95 919.5 19.15 919.5 20.35 918.85 21.1 918.2 21.85 917.1 21.85 916.05 21.85 915.4 21.1 914.7 20.35 914.7 19.15 914.7 17.95 915.4 17.2 916.05 16.45 917.1 16.45M932.85 22.7Q934.25 21.25 934.2 19.05 934.2 16.9 932.9 15.55 931.6 14.15 929.85 14.15 928.05 14.15 926.95 15.4L926.95 10.65 924.25 10.65 924.25 24 926.95 24 926.95 22.75Q928.1 24.15 929.8 24.15 931.55 24.15 932.85 22.7M929.2 16.45Q930.15 16.45 930.8 17.2 931.5 18 931.5 19.2 931.5 20.35 930.8 21.1 930.1 21.85 929.15 21.85 928.25 21.85 927.55 21.1 926.9 20.35 926.9 19.15 926.9 18 927.55 17.2 928.2 16.4 929.2 16.45M940.75 14.15Q938.55 14.15 937.1 15.6 935.65 17.05 935.65 19.15 935.65 21.25 937.1 22.7 938.55 24.15 940.75 24.15 942.95 24.15 944.45 22.7 945.9 21.25 945.9 19.15 945.9 17.05 944.45 15.6 943 14.15 940.75 14.15M939.05 17.2Q939.7 16.45 940.75 16.45 941.8 16.45 942.5 17.2 943.2 17.95 943.15 19.15 943.15 20.35 942.5 21.1 941.85 21.85 940.75 21.85 939.7 21.85 939.05 21.1 938.35 20.35 938.35 19.15 938.35 17.95 939.05 17.2M953.45 17.85L953.45 17.9 951.45 17.9Q949.55 17.9 948.5 18.65 947.4 19.4 947.4 20.85 947.4 22.35 948.45 23.25 949.5 24.15 951.05 24.15 952.55 24.15 953.6 22.85L953.6 24 956.15 24 956.15 17.8Q956.15 15.9 955.05 15.05 953.9 14.15 952.15 14.15 949.7 14.15 947.8 15.55L949 17.3Q949.55 16.85 950.35 16.6 951.1 16.3 951.8 16.3 953.45 16.3 953.45 17.85M951.75 19.85L953.45 19.85 953.45 20.3Q953.45 21.05 952.9 21.5 952.35 21.9 951.6 21.95 950.9 21.9 950.5 21.65 950.1 21.35 950.1 20.85 950.1 19.85 951.75 19.85M961.3 14.3L958.6 14.3 958.6 24 961.3 24 961.3 19.8Q961.3 18.4 961.9 17.55 962.5 16.7 963.7 16.7L964.2 16.7 964.2 14.15Q963.4 14.15 962.6 14.6 961.8 15 961.3 15.6L961.3 14.3M997.2 245.85L997.2 242.95 994.5 242.95 994.5 245.85 993.35 245.85 993.35 247.8 994.5 247.8 994.5 252.25Q994.5 253.85 995.45 254.75 996.4 255.65 997.8 255.7 999.2 255.7 1000.45 254.5L999.45 252.65Q998.95 253.3 998.15 253.3 997.8 253.3 997.5 253 997.2 252.7 997.2 252.15L997.2 247.8 999.55 247.8 999.55 245.85 997.2 245.85M992.2 245.7Q991.4 245.7 990.6 246.15 989.8 246.55 989.3 247.15L989.3 245.85 986.6 245.85 986.6 255.55 989.3 255.55 989.3 251.35Q989.3 249.95 989.9 249.1 990.5 248.25 991.7 248.25L992.2 248.25 992.2 245.7M983.15 247.15Q981.7 245.7 979.45 245.7 977.25 245.7 975.8 247.15 974.35 248.6 974.35 250.7 974.35 252.8 975.8 254.25 977.25 255.7 979.45 255.7 981.65 255.7 983.15 254.25 984.6 252.8 984.6 250.7 984.6 248.6 983.15 247.15M979.45 248Q980.5 248 981.2 248.75 981.9 249.5 981.85 250.7 981.85 251.9 981.2 252.65 980.55 253.4 979.45 253.4 978.4 253.4 977.75 252.65 977.05 251.9 977.05 250.7 977.05 249.5 977.75 248.75 978.4 248 979.45 248M987.8 16.3Q989.45 16.3 989.45 18.5L989.45 24 992.15 24 992.15 18.1Q992.15 16.3 991.1 15.25 990.1 14.15 988.55 14.15 987 14.15 985.8 15.4L985.8 14.3 983.1 14.3 983.1 24 985.8 24 985.8 18.6Q985.8 17.45 986.4 16.9 987 16.3 987.8 16.3M980.6 14.35L977.9 14.35 977.9 24.05 980.6 24.05 980.6 14.35M975.3 10.65L972.6 10.65 972.6 15.4Q971.5 14.15 969.75 14.15 968 14.15 966.65 15.55 965.35 16.9 965.35 19.05 965.35 21.25 966.7 22.7 968.05 24.15 969.75 24.15 971.5 24.15 972.6 22.75L972.6 24 975.3 24 975.3 10.65M972.65 19.15Q972.65 20.35 972 21.1 971.35 21.85 970.4 21.85 969.5 21.85 968.75 21.1 968.05 20.35 968.05 19.2 968.05 18 968.75 17.2 969.45 16.4 970.4 16.45 971.35 16.45 972 17.2 972.65 18 972.65 19.15M980.8 12Q980.8 11.3 980.35 10.85 979.9 10.4 979.25 10.4 978.55 10.4 978.1 10.85 977.65 11.3 977.65 12 977.65 12.65 978.1 13.1 978.55 13.55 979.25 13.55 979.9 13.55 980.35 13.1 980.8 12.65 980.8 12M1001.35 14.3L1001.35 15.55Q1000.25 14.15 998.5 14.15 996.8 14.15 995.45 15.55 994.1 16.9 994.1 19.05 994.1 21.2 995.4 22.5 996.7 23.8 998.6 23.8 1000.5 23.8 1001.8 22.35 1001.8 23.95 1000.9 24.7 1000.05 25.45 998.55 25.45 997.1 25.45 995.75 24.45L994.7 26.45Q995.55 27.1 996.7 27.45 997.8 27.8 998.9 27.8 1000.95 27.8 1002.4 26.6 1003.2 26.05 1003.6 25.05 1004.1 24.05 1004.05 22.75L1004.05 14.3 1001.35 14.3M997.5 17.1Q998.2 16.45 999.15 16.45 1000.1 16.45 1000.75 17.1 1001.4 17.8 1001.4 18.95 1001.4 20.1 1000.75 20.8 1000.1 21.5 999.15 21.5 998.15 21.5 997.5 20.8 996.8 20.1 996.8 18.95 996.8 17.8 997.5 17.1M182.3 242.2L179.6 242.2 179.6 255.55 182.3 255.55 182.3 242.2M192 246.6Q190.85 245.7 189.1 245.7 186.65 245.7 184.75 247.1L185.95 248.85Q186.5 248.4 187.3 248.15 188.05 247.85 188.75 247.85 190.4 247.85 190.4 249.4L190.4 249.45 188.4 249.45Q186.5 249.45 185.45 250.2 184.35 250.95 184.35 252.4 184.35 253.9 185.4 254.8 186.45 255.7 188 255.7 189.5 255.7 190.55 254.4L190.55 255.55 193.1 255.55 193.1 249.35Q193.1 247.45 192 246.6M190.4 251.4L190.4 251.85Q190.4 252.6 189.85 253.05 189.3 253.45 188.55 253.5 187.85 253.45 187.45 253.2 187.05 252.9 187.05 252.4 187.05 251.4 188.7 251.4L190.4 251.4M198.65 245.85L198.65 242.95 195.95 242.95 195.95 245.85 194.8 245.85 194.8 247.8 195.95 247.8 195.95 252.25Q195.95 253.85 196.9 254.75 197.85 255.65 199.25 255.7 200.65 255.7 201.9 254.5L200.9 252.65Q200.4 253.3 199.6 253.3 199.25 253.3 198.95 253 198.65 252.7 198.65 252.15L198.65 247.8 201 247.8 201 245.85 198.65 245.85M176.3 246.9Q174.9 245.7 172.9 245.7 170.9 245.7 169.4 247.05 167.95 248.4 167.95 250.7 167.95 252.95 169.4 254.35 170.85 255.7 173.05 255.7 175.25 255.7 176.9 254.15L175.35 252.5Q174.45 253.45 173.05 253.45 172.15 253.45 171.45 252.95 170.75 252.45 170.6 251.65L177.65 251.65 177.65 250.2Q177.65 248.1 176.3 246.9M174.3 248.4Q174.85 248.85 174.95 249.75L170.7 249.75Q170.8 248.9 171.45 248.4 172.1 247.95 172.95 247.95 173.7 247.95 174.3 248.4M223 246.95L223 245.85 220.3 245.85 220.3 255.55 223 255.55 223 250.15Q223 249 223.6 248.45 224.2 247.85 225 247.85 226.65 247.85 226.65 250.05L226.65 255.55 229.35 255.55 229.35 249.65Q229.35 247.85 228.3 246.8 227.3 245.7 225.75 245.7 224.2 245.7 223 246.95M235.5 245.7Q233.75 245.7 232.7 246.55 231.6 247.4 231.6 248.75 231.6 250.1 232.7 250.75 233.25 251.1 233.65 251.3 234.1 251.45 234.9 251.7 235.7 251.95 236.1 252.25 236.55 252.55 236.55 252.9 236.55 253.2 236.25 253.45 235.95 253.65 235.4 253.65 233.7 253.65 232.2 252.45L231 254.15Q231.95 254.9 233.1 255.3 234.3 255.7 235.35 255.7 236.95 255.7 238.05 254.85 239.1 253.95 239.1 252.55 239.1 251.1 238.05 250.5 237.55 250.15 237.15 250 236.75 249.85 235.85 249.55 234.9 249.3 234.55 249.05 234.15 248.85 234.15 248.45 234.15 247.8 235.4 247.8 236.65 247.8 237.9 248.65L238.9 246.85Q237.2 245.7 235.5 245.7M216.85 247.15Q215.4 245.7 213.15 245.7 210.95 245.7 209.5 247.15 208.05 248.6 208.05 250.7 208.05 252.8 209.5 254.25 210.95 255.7 213.15 255.7 215.35 255.7 216.85 254.25 218.3 252.8 218.3 250.7 218.3 248.6 216.85 247.15M214.9 248.75Q215.6 249.5 215.55 250.7 215.55 251.9 214.9 252.65 214.25 253.4 213.15 253.4 212.1 253.4 211.45 252.65 210.75 251.9 210.75 250.7 210.75 249.5 211.45 248.75 212.1 248 213.15 248 214.2 248 214.9 248.75M206.1 245.85L203.4 245.85 203.4 255.55 206.1 255.55 206.1 245.85M206.3 243.5Q206.3 242.8 205.85 242.35 205.4 241.9 204.75 241.9 204.05 241.9 203.6 242.35 203.15 242.8 203.15 243.5 203.15 244.15 203.6 244.6 204.05 245.05 204.75 245.05 205.4 245.05 205.85 244.6 206.3 244.15 206.3 243.5M255.4 245.85L252.7 245.85 252.7 255.55 255.4 255.55 255.4 245.85M260.6 245.85L257.9 245.85 257.9 259.05 260.6 259.05 260.6 254.25Q261.7 255.7 263.45 255.7 265.25 255.7 266.55 254.25 267.9 252.8 267.85 250.65 267.85 248.55 266.55 247.1 265.2 245.7 263.55 245.7 261.85 245.7 260.6 246.95L260.6 245.85M265.15 250.7Q265.15 251.9 264.45 252.65 263.75 253.4 262.8 253.4 261.9 253.4 261.2 252.65 260.55 251.9 260.55 250.7 260.55 249.55 261.2 248.75 261.85 247.95 262.85 247.95 263.8 247.95 264.45 248.75 265.15 249.55 265.15 250.7M249.15 246.8Q248.1 245.7 246.6 245.7 245.05 245.7 243.85 246.95L243.85 242.2 241.15 242.2 241.15 255.55 243.85 255.55 243.85 250.35Q243.85 249.2 244.45 248.6 245.05 248.05 245.85 248.05 247.5 248.05 247.5 250.25L247.5 255.55 250.2 255.55 250.2 249.65Q250.2 247.85 249.15 246.8M252.9 242.35Q252.45 242.8 252.45 243.5 252.45 244.15 252.9 244.6 253.35 245.05 254.05 245.05 254.7 245.05 255.15 244.6 255.6 244.15 255.6 243.5 255.6 242.8 255.15 242.35 254.7 241.9 254.05 241.9 253.35 241.9 252.9 242.35M321.7 246.6Q320.55 245.7 318.8 245.7 316.35 245.7 314.45 247.1L315.65 248.85Q316.2 248.4 316.95 248.15 317.75 247.85 318.45 247.85 320.1 247.85 320.1 249.4L320.1 249.45 318.1 249.45Q316.2 249.45 315.15 250.2 314.05 250.95 314.05 252.4 314.05 253.9 315.1 254.8 316.15 255.7 317.7 255.7 319.2 255.7 320.25 254.4L320.25 255.55 322.8 255.55 322.8 249.35Q322.8 247.45 321.7 246.6M320.1 251.4L320.1 251.85Q320.1 252.6 319.55 253.05 319 253.45 318.25 253.5 317.55 253.45 317.15 253.2 316.75 252.9 316.75 252.4 316.75 251.4 318.4 251.4L320.1 251.4M311.05 246.8Q310.05 245.7 308.5 245.7 306.95 245.7 305.75 246.95L305.75 245.85 303.05 245.85 303.05 255.55 305.75 255.55 305.75 250.15Q305.75 249 306.35 248.45 306.95 247.85 307.75 247.85 309.4 247.85 309.4 250.05L309.4 255.55 312.1 255.55 312.1 249.65Q312.1 247.85 311.05 246.8M288.85 246.7Q287.8 245.7 286.1 245.7 285.15 245.7 284.2 246.2 283.25 246.65 282.7 247.55 282.3 246.8 281.55 246.25 280.85 245.7 279.9 245.7 278.45 245.7 277.35 246.95L277.35 245.85 274.65 245.85 274.65 255.55 277.35 255.55 277.35 250.35Q277.35 249.2 277.95 248.6 278.55 248.05 279.35 248 280.15 248 280.45 248.55 280.85 249.1 280.8 250.25L280.8 255.55 283.55 255.55 283.55 250.35Q283.55 249.2 284.15 248.6 284.75 248.05 285.55 248 287.15 248 287.2 250.25L287.2 255.55 289.9 255.55 289.9 249.65Q289.9 247.75 288.85 246.7M299.5 246.6Q298.35 245.7 296.6 245.7 294.15 245.7 292.25 247.1L293.45 248.85Q294 248.4 294.8 248.15 295.55 247.85 296.25 247.85 297.9 247.85 297.9 249.4L297.9 249.45 295.9 249.45Q294 249.45 292.95 250.2 291.85 250.95 291.85 252.4 291.85 253.9 292.9 254.8 293.95 255.7 295.5 255.7 297 255.7 298.05 254.4L298.05 255.55 300.6 255.55 300.6 249.35Q300.6 247.45 299.5 246.6M294.95 253.2Q294.55 252.9 294.55 252.4 294.55 251.4 296.2 251.4L297.9 251.4 297.9 251.85Q297.9 252.6 297.35 253.05 296.8 253.45 296.05 253.5 295.35 253.45 294.95 253.2M71.9 244.6Q70.1 242.95 66.75 242.95L62.3 242.95 62.3 255.55 66.6 255.55Q70.2 255.55 71.95 253.8 73.7 252.1 73.7 249.2 73.7 246.25 71.9 244.6M66.65 245.4Q68.8 245.4 69.85 246.4 70.9 247.4 70.9 249.25 70.9 251.1 69.85 252.1 68.8 253.05 66.9 253.05L65.1 253.05 65.1 245.4 66.65 245.4M161.1 245.85L161.1 255.55 163.8 255.55 163.8 251.35Q163.8 249.95 164.4 249.1 165 248.25 166.2 248.25L166.7 248.25 166.7 245.7Q165.9 245.7 165.1 246.15 164.3 246.55 163.8 247.15L163.8 245.85 161.1 245.85M84.3 254.15L82.75 252.5Q81.85 253.45 80.45 253.45 79.55 253.45 78.85 252.95 78.15 252.45 78 251.65L85.05 251.65 85.05 250.2Q85.05 248.1 83.7 246.9 82.25 245.7 80.3 245.7 78.3 245.7 76.8 247.05 75.35 248.4 75.35 250.7 75.35 252.95 76.8 254.35 78.25 255.7 80.45 255.7 82.65 255.7 84.3 254.15M81.7 248.4Q82.25 248.85 82.35 249.75L78.1 249.75Q78.2 248.9 78.85 248.4 79.5 247.95 80.35 247.95 81.15 247.95 81.7 248.4M101.7 245.85L99 245.85 99 255.55 101.7 255.55 101.7 245.85M118.95 245.7Q116.5 245.7 114.6 247.1L115.8 248.85Q116.35 248.4 117.15 248.15 117.9 247.85 118.6 247.85 120.25 247.85 120.25 249.4L120.25 249.45 118.25 249.45Q116.35 249.45 115.3 250.2 114.2 250.95 114.2 252.4 114.2 253.9 115.25 254.8 116.3 255.7 117.85 255.7 119.35 255.7 120.4 254.4L120.4 255.55 122.95 255.55 122.95 249.35Q122.95 247.45 121.85 246.6 120.7 245.7 118.95 245.7M118.4 253.5Q117.7 253.45 117.3 253.2 116.9 252.9 116.9 252.4 116.9 251.4 118.55 251.4L120.25 251.4 120.25 251.85Q120.25 252.6 119.7 253.05 119.15 253.45 118.4 253.5M108.85 245.7Q106.75 245.7 105.2 247.1 103.7 248.5 103.7 250.7 103.7 252.95 105.2 254.3 106.7 255.7 108.9 255.7 111.05 255.7 112.95 253.75L111.35 251.95Q110.25 253.3 108.9 253.3 107.9 253.3 107.1 252.6 106.35 251.95 106.35 250.7 106.35 249.45 107.1 248.75 107.85 248.05 108.95 248.1 109.6 248.05 110.3 248.4 110.95 248.7 111.4 249.25L112.85 247.4Q112 246.55 110.95 246.15 109.85 245.7 108.85 245.7M96.4 242.2L93.7 242.2 93.7 246.95Q92.6 245.7 90.85 245.7 89.1 245.7 87.75 247.1 86.45 248.45 86.45 250.6 86.45 252.8 87.8 254.25 89.15 255.7 90.85 255.7 92.6 255.7 93.7 254.3L93.7 255.55 96.4 255.55 96.4 242.2M91.5 248Q92.45 248 93.1 248.75 93.75 249.55 93.75 250.7 93.75 251.9 93.1 252.65 92.45 253.4 91.5 253.4 90.6 253.4 89.85 252.65 89.15 251.9 89.15 250.75 89.15 249.55 89.85 248.75 90.55 247.95 91.5 248M100.35 241.9Q99.65 241.9 99.2 242.35 98.75 242.8 98.75 243.5 98.75 244.15 99.2 244.6 99.65 245.05 100.35 245.05 101 245.05 101.45 244.6 101.9 244.15 101.9 243.5 101.9 242.8 101.45 242.35 101 241.9 100.35 241.9M148.2 245.7Q146.45 245.7 145.1 247.1 143.8 248.45 143.8 250.6 143.8 252.8 145.15 254.25 146.5 255.7 148.2 255.7 149.95 255.7 151.05 254.3L151.05 255.55 153.75 255.55 153.75 242.2 151.05 242.2 151.05 246.95Q149.95 245.7 148.2 245.7M151.1 250.7Q151.1 251.9 150.45 252.65 149.8 253.4 148.85 253.4 147.95 253.4 147.2 252.65 146.5 251.9 146.5 250.75 146.5 249.55 147.2 248.75 147.9 247.95 148.85 248 149.8 248 150.45 248.75 151.1 249.55 151.1 250.7M141 246.9Q139.65 245.7 137.65 245.7 135.65 245.7 134.15 247.05 132.7 248.4 132.7 250.7 132.7 252.95 134.15 254.35 135.6 255.7 137.8 255.7 140 255.7 141.65 254.15L140.1 252.5Q139.2 253.45 137.8 253.45 136.9 253.45 136.2 252.95 135.5 252.45 135.35 251.65L142.4 251.65 142.4 250.2Q142.45 248.1 141 246.9M139.05 248.4Q139.6 248.85 139.7 249.75L135.45 249.75Q135.55 248.9 136.2 248.4 136.85 247.95 137.7 247.95 138.45 247.95 139.05 248.4M128.5 242.95L125.8 242.95 125.8 245.85 124.65 245.85 124.65 247.8 125.8 247.8 125.8 252.25Q125.8 253.85 126.75 254.75 127.7 255.65 129.1 255.7 130.5 255.7 131.75 254.5L130.75 252.65Q130.25 253.3 129.45 253.3 129.1 253.3 128.8 253 128.5 252.7 128.5 252.15L128.5 247.8 130.85 247.8 130.85 245.85 128.5 245.85 128.5 242.95M121.9 13.9L121.9 11.45 111.95 11.45 111.95 13.9 115.5 13.9 115.5 24.05 118.3 24.05 118.3 13.9 121.9 13.9M129.7 15.5Q128.25 16.85 128.25 19.15 128.25 21.4 129.7 22.8 131.15 24.15 133.35 24.15 135.55 24.15 137.2 22.6L135.65 20.95Q134.75 21.9 133.35 21.9 132.45 21.9 131.75 21.4 131.05 20.9 130.9 20.1L137.95 20.1 137.95 18.65Q138 16.55 136.55 15.35 135.2 14.15 133.2 14.15 131.2 14.15 129.7 15.5M133.25 16.4Q134 16.4 134.6 16.85 135.15 17.3 135.25 18.2L131 18.2Q131.1 17.35 131.75 16.85 132.4 16.4 133.25 16.4M126.25 24.05L126.25 14.35 123.55 14.35 123.55 24.05 126.25 24.05M123.75 10.85Q123.3 11.3 123.3 12 123.3 12.65 123.75 13.1 124.2 13.55 124.9 13.55 125.55 13.55 126 13.1 126.45 12.65 126.45 12 126.45 11.3 126 10.85 125.55 10.4 124.9 10.4 124.2 10.4 123.75 10.85M144.6 20.2Q144.6 22.15 145.7 23.2 146.75 24.15 148.35 24.2 149.95 24.2 150.95 22.75L150.95 24.05 153.65 24.05 153.65 14.35 150.95 14.35 150.95 19.55Q150.95 20.7 150.35 21.25 149.75 21.85 148.95 21.85 147.3 21.85 147.3 19.6L147.3 14.35 144.6 14.35 144.6 20.2M164.85 22.7Q166.2 21.25 166.15 19.1 166.15 17 164.85 15.55 163.5 14.15 161.85 14.15 160.15 14.15 158.9 15.4L158.9 14.3 156.2 14.3 156.2 27.5 158.9 27.5 158.9 22.7Q160 24.15 161.75 24.15 163.55 24.15 164.85 22.7M162.75 17.2Q163.45 18 163.45 19.15 163.45 20.35 162.75 21.1 162.05 21.85 161.1 21.85 160.2 21.85 159.5 21.1 158.85 20.35 158.85 19.15 158.85 18 159.5 17.2 160.15 16.4 161.15 16.4 162.1 16.4 162.75 17.2M184.85 14.35L182.95 20.2 181.1 14.35 178.45 14.35 176.6 20.2 174.7 14.35 171.9 14.35 175.2 24.05 178 24.05 179.8 18.75 181.55 24.05 184.35 24.05 187.65 14.35 184.85 14.35M191.9 14.35L189.2 14.35 189.2 24.05 191.9 24.05 191.9 14.35M189.4 10.85Q188.95 11.3 188.95 12 188.95 12.65 189.4 13.1 189.85 13.55 190.55 13.55 191.2 13.55 191.65 13.1 192.1 12.65 192.1 12 192.1 11.3 191.65 10.85 191.2 10.4 190.55 10.4 189.85 10.4 189.4 10.85M197.65 11.45L194.95 11.45 194.95 14.35 193.8 14.35 193.8 16.3 194.95 16.3 194.95 20.75Q194.95 22.35 195.9 23.25 196.85 24.15 198.25 24.2 199.65 24.2 200.9 23L199.9 21.15Q199.4 21.8 198.6 21.8 198.25 21.8 197.95 21.5 197.65 21.2 197.65 20.65L197.65 16.3 200 16.3 200 14.35 197.65 14.35 197.65 11.45M210.35 15.25Q209.3 14.15 207.8 14.15 206.25 14.15 205.05 15.4L205.05 10.65 202.35 10.65 202.35 24 205.05 24 205.05 18.8Q205.05 17.65 205.65 17.05 206.25 16.5 207.05 16.5 208.7 16.5 208.7 18.7L208.7 24 211.4 24 211.4 18.1Q211.4 16.3 210.35 15.25M234.7 24L234.7 10.65 232 10.65 232 24 234.7 24M226.7 21.3L227.85 24.05 230.85 24.05 225.4 11.45 222.7 11.45 217.25 24.05 220.25 24.05 221.4 21.3 226.7 21.3M224.05 15.2L225.6 18.85 222.45 18.85 224.05 15.2M240 10.65L237.3 10.65 237.3 24 240 24 240 10.65M248.9 24.05L250.05 21.3 255.35 21.3 256.5 24.05 259.5 24.05 254.05 11.45 251.35 11.45 245.9 24.05 248.9 24.05M251.1 18.85L252.7 15.2 254.25 18.85 251.1 18.85M272.2 16.1L272.2 24.05 275.05 24.05 275.05 11.45 271.25 11.45 268 18.35 264.75 11.45 260.95 11.45 260.95 24.05 263.75 24.05 263.75 16.1 267.15 23 268.8 23 272.2 16.1M301.1 18.45Q300.7 18.3 299.8 18 298.85 17.75 298.5 17.5 298.1 17.3 298.1 16.9 298.1 16.25 299.35 16.25 300.6 16.25 301.85 17.1L302.85 15.3Q301.15 14.15 299.45 14.15 297.7 14.15 296.65 15 295.55 15.85 295.55 17.2 295.55 18.55 296.65 19.2 297.2 19.55 297.6 19.75 298.05 19.9 298.85 20.15 299.65 20.4 300.05 20.7 300.5 21 300.5 21.35 300.5 21.65 300.2 21.9 299.9 22.1 299.35 22.1 297.65 22.1 296.15 20.9L294.95 22.6Q295.9 23.35 297.05 23.75 298.25 24.15 299.3 24.15 300.9 24.15 302 23.3 303.05 22.4 303.05 21 303.05 19.55 302 18.95 301.5 18.6 301.1 18.45M287.45 15.5L289.2 13.5Q287.1 11.15 284 11.15 281.25 11.15 279.3 13 277.4 14.9 277.4 17.7 277.4 20.5 279.3 22.35 281.15 24.15 284.05 24.15 287 24.15 289.1 21.75L287.3 19.9Q286 21.55 283.95 21.55 282.4 21.55 281.35 20.45 280.3 19.4 280.3 17.65 280.3 15.9 281.4 14.85 282.55 13.85 284.15 13.85 286.1 13.85 287.45 15.5M293.2 11.45L291.05 11.45 291.05 16.25 293.2 16.25 293.2 11.45M517.15 245.7Q516.35 245.7 515.55 246.15 514.75 246.55 514.25 247.15L514.25 245.85 511.55 245.85 511.55 255.55 514.25 255.55 514.25 251.35Q514.25 249.95 514.85 249.1 515.45 248.25 516.65 248.25L517.15 248.25 517.15 245.7M525.5 242.2L525.5 246.95Q524.4 245.7 522.65 245.7 520.9 245.7 519.55 247.1 518.25 248.45 518.25 250.6 518.25 252.8 519.6 254.25 520.95 255.7 522.65 255.7 524.4 255.7 525.5 254.3L525.5 255.55 528.2 255.55 528.2 242.2 525.5 242.2M521.65 248.75Q522.35 247.95 523.3 248 524.25 248 524.9 248.75 525.55 249.55 525.55 250.7 525.55 251.9 524.9 252.65 524.25 253.4 523.3 253.4 522.4 253.4 521.65 252.65 520.95 251.9 520.95 250.75 520.95 249.55 521.65 248.75M504.4 245.7Q502.2 245.7 500.75 247.15 499.3 248.6 499.3 250.7 499.3 252.8 500.75 254.25 502.2 255.7 504.4 255.7 506.6 255.7 508.1 254.25 509.55 252.8 509.55 250.7 509.55 248.6 508.1 247.15 506.65 245.7 504.4 245.7M502.7 252.65Q502 251.9 502 250.7 502 249.5 502.7 248.75 503.35 248 504.4 248 505.45 248 506.15 248.75 506.85 249.5 506.8 250.7 506.8 251.9 506.15 252.65 505.5 253.4 504.4 253.4 503.35 253.4 502.7 252.65M557.3 245.85L557.3 242.95 554.6 242.95 554.6 245.85 553.45 245.85 553.45 247.8 554.6 247.8 554.6 252.25Q554.6 253.85 555.55 254.75 556.5 255.65 557.9 255.7 559.3 255.7 560.55 254.5L559.55 252.65Q559.05 253.3 558.25 253.3 557.9 253.3 557.6 253 557.3 252.7 557.3 252.15L557.3 247.8 559.65 247.8 559.65 245.85 557.3 245.85M538.6 246.9Q537.15 245.7 535.2 245.7 533.2 245.7 531.7 247.05 530.25 248.4 530.25 250.7 530.25 252.95 531.7 254.35 533.15 255.7 535.35 255.7 537.55 255.7 539.2 254.15L537.65 252.5Q536.75 253.45 535.35 253.45 534.45 253.45 533.75 252.95 533.05 252.45 532.9 251.65L539.95 251.65 539.95 250.2Q539.95 248.1 538.6 246.9M535.25 247.95Q536.05 247.95 536.6 248.4 537.15 248.85 537.25 249.75L533 249.75Q533.1 248.9 533.75 248.4 534.4 247.95 535.25 247.95M545.9 246.15Q545.1 246.55 544.6 247.15L544.6 245.85 541.9 245.85 541.9 255.55 544.6 255.55 544.6 251.35Q544.6 249.95 545.2 249.1 545.8 248.25 547 248.25L547.5 248.25 547.5 245.7Q546.7 245.7 545.9 246.15M567.1 248.25L567.6 248.25 567.6 245.7Q566.8 245.7 566 246.15 565.2 246.55 564.7 247.15L564.7 245.85 562 245.85 562 255.55 564.7 255.55 564.7 251.35Q564.7 249.95 565.3 249.1 565.9 248.25 567.1 248.25M603.9 245.85L601.2 245.85 601.2 255.55 603.9 255.55 603.9 245.85M601.4 242.35Q600.95 242.8 600.95 243.5 600.95 244.15 601.4 244.6 601.85 245.05 602.55 245.05 603.2 245.05 603.65 244.6 604.1 244.15 604.1 243.5 604.1 242.8 603.65 242.35 603.2 241.9 602.55 241.9 601.85 241.9 601.4 242.35M593.15 242.2L590.45 242.2 590.45 255.55 593.15 255.55 593.15 252.75 594.05 251.85 596.5 255.55 599.7 255.55 595.85 249.8 599.55 245.85 596.15 245.85 593.15 249.05 593.15 242.2M586.65 246.15Q585.55 245.7 584.55 245.7 582.45 245.7 580.9 247.1 579.4 248.5 579.4 250.7 579.4 252.95 580.9 254.3 582.4 255.7 584.6 255.7 586.75 255.7 588.65 253.75L587.05 251.95Q585.95 253.3 584.6 253.3 583.6 253.3 582.8 252.6 582.05 251.95 582.05 250.7 582.05 249.45 582.8 248.75 583.55 248.05 584.65 248.1 585.3 248.05 586 248.4 586.65 248.7 587.1 249.25L588.55 247.4Q587.7 246.55 586.65 246.15M576.4 246.6Q575.25 245.7 573.5 245.7 571.05 245.7 569.15 247.1L570.35 248.85Q570.9 248.4 571.7 248.15 572.45 247.85 573.15 247.85 574.8 247.85 574.8 249.4L574.8 249.45 572.8 249.45Q570.9 249.45 569.85 250.2 568.75 250.95 568.75 252.4 568.75 253.9 569.8 254.8 570.85 255.7 572.4 255.7 573.9 255.7 574.95 254.4L574.95 255.55 577.5 255.55 577.5 249.35Q577.5 247.45 576.4 246.6M574.8 251.85Q574.8 252.6 574.25 253.05 573.7 253.45 572.95 253.5 572.25 253.45 571.85 253.2 571.45 252.9 571.45 252.4 571.45 251.4 573.1 251.4L574.8 251.4 574.8 251.85M627.35 245.85L624.65 245.85 624.65 247.1Q623.55 245.7 621.8 245.7 620.1 245.7 618.75 247.1 617.4 248.45 617.4 250.6 617.4 252.75 618.7 254.05 620 255.35 621.9 255.35 623.8 255.35 625.1 253.9 625.1 255.5 624.2 256.25 623.35 257 621.85 257 620.4 257 619.05 256L618 258Q618.85 258.65 620 259 621.1 259.35 622.2 259.35 624.25 259.35 625.7 258.15 626.5 257.6 626.9 256.6 627.4 255.6 627.35 254.3L627.35 245.85M624.05 248.65Q624.7 249.35 624.7 250.5 624.7 251.65 624.05 252.35 623.4 253.05 622.45 253.05 621.45 253.05 620.8 252.35 620.1 251.65 620.1 250.5 620.1 249.35 620.8 248.65 621.5 248 622.45 248 623.4 248 624.05 248.65M609.1 246.95L609.1 245.85 606.4 245.85 606.4 255.55 609.1 255.55 609.1 250.15Q609.1 249 609.7 248.45 610.3 247.85 611.1 247.85 612.75 247.85 612.75 250.05L612.75 255.55 615.45 255.55 615.45 249.65Q615.45 247.85 614.4 246.8 613.4 245.7 611.85 245.7 610.3 245.7 609.1 246.95M353.95 245.7Q353.15 245.7 352.35 246.15 351.55 246.55 351.05 247.15L351.05 245.85 348.35 245.85 348.35 255.55 351.05 255.55 351.05 251.35Q351.05 249.95 351.65 249.1 352.25 248.25 353.45 248.25L353.95 248.25 353.95 245.7M334.65 245.85L331.95 245.85 331.95 247.1Q330.85 245.7 329.1 245.7 327.4 245.7 326.05 247.1 324.7 248.45 324.7 250.6 324.7 252.75 326 254.05 327.3 255.35 329.2 255.35 331.1 255.35 332.4 253.9 332.4 255.5 331.5 256.25 330.65 257 329.15 257 327.7 257 326.35 256L325.3 258Q326.15 258.65 327.3 259 328.4 259.35 329.5 259.35 331.55 259.35 333 258.15 333.8 257.6 334.2 256.6 334.7 255.6 334.65 254.3L334.65 245.85M331.35 248.65Q332 249.35 332 250.5 332 251.65 331.35 252.35 330.7 253.05 329.75 253.05 328.75 253.05 328.1 252.35 327.4 251.65 327.4 250.5 327.4 249.35 328.1 248.65 328.8 248 329.75 248 330.7 248 331.35 248.65M341.65 245.7Q339.65 245.7 338.15 247.05 336.7 248.4 336.7 250.7 336.7 252.95 338.15 254.35 339.6 255.7 341.8 255.7 344 255.7 345.65 254.15L344.1 252.5Q343.2 253.45 341.8 253.45 340.9 253.45 340.2 252.95 339.5 252.45 339.35 251.65L346.4 251.65 346.4 250.2Q346.4 248.1 345.05 246.9 343.65 245.7 341.65 245.7M341.7 247.95Q342.45 247.95 343.05 248.4 343.6 248.85 343.7 249.75L339.45 249.75Q339.55 248.9 340.2 248.4 340.85 247.95 341.7 247.95M483.45 250.7Q483.45 252.95 484.9 254.35 486.35 255.7 488.55 255.7 490.75 255.7 492.4 254.15L490.85 252.5Q489.95 253.45 488.55 253.45 487.65 253.45 486.95 252.95 486.25 252.45 486.1 251.65L493.15 251.65 493.15 250.2Q493.15 248.1 491.8 246.9 490.4 245.7 488.4 245.7 486.4 245.7 484.9 247.05 483.45 248.4 483.45 250.7M489.8 248.4Q490.35 248.85 490.45 249.75L486.2 249.75Q486.3 248.9 486.95 248.4 487.6 247.95 488.45 247.95 489.2 247.95 489.8 248.4M444.3 246.6Q443.15 245.7 441.4 245.7 438.95 245.7 437.05 247.1L438.25 248.85Q438.8 248.4 439.55 248.15 440.35 247.85 441.05 247.85 442.7 247.85 442.7 249.4L442.7 249.45 440.7 249.45Q438.8 249.45 437.75 250.2 436.65 250.95 436.65 252.4 436.65 253.9 437.7 254.8 438.75 255.7 440.3 255.7 441.8 255.7 442.85 254.4L442.85 255.55 445.4 255.55 445.4 249.35Q445.4 247.45 444.3 246.6M442.7 251.4L442.7 251.85Q442.7 252.6 442.15 253.05 441.6 253.45 440.85 253.5 440.15 253.45 439.75 253.2 439.35 252.9 439.35 252.4 439.35 251.4 441 251.4L442.7 251.4M430.45 245.7Q428.45 245.7 426.95 247.05 425.5 248.4 425.5 250.7 425.5 252.95 426.95 254.35 428.4 255.7 430.6 255.7 432.8 255.7 434.45 254.15L432.9 252.5Q432 253.45 430.6 253.45 429.7 253.45 429 252.95 428.3 252.45 428.15 251.65L435.2 251.65 435.2 250.2Q435.25 248.1 433.8 246.9 432.45 245.7 430.45 245.7M431.85 248.4Q432.4 248.85 432.5 249.75L428.25 249.75Q428.35 248.9 429 248.4 429.65 247.95 430.5 247.95 431.25 247.95 431.85 248.4M417.95 242.95L413.2 242.95 413.2 255.55 416 255.55 416 251.5 417.95 251.5 420.75 255.55 424.2 255.55 421 251.05Q423.4 250.15 423.4 247.15 423.4 244.95 422.15 243.95 420.9 242.95 417.95 242.95M420 245.75Q420.55 246.1 420.55 247.15 420.55 248.15 420 248.6 419.5 249.1 418.05 249.1L416 249.1 416 245.35 418.1 245.35Q419.45 245.35 420 245.75M469 245.85L466.3 245.85 466.3 255.55 469 255.55 469 250.35Q469 249.2 469.6 248.6 470.2 248.05 471 248 471.8 248 472.1 248.55 472.5 249.1 472.45 250.25L472.45 255.55 475.2 255.55 475.2 250.35Q475.2 249.2 475.8 248.6 476.4 248.05 477.2 248 478.8 248 478.85 250.25L478.85 255.55 481.55 255.55 481.55 249.65Q481.55 247.75 480.5 246.7 479.45 245.7 477.75 245.7 476.8 245.7 475.85 246.2 474.9 246.65 474.35 247.55 473.95 246.8 473.2 246.25 472.45 245.7 471.55 245.7 470.1 245.7 469 246.95L469 245.85M463.75 245.85L461.05 245.85 461.05 255.55 463.75 255.55 463.75 245.85M463.95 243.5Q463.95 242.8 463.5 242.35 463.05 241.9 462.4 241.9 461.7 241.9 461.25 242.35 460.8 242.8 460.8 243.5 460.8 244.15 461.25 244.6 461.7 245.05 462.4 245.05 463.05 245.05 463.5 244.6 463.95 244.15 463.95 243.5M450.55 242.2L447.85 242.2 447.85 255.55 450.55 255.55 450.55 242.2M453.6 242.95L453.6 245.85 452.45 245.85 452.45 247.8 453.6 247.8 453.6 252.25Q453.6 253.85 454.55 254.75 455.5 255.65 456.9 255.7 458.3 255.7 459.55 254.5L458.55 252.65Q458.05 253.3 457.25 253.3 456.9 253.3 456.6 253 456.3 252.7 456.3 252.15L456.3 247.8 458.65 247.8 458.65 245.85 456.3 245.85 456.3 242.95 453.6 242.95M444.9 15.6Q443.45 14.15 441.2 14.15 439 14.15 437.55 15.6 436.1 17.05 436.1 19.15 436.1 21.25 437.55 22.7 439 24.15 441.2 24.15 443.4 24.15 444.9 22.7 446.35 21.25 446.35 19.15 446.35 17.05 444.9 15.6M441.2 16.45Q442.25 16.45 442.95 17.2 443.65 17.95 443.6 19.15 443.6 20.35 442.95 21.1 442.3 21.85 441.2 21.85 440.15 21.85 439.5 21.1 438.8 20.35 438.8 19.15 438.8 17.95 439.5 17.2 440.15 16.45 441.2 16.45M429.7 11.15Q427.75 11.15 426.5 12.1 425.2 13.1 425.2 14.9 425.2 16.7 426.2 17.5 427.25 18.35 429.4 18.85 430.8 19.2 431.25 19.55 431.75 19.9 431.75 20.45 431.75 21 431.3 21.35 430.85 21.7 430.1 21.7 428.35 21.7 426.3 19.9L424.65 21.95Q427.05 24.15 430.05 24.15 432.1 24.15 433.35 23.1 434.65 22.05 434.65 20.35 434.65 18.65 433.65 17.8 432.65 16.9 430.85 16.45 429.05 16.05 428.6 15.7 428.1 15.4 428.1 14.85 428.1 14.3 428.5 13.95 428.9 13.6 429.6 13.6 431.35 13.6 433 14.85L434.4 12.8Q433.45 12 432.2 11.6 430.95 11.15 429.7 11.15M461.55 24.05L461.55 14.35 458.85 14.35 458.85 24.05 461.55 24.05M451.2 17.2Q451.95 16.5 453.05 16.55 453.7 16.5 454.4 16.85 455.05 17.15 455.5 17.7L456.95 15.85Q456.1 15 455.05 14.6 453.95 14.15 452.95 14.15 450.85 14.15 449.3 15.55 447.8 16.95 447.8 19.15 447.8 21.4 449.3 22.75 450.8 24.15 453 24.15 455.15 24.15 457.05 22.2L455.45 20.4Q454.35 21.75 453 21.75 452 21.75 451.2 21.05 450.45 20.4 450.45 19.15 450.45 17.9 451.2 17.2M459.05 10.85Q458.6 11.3 458.6 12 458.6 12.65 459.05 13.1 459.5 13.55 460.2 13.55 460.85 13.55 461.3 13.1 461.75 12.65 461.75 12 461.75 11.3 461.3 10.85 460.85 10.4 460.2 10.4 459.5 10.4 459.05 10.85M477.45 24L477.45 10.65 474.75 10.65 474.75 24 477.45 24M472.3 17.8Q472.3 15.9 471.2 15.05 470.05 14.15 468.3 14.15 465.85 14.15 463.95 15.55L465.15 17.3Q465.7 16.85 466.45 16.6 467.25 16.3 467.95 16.3 469.6 16.3 469.6 17.85L469.6 17.9 467.6 17.9Q465.7 17.9 464.65 18.65 463.55 19.4 463.55 20.85 463.55 22.35 464.6 23.25 465.65 24.15 467.2 24.15 468.7 24.15 469.75 22.85L469.75 24 472.3 24 472.3 17.8M469.6 19.85L469.6 20.3Q469.6 21.05 469.05 21.5 468.5 21.9 467.75 21.95 467.05 21.9 466.65 21.65 466.25 21.35 466.25 20.85 466.25 19.85 467.9 19.85L469.6 19.85M487.85 24.05L487.85 16.1 491.25 23 492.9 23 496.3 16.1 496.3 24.05 499.15 24.05 499.15 11.45 495.35 11.45 492.1 18.35 488.85 11.45 485.05 11.45 485.05 24.05 487.85 24.05M509.75 15.35Q508.35 14.15 506.35 14.15 504.35 14.15 502.85 15.5 501.4 16.85 501.4 19.15 501.4 21.4 502.85 22.8 504.3 24.15 506.5 24.15 508.7 24.15 510.35 22.6L508.8 20.95Q507.9 21.9 506.5 21.9 505.6 21.9 504.9 21.4 504.2 20.9 504.05 20.1L511.1 20.1 511.1 18.65Q511.1 16.55 509.75 15.35M506.4 16.4Q507.15 16.4 507.75 16.85 508.3 17.3 508.4 18.2L504.15 18.2Q504.25 17.35 504.9 16.85 505.55 16.4 506.4 16.4M522.5 10.65L519.8 10.65 519.8 15.4Q518.7 14.15 516.95 14.15 515.2 14.15 513.85 15.55 512.55 16.9 512.55 19.05 512.55 21.25 513.9 22.7 515.25 24.15 516.95 24.15 518.7 24.15 519.8 22.75L519.8 24 522.5 24 522.5 10.65M515.95 21.1Q515.25 20.35 515.25 19.2 515.25 18 515.95 17.2 516.65 16.4 517.6 16.45 518.55 16.45 519.2 17.2 519.85 18 519.85 19.15 519.85 20.35 519.2 21.1 518.55 21.85 517.6 21.85 516.7 21.85 515.95 21.1M527.75 24.05L527.75 14.35 525.05 14.35 525.05 24.05 527.75 24.05M532.75 16.6Q533.5 16.3 534.2 16.3 535.85 16.3 535.85 17.85L535.85 17.9 533.85 17.9Q531.95 17.9 530.9 18.65 529.8 19.4 529.8 20.85 529.8 22.35 530.85 23.25 531.9 24.15 533.45 24.15 534.95 24.15 536 22.85L536 24 538.55 24 538.55 17.8Q538.55 15.9 537.45 15.05 536.3 14.15 534.55 14.15 532.1 14.15 530.2 15.55L531.4 17.3Q531.95 16.85 532.75 16.6M535.85 19.85L535.85 20.3Q535.85 21.05 535.3 21.5 534.75 21.9 534 21.95 533.3 21.9 532.9 21.65 532.5 21.35 532.5 20.85 532.5 19.85 534.15 19.85L535.85 19.85M527.95 12Q527.95 11.3 527.5 10.85 527.05 10.4 526.4 10.4 525.7 10.4 525.25 10.85 524.8 11.3 524.8 12 524.8 12.65 525.25 13.1 525.7 13.55 526.4 13.55 527.05 13.55 527.5 13.1 527.95 12.65 527.95 12M555 20.2Q555 22.15 556.1 23.2 557.15 24.15 558.75 24.2 560.35 24.2 561.35 22.75L561.35 24.05 564.05 24.05 564.05 14.35 561.35 14.35 561.35 19.55Q561.35 20.7 560.75 21.25 560.15 21.85 559.35 21.85 557.7 21.85 557.7 19.6L557.7 14.35 555 14.35 555 20.2M551.85 17.1L552.85 15.3Q551.15 14.15 549.45 14.15 547.7 14.15 546.65 15 545.55 15.85 545.55 17.2 545.55 18.55 546.65 19.2 547.2 19.55 547.6 19.75 548.05 19.9 548.85 20.15 549.65 20.4 550.05 20.7 550.5 21 550.5 21.35 550.5 21.65 550.2 21.9 549.9 22.1 549.35 22.1 547.65 22.1 546.15 20.9L544.95 22.6Q545.9 23.35 547.05 23.75 548.25 24.15 549.3 24.15 550.9 24.15 552 23.3 553.05 22.4 553.05 21 553.05 19.55 552 18.95 551.5 18.6 551.1 18.45 550.7 18.3 549.8 18 548.85 17.75 548.5 17.5 548.1 17.3 548.1 16.9 548.1 16.25 549.35 16.25 550.6 16.25 551.85 17.1M575.3 15.55Q573.95 14.15 572.3 14.15 570.6 14.15 569.35 15.4L569.35 14.3 566.65 14.3 566.65 27.5 569.35 27.5 569.35 22.7Q570.45 24.15 572.2 24.15 574 24.15 575.3 22.7 576.65 21.25 576.6 19.1 576.6 17 575.3 15.55M569.95 17.2Q570.6 16.4 571.6 16.4 572.55 16.4 573.2 17.2 573.9 18 573.9 19.15 573.9 20.35 573.2 21.1 572.5 21.85 571.55 21.85 570.65 21.85 569.95 21.1 569.3 20.35 569.3 19.15 569.3 18 569.95 17.2M590.05 19.15Q590.05 21.25 591.5 22.7 592.95 24.15 595.15 24.15 597.35 24.15 598.85 22.7 600.3 21.25 600.3 19.15 600.3 17.05 598.85 15.6 597.4 14.15 595.15 14.15 592.95 14.15 591.5 15.6 590.05 17.05 590.05 19.15M595.15 16.45Q596.2 16.45 596.9 17.2 597.6 17.95 597.55 19.15 597.55 20.35 596.9 21.1 596.25 21.85 595.15 21.85 594.1 21.85 593.45 21.1 592.75 20.35 592.75 19.15 592.75 17.95 593.45 17.2 594.1 16.45 595.15 16.45M587.25 22.7Q588.6 21.25 588.55 19.1 588.55 17 587.25 15.55 585.9 14.15 584.25 14.15 582.55 14.15 581.3 15.4L581.3 14.3 578.6 14.3 578.6 27.5 581.3 27.5 581.3 22.7Q582.4 24.15 584.15 24.15 585.95 24.15 587.25 22.7M583.55 16.4Q584.5 16.4 585.15 17.2 585.85 18 585.85 19.15 585.85 20.35 585.15 21.1 584.45 21.85 583.5 21.85 582.6 21.85 581.9 21.1 581.25 20.35 581.25 19.15 581.25 18 581.9 17.2 582.55 16.4 583.55 16.4M607.9 16.7L607.9 14.15Q607.1 14.15 606.3 14.6 605.5 15 605 15.6L605 14.3 602.3 14.3 602.3 24 605 24 605 19.8Q605 18.4 605.6 17.55 606.2 16.7 607.4 16.7L607.9 16.7M612.9 11.45L610.2 11.45 610.2 14.35 609.05 14.35 609.05 16.3 610.2 16.3 610.2 20.75Q610.2 22.35 611.15 23.25 612.1 24.15 613.5 24.2 614.9 24.2 616.15 23L615.15 21.15Q614.65 21.8 613.85 21.8 613.5 21.8 613.2 21.5 612.9 21.2 612.9 20.65L612.9 16.3 615.25 16.3 615.25 14.35 612.9 14.35 612.9 11.45Z"/><path fill="#515151" stroke="none" d="M884.6 106.4Q884.45 105.15 883.3 105.05L806.6 105.05Q805.45 105.15 805.3 106.4L805.3 153.9Q805.45 155.1 806.6 155.25L819.85 155.25 819.85 157.6Q818 158.7 816.95 160.5 815.95 162.25 815.9 164.55 816 168.5 819.05 170.8 815.9 172.25 813.9 175.1 811.9 178.05 811.85 181.7L811.85 183Q812 184.2 813.25 184.35L876.65 184.35Q877.9 184.2 878 183L878 181.7Q877.95 178.05 876 175.1 874.05 172.25 870.9 170.8 873.9 168.5 874 164.55 873.95 162.25 872.95 160.5 871.85 158.7 870.05 157.6L870.05 155.25 883.3 155.25Q884.45 155.1 884.6 153.9L884.6 106.4M852.9 118.3Q852.8 114.9 850.55 112.65 848.35 110.4 844.9 110.3 841.6 110.4 839.35 112.65 837.1 114.9 837.05 118.3 837.1 121.4 839.05 123.55L837.15 123.55Q833.95 123.55 831.35 125.6L828.05 128.25 822.25 120.15Q821.9 119.7 821.35 119.6 820.8 119.55 820.4 119.85L815.05 123.85Q814.2 124.65 814.85 125.65L822.1 135.6Q823.75 137.9 826.6 138.35 829.45 138.6 831.7 136.85L833.15 135.6 833.15 140.75 815.9 140.75Q814.65 140.85 814.6 142.05L814.6 147.35Q814.65 148.5 815.9 148.65L819.85 148.65 819.85 152.65 807.95 152.65 807.95 107.7 881.95 107.7 881.95 152.65 870.05 152.65 870.05 148.65 873.95 148.65Q875.25 148.5 875.35 147.35L875.35 142.05Q875.25 140.85 873.95 140.75L856.8 140.75 856.8 135.6 858.25 136.85Q860.45 138.6 863.3 138.35 866.15 137.9 867.8 135.6L875.1 125.65Q875.7 124.6 874.8 123.85L869.55 119.85Q869.1 119.55 868.55 119.6 868 119.75 867.65 120.15L861.85 128.25 858.5 125.6Q855.95 123.55 852.75 123.55L850.8 123.55Q852.8 121.35 852.9 118.3M865.6 134.05Q864.6 135.45 862.85 135.6 861.2 135.8 859.85 134.75L856.25 131.8Q855.65 131.25 854.85 131.6 854.15 132 854.1 132.8L854.1 140.75 835.7 140.75 835.7 132.8Q835.7 131.95 834.9 131.6 834.15 131.25 833.5 131.8L829.95 134.75Q828.55 135.8 826.85 135.6 825.15 135.45 824.2 134.05L817.7 125.15 820.85 122.75 826.65 130.9Q826.95 131.35 827.55 131.45 828.15 131.5 828.55 131.15L832.95 127.6Q834.8 126.2 837.1 126.15L852.7 126.15Q855 126.2 856.75 127.6L861.2 131.15Q861.7 131.55 862.2 131.45 862.75 131.35 863.1 130.9L868.9 122.75 872.1 125.15 865.6 134.05M872.65 143.35L872.65 146 864.8 146 864.8 148.65 867.4 148.65 867.4 156.6 822.45 156.6 822.45 147.35Q822.35 146.1 821.2 146L817.2 146 817.2 143.35 872.65 143.35M848.6 122Q847.2 123.5 844.9 123.55 842.7 123.5 841.2 122 839.7 120.55 839.65 118.3 839.7 116.05 841.2 114.55 842.65 113.05 844.9 113 847.2 113.05 848.6 114.55 850.15 116.05 850.2 118.3 850.15 120.55 848.6 122M844.9 159.25Q847.2 159.3 848.6 160.8 850.15 162.3 850.2 164.55 850.15 166.8 848.6 168.25 847.2 169.75 844.9 169.8 842.7 169.75 841.2 168.25 839.7 166.8 839.65 164.55 839.7 162.25 841.2 160.8 842.65 159.3 844.9 159.25M837.05 164.55Q837.15 168.55 840.15 170.85 836.3 172.55 834.35 176.25 832.45 172.5 828.6 170.85 831.6 168.55 831.75 164.55 831.7 161.35 829.7 159.25L839.05 159.25Q837.1 161.4 837.05 164.55M823.75 159.25Q826 159.3 827.55 160.8 829 162.3 829.05 164.55 829 166.8 827.55 168.25 826 169.75 823.75 169.8 821.55 169.75 820 168.25 818.6 166.8 818.5 164.55 818.6 162.25 820 160.8 821.55 159.3 823.75 159.25M814.6 181.7Q814.65 177.7 817.25 175.15 819.85 172.5 823.75 172.45 827.75 172.5 830.35 175.15 832.9 177.75 833.05 181.7L814.6 181.7M835.7 181.7Q835.8 177.7 838.45 175.15 841 172.5 844.9 172.45 848.9 172.5 851.45 175.15 854.1 177.75 854.15 181.7L835.7 181.7M866.1 159.25Q868.35 159.3 869.8 160.8 871.35 162.3 871.4 164.55 871.35 166.8 869.8 168.25 868.35 169.75 866.1 169.8 863.9 169.75 862.4 168.25 860.9 166.8 860.85 164.55 860.9 162.25 862.4 160.8 863.9 159.3 866.1 159.25M850.8 159.25L860.25 159.25Q858.2 161.4 858.15 164.55 858.3 168.55 861.25 170.85 857.5 172.55 855.55 176.25 853.5 172.5 849.8 170.85 852.75 168.55 852.9 164.55 852.8 161.35 850.8 159.25M856.8 181.7Q856.9 177.7 859.55 175.15 862.15 172.5 866.1 172.45 870 172.5 872.55 175.15 875.25 177.75 875.35 181.7L856.8 181.7M223.6 119.25Q224.85 117.85 224.15 116.1 220.9 109.35 214 106.45 213.05 106.2 212.6 107.05 212.3 108 213.2 108.45 219.3 111 222.2 117 222.15 118.25 221 118.45 220.65 118.35 220.5 118.05 215.9 109.3 207 109.15 198.05 109 193.2 117.8 192.8 118.5 192.7 118.4 191.9 118.4 191.35 117.5 191.3 117.25 191.4 117 194 111.7 199 109.1 204 106.5 209.85 107.45 211.5 107.35 210.95 105.8 210.65 105.45 210.25 105.35 203.7 104.25 198 107.2 192.35 110.1 189.45 116.1 188.75 117.85 190 119.25L190.35 119.6Q190.05 120.7 189.85 121.85 185.25 122.15 184.75 126.75L184.75 131.8Q184.85 134.9 187.65 136.3 189.3 139.4 192.4 140.9 193.75 141.4 195.45 141.6 197.15 143.1 199.4 144.55L199.4 149.2 196 149.2Q195.25 148.4 193.25 152.2 187.95 153.35 182.85 154.9 181.95 155.3 182.2 156.25 182.55 157.15 183.55 156.95 188.1 155.5 193.9 154.25 195.25 155.5 197.55 157.35 199.85 159.15 201 160 203.05 161.05 203.8 158.95L204.65 153.9 209.25 153.9Q210.15 157.9 210.4 158.85 210.6 159.75 210.9 159.85 212 160.85 213.25 160 218.35 155.85 219.85 154.25 222.2 154.75 227.5 156.15 232.75 157.55 234.5 159 234.65 158.55 235.75 165L177.9 165Q179.05 158.55 179.15 159 179.35 158.75 180.3 158.25 181.1 157.7 180.7 156.8 180.2 156 179.3 156.35 178.05 157 177.5 157.7 177.25 157.9 176.85 159.3 176.45 160.7 175.75 165.05 169.95 166.25 169.45 172.2 170.1 178.85 176.7 179.45L237 179.45Q243.6 178.85 244.25 172.2 243.75 166.25 237.95 165.05 237.25 160.7 236.85 159.3 236.45 157.9 236.2 157.65 234.15 155.7 228.8 154.25 223.45 152.8 220.45 152.2 218.45 148.4 217.65 149.2L214.25 149.2 214.25 144.2Q220.35 140.4 222.15 136.35 224.65 137.3 226.75 135.9 228.8 134.55 228.95 131.8L228.95 129.2Q228.85 128.2 227.85 128.1 226.9 128.2 226.8 129.2L226.8 131.8Q226.55 134.35 224.05 134.6 221.5 134.35 221.25 131.8L221.25 126.75Q221.5 124.4 223.55 124.05 225.65 123.7 226.65 125.85 226.8 126.3 227.2 126.5 228.8 126.8 228.65 125.15 227.3 121.85 223.7 121.85 223.55 120.7 223.2 119.6L223.6 119.25M210.75 113.5Q209.55 113.7 209.75 114.9L210.25 116.55Q206.9 116.25 204.2 115.4 201.55 114.6 201.35 114.45 199.35 114.4 200.2 116.2L201.8 117.8Q199.35 117.6 196 117.1 199.75 111.85 205.65 111.35 211.6 110.8 216.15 115.3 211.8 113.5 210.75 113.5M204.5 120.1Q206.15 119.75 205.3 118.3L204.75 117.75Q207.9 118.65 211.75 118.7 212.95 118.5 212.75 117.3L212.35 116.1Q214.35 116.7 217.05 118.2 219.7 119.7 221.55 122.45L221.6 122.5Q219.2 124 219.1 126.75L219.1 131.8Q219.15 133.65 220.35 135.05 219.1 138.1 215.9 140.5 212.65 142.9 209.65 144.35 206.4 145.85 203.2 144.25 202.55 143.9 201.9 143.55L205.2 143.55Q207.7 143.4 208.65 141.05 210.5 140.55 212.35 139.3 213.4 138 211.9 137.35 211.3 137.4 208.7 138.8 207.85 136.3 205.2 136.15L201.65 136.15Q198.35 136.45 197.95 139.7 197.25 139.7 196.45 139.6 194.05 137.35 193.25 135.15 194.55 133.75 194.55 131.8L194.55 126.75Q194.5 123.9 191.95 122.45 192.1 121.5 192.3 120.55 194.05 120.6 194.9 119.1 199.85 119.85 204.5 120.1M206.5 147.2Q209.75 147.05 212.15 145.45L212.15 149.2 209.8 149.2Q209.2 149.25 208.8 149.75 208.25 150.65 208.75 151.75L205 151.75Q205.4 150.8 204.9 149.75 204.7 149.35 203.95 149.2L201.55 149.2 201.55 145.8Q203.5 147.1 206.5 147.2M205.2 138.3Q207.65 139.05 206.1 141.1 205.65 141.5 204.15 141.4 203 141.35 201.65 141.4 199.1 140.6 200.8 138.55 201.05 138.3 201.75 138.3 202.5 138.3 205.2 138.3M192.45 131.15L192.45 131.95Q191.95 134.85 189 134.5 187 133.9 186.9 131.8L186.9 126.75Q187.25 124 189.65 124 192.1 124 192.45 126.75 192.45 130.3 192.45 131.15M190.45 136.65Q190.95 136.6 191.4 136.4 191.9 137.5 192.7 138.6 191.4 137.85 190.45 136.65M195.35 152.7Q195.75 151.75 196.15 151.3L202.95 151.3Q202.9 151.55 202.9 151.65 202.75 152.4 201.8 157.95 200.7 157.15 198.6 155.45 196.45 153.75 195.35 152.7M171.65 172.2Q172.1 167.65 176.7 167.2L237 167.2Q241.6 167.6 242.05 172.2 241.6 176.85 237 177.25L176.7 177.25Q172.1 176.85 171.65 172.2M217.5 151.3Q217.95 151.85 218.35 152.7 217.35 153.75 215.45 155.4 213.5 157 212.4 157.95 212.25 157.3 211.6 154.6 210.95 151.9 210.85 151.3L217.5 151.3M198.3 124.85Q196.5 125 196.3 126.85 196.45 128.7 198.3 128.85 200.15 128.7 200.3 126.85 200.15 125.05 198.3 124.85M195 121.45Q193.7 122.9 195.55 123.5 195.8 123.5 196.05 123.4 196.5 122.55 200.65 123.45 201.1 123.6 201.5 123.45 202.85 122.4 201.5 121.4 198.75 120.4 196.95 120.85 195.15 121.3 195 121.45M203.75 124.5Q202.8 124.6 202.7 125.55L202.7 132.8Q202.95 135.5 205.65 135.75L207.65 135.75Q208.6 135.65 208.7 134.7 208.6 133.7 207.65 133.6L205.65 133.6Q204.9 133.55 204.85 132.8L204.85 125.55Q204.75 124.6 203.75 124.5M216.3 126.85Q216.15 125.05 214.3 124.85 212.5 125 212.3 126.85 212.45 128.7 214.3 128.85 216.15 128.7 216.3 126.85M211.15 121.45Q210.35 122.05 210.75 122.95 211.3 123.8 212.2 123.4 212.65 122.55 216.8 123.45 217.25 123.6 217.65 123.45 219 122.45 217.65 121.4 214.9 120.4 213.1 120.85 211.3 121.3 211.15 121.45M562.1 135.9Q562 134.6 560.7 134.5L547.8 134.5Q546.5 134.6 546.4 135.9L546.4 176.5 541.7 176.5 541.7 149.95Q541.55 148.65 540.25 148.5L527.3 148.5Q526 148.65 525.9 149.95L525.9 176.5 521.15 176.5 521.15 147.8Q521.05 146.55 519.75 146.45L506.9 146.45Q505.6 146.5 505.5 147.8L505.5 176.5 500.75 176.5 500.75 156.05Q500.65 154.75 499.35 154.65L486.4 154.65Q485.1 154.75 485 156.05L485 176.5 478.4 176.5Q477.1 176.6 477 177.9 477.1 179.15 478.4 179.3L568.5 179.3Q569.8 179.15 569.9 177.9 569.9 176.6 568.6 176.5L562.1 176.5 562.1 135.9M549.2 137.3L559.3 137.3 559.3 176.5 549.2 176.5 549.2 137.3M508.3 149.2L518.35 149.2 518.35 176.5 508.3 176.5 508.3 149.2M487.8 157.45L497.85 157.45 497.85 176.5 487.8 176.5 487.8 157.45M528.7 151.35L538.8 151.35 538.8 176.5 528.7 176.5 528.7 151.35M513.95 91.25Q506.15 91.45 501 96.6 495.85 101.8 495.65 109.55 495.85 117.3 501 122.5 506.2 127.6 513.95 127.85 518.9 127.8 523.1 125.35 527.3 122.95 529.75 118.7 530.45 117.3 529.15 116.4 527.75 115.8 526.9 117.05 524.8 120.5 521.4 122.5 518 124.5 513.9 124.55 507.55 124.35 503.3 120.15 499.05 115.9 498.9 109.55 499.05 103.15 503.3 98.95 507.55 94.7 513.9 94.55 519.35 94.65 523.3 97.85 527.25 101.1 528.5 106.2L526.1 106.2Q525.6 106.25 525.3 106.65 525.1 107.15 525.45 107.55L529.6 112.55Q529.8 112.85 530.25 112.85 530.6 112.85 530.9 112.55L535.05 107.55Q535.3 107.2 535.15 106.7 534.9 106.2 534.4 106.25L531.95 106.25Q530.6 99.7 525.7 95.55 520.8 91.4 513.95 91.25M483.7 -121Q482.15 -119.4 482.1 -117.15L482.1 -103.7Q482.15 -101.5 483.7 -99.95 485.15 -98.4 487.45 -98.35L488.8 -98.35 488.8 -97.05Q488.85 -95.3 489.95 -94.15 491.15 -93 492.8 -93L506.25 -93Q507.5 -92.9 507.6 -91.65L507.6 -90.35 492.8 -90.35Q491.15 -90.3 489.95 -89.15 488.85 -88 488.8 -86.3L488.8 -54.1 483.45 -54.1Q482.2 -53.95 482.1 -52.7 482.15 -49.85 484.1 -48 485.95 -46.05 488.8 -46L556 -46Q558.85 -46.05 560.7 -47.95 562.65 -49.85 562.75 -52.7 562.6 -53.95 561.35 -54.1L556 -54.1 556 -86.25Q555.95 -87.95 554.8 -89.1 553.65 -90.25 551.95 -90.3L541.2 -90.3 541.2 -91.6Q541.3 -92.85 542.5 -93L547.85 -93Q549.6 -93 550.75 -94.15 551.85 -95.3 551.9 -97.05L551.9 -99.7 557.25 -99.7Q559.55 -99.75 561.1 -101.25 562.6 -102.8 562.65 -105.1L562.65 -118.5Q562.6 -120.75 561.1 -122.25 559.55 -123.8 557.25 -123.85L543.85 -123.85Q541.55 -123.8 540.05 -122.25 538.55 -120.8 538.5 -118.5L538.5 -105.1Q538.5 -102.8 540.05 -101.25 541.55 -99.75 543.85 -99.7L549.2 -99.7 549.2 -97.05Q549.1 -95.8 547.85 -95.65L542.5 -95.65Q540.8 -95.6 539.65 -94.5 538.55 -93.35 538.5 -91.6L538.5 -90.3 523.7 -90.3 523.7 -102.4 529.1 -102.4Q531.3 -102.45 532.9 -104 534.4 -105.5 534.45 -107.75L534.45 -121.2Q534.4 -123.45 532.9 -124.95 531.35 -126.5 529.1 -126.55L515.65 -126.55Q513.35 -126.5 511.85 -124.95 510.35 -123.45 510.3 -121.2L510.3 -107.75Q510.35 -105.5 511.85 -104 513.35 -102.45 515.65 -102.4L521 -102.4 521 -90.3 510.3 -90.3 510.3 -91.6Q510.25 -93.35 509.1 -94.5 507.95 -95.6 506.25 -95.65L492.8 -95.65Q491.6 -95.8 491.5 -97.05L491.5 -98.35 500.85 -98.35Q503.15 -98.4 504.65 -99.9 506.2 -101.45 506.25 -103.65L506.25 -117.15Q506.2 -119.4 504.65 -121 503.15 -122.45 500.85 -122.5L487.45 -122.5Q485.15 -122.45 483.7 -121M485.5 -101.85Q484.8 -102.6 484.75 -103.7L484.75 -117.15Q484.8 -118.3 485.5 -119.05 486.35 -119.8 487.45 -119.8L500.85 -119.8Q502 -119.8 502.8 -119.05 503.55 -118.3 503.6 -117.15L503.6 -103.7Q503.55 -102.6 502.8 -101.85 502 -101.05 500.85 -101.05L496.85 -101.05 496.85 -109.15 500.85 -109.15 500.85 -111.8 496.85 -111.8Q496.85 -112.95 497.6 -113.75 498.4 -114.45 499.55 -114.5L500.85 -114.5 500.85 -117.15 499.55 -117.15Q497.25 -117.1 495.75 -115.55 494.2 -114.1 494.2 -111.8L491.5 -111.8 491.5 -109.15 494.2 -109.15 494.2 -101.05 487.45 -101.05Q486.35 -101.05 485.5 -101.85M512.95 -121.2Q513 -122.3 513.7 -123.1 514.55 -123.85 515.65 -123.85L529.1 -123.85Q530.25 -123.85 531 -123.1 531.75 -122.3 531.8 -121.2L531.8 -107.75Q531.75 -106.65 531 -105.85 530.25 -105.1 529.1 -105.1L515.65 -105.1Q514.55 -105.1 513.7 -105.85 513 -106.65 512.95 -107.75L512.95 -121.2M541.2 -118.5Q541.2 -119.6 541.95 -120.4 542.75 -121.2 543.9 -121.2L557.25 -121.2Q558.45 -121.2 559.2 -120.4 560 -119.6 560 -118.5L560 -105.1Q559.95 -103.95 559.2 -103.15 558.45 -102.4 557.25 -102.4L543.9 -102.4Q542.75 -102.4 541.95 -103.15 541.2 -103.95 541.2 -105.1L541.2 -118.5M551.9 -87.6Q553.15 -87.5 553.25 -86.25L553.25 -54.05 491.5 -54.05 491.5 -86.25Q491.6 -87.5 492.8 -87.6L507.6 -87.6 507.6 -79.5 504.9 -79.5Q502.6 -79.45 501.1 -77.95 499.6 -76.45 499.55 -74.15L499.55 -58.05Q499.65 -56.85 500.85 -56.7 502.05 -56.85 502.2 -58.05 502.25 -59.2 503.05 -59.9 503.75 -60.75 504.9 -60.75L521 -60.75Q523.3 -60.75 524.85 -62.3 526.3 -63.85 526.45 -66.1L531.6 -66.1 534.9 -66.1 539.8 -66.1Q540.95 -66.1 541.75 -65.3 542.5 -64.55 542.5 -63.4 542.6 -62.15 543.85 -62.1 545.05 -62.15 545.15 -63.4L545.15 -79.5Q545.15 -81.4 544.05 -82.8 542.95 -84.2 541.15 -84.75L541.15 -87.6 551.9 -87.6M541.75 -81.45Q542.5 -80.7 542.55 -79.5L542.55 -68.1Q541.3 -68.8 539.85 -68.8L523.7 -68.8Q522.6 -68.8 521.8 -69.6 521.05 -70.4 521 -71.5L521 -79.5Q521.05 -80.7 521.8 -81.45 522.6 -82.25 523.7 -82.3L539.85 -82.3Q541 -82.2 541.75 -81.45M538.5 -87.6L538.5 -84.95 523.7 -84.95 523.7 -87.6 538.5 -87.6M521 -84.15Q518.45 -82.6 518.35 -79.5L510.3 -79.5 510.3 -87.6 521 -87.6 521 -84.15M503 -76.1Q503.75 -76.85 504.9 -76.85L518.35 -76.85 518.35 -71.5Q518.35 -69.2 519.9 -67.65 521.4 -66.2 523.7 -66.15 523.65 -64.95 522.9 -64.2 522.2 -63.5 521 -63.45L504.9 -63.45Q503.473 -63.45 502.25 -62.75L502.2 -62.7 502.2 -62.75 502.2 -74.2Q502.25 -75.35 503 -76.1M488.8 -48.6Q487.5 -48.7 486.5 -49.4 485.45 -50.1 485 -51.35L559.75 -51.35Q559.3 -50.1 558.3 -49.4 557.25 -48.65 555.95 -48.6L488.8 -48.6M551.1 -114.75L548.4 -114.75 548.4 -105.35 551.1 -105.35 551.1 -110.05Q551.15 -110.9 551.7 -111.5 552.3 -112.05 553.15 -112.05 553.95 -112.05 554.6 -111.5 555.15 -110.9 555.15 -110.05L555.15 -105.35 557.8 -105.35 557.8 -110Q557.8 -112 556.4 -113.35 555.15 -114.7 553.15 -114.75 552.05 -114.75 551.1 -114.3L551.1 -114.75M544.4 -114.7L544.4 -105.35 547.1 -105.35 547.1 -114.7 544.4 -114.7M544.4 -118.75L544.4 -116.05 547.1 -116.05 547.1 -118.75 544.4 -118.75M520.35 -120.75Q519.7 -121.15 519 -120.8 518.3 -120.35 518.25 -119.55L518.25 -108.85Q518.3 -108.05 519 -107.65 519.7 -107.3 520.35 -107.7L528.4 -113.05Q529.05 -113.5 529 -114.25 529.05 -114.9 528.4 -115.3L520.35 -120.75M520.95 -117.1L525.3 -114.25 520.95 -111.35 520.95 -117.1M185.4 -60.75Q184 -59.3 183.95 -57.2 184 -55.1 185.4 -53.65 186.85 -52.25 188.95 -52.2 191.05 -52.25 192.5 -53.65 193.9 -55.1 193.95 -57.2 193.9 -59.3 192.5 -60.75 191.05 -62.15 188.95 -62.2 186.8 -62.15 185.4 -60.75M188.95 -59.75Q190.05 -59.7 190.75 -59 191.45 -58.3 191.5 -57.2 191.45 -56.1 190.75 -55.4 190.05 -54.65 188.95 -54.65 187.85 -54.65 187.15 -55.4 186.4 -56.1 186.4 -57.2 186.4 -58.3 187.15 -59 187.85 -59.75 188.95 -59.75M228.7 -53.65Q230.15 -52.25 232.25 -52.2 234.35 -52.25 235.8 -53.65 237.2 -55.1 237.25 -57.2 237.2 -59.3 235.8 -60.75 234.35 -62.15 232.25 -62.2 230.1 -62.15 228.7 -60.75 227.3 -59.3 227.25 -57.2 227.3 -55.1 228.7 -53.65M232.25 -54.65Q231.15 -54.65 230.45 -55.4 229.7 -56.1 229.7 -57.2 229.7 -58.3 230.45 -59 231.15 -59.75 232.25 -59.75 233.35 -59.7 234.05 -59 234.75 -58.3 234.8 -57.2 234.75 -56.1 234.05 -55.4 233.35 -54.65 232.25 -54.65M207.05 -60.75Q205.65 -59.3 205.6 -57.2 205.65 -55.1 207.05 -53.65 208.5 -52.25 210.6 -52.2 212.7 -52.25 214.15 -53.65 215.55 -55.1 215.6 -57.2 215.55 -59.3 214.15 -60.75 212.7 -62.15 210.6 -62.2 208.45 -62.15 207.05 -60.75M208.8 -59Q209.5 -59.75 210.6 -59.75 211.7 -59.7 212.4 -59 213.1 -58.3 213.15 -57.2 213.1 -56.1 212.4 -55.4 211.7 -54.65 210.6 -54.65 209.5 -54.65 208.8 -55.4 208.05 -56.1 208.05 -57.2 208.05 -58.3 208.8 -59M217.9 -110.75Q214.65 -112.7 210.65 -112.75 206.6 -112.7 203.35 -110.8 200.1 -108.9 198.2 -105.65 196.25 -102.4 196.2 -98.4L196.2 -98.3Q196.25 -94.5 197.95 -91.4 199.7 -88.25 202.7 -86.3 205.65 -84.3 209.35 -83.95L209.35 -76.6 191.85 -76.6Q190.3 -76.55 189.25 -75.55 188.25 -74.5 188.2 -73L188.2 -66.45Q188.3 -65.35 189.45 -65.25 190.55 -65.35 190.65 -66.45L190.65 -72.95Q190.7 -74 191.8 -74.15L209.35 -74.15 209.35 -66.45Q209.45 -65.35 210.6 -65.25 211.7 -65.35 211.8 -66.45L211.8 -74.15 229.3 -74.15Q230.4 -74.05 230.5 -72.95L230.5 -66.45Q230.6 -65.35 231.75 -65.25 232.85 -65.35 232.95 -66.45L232.95 -72.95Q232.95 -74.5 231.9 -75.5 230.85 -76.55 229.35 -76.6L211.8 -76.6 211.8 -83.95Q215.5 -84.3 218.5 -86.25 221.45 -88.25 223.2 -91.35 224.95 -94.5 225 -98.3 224.95 -102.35 223.05 -105.6 221.15 -108.85 217.9 -110.75M199.05 -101.55Q199.461 -103.019 200.25 -104.35 201.057 -105.711 202.15 -106.8L204.55 -108.65 207.4 -109.85Q208.919 -110.275 210.6 -110.3 213.95 -110.25 216.65 -108.65 219.35 -107.1 220.95 -104.35 221.526 -103.344 221.85 -102.25L222.55 -98.35 222.55 -98.3Q222.523 -96.499 222.05 -94.9L221.4 -93.25Q221.214 -92.759 220.95 -92.3 219.35 -89.6 216.65 -88 215.984 -87.605 215.25 -87.3L210.8 -86.35Q210.704 -86.351 210.6 -86.35 207.25 -86.35 204.55 -88L202.15 -89.85Q201.05 -90.9 200.25 -92.25 198.65 -94.95 198.65 -98.3L198.65 -98.35 199.05 -101.55M206.2 -102L205.2 -100.55 211.1 -100.55Q211.1 -100.25 211 -99.9 210.25 -97.8 206.9 -97.8 206.25 -97.8 205.7 -97.9L205.7 -96.45 211.5 -89.6 213.8 -89.6 213.8 -89.85 208.8 -95.75Q208.25 -96.6 208.25 -96.7 209.55 -96.7 211 -97.45 211.75 -97.7 212.6 -98.7 213.3 -99.85 213.35 -100.55L215.2 -100.55 216.15 -102 213.3 -102Q213 -102.95 212.55 -103.6L215.2 -103.6Q215.3 -103.7 216.15 -105.05L206.2 -105.05 205.3 -103.7 205.3 -103.6 207.9 -103.6Q208.5 -103.6 209.4 -103.3 210.55 -102.85 210.95 -102.1L210.95 -102 206.2 -102M808.5 -115.5Q806.75 -113.75 806.65 -111.1L806.65 -78.55Q806.75 -75.9 808.5 -74.1 810.25 -72.35 812.9 -72.25L830.45 -72.25 830.45 -61.5Q830.45 -59.35 831.8 -57.65L835.4 -53.05 835.4 -39.75 855.45 -39.75 855.45 -53.2 858.35 -57.95Q859.2 -59.45 859.2 -61.15L859.2 -72.25 878 -72.25Q880.65 -72.35 882.4 -74.1 884.15 -75.9 884.25 -78.55L884.25 -111.1Q884.15 -113.75 882.4 -115.5 880.65 -117.25 878 -117.35L812.9 -117.35Q810.25 -117.25 808.5 -115.5M809.15 -78.55L809.15 -111.1Q809.2 -112.7 810.25 -113.75 811.3 -114.8 812.9 -114.85L816.65 -114.85 816.65 -74.8 812.9 -74.8Q811.3 -74.8 810.25 -75.9 809.2 -76.95 809.15 -78.55M837.8 -100Q838.85 -101.05 840.45 -101.1L858 -101.1Q859.55 -101.05 860.65 -100 861.7 -98.95 861.75 -97.35 861.7 -95.7 860.65 -94.65 859.55 -93.6 858 -93.55L852.7 -93.55Q851.9 -95.6 849.85 -96 848.1 -96.3 846.8 -95.2 846 -94.5 845.7 -93.55L840.45 -93.55Q838.85 -93.6 837.8 -94.65 836.75 -95.7 836.7 -97.35 836.75 -98.95 837.8 -100M840.45 -103.6Q837.8 -103.5 836.05 -101.75 834.25 -100 834.2 -97.35 834.25 -94.65 836.05 -92.9 837.8 -91.15 840.45 -91.1L845.45 -91.1 845.45 -82.25Q844.55 -82.55 843.6 -82.4 841.3 -81.9 840.6 -79.65 839.65 -80.1 838.55 -79.9 837.45 -79.65 836.65 -78.95 835.85 -78.15 835.55 -77.05 834.6 -77.4 833.55 -77.25 831.45 -76.8 830.65 -74.8L819.15 -74.8 819.15 -114.85 871.75 -114.85 871.75 -74.8 859.1 -74.8Q858.6 -77 856.95 -78.35 855.25 -79.75 852.95 -79.8L852.95 -91.1 858 -91.1Q860.65 -91.15 862.4 -92.9 864.15 -94.65 864.25 -97.35 864.15 -100 862.4 -101.75 860.65 -103.5 858 -103.6L840.45 -103.6M879.45 -114.55Q880.112 -114.263 880.65 -113.75 881.7 -112.7 881.75 -111.1L881.75 -78.55Q881.7 -76.95 880.65 -75.9 879.55 -74.8 878 -74.8L874.25 -74.8 874.25 -114.85 878 -114.85Q878.048 -114.848 878.1 -114.85L879.45 -114.55M852.95 -77.3Q854.55 -77.25 855.6 -76.2 856.65 -75.15 856.7 -73.55L856.7 -61.15Q856.7 -60.1 856.2 -59.25L852.95 -53.85 852.95 -42.25 837.95 -42.25 837.95 -53.95 833.75 -59.2Q832.95 -60.25 832.9 -61.5L832.9 -73.4Q833 -74.5 833.95 -74.8 834.55 -74.85 835 -74.5 835.4 -74.15 835.4 -73.55L835.4 -67.3 837.95 -67.3 837.95 -76.05Q838 -77.15 839 -77.45 839.55 -77.5 840 -77.1 840.45 -76.75 840.45 -76.2L840.45 -67.3 842.95 -67.3 842.95 -78.55Q843 -79.65 843.95 -79.95 844.55 -80 845.05 -79.65 845.4 -79.25 845.45 -78.7L845.45 -67.3 847.95 -67.3 847.95 -92.3Q847.95 -92.9 848.4 -93.3 848.8 -93.65 849.45 -93.55 850.35 -93.3 850.45 -92.2L850.45 -67.3 852.95 -67.3 852.95 -77.3M831.7 -86.05L831.7 -88.6 821.7 -88.6 821.7 -86.05 831.7 -86.05M831.7 -81.05L831.7 -83.55 821.7 -83.55 821.7 -81.05 831.7 -81.05M869.2 -88.6L859.2 -88.6 859.2 -86.05 869.2 -86.05 869.2 -88.6M859.2 -83.55L859.2 -81.05 869.2 -81.05 869.2 -83.55 859.2 -83.55M814.1 -99.85L811.65 -99.85 811.65 -89.85 814.1 -89.85 814.1 -99.85Z"/><path fill="#FFCC04" stroke="none" d="M859.55 175.15Q856.9 177.7 856.8 181.7L875.35 181.7Q875.25 177.75 872.55 175.15 870 172.5 866.1 172.45 862.15 172.5 859.55 175.15M838.45 175.15Q835.8 177.7 835.7 181.7L854.15 181.7Q854.1 177.75 851.45 175.15 848.9 172.5 844.9 172.45 841 172.5 838.45 175.15M817.25 175.15Q814.65 177.7 814.6 181.7L833.05 181.7Q832.9 177.75 830.35 175.15 827.75 172.5 823.75 172.45 819.85 172.5 817.25 175.15M846.25 129.35L843.2 129.35 843.2 132.4 846.25 132.4 846.25 129.35M846.25 135.45L843.2 135.45 843.2 138.55 846.25 138.55 846.25 135.45M222.5 127.6L222.5 130.95Q222.65 132.5 224.2 132.65 225.75 132.5 225.9 130.95L225.9 127.6Q225.75 126.05 224.2 125.9 222.65 126.05 222.5 127.6M206.8 168.1Q205.15 168.65 205 169.95L203.9 170.1Q202.7 170.35 202.6 171.6 202.85 172.75 203.85 173.4 203.6 174.75 203.65 174.8 203.75 176.15 205.15 176.25 205.8 176.25 206.8 175.6 207.85 176.2 208.5 176.25 210.05 176.1 210 174.5L209.8 173.4Q210.8 172.75 211.05 171.6 210.95 170.35 209.75 170.1L208.65 169.95 208.15 168.95Q207.75 168.15 206.8 168.1M205.6 172.05L205.65 172.05Q206.75 171.6 206.8 171.3 206.9 171.6 207.95 172.05L208.05 172.05 208 172.1Q207.4 173.15 207.5 173.45 207.25 173.2 206.1 173.45 206.3 173.15 205.65 172.1L205.6 172.05M224.55 171.6Q224.45 170.35 223.25 170.1L222.15 169.95Q221.95 168.65 220.3 168.1 219.4 168.15 219 168.95L218.5 169.95 217.4 170.1Q216.2 170.35 216.1 171.6 216.35 172.75 217.35 173.4 217.1 174.75 217.15 174.8 217.25 176.15 218.65 176.25 219.3 176.25 220.3 175.6 221.35 176.2 222 176.25 223.35 176.15 223.5 174.8 223.55 174.75 223.3 173.4 224.3 172.75 224.55 171.6M219.1 172.05L219.15 172.05Q220.4 171.55 220.3 171.2L220.35 171.25Q221.1 172.15 221.45 172.1 221.15 172.25 221.05 173.45L221.05 173.5Q220.9 173.15 219.6 173.45L219.55 173.5Q219.450 172.056 219.1 172.05M230.85 170.1Q228.8 170.85 230 172.65L230.8 173.4Q230.55 174.75 230.6 174.8 230.95 176.65 232.8 176.1L233.75 175.6Q234.8 176.2 235.45 176.25 237 176.1 236.95 174.5L236.75 173.4Q237.75 172.75 238 171.6 237.9 170.35 236.7 170.1L235.6 169.95Q235.4 168.65 233.75 168.1 232.1 168.65 231.95 169.95L230.85 170.1M232.55 172.05L232.6 172.05Q233.7 171.6 233.75 171.3 233.85 171.6 234.9 172.05L235 172.05Q234.7 172.1 234.5 173.2 234.5 173.4 234.5 173.5L234.45 173.45Q233.25 173.2 233 173.5 233.05 173.4 233.05 173.2 232.8 172.1 232.55 172.05M184.1 171.6Q184 170.35 182.8 170.1L181.7 169.95Q181.5 168.65 179.85 168.1 178.2 168.65 178.05 169.95L176.95 170.1Q174.9 170.85 176.1 172.65L176.9 173.4Q176.65 174.75 176.7 174.8 177.05 176.65 178.9 176.1L179.85 175.6Q180.9 176.2 181.55 176.25 182.9 176.15 183.05 174.8 183.05 174.65 183.05 174.5L182.85 173.4Q183.85 172.75 184.1 171.6M178.7 172.1L178.65 172.05Q179 172.25 179.85 171.25 179.9 171.6 181 172.05L181.1 172.05 181.05 172.1Q180.354 173.242 180.6 173.5L180.55 173.45Q179.4 173.2 179.15 173.45 179.35 173.15 178.7 172.1M191.55 169.95L190.45 170.1Q188.4 170.85 189.6 172.65L190.4 173.4Q190.15 174.75 190.2 174.8 190.55 176.65 192.4 176.1L193.35 175.6 194.35 176.1Q196.4 176.65 196.55 174.5L196.35 173.4Q197.35 172.75 197.6 171.6 197.5 170.35 196.3 170.1L195.2 169.95Q195 168.65 193.35 168.1 191.7 168.65 191.55 169.95M194.5 172.05L194.6 172.05 194.55 172.1Q193.854 173.242 194.1 173.5L194.05 173.45Q192.85 173.2 192.6 173.5 192.65 173.4 192.65 173.2 192.45 172.25 192.2 172.1 192.55 172.15 193.35 171.25 193.4 171.6 194.5 172.05M189.65 125.9Q188.1 126.05 187.95 127.6L187.95 130.95Q188.1 132.5 189.65 132.65 191.2 132.5 191.35 130.95L191.35 127.6Q191.2 126.05 189.65 125.9M538.8 151.35L528.7 151.35 528.7 176.5 538.8 176.5 538.8 151.35M497.85 157.45L487.8 157.45 487.8 176.5 497.85 176.5 497.85 157.45M518.35 149.2L508.3 149.2 508.3 176.5 518.35 176.5 518.35 149.2M559.3 137.3L549.2 137.3 549.2 176.5 559.3 176.5 559.3 137.3M504.9 -76.85Q503.75 -76.85 503 -76.1 502.25 -75.35 502.2 -74.2L502.2 -62.75 502.25 -62.75Q503.473 -63.45 504.9 -63.45L521 -63.45Q522.2 -63.5 522.9 -64.2 523.65 -64.95 523.7 -66.15 521.4 -66.2 519.9 -67.65 518.35 -69.2 518.35 -71.5L518.35 -76.85 504.9 -76.85M507.6 -68.8L507.6 -71.45 510.3 -71.45 510.3 -68.8 507.6 -68.8M512.95 -68.8L512.95 -71.45 515.65 -71.45 515.65 -68.8 512.95 -68.8M542.55 -79.5Q542.5 -80.7 541.75 -81.45 541 -82.2 539.85 -82.3L523.7 -82.3Q522.6 -82.25 521.8 -81.45 521.05 -80.7 521 -79.5L521 -71.5Q521.05 -70.4 521.8 -69.6 522.6 -68.8 523.7 -68.8L539.85 -68.8Q541.3 -68.8 542.55 -68.1L542.55 -79.5M529.05 -76.85L531.75 -76.85 531.75 -74.15 529.05 -74.15 529.05 -76.85M534.5 -76.85L537.15 -76.85 537.15 -74.15 534.5 -74.15 534.5 -76.85M541.95 -120.4Q541.2 -119.6 541.2 -118.5L541.2 -105.1Q541.2 -103.95 541.95 -103.15 542.75 -102.4 543.9 -102.4L557.25 -102.4Q558.45 -102.4 559.2 -103.15 559.95 -103.95 560 -105.1L560 -118.5Q560 -119.6 559.2 -120.4 558.45 -121.2 557.25 -121.2L543.9 -121.2Q542.75 -121.2 541.95 -120.4M544.4 -116.05L544.4 -118.75 547.1 -118.75 547.1 -116.05 544.4 -116.05M544.4 -105.35L544.4 -114.7 547.1 -114.7 547.1 -105.35 544.4 -105.35M548.4 -114.75L551.1 -114.75 551.1 -114.3Q552.05 -114.75 553.15 -114.75 555.15 -114.7 556.4 -113.35 557.8 -112 557.8 -110L557.8 -105.35 555.15 -105.35 555.15 -110.05Q555.15 -110.9 554.6 -111.5 553.95 -112.05 553.15 -112.05 552.3 -112.05 551.7 -111.5 551.15 -110.9 551.1 -110.05L551.1 -105.35 548.4 -105.35 548.4 -114.75M513.7 -123.1Q513 -122.3 512.95 -121.2L512.95 -107.75Q513 -106.65 513.7 -105.85 514.55 -105.1 515.65 -105.1L529.1 -105.1Q530.25 -105.1 531 -105.85 531.75 -106.65 531.8 -107.75L531.8 -121.2Q531.75 -122.3 531 -123.1 530.25 -123.85 529.1 -123.85L515.65 -123.85Q514.55 -123.85 513.7 -123.1M519 -120.8Q519.7 -121.15 520.35 -120.75L528.4 -115.3Q529.05 -114.9 529 -114.25 529.05 -113.5 528.4 -113.05L520.35 -107.7Q519.7 -107.3 519 -107.65 518.3 -108.05 518.25 -108.85L518.25 -119.55Q518.3 -120.35 519 -120.8M525.3 -114.25L520.95 -117.1 520.95 -111.35 525.3 -114.25M484.75 -103.7Q484.8 -102.6 485.5 -101.85 486.35 -101.05 487.45 -101.05L494.2 -101.05 494.2 -109.15 491.5 -109.15 491.5 -111.8 494.2 -111.8Q494.2 -114.1 495.75 -115.55 497.25 -117.1 499.55 -117.15L500.85 -117.15 500.85 -114.5 499.55 -114.5Q498.4 -114.45 497.6 -113.75 496.85 -112.95 496.85 -111.8L500.85 -111.8 500.85 -109.15 496.85 -109.15 496.85 -101.05 500.85 -101.05Q502 -101.05 502.8 -101.85 503.55 -102.6 503.6 -103.7L503.6 -117.15Q503.55 -118.3 502.8 -119.05 502 -119.8 500.85 -119.8L487.45 -119.8Q486.35 -119.8 485.5 -119.05 484.8 -118.3 484.75 -117.15L484.75 -103.7M202.15 -106.8Q201.1 -105.7 200.3 -104.35 199.5 -103.025 199.05 -101.55L198.65 -98.35 198.65 -98.3Q198.711 -94.979 200.3 -92.3 201.079 -90.941 202.15 -89.85L204.55 -88Q207.25 -86.35 210.6 -86.35 210.704 -86.351 210.8 -86.35L215.25 -87.3Q215.984 -87.605 216.65 -88 219.35 -89.6 220.95 -92.3 221.214 -92.759 221.4 -93.25L222.05 -94.9Q222.523 -96.499 222.55 -98.3L222.55 -98.35 221.85 -102.25Q221.526 -103.344 220.95 -104.35 219.35 -107.1 216.65 -108.65 213.95 -110.25 210.6 -110.3 208.919 -110.275 207.4 -109.85L204.55 -108.65 202.15 -106.8M205.2 -100.55L206.2 -102 210.95 -102 210.95 -102.1Q210.55 -102.85 209.4 -103.3 208.5 -103.6 207.9 -103.6L205.3 -103.6 205.3 -103.7 206.2 -105.05 216.15 -105.05Q215.3 -103.7 215.2 -103.6L212.55 -103.6Q213 -102.95 213.3 -102L216.15 -102 215.2 -100.55 213.35 -100.55Q213.3 -99.85 212.6 -98.7 211.75 -97.7 211 -97.45 209.55 -96.7 208.25 -96.7 208.25 -96.6 208.8 -95.75L213.8 -89.85 213.8 -89.6 211.5 -89.6 205.7 -96.45 205.7 -97.9Q206.25 -97.8 206.9 -97.8 210.25 -97.8 211 -99.9 211.1 -100.25 211.1 -100.55L205.2 -100.55Z"/><path fill="#F8C90B" stroke="none" d="M511.05 99.05L511.05 109.15Q509.9 110 509.85 111.55 510.1 114.2 512.75 114.45 513.4 114.45 514 114.2L519.8 117.55Q520.2 117.75 520.65 117.75 521.6 117.75 522.1 116.95 522.75 115.55 521.5 114.65L515.7 111.3Q515.55 109.95 514.45 109.2L514.45 99.05Q514.25 97.55 512.75 97.4 511.2 97.55 511.05 99.05M513.95 111.55Q513.85 112.65 512.75 112.8 511.6 112.65 511.5 111.55 511.6 110.4 512.75 110.3 513.85 110.45 513.95 111.55Z"/><path fill="#FFCB05" stroke="none" d="M546.05 128.15L531.85 139.45 513.55 131.85Q512.8 131.6 512.2 132.05L492.6 146.05Q491.6 146.9 492.25 148 492.7 148.6 493.35 148.6 493.75 148.6 494.15 148.35L513.2 134.75 531.6 142.35Q532.35 142.6 533 142.2L547.8 130.45Q548.25 130.1 548.3 129.5 548.4 128.95 548.05 128.45 547.7 127.95 547.1 127.9 546.55 127.85 546.05 128.15Z"/><path fill="#333" stroke="none" d="M512.95 -71.45L512.95 -68.8 515.65 -68.8 515.65 -71.45 512.95 -71.45M507.6 -71.45L507.6 -68.8 510.3 -68.8 510.3 -71.45 507.6 -71.45M537.15 -76.85L534.5 -76.85 534.5 -74.15 537.15 -74.15 537.15 -76.85M531.75 -76.85L529.05 -76.85 529.05 -74.15 531.75 -74.15 531.75 -76.85Z"/><path fill="#FFF" stroke="none" d="M534.9 -66.1L531.6 -66.1Q530.275 -65 527.7 -65L526.85 -65 526.85 -64.95Q531.95 -58.85 534.55 -55.85L537 -55.85 537 -55.95 530.45 -63.75Q530.5 -63.75 530.55 -63.8 531.4 -63.8 533.55 -64.95 534.365 -65.515 534.9 -66.1Z"/><path fill="#F4CC00" stroke="none" d="M190.75 -59Q190.05 -59.7 188.95 -59.75 187.85 -59.75 187.15 -59 186.4 -58.3 186.4 -57.2 186.4 -56.1 187.15 -55.4 187.85 -54.65 188.95 -54.65 190.05 -54.65 190.75 -55.4 191.45 -56.1 191.5 -57.2 191.45 -58.3 190.75 -59M230.45 -55.4Q231.15 -54.65 232.25 -54.65 233.35 -54.65 234.05 -55.4 234.75 -56.1 234.8 -57.2 234.75 -58.3 234.05 -59 233.35 -59.7 232.25 -59.75 231.15 -59.75 230.45 -59 229.7 -58.3 229.7 -57.2 229.7 -56.1 230.45 -55.4M210.6 -59.75Q209.5 -59.75 208.8 -59 208.05 -58.3 208.05 -57.2 208.05 -56.1 208.8 -55.4 209.5 -54.65 210.6 -54.65 211.7 -54.65 212.4 -55.4 213.1 -56.1 213.15 -57.2 213.1 -58.3 212.4 -59 211.7 -59.7 210.6 -59.75Z"/><path fill="#F9CE00" stroke="none" d="M880.6 -113.75Q880.091 -114.258 879.45 -114.55L878.1 -114.85Q878.048 -114.848 878 -114.85L874.25 -114.85 874.25 -74.8 878 -74.8Q879.55 -74.85 880.6 -75.9 881.7 -76.95 881.7 -78.55L881.7 -111.1Q881.7 -112.7 880.6 -113.75M809.15 -111.1L809.15 -78.55Q809.2 -76.95 810.25 -75.9 811.3 -74.8 812.9 -74.8L816.65 -74.8 816.65 -114.85 812.9 -114.85Q811.3 -114.8 810.25 -113.75 809.2 -112.7 809.15 -111.1M811.65 -99.85L814.1 -99.85 814.1 -89.85 811.65 -89.85 811.65 -99.85Z"/></g><animate attributeName="display" fill="freeze" repeatCount="1" dur="1.034s" keyTimes="0;.3;1" values="none;inline;inline"/></g></svg>