<?xml version="1.0" encoding="utf-8"?><svg id="16-BEENXT-BestInClassMFServicingPlatformForYou" image-rendering="auto" baseProfile="basic" version="1.1" x="0px" y="0px" width="1180" height="560" xmlns="http://www.w3.org/2000/svg" xmlns:xlink="http://www.w3.org/1999/xlink"><g id="Scene-1r1" overflow="visible"><g id="Symbol-27" transform="translate(-152 80)"><animateTransform attributeName="transform" additive="replace" type="translate" dur="0.31s" keyTimes="0;.89;1" values="-152,80;-82,80;-82,80" keySplines=".25 .5 .5 1;.1 .1 .9 .9" calcMode="spline" fill="freeze"/><image overflow="visible" xlink:href="img/Bitmap_1_1.png" height="440" width="832"/></g><g id="Symbol-26" transform="translate(705.3 139.8)"><animateTransform attributeName="transform" additive="replace" type="translate" dur="0.31s" keyTimes="0;.89;1" values="705.3,139.8;655.3,139.8;655.3,139.8" fill="freeze"/><path fill="#404041" stroke="none" d="M167.9 308.45Q167.95 308.15 167.95 307.9 167.65 303.25 163.25 303 158.8 303.3 158.45 307.85 158.7 312.45 163.6 312.75 166 312.7 167.35 311.2L166.4 310.1Q165.3 311.25 163.65 311.25 160.65 311.1 160.2 308.45L167.9 308.45M163.25 304.45Q165.9 304.6 166.3 307.2L160.2 307.2Q160.6 304.6 163.25 304.45M175.5 304.65L175.5 303Q172.95 303 172 304.7L172 303.1 170.35 303.1 170.35 312.65 172.1 312.65 172.1 307.9Q172.2 304.7 175.1 304.65 175.25 304.65 175.5 304.65M186.4 303.1L184.75 303.1 181.4 310.75 178.1 303.1 176.3 303.1 180.5 312.65 182.25 312.65 186.4 303.1M189.8 303.1L188.05 303.1 188.05 312.65 189.8 312.65 189.8 303.1M188.9 301.25Q190 301.15 190.1 300.1 190 299.1 188.9 299 187.85 299.1 187.75 300.15 187.85 301.15 188.9 301.25M193.95 307.85Q194.2 304.65 197.2 304.5 198.85 304.5 199.8 305.9L201.15 305.05Q199.9 303 197.25 303 192.5 303.3 192.2 307.85 192.5 312.45 197.25 312.75 199.9 312.7 201.15 310.7L199.8 309.85Q198.85 311.25 197.2 311.25 194.2 311.1 193.95 307.85M205.4 300.1Q205.3 299.1 204.2 299 203.15 299.1 203.05 300.15 203.15 301.15 204.2 301.25 205.3 301.15 205.4 300.1M205.1 303.1L203.35 303.1 203.35 312.65 205.1 312.65 205.1 303.1M213.1 304.55Q215.6 304.55 215.7 307.35L215.7 312.65 217.4 312.65 217.4 307.15Q217.15 302.95 213.45 303 211.1 303.05 210 304.55L210 303.1 208.35 303.1 208.35 312.65 210.1 312.65 210.1 307.7Q210.2 304.6 213.1 304.55M229.8 303.1L228.15 303.1 228.15 304.55Q226.85 303 224.65 303 220.15 303.25 219.8 307.6 220.15 312 224.65 312.25 226.75 312.25 228.1 310.75L228.1 311.5Q228.15 314.75 224.8 314.7 222.55 314.65 221.15 313.5L220.3 314.8Q222.05 316.2 224.85 316.25 229.75 316.3 229.8 311.35L229.8 303.1M224.85 304.5Q227.9 304.65 228.1 307.6 227.9 310.55 224.85 310.7 221.75 310.55 221.55 307.6 221.75 304.65 224.85 304.5M215.7 267.1L214.05 267.1 214.05 280.15 215.8 280.15 215.8 275.2Q217.05 276.75 219.1 276.75 223.6 276.5 223.95 271.85 223.6 267.25 219.1 267 216.95 267 215.7 268.6L215.7 267.1M218.95 268.5Q221.95 268.7 222.2 271.85 221.95 275.05 218.95 275.25 216 275.05 215.75 271.85 216 268.7 218.95 268.5M230.3 267.05Q225.75 267.25 225.45 271.9 225.75 276.5 230.3 276.75 232.45 276.75 233.7 275.15L233.7 276.65 235.35 276.65 235.35 263.3 233.6 263.3 233.6 268.55Q232.35 267 230.3 267.05M227.2 271.9Q227.45 268.7 230.4 268.55 233.4 268.7 233.65 271.9 233.4 275.1 230.4 275.25 227.45 275.1 227.2 271.9M201.8 267.1L201.8 272.6Q202 276.8 205.9 276.75 208 276.7 209.15 275.2L209.15 276.65 210.8 276.65 210.8 267.1 209.05 267.1 209.05 272.05Q208.95 275.15 206.1 275.2 203.6 275.2 203.55 272.4L203.55 267.1 201.8 267.1M176.4 267.1L174.65 267.1 174.65 276.65 176.4 276.65 176.4 267.1M176.7 264.1Q176.6 263.1 175.5 263 174.45 263.1 174.35 264.15 174.45 265.15 175.5 265.25 176.6 265.15 176.7 264.1M164.75 267.1L162.95 267.1 167.15 276.65 168.9 276.65 173.05 267.1 171.4 267.1 168.05 274.75 164.75 267.1M184.45 268.5L184.45 267.1 181.7 267.1 181.7 265 179.95 265 179.95 267.1 178.35 267.1 178.35 268.5 179.95 268.5 179.95 273.75Q180.05 276.7 183 276.75 184.2 276.75 185.1 276.05L184.55 274.85Q184 275.25 183.2 275.3 181.75 275.25 181.7 273.7L181.7 268.5 184.45 268.5M187.1 267.1L185.3 267.1 189.5 276.65 189.2 277.3Q188.6 278.85 187.4 278.75 186.4 278.75 185.7 278.05L184.95 279.35Q185.95 280.25 187.4 280.25 189.55 280.45 190.8 277.6L195.45 267.1 193.75 267.1 190.45 274.75 187.1 267.1M197.35 245.85Q197.05 241.3 192.4 241 187.8 241.3 187.45 245.85 187.8 250.45 192.4 250.75 197.05 250.45 197.35 245.85M192.4 242.5Q195.4 242.65 195.65 245.85 195.4 249.05 192.4 249.25 189.45 249.05 189.2 245.85 189.45 242.65 192.4 242.5M180.8 241.1L180.8 242.55 182.4 242.55 182.4 250.65 184.15 250.65 184.15 242.55 186.9 242.55 186.9 241.1 184.1 241.1 184.1 240.3Q184.1 238.65 185.65 238.6 186.45 238.65 187 239.05L187.5 237.75Q186.75 237.2 185.55 237.2 182.5 237.35 182.4 240.3L182.4 241.1 180.8 241.1M176.7 241.1L176.7 239 174.95 239 174.95 241.1 173.35 241.1 173.35 242.5 174.95 242.5 174.95 247.75Q175.05 250.7 178 250.75 179.2 250.75 180.1 250.05L179.55 248.85Q178.95 249.25 178.2 249.3 176.75 249.25 176.7 247.7L176.7 242.5 179.45 242.5 179.45 241.1 176.7 241.1M167.4 241Q165.05 241 163.45 242.2L164.2 243.5Q165.4 242.55 167.2 242.5 169.8 242.55 169.75 244.8L169.75 245.15 167.05 245.15Q163 245.4 163.2 247.95 163.35 250.6 166.75 250.75 169 250.7 169.85 249.35L169.85 250.65 171.5 250.65 171.5 244.85Q171.4 241 167.4 241M167.1 246.4L169.75 246.4 169.75 247.7Q169.05 249.4 167 249.4 165 249.35 164.9 247.85 164.75 246.5 167.1 246.4M174.35 206.55Q176.75 206.55 176.8 209.35L176.8 214.65 178.55 214.65 178.55 209.15Q178.35 204.95 174.65 205 172.15 205.1 170.95 206.75 169.95 205 167.65 205 165.45 205.05 164.35 206.5L164.35 205.1 162.7 205.1 162.7 214.65 164.45 214.65 164.45 209.7Q164.55 206.6 167.3 206.55 169.7 206.55 169.75 209.35L169.75 214.65 171.5 214.65 171.5 209.7Q171.6 206.6 174.35 206.55M191.6 209.85Q191.25 205.25 186.75 205 184.6 205 183.35 206.6L183.35 205.1 181.7 205.1 181.7 218.15 183.45 218.15 183.45 213.2Q184.7 214.75 186.75 214.75 191.25 214.5 191.6 209.85M186.6 206.5Q189.6 206.7 189.85 209.85 189.6 213.05 186.6 213.25 183.65 213.05 183.4 209.85 183.65 206.7 186.6 206.5M195.75 201.3L194 201.3 194 214.65 195.75 214.65 195.75 201.3M208.8 245.7Q208.9 242.6 211.65 242.55 214.05 242.55 214.1 245.35L214.1 250.65 215.85 250.65 215.85 245.7Q215.95 242.6 218.7 242.55 221.1 242.55 221.15 245.35L221.15 250.65 222.9 250.65 222.9 245.15Q222.7 240.95 219 241 216.5 241.1 215.3 242.75 214.3 241 212 241 209.8 241.05 208.7 242.5L208.7 241.1 207.05 241.1 207.05 250.65 208.8 250.65 208.8 245.7M204.95 242.65L204.95 241Q202.4 241 201.45 242.7L201.45 241.1 199.8 241.1 199.8 250.65 201.55 250.65 201.55 245.9Q201.65 242.7 204.55 242.65 204.7 242.65 204.95 242.65M208.05 209.85Q207.75 205.3 203.1 205 198.5 205.3 198.15 209.85 198.5 214.45 203.1 214.75 207.75 214.45 208.05 209.85M203.1 206.5Q206.1 206.65 206.3 209.85 206.1 213.05 203.1 213.25 200.15 213.05 199.9 209.85 200.15 206.65 203.1 206.5M218.65 205.1L216.95 205.1 213.65 212.75 210.3 205.1 208.5 205.1 212.7 214.65 212.4 215.3Q211.8 216.85 210.6 216.75 209.6 216.75 208.9 216.05L208.15 217.35Q209.15 218.25 210.6 218.25 212.75 218.45 214 215.6L218.65 205.1M228.6 209.9Q228.3 205.25 223.9 205 219.45 205.3 219.1 209.85 219.35 214.45 224.25 214.75 226.65 214.7 228 213.2L227.05 212.1Q225.95 213.25 224.3 213.25 221.3 213.1 220.85 210.45L228.55 210.45Q228.6 210.15 228.6 209.9M223.9 206.45Q226.55 206.6 226.95 209.2L220.85 209.2Q221.25 206.6 223.9 206.45M239.6 209.9Q239.3 205.25 234.9 205 230.45 205.3 230.1 209.85 230.35 214.45 235.25 214.75 237.65 214.7 239 213.2L238.05 212.1Q236.95 213.25 235.3 213.25 232.3 213.1 231.85 210.45L239.55 210.45Q239.6 210.15 239.6 209.9M234.9 206.45Q237.55 206.6 237.95 209.2L231.85 209.2Q232.25 206.6 234.9 206.45M260.4 267Q255.95 267.3 255.6 271.85 255.85 276.45 260.75 276.75 263.15 276.7 264.5 275.2L263.55 274.1Q262.45 275.25 260.8 275.25 257.8 275.1 257.35 272.45L265.05 272.45Q265.1 272.15 265.1 271.9 264.8 267.25 260.4 267M257.35 271.2Q257.75 268.6 260.4 268.45 263.05 268.6 263.45 271.2L257.35 271.2M244.4 270.8L244.4 271.15 241.7 271.15Q237.65 271.4 237.85 273.95 238 276.6 241.4 276.75 243.65 276.7 244.5 275.35L244.5 276.65 246.15 276.65 246.15 270.85Q246.05 267 242.05 267 239.7 267 238.1 268.2L238.85 269.5Q240.05 268.55 241.85 268.5 244.45 268.55 244.4 270.8M244.4 272.4L244.4 273.7Q243.7 275.4 241.65 275.4 239.65 275.35 239.55 273.85 239.4 272.5 241.75 272.4L244.4 272.4M248 268.5L249.6 268.5 249.6 273.75Q249.7 276.7 252.65 276.75 253.85 276.75 254.75 276.05L254.2 274.85Q253.6 275.25 252.85 275.3 251.4 275.25 251.35 273.7L251.35 268.5 254.1 268.5 254.1 267.1 251.35 267.1 251.35 265 249.6 265 249.6 267.1 248 267.1 248 268.5M280.85 241Q276.1 241.3 275.8 245.85 276.1 250.45 280.85 250.75 283.5 250.7 284.75 248.7L283.4 247.85Q282.45 249.25 280.8 249.25 277.8 249.1 277.55 245.85 277.8 242.65 280.8 242.5 282.45 242.5 283.4 243.9L284.75 243.05Q283.5 241 280.85 241M261.3 242.45L261.3 237.3 259.55 237.3 259.55 250.65 261.3 250.65 261.3 245.75Q261.4 242.6 264.3 242.6 266.8 242.55 266.9 245.35L266.9 250.65 268.6 250.65 268.6 245.15Q268.35 241 264.65 241.05 262.4 241.05 261.3 242.45M248.85 241.1L247.1 241.1 247.1 250.65 248.85 250.65 248.85 241.1M245.35 241.1L243.8 241.1 241 248.75 238.15 241.1 236.7 241.1 233.8 248.7 231.05 241.1 229.4 241.1 232.95 250.65 234.6 250.65 237.4 243.4 240.15 250.65 241.8 250.65 245.35 241.1M247.95 237Q246.9 237.1 246.8 238.15 246.9 239.15 247.95 239.25 249.05 239.15 249.15 238.1 249.05 237.1 247.95 237M252.35 241.1L250.75 241.1 250.75 242.5 252.35 242.5 252.35 247.75Q252.45 250.7 255.4 250.75 256.6 250.75 257.5 250.05L256.95 248.85Q256.35 249.25 255.6 249.3 254.15 249.25 254.1 247.7L254.1 242.5 256.85 242.5 256.85 241.1 254.1 241.1 254.1 239 252.35 239 252.35 241.1M250.3 205Q247.95 205 246.35 206.2L247.1 207.5Q248.3 206.55 250.1 206.5 252.7 206.55 252.65 208.8L252.65 209.15 249.95 209.15Q245.9 209.4 246.1 211.95 246.25 214.6 249.65 214.75 251.9 214.7 252.75 213.35L252.75 214.65 254.4 214.65 254.4 208.85Q254.3 205 250.3 205M249.9 213.4Q247.9 213.35 247.8 211.85 247.65 210.5 250 210.4L252.65 210.4 252.65 211.7Q251.95 213.4 249.9 213.4M264.35 207.9L265.7 207.05Q264.45 205 261.8 205 257.05 205.3 256.75 209.85 257.05 214.45 261.8 214.75 264.45 214.7 265.7 212.7L264.35 211.85Q263.4 213.25 261.75 213.25 258.75 213.1 258.5 209.85 258.75 206.65 261.75 206.5 263.4 206.5 264.35 207.9M274.5 207.9L275.85 207.05Q274.6 205 271.95 205 267.2 205.3 266.9 209.85 267.2 214.45 271.95 214.75 274.6 214.7 275.85 212.7L274.5 211.85Q273.55 213.25 271.9 213.25 268.9 213.1 268.65 209.85 268.9 206.65 271.9 206.5 273.55 206.5 274.5 207.9M319.35 241Q314.75 241.3 314.4 245.85 314.75 250.45 319.35 250.75 324 250.45 324.3 245.85 324 241.3 319.35 241M319.35 242.5Q322.35 242.65 322.6 245.85 322.35 249.05 319.35 249.25 316.4 249.05 316.15 245.85 316.4 242.65 319.35 242.5M310.1 241.1L310.1 239 308.35 239 308.35 241.1 306.75 241.1 306.75 242.5 308.35 242.5 308.35 247.75Q308.45 250.7 311.4 250.75 312.6 250.75 313.5 250.05L312.95 248.85Q312.35 249.25 311.6 249.3 310.15 249.25 310.1 247.7L310.1 242.5 312.85 242.5 312.85 241.1 310.1 241.1M299.9 243.8Q299.9 242.55 302.15 242.5 303.6 242.45 304.9 243.25L305.65 241.85Q304.25 241.05 302.2 241 298.35 241.15 298.2 243.85 298.6 246.4 301.2 246.55 303.85 246.65 304.25 247.95 304.3 249.2 301.95 249.25 300 249.2 298.6 248.25L297.9 249.6Q299.3 250.65 301.85 250.75 305.8 250.65 305.95 247.9 305.6 245.45 302.95 245.3 300.3 245.2 299.9 243.8M286.85 241.1L286.85 246.6Q287.05 250.8 290.95 250.75 293.05 250.7 294.2 249.2L294.2 250.65 295.85 250.65 295.85 241.1 294.1 241.1 294.1 246.05Q294 249.15 291.15 249.2 288.65 249.2 288.6 246.4L288.6 241.1 286.85 241.1M285.95 213.2L285 212.1Q283.9 213.25 282.25 213.25 279.25 213.1 278.8 210.45L286.5 210.45Q286.55 210.15 286.55 209.9 286.25 205.25 281.85 205 277.4 205.3 277.05 209.85 277.3 214.45 282.2 214.75 284.6 214.7 285.95 213.2M278.8 209.2Q279.2 206.6 281.85 206.45 284.5 206.6 284.9 209.2L278.8 209.2M294.75 207.25L295.5 205.85Q294.1 205.05 292.05 205 288.2 205.15 288.05 207.85 288.45 210.4 291.05 210.55 293.7 210.65 294.1 211.95 294.15 213.2 291.8 213.25 289.85 213.2 288.45 212.25L287.75 213.6Q289.15 214.65 291.7 214.75 295.65 214.65 295.8 211.9 295.45 209.45 292.8 209.3 290.15 209.2 289.75 207.8 289.75 206.55 292 206.5 293.45 206.45 294.75 207.25M303.75 207.25L304.5 205.85Q303.1 205.05 301.05 205 297.2 205.15 297.05 207.85 297.45 210.4 300.05 210.55 302.7 210.65 303.1 211.95 303.15 213.2 300.8 213.25 298.85 213.2 297.45 212.25L296.75 213.6Q298.15 214.65 300.7 214.75 304.65 214.65 304.8 211.9 304.45 209.45 301.8 209.3 299.15 209.2 298.75 207.8 298.75 206.55 301 206.5 302.45 206.45 303.75 207.25M315.05 206.5Q317.65 206.55 317.6 208.8L317.6 209.15 314.9 209.15Q310.85 209.4 311.05 211.95 311.2 214.6 314.6 214.75 316.85 214.7 317.7 213.35L317.7 214.65 319.35 214.65 319.35 208.85Q319.25 205 315.25 205 312.9 205 311.3 206.2L312.05 207.5Q313.25 206.55 315.05 206.5M314.95 210.4L317.6 210.4 317.6 211.7Q316.9 213.4 314.85 213.4 312.85 213.35 312.75 211.85 312.6 210.5 314.95 210.4M91.2 304.5L91.2 303.1 88.45 303.1 88.45 301 86.7 301 86.7 303.1 85.1 303.1 85.1 304.5 86.7 304.5 86.7 309.75Q86.8 312.7 89.75 312.75 90.95 312.75 91.85 312.05L91.3 310.85Q90.7 311.25 89.95 311.3 88.5 311.25 88.45 309.7L88.45 304.5 91.2 304.5M97.65 303Q93.05 303.3 92.7 307.85 93.05 312.45 97.65 312.75 102.3 312.45 102.6 307.85 102.3 303.3 97.65 303M97.65 304.5Q100.65 304.65 100.9 307.85 100.65 311.05 97.65 311.25 94.7 311.05 94.45 307.85 94.7 304.65 97.65 304.5M118.5 307.9Q118.2 303.25 113.8 303 109.35 303.3 109 307.85 109.25 312.45 114.15 312.75 116.55 312.7 117.9 311.2L116.95 310.1Q115.85 311.25 114.2 311.25 111.2 311.1 110.75 308.45L118.45 308.45Q118.5 308.15 118.5 307.9M113.8 304.45Q116.45 304.6 116.85 307.2L110.75 307.2Q111.15 304.6 113.8 304.45M125.6 304.55Q128.1 304.55 128.2 307.35L128.2 312.65 129.9 312.65 129.9 307.15Q129.65 302.95 125.95 303 123.6 303.05 122.5 304.55L122.5 303.1 120.85 303.1 120.85 312.65 122.6 312.65 122.6 307.7Q122.7 304.6 125.6 304.55M142.2 312.65L142.2 299.3 140.45 299.3 140.45 304.55Q139.2 303 137.15 303.05 132.6 303.25 132.3 307.9 132.6 312.5 137.15 312.75 139.3 312.75 140.55 311.15L140.55 312.65 142.2 312.65M137.25 304.55Q140.25 304.7 140.45 307.9 140.25 311.1 137.25 311.25 134.3 311.1 134.05 307.9 134.3 304.7 137.25 304.55M153.35 304.5Q154.8 304.45 156.1 305.25L156.85 303.85Q155.45 303.05 153.4 303 149.55 303.15 149.4 305.85 149.8 308.4 152.4 308.55 155.05 308.65 155.45 309.95 155.5 311.2 153.15 311.25 151.2 311.2 149.8 310.25L149.1 311.6Q150.5 312.65 153.05 312.75 157 312.65 157.15 309.9 156.8 307.45 154.15 307.3 151.5 307.2 151.1 305.8 151.1 304.55 153.35 304.5M54.1 301.6L54.1 300.05 45.2 300.05 45.2 312.65 54.35 312.65 54.35 311.1 47 311.1 47 307 53.3 307 53.3 305.5 47 305.5 47 301.6 54.1 301.6M61.8 304.55Q64.3 304.55 64.4 307.35L64.4 312.65 66.1 312.65 66.1 307.15Q65.85 302.95 62.15 303 59.8 303.05 58.7 304.55L58.7 303.1 57.05 303.1 57.05 312.65 58.8 312.65 58.8 307.7Q58.9 304.6 61.8 304.55M78.35 299.3L76.6 299.3 76.6 304.55Q75.35 303 73.3 303.05 68.75 303.25 68.45 307.9 68.75 312.5 73.3 312.75 75.45 312.75 76.7 311.15L76.7 312.65 78.35 312.65 78.35 299.3M73.4 304.55Q76.4 304.7 76.65 307.9 76.4 311.1 73.4 311.25 70.45 311.1 70.2 307.9 70.45 304.7 73.4 304.55M56.05 267Q51.6 267.3 51.25 271.85 51.5 276.45 56.4 276.75 58.8 276.7 60.15 275.2L59.2 274.1Q58.1 275.25 56.45 275.25 53.45 275.1 53 272.45L60.7 272.45Q60.75 272.15 60.75 271.9 60.45 267.25 56.05 267M53 271.2Q53.4 268.6 56.05 268.45 58.7 268.6 59.1 271.2L53 271.2M46.7 271.9Q46.8 268.7 49.7 268.65 49.85 268.65 50.1 268.65L50.1 267Q47.55 267 46.6 268.7L46.6 267.1 44.95 267.1 44.95 276.65 46.7 276.65 46.7 271.9M75.4 263.3L73.65 263.3 73.65 276.65 75.4 276.65 75.4 263.3M66.35 267Q64 267 62.4 268.2L63.15 269.5Q64.35 268.55 66.15 268.5 68.75 268.55 68.7 270.8L68.7 271.15 66 271.15Q61.95 271.4 62.15 273.95 62.3 276.6 65.7 276.75 67.95 276.7 68.8 275.35L68.8 276.65 70.45 276.65 70.45 270.85Q70.35 267 66.35 267M68.7 273.7Q68 275.4 65.95 275.4 63.95 275.35 63.85 273.85 63.7 272.5 66.05 272.4L68.7 272.4 68.7 273.7M78.55 245.9Q78.25 241.25 73.85 241 69.4 241.3 69.05 245.85 69.3 250.45 74.2 250.75 76.6 250.7 77.95 249.2L77 248.1Q75.9 249.25 74.25 249.25 71.25 249.1 70.8 246.45L78.5 246.45Q78.55 246.15 78.55 245.9M73.85 242.45Q76.5 242.6 76.9 245.2L70.8 245.2Q71.2 242.6 73.85 242.45M63.05 239L63.05 241.1 61.45 241.1 61.45 242.5 63.05 242.5 63.05 247.75Q63.15 250.7 66.1 250.75 67.3 250.75 68.2 250.05L67.65 248.85Q67.05 249.25 66.3 249.3 64.85 249.25 64.8 247.7L64.8 242.5 67.55 242.5 67.55 241.1 64.8 241.1 64.8 239 63.05 239M52.3 245.7Q52.4 242.6 55.3 242.55 57.8 242.55 57.9 245.35L57.9 250.65 59.6 250.65 59.6 245.15Q59.35 240.95 55.65 241 53.3 241.05 52.2 242.55L52.2 241.1 50.55 241.1 50.55 250.65 52.3 250.65 52.3 245.7M47 238.05L45.2 238.05 45.2 250.65 47 250.65 47 238.05M45.15 214.65L46.55 211.5 53.25 211.5 54.65 214.65 56.5 214.65 50.8 202.05 49 202.05 43.3 214.65 45.15 214.65M47.15 210.05L49.9 203.9 52.6 210.05 47.15 210.05M65.3 206.55Q64.05 205 62 205.05 57.45 205.25 57.15 209.9 57.45 214.5 62 214.75 64.15 214.75 65.4 213.15L65.4 214.65 67.05 214.65 67.05 201.3 65.3 201.3 65.3 206.55M62.1 206.55Q65.1 206.7 65.35 209.9 65.1 213.1 62.1 213.25 59.15 213.1 58.9 209.9 59.15 206.7 62.1 206.55M130.45 268.2L131.2 269.5Q132.4 268.55 134.2 268.5 136.8 268.55 136.75 270.8L136.75 271.15 134.05 271.15Q130 271.4 130.2 273.95 130.35 276.6 133.75 276.75 136 276.7 136.85 275.35L136.85 276.65 138.5 276.65 138.5 270.85Q138.4 267 134.4 267 132.05 267 130.45 268.2M131.9 273.85Q131.75 272.5 134.1 272.4L136.75 272.4 136.75 273.7Q136.05 275.4 134 275.4 132 275.35 131.9 273.85M161.35 267.1L159.6 267.1 159.6 276.65 161.35 276.65 161.35 267.1M161.65 264.1Q161.55 263.1 160.45 263 159.4 263.1 159.3 264.15 159.4 265.15 160.45 265.25 161.55 265.15 161.65 264.1M149.8 269.05Q148.55 267 145.9 267 141.15 267.3 140.85 271.85 141.15 276.45 145.9 276.75 148.55 276.7 149.8 274.7L148.45 273.85Q147.5 275.25 145.85 275.25 142.85 275.1 142.6 271.85 142.85 268.65 145.85 268.5 147.5 268.5 148.45 269.9L149.8 269.05M150.75 267.1L150.75 268.5 152.35 268.5 152.35 273.75Q152.45 276.7 155.4 276.75 156.6 276.75 157.5 276.05L156.95 274.85Q156.4 275.25 155.6 275.3 154.15 275.25 154.1 273.7L154.1 268.5 156.85 268.5 156.85 267.1 154.1 267.1 154.1 265 152.35 265 152.35 267.1 150.75 267.1M92.7 267.1L90.95 267.1 90.95 276.65 92.7 276.65 92.7 267.1M91.8 265.25Q92.9 265.15 93 264.1 92.9 263.1 91.8 263 90.75 263.1 90.65 264.15 90.75 265.15 91.8 265.25M85.5 265L83.75 265 83.75 267.1 82.15 267.1 82.15 268.5 83.75 268.5 83.75 273.75Q83.85 276.7 86.8 276.75 88 276.75 88.9 276.05L88.35 274.85Q87.8 275.25 87 275.3 85.55 275.25 85.5 273.7L85.5 268.5 88.25 268.5 88.25 267.1 85.5 267.1 85.5 265M119 267Q114.55 267.3 114.2 271.85 114.45 276.45 119.35 276.75 121.75 276.7 123.1 275.2L122.15 274.1Q121.05 275.25 119.4 275.25 116.4 275.1 115.95 272.45L123.65 272.45Q123.7 272.15 123.7 271.9 123.4 267.25 119 267M115.95 271.2Q116.35 268.6 119 268.45 121.65 268.6 122.05 271.2L115.95 271.2M107.95 267Q105.45 267.1 104.25 268.75 103.25 267 100.95 267 98.75 267.05 97.65 268.5L97.65 267.1 96 267.1 96 276.65 97.75 276.65 97.75 271.7Q97.85 268.6 100.6 268.55 103 268.55 103.05 271.35L103.05 276.65 104.8 276.65 104.8 271.7Q104.9 268.6 107.65 268.55 110.05 268.55 110.1 271.35L110.1 276.65 111.85 276.65 111.85 271.15Q111.65 266.95 107.95 267M110 241.1L110 242.5 111.6 242.5 111.6 247.75Q111.7 250.7 114.65 250.75 115.85 250.75 116.75 250.05L116.2 248.85Q115.65 249.25 114.85 249.3 113.4 249.25 113.35 247.7L113.35 242.5 116.1 242.5 116.1 241.1 113.35 241.1 113.35 239 111.6 239 111.6 241.1 110 241.1M100.1 242.2L100.85 243.5Q102.05 242.55 103.85 242.5 106.45 242.55 106.4 244.8L106.4 245.15 103.7 245.15Q99.65 245.4 99.85 247.95 100 250.6 103.4 250.75 105.65 250.7 106.5 249.35L106.5 250.65 108.15 250.65 108.15 244.85Q108.05 241 104.05 241 101.7 241 100.1 242.2M103.75 246.4L106.4 246.4 106.4 247.7Q105.7 249.4 103.65 249.4 101.65 249.35 101.55 247.85 101.4 246.5 103.75 246.4M98.5 242.65L98.5 241Q95.95 241 95 242.7L95 241.1 93.35 241.1 93.35 250.65 95.1 250.65 95.1 245.9Q95.2 242.7 98.1 242.65 98.25 242.65 98.5 242.65M88.4 242.55Q87.1 241 84.9 241 80.4 241.25 80.05 245.6 80.4 250 84.9 250.25 87 250.25 88.35 248.75L88.35 249.5Q88.4 252.75 85.05 252.7 82.8 252.65 81.4 251.5L80.55 252.8Q82.3 254.2 85.1 254.25 90 254.3 90.05 249.35L90.05 241.1 88.4 241.1 88.4 242.55M85.1 242.5Q88.15 242.65 88.35 245.6 88.15 248.55 85.1 248.7 82 248.55 81.8 245.6 82 242.65 85.1 242.5M90.2 201Q89.15 201.1 89.05 202.15 89.15 203.15 90.2 203.25 91.3 203.15 91.4 202.1 91.3 201.1 90.2 201M91.1 205.1L89.35 205.1 89.35 214.65 91.1 214.65 91.1 205.1M82 206.55Q84.4 206.55 84.45 209.35L84.45 214.65 86.2 214.65 86.2 209.15Q86 204.95 82.3 205 79.8 205.1 78.6 206.75 77.6 205 75.3 205 73.1 205.05 72 206.5L72 205.1 70.35 205.1 70.35 214.65 72.1 214.65 72.1 209.7Q72.2 206.6 74.95 206.55 77.35 206.55 77.4 209.35L77.4 214.65 79.15 214.65 79.15 209.7Q79.25 206.6 82 206.55M101.75 214.65L103.45 214.65 103.45 209.15Q103.2 204.95 99.5 205 97.15 205.05 96.05 206.55L96.05 205.1 94.4 205.1 94.4 214.65 96.15 214.65 96.15 209.7Q96.25 206.6 99.15 206.55 101.65 206.55 101.75 209.35L101.75 214.65M119.05 208.85Q118.95 205 114.95 205 112.6 205 111 206.2L111.75 207.5Q112.95 206.55 114.75 206.5 117.35 206.55 117.3 208.8L117.3 209.15 114.6 209.15Q110.55 209.4 110.75 211.95 110.9 214.6 114.3 214.75 116.55 214.7 117.4 213.35L117.4 214.65 119.05 214.65 119.05 208.85M112.45 211.85Q112.3 210.5 114.65 210.4L117.3 210.4 117.3 211.7Q116.6 213.4 114.55 213.4 112.55 213.35 112.45 211.85M148.3 241.1L146.65 241.1 146.65 254.15 148.4 254.15 148.4 249.2Q149.65 250.75 151.7 250.75 156.2 250.5 156.55 245.85 156.2 241.25 151.7 241 149.55 241 148.3 242.6L148.3 241.1M151.55 242.5Q154.55 242.7 154.8 245.85 154.55 249.05 151.55 249.25 148.6 249.05 148.35 245.85 148.6 242.7 151.55 242.5M160.65 237.3L158.9 237.3 158.9 250.65 160.65 250.65 160.65 237.3M136.8 242.55Q135.55 241 133.5 241.05 128.95 241.25 128.65 245.9 128.95 250.5 133.5 250.75 135.65 250.75 136.9 249.15L136.9 250.65 138.55 250.65 138.55 237.3 136.8 237.3 136.8 242.55M133.6 242.55Q136.6 242.7 136.85 245.9 136.6 249.1 133.6 249.25 130.65 249.1 130.4 245.9 130.65 242.7 133.6 242.55M127.1 245.9Q126.8 241.25 122.4 241 117.95 241.3 117.6 245.85 117.85 250.45 122.75 250.75 125.15 250.7 126.5 249.2L125.55 248.1Q124.45 249.25 122.8 249.25 119.8 249.1 119.35 246.45L127.05 246.45Q127.1 246.15 127.1 245.9M122.4 242.45Q125.05 242.6 125.45 245.2L119.35 245.2Q119.75 242.6 122.4 242.45M131.3 209.15Q131.05 204.95 127.35 205 125 205.05 123.9 206.55L123.9 205.1 122.25 205.1 122.25 214.65 124 214.65 124 209.7Q124.1 206.6 127 206.55 129.5 206.55 129.6 209.35L129.6 214.65 131.3 214.65 131.3 209.15M141.8 201.3L141.8 206.55Q140.55 205 138.5 205.05 133.95 205.25 133.65 209.9 133.95 214.5 138.5 214.75 140.65 214.75 141.9 213.15L141.9 214.65 143.55 214.65 143.55 201.3 141.8 201.3M135.4 209.9Q135.65 206.7 138.6 206.55 141.6 206.7 141.8 209.9 141.6 213.1 138.6 213.25 135.65 213.1 135.4 209.9M160.3 209.9Q160 205.25 155.6 205 151.15 205.3 150.8 209.85 151.05 214.45 155.95 214.75 158.35 214.7 159.7 213.2L158.75 212.1Q157.65 213.25 156 213.25 153 213.1 152.55 210.45L160.25 210.45Q160.3 210.15 160.3 209.9M155.6 206.45Q158.25 206.6 158.65 209.2L152.55 209.2Q152.95 206.6 155.6 206.45M79.8 106.65L81.55 106.65 81.55 97.1 79.8 97.1 79.8 106.65M156.9 178.75Q159.3 178.7 160.65 177.2L159.7 176.1Q158.6 177.25 156.95 177.25 153.95 177.1 153.5 174.45L161.2 174.45Q161.25 174.15 161.25 173.9 160.95 169.25 156.55 169 152.1 169.3 151.75 173.85 152 178.45 156.9 178.75M153.5 173.2Q153.9 170.6 156.55 170.45 159.2 170.6 159.6 173.2L153.5 173.2M129.1 167.25Q130.2 167.15 130.3 166.1 130.2 165.1 129.1 165 128.05 165.1 127.95 166.15 128.05 167.15 129.1 167.25M130 169.1L128.25 169.1 128.25 178.65 130 178.65 130 169.1M134.9 170.55L134.9 169.1 133.25 169.1 133.25 178.65 135 178.65 135 173.7Q135.1 170.6 138 170.55 140.5 170.55 140.6 173.35L140.6 178.65 142.3 178.65 142.3 173.15Q142.05 168.95 138.35 169 136 169.05 134.9 170.55M144.15 169.1L144.15 170.5 145.75 170.5 145.75 175.75Q145.85 178.7 148.8 178.75 150 178.75 150.9 178.05L150.35 176.85Q149.75 177.25 149 177.3 147.55 177.25 147.5 175.7L147.5 170.5 150.25 170.5 150.25 169.1 147.5 169.1 147.5 167 145.75 167 145.75 169.1 144.15 169.1M116.05 178.75Q120.7 178.45 121 173.85 120.7 169.3 116.05 169 111.45 169.3 111.1 173.85 111.45 178.45 116.05 178.75M116.05 177.25Q113.1 177.05 112.85 173.85 113.1 170.65 116.05 170.5 119.05 170.65 119.3 173.85 119.05 177.05 116.05 177.25M94.55 178.75Q99.2 178.45 99.5 173.85 99.2 169.3 94.55 169 89.95 169.3 89.6 173.85 89.95 178.45 94.55 178.75M94.55 177.25Q91.6 177.05 91.35 173.85 91.6 170.65 94.55 170.5 97.55 170.65 97.8 173.85 97.55 177.05 94.55 177.25M89.6 165.75Q88.85 165.2 87.65 165.2 84.6 165.35 84.5 168.3L84.5 169.15 82.9 169.15 82.9 170.55 84.5 170.55 84.5 178.65 86.25 178.65 86.25 170.55 89 170.55 89 169.15 86.2 169.15 86.2 168.3Q86.2 166.65 87.75 166.6 88.55 166.65 89.1 167.05L89.6 165.75M109 166.1Q108.9 165.1 107.8 165 106.75 165.1 106.65 166.15 106.75 167.15 107.8 167.25 108.9 167.15 109 166.1M108.7 169.1L106.95 169.1 106.95 178.65 108.7 178.65 108.7 169.1M103.65 165.3L101.9 165.3 101.9 178.65 103.65 178.65 103.65 165.3M118.6 133.1L116.85 133.1 116.85 142.65 118.6 142.65 118.6 133.1M117.7 131.25Q118.8 131.15 118.9 130.1 118.8 129.1 117.7 129 116.65 129.1 116.55 130.15 116.65 131.15 117.7 131.25M115.2 133.1L113.55 133.1 110.2 140.75 106.9 133.1 105.1 133.1 109.3 142.65 111.05 142.65 115.2 133.1M95.2 142.75Q97.6 142.7 98.95 141.2L98 140.1Q96.9 141.25 95.25 141.25 92.25 141.1 91.8 138.45L99.5 138.45Q99.55 138.15 99.55 137.9 99.25 133.25 94.85 133 90.4 133.3 90.05 137.85 90.3 142.45 95.2 142.75M97.9 137.2L91.8 137.2Q92.2 134.6 94.85 134.45 97.5 134.6 97.9 137.2M87.65 129.3L85.9 129.3 85.9 142.65 87.65 142.65 87.65 129.3M105.7 102.45Q105.75 102.15 105.75 101.9 105.45 97.25 101.05 97 96.6 97.3 96.25 101.85 96.5 106.45 101.4 106.75 103.8 106.7 105.15 105.2L104.2 104.1Q103.1 105.25 101.45 105.25 98.45 105.1 98 102.45L105.7 102.45M104.1 101.2L98 101.2Q98.4 98.6 101.05 98.45 103.7 98.6 104.1 101.2M152.85 137.85Q153.2 142.45 157.8 142.75 162.45 142.45 162.75 137.85 162.45 133.3 157.8 133 153.2 133.3 152.85 137.85M157.8 141.25Q154.85 141.05 154.6 137.85 154.85 134.65 157.8 134.5 160.8 134.65 161.05 137.85 160.8 141.05 157.8 141.25M126.15 142.75Q128.55 142.7 129.9 141.2L128.95 140.1Q127.85 141.25 126.2 141.25 123.2 141.1 122.75 138.45L130.45 138.45Q130.5 138.15 130.5 137.9 130.2 133.25 125.8 133 121.35 133.3 121 137.85 121.25 142.45 126.15 142.75M128.85 137.2L122.75 137.2Q123.15 134.6 125.8 134.45 128.45 134.6 128.85 137.2M139.9 133.1L138.45 133.1 135.55 140.7 132.8 133.1 131.15 133.1 134.7 142.65 136.35 142.65 139.15 135.4 141.9 142.65 143.55 142.65 147.1 133.1 145.55 133.1 142.75 140.75 139.9 133.1M61.8 178.75Q66.45 178.45 66.75 173.85 66.45 169.3 61.8 169 57.2 169.3 56.85 173.85 57.2 178.45 61.8 178.75M65 173.85Q64.8 177.05 61.8 177.25 58.85 177.05 58.6 173.85 58.85 170.65 61.8 170.5 64.8 170.65 65 173.85M55.35 170.45Q55.2 166.2 50.1 166.05L45.2 166.05 45.2 178.65 47 178.65 47 174.85 50.1 174.85Q55.2 174.7 55.35 170.45M50.05 167.6Q53.55 167.7 53.55 170.45 53.55 173.2 50.05 173.25L47 173.25 47 167.6 50.05 167.6M77.05 167L77.05 169.1 75.45 169.1 75.45 170.5 77.05 170.5 77.05 175.75Q77.15 178.7 80.1 178.75 81.3 178.75 82.2 178.05L81.65 176.85Q81.05 177.25 80.3 177.3 78.85 177.25 78.8 175.7L78.8 170.5 81.55 170.5 81.55 169.1 78.8 169.1 78.8 167 77.05 167M70.85 170.7L70.85 169.1 69.2 169.1 69.2 178.65 70.95 178.65 70.95 173.9Q71.05 170.7 73.95 170.65 74.1 170.65 74.35 170.65L74.35 169Q71.8 169 70.85 170.7M66.25 133Q63.9 133.05 62.8 134.55L62.8 133.1 61.15 133.1 61.15 142.65 62.9 142.65 62.9 137.7Q63 134.6 65.9 134.55 68.4 134.55 68.5 137.35L68.5 142.65 70.2 142.65 70.2 137.15Q69.95 132.95 66.25 133M80.95 133.1L80.95 134.55Q79.65 133 77.45 133 72.95 133.25 72.6 137.6 72.95 142 77.45 142.25 79.55 142.25 80.9 140.75L80.9 141.5Q80.95 144.75 77.6 144.7 75.35 144.65 73.95 143.5L73.1 144.8Q74.85 146.2 77.65 146.25 82.55 146.3 82.6 141.35L82.6 133.1 80.95 133.1M80.9 137.6Q80.7 140.55 77.65 140.7 74.55 140.55 74.35 137.6 74.55 134.65 77.65 134.5 80.7 134.65 80.9 137.6M57.9 133.1L56.15 133.1 56.15 142.65 57.9 142.65 57.9 133.1M57 131.25Q58.1 131.15 58.2 130.1 58.1 129.1 57 129 55.95 129.1 55.85 130.15 55.95 131.15 57 131.25M52.65 132.45L53.25 131Q51.55 129.9 49.2 129.9 44.3 130.25 44.35 133.5 44.85 136.65 48.2 137 51.5 137.35 52 139.3 52.05 141.1 48.9 141.25 46.3 141.15 44.7 139.8L44.05 141.2Q45.75 142.7 48.9 142.8 53.8 142.45 53.75 139.2 53.3 136.1 49.95 135.75 46.6 135.4 46.1 133.45 46.05 131.6 49.2 131.45 50.9 131.4 52.65 132.45M77.35 97.85Q75.95 97.05 73.9 97 70.05 97.15 69.9 99.85 70.3 102.4 72.9 102.55 75.55 102.65 75.95 103.95 76 105.2 73.65 105.25 71.7 105.2 70.3 104.25L69.6 105.6Q71 106.65 73.55 106.75 77.5 106.65 77.65 103.9 77.3 101.45 74.65 101.3 72 101.2 71.6 99.8 71.6 98.55 73.85 98.5 75.3 98.45 76.6 99.25L77.35 97.85M79.5 94.15Q79.6 95.15 80.65 95.25 81.75 95.15 81.85 94.1 81.75 93.1 80.65 93 79.6 93.1 79.5 94.15M60.25 97.1L58.5 97.1 58.5 102.6Q58.7 106.8 62.6 106.75 64.7 106.7 65.85 105.2L65.85 106.65 67.5 106.65 67.5 97.1 65.75 97.1 65.75 102.05Q65.65 105.15 62.8 105.2 60.3 105.2 60.25 102.4L60.25 97.1M50.85 94.05L45.2 94.05 45.2 106.65 51.2 106.65Q56 106.55 56.05 103.25 55.9 100.75 53.7 100.1 55.3 99.4 55.35 97.3 55.3 94.15 50.85 94.05M50.7 95.5Q53.5 95.5 53.55 97.55 53.5 99.55 50.7 99.55L47 99.55 47 95.5 50.7 95.5M54.2 103.1Q54.2 105.25 51.15 105.2L47 105.2 47 101 51.15 101Q54.2 100.95 54.2 103.1M50.5 58.05L45.2 58.05 45.2 70.65 50.5 70.65Q56.95 70.3 57.3 64.35 56.95 58.4 50.5 58.05M47 59.6L50.4 59.6Q55.3 59.85 55.5 64.35 55.3 68.85 50.4 69.1L47 69.1 47 59.6M59.55 58.15Q59.65 59.15 60.7 59.25 61.8 59.15 61.9 58.1 61.8 57.1 60.7 57 59.65 57.1 59.55 58.15M61.6 70.65L61.6 61.1 59.85 61.1 59.85 70.65 61.6 70.65M74 61.1L72.35 61.1 72.35 62.55Q71.05 61 68.85 61 64.35 61.25 64 65.6 64.35 70 68.85 70.25 70.95 70.25 72.3 68.75L72.3 69.5Q72.35 72.75 69 72.7 66.75 72.65 65.35 71.5L64.5 72.8Q66.25 74.2 69.05 74.25 73.95 74.3 74 69.35L74 61.1M69.05 68.7Q65.95 68.55 65.75 65.6 65.95 62.65 69.05 62.5 72.1 62.65 72.3 65.6 72.1 68.55 69.05 68.7M79.3 58.1Q79.2 57.1 78.1 57 77.05 57.1 76.95 58.15 77.05 59.15 78.1 59.25 79.2 59.15 79.3 58.1M79 61.1L77.25 61.1 77.25 70.65 79 70.65 79 61.1M72.35 25.1L72.35 26.55Q71.05 25 68.85 25 64.35 25.25 64 29.6 64.35 34 68.85 34.25 70.95 34.25 72.3 32.75L72.3 33.5Q72.35 36.75 69 36.7 66.75 36.65 65.35 35.5L64.5 36.8Q66.25 38.2 69.05 38.25 73.95 38.3 74 33.35L74 25.1 72.35 25.1M69.05 32.7Q65.95 32.55 65.75 29.6 65.95 26.65 69.05 26.5 72.1 26.65 72.3 29.6 72.1 32.55 69.05 32.7M79 25.1L77.25 25.1 77.25 34.65 79 34.65 79 25.1M59.85 25.1L59.85 34.65 61.6 34.65 61.6 25.1 59.85 25.1M60.7 21Q59.65 21.1 59.55 22.15 59.65 23.15 60.7 23.25 61.8 23.15 61.9 22.1 61.8 21.1 60.7 21M50.5 22.05L45.2 22.05 45.2 34.65 50.5 34.65Q56.95 34.3 57.3 28.35 56.95 22.4 50.5 22.05M47 23.6L50.4 23.6Q55.3 23.85 55.5 28.35 55.3 32.85 50.4 33.1L47 33.1 47 23.6M79.3 22.1Q79.2 21.1 78.1 21 77.05 21.1 76.95 22.15 77.05 23.15 78.1 23.25 79.2 23.15 79.3 22.1M123.7 97.85Q122.3 97.05 120.25 97 116.4 97.15 116.25 99.85 116.65 102.4 119.25 102.55 121.9 102.65 122.3 103.95 122.35 105.2 120 105.25 118.05 105.2 116.65 104.25L115.95 105.6Q117.35 106.65 119.9 106.75 123.85 106.65 124 103.9 123.65 101.45 121 101.3 118.35 101.2 117.95 99.8 117.95 98.55 120.2 98.5 121.65 98.45 122.95 99.25L123.7 97.85M143.45 97.1L141.8 97.1 141.8 106.65 143.55 106.65 143.55 101.7Q143.65 98.6 146.55 98.55 149.05 98.55 149.15 101.35L149.15 106.65 150.85 106.65 150.85 101.15Q150.6 96.95 146.9 97 144.55 97.05 143.45 98.55L143.45 97.1M157.5 97Q155.15 97 153.55 98.2L154.3 99.5Q155.5 98.55 157.3 98.5 159.9 98.55 159.85 100.8L159.85 101.15 157.15 101.15Q153.1 101.4 153.3 103.95 153.45 106.6 156.85 106.75 159.1 106.7 159.95 105.35L159.95 106.65 161.6 106.65 161.6 100.85Q161.5 97 157.5 97M159.85 102.4L159.85 103.7Q159.15 105.4 157.1 105.4 155.1 105.35 155 103.85 154.85 102.5 157.2 102.4L159.85 102.4M134.5 97Q132.15 97 130.55 98.2L131.3 99.5Q132.5 98.55 134.3 98.5 136.9 98.55 136.85 100.8L136.85 101.15 134.15 101.15Q130.1 101.4 130.3 103.95 130.45 106.6 133.85 106.75 136.1 106.7 136.95 105.35L136.95 106.65 138.6 106.65 138.6 100.85Q138.5 97 134.5 97M136.85 102.4L136.85 103.7Q136.15 105.4 134.1 105.4 132.1 105.35 132 103.85 131.85 102.5 134.2 102.4L136.85 102.4M128.9 62.2L129.65 63.5Q130.85 62.55 132.65 62.5 135.25 62.55 135.2 64.8L135.2 65.15 132.5 65.15Q128.45 65.4 128.65 67.95 128.8 70.6 132.2 70.75 134.45 70.7 135.3 69.35L135.3 70.65 136.95 70.65 136.95 64.85Q136.85 61 132.85 61 130.5 61 128.9 62.2M132.55 66.4L135.2 66.4 135.2 67.7Q134.5 69.4 132.45 69.4 130.45 69.35 130.35 67.85 130.2 66.5 132.55 66.4M144.9 62.65Q145.05 62.65 145.3 62.65L145.3 61Q142.75 61 141.8 62.7L141.8 61.1 140.15 61.1 140.15 70.65 141.9 70.65 141.9 65.9Q142 62.7 144.9 62.65M156.4 61.1L154.35 61.1 149.15 65.85 149.15 57.3 147.4 57.3 147.4 70.65 149.15 70.65 149.15 68.05 151.1 66.2 154.7 70.65 156.8 70.65 152.4 65.05 156.4 61.1M114.7 97.85Q113.3 97.05 111.25 97 107.4 97.15 107.25 99.85 107.65 102.4 110.25 102.55 112.9 102.65 113.3 103.95 113.35 105.2 111 105.25 109.05 105.2 107.65 104.25L106.95 105.6Q108.35 106.65 110.9 106.75 114.85 106.65 115 103.9 114.65 101.45 112 101.3 109.35 101.2 108.95 99.8 108.95 98.55 111.2 98.5 112.65 98.45 113.95 99.25L114.7 97.85M86.45 97.1L84.8 97.1 84.8 106.65 86.55 106.65 86.55 101.7Q86.65 98.6 89.55 98.55 92.05 98.55 92.15 101.35L92.15 106.65 93.85 106.65 93.85 101.15Q93.6 96.95 89.9 97 87.55 97.05 86.45 98.55L86.45 97.1M89.25 62.2L90 63.5Q91.2 62.55 93 62.5 95.6 62.55 95.55 64.8L95.55 65.15 92.85 65.15Q88.8 65.4 89 67.95 89.15 70.6 92.55 70.75 94.8 70.7 95.65 69.35L95.65 70.65 97.3 70.65 97.3 64.85Q97.2 61 93.2 61 90.85 61 89.25 62.2M92.9 66.4L95.55 66.4 95.55 67.7Q94.85 69.4 92.8 69.4 90.8 69.35 90.7 67.85 90.55 66.5 92.9 66.4M87.05 61.1L84.3 61.1 84.3 59 82.55 59 82.55 61.1 80.95 61.1 80.95 62.5 82.55 62.5 82.55 67.75Q82.65 70.7 85.6 70.75 86.8 70.75 87.7 70.05L87.15 68.85Q86.6 69.25 85.8 69.3 84.35 69.25 84.3 67.7L84.3 62.5 87.05 62.5 87.05 61.1M102.25 70.65L102.25 57.3 100.5 57.3 100.5 70.65 102.25 70.65M112.15 70.65L112.15 65.7Q112.25 62.6 115 62.55 117.4 62.55 117.45 65.35L117.45 70.65 119.2 70.65 119.2 65.7Q119.3 62.6 122.05 62.55 124.45 62.55 124.5 65.35L124.5 70.65 126.25 70.65 126.25 65.15Q126.05 60.95 122.35 61 119.85 61.1 118.65 62.75 117.65 61 115.35 61 113.15 61.05 112.05 62.5L112.05 61.1 110.4 61.1 110.4 70.65 112.15 70.65M102.25 34.65L102.25 21.3 100.5 21.3 100.5 34.65 102.25 34.65M95.55 28.8L95.55 29.15 92.85 29.15Q88.8 29.4 89 31.95 89.15 34.6 92.55 34.75 94.8 34.7 95.65 33.35L95.65 34.65 97.3 34.65 97.3 28.85Q97.2 25 93.2 25 90.85 25 89.25 26.2L90 27.5Q91.2 26.55 93 26.5 95.6 26.55 95.55 28.8M92.9 30.4L95.55 30.4 95.55 31.7Q94.85 33.4 92.8 33.4 90.8 33.35 90.7 31.85 90.55 30.5 92.9 30.4M84.3 23L82.55 23 82.55 25.1 80.95 25.1 80.95 26.5 82.55 26.5 82.55 31.75Q82.65 34.7 85.6 34.75 86.8 34.75 87.7 34.05L87.15 32.85Q86.6 33.25 85.8 33.3 84.35 33.25 84.3 31.7L84.3 26.5 87.05 26.5 87.05 25.1 84.3 25.1 84.3 23M116.2 22.05L114.4 22.05 108.7 34.65 110.55 34.65 111.95 31.5 118.65 31.5 120.05 34.65 121.9 34.65 116.2 22.05M118 30.05L112.55 30.05 115.3 23.9 118 30.05M154.8 25.1L153.05 25.1 153.05 30.05Q152.95 33.15 150.1 33.2 147.6 33.2 147.55 30.4L147.55 25.1 145.8 25.1 145.8 30.6Q146 34.8 149.9 34.75 152 34.7 153.15 33.2L153.15 34.65 154.8 34.65 154.8 25.1M159.8 25.1L158.05 25.1 158.05 34.65 159.8 34.65 159.8 25.1M131.55 27.05Q130.3 25 127.65 25 122.9 25.3 122.6 29.85 122.9 34.45 127.65 34.75 130.3 34.7 131.55 32.7L130.2 31.85Q129.25 33.25 127.6 33.25 124.6 33.1 124.35 29.85 124.6 26.65 127.6 26.5 129.25 26.5 130.2 27.9L131.55 27.05M140.95 25.1L140.95 26.6Q139.7 25 137.55 25 133 25.25 132.7 29.85 133 34.5 137.55 34.75 139.6 34.75 140.85 33.2L140.85 38.15 142.6 38.15 142.6 25.1 140.95 25.1M137.65 26.5Q140.65 26.7 140.9 29.85 140.65 33.05 137.65 33.25 134.7 33.05 134.45 29.85 134.7 26.7 137.65 26.5M160.1 22.1Q160 21.1 158.9 21 157.85 21.1 157.75 22.15 157.85 23.15 158.9 23.25 160 23.15 160.1 22.1M289.45 170.2L290.2 171.5Q291.4 170.55 293.2 170.5 295.8 170.55 295.75 172.8L295.75 173.15 293.05 173.15Q289 173.4 289.2 175.95 289.35 178.6 292.75 178.75 295 178.7 295.85 177.35L295.85 178.65 297.5 178.65 297.5 172.85Q297.4 169 293.4 169 291.05 169 289.45 170.2M295.75 174.4L295.75 175.7Q295.05 177.4 293 177.4 291 177.35 290.9 175.85 290.75 174.5 293.1 174.4L295.75 174.4M323.65 169.1L321.9 169.1 321.9 178.65 323.65 178.65 323.65 169.1M322.75 165Q321.7 165.1 321.6 166.15 321.7 167.15 322.75 167.25 323.85 167.15 323.95 166.1 323.85 165.1 322.75 165M304.9 170.5Q306.55 170.5 307.5 171.9L308.85 171.05Q307.6 169 304.95 169 300.2 169.3 299.9 173.85 300.2 178.45 304.95 178.75 307.6 178.7 308.85 176.7L307.5 175.85Q306.55 177.25 304.9 177.25 301.9 177.1 301.65 173.85 301.9 170.65 304.9 170.5M312.7 165.3L310.95 165.3 310.95 178.65 312.7 178.65 312.7 176.05 314.65 174.2 318.25 178.65 320.35 178.65 315.95 173.05 319.95 169.1 317.9 169.1 312.7 173.85 312.7 165.3M282.75 169.1L282.75 178.65 284.5 178.65 284.5 173.9Q284.6 170.7 287.5 170.65 287.65 170.65 287.9 170.65L287.9 169Q285.35 169 284.4 170.7L284.4 169.1 282.75 169.1M247.5 169.1L245.85 169.1 245.85 178.65 247.6 178.65 247.6 173.7Q247.7 170.6 250.6 170.55 253.1 170.55 253.2 173.35L253.2 178.65 254.9 178.65 254.9 173.15Q254.65 168.95 250.95 169 248.6 169.05 247.5 170.55L247.5 169.1M277.25 167L275.5 167 275.5 169.1 273.9 169.1 273.9 170.5 275.5 170.5 275.5 175.75Q275.6 178.7 278.55 178.75 279.75 178.75 280.65 178.05L280.1 176.85Q279.55 177.25 278.75 177.3 277.3 177.25 277.25 175.7L277.25 170.5 280 170.5 280 169.1 277.25 169.1 277.25 167M267.15 165.3L265.4 165.3 265.4 170.55Q264.15 169 262.1 169.05 257.55 169.25 257.25 173.9 257.55 178.5 262.1 178.75 264.25 178.75 265.5 177.15L265.5 178.65 267.15 178.65 267.15 165.3M262.2 177.25Q259.25 177.1 259 173.9 259.25 170.7 262.2 170.55 265.2 170.7 265.4 173.9 265.2 177.1 262.2 177.25M277.55 134.55Q276.3 133 274.25 133.05 269.7 133.25 269.4 137.9 269.7 142.5 274.25 142.75 276.4 142.75 277.65 141.15L277.65 142.65 279.3 142.65 279.3 129.3 277.55 129.3 277.55 134.55M277.55 137.9Q277.35 141.1 274.35 141.25 271.4 141.1 271.15 137.9 271.4 134.7 274.35 134.55 277.35 134.7 277.55 137.9M247.45 135.5Q248.65 134.55 250.45 134.5 253.05 134.55 253 136.8L253 137.15 250.3 137.15Q246.25 137.4 246.45 139.95 246.6 142.6 250 142.75 252.25 142.7 253.1 141.35L253.1 142.65 254.75 142.65 254.75 136.85Q254.65 133 250.65 133 248.3 133 246.7 134.2L247.45 135.5M248.15 139.85Q248 138.5 250.35 138.4L253 138.4 253 139.7Q252.3 141.4 250.25 141.4 248.25 141.35 248.15 139.85M263.05 133Q260.7 133.05 259.6 134.55L259.6 133.1 257.95 133.1 257.95 142.65 259.7 142.65 259.7 137.7Q259.8 134.6 262.7 134.55 265.2 134.55 265.3 137.35L265.3 142.65 267 142.65 267 137.15Q266.75 132.95 263.05 133M304.1 135.5Q305.3 134.55 307.1 134.5 309.7 134.55 309.65 136.8L309.65 137.15 306.95 137.15Q302.9 137.4 303.1 139.95 303.25 142.6 306.65 142.75 308.9 142.7 309.75 141.35L309.75 142.65 311.4 142.65 311.4 136.85Q311.3 133 307.3 133 304.95 133 303.35 134.2L304.1 135.5M309.65 138.4L309.65 139.7Q308.95 141.4 306.9 141.4 304.9 141.35 304.8 139.85 304.65 138.5 307 138.4L309.65 138.4M316.6 134.5L319.35 134.5 319.35 133.1 316.6 133.1 316.6 131 314.85 131 314.85 133.1 313.25 133.1 313.25 134.5 314.85 134.5 314.85 139.75Q314.95 142.7 317.9 142.75 319.1 142.75 320 142.05L319.45 140.85Q318.85 141.25 318.1 141.3 316.65 141.25 316.6 139.7L316.6 134.5M290.5 133Q286.65 133.15 286.5 135.85 286.9 138.4 289.5 138.55 292.15 138.65 292.55 139.95 292.6 141.2 290.25 141.25 288.3 141.2 286.9 140.25L286.2 141.6Q287.6 142.65 290.15 142.75 294.1 142.65 294.25 139.9 293.9 137.45 291.25 137.3 288.6 137.2 288.2 135.8 288.2 134.55 290.45 134.5 291.9 134.45 293.2 135.25L293.95 133.85Q292.55 133.05 290.5 133M298.4 133.1L298.4 131 296.65 131 296.65 133.1 295.05 133.1 295.05 134.5 296.65 134.5 296.65 139.75Q296.75 142.7 299.7 142.75 300.9 142.75 301.8 142.05L301.25 140.85Q300.7 141.25 299.9 141.3 298.45 141.25 298.4 139.7L298.4 134.5 301.15 134.5 301.15 133.1 298.4 133.1M210.6 178.75Q215.25 178.45 215.55 173.85 215.25 169.3 210.6 169 206 169.3 205.65 173.85 206 178.45 210.6 178.75M210.6 177.25Q207.65 177.05 207.4 173.85 207.65 170.65 210.6 170.5 213.6 170.65 213.85 173.85 213.6 177.05 210.6 177.25M240.9 172.8L240.9 173.15 238.2 173.15Q234.15 173.4 234.35 175.95 234.5 178.6 237.9 178.75 240.15 178.7 241 177.35L241 178.65 242.65 178.65 242.65 172.85Q242.55 169 238.55 169 236.2 169 234.6 170.2L235.35 171.5Q236.55 170.55 238.35 170.5 240.95 170.55 240.9 172.8M238.25 174.4L240.9 174.4 240.9 175.7Q240.2 177.4 238.15 177.4 236.15 177.35 236.05 175.85 235.9 174.5 238.25 174.4M227.05 173.15Q226.8 168.95 223.1 169 220.75 169.05 219.65 170.55L219.65 169.1 218 169.1 218 178.65 219.75 178.65 219.75 173.7Q219.85 170.6 222.75 170.55 225.25 170.55 225.35 173.35L225.35 178.65 227.05 178.65 227.05 173.15M201.5 169.1L201.5 178.65 203.25 178.65 203.25 169.1 201.5 169.1M171.15 170.55Q169.85 169 167.65 169 163.15 169.25 162.8 173.6 163.15 178 167.65 178.25 169.75 178.25 171.1 176.75L171.1 177.5Q171.15 180.75 167.8 180.7 165.55 180.65 164.15 179.5L163.3 180.8Q165.05 182.2 167.85 182.25 172.75 182.3 172.8 177.35L172.8 169.1 171.15 169.1 171.15 170.55M171.1 173.6Q170.9 176.55 167.85 176.7 164.75 176.55 164.55 173.6 164.75 170.65 167.85 170.5 170.9 170.65 171.1 173.6M177.75 169.1L176.1 169.1 176.1 178.65 177.85 178.65 177.85 173.9Q177.95 170.7 180.85 170.65 181 170.65 181.25 170.65L181.25 169Q178.7 169 177.75 170.7L177.75 169.1M196.05 167L194.3 167 194.3 169.1 192.7 169.1 192.7 170.5 194.3 170.5 194.3 175.75Q194.4 178.7 197.35 178.75 198.55 178.75 199.45 178.05L198.9 176.85Q198.35 177.25 197.55 177.3 196.1 177.25 196.05 175.7L196.05 170.5 198.8 170.5 198.8 169.1 196.05 169.1 196.05 167M202.35 165Q201.3 165.1 201.2 166.15 201.3 167.15 202.35 167.25 203.45 167.15 203.55 166.1 203.45 165.1 202.35 165M182.85 170.2L183.6 171.5Q184.8 170.55 186.6 170.5 189.2 170.55 189.15 172.8L189.15 173.15 186.45 173.15Q182.4 173.4 182.6 175.95 182.75 178.6 186.15 178.75 188.4 178.7 189.25 177.35L189.25 178.65 190.9 178.65 190.9 172.85Q190.8 169 186.8 169 184.45 169 182.85 170.2M189.15 174.4L189.15 175.7Q188.45 177.4 186.4 177.4 184.4 177.35 184.3 175.85 184.15 174.5 186.5 174.4L189.15 174.4M192.1 138.45Q192.15 138.15 192.15 137.9 191.85 133.25 187.45 133 183 133.3 182.65 137.85 182.9 142.45 187.8 142.75 190.2 142.7 191.55 141.2L190.6 140.1Q189.5 141.25 187.85 141.25 184.85 141.1 184.4 138.45L192.1 138.45M190.5 137.2L184.4 137.2Q184.8 134.6 187.45 134.45 190.1 134.6 190.5 137.2M196.2 133.1L194.55 133.1 194.55 146.15 196.3 146.15 196.3 141.2Q197.55 142.75 199.6 142.75 204.1 142.5 204.45 137.85 204.1 133.25 199.6 133 197.45 133 196.2 134.6L196.2 133.1M199.45 141.25Q196.5 141.05 196.25 137.85 196.5 134.7 199.45 134.5 202.45 134.7 202.7 137.85 202.45 141.05 199.45 141.25M170.5 129.75Q169.75 129.2 168.55 129.2 165.45 129.35 165.4 132.3L165.4 133.15 163.8 133.15 163.8 134.55 165.4 134.55 165.4 142.65 167.15 142.65 167.15 134.55 169.9 134.55 169.9 133.15 167.1 133.15 167.1 132.3Q167.1 130.65 168.65 130.6 169.45 130.65 170 131.05L170.5 129.75M178 133.1L176.35 133.1 176.35 142.65 178.1 142.65 178.1 137.9Q178.2 134.7 181.1 134.65 181.25 134.65 181.5 134.65L181.5 133Q178.95 133 178 134.7L178 133.1M196.8 106.75Q199.45 106.7 200.7 104.7L199.35 103.85Q198.4 105.25 196.75 105.25 193.75 105.1 193.5 101.85 193.75 98.65 196.75 98.5 198.4 98.5 199.35 99.9L200.7 99.05Q199.45 97 196.8 97 192.05 97.3 191.75 101.85 192.05 106.45 196.8 106.75M226.1 133.1L224.5 133.1 224.5 134.5 226.1 134.5 226.1 139.75Q226.2 142.7 229.15 142.75 230.35 142.75 231.25 142.05L230.7 140.85Q230.15 141.25 229.35 141.3 227.9 141.25 227.85 139.7L227.85 134.5 230.6 134.5 230.6 133.1 227.85 133.1 227.85 131 226.1 131 226.1 133.1M236.4 134.5Q237.85 134.45 239.15 135.25L239.9 133.85Q238.5 133.05 236.45 133 232.6 133.15 232.45 135.85 232.85 138.4 235.45 138.55 238.1 138.65 238.5 139.95 238.55 141.2 236.2 141.25 234.25 141.2 232.85 140.25L232.15 141.6Q233.55 142.65 236.1 142.75 240.05 142.65 240.2 139.9 239.85 137.45 237.2 137.3 234.55 137.2 234.15 135.8 234.15 134.55 236.4 134.5M205.9 137.85Q206.25 142.45 210.85 142.75 215.5 142.45 215.8 137.85 215.5 133.3 210.85 133 206.25 133.3 205.9 137.85M210.85 141.25Q207.9 141.05 207.65 137.85 207.9 134.65 210.85 134.5 213.85 134.65 214.1 137.85 213.85 141.05 210.85 141.25M219.9 134.7L219.9 133.1 218.25 133.1 218.25 142.65 220 142.65 220 137.9Q220.1 134.7 223 134.65 223.15 134.65 223.4 134.65L223.4 133Q220.85 133 219.9 134.7M209.45 97.85Q208.05 97.05 206 97 202.15 97.15 202 99.85 202.4 102.4 205 102.55 207.65 102.65 208.05 103.95 208.1 105.2 205.75 105.25 203.8 105.2 202.4 104.25L201.7 105.6Q203.1 106.65 205.65 106.75 209.6 106.65 209.75 103.9 209.4 101.45 206.75 101.3 204.1 101.2 203.7 99.8 203.7 98.55 205.95 98.5 207.4 98.45 208.7 99.25L209.45 97.85M210.7 62.2L211.45 63.5Q212.65 62.55 214.45 62.5 217.05 62.55 217 64.8L217 65.15 214.3 65.15Q210.25 65.4 210.45 67.95 210.6 70.6 214 70.75 216.25 70.7 217.1 69.35L217.1 70.65 218.75 70.65 218.75 64.85Q218.65 61 214.65 61 212.3 61 210.7 62.2M217 66.4L217 67.7Q216.3 69.4 214.25 69.4 212.25 69.35 212.15 67.85 212 66.5 214.35 66.4L217 66.4M229.3 65.35L229.3 70.65 231 70.65 231 65.15Q230.75 60.95 227.05 61 224.7 61.05 223.6 62.55L223.6 61.1 221.95 61.1 221.95 70.65 223.7 70.65 223.7 65.7Q223.8 62.6 226.7 62.55 229.2 62.55 229.3 65.35M189.35 97.1L187.6 97.1 187.6 106.65 189.35 106.65 189.35 97.1M188.45 95.25Q189.55 95.15 189.65 94.1 189.55 93.1 188.45 93 187.4 93.1 187.3 94.15 187.4 95.15 188.45 95.25M178.8 98.5L180.4 98.5 180.4 103.75Q180.5 106.7 183.45 106.75 184.65 106.75 185.55 106.05L185 104.85Q184.4 105.25 183.65 105.3 182.2 105.25 182.15 103.7L182.15 98.5 184.9 98.5 184.9 97.1 182.15 97.1 182.15 95 180.4 95 180.4 97.1 178.8 97.1 178.8 98.5M166.55 93.3L164.8 93.3 164.8 106.65 166.55 106.65 166.55 93.3M169.95 97.1L168.15 97.1 172.35 106.6 172.05 107.3Q171.45 108.85 170.25 108.75 169.25 108.75 168.55 108.05L167.8 109.35Q168.8 110.25 170.25 110.25 172.4 110.45 173.65 107.6L178.3 97.1 176.6 97.1 173.3 104.75 169.95 97.1M165.2 68.1Q164.1 69.25 162.45 69.25 159.45 69.1 159 66.45L166.7 66.45Q166.75 66.15 166.75 65.9 166.45 61.25 162.05 61 157.6 61.3 157.25 65.85 157.5 70.45 162.4 70.75 164.8 70.7 166.15 69.2L165.2 68.1M162.05 62.45Q164.7 62.6 165.1 65.2L159 65.2Q159.4 62.6 162.05 62.45M171.1 61.1L171.1 59 169.35 59 169.35 61.1 167.75 61.1 167.75 62.5 169.35 62.5 169.35 67.75Q169.45 70.7 172.4 70.75 173.6 70.75 174.5 70.05L173.95 68.85Q173.4 69.25 172.6 69.3 171.15 69.25 171.1 67.7L171.1 62.5 173.85 62.5 173.85 61.1 171.1 61.1M178.35 61.1L176.6 61.1 176.6 70.65 178.35 70.65 178.35 61.1M177.45 59.25Q178.55 59.15 178.65 58.1 178.55 57.1 177.45 57 176.4 57.1 176.3 58.15 176.4 59.15 177.45 59.25M194.4 71.5L193.55 72.8Q195.3 74.2 198.1 74.25 203 74.3 203.05 69.35L203.05 61.1 201.4 61.1 201.4 62.55Q200.1 61 197.9 61 193.4 61.25 193.05 65.6 193.4 70 197.9 70.25 200 70.25 201.35 68.75L201.35 69.5Q201.4 72.75 198.05 72.7 195.8 72.65 194.4 71.5M198.1 62.5Q201.15 62.65 201.35 65.6 201.15 68.55 198.1 68.7 195 68.55 194.8 65.6 195 62.65 198.1 62.5M183.35 70.65L183.35 65.7Q183.45 62.6 186.35 62.55 188.85 62.55 188.95 65.35L188.95 70.65 190.65 70.65 190.65 65.15Q190.4 60.95 186.7 61 184.35 61.05 183.25 62.55L183.25 61.1 181.6 61.1 181.6 70.65 183.35 70.65M186.3 25.1L184.55 25.1 184.55 34.65 186.3 34.65 186.3 25.1M198.6 29.85Q198.3 25.3 193.65 25 189.05 25.3 188.7 29.85 189.05 34.45 193.65 34.75 198.3 34.45 198.6 29.85M196.85 29.85Q196.65 33.05 193.65 33.25 190.7 33.05 190.45 29.85 190.7 26.65 193.65 26.5 196.65 26.65 196.85 29.85M168.9 27.25L169.65 25.85Q168.25 25.05 166.2 25 162.35 25.15 162.2 27.85 162.6 30.4 165.2 30.55 167.85 30.65 168.25 31.95 168.3 33.2 165.95 33.25 164 33.2 162.6 32.25L161.9 33.6Q163.3 34.65 165.85 34.75 169.8 34.65 169.95 31.9 169.6 29.45 166.95 29.3 164.3 29.2 163.9 27.8 163.9 26.55 166.15 26.5 167.6 26.45 168.9 27.25M173.85 34.65L173.85 25.1 172.1 25.1 172.1 34.65 173.85 34.65M179.1 23L177.35 23 177.35 25.1 175.75 25.1 175.75 26.5 177.35 26.5 177.35 31.75Q177.45 34.7 180.4 34.75 181.6 34.75 182.5 34.05L181.95 32.85Q181.35 33.25 180.6 33.3 179.15 33.25 179.1 31.7L179.1 26.5 181.85 26.5 181.85 25.1 179.1 25.1 179.1 23M174.15 22.1Q174.05 21.1 172.95 21 171.9 21.1 171.8 22.15 171.9 23.15 172.95 23.25 174.05 23.15 174.15 22.1M186.6 22.1Q186.5 21.1 185.4 21 184.35 21.1 184.25 22.15 184.35 23.15 185.4 23.25 186.5 23.15 186.6 22.1M206.15 25Q203.8 25.05 202.7 26.55L202.7 25.1 201.05 25.1 201.05 34.65 202.8 34.65 202.8 29.7Q202.9 26.6 205.8 26.55 208.3 26.55 208.4 29.35L208.4 34.65 210.1 34.65 210.1 29.15Q209.85 24.95 206.15 25M302 67.85Q301.05 69.25 299.4 69.25 296.4 69.1 296.15 65.85 296.4 62.65 299.4 62.5 301.05 62.5 302 63.9L303.35 63.05Q302.1 61 299.45 61 294.7 61.3 294.4 65.85 294.7 70.45 299.45 70.75 302.1 70.7 303.35 68.7L302 67.85M311.35 64.8L311.35 65.15 308.65 65.15Q304.6 65.4 304.8 67.95 304.95 70.6 308.35 70.75 310.6 70.7 311.45 69.35L311.45 70.65 313.1 70.65 313.1 64.85Q313 61 309 61 306.65 61 305.05 62.2L305.8 63.5Q307 62.55 308.8 62.5 311.4 62.55 311.35 64.8M311.35 66.4L311.35 67.7Q310.65 69.4 308.6 69.4 306.6 69.35 306.5 67.85 306.35 66.5 308.7 66.4L311.35 66.4M317.95 61.1L316.3 61.1 316.3 74.15 318.05 74.15 318.05 69.2Q319.3 70.75 321.35 70.75 325.85 70.5 326.2 65.85 325.85 61.25 321.35 61 319.2 61 317.95 62.6L317.95 61.1M321.2 69.25Q318.25 69.05 318 65.85 318.25 62.7 321.2 62.5 324.2 62.7 324.45 65.85 324.2 69.05 321.2 69.25M251.6 58.05L251.6 70.65 260.25 70.65 260.25 69.1 253.4 69.1 253.4 58.05 251.6 58.05M243.25 70.65L243.25 57.3 241.5 57.3 241.5 62.55Q240.25 61 238.2 61.05 233.65 61.25 233.35 65.9 233.65 70.5 238.2 70.75 240.35 70.75 241.6 69.15L241.6 70.65 243.25 70.65M235.1 65.9Q235.35 62.7 238.3 62.55 241.3 62.7 241.55 65.9 241.3 69.1 238.3 69.25 235.35 69.1 235.1 65.9M278.35 69.2Q280.05 70.7 283.2 70.8 288.1 70.45 288.05 67.2 287.6 64.1 284.25 63.75 280.9 63.4 280.4 61.45 280.35 59.6 283.5 59.45 285.2 59.4 286.95 60.45L287.55 59Q285.85 57.9 283.5 57.9 278.6 58.25 278.65 61.5 279.15 64.65 282.5 65 285.8 65.35 286.3 67.3 286.35 69.1 283.2 69.25 280.6 69.15 279 67.8L278.35 69.2M275.7 58.05L274.2 58.05 269.05 66.9 263.8 58.05 262.3 58.05 262.3 70.65 264.05 70.65 264.05 61.55 268.6 69.1 269.4 69.1 273.95 61.45 274 70.65 275.7 70.65 275.7 58.05M358.45 242.7L358.45 241.1 356.8 241.1 356.8 250.65 358.55 250.65 358.55 245.9Q358.65 242.7 361.55 242.65 361.7 242.65 361.95 242.65L361.95 241Q359.4 241 358.45 242.7M349.7 241Q345.25 241.3 344.9 245.85 345.15 250.45 350.05 250.75 352.45 250.7 353.8 249.2L352.85 248.1Q351.75 249.25 350.1 249.25 347.1 249.1 346.65 246.45L354.35 246.45Q354.4 246.15 354.4 245.9 354.1 241.25 349.7 241M346.65 245.2Q347.05 242.6 349.7 242.45 352.35 242.6 352.75 245.2L346.65 245.2M331.3 242.55Q333.7 242.55 333.75 245.35L333.75 250.65 335.5 250.65 335.5 245.7Q335.6 242.6 338.35 242.55 340.75 242.55 340.8 245.35L340.8 250.65 342.55 250.65 342.55 245.15Q342.35 240.95 338.65 241 336.15 241.1 334.95 242.75 333.95 241 331.65 241 329.45 241.05 328.35 242.5L328.35 241.1 326.7 241.1 326.7 250.65 328.45 250.65 328.45 245.7Q328.55 242.6 331.3 242.55M330.8 205.1L329.15 205.1 325.8 212.75 322.5 205.1 320.7 205.1 324.9 214.65 326.65 214.65 330.8 205.1M342.6 202.15Q342.7 203.15 343.75 203.25 344.85 203.15 344.95 202.1 344.85 201.1 343.75 201 342.7 201.1 342.6 202.15M339.7 208.85Q339.6 205 335.6 205 333.25 205 331.65 206.2L332.4 207.5Q333.6 206.55 335.4 206.5 338 206.55 337.95 208.8L337.95 209.15 335.25 209.15Q331.2 209.4 331.4 211.95 331.55 214.6 334.95 214.75 337.2 214.7 338.05 213.35L338.05 214.65 339.7 214.65 339.7 208.85M337.95 211.7Q337.25 213.4 335.2 213.4 333.2 213.35 333.1 211.85 332.95 210.5 335.3 210.4L337.95 210.4 337.95 211.7M344.65 214.65L344.65 205.1 342.9 205.1 342.9 214.65 344.65 214.65M349.7 201.3L347.95 201.3 347.95 214.65 349.7 214.65 349.7 201.3M356.2 206.5Q358.8 206.55 358.75 208.8L358.75 209.15 356.05 209.15Q352 209.4 352.2 211.95 352.35 214.6 355.75 214.75 358 214.7 358.85 213.35L358.85 214.65 360.5 214.65 360.5 208.85Q360.4 205 356.4 205 354.05 205 352.45 206.2L353.2 207.5Q354.4 206.55 356.2 206.5M356.1 210.4L358.75 210.4 358.75 211.7Q358.05 213.4 356 213.4 354 213.35 353.9 211.85 353.75 210.5 356.1 210.4M393.7 241.1L392.05 241.1 392.05 254.15 393.8 254.15 393.8 249.2Q395.05 250.75 397.1 250.75 401.6 250.5 401.95 245.85 401.6 241.25 397.1 241 394.95 241 393.7 242.6L393.7 241.1M396.95 242.5Q399.95 242.7 400.2 245.85 399.95 249.05 396.95 249.25 394 249.05 393.75 245.85 394 242.7 396.95 242.5M381.45 241.1L379.8 241.1 379.8 254.15 381.55 254.15 381.55 249.2Q382.8 250.75 384.85 250.75 389.35 250.5 389.7 245.85 389.35 241.25 384.85 241 382.7 241 381.45 242.6L381.45 241.1M381.5 245.85Q381.75 242.7 384.7 242.5 387.7 242.7 387.95 245.85 387.7 249.05 384.7 249.25 381.75 249.05 381.5 245.85M369.3 243.5Q370.5 242.55 372.3 242.5 374.9 242.55 374.85 244.8L374.85 245.15 372.15 245.15Q368.1 245.4 368.3 247.95 368.45 250.6 371.85 250.75 374.1 250.7 374.95 249.35L374.95 250.65 376.6 250.65 376.6 244.85Q376.5 241 372.5 241 370.15 241 368.55 242.2L369.3 243.5M372.2 246.4L374.85 246.4 374.85 247.7Q374.15 249.4 372.1 249.4 370.1 249.35 370 247.85 369.85 246.5 372.2 246.4M368.75 205.05Q366.65 205 365.45 206.55L365.45 201.3 363.7 201.3 363.7 214.65 365.35 214.65 365.35 213.15Q366.6 214.75 368.75 214.75 373.25 214.5 373.6 209.9 373.25 205.25 368.75 205.05M365.4 209.9Q365.65 206.7 368.6 206.55 371.6 206.7 371.85 209.9 371.6 213.1 368.6 213.25 365.65 213.1 365.4 209.9M377.75 201.3L376 201.3 376 214.65 377.75 214.65 377.75 201.3M389.05 213.2L388.1 212.1Q387 213.25 385.35 213.25 382.35 213.1 381.9 210.45L389.6 210.45Q389.65 210.15 389.65 209.9 389.35 205.25 384.95 205 380.5 205.3 380.15 209.85 380.4 214.45 385.3 214.75 387.7 214.7 389.05 213.2M384.95 206.45Q387.6 206.6 388 209.2L381.9 209.2Q382.3 206.6 384.95 206.45M437.5 241.1L435.85 241.1 435.85 250.65 437.6 250.65 437.6 245.9Q437.7 242.7 440.6 242.65 440.75 242.65 441 242.65L441 241Q438.45 241 437.5 242.7L437.5 241.1M433.4 245.85Q433.1 241.3 428.45 241 423.85 241.3 423.5 245.85 423.85 250.45 428.45 250.75 433.1 250.45 433.4 245.85M428.45 242.5Q431.45 242.65 431.7 245.85 431.45 249.05 428.45 249.25 425.5 249.05 425.25 245.85 425.5 242.65 428.45 242.5M421.65 238.6Q422.45 238.65 423 239.05L423.5 237.75Q422.75 237.2 421.55 237.2 418.45 237.35 418.4 240.3L418.4 241.1 416.8 241.1 416.8 242.55 418.4 242.55 418.4 250.65 420.15 250.65 420.15 242.55 422.9 242.55 422.9 241.1 420.1 241.1 420.1 240.3Q420.1 238.65 421.65 238.6M408.15 245.3Q405.5 245.2 405.1 243.8 405.1 242.55 407.35 242.5 408.8 242.45 410.1 243.25L410.85 241.85Q409.45 241.05 407.4 241 403.55 241.15 403.4 243.85 403.8 246.4 406.4 246.55 409.05 246.65 409.45 247.95 409.5 249.2 407.15 249.25 405.2 249.2 403.8 248.25L403.1 249.6Q404.5 250.65 407.05 250.75 411 250.65 411.15 247.9 410.8 245.45 408.15 245.3M335.95 173.15Q335.7 168.95 332 169 329.65 169.05 328.55 170.55L328.55 169.1 326.9 169.1 326.9 178.65 328.65 178.65 328.65 173.7Q328.75 170.6 331.65 170.55 334.15 170.55 334.25 173.35L334.25 178.65 335.95 178.65 335.95 173.15M348.35 169.1L346.7 169.1 346.7 170.55Q345.4 169 343.2 169 338.7 169.25 338.35 173.6 338.7 178 343.2 178.25 345.3 178.25 346.65 176.75L346.65 177.5Q346.7 180.75 343.35 180.7 341.1 180.65 339.7 179.5L338.85 180.8Q340.6 182.2 343.4 182.25 348.3 182.3 348.35 177.35L348.35 169.1M343.4 176.7Q340.3 176.55 340.1 173.6 340.3 170.65 343.4 170.5 346.45 170.65 346.65 173.6 346.45 176.55 343.4 176.7M360.4 138.45Q360.45 138.15 360.45 137.9 360.15 133.25 355.75 133 351.3 133.3 350.95 137.85 351.2 142.45 356.1 142.75 358.5 142.7 359.85 141.2L358.9 140.1Q357.8 141.25 356.15 141.25 353.15 141.1 352.7 138.45L360.4 138.45M358.8 137.2L352.7 137.2Q353.1 134.6 355.75 134.45 358.4 134.6 358.8 137.2M328.8 140.1Q327.7 141.25 326.05 141.25 323.05 141.1 322.6 138.45L330.3 138.45Q330.35 138.15 330.35 137.9 330.05 133.25 325.65 133 321.2 133.3 320.85 137.85 321.1 142.45 326 142.75 328.4 142.7 329.75 141.2L328.8 140.1M325.65 134.45Q328.3 134.6 328.7 137.2L322.6 137.2Q323 134.6 325.65 134.45M334.4 134.5L334.4 133.1 332.75 133.1 332.75 142.65 334.5 142.65 334.5 137.7Q334.6 134.6 337.35 134.55 339.75 134.55 339.8 137.35L339.8 142.65 341.55 142.65 341.55 137.7Q341.65 134.6 344.4 134.55 346.8 134.55 346.85 137.35L346.85 142.65 348.6 142.65 348.6 137.15Q348.4 132.95 344.7 133 342.2 133.1 341 134.75 340 133 337.7 133 335.5 133.05 334.4 134.5M382.05 140.25L381.35 141.6Q382.75 142.65 385.3 142.75 389.25 142.65 389.4 139.9 389.05 137.45 386.4 137.3 383.75 137.2 383.35 135.8 383.35 134.55 385.6 134.5 387.05 134.45 388.35 135.25L389.1 133.85Q387.7 133.05 385.65 133 381.8 133.15 381.65 135.85 382.05 138.4 384.65 138.55 387.3 138.65 387.7 139.95 387.75 141.2 385.4 141.25 383.45 141.2 382.05 140.25M364.5 134.55L364.5 133.1 362.85 133.1 362.85 142.65 364.6 142.65 364.6 137.7Q364.7 134.6 367.6 134.55 370.1 134.55 370.2 137.35L370.2 142.65 371.9 142.65 371.9 137.15Q371.65 132.95 367.95 133 365.6 133.05 364.5 134.55M377.1 134.5L379.85 134.5 379.85 133.1 377.1 133.1 377.1 131 375.35 131 375.35 133.1 373.75 133.1 373.75 134.5 375.35 134.5 375.35 139.75Q375.45 142.7 378.4 142.75 379.6 142.75 380.5 142.05L379.95 140.85Q379.4 141.25 378.6 141.3 377.15 141.25 377.1 139.7L377.1 134.5M382.3 66.45Q382.35 66.15 382.35 65.9 382.05 61.25 377.65 61 373.2 61.3 372.85 65.85 373.1 70.45 378 70.75 380.4 70.7 381.75 69.2L380.8 68.1Q379.7 69.25 378.05 69.25 375.05 69.1 374.6 66.45L382.3 66.45M377.65 62.45Q380.3 62.6 380.7 65.2L374.6 65.2Q375 62.6 377.65 62.45M371.35 61.1L368.6 61.1 368.6 59 366.85 59 366.85 61.1 365.25 61.1 365.25 62.5 366.85 62.5 366.85 67.75Q366.95 70.7 369.9 70.75 371.1 70.75 372 70.05L371.45 68.85Q370.9 69.25 370.1 69.3 368.65 69.25 368.6 67.7L368.6 62.5 371.35 62.5 371.35 61.1M391.3 61.85Q389.9 61.05 387.85 61 384 61.15 383.85 63.85 384.25 66.4 386.85 66.55 389.5 66.65 389.9 67.95 389.95 69.2 387.6 69.25 385.65 69.2 384.25 68.25L383.55 69.6Q384.95 70.65 387.5 70.75 391.45 70.65 391.6 67.9 391.25 65.45 388.6 65.3 385.95 65.2 385.55 63.8 385.55 62.55 387.8 62.5 389.25 62.45 390.55 63.25L391.3 61.85M328 62.2L328.75 63.5Q329.95 62.55 331.75 62.5 334.35 62.55 334.3 64.8L334.3 65.15 331.6 65.15Q327.55 65.4 327.75 67.95 327.9 70.6 331.3 70.75 333.55 70.7 334.4 69.35L334.4 70.65 336.05 70.65 336.05 64.85Q335.95 61 331.95 61 329.6 61 328 62.2M331.55 69.4Q329.55 69.35 329.45 67.85 329.3 66.5 331.65 66.4L334.3 66.4 334.3 67.7Q333.6 69.4 331.55 69.4M344.3 70.75Q348.8 70.5 349.15 65.9 348.8 61.25 344.3 61.05 342.2 61 341 62.55L341 57.3 339.25 57.3 339.25 70.65 340.9 70.65 340.9 69.15Q342.15 70.75 344.3 70.75M340.95 65.9Q341.2 62.7 344.15 62.55 347.15 62.7 347.4 65.9 347.15 69.1 344.15 69.25 341.2 69.1 340.95 65.9M353.3 61.1L351.55 61.1 351.55 70.65 353.3 70.65 353.3 61.1M352.4 59.25Q353.5 59.15 353.6 58.1 353.5 57.1 352.4 57 351.35 57.1 351.25 58.15 351.35 59.15 352.4 59.25M363.6 58.1Q363.5 57.1 362.4 57 361.35 57.1 361.25 58.15 361.35 59.15 362.4 59.25 363.5 59.15 363.6 58.1M363.3 61.1L361.55 61.1 361.55 70.65 363.3 70.65 363.3 61.1M358.3 57.3L356.55 57.3 356.55 70.65 358.3 70.65 358.3 57.3Z"/><path fill="#31A52A" stroke="none" d="M9.35 306.5Q9.340 306.398 9.3 306.3 8.85 302.190 4.7 301.8 .4 302.2 0 306.5 .4 310.8 4.7 311.15 8.897 310.759 9.3 306.7 9.341 306.601 9.35 306.5M9.35 245.1L9.35 245.05Q9.339 244.948 9.3 244.85 8.824 240.788 4.7 240.4 .4 240.8 0 245.1 .4 249.4 4.7 249.75 8.923 249.357 9.3 245.25 9.343 245.175 9.35 245.1M9.35 208.5Q9.340 208.398 9.3 208.3 8.85 204.190 4.7 203.8 .4 204.2 0 208.5 .4 212.8 4.7 213.15 8.897 212.759 9.3 208.7 9.341 208.601 9.35 208.5M9.35 171.05Q9.339 170.948 9.3 170.85 8.824 166.788 4.7 166.4 .4 166.8 0 171.1 .4 175.4 4.7 175.75 8.923 175.357 9.3 171.25 9.343 171.175 9.35 171.1L9.35 171.05M9.3 137.5Q9.341 137.401 9.35 137.3 9.340 137.198 9.3 137.1 8.85 132.990 4.7 132.6 .4 133 0 137.3 .4 141.6 4.7 141.95 8.897 141.559 9.3 137.5M9.35 100.5Q9.340 100.398 9.3 100.3 8.85 96.190 4.7 95.8 .4 96.2 0 100.5 .4 104.8 4.7 105.15 8.897 104.759 9.3 100.7 9.341 100.601 9.35 100.5M9.35 65.05Q9.339 64.948 9.3 64.85 8.824 60.788 4.7 60.4 .4 60.8 0 65.1 .4 69.4 4.7 69.75 8.923 69.357 9.3 65.25 9.343 65.175 9.35 65.1L9.35 65.05M9.35 28.3Q9.340 28.198 9.3 28.1 8.85 23.990 4.7 23.6 .4 24 0 28.3 .4 32.6 4.7 32.95 8.897 32.559 9.3 28.5 9.341 28.401 9.35 28.3Z"/><path fill="#50504F" stroke="none" d="M37.25 306.5L37.25 306.3 9.3 306.3Q9.340 306.398 9.35 306.5L37.25 306.5M37.25 306.7L37.25 306.5 9.35 306.5Q9.341 306.601 9.3 306.7L37.25 306.7M9.3 244.85Q9.339 244.948 9.35 245.05L37.25 245.05 37.25 244.85 9.3 244.85M9.35 245.05L9.35 245.1Q9.343 245.175 9.3 245.25L37.25 245.25 37.25 245.05 9.35 245.05M37.25 208.5L37.25 208.3 9.3 208.3Q9.340 208.398 9.35 208.5L37.25 208.5M37.25 208.7L37.25 208.5 9.35 208.5Q9.341 208.601 9.3 208.7L37.25 208.7M37.25 171.05L37.25 170.85 9.3 170.85Q9.339 170.948 9.35 171.05L37.25 171.05M37.25 171.25L37.25 171.05 9.35 171.05 9.35 171.1Q9.343 171.175 9.3 171.25L37.25 171.25M9.3 137.1Q9.340 137.198 9.35 137.3L37.25 137.3 37.25 137.1 9.3 137.1M9.35 137.3Q9.341 137.401 9.3 137.5L37.25 137.5 37.25 137.3 9.35 137.3M37.25 100.5L37.25 100.3 9.3 100.3Q9.340 100.398 9.35 100.5L37.25 100.5M37.25 100.7L37.25 100.5 9.35 100.5Q9.341 100.601 9.3 100.7L37.25 100.7M37.25 65.05L37.25 64.85 9.3 64.85Q9.339 64.948 9.35 65.05L37.25 65.05M37.25 65.25L37.25 65.05 9.35 65.05 9.35 65.1Q9.343 65.175 9.3 65.25L37.25 65.25M9.35 28.3Q9.341 28.401 9.3 28.5L37.25 28.5 37.25 28.3 9.35 28.3M9.3 28.1Q9.340 28.198 9.35 28.3L37.25 28.3 37.25 28.1 9.3 28.1Z"/><path id="Layer1_0_1_STROKES" stroke="#FACA0E" stroke-width="2" stroke-linejoin="round" stroke-linecap="round" fill="none" d="M9.325 28.1Q9.340 28.198 9.35 28.3L37.25 28.3M9.325 28.1Q8.85 23.990 4.7 23.6 .4 24 0 28.3 .4 32.6 4.7 32.95 8.897 32.559 9.325 28.5 9.341 28.401 9.35 28.3M9.325 65.25Q8.923 69.357 4.7 69.75 .4 69.4 0 65.1 .4 60.8 4.7 60.4 8.824 60.788 9.325 64.85 9.339 64.948 9.35 65.05L37.25 65.05M9.35 65.05L9.35 65.1Q9.343 65.175 9.325 65.25M9.325 100.7Q8.897 104.759 4.7 105.15 .4 104.8 0 100.5 .4 96.2 4.7 95.8 8.85 96.190 9.325 100.3 9.340 100.398 9.35 100.5L37.25 100.5M9.35 100.5Q9.341 100.601 9.325 100.7M9.325 137.5Q9.341 137.401 9.35 137.3L37.25 137.3M9.35 137.3Q9.340 137.198 9.325 137.1 8.85 132.990 4.7 132.6 .4 133 0 137.3 .4 141.6 4.7 141.95 8.897 141.559 9.325 137.5M9.325 171.25Q8.923 175.357 4.7 175.75 .4 175.4 0 171.1 .4 166.8 4.7 166.4 8.824 166.788 9.325 170.85 9.339 170.948 9.35 171.05L37.25 171.05M9.35 171.05L9.35 171.1Q9.343 171.175 9.325 171.25M9.325 208.7Q8.897 212.759 4.7 213.15 .4 212.8 0 208.5 .4 204.2 4.7 203.8 8.85 204.190 9.325 208.3 9.340 208.398 9.35 208.5L37.25 208.5M9.35 208.5Q9.341 208.601 9.325 208.7M9.35 245.05L9.35 245.1Q9.343 245.175 9.325 245.25M37.25 245.05L9.35 245.05Q9.339 244.948 9.325 244.85 8.824 240.788 4.7 240.4 .4 240.8 0 245.1 .4 249.4 4.7 249.75 8.923 249.357 9.325 245.25M9.325 306.7Q8.897 310.759 4.7 311.15 .4 310.8 0 306.5 .4 302.2 4.7 301.8 8.85 302.190 9.325 306.3 9.340 306.398 9.35 306.5L37.25 306.5M9.35 306.5Q9.341 306.601 9.325 306.7"/></g></g></svg>