<?xml version="1.0" encoding="utf-8"?><svg id="18-MostAwardedIndianStockBrokingHouse" image-rendering="auto" baseProfile="basic" version="1.1" x="0px" y="0px" width="1180" height="543" xmlns="http://www.w3.org/2000/svg" xmlns:xlink="http://www.w3.org/1999/xlink"><g id="Scene-1r1" overflow="visible"><g id="Symbol-34" transform="translate(109.65 132.65)" opacity="0"><animate attributeName="opacity" dur="0.69s" keyTimes="0;.6;1" values="0;1;1" keySplines=".25 .5 .5 1;.1 .1 .9 .9" calcMode="spline" fill="freeze"/><path fill="#ECECEC" stroke="none" d="M204.75 205.8Q182 228.6 182 260.85 182 293.1 204.75 315.85 227.55 338.65 259.8 338.65 292.05 338.65 314.8 315.85 337.6 293.1 337.6 260.85 337.6 228.6 314.8 205.8 292.05 183.05 259.8 183.05 227.55 183.05 204.75 205.8M155.6 77.85Q155.6 45.6 132.8 22.8 110.05 .05 77.8 .05 45.55 .05 22.75 22.8 0 45.6 0 77.85 0 110.1 22.75 132.85 45.55 155.65 77.8 155.65 110.05 155.65 132.8 132.85 155.6 110.1 155.6 77.85M545.6 77.85Q545.6 45.6 522.8 22.8 500.05 .05 467.8 .05 435.55 .05 412.75 22.8 390 45.6 390 77.85 390 110.1 412.75 132.85 435.55 155.65 467.8 155.65 500.05 155.65 522.8 132.85 545.6 110.1 545.6 77.85M758.6 260.85Q758.6 228.6 735.8 205.8 713.05 183.05 680.8 183.05 648.55 183.05 625.75 205.8 603 228.6 603 260.85 603 293.1 625.75 315.85 648.55 338.65 680.8 338.65 713.05 338.65 735.8 315.85 758.6 293.1 758.6 260.85M953.55 77.85Q953.55 45.6 930.75 22.8 908 .05 875.75 .05 843.5 .05 820.7 22.8 797.95 45.6 797.95 77.85 797.95 110.1 820.7 132.85 843.5 155.65 875.75 155.65 908 155.65 930.75 132.85 953.55 110.1 953.55 77.85Z"/></g><g id="Symbol-33" transform="matrix(.1 0 0 .1 772.85 338.15)"><animateTransform attributeName="transform" additive="replace" type="translate" dur="0.69s" keyTimes="0;.6;1" values="791.498,351.049;791.5,351.05;791.5,351.05" keySplines=".25 .5 .5 1;.1 .1 .9 .9" calcMode="spline" fill="freeze"/><animateTransform attributeName="transform" additive="sum" type="scale" dur="0.69s" keyTimes="0;.6;1" values=".1,.1;1,1;1,1" keySplines=".25 .5 .5 1;.1 .1 .9 .9" calcMode="spline" fill="freeze"/><animateTransform attributeName="transform" additive="sum" type="translate" dur="0.69s" keyTimes="0;.6;1" values="-186.5,-129;-186.45,-129.25;-186.45,-129.25" keySplines=".25 .5 .5 1;.1 .1 .9 .9" calcMode="spline" fill="freeze"/><image overflow="visible" xlink:href="img/05Broking-House-with-Largest.png" height="209" width="174" transform="translate(99.45 0)"/><path fill="#404041" stroke="none" d="M232.1 291.2L232.1 293.15 233.25 293.15 233.25 297.6Q233.25 299.2 234.2 300.1 235.15 301 236.55 301.05 237.95 301.05 239.2 299.85L238.2 298Q237.7 298.65 236.9 298.65 236.55 298.65 236.25 298.35 235.95 298.05 235.95 297.5L235.95 293.15 238.3 293.15 238.3 291.2 235.95 291.2 235.95 288.3 233.25 288.3 233.25 291.2 232.1 291.2M222.6 292.4Q221.15 293.75 221.15 296.05 221.15 298.3 222.6 299.7 224.05 301.05 226.25 301.05 228.45 301.05 230.1 299.5L228.55 297.85Q227.65 298.8 226.25 298.8 225.35 298.8 224.65 298.3 223.95 297.8 223.8 297L230.85 297 230.85 295.55Q230.85 293.45 229.5 292.25 228.05 291.05 226.1 291.05 224.1 291.05 222.6 292.4M223.9 295.1Q224 294.25 224.65 293.75 225.3 293.3 226.15 293.3 226.95 293.3 227.5 293.75 228.05 294.2 228.15 295.1L223.9 295.1M209.9 288.3L207.25 288.3 207.25 300.9 210.05 300.9 210.05 293 216.05 300.9 218.85 300.9 218.85 288.3 216.05 288.3 216.05 296.4 209.9 288.3M218.75 264.85L216.05 264.85 216.05 274.55 218.75 274.55 218.75 264.85M218.95 262.5Q218.95 261.8 218.5 261.35 218.05 260.9 217.4 260.9 216.7 260.9 216.25 261.35 215.8 261.8 215.8 262.5 215.8 263.15 216.25 263.6 216.7 264.05 217.4 264.05 218.05 264.05 218.5 263.6 218.95 263.15 218.95 262.5M224.5 264.85L224.5 261.95 221.8 261.95 221.8 264.85 220.65 264.85 220.65 266.8 221.8 266.8 221.8 271.25Q221.8 272.85 222.75 273.75 223.7 274.65 225.1 274.7 226.5 274.7 227.75 273.5L226.75 271.65Q226.25 272.3 225.45 272.3 225.1 272.3 224.8 272 224.5 271.7 224.5 271.15L224.5 266.8 226.85 266.8 226.85 264.85 224.5 264.85M231.9 261.2L229.2 261.2 229.2 274.55 231.9 274.55 231.9 269.35Q231.9 268.2 232.5 267.6 233.1 267.05 233.9 267.05 235.55 267.05 235.55 269.25L235.55 274.55 238.25 274.55 238.25 268.65Q238.25 266.85 237.2 265.8 236.15 264.7 234.65 264.7 233.1 264.7 231.9 265.95L231.9 261.2M194.05 293.8Q194.65 293.2 195.45 293.2 197.1 293.2 197.1 295.4L197.1 300.9 199.8 300.9 199.8 295Q199.8 293.2 198.75 292.15 197.75 291.05 196.2 291.05 194.65 291.05 193.45 292.3L193.45 291.2 190.75 291.2 190.75 300.9 193.45 300.9 193.45 295.5Q193.45 294.35 194.05 293.8M179.95 292.5Q178.5 293.95 178.5 296.05 178.5 298.15 179.95 299.6 181.4 301.05 183.6 301.05 185.8 301.05 187.3 299.6 188.75 298.15 188.75 296.05 188.75 293.95 187.3 292.5 185.85 291.05 183.6 291.05 181.4 291.05 179.95 292.5M181.2 296.05Q181.2 294.85 181.9 294.1 182.55 293.35 183.6 293.35 184.65 293.35 185.35 294.1 186.05 294.85 186 296.05 186 297.25 185.35 298 184.7 298.75 183.6 298.75 182.55 298.75 181.9 298 181.2 297.25 181.2 296.05M176.5 291.2L173.8 291.2 173.8 300.9 176.5 300.9 176.5 291.2M175.15 290.4Q175.8 290.4 176.25 289.95 176.7 289.5 176.7 288.85 176.7 288.15 176.25 287.7 175.8 287.25 175.15 287.25 174.45 287.25 174 287.7 173.55 288.15 173.55 288.85 173.55 289.5 174 289.95 174.45 290.4 175.15 290.4M165.25 293.15L166.4 293.15 166.4 297.6Q166.4 299.2 167.35 300.1 168.3 301 169.7 301.05 171.1 301.05 172.35 299.85L171.35 298Q170.85 298.65 170.05 298.65 169.7 298.65 169.4 298.35 169.1 298.05 169.1 297.5L169.1 293.15 171.45 293.15 171.45 291.2 169.1 291.2 169.1 288.3 166.4 288.3 166.4 291.2 165.25 291.2 165.25 293.15M181.65 265.85Q179.95 264.7 178.25 264.7 176.5 264.7 175.45 265.55 174.35 266.4 174.35 267.75 174.35 269.1 175.45 269.75 176 270.1 176.4 270.3 176.85 270.45 177.65 270.7 178.45 270.95 178.85 271.25 179.3 271.55 179.3 271.9 179.3 272.2 179 272.45 178.7 272.65 178.15 272.65 176.45 272.65 174.95 271.45L173.75 273.15Q174.7 273.9 175.85 274.3 177.05 274.7 178.1 274.7 179.7 274.7 180.8 273.85 181.85 272.95 181.85 271.55 181.85 270.1 180.8 269.5 180.3 269.15 179.9 269 179.5 268.85 178.6 268.55 177.65 268.3 177.3 268.05 176.9 267.85 176.9 267.45 176.9 266.8 178.15 266.8 179.4 266.8 180.65 267.65L181.65 265.85M165.6 270.1L165.6 264.85 162.9 264.85 162.9 270.7Q162.9 272.65 164 273.7 165.05 274.65 166.65 274.7 168.25 274.7 169.25 273.25L169.25 274.55 171.95 274.55 171.95 264.85 169.25 264.85 169.25 270.05Q169.25 271.2 168.65 271.75 168.05 272.35 167.25 272.35 165.6 272.35 165.6 270.1M201.55 264.85L198.75 264.85 202.05 274.55 204.85 274.55 206.65 269.25 208.4 274.55 211.2 274.55 214.5 264.85 211.7 264.85 209.8 270.7 207.95 264.85 205.3 264.85 203.45 270.7 201.55 264.85M191.65 265.9Q190.3 264.7 188.3 264.7 186.3 264.7 184.8 266.05 183.35 267.4 183.35 269.7 183.35 271.95 184.8 273.35 186.25 274.7 188.45 274.7 190.65 274.7 192.3 273.15L190.75 271.5Q189.85 272.45 188.45 272.45 187.55 272.45 186.85 271.95 186.15 271.45 186 270.65L193.05 270.65 193.05 269.2Q193.1 267.1 191.65 265.9M186.1 268.75Q186.2 267.9 186.85 267.4 187.5 266.95 188.35 266.95 189.1 266.95 189.7 267.4 190.25 267.85 190.35 268.75L186.1 268.75M296.7 267.75Q296.7 269.1 297.8 269.75 298.35 270.1 298.75 270.3 299.2 270.45 300 270.7 300.8 270.95 301.2 271.25 301.65 271.55 301.65 271.9 301.65 272.2 301.35 272.45 301.05 272.65 300.5 272.65 298.8 272.65 297.3 271.45L296.1 273.15Q297.05 273.9 298.2 274.3 299.4 274.7 300.45 274.7 302.05 274.7 303.15 273.85 304.2 272.95 304.2 271.55 304.2 270.1 303.15 269.5 302.65 269.15 302.25 269 301.85 268.85 300.95 268.55 300 268.3 299.65 268.05 299.25 267.85 299.25 267.45 299.25 266.8 300.5 266.8 301.75 266.8 303 267.65L304 265.85Q302.3 264.7 300.6 264.7 298.85 264.7 297.8 265.55 296.7 266.4 296.7 267.75M293.6 265.9Q292.2 264.7 290.2 264.7 288.2 264.7 286.7 266.05 285.25 267.4 285.25 269.7 285.25 271.95 286.7 273.35 288.15 274.7 290.35 274.7 292.55 274.7 294.2 273.15L292.65 271.5Q291.75 272.45 290.35 272.45 289.45 272.45 288.75 271.95 288.05 271.45 287.9 270.65L294.95 270.65 294.95 269.2Q294.95 267.1 293.6 265.9M290.25 266.95Q291.05 266.95 291.6 267.4 292.15 267.85 292.25 268.75L288 268.75Q288.1 267.9 288.75 267.4 289.4 266.95 290.25 266.95M309.4 264.85L309.4 261.95 306.7 261.95 306.7 264.85 305.55 264.85 305.55 266.8 306.7 266.8 306.7 271.25Q306.7 272.85 307.65 273.75 308.6 274.65 310 274.7 311.4 274.7 312.65 273.5L311.65 271.65Q311.15 272.3 310.35 272.3 310 272.3 309.7 272 309.4 271.7 309.4 271.15L309.4 266.8 311.75 266.8 311.75 264.85 309.4 264.85M278.45 287.55L275.75 287.55 275.75 300.9 278.45 300.9 278.45 298.1 279.35 297.2 281.8 300.9 285 300.9 281.15 295.15 284.85 291.2 281.45 291.2 278.45 294.4 278.45 287.55M271.05 296.7Q271.05 295.3 271.65 294.45 272.25 293.6 273.45 293.6L273.95 293.6 273.95 291.05Q273.15 291.05 272.35 291.5 271.55 291.9 271.05 292.5L271.05 291.2 268.35 291.2 268.35 300.9 271.05 300.9 271.05 296.7M257.6 292.5Q256.15 293.95 256.15 296.05 256.15 298.15 257.6 299.6 259.05 301.05 261.25 301.05 263.45 301.05 264.95 299.6 266.4 298.15 266.4 296.05 266.4 293.95 264.95 292.5 263.5 291.05 261.25 291.05 259.05 291.05 257.6 292.5M258.85 296.05Q258.85 294.85 259.55 294.1 260.2 293.35 261.25 293.35 262.3 293.35 263 294.1 263.7 294.85 263.65 296.05 263.65 297.25 263 298 262.35 298.75 261.25 298.75 260.2 298.75 259.55 298 258.85 297.25 258.85 296.05M248.8 291.2L246.15 291.2 244.3 297.05 242.4 291.2 239.6 291.2 242.9 300.9 245.7 300.9 247.5 295.6 249.25 300.9 252.05 300.9 255.35 291.2 252.55 291.2 250.65 297.05 248.8 291.2M262.8 265.6Q261.65 264.7 259.9 264.7 257.45 264.7 255.55 266.1L256.75 267.85Q257.3 267.4 258.05 267.15 258.85 266.85 259.55 266.85 261.2 266.85 261.2 268.4L261.2 268.45 259.2 268.45Q257.3 268.45 256.25 269.2 255.15 269.95 255.15 271.4 255.15 272.9 256.2 273.8 257.25 274.7 258.8 274.7 260.3 274.7 261.35 273.4L261.35 274.55 263.9 274.55 263.9 268.35Q263.9 266.45 262.8 265.6M259.5 270.4L261.2 270.4 261.2 270.85Q261.2 271.6 260.65 272.05 260.1 272.45 259.35 272.5 258.65 272.45 258.25 272.2 257.85 271.9 257.85 271.4 257.85 270.4 259.5 270.4M248.5 272.05L248.5 261.95 245.7 261.95 245.7 274.55 253.85 274.55 253.85 272.05 248.5 272.05M283.2 264.85L280.5 264.85 280.5 266.1Q279.4 264.7 277.65 264.7 275.95 264.7 274.6 266.1 273.25 267.45 273.25 269.6 273.25 271.75 274.55 273.05 275.85 274.35 277.75 274.35 279.65 274.35 280.95 272.9 280.95 274.5 280.05 275.25 279.2 276 277.7 276 276.25 276 274.9 275L273.85 277Q274.7 277.65 275.85 278 276.95 278.35 278.05 278.35 280.1 278.35 281.55 277.15 282.35 276.6 282.75 275.6 283.25 274.6 283.2 273.3L283.2 264.85M276.65 267.65Q277.35 267 278.3 267 279.25 267 279.9 267.65 280.55 268.35 280.55 269.5 280.55 270.65 279.9 271.35 279.25 272.05 278.3 272.05 277.3 272.05 276.65 271.35 275.95 270.65 275.95 269.5 275.95 268.35 276.65 267.65M271.95 264.7Q271.15 264.7 270.35 265.15 269.55 265.55 269.05 266.15L269.05 264.85 266.35 264.85 266.35 274.55 269.05 274.55 269.05 270.35Q269.05 268.95 269.65 268.1 270.25 267.25 271.45 267.25L271.95 267.25 271.95 264.7M80.05 264.7Q79.25 264.7 78.45 265.15 77.65 265.55 77.15 266.15L77.15 264.85 74.45 264.85 74.45 274.55 77.15 274.55 77.15 270.35Q77.15 268.95 77.75 268.1 78.35 267.25 79.55 267.25L80.05 267.25 80.05 264.7M69.45 262.25Q68.5 261.95 67.25 261.95L62.35 261.95 62.35 274.55 67.85 274.55Q70.45 274.55 71.5 273.35 72.4 272.35 72.4 271.05 72.4 269.85 71.7 269.05 71 268.25 69.85 268 70.15 267.85 70.3 267.8 70.4 267.7 70.75 267.5 71.7 266.75 71.7 265.3 71.7 264.05 70.85 263.1 70.4 262.55 69.45 262.25M66.5 264.35Q67.75 264.3 68.25 264.6 68.8 264.85 68.8 265.7 68.8 266.55 68.25 266.8 67.65 267.05 66.5 267.05L65.15 267.05 65.15 264.35 66.5 264.35M65.15 272.15L65.15 269.25 66.8 269.25Q68.2 269.25 68.85 269.55 69.5 269.8 69.5 270.7 69.5 271.55 68.9 271.85 68.3 272.15 67.1 272.15L65.15 272.15M156.95 291.2L154.25 291.2 154.25 297.05Q154.25 299 155.35 300.05 156.4 301 158 301.05 159.6 301.05 160.6 299.6L160.6 300.9 163.3 300.9 163.3 291.2 160.6 291.2 160.6 296.4Q160.6 297.55 160 298.1 159.4 298.7 158.6 298.7 156.95 298.7 156.95 296.45L156.95 291.2M151 292.45Q149.7 291.05 147.95 291.05 146.15 291.05 145.05 292.3L145.05 287.55 142.35 287.55 142.35 300.9 145.05 300.9 145.05 299.65Q146.2 301.05 147.9 301.05 149.65 301.05 150.95 299.6 152.35 298.15 152.3 295.95 152.35 293.8 151 292.45M148.9 294.1Q149.6 294.9 149.6 296.1 149.6 297.25 148.9 298 148.2 298.75 147.25 298.75 146.35 298.75 145.65 298 145 297.25 145 296.05 145 294.9 145.65 294.1 146.3 293.3 147.3 293.35 148.25 293.35 148.9 294.1M139.85 291.2L137.15 291.2 137.15 300.9 139.85 300.9 139.85 291.2M135.3 293.6L135.3 291.05Q134.5 291.05 133.7 291.5 132.9 291.9 132.4 292.5L132.4 291.2 129.7 291.2 129.7 300.9 132.4 300.9 132.4 296.7Q132.4 295.3 133 294.45 133.6 293.6 134.8 293.6L135.3 293.6M138.5 290.4Q139.15 290.4 139.6 289.95 140.05 289.5 140.05 288.85 140.05 288.15 139.6 287.7 139.15 287.25 138.5 287.25 137.8 287.25 137.35 287.7 136.9 288.15 136.9 288.85 136.9 289.5 137.35 289.95 137.8 290.4 138.5 290.4M130.3 264.85L127.6 264.85 127.6 266.1Q126.5 264.7 124.75 264.7 123.05 264.7 121.7 266.1 120.35 267.45 120.35 269.6 120.35 271.75 121.65 273.05 122.95 274.35 124.85 274.35 126.75 274.35 128.05 272.9 128.05 274.5 127.15 275.25 126.3 276 124.8 276 123.35 276 122 275L120.95 277Q121.8 277.65 122.95 278 124.05 278.35 125.15 278.35 127.2 278.35 128.65 277.15 129.45 276.6 129.85 275.6 130.35 274.6 130.3 273.3L130.3 264.85M123.05 269.5Q123.05 268.35 123.75 267.65 124.45 267 125.4 267 126.35 267 127 267.65 127.65 268.35 127.65 269.5 127.65 270.65 127 271.35 126.35 272.05 125.4 272.05 124.4 272.05 123.75 271.35 123.05 270.65 123.05 269.5M161.05 269.7Q161.05 267.6 159.6 266.15 158.15 264.7 155.9 264.7 153.7 264.7 152.25 266.15 150.8 267.6 150.8 269.7 150.8 271.8 152.25 273.25 153.7 274.7 155.9 274.7 158.1 274.7 159.6 273.25 161.05 271.8 161.05 269.7M154.2 267.75Q154.85 267 155.9 267 156.95 267 157.65 267.75 158.35 268.5 158.3 269.7 158.3 270.9 157.65 271.65 157 272.4 155.9 272.4 154.85 272.4 154.2 271.65 153.5 270.9 153.5 269.7 153.5 268.5 154.2 267.75M148.5 261.95L145.7 261.95 145.7 267.2 140.7 267.2 140.7 261.95 137.9 261.95 137.9 274.55 140.7 274.55 140.7 269.6 145.7 269.6 145.7 274.55 148.5 274.55 148.5 261.95M121.15 291.2L121.15 293.15 122.3 293.15 122.3 297.6Q122.3 299.2 123.25 300.1 124.2 301 125.6 301.05 127 301.05 128.25 299.85L127.25 298Q126.75 298.65 125.95 298.65 125.6 298.65 125.3 298.35 125 298.05 125 297.5L125 293.15 127.35 293.15 127.35 291.2 125 291.2 125 288.3 122.3 288.3 122.3 291.2 121.15 291.2M116.2 291.05Q114.45 291.05 113.4 291.9 112.3 292.75 112.3 294.1 112.3 295.45 113.4 296.1 113.95 296.45 114.35 296.65 114.8 296.8 115.6 297.05 116.4 297.3 116.8 297.6 117.25 297.9 117.25 298.25 117.25 298.55 116.95 298.8 116.65 299 116.1 299 114.4 299 112.9 297.8L111.7 299.5Q112.65 300.25 113.8 300.65 115 301.05 116.05 301.05 117.65 301.05 118.75 300.2 119.8 299.3 119.8 297.9 119.8 296.45 118.75 295.85 118.25 295.5 117.85 295.35 117.45 295.2 116.55 294.9 115.6 294.65 115.25 294.4 114.85 294.2 114.85 293.8 114.85 293.15 116.1 293.15 117.35 293.15 118.6 294L119.6 292.2Q117.9 291.05 116.2 291.05M109.95 291.2L107.25 291.2 107.25 300.9 109.95 300.9 109.95 291.2M109.7 287.7Q109.25 287.25 108.6 287.25 107.9 287.25 107.45 287.7 107 288.15 107 288.85 107 289.5 107.45 289.95 107.9 290.4 108.6 290.4 109.25 290.4 109.7 289.95 110.15 289.5 110.15 288.85 110.15 288.15 109.7 287.7M98.25 288.3L93.8 288.3 93.8 300.9 98.1 300.9Q101.7 300.9 103.45 299.15 105.2 297.45 105.2 294.55 105.2 291.6 103.4 289.95 101.6 288.3 98.25 288.3M96.6 290.75L98.15 290.75Q100.3 290.75 101.35 291.75 102.4 292.75 102.4 294.6 102.4 296.45 101.35 297.45 100.3 298.4 98.4 298.4L96.6 298.4 96.6 290.75M96.1 268.05L96.1 261.2 93.4 261.2 93.4 274.55 96.1 274.55 96.1 271.75 97 270.85 99.45 274.55 102.65 274.55 98.8 268.8 102.5 264.85 99.1 264.85 96.1 268.05M82.6 266.15Q81.15 267.6 81.15 269.7 81.15 271.8 82.6 273.25 84.05 274.7 86.25 274.7 88.45 274.7 89.95 273.25 91.4 271.8 91.4 269.7 91.4 267.6 89.95 266.15 88.5 264.7 86.25 264.7 84.05 264.7 82.6 266.15M83.85 269.7Q83.85 268.5 84.55 267.75 85.2 267 86.25 267 87.3 267 88 267.75 88.7 268.5 88.65 269.7 88.65 270.9 88 271.65 87.35 272.4 86.25 272.4 85.2 272.4 84.55 271.65 83.85 270.9 83.85 269.7M117.35 265.8Q116.35 264.7 114.8 264.7 113.25 264.7 112.05 265.95L112.05 264.85 109.35 264.85 109.35 274.55 112.05 274.55 112.05 269.15Q112.05 268 112.65 267.45 113.25 266.85 114.05 266.85 115.7 266.85 115.7 269.05L115.7 274.55 118.4 274.55 118.4 268.65Q118.4 266.85 117.35 265.8M106.85 264.85L104.15 264.85 104.15 274.55 106.85 274.55 106.85 264.85M107.05 262.5Q107.05 261.8 106.6 261.35 106.15 260.9 105.5 260.9 104.8 260.9 104.35 261.35 103.9 261.8 103.9 262.5 103.9 263.15 104.35 263.6 104.8 264.05 105.5 264.05 106.15 264.05 106.6 263.6 107.05 263.15 107.05 262.5Z"/></g><g id="Symbol-32" transform="matrix(.1 0 0 .1 356.85 337.6)"><animateTransform attributeName="transform" additive="replace" type="translate" dur="0.69s" keyTimes="0;.6;1" values="375.503,350.549;375.5,350.55;375.5,350.55" keySplines=".25 .5 .5 1;.1 .1 .9 .9" calcMode="spline" fill="freeze"/><animateTransform attributeName="transform" additive="sum" type="scale" dur="0.69s" keyTimes="0;.6;1" values=".1,.1;1,1;1,1" keySplines=".25 .5 .5 1;.1 .1 .9 .9" calcMode="spline" fill="freeze"/><animateTransform attributeName="transform" additive="sum" type="translate" dur="0.69s" keyTimes="0;.6;1" values="-186.55,-129.5;-186.45,-129.75;-186.45,-129.75" keySplines=".25 .5 .5 1;.1 .1 .9 .9" calcMode="spline" fill="freeze"/><image overflow="visible" xlink:href="img/04Best-Contribution-in-Investor-Education.png" height="209" width="174" transform="translate(99.45 0)"/><path fill="#404041" stroke="none" d="M237.5 290.7L234.8 290.7 234.8 304.05 237.5 304.05 237.5 298.85Q237.5 297.7 238.1 297.1 238.7 296.55 239.5 296.55 241.15 296.55 241.15 298.75L241.15 304.05 243.85 304.05 243.85 298.15Q243.85 296.35 242.8 295.3 241.75 294.2 240.25 294.2 238.7 294.2 237.5 295.45L237.5 290.7M226.6 296.95Q227.2 296.35 228 296.35 229.65 296.35 229.65 298.55L229.65 304.05 232.35 304.05 232.35 298.15Q232.35 296.35 231.3 295.3 230.3 294.2 228.75 294.2 227.2 294.2 226 295.45L226 294.35 223.3 294.35 223.3 304.05 226 304.05 226 298.65Q226 297.5 226.6 296.95M214.7 293.95L220.95 293.95 220.95 291.45 211.9 291.45 211.9 304.05 221.15 304.05 221.15 301.55 214.7 301.55 214.7 298.95 220.35 298.95 220.35 296.55 214.7 296.55 214.7 293.95M221.4 268.95Q220.4 267.85 218.85 267.85 217.3 267.85 216.1 269.1L216.1 268 213.4 268 213.4 277.7 216.1 277.7 216.1 272.3Q216.1 271.15 216.7 270.6 217.3 270 218.1 270 219.75 270 219.75 272.2L219.75 277.7 222.45 277.7 222.45 271.8Q222.45 270 221.4 268.95M210.85 268L208.15 268 208.15 277.7 210.85 277.7 210.85 268M211.05 265.65Q211.05 264.95 210.6 264.5 210.15 264.05 209.5 264.05 208.8 264.05 208.35 264.5 207.9 264.95 207.9 265.65 207.9 266.3 208.35 266.75 208.8 267.2 209.5 267.2 210.15 267.2 210.6 266.75 211.05 266.3 211.05 265.65M232.75 265.1L229.95 265.1 229.95 277.7 232.75 277.7 232.75 265.1M197.95 294.35L195.05 294.35Q198.8 303.8 198.8 304.2 198.8 304.65 198.5 305 198.25 305.35 197.9 305.35 197.15 305.35 196.45 304.7L195.25 306.7Q196.5 307.85 197.95 307.85 198.95 307.85 199.8 307.3 200.6 306.75 201.05 305.75L205.55 294.35 202.65 294.35 200.3 300.4 197.95 294.35M191.55 294.35L188.85 294.35 188.85 304.05 191.55 304.05 191.55 299.85Q191.55 298.45 192.15 297.6 192.75 296.75 193.95 296.75L194.45 296.75 194.45 294.2Q193.65 294.2 192.85 294.65 192.05 295.05 191.55 295.65L191.55 294.35M181.7 294.2Q179.5 294.2 178.05 295.65 176.6 297.1 176.6 299.2 176.6 301.3 178.05 302.75 179.5 304.2 181.7 304.2 183.9 304.2 185.4 302.75 186.85 301.3 186.85 299.2 186.85 297.1 185.4 295.65 183.95 294.2 181.7 294.2M183.45 297.25Q184.15 298 184.1 299.2 184.1 300.4 183.45 301.15 182.8 301.9 181.7 301.9 180.65 301.9 180 301.15 179.3 300.4 179.3 299.2 179.3 298 180 297.25 180.65 296.5 181.7 296.5 182.75 296.5 183.45 297.25M169.05 294.2Q167.35 294.2 166 295.6 164.65 296.95 164.65 299.1 164.65 301.25 165.95 302.55 167.25 303.85 169.15 303.85 171.05 303.85 172.35 302.4 172.35 304 171.45 304.75 170.6 305.5 169.1 305.5 167.65 305.5 166.3 304.5L165.25 306.5Q166.1 307.15 167.25 307.5 168.35 307.85 169.45 307.85 171.5 307.85 172.95 306.65 173.75 306.1 174.15 305.1 174.65 304.1 174.6 302.8L174.6 294.35 171.9 294.35 171.9 295.6Q170.8 294.2 169.05 294.2M171.95 299Q171.95 300.15 171.3 300.85 170.65 301.55 169.7 301.55 168.7 301.55 168.05 300.85 167.35 300.15 167.35 299 167.35 297.85 168.05 297.15 168.75 296.5 169.7 296.5 170.65 296.5 171.3 297.15 171.95 297.85 171.95 299M177.65 268L174.95 268 174.95 277.7 177.65 277.7 177.65 268M177.85 265.65Q177.85 264.95 177.4 264.5 176.95 264.05 176.3 264.05 175.6 264.05 175.15 264.5 174.7 264.95 174.7 265.65 174.7 266.3 175.15 266.75 175.6 267.2 176.3 267.2 176.95 267.2 177.4 266.75 177.85 266.3 177.85 265.65M166.4 268L166.4 269.95 167.55 269.95 167.55 274.4Q167.55 276 168.5 276.9 169.45 277.8 170.85 277.85 172.25 277.85 173.5 276.65L172.5 274.8Q172 275.45 171.2 275.45 170.85 275.45 170.55 275.15 170.25 274.85 170.25 274.3L170.25 269.95 172.6 269.95 172.6 268 170.25 268 170.25 265.1 167.55 265.1 167.55 268 166.4 268M194.6 269.1L194.6 268 191.9 268 191.9 277.7 194.6 277.7 194.6 272.3Q194.6 271.15 195.2 270.6 195.8 270 196.6 270 198.25 270 198.25 272.2L198.25 277.7 200.95 277.7 200.95 271.8Q200.95 270 199.9 268.95 198.9 267.85 197.35 267.85 195.8 267.85 194.6 269.1M188.45 269.3Q187 267.85 184.75 267.85 182.55 267.85 181.1 269.3 179.65 270.75 179.65 272.85 179.65 274.95 181.1 276.4 182.55 277.85 184.75 277.85 186.95 277.85 188.45 276.4 189.9 274.95 189.9 272.85 189.9 270.75 188.45 269.3M184.75 270.15Q185.8 270.15 186.5 270.9 187.2 271.65 187.15 272.85 187.15 274.05 186.5 274.8 185.85 275.55 184.75 275.55 183.7 275.55 183.05 274.8 182.35 274.05 182.35 272.85 182.35 271.65 183.05 270.9 183.7 270.15 184.75 270.15M315.55 295.4Q314.2 294.2 312.2 294.2 310.2 294.2 308.7 295.55 307.25 296.9 307.25 299.2 307.25 301.45 308.7 302.85 310.15 304.2 312.35 304.2 314.55 304.2 316.2 302.65L314.65 301Q313.75 301.95 312.35 301.95 311.45 301.95 310.75 301.45 310.05 300.95 309.9 300.15L316.95 300.15 316.95 298.7Q317 296.6 315.55 295.4M312.25 296.45Q313 296.45 313.6 296.9 314.15 297.35 314.25 298.25L310 298.25Q310.1 297.4 310.75 296.9 311.4 296.45 312.25 296.45M292.8 294.35L290.1 294.35 290.1 304.05 292.8 304.05 292.8 298.85Q292.8 297.7 293.4 297.1 294 296.55 294.8 296.5 295.6 296.5 295.9 297.05 296.3 297.6 296.25 298.75L296.25 304.05 299 304.05 299 298.85Q299 297.7 299.6 297.1 300.2 296.55 301 296.5 302.6 296.5 302.65 298.75L302.65 304.05 305.35 304.05 305.35 298.15Q305.35 296.25 304.3 295.2 303.25 294.2 301.55 294.2 300.6 294.2 299.65 294.7 298.7 295.15 298.15 296.05 297.75 295.3 297 294.75 296.3 294.2 295.35 294.2 293.9 294.2 292.8 295.45L292.8 294.35M299.95 269.3L299.95 268 297.25 268 297.25 277.7 299.95 277.7 299.95 273.5Q299.95 272.1 300.55 271.25 301.15 270.4 302.35 270.4L302.85 270.4 302.85 267.85Q302.05 267.85 301.25 268.3 300.45 268.7 299.95 269.3M290.15 267.85Q287.95 267.85 286.5 269.3 285.05 270.75 285.05 272.85 285.05 274.95 286.5 276.4 287.95 277.85 290.15 277.85 292.35 277.85 293.85 276.4 295.3 274.95 295.3 272.85 295.3 270.75 293.85 269.3 292.4 267.85 290.15 267.85M288.45 270.9Q289.1 270.15 290.15 270.15 291.2 270.15 291.9 270.9 292.6 271.65 292.55 272.85 292.55 274.05 291.9 274.8 291.25 275.55 290.15 275.55 289.1 275.55 288.45 274.8 287.75 274.05 287.75 272.85 287.75 271.65 288.45 270.9M283.4 294.2Q281.4 294.2 279.9 295.55 278.45 296.9 278.45 299.2 278.45 301.45 279.9 302.85 281.35 304.2 283.55 304.2 285.75 304.2 287.4 302.65L285.85 301Q284.95 301.95 283.55 301.95 282.65 301.95 281.95 301.45 281.25 300.95 281.1 300.15L288.15 300.15 288.15 298.7Q288.15 296.6 286.8 295.4 285.4 294.2 283.4 294.2M281.95 296.9Q282.6 296.45 283.45 296.45 284.25 296.45 284.8 296.9 285.35 297.35 285.45 298.25L281.2 298.25Q281.3 297.4 281.95 296.9M273.1 294.2Q271 294.2 269.45 295.6 267.95 297 267.95 299.2 267.95 301.45 269.45 302.8 270.95 304.2 273.15 304.2 275.3 304.2 277.2 302.25L275.6 300.45Q274.5 301.8 273.15 301.8 272.15 301.8 271.35 301.1 270.6 300.45 270.6 299.2 270.6 297.95 271.35 297.25 272.1 296.55 273.2 296.6 273.85 296.55 274.55 296.9 275.2 297.2 275.65 297.75L277.1 295.9Q276.25 295.05 275.2 294.65 274.1 294.2 273.1 294.2M260.3 296.95Q260.9 296.35 261.7 296.35 263.35 296.35 263.35 298.55L263.35 304.05 266.05 304.05 266.05 298.15Q266.05 296.35 265 295.3 264 294.2 262.45 294.2 260.9 294.2 259.7 295.45L259.7 294.35 257 294.35 257 304.05 259.7 304.05 259.7 298.65Q259.7 297.5 260.3 296.95M248.7 296.65Q249.5 296.35 250.2 296.35 251.85 296.35 251.85 297.9L251.85 297.95 249.85 297.95Q247.95 297.95 246.9 298.7 245.8 299.45 245.8 300.9 245.8 302.4 246.85 303.3 247.9 304.2 249.45 304.2 250.95 304.2 252 302.9L252 304.05 254.55 304.05 254.55 297.85Q254.55 295.95 253.45 295.1 252.3 294.2 250.55 294.2 248.1 294.2 246.2 295.6L247.4 297.35Q247.95 296.9 248.7 296.65M250 302Q249.3 301.95 248.9 301.7 248.5 301.4 248.5 300.9 248.5 299.9 250.15 299.9L251.85 299.9 251.85 300.35Q251.85 301.1 251.3 301.55 250.75 301.95 250 302M256.05 268L253.25 268 250.8 274.1 248.4 268 245.6 268 249.45 277.7 252.2 277.7 256.05 268M261.75 267.85Q259.75 267.85 258.25 269.2 256.8 270.55 256.8 272.85 256.8 275.1 258.25 276.5 259.7 277.85 261.9 277.85 264.1 277.85 265.75 276.3L264.2 274.65Q263.3 275.6 261.9 275.6 261 275.6 260.3 275.1 259.6 274.6 259.45 273.8L266.5 273.8 266.5 272.35Q266.5 270.25 265.15 269.05 263.7 267.85 261.75 267.85M260.3 270.55Q260.95 270.1 261.8 270.1 262.6 270.1 263.15 270.55 263.7 271 263.8 271.9L259.55 271.9Q259.65 271.05 260.3 270.55M244.5 271.8Q244.5 270 243.45 268.95 242.45 267.85 240.9 267.85 239.35 267.85 238.15 269.1L238.15 268 235.45 268 235.45 277.7 238.15 277.7 238.15 272.3Q238.15 271.15 238.75 270.6 239.35 270 240.15 270 241.8 270 241.8 272.2L241.8 277.7 244.5 277.7 244.5 271.8M277.15 269.95L278.3 269.95 278.3 274.4Q278.3 276 279.25 276.9 280.2 277.8 281.6 277.85 283 277.85 284.25 276.65L283.25 274.8Q282.75 275.45 281.95 275.45 281.6 275.45 281.3 275.15 281 274.85 281 274.3L281 269.95 283.35 269.95 283.35 268 281 268 281 265.1 278.3 265.1 278.3 268 277.15 268 277.15 269.95M272.2 267.85Q270.45 267.85 269.4 268.7 268.3 269.55 268.3 270.9 268.3 272.25 269.4 272.9 269.95 273.25 270.35 273.45 270.8 273.6 271.6 273.85 272.4 274.1 272.8 274.4 273.25 274.7 273.25 275.05 273.25 275.35 272.95 275.6 272.65 275.8 272.1 275.8 270.4 275.8 268.9 274.6L267.7 276.3Q268.65 277.05 269.8 277.45 271 277.85 272.05 277.85 273.65 277.85 274.75 277 275.8 276.1 275.8 274.7 275.8 273.25 274.75 272.65 274.25 272.3 273.85 272.15 273.45 272 272.55 271.7 271.6 271.45 271.25 271.2 270.85 271 270.85 270.6 270.85 269.95 272.1 269.95 273.35 269.95 274.6 270.8L275.6 269Q273.9 267.85 272.2 267.85M74.65 294.35L71.95 294.35 71.95 304.05 74.65 304.05 74.65 294.35M73.3 293.55Q73.95 293.55 74.4 293.1 74.85 292.65 74.85 292 74.85 291.3 74.4 290.85 73.95 290.4 73.3 290.4 72.6 290.4 72.15 290.85 71.7 291.3 71.7 292 71.7 292.65 72.15 293.1 72.6 293.55 73.3 293.55M63.4 296.3L64.55 296.3 64.55 300.75Q64.55 302.35 65.5 303.25 66.45 304.15 67.85 304.2 69.25 304.2 70.5 303L69.5 301.15Q69 301.8 68.2 301.8 67.85 301.8 67.55 301.5 67.25 301.2 67.25 300.65L67.25 296.3 69.6 296.3 69.6 294.35 67.25 294.35 67.25 291.45 64.55 291.45 64.55 294.35 63.4 294.35 63.4 296.3M60.55 295.1Q59.4 294.2 57.65 294.2 55.2 294.2 53.3 295.6L54.5 297.35Q55.05 296.9 55.85 296.65 56.6 296.35 57.3 296.35 58.95 296.35 58.95 297.9L58.95 297.95 56.95 297.95Q55.05 297.95 54 298.7 52.9 299.45 52.9 300.9 52.9 302.4 53.95 303.3 55 304.2 56.55 304.2 58.05 304.2 59.1 302.9L59.1 304.05 61.65 304.05 61.65 297.85Q61.65 295.95 60.55 295.1M58.4 301.55Q57.85 301.95 57.1 302 56.4 301.95 56 301.7 55.6 301.4 55.6 300.9 55.6 299.9 57.25 299.9L58.95 299.9 58.95 300.35Q58.95 301.1 58.4 301.55M47.65 296.6Q48.3 296.55 49 296.9 49.65 297.2 50.1 297.75L51.55 295.9Q50.7 295.05 49.65 294.65 48.55 294.2 47.55 294.2 45.45 294.2 43.9 295.6 42.4 297 42.4 299.2 42.4 301.45 43.9 302.8 45.4 304.2 47.6 304.2 49.75 304.2 51.65 302.25L50.05 300.45Q48.95 301.8 47.6 301.8 46.6 301.8 45.8 301.1 45.05 300.45 45.05 299.2 45.05 297.95 45.8 297.25 46.55 296.55 47.65 296.6M58.45 267.85Q56.45 267.85 54.95 269.2 53.5 270.55 53.5 272.85 53.5 275.1 54.95 276.5 56.4 277.85 58.6 277.85 60.8 277.85 62.45 276.3L60.9 274.65Q60 275.6 58.6 275.6 57.7 275.6 57 275.1 56.3 274.6 56.15 273.8L63.2 273.8 63.2 272.35Q63.2 270.25 61.85 269.05 60.45 267.85 58.45 267.85M57 270.55Q57.65 270.1 58.5 270.1 59.25 270.1 59.85 270.55 60.4 271 60.5 271.9L56.25 271.9Q56.35 271.05 57 270.55M49 265.4Q48.05 265.1 46.8 265.1L41.9 265.1 41.9 277.7 47.4 277.7Q50 277.7 51.05 276.5 51.95 275.5 51.95 274.2 51.95 273 51.25 272.2 50.55 271.4 49.4 271.15 49.7 271 49.85 270.95 49.95 270.85 50.3 270.65 51.25 269.9 51.25 268.45 51.25 267.2 50.4 266.25 49.95 265.7 49 265.4M44.7 270.2L44.7 267.5 46.05 267.5Q47.3 267.45 47.8 267.75 48.35 268 48.35 268.85 48.35 269.7 47.8 269.95 47.2 270.2 46.05 270.2L44.7 270.2M48.4 272.7Q49.05 272.95 49.05 273.85 49.05 274.7 48.45 275 47.85 275.3 46.65 275.3L44.7 275.3 44.7 272.4 46.35 272.4Q47.75 272.4 48.4 272.7M73.8 269.95L74.95 269.95 74.95 274.4Q74.95 276 75.9 276.9 76.85 277.8 78.25 277.85 79.65 277.85 80.9 276.65L79.9 274.8Q79.4 275.45 78.6 275.45 78.25 275.45 77.95 275.15 77.65 274.85 77.65 274.3L77.65 269.95 80 269.95 80 268 77.65 268 77.65 265.1 74.95 265.1 74.95 268 73.8 268 73.8 269.95M68.85 267.85Q67.1 267.85 66.05 268.7 64.95 269.55 64.95 270.9 64.95 272.25 66.05 272.9 66.6 273.25 67 273.45 67.45 273.6 68.25 273.85 69.05 274.1 69.45 274.4 69.9 274.7 69.9 275.05 69.9 275.35 69.6 275.6 69.3 275.8 68.75 275.8 67.05 275.8 65.55 274.6L64.35 276.3Q65.3 277.05 66.45 277.45 67.65 277.85 68.7 277.85 70.3 277.85 71.4 277 72.45 276.1 72.45 274.7 72.45 273.25 71.4 272.65 70.9 272.3 70.5 272.15 70.1 272 69.2 271.7 68.25 271.45 67.9 271.2 67.5 271 67.5 270.6 67.5 269.95 68.75 269.95 70 269.95 71.25 270.8L72.25 269Q70.55 267.85 68.85 267.85M40.35 294.35L37.65 294.35 37.65 299.55Q37.65 300.7 37.05 301.25 36.45 301.85 35.65 301.85 34 301.85 34 299.6L34 294.35 31.3 294.35 31.3 300.2Q31.3 302.15 32.4 303.2 33.45 304.15 35.05 304.2 36.65 304.2 37.65 302.75L37.65 304.05 40.35 304.05 40.35 294.35M28.85 290.7L26.15 290.7 26.15 295.45Q25.05 294.2 23.3 294.2 21.55 294.2 20.2 295.6 18.9 296.95 18.9 299.1 18.9 301.3 20.25 302.75 21.6 304.2 23.3 304.2 25.05 304.2 26.15 302.8L26.15 304.05 28.85 304.05 28.85 290.7M25.55 297.25Q26.2 298.05 26.2 299.2 26.2 300.4 25.55 301.15 24.9 301.9 23.95 301.9 23.05 301.9 22.3 301.15 21.6 300.4 21.6 299.25 21.6 298.05 22.3 297.25 23 296.45 23.95 296.5 24.9 296.5 25.55 297.25M10.95 296.55L10.95 293.95 17.2 293.95 17.2 291.45 8.15 291.45 8.15 304.05 17.4 304.05 17.4 301.55 10.95 301.55 10.95 298.95 16.6 298.95 16.6 296.55 10.95 296.55M161.8 295.4Q160.45 294.2 158.45 294.2 156.45 294.2 154.95 295.55 153.5 296.9 153.5 299.2 153.5 301.45 154.95 302.85 156.4 304.2 158.6 304.2 160.8 304.2 162.45 302.65L160.9 301Q160 301.95 158.6 301.95 157.7 301.95 157 301.45 156.3 300.95 156.15 300.15L163.2 300.15 163.2 298.7Q163.25 296.6 161.8 295.4M158.5 296.45Q159.25 296.45 159.85 296.9 160.4 297.35 160.5 298.25L156.25 298.25Q156.35 297.4 157 296.9 157.65 296.45 158.5 296.45M145.5 296.3L146.65 296.3 146.65 300.75Q146.65 302.35 147.6 303.25 148.55 304.15 149.95 304.2 151.35 304.2 152.6 303L151.6 301.15Q151.1 301.8 150.3 301.8 149.95 301.8 149.65 301.5 149.35 301.2 149.35 300.65L149.35 296.3 151.7 296.3 151.7 294.35 149.35 294.35 149.35 291.45 146.65 291.45 146.65 294.35 145.5 294.35 145.5 296.3M137.95 296.65Q138.7 296.35 139.4 296.35 141.05 296.35 141.05 297.9L141.05 297.95 139.05 297.95Q137.15 297.95 136.1 298.7 135 299.45 135 300.9 135 302.4 136.05 303.3 137.1 304.2 138.65 304.2 140.15 304.2 141.2 302.9L141.2 304.05 143.75 304.05 143.75 297.85Q143.75 295.95 142.65 295.1 141.5 294.2 139.75 294.2 137.3 294.2 135.4 295.6L136.6 297.35Q137.15 296.9 137.95 296.65M139.35 299.9L141.05 299.9 141.05 300.35Q141.05 301.1 140.5 301.55 139.95 301.95 139.2 302 138.5 301.95 138.1 301.7 137.7 301.4 137.7 300.9 137.7 299.9 139.35 299.9M128.6 291.15Q125.85 291.15 123.9 293 122 294.9 122 297.7 122 300.5 123.9 302.35 125.75 304.15 128.65 304.15 131.6 304.15 133.7 301.75L131.9 299.9Q130.6 301.55 128.55 301.55 127 301.55 125.95 300.45 124.9 299.4 124.9 297.65 124.9 295.9 126 294.85 127.15 293.85 128.75 293.85 130.7 293.85 132.05 295.5L133.8 293.5Q131.7 291.15 128.6 291.15M141 268L138.3 268 138.3 277.7 141 277.7 141 268M136.5 270.4L136.5 267.85Q135.7 267.85 134.9 268.3 134.1 268.7 133.6 269.3L133.6 268 130.9 268 130.9 277.7 133.6 277.7 133.6 273.5Q133.6 272.1 134.2 271.25 134.8 270.4 136 270.4L136.5 270.4M141.2 265.65Q141.2 264.95 140.75 264.5 140.3 264.05 139.65 264.05 138.95 264.05 138.5 264.5 138.05 264.95 138.05 265.65 138.05 266.3 138.5 266.75 138.95 267.2 139.65 267.2 140.3 267.2 140.75 266.75 141.2 266.3 141.2 265.65M126.2 265.1L123.5 265.1 123.5 268 122.35 268 122.35 269.95 123.5 269.95 123.5 274.4Q123.5 276 124.45 276.9 125.4 277.8 126.8 277.85 128.2 277.85 129.45 276.65L128.45 274.8Q127.95 275.45 127.15 275.45 126.8 275.45 126.5 275.15 126.2 274.85 126.2 274.3L126.2 269.95 128.55 269.95 128.55 268 126.2 268 126.2 265.1M149.15 267.85Q147.35 267.85 146.25 269.1L146.25 264.35 143.55 264.35 143.55 277.7 146.25 277.7 146.25 276.45Q147.4 277.85 149.1 277.85 150.85 277.85 152.15 276.4 153.55 274.95 153.5 272.75 153.55 270.6 152.2 269.25 150.9 267.85 149.15 267.85M146.85 270.9Q147.5 270.1 148.5 270.15 149.45 270.15 150.1 270.9 150.8 271.7 150.8 272.9 150.8 274.05 150.1 274.8 149.4 275.55 148.45 275.55 147.55 275.55 146.85 274.8 146.2 274.05 146.2 272.85 146.2 271.7 146.85 270.9M158.1 268L155.4 268 155.4 273.85Q155.4 275.8 156.5 276.85 157.55 277.8 159.15 277.85 160.75 277.85 161.75 276.4L161.75 277.7 164.45 277.7 164.45 268 161.75 268 161.75 273.2Q161.75 274.35 161.15 274.9 160.55 275.5 159.75 275.5 158.1 275.5 158.1 273.25L158.1 268M109.95 291.15Q108.45 291.15 107.3 291.95 106.2 292.75 106.2 294.3 106.2 295.05 106.5 295.6 106.75 296.15 107.35 296.85 104.7 298.4 104.7 300.35 104.7 302.15 106 303.15 107.25 304.15 109.25 304.15 111.25 304.15 112.75 302.95L114.3 304.55 116.1 302.85 114.3 301.1Q114.9 300.1 115.3 299L113.2 297.45Q113 298.4 112.55 299.2 112.05 298.65 111 297.4 113.6 295.9 113.6 294.1 113.6 292.7 112.5 291.95 111.45 291.15 109.95 291.15M109.95 293.25Q110.35 293.25 110.65 293.55 111 293.8 111 294.35 111 294.95 109.65 295.7 108.9 294.8 108.9 294.3 108.9 293.85 109.25 293.55 109.55 293.3 109.95 293.25M108.75 298.6Q109.7 299.75 111.05 301.1 110.1 301.9 109.25 301.9 108.45 301.9 107.9 301.5 107.4 301.1 107.4 300.45 107.4 299.45 108.75 298.6M96.85 295.3Q95.85 294.2 94.3 294.2 92.75 294.2 91.55 295.45L91.55 294.35 88.85 294.35 88.85 304.05 91.55 304.05 91.55 298.65Q91.55 297.5 92.15 296.95 92.75 296.35 93.55 296.35 95.2 296.35 95.2 298.55L95.2 304.05 97.9 304.05 97.9 298.15Q97.9 296.35 96.85 295.3M85.45 295.65Q84 294.2 81.75 294.2 79.55 294.2 78.1 295.65 76.65 297.1 76.65 299.2 76.65 301.3 78.1 302.75 79.55 304.2 81.75 304.2 83.95 304.2 85.45 302.75 86.9 301.3 86.9 299.2 86.9 297.1 85.45 295.65M79.35 299.2Q79.35 298 80.05 297.25 80.7 296.5 81.75 296.5 82.8 296.5 83.5 297.25 84.2 298 84.15 299.2 84.15 300.4 83.5 301.15 82.85 301.9 81.75 301.9 80.7 301.9 80.05 301.15 79.35 300.4 79.35 299.2M93.25 264.8Q90.5 264.8 88.55 266.65 86.65 268.55 86.65 271.35 86.65 274.15 88.55 276 90.4 277.8 93.3 277.8 96.25 277.8 98.35 275.4L96.55 273.55Q95.25 275.2 93.2 275.2 91.65 275.2 90.6 274.1 89.55 273.05 89.55 271.3 89.55 269.55 90.65 268.5 91.8 267.5 93.4 267.5 95.35 267.5 96.7 269.15L98.45 267.15Q96.35 264.8 93.25 264.8M114.3 269.1L114.3 268 111.6 268 111.6 277.7 114.3 277.7 114.3 272.3Q114.3 271.15 114.9 270.6 115.5 270 116.3 270 117.95 270 117.95 272.2L117.95 277.7 120.65 277.7 120.65 271.8Q120.65 270 119.6 268.95 118.6 267.85 117.05 267.85 115.5 267.85 114.3 269.1M108.15 269.3Q106.7 267.85 104.45 267.85 102.25 267.85 100.8 269.3 99.35 270.75 99.35 272.85 99.35 274.95 100.8 276.4 102.25 277.85 104.45 277.85 106.65 277.85 108.15 276.4 109.6 274.95 109.6 272.85 109.6 270.75 108.15 269.3M104.45 270.15Q105.5 270.15 106.2 270.9 106.9 271.65 106.85 272.85 106.85 274.05 106.2 274.8 105.55 275.55 104.45 275.55 103.4 275.55 102.75 274.8 102.05 274.05 102.05 272.85 102.05 271.65 102.75 270.9 103.4 270.15 104.45 270.15M326.9 295.3Q325.9 294.2 324.35 294.2 322.8 294.2 321.6 295.45L321.6 294.35 318.9 294.35 318.9 304.05 321.6 304.05 321.6 298.65Q321.6 297.5 322.2 296.95 322.8 296.35 323.6 296.35 325.25 296.35 325.25 298.55L325.25 304.05 327.95 304.05 327.95 298.15Q327.95 296.35 326.9 295.3M329.65 296.3L330.8 296.3 330.8 300.75Q330.8 302.35 331.75 303.25 332.7 304.15 334.1 304.2 335.5 304.2 336.75 303L335.75 301.15Q335.25 301.8 334.45 301.8 334.1 301.8 333.8 301.5 333.5 301.2 333.5 300.65L333.5 296.3 335.85 296.3 335.85 294.35 333.5 294.35 333.5 291.45 330.8 291.45 330.8 294.35 329.65 294.35 329.65 296.3Z"/></g><g id="Symbol-31" transform="matrix(.1 0 0 .1 969.15 200.7)"><animateTransform attributeName="transform" additive="replace" type="translate" dur="0.69s" keyTimes="0;.6;1" values="983.954,213.104;983.95,213.1;983.95,213.1" keySplines=".25 .5 .5 1;.1 .1 .9 .9" calcMode="spline" fill="freeze"/><animateTransform attributeName="transform" additive="sum" type="scale" dur="0.69s" keyTimes="0;.6;1" values=".1,.1;1,1;1,1" keySplines=".25 .5 .5 1;.1 .1 .9 .9" calcMode="spline" fill="freeze"/><animateTransform attributeName="transform" additive="sum" type="translate" dur="0.69s" keyTimes="0;.6;1" values="-148.05,-124.05;-147.95,-124.25;-147.95,-124.25" keySplines=".25 .5 .5 1;.1 .1 .9 .9" calcMode="spline" fill="freeze"/><image overflow="visible" xlink:href="img/03Top-Three-Clients-Traded.png" height="209" width="174" transform="translate(62.95 0)"/><path fill="#404041" stroke="none" d="M190.25 239.2Q188.6 239.2 187.25 240.6 185.9 242.05 185.9 244.2 185.9 246.4 187.3 247.8 188.65 249.2 190.55 249.2 192 249.2 193.15 248.25L193.15 252.55 195.85 252.55 195.85 239.35 193.15 239.35 193.15 240.45Q191.9 239.2 190.25 239.2M190.95 246.9Q190.05 246.9 189.3 246.15 188.6 245.4 188.6 244.2 188.6 243.05 189.3 242.25 190 241.45 190.95 241.45 191.9 241.45 192.55 242.25 193.2 243.05 193.2 244.2 193.2 245.4 192.55 246.15 191.9 246.9 190.95 246.9M177.95 241.55L177.95 238.95 184.2 238.95 184.2 236.45 175.15 236.45 175.15 249.05 184.4 249.05 184.4 246.55 177.95 246.55 177.95 243.95 183.6 243.95 183.6 241.55 177.95 241.55M171.4 213.95Q170.4 212.85 168.85 212.85 167.3 212.85 166.1 214.1L166.1 213 163.4 213 163.4 222.7 166.1 222.7 166.1 217.3Q166.1 216.15 166.7 215.6 167.3 215 168.1 215 169.75 215 169.75 217.2L169.75 222.7 172.45 222.7 172.45 216.8Q172.45 215 171.4 213.95M177.95 210.1L175.25 210.1 175.25 213 174.1 213 174.1 214.95 175.25 214.95 175.25 219.4Q175.25 221 176.2 221.9 177.15 222.8 178.55 222.85 179.95 222.85 181.2 221.65L180.2 219.8Q179.7 220.45 178.9 220.45 178.55 220.45 178.25 220.15 177.95 219.85 177.95 219.3L177.95 214.95 180.3 214.95 180.3 213 177.95 213 177.95 210.1M188.75 215.8L189.75 214Q188.05 212.85 186.35 212.85 184.6 212.85 183.55 213.7 182.45 214.55 182.45 215.9 182.45 217.25 183.55 217.9 184.1 218.25 184.5 218.45 184.95 218.6 185.75 218.85 186.55 219.1 186.95 219.4 187.4 219.7 187.4 220.05 187.4 220.35 187.1 220.6 186.8 220.8 186.25 220.8 184.55 220.8 183.05 219.6L181.85 221.3Q182.8 222.05 183.95 222.45 185.15 222.85 186.2 222.85 187.8 222.85 188.9 222 189.95 221.1 189.95 219.7 189.95 218.25 188.9 217.65 188.4 217.3 188 217.15 187.6 217 186.7 216.7 185.75 216.45 185.4 216.2 185 216 185 215.6 185 214.95 186.25 214.95 187.5 214.95 188.75 215.8M227.15 245.4L224.8 239.35 221.9 239.35Q225.65 248.8 225.65 249.2 225.65 249.65 225.35 250 225.1 250.35 224.75 250.35 224 250.35 223.3 249.7L222.1 251.7Q223.35 252.85 224.8 252.85 225.8 252.85 226.65 252.3 227.45 251.75 227.9 250.75L232.4 239.35 229.5 239.35 227.15 245.4M212.65 239.35L209.95 239.35 209.95 249.05 212.65 249.05 212.65 239.35M218.4 241.3L220.75 241.3 220.75 239.35 218.4 239.35 218.4 236.45 215.7 236.45 215.7 239.35 214.55 239.35 214.55 241.3 215.7 241.3 215.7 245.75Q215.7 247.35 216.65 248.25 217.6 249.15 219 249.2 220.4 249.2 221.65 248L220.65 246.15Q220.15 246.8 219.35 246.8 219 246.8 218.7 246.5 218.4 246.2 218.4 245.65L218.4 241.3M207.35 239.35L204.65 239.35 204.65 244.55Q204.65 245.7 204.05 246.25 203.45 246.85 202.65 246.85 201 246.85 201 244.6L201 239.35 198.3 239.35 198.3 245.2Q198.3 247.15 199.4 248.2 200.45 249.15 202.05 249.2 203.65 249.2 204.65 247.75L204.65 249.05 207.35 249.05 207.35 239.35M211.3 238.55Q211.95 238.55 212.4 238.1 212.85 237.65 212.85 237 212.85 236.3 212.4 235.85 211.95 235.4 211.3 235.4 210.6 235.4 210.15 235.85 209.7 236.3 209.7 237 209.7 237.65 210.15 238.1 210.6 238.55 211.3 238.55M205.95 212.55L205.95 210.1 196 210.1 196 212.55 199.55 212.55 199.55 222.7 202.35 222.7 202.35 212.55 205.95 212.55M211.7 213.3Q210.9 213.7 210.4 214.3L210.4 213 207.7 213 207.7 222.7 210.4 222.7 210.4 218.5Q210.4 217.1 211 216.25 211.6 215.4 212.8 215.4L213.3 215.4 213.3 212.85Q212.5 212.85 211.7 213.3M223.25 222.7L223.25 216.5Q223.25 214.6 222.15 213.75 221 212.85 219.25 212.85 216.8 212.85 214.9 214.25L216.1 216Q216.65 215.55 217.4 215.3 218.2 215 218.9 215 220.55 215 220.55 216.55L220.55 216.6 218.55 216.6Q216.65 216.6 215.6 217.35 214.5 218.1 214.5 219.55 214.5 221.05 215.55 221.95 216.6 222.85 218.15 222.85 219.65 222.85 220.7 221.55L220.7 222.7 223.25 222.7M217.6 220.35Q217.2 220.05 217.2 219.55 217.2 218.55 218.85 218.55L220.55 218.55 220.55 219Q220.5 219.75 220 220.2 219.45 220.6 218.7 220.65 218 220.6 217.6 220.35M232.45 214.1Q231.35 212.85 229.6 212.85 227.85 212.85 226.5 214.25 225.2 215.6 225.2 217.75 225.2 219.95 226.55 221.4 227.9 222.85 229.6 222.85 231.35 222.85 232.45 221.45L232.45 222.7 235.15 222.7 235.15 209.35 232.45 209.35 232.45 214.1M230.25 215.15Q231.2 215.15 231.85 215.9 232.5 216.7 232.5 217.85 232.5 219.05 231.85 219.8 231.2 220.55 230.25 220.55 229.35 220.55 228.6 219.8 227.9 219.05 227.9 217.9 227.9 216.7 228.6 215.9 229.3 215.1 230.25 215.15M246.1 221.3L244.55 219.65Q243.65 220.6 242.25 220.6 241.35 220.6 240.65 220.1 239.95 219.6 239.8 218.8L246.85 218.8 246.85 217.35Q246.85 215.25 245.5 214.05 244.1 212.85 242.1 212.85 240.1 212.85 238.6 214.2 237.15 215.55 237.15 217.85 237.15 220.1 238.6 221.5 240.05 222.85 242.25 222.85 244.45 222.85 246.1 221.3M243.5 215.55Q244.05 216 244.15 216.9L239.9 216.9Q240 216.05 240.65 215.55 241.3 215.1 242.15 215.1 242.9 215.1 243.5 215.55M258.25 209.35L255.55 209.35 255.55 214.1Q254.45 212.85 252.7 212.85 250.95 212.85 249.6 214.25 248.3 215.6 248.3 217.75 248.3 219.95 249.65 221.4 251 222.85 252.7 222.85 254.45 222.85 255.55 221.45L255.55 222.7 258.25 222.7 258.25 209.35M251.7 219.8Q251 219.05 251 217.9 251 216.7 251.7 215.9 252.4 215.1 253.35 215.15 254.3 215.15 254.95 215.9 255.6 216.7 255.6 217.85 255.6 219.05 254.95 219.8 254.3 220.55 253.35 220.55 252.45 220.55 251.7 219.8M77.2 236.45L73.4 236.45 70.15 243.35 66.9 236.45 63.1 236.45 63.1 249.05 65.9 249.05 65.9 241.1 69.3 248 70.95 248 74.35 241.1 74.35 249.05 77.2 249.05 77.2 236.45M42.7 212.55L42.7 210.1 32.75 210.1 32.75 212.55 36.3 212.55 36.3 222.7 39.1 222.7 39.1 212.55 42.7 212.55M42.85 217.85Q42.85 219.95 44.3 221.4 45.75 222.85 47.95 222.85 50.15 222.85 51.65 221.4 53.1 219.95 53.1 217.85 53.1 215.75 51.65 214.3 50.2 212.85 47.95 212.85 45.75 212.85 44.3 214.3 42.85 215.75 42.85 217.85M47.95 215.15Q49 215.15 49.7 215.9 50.4 216.65 50.35 217.85 50.35 219.05 49.7 219.8 49.05 220.55 47.95 220.55 46.9 220.55 46.25 219.8 45.55 219.05 45.55 217.85 45.55 216.65 46.25 215.9 46.9 215.15 47.95 215.15M63.75 221.4Q65.1 219.95 65.05 217.8 65.05 215.7 63.75 214.25 62.4 212.85 60.75 212.85 59.05 212.85 57.8 214.1L57.8 213 55.1 213 55.1 226.2 57.8 226.2 57.8 221.4Q58.9 222.85 60.65 222.85 62.45 222.85 63.75 221.4M62.35 217.85Q62.35 219.05 61.65 219.8 60.95 220.55 60 220.55 59.1 220.55 58.4 219.8 57.75 219.05 57.75 217.85 57.75 216.7 58.4 215.9 59.05 215.1 60.05 215.1 61 215.1 61.65 215.9 62.35 216.7 62.35 217.85M111.5 240.45L111.5 235.7 108.8 235.7 108.8 249.05 111.5 249.05 111.5 247.8Q112.65 249.2 114.35 249.2 116.1 249.2 117.4 247.75 118.8 246.3 118.75 244.1 118.75 241.95 117.45 240.6 116.15 239.2 114.4 239.2 112.6 239.2 111.5 240.45M113.75 241.5Q114.7 241.5 115.35 242.25 116.05 243.05 116.05 244.25 116.05 245.4 115.35 246.15 114.65 246.9 113.7 246.9 112.8 246.9 112.1 246.15 111.45 245.4 111.45 244.2 111.45 243.05 112.1 242.25 112.75 241.45 113.75 241.5M98.05 239.75Q97.3 239.2 96.4 239.2 94.95 239.2 93.85 240.45L93.85 239.35 91.15 239.35 91.15 249.05 93.85 249.05 93.85 243.85Q93.85 242.7 94.45 242.1 95.05 241.55 95.85 241.5 96.65 241.5 96.95 242.05 97.35 242.6 97.3 243.75L97.3 249.05 100.05 249.05 100.05 243.85Q100.05 242.7 100.65 242.1 101.25 241.55 102.05 241.5 103.65 241.5 103.7 243.75L103.7 249.05 106.4 249.05 106.4 243.15Q106.4 241.25 105.35 240.2 104.3 239.2 102.6 239.2 101.65 239.2 100.7 239.7 99.75 240.15 99.2 241.05 98.8 240.3 98.05 239.75M82.95 246.45Q82.25 245.95 82.1 245.15L89.15 245.15 89.15 243.7Q89.2 241.6 87.75 240.4 86.4 239.2 84.4 239.2 82.4 239.2 80.9 240.55 79.45 241.9 79.45 244.2 79.45 246.45 80.9 247.85 82.35 249.2 84.55 249.2 86.75 249.2 88.4 247.65L86.85 246Q85.95 246.95 84.55 246.95 83.65 246.95 82.95 246.45M84.45 241.45Q85.2 241.45 85.8 241.9 86.35 242.35 86.45 243.25L82.2 243.25Q82.3 242.4 82.95 241.9 83.6 241.45 84.45 241.45M81 212.55L81 210.1 71.05 210.1 71.05 212.55 74.6 212.55 74.6 222.7 77.4 222.7 77.4 212.55 81 212.55M96.9 214.3L96.9 213 94.2 213 94.2 222.7 96.9 222.7 96.9 218.5Q96.9 217.1 97.5 216.25 98.1 215.4 99.3 215.4L99.8 215.4 99.8 212.85Q99 212.85 98.2 213.3 97.4 213.7 96.9 214.3M85.35 209.35L82.65 209.35 82.65 222.7 85.35 222.7 85.35 217.5Q85.35 216.35 85.95 215.75 86.55 215.2 87.35 215.2 89 215.2 89 217.4L89 222.7 91.7 222.7 91.7 216.8Q91.7 215 90.65 213.95 89.6 212.85 88.1 212.85 86.55 212.85 85.35 214.1L85.35 209.35M106 212.85Q104 212.85 102.5 214.2 101.05 215.55 101.05 217.85 101.05 220.1 102.5 221.5 103.95 222.85 106.15 222.85 108.35 222.85 110 221.3L108.45 219.65Q107.55 220.6 106.15 220.6 105.25 220.6 104.55 220.1 103.85 219.6 103.7 218.8L110.75 218.8 110.75 217.35Q110.75 215.25 109.4 214.05 107.95 212.85 106 212.85M104.55 215.55Q105.2 215.1 106.05 215.1 106.85 215.1 107.4 215.55 107.95 216 108.05 216.9L103.8 216.9Q103.9 216.05 104.55 215.55M156.1 239.35L153.4 239.35 153.4 249.05 156.1 249.05 156.1 239.35M156.3 237Q156.3 236.3 155.85 235.85 155.4 235.4 154.75 235.4 154.05 235.4 153.6 235.85 153.15 236.3 153.15 237 153.15 237.65 153.6 238.1 154.05 238.55 154.75 238.55 155.4 238.55 155.85 238.1 156.3 237.65 156.3 237M161.35 239.35L158.65 239.35 158.65 249.05 161.35 249.05 161.35 243.65Q161.35 242.5 161.95 241.95 162.55 241.35 163.35 241.35 165 241.35 165 243.55L165 249.05 167.7 249.05 167.7 243.15Q167.7 241.35 166.65 240.3 165.65 239.2 164.1 239.2 162.55 239.2 161.35 240.45L161.35 239.35M139.05 242.25Q139.05 243.6 140.15 244.25 140.7 244.6 141.1 244.8 141.55 244.95 142.35 245.2 143.15 245.45 143.55 245.75 144 246.05 144 246.4 144 246.7 143.7 246.95 143.4 247.15 142.85 247.15 141.15 247.15 139.65 245.95L138.45 247.65Q139.4 248.4 140.55 248.8 141.75 249.2 142.8 249.2 144.4 249.2 145.5 248.35 146.55 247.45 146.55 246.05 146.55 244.6 145.5 244 145 243.65 144.6 243.5 144.2 243.35 143.3 243.05 142.35 242.8 142 242.55 141.6 242.35 141.6 241.95 141.6 241.3 142.85 241.3 144.1 241.3 145.35 242.15L146.35 240.35Q144.65 239.2 142.95 239.2 141.2 239.2 140.15 240.05 139.05 240.9 139.05 242.25M134.65 239.35L131.95 239.35 131.95 249.05 134.65 249.05 134.65 244.85Q134.65 243.45 135.25 242.6 135.85 241.75 137.05 241.75L137.55 241.75 137.55 239.2Q136.75 239.2 135.95 239.65 135.15 240.05 134.65 240.65L134.65 239.35M125.2 239.2Q123.2 239.2 121.7 240.55 120.25 241.9 120.25 244.2 120.25 246.45 121.7 247.85 123.15 249.2 125.35 249.2 127.55 249.2 129.2 247.65L127.65 246Q126.75 246.95 125.35 246.95 124.45 246.95 123.75 246.45 123.05 245.95 122.9 245.15L129.95 245.15 129.95 243.7Q129.95 241.6 128.6 240.4 127.2 239.2 125.2 239.2M123.75 241.9Q124.4 241.45 125.25 241.45 126.05 241.45 126.6 241.9 127.15 242.35 127.25 243.25L123 243.25Q123.1 242.4 123.75 241.9M128.1 216.35Q128.1 219.15 130 221 131.85 222.8 134.75 222.8 137.7 222.8 139.8 220.4L138 218.55Q136.7 220.2 134.65 220.2 133.1 220.2 132.05 219.1 131 218.05 131 216.3 131 214.55 132.1 213.5 133.25 212.5 134.85 212.5 136.8 212.5 138.15 214.15L139.9 212.15Q137.8 209.8 134.7 209.8 131.95 209.8 130 211.65 128.1 213.55 128.1 216.35M121.85 218.8L121.85 217.35Q121.85 215.25 120.5 214.05 119.1 212.85 117.1 212.85 115.1 212.85 113.6 214.2 112.15 215.55 112.15 217.85 112.15 220.1 113.6 221.5 115.05 222.85 117.25 222.85 119.45 222.85 121.1 221.3L119.55 219.65Q118.65 220.6 117.25 220.6 116.35 220.6 115.65 220.1 114.95 219.6 114.8 218.8L121.85 218.8M117.15 215.1Q117.95 215.1 118.5 215.55 119.05 216 119.15 216.9L114.9 216.9Q115 216.05 115.65 215.55 116.3 215.1 117.15 215.1M156.65 212.85Q154.65 212.85 153.15 214.2 151.7 215.55 151.7 217.85 151.7 220.1 153.15 221.5 154.6 222.85 156.8 222.85 159 222.85 160.65 221.3L159.1 219.65Q158.2 220.6 156.8 220.6 155.9 220.6 155.2 220.1 154.5 219.6 154.35 218.8L161.4 218.8 161.4 217.35Q161.45 215.25 160 214.05 158.65 212.85 156.65 212.85M155.2 215.55Q155.85 215.1 156.7 215.1 157.45 215.1 158.05 215.55 158.6 216 158.7 216.9L154.45 216.9Q154.55 216.05 155.2 215.55M149.7 213L147 213 147 222.7 149.7 222.7 149.7 213M144.45 209.35L141.75 209.35 141.75 222.7 144.45 222.7 144.45 209.35M148.35 209.05Q147.65 209.05 147.2 209.5 146.75 209.95 146.75 210.65 146.75 211.3 147.2 211.75 147.65 212.2 148.35 212.2 149 212.2 149.45 211.75 149.9 211.3 149.9 210.65 149.9 209.95 149.45 209.5 149 209.05 148.35 209.05Z"/></g><g id="Symbol-30" transform="matrix(.1 0 0 .1 565.2 192.45)"><animateTransform attributeName="transform" additive="replace" type="translate" dur="0.69s" keyTimes="0;.6;1" values="580.004,205.604;580,205.6;580,205.6" keySplines=".25 .5 .5 1;.1 .1 .9 .9" calcMode="spline" fill="freeze"/><animateTransform attributeName="transform" additive="sum" type="scale" dur="0.69s" keyTimes="0;.6;1" values=".1,.1;1,1;1,1" keySplines=".25 .5 .5 1;.1 .1 .9 .9" calcMode="spline" fill="freeze"/><animateTransform attributeName="transform" additive="sum" type="translate" dur="0.69s" keyTimes="0;.6;1" values="-148.05,-131.55;-147.95,-131.75;-147.95,-131.75" keySplines=".25 .5 .5 1;.1 .1 .9 .9" calcMode="spline" fill="freeze"/><image overflow="visible" xlink:href="img/02Zee-Business-Financial-Market.png" height="209" width="174" transform="translate(60.95 0)"/><path fill="#404041" stroke="none" d="M207.4 258.2L204.7 258.2 204.7 267.9 207.4 267.9 207.4 263.7Q207.4 262.3 208 261.45 208.6 260.6 209.8 260.6L210.3 260.6 210.3 258.05Q209.5 258.05 208.7 258.5 207.9 258.9 207.4 259.5L207.4 258.2M221.4 254.55L218.7 254.55 218.7 259.3Q217.6 258.05 215.85 258.05 214.1 258.05 212.75 259.45 211.45 260.8 211.45 262.95 211.45 265.15 212.8 266.6 214.15 268.05 215.85 268.05 217.6 268.05 218.7 266.65L218.7 267.9 221.4 267.9 221.4 254.55M218.75 263.05Q218.75 264.25 218.1 265 217.45 265.75 216.5 265.75 215.6 265.75 214.85 265 214.15 264.25 214.15 263.1 214.15 261.9 214.85 261.1 215.55 260.3 216.5 260.35 217.45 260.35 218.1 261.1 218.75 261.9 218.75 263.05M171.75 255.3L169.05 255.3 163.6 267.9 166.6 267.9 167.75 265.15 173.05 265.15 174.2 267.9 177.2 267.9 171.75 255.3M171.95 262.7L168.8 262.7 170.4 259.05 171.95 262.7M186.05 258.2L183.4 258.2 181.55 264.05 179.65 258.2 176.85 258.2 180.15 267.9 182.95 267.9 184.75 262.6 186.5 267.9 189.3 267.9 192.6 258.2 189.8 258.2 187.9 264.05 186.05 258.2M198.25 258.05Q195.8 258.05 193.9 259.45L195.1 261.2Q195.65 260.75 196.45 260.5 197.2 260.2 197.9 260.2 199.55 260.2 199.55 261.75L199.55 261.8 197.55 261.8Q195.65 261.8 194.6 262.55 193.5 263.3 193.5 264.75 193.5 266.25 194.55 267.15 195.6 268.05 197.15 268.05 198.65 268.05 199.7 266.75L199.7 267.9 202.25 267.9 202.25 261.7Q202.25 259.8 201.15 258.95 200 258.05 198.25 258.05M197.85 263.75L199.55 263.75 199.55 264.2Q199.55 264.95 199 265.4 198.45 265.8 197.7 265.85 197 265.8 196.6 265.55 196.2 265.25 196.2 264.75 196.2 263.75 197.85 263.75M190.25 231.7Q188.15 231.7 186.6 233.1 185.1 234.5 185.1 236.7 185.1 238.95 186.6 240.3 188.1 241.7 190.3 241.7 192.45 241.7 194.35 239.75L192.75 237.95Q191.65 239.3 190.3 239.3 189.3 239.3 188.5 238.6 187.75 237.95 187.75 236.7 187.75 235.45 188.5 234.75 189.25 234.05 190.35 234.1 191 234.05 191.7 234.4 192.35 234.7 192.8 235.25L194.25 233.4Q193.4 232.55 192.35 232.15 191.25 231.7 190.25 231.7M198.85 231.85L196.15 231.85 196.15 241.55 198.85 241.55 198.85 231.85M198.6 228.35Q198.15 227.9 197.5 227.9 196.8 227.9 196.35 228.35 195.9 228.8 195.9 229.5 195.9 230.15 196.35 230.6 196.8 231.05 197.5 231.05 198.15 231.05 198.6 230.6 199.05 230.15 199.05 229.5 199.05 228.8 198.6 228.35M165.9 234.15Q166.65 233.85 167.35 233.85 169 233.85 169 235.4L169 235.45 167 235.45Q165.1 235.45 164.05 236.2 162.95 236.95 162.95 238.4 162.95 239.9 164 240.8 165.05 241.7 166.6 241.7 168.1 241.7 169.15 240.4L169.15 241.55 171.7 241.55 171.7 235.35Q171.7 233.45 170.6 232.6 169.45 231.7 167.7 231.7 165.25 231.7 163.35 233.1L164.55 234.85Q165.1 234.4 165.9 234.15M169 237.4L169 237.85Q169 238.6 168.45 239.05 167.9 239.45 167.15 239.5 166.45 239.45 166.05 239.2 165.65 238.9 165.65 238.4 165.65 237.4 167.3 237.4L169 237.4M176.85 232.95L176.85 231.85 174.15 231.85 174.15 241.55 176.85 241.55 176.85 236.15Q176.85 235 177.45 234.45 178.05 233.85 178.85 233.85 180.5 233.85 180.5 236.05L180.5 241.55 183.2 241.55 183.2 235.65Q183.2 233.85 182.15 232.8 181.15 231.7 179.6 231.7 178.05 231.7 176.85 232.95M222.35 228.95L222.35 241.55 225.15 241.55 225.15 233.6 228.55 240.5 230.2 240.5 233.6 233.6 233.6 241.55 236.45 241.55 236.45 228.95 232.65 228.95 229.4 235.85 226.15 228.95 222.35 228.95M214.8 241.55L214.8 228.2 212.1 228.2 212.1 241.55 214.8 241.55M208.5 232.6Q207.35 231.7 205.6 231.7 203.15 231.7 201.25 233.1L202.45 234.85Q203 234.4 203.8 234.15 204.55 233.85 205.25 233.85 206.9 233.85 206.9 235.4L206.9 235.45 204.9 235.45Q203 235.45 201.95 236.2 200.85 236.95 200.85 238.4 200.85 239.9 201.9 240.8 202.95 241.7 204.5 241.7 206 241.7 207.05 240.4L207.05 241.55 209.6 241.55 209.6 235.35Q209.6 233.45 208.5 232.6M205.2 237.4L206.9 237.4 206.9 237.85Q206.9 238.6 206.35 239.05 205.8 239.45 205.05 239.5 204.35 239.45 203.95 239.2 203.55 238.9 203.55 238.4 203.55 237.4 205.2 237.4M272.45 231.7Q270.45 231.7 268.95 233.05 267.5 234.4 267.5 236.7 267.5 238.95 268.95 240.35 270.4 241.7 272.6 241.7 274.8 241.7 276.45 240.15L274.9 238.5Q274 239.45 272.6 239.45 271.7 239.45 271 238.95 270.3 238.45 270.15 237.65L277.2 237.65 277.2 236.2Q277.2 234.1 275.85 232.9 274.45 231.7 272.45 231.7M271 234.4Q271.65 233.95 272.5 233.95 273.3 233.95 273.85 234.4 274.4 234.85 274.5 235.75L270.25 235.75Q270.35 234.9 271 234.4M246.4 232.6Q245.25 231.7 243.5 231.7 241.05 231.7 239.15 233.1L240.35 234.85Q240.9 234.4 241.7 234.15 242.45 233.85 243.15 233.85 244.8 233.85 244.8 235.4L244.8 235.45 242.8 235.45Q240.9 235.45 239.85 236.2 238.75 236.95 238.75 238.4 238.75 239.9 239.8 240.8 240.85 241.7 242.4 241.7 243.9 241.7 244.95 240.4L244.95 241.55 247.5 241.55 247.5 235.35Q247.5 233.45 246.4 232.6M243.1 237.4L244.8 237.4 244.8 237.85Q244.8 238.6 244.25 239.05 243.7 239.45 242.95 239.5 242.25 239.45 241.85 239.2 241.45 238.9 241.45 238.4 241.45 237.4 243.1 237.4M260.05 235.05L260.05 228.2 257.35 228.2 257.35 241.55 260.05 241.55 260.05 238.75 260.95 237.85 263.4 241.55 266.6 241.55 262.75 235.8 266.45 231.85 263.05 231.85 260.05 235.05M253.25 235.1Q253.85 234.25 255.05 234.25L255.55 234.25 255.55 231.7Q254.75 231.7 253.95 232.15 253.15 232.55 252.65 233.15L252.65 231.85 249.95 231.85 249.95 241.55 252.65 241.55 252.65 237.35Q252.65 235.95 253.25 235.1M284.65 233.8L284.65 231.85 282.3 231.85 282.3 228.95 279.6 228.95 279.6 231.85 278.45 231.85 278.45 233.8 279.6 233.8 279.6 238.25Q279.6 239.85 280.55 240.75 281.5 241.65 282.9 241.7 284.3 241.7 285.55 240.5L284.55 238.65Q284.05 239.3 283.25 239.3 282.9 239.3 282.6 239 282.3 238.7 282.3 238.15L282.3 233.8 284.65 233.8M28.55 231.7Q26.55 231.7 25.05 233.05 23.6 234.4 23.6 236.7 23.6 238.95 25.05 240.35 26.5 241.7 28.7 241.7 30.9 241.7 32.55 240.15L31 238.5Q30.1 239.45 28.7 239.45 27.8 239.45 27.1 238.95 26.4 238.45 26.25 237.65L33.3 237.65 33.3 236.2Q33.35 234.1 31.9 232.9 30.55 231.7 28.55 231.7M27.1 234.4Q27.75 233.95 28.6 233.95 29.35 233.95 29.95 234.4 30.5 234.85 30.6 235.75L26.35 235.75Q26.45 234.9 27.1 234.4M11.65 228.95L11.65 231.4 18.05 231.4 11.45 239.6 11.45 241.55 22 241.55 22 239.1 15.3 239.1 21.85 230.9 21.85 228.95 11.65 228.95M66.05 231.85L63.35 231.85 63.35 237.7Q63.35 239.65 64.45 240.7 65.5 241.65 67.1 241.7 68.7 241.7 69.7 240.25L69.7 241.55 72.4 241.55 72.4 231.85 69.7 231.85 69.7 237.05Q69.7 238.2 69.1 238.75 68.5 239.35 67.7 239.35 66.05 239.35 66.05 237.1L66.05 231.85M44.45 237.65L44.45 236.2Q44.45 234.1 43.1 232.9 41.7 231.7 39.7 231.7 37.7 231.7 36.2 233.05 34.75 234.4 34.75 236.7 34.75 238.95 36.2 240.35 37.65 241.7 39.85 241.7 42.05 241.7 43.7 240.15L42.15 238.5Q41.25 239.45 39.85 239.45 38.95 239.45 38.25 238.95 37.55 238.45 37.4 237.65L44.45 237.65M41.1 234.4Q41.65 234.85 41.75 235.75L37.5 235.75Q37.6 234.9 38.25 234.4 38.9 233.95 39.75 233.95 40.55 233.95 41.1 234.4M58.5 229.25Q57.55 228.95 56.3 228.95L51.4 228.95 51.4 241.55 56.9 241.55Q59.5 241.55 60.55 240.35 61.45 239.35 61.45 238.05 61.45 236.85 60.75 236.05 60.05 235.25 58.9 235 59.2 234.85 59.35 234.8 59.45 234.7 59.8 234.5 60.75 233.75 60.75 232.3 60.75 231.05 59.9 230.1 59.45 229.55 58.5 229.25M55.55 234.05L54.2 234.05 54.2 231.35 55.55 231.35Q56.8 231.3 57.3 231.6 57.85 231.85 57.85 232.7 57.85 233.55 57.3 233.8 56.7 234.05 55.55 234.05M57.95 238.85Q57.35 239.15 56.15 239.15L54.2 239.15 54.2 236.25 55.85 236.25Q57.25 236.25 57.9 236.55 58.55 236.8 58.55 237.7 58.55 238.55 57.95 238.85M125.45 254.55L122.75 254.55 122.75 267.9 125.45 267.9 125.45 254.55M135.15 258.95Q134 258.05 132.25 258.05 129.8 258.05 127.9 259.45L129.1 261.2Q129.65 260.75 130.45 260.5 131.2 260.2 131.9 260.2 133.55 260.2 133.55 261.75L133.55 261.8 131.55 261.8Q129.65 261.8 128.6 262.55 127.5 263.3 127.5 264.75 127.5 266.25 128.55 267.15 129.6 268.05 131.15 268.05 132.65 268.05 133.7 266.75L133.7 267.9 136.25 267.9 136.25 261.7Q136.25 259.8 135.15 258.95M130.6 265.55Q130.2 265.25 130.2 264.75 130.2 263.75 131.85 263.75L133.55 263.75 133.55 264.2Q133.55 264.95 133 265.4 132.45 265.8 131.7 265.85 131 265.8 130.6 265.55M147.8 258.2L145 258.2 142.55 264.3 140.15 258.2 137.35 258.2 141.2 267.9 143.95 267.9 147.8 258.2M156.9 259.25Q155.5 258.05 153.5 258.05 151.5 258.05 150 259.4 148.55 260.75 148.55 263.05 148.55 265.3 150 266.7 151.45 268.05 153.65 268.05 155.85 268.05 157.5 266.5L155.95 264.85Q155.05 265.8 153.65 265.8 152.75 265.8 152.05 265.3 151.35 264.8 151.2 264L158.25 264 158.25 262.55Q158.25 260.45 156.9 259.25M154.9 260.75Q155.45 261.2 155.55 262.1L151.3 262.1Q151.4 261.25 152.05 260.75 152.7 260.3 153.55 260.3 154.35 260.3 154.9 260.75M82.55 257.7Q84.5 257.7 85.85 259.35L87.6 257.35Q85.5 255 82.4 255 79.65 255 77.7 256.85 75.8 258.75 75.8 261.55 75.8 264.35 77.7 266.2 79.55 268 82.45 268 85.4 268 87.5 265.6L85.7 263.75Q84.4 265.4 82.35 265.4 80.8 265.4 79.75 264.3 78.7 263.25 78.7 261.5 78.7 259.75 79.8 258.7 80.95 257.7 82.55 257.7M97.3 259.5Q95.85 258.05 93.6 258.05 91.4 258.05 89.95 259.5 88.5 260.95 88.5 263.05 88.5 265.15 89.95 266.6 91.4 268.05 93.6 268.05 95.8 268.05 97.3 266.6 98.75 265.15 98.75 263.05 98.75 260.95 97.3 259.5M93.6 265.75Q92.55 265.75 91.9 265 91.2 264.25 91.2 263.05 91.2 261.85 91.9 261.1 92.55 260.35 93.6 260.35 94.65 260.35 95.35 261.1 96.05 261.85 96 263.05 96 264.25 95.35 265 94.7 265.75 93.6 265.75M103.45 259.3L103.45 258.2 100.75 258.2 100.75 267.9 103.45 267.9 103.45 262.5Q103.45 261.35 104.05 260.8 104.65 260.2 105.45 260.2 107.1 260.2 107.1 262.4L107.1 267.9 109.8 267.9 109.8 262Q109.8 260.2 108.75 259.15 107.75 258.05 106.2 258.05 104.65 258.05 103.45 259.3M120.85 259.75Q120 258.9 118.95 258.5 117.85 258.05 116.85 258.05 114.75 258.05 113.2 259.45 111.7 260.85 111.7 263.05 111.7 265.3 113.2 266.65 114.7 268.05 116.9 268.05 119.05 268.05 120.95 266.1L119.35 264.3Q118.25 265.65 116.9 265.65 115.9 265.65 115.1 264.95 114.35 264.3 114.35 263.05 114.35 261.8 115.1 261.1 115.85 260.4 116.95 260.45 117.6 260.4 118.3 260.75 118.95 261.05 119.4 261.6L120.85 259.75M108.9 232.9Q107.45 231.7 105.5 231.7 103.5 231.7 102 233.05 100.55 234.4 100.55 236.7 100.55 238.95 102 240.35 103.45 241.7 105.65 241.7 107.85 241.7 109.5 240.15L107.95 238.5Q107.05 239.45 105.65 239.45 104.75 239.45 104.05 238.95 103.35 238.45 103.2 237.65L110.25 237.65 110.25 236.2Q110.25 234.1 108.9 232.9M105.55 233.95Q106.35 233.95 106.9 234.4 107.45 234.85 107.55 235.75L103.3 235.75Q103.4 234.9 104.05 234.4 104.7 233.95 105.55 233.95M118.3 234.65L119.3 232.85Q117.6 231.7 115.9 231.7 114.15 231.7 113.1 232.55 112 233.4 112 234.75 112 236.1 113.1 236.75 113.65 237.1 114.05 237.3 114.5 237.45 115.3 237.7 116.1 237.95 116.5 238.25 116.95 238.55 116.95 238.9 116.95 239.2 116.65 239.45 116.35 239.65 115.8 239.65 114.1 239.65 112.6 238.45L111.4 240.15Q112.35 240.9 113.5 241.3 114.7 241.7 115.75 241.7 117.35 241.7 118.45 240.85 119.5 239.95 119.5 238.55 119.5 237.1 118.45 236.5 117.95 236.15 117.55 236 117.15 235.85 116.25 235.55 115.3 235.3 114.95 235.05 114.55 234.85 114.55 234.45 114.55 233.8 115.8 233.8 117.05 233.8 118.3 234.65M87.05 231.85L84.35 231.85 84.35 241.55 87.05 241.55 87.05 231.85M81.1 234.65L82.1 232.85Q80.4 231.7 78.7 231.7 76.95 231.7 75.9 232.55 74.8 233.4 74.8 234.75 74.8 236.1 75.9 236.75 76.45 237.1 76.85 237.3 77.3 237.45 78.1 237.7 78.9 237.95 79.3 238.25 79.75 238.55 79.75 238.9 79.75 239.2 79.45 239.45 79.15 239.65 78.6 239.65 76.9 239.65 75.4 238.45L74.2 240.15Q75.15 240.9 76.3 241.3 77.5 241.7 78.55 241.7 80.15 241.7 81.25 240.85 82.3 239.95 82.3 238.55 82.3 237.1 81.25 236.5 80.75 236.15 80.35 236 79.95 235.85 79.05 235.55 78.1 235.3 77.75 235.05 77.35 234.85 77.35 234.45 77.35 233.8 78.6 233.8 79.85 233.8 81.1 234.65M85.7 227.9Q85 227.9 84.55 228.35 84.1 228.8 84.1 229.5 84.1 230.15 84.55 230.6 85 231.05 85.7 231.05 86.35 231.05 86.8 230.6 87.25 230.15 87.25 229.5 87.25 228.8 86.8 228.35 86.35 227.9 85.7 227.9M92.9 234.45Q93.5 233.85 94.3 233.85 95.95 233.85 95.95 236.05L95.95 241.55 98.65 241.55 98.65 235.65Q98.65 233.85 97.6 232.8 96.6 231.7 95.05 231.7 93.5 231.7 92.3 232.95L92.3 231.85 89.6 231.85 89.6 241.55 92.3 241.55 92.3 236.15Q92.3 235 92.9 234.45M149.4 231.85L146.7 231.85 146.7 241.55 149.4 241.55 149.4 231.85M149.15 228.35Q148.7 227.9 148.05 227.9 147.35 227.9 146.9 228.35 146.45 228.8 146.45 229.5 146.45 230.15 146.9 230.6 147.35 231.05 148.05 231.05 148.7 231.05 149.15 230.6 149.6 230.15 149.6 229.5 149.6 228.8 149.15 228.35M159.95 232.8Q158.95 231.7 157.4 231.7 155.85 231.7 154.65 232.95L154.65 231.85 151.95 231.85 151.95 241.55 154.65 241.55 154.65 236.15Q154.65 235 155.25 234.45 155.85 233.85 156.65 233.85 158.3 233.85 158.3 236.05L158.3 241.55 161 241.55 161 235.65Q161 233.85 159.95 232.8M124.35 235.05Q123.95 234.85 123.95 234.45 123.95 233.8 125.2 233.8 126.45 233.8 127.7 234.65L128.7 232.85Q127 231.7 125.3 231.7 123.55 231.7 122.5 232.55 121.4 233.4 121.4 234.75 121.4 236.1 122.5 236.75 123.05 237.1 123.45 237.3 123.9 237.45 124.7 237.7 125.5 237.95 125.9 238.25 126.35 238.55 126.35 238.9 126.35 239.2 126.05 239.45 125.75 239.65 125.2 239.65 123.5 239.65 122 238.45L120.8 240.15Q121.75 240.9 122.9 241.3 124.1 241.7 125.15 241.7 126.75 241.7 127.85 240.85 128.9 239.95 128.9 238.55 128.9 237.1 127.85 236.5 127.35 236.15 126.95 236 126.55 235.85 125.65 235.55 124.7 235.3 124.35 235.05M138.75 234.15L138.75 231.4 144.6 231.4 144.6 228.95 135.95 228.95 135.95 241.55 138.75 241.55 138.75 236.6 144.3 236.6 144.3 234.15 138.75 234.15Z"/></g><g id="Symbol-29" transform="matrix(.1 0 0 .1 177.6 184.55)"><animateTransform attributeName="transform" additive="replace" type="translate" dur="0.69s" keyTimes="0;.6;1" values="187,196.304;188,196.3;188,196.3" keySplines=".25 .5 .5 1;.1 .1 .9 .9" calcMode="spline" fill="freeze"/><animateTransform attributeName="transform" additive="sum" type="scale" dur="0.69s" keyTimes="0;.6;1" values=".1,.1;1,1;1,1" keySplines=".25 .5 .5 1;.1 .1 .9 .9" calcMode="spline" fill="freeze"/><animateTransform attributeName="transform" additive="sum" type="translate" dur="0.69s" keyTimes="0;.6;1" values="-104,-117.55;-103.95,-117.45;-103.95,-117.45" keySplines=".25 .5 .5 1;.1 .1 .9 .9" calcMode="spline" fill="freeze"/><image overflow="visible" xlink:href="img/01major-volume-award.png" height="209" width="174" transform="translate(11.95 0)"/><path fill="#404041" stroke="none" d="M196.5 229.6L197 229.6 197 227.05Q196.2 227.05 195.4 227.5 194.6 227.9 194.1 228.5L194.1 227.2 191.4 227.2 191.4 236.9 194.1 236.9 194.1 232.7Q194.1 231.3 194.7 230.45 195.3 229.6 196.5 229.6M167.2 227.2L164.5 227.2 164.5 236.9 167.2 236.9 167.2 227.2M166.95 223.7Q166.5 223.25 165.85 223.25 165.15 223.25 164.7 223.7 164.25 224.15 164.25 224.85 164.25 225.5 164.7 225.95 165.15 226.4 165.85 226.4 166.5 226.4 166.95 225.95 167.4 225.5 167.4 224.85 167.4 224.15 166.95 223.7M181.2 228.4Q179.75 229.75 179.75 232.05 179.75 234.3 181.2 235.7 182.65 237.05 184.85 237.05 187.05 237.05 188.7 235.5L187.15 233.85Q186.25 234.8 184.85 234.8 183.95 234.8 183.25 234.3 182.55 233.8 182.4 233L189.45 233 189.45 231.55Q189.45 229.45 188.1 228.25 186.7 227.05 184.7 227.05 182.7 227.05 181.2 228.4M186.75 231.1L182.5 231.1Q182.6 230.25 183.25 229.75 183.9 229.3 184.75 229.3 185.55 229.3 186.1 229.75 186.65 230.2 186.75 231.1M178.95 227.2L176.15 227.2 173.7 233.3 171.3 227.2 168.5 227.2 172.35 236.9 175.1 236.9 178.95 227.2M34.5 230.75L34.5 230.8 32.5 230.8Q30.6 230.8 29.55 231.55 28.45 232.3 28.45 233.75 28.45 235.25 29.5 236.15 30.55 237.05 32.1 237.05 33.6 237.05 34.65 235.75L34.65 236.9 37.2 236.9 37.2 230.7Q37.2 228.8 36.1 227.95 34.95 227.05 33.2 227.05 30.75 227.05 28.85 228.45L30.05 230.2Q30.6 229.75 31.35 229.5 32.15 229.2 32.85 229.2 34.5 229.2 34.5 230.75M31.55 234.55Q31.15 234.25 31.15 233.75 31.15 232.75 32.8 232.75L34.5 232.75 34.5 233.2Q34.5 233.95 33.95 234.4 33.4 234.8 32.65 234.85 31.95 234.8 31.55 234.55M15.85 224.3L12.05 224.3 12.05 236.9 14.85 236.9 14.85 228.95 18.25 235.85 19.9 235.85 23.3 228.95 23.3 236.9 26.15 236.9 26.15 224.3 22.35 224.3 19.1 231.2 15.85 224.3M80.8 224.3L77.75 224.3 74.55 232.3 71.35 224.3 68.3 224.3 73.35 236.9 75.75 236.9 80.8 224.3M43.3 227.15L40.6 227.15 40.6 237.05Q40.55 237.6 40.35 237.9 40.1 238.2 39.75 238.15 39.1 238.15 38.55 237.55L37.3 239.55Q38.55 240.7 39.95 240.7 41.35 240.7 42.3 239.75 43.25 238.85 43.3 237.25L43.3 227.15M43.05 223.7Q42.6 223.25 41.95 223.25 41.25 223.25 40.8 223.7 40.35 224.15 40.35 224.85 40.35 225.5 40.8 225.95 41.25 226.4 41.95 226.4 42.6 226.4 43.05 225.95 43.5 225.5 43.5 224.85 43.5 224.15 43.05 223.7M60.2 227.2L57.5 227.2 57.5 236.9 60.2 236.9 60.2 232.7Q60.2 231.3 60.8 230.45 61.4 229.6 62.6 229.6L63.1 229.6 63.1 227.05Q62.3 227.05 61.5 227.5 60.7 227.9 60.2 228.5L60.2 227.2M55.5 232.05Q55.5 229.95 54.05 228.5 52.6 227.05 50.35 227.05 48.15 227.05 46.7 228.5 45.25 229.95 45.25 232.05 45.25 234.15 46.7 235.6 48.15 237.05 50.35 237.05 52.55 237.05 54.05 235.6 55.5 234.15 55.5 232.05M52.1 230.1Q52.8 230.85 52.75 232.05 52.75 233.25 52.1 234 51.45 234.75 50.35 234.75 49.3 234.75 48.65 234 47.95 233.25 47.95 232.05 47.95 230.85 48.65 230.1 49.3 229.35 50.35 229.35 51.4 229.35 52.1 230.1M85.75 227.05Q83.55 227.05 82.1 228.5 80.65 229.95 80.65 232.05 80.65 234.15 82.1 235.6 83.55 237.05 85.75 237.05 87.95 237.05 89.45 235.6 90.9 234.15 90.9 232.05 90.9 229.95 89.45 228.5 88 227.05 85.75 227.05M84.05 230.1Q84.7 229.35 85.75 229.35 86.8 229.35 87.5 230.1 88.2 230.85 88.15 232.05 88.15 233.25 87.5 234 86.85 234.75 85.75 234.75 84.7 234.75 84.05 234 83.35 233.25 83.35 232.05 83.35 230.85 84.05 230.1M95.6 223.55L92.9 223.55 92.9 236.9 95.6 236.9 95.6 223.55M100.75 232.45L100.75 227.2 98.05 227.2 98.05 233.05Q98.05 235 99.15 236.05 100.2 237 101.8 237.05 103.4 237.05 104.4 235.6L104.4 236.9 107.1 236.9 107.1 227.2 104.4 227.2 104.4 232.4Q104.4 233.55 103.8 234.1 103.2 234.7 102.4 234.7 100.75 234.7 100.75 232.45M154.9 230.55Q154.9 227.6 153.1 225.95 151.3 224.3 147.95 224.3L143.5 224.3 143.5 236.9 147.8 236.9Q151.4 236.9 153.15 235.15 154.9 233.45 154.9 230.55M146.3 234.4L146.3 226.75 147.85 226.75Q150 226.75 151.05 227.75 152.1 228.75 152.1 230.6 152.1 232.45 151.05 233.45 150 234.4 148.1 234.4L146.3 234.4M159.8 232.7Q159.8 231.3 160.4 230.45 161 229.6 162.2 229.6L162.7 229.6 162.7 227.05Q161.9 227.05 161.1 227.5 160.3 227.9 159.8 228.5L159.8 227.2 157.1 227.2 157.1 236.9 159.8 236.9 159.8 232.7M124.9 231Q124.9 229.1 123.85 228.05 122.8 227.05 121.1 227.05 120.15 227.05 119.2 227.55 118.25 228 117.7 228.9 117.3 228.15 116.55 227.6 115.8 227.05 114.9 227.05 113.45 227.05 112.35 228.3L112.35 227.2 109.65 227.2 109.65 236.9 112.35 236.9 112.35 231.7Q112.35 230.55 112.95 229.95 113.55 229.4 114.35 229.35 115.15 229.35 115.45 229.9 115.85 230.45 115.8 231.6L115.8 236.9 118.55 236.9 118.55 231.7Q118.55 230.55 119.15 229.95 119.75 229.4 120.55 229.35 122.15 229.35 122.2 231.6L122.2 236.9 124.9 236.9 124.9 231M136.5 231.55Q136.5 229.45 135.15 228.25 133.75 227.05 131.75 227.05 129.75 227.05 128.25 228.4 126.8 229.75 126.8 232.05 126.8 234.3 128.25 235.7 129.7 237.05 131.9 237.05 134.1 237.05 135.75 235.5L134.2 233.85Q133.3 234.8 131.9 234.8 131 234.8 130.3 234.3 129.6 233.8 129.45 233L136.5 233 136.5 231.55M133.15 229.75Q133.7 230.2 133.8 231.1L129.55 231.1Q129.65 230.25 130.3 229.75 130.95 229.3 131.8 229.3 132.55 229.3 133.15 229.75Z"/></g></g></svg>