<?xml version="1.0" encoding="utf-8"?><svg id="06-angel-the-right-choice" image-rendering="auto" baseProfile="basic" version="1.1" x="0px" y="0px" width="1180" height="560" xmlns="http://www.w3.org/2000/svg" xmlns:xlink="http://www.w3.org/1999/xlink"><g id="Scene-1r1" overflow="visible"><g id="Symbol-33" transform="matrix(.721 0 0 .721 558.3 250.6)"><animateTransform attributeName="transform" additive="replace" type="translate" dur="0.517s" keyTimes="0;.934;1" values="612.485,304.821;612.5,304.8;612.5,304.8" keySplines=".25 .5 .5 1;.1 .1 .9 .9" calcMode="spline" fill="freeze"/><animateTransform attributeName="transform" additive="sum" type="scale" dur="0.517s" keyTimes="0;.934;1" values=".721,.721;1,1;1,1" keySplines=".25 .5 .5 1;.1 .1 .9 .9" calcMode="spline" fill="freeze"/><animateTransform attributeName="transform" additive="sum" type="translate" dur="0.517s" keyTimes="0;.934;1" values="-75.25,-75.3;-75.2,-75.2;-75.2,-75.2" keySplines=".25 .5 .5 1;.1 .1 .9 .9" calcMode="spline" fill="freeze"/><path fill="#0068B4" stroke="none" d="M150.4 75.2Q150.4 44.05 128.4 22 106.35 0 75.2 0 44.05 0 22.05 22 0 44.05 0 75.2 0 106.35 22.05 128.35 44.05 150.4 75.2 150.4 106.35 150.4 128.4 128.35 150.4 106.35 150.4 75.2Z"/><path fill="#FC0" stroke="none" d="M46.9 95.8L30.15 95.8 38.5 109.85 46.9 95.8M63.7 95.8L46.9 95.8 55.35 109.85 63.7 95.8M55.35 81.75L63.7 67.7 46.9 67.7 55.35 81.75M80.45 95.8L63.7 95.8 72.15 109.85 80.45 95.8M80.55 95.8L80.45 95.8 88.9 109.85 97.25 95.8 80.55 95.8M72.15 81.75L80.55 95.8 88.9 81.75 72.15 81.75M55.35 81.75L55.25 81.75 63.7 95.8 72.05 81.75 55.35 81.75M46.9 95.8L55.25 81.75 38.5 81.75 46.9 95.8M80.45 67.7L63.7 67.7 72.15 81.75 80.45 67.7M63.7 67.7L72.05 53.65 55.25 53.65 63.7 67.7Z"/><path fill="#0AA537" stroke="none" d="M72.15 25.6L63.7 39.65 88.9 81.75 105.7 109.85 122.45 109.85 72.15 25.6Z"/></g><g id="Symbol-32" transform="translate(-13.85 138.9)" opacity="0"><animateTransform attributeName="transform" additive="replace" type="translate" dur="0.517s" keyTimes="0;.934;1" values="-13.85,138.9;36.15,138.9;36.15,138.9" keySplines=".25 .5 .5 1;.1 .1 .9 .9" calcMode="spline" fill="freeze"/><animate attributeName="opacity" dur="0.517s" keyTimes="0;.934;1" values="0;1;1" keySplines=".25 .5 .5 1;.1 .1 .9 .9" calcMode="spline" fill="freeze"/><path fill="#333" stroke="none" d="M298.05 351.5Q298.05 349.35 296.65 348 295.3 346.6 293.1 346.6 290.95 346.6 289.55 348 288.15 349.35 288.15 351.5 288.15 353.6 289.55 355 290.95 356.35 293.1 356.35 295.3 356.35 296.65 355 298.05 353.6 298.05 351.5M296.35 351.5Q296.35 353 295.4 353.95 294.5 354.85 293.1 354.85 291.7 354.85 290.85 353.95 289.9 353 289.9 351.5 289.9 349.95 290.85 349.05 291.7 348.15 293.1 348.15 294.5 348.15 295.4 349.05 296.35 349.95 296.35 351.5M320.05 352.05L320.1 351.55Q320.1 349.35 318.8 348 317.45 346.6 315.4 346.6 313.3 346.6 311.95 348 310.6 349.35 310.6 351.5 310.6 353.65 312 355 313.45 356.35 315.75 356.35 318.15 356.35 319.5 354.8L318.55 353.7Q317.5 354.85 315.8 354.85 314.4 354.85 313.45 354.1 312.5 353.3 312.35 352.05L320.05 352.05M315.4 348.1Q316.65 348.1 317.5 348.85 318.3 349.6 318.45 350.8L312.35 350.8Q312.45 349.6 313.3 348.85 314.15 348.1 315.4 348.1M283.35 348.3L283.35 346.7 281.7 346.7 281.7 356.25 283.4 356.25 283.4 351.5Q283.4 349.95 284.2 349.1 285 348.3 286.4 348.3L286.8 348.3 286.8 346.6Q284.25 346.6 283.35 348.3M271.15 342.9L269.45 342.9 269.45 356.25 271.1 356.25 271.1 354.75Q272.25 356.35 274.5 356.35 276.6 356.35 277.95 355 279.3 353.65 279.3 351.5 279.3 349.3 277.95 347.95 276.6 346.6 274.5 346.6 272.35 346.6 271.15 348.15L271.15 342.9M276.65 349.05Q277.55 349.95 277.55 351.5 277.55 353 276.65 353.95 275.75 354.85 274.35 354.85 272.95 354.85 272.05 353.95 271.15 353 271.15 351.5 271.15 349.95 272.05 349.05 272.95 348.15 274.35 348.15 275.75 348.15 276.65 349.05M278.6 326.15L278.65 325.65Q278.65 323.45 277.35 322.1 276 320.7 273.95 320.7 271.85 320.7 270.5 322.1 269.15 323.45 269.15 325.6 269.15 327.75 270.55 329.1 272 330.45 274.3 330.45 276.7 330.45 278.05 328.9L277.1 327.8Q276.05 328.95 274.35 328.95 272.95 328.95 272 328.2 271.05 327.4 270.9 326.15L278.6 326.15M276.05 322.95Q276.85 323.7 277 324.9L270.9 324.9Q271 323.7 271.85 322.95 272.7 322.2 273.95 322.2 275.2 322.2 276.05 322.95M247.2 320.8L245.55 320.8 245.55 330.35 247.25 330.35 247.25 325.45Q247.25 323.9 248.1 323.05 248.9 322.25 250.3 322.25 252.85 322.25 252.85 325.05L252.85 330.35 254.6 330.35 254.6 324.85Q254.6 322.8 253.5 321.75 252.45 320.7 250.65 320.7 248.3 320.7 247.2 322.25L247.2 320.8M266.8 317L265.05 317 265.05 322.25Q263.9 320.7 261.75 320.7 259.6 320.7 258.25 322.05 256.9 323.4 256.9 325.6 256.9 327.75 258.25 329.1 259.6 330.45 261.75 330.45 263.95 330.45 265.15 328.85L265.15 330.35 266.8 330.35 266.8 317M258.65 325.6Q258.65 324.05 259.6 323.15 260.45 322.25 261.85 322.25 263.25 322.25 264.15 323.15 265.1 324.05 265.1 325.6 265.1 327.1 264.15 328.05 263.25 328.95 261.85 328.95 260.45 328.95 259.6 328.05 258.65 327.1 258.65 325.6M302.15 342.9L300.45 342.9 300.45 356.25 302.15 356.25 302.15 353.65 304.15 351.8 307.75 356.25 309.85 356.25 305.45 350.65 309.45 346.7 307.35 346.7 302.15 351.45 302.15 342.9M283.6 323.05Q284.4 322.25 285.8 322.25 288.35 322.25 288.35 325.05L288.35 330.35 290.1 330.35 290.1 324.85Q290.1 322.8 289 321.75 287.95 320.7 286.15 320.7 283.8 320.7 282.7 322.25L282.7 320.8 281.05 320.8 281.05 330.35 282.75 330.35 282.75 325.45Q282.75 323.9 283.6 323.05M298 320.8L295.25 320.8 295.25 318.7 293.55 318.7 293.55 320.8 291.9 320.8 291.9 322.25 293.55 322.25 293.55 327.45Q293.55 328.9 294.35 329.7 295.1 330.45 296.55 330.45 297.9 330.45 298.65 329.8L298.1 328.55Q297.55 329 296.75 329 295.25 329 295.25 327.4L295.25 322.25 298 322.25 298 320.8M313.55 320.8L311.8 320.8 311.8 326.3Q311.8 328.35 312.9 329.45 314 330.45 315.9 330.45 318.05 330.45 319.15 328.9L319.15 330.35 320.8 330.35 320.8 320.8 319.05 320.8 319.05 325.75Q319.05 327.25 318.25 328.1 317.45 328.9 316.1 328.9 313.55 328.9 313.55 326.1L313.55 320.8M307.5 320.8L307.5 320Q307.5 318.3 309.05 318.3 309.75 318.3 310.35 318.75L310.9 317.45Q310.15 316.9 308.95 316.9 307.45 316.9 306.6 317.75 305.8 318.55 305.8 319.95L305.8 320.8 304.15 320.8 304.15 322.25 305.8 322.25 305.8 330.35 307.5 330.35 307.5 322.25 310.25 322.25 310.25 320.8 307.5 320.8M181.8 330.35L183.5 330.35 183.5 320.8 181.8 320.8 181.8 330.35M174.25 320.8L171.5 320.8 171.5 318.7 169.8 318.7 169.8 320.8 168.15 320.8 168.15 322.25 169.8 322.25 169.8 327.45Q169.8 328.9 170.6 329.7 171.35 330.45 172.8 330.45 174.15 330.45 174.9 329.8L174.35 328.55Q173.8 329 173 329 171.5 329 171.5 327.4L171.5 322.25 174.25 322.25 174.25 320.8M188.45 320.8L186.8 320.8 186.8 330.35 188.5 330.35 188.5 325.45Q188.5 323.9 189.35 323.05 190.15 322.25 191.55 322.25 194.1 322.25 194.1 325.05L194.1 330.35 195.85 330.35 195.85 324.85Q195.85 322.8 194.75 321.75 193.7 320.7 191.9 320.7 189.55 320.7 188.45 322.25L188.45 320.8M183.5 317.05Q183.15 316.75 182.65 316.75 182.15 316.75 181.8 317.05 181.5 317.4 181.5 317.85 181.5 318.35 181.8 318.65 182.15 319 182.65 319 183.15 319 183.5 318.65 183.8 318.3 183.8 317.85 183.8 317.35 183.5 317.05M232.15 325.6Q232.15 323.4 230.8 322.05 229.45 320.7 227.35 320.7 225.1 320.7 223.95 322.35L223.95 320.8 222.3 320.8 222.3 333.85 224 333.85 224 328.9Q225.2 330.45 227.35 330.45 229.45 330.45 230.8 329.1 232.15 327.75 232.15 325.6M229.5 323.15Q230.4 324.1 230.4 325.6 230.4 327.1 229.5 328.05 228.6 328.95 227.2 328.95 225.8 328.95 224.9 328.05 224 327.1 224 325.6 224 324.1 224.9 323.15 225.8 322.25 227.2 322.25 228.6 322.25 229.5 323.15M235 322.1Q233.65 323.45 233.65 325.6 233.65 327.75 235.05 329.1 236.5 330.45 238.8 330.45 241.2 330.45 242.55 328.9L241.6 327.8Q240.55 328.95 238.85 328.95 237.45 328.95 236.5 328.2 235.55 327.4 235.4 326.15L243.1 326.15 243.15 325.65Q243.15 323.45 241.85 322.1 240.5 320.7 238.45 320.7 236.35 320.7 235 322.1M238.45 322.2Q239.7 322.2 240.55 322.95 241.35 323.7 241.5 324.9L235.4 324.9Q235.5 323.7 236.35 322.95 237.2 322.2 238.45 322.2M219.9 325.65Q219.9 323.45 218.6 322.1 217.25 320.7 215.2 320.7 213.1 320.7 211.75 322.1 210.4 323.45 210.4 325.6 210.4 327.75 211.8 329.1 213.25 330.45 215.55 330.45 217.95 330.45 219.3 328.9L218.35 327.8Q217.3 328.95 215.6 328.95 214.2 328.95 213.25 328.2 212.3 327.4 212.15 326.15L219.85 326.15 219.9 325.65M215.2 322.2Q216.45 322.2 217.3 322.95 218.1 323.7 218.25 324.9L212.15 324.9Q212.25 323.7 213.1 322.95 213.95 322.2 215.2 322.2M208.05 317L206.3 317 206.3 322.25Q205.15 320.7 203 320.7 200.85 320.7 199.5 322.05 198.15 323.4 198.15 325.6 198.15 327.75 199.5 329.1 200.85 330.45 203 330.45 205.2 330.45 206.4 328.85L206.4 330.35 208.05 330.35 208.05 317M203.1 322.25Q204.5 322.25 205.4 323.15 206.35 324.05 206.35 325.6 206.35 327.1 205.4 328.05 204.5 328.95 203.1 328.95 201.7 328.95 200.85 328.05 199.9 327.1 199.9 325.6 199.9 324.05 200.85 323.15 201.7 322.25 203.1 322.25M110.45 317.75L108.65 317.75 108.65 330.35 117.25 330.35 117.25 328.8 110.45 328.8 110.45 317.75M161.35 323.5Q161.35 322.9 161.9 322.55 162.5 322.2 163.6 322.2 165.2 322.2 166.35 322.95L167.1 321.6Q165.75 320.7 163.6 320.7 161.8 320.7 160.7 321.5 159.65 322.3 159.65 323.6 159.65 324.85 160.6 325.5 161.25 326 162.65 326.25 164.5 326.6 164.75 326.65 165.65 327 165.65 327.65 165.65 328.95 163.4 328.95 161.45 328.95 160.05 328L159.35 329.35Q159.95 329.8 161 330.15 162.1 330.45 163.3 330.45 165.2 330.45 166.3 329.7 167.4 328.95 167.4 327.65 167.4 326.4 166.45 325.75 165.8 325.3 164.4 325 162.6 324.7 162.3 324.6 161.35 324.25 161.35 323.5M158.1 326.15L158.15 325.65Q158.15 323.45 156.85 322.1 155.5 320.7 153.45 320.7 151.35 320.7 150 322.1 148.65 323.45 148.65 325.6 148.65 327.75 150.05 329.1 151.5 330.45 153.8 330.45 156.2 330.45 157.55 328.9L156.6 327.8Q155.55 328.95 153.85 328.95 152.45 328.95 151.5 328.2 150.55 327.4 150.4 326.15L158.1 326.15M153.45 322.2Q154.7 322.2 155.55 322.95 156.35 323.7 156.5 324.9L150.4 324.9Q150.5 323.7 151.35 322.95 152.2 322.2 153.45 322.2M122.3 322.2Q124.85 322.2 124.85 324.5L124.85 324.85 122.15 324.85Q118.3 324.85 118.3 327.65 118.3 328.9 119.25 329.65 120.2 330.45 121.85 330.45 124.05 330.45 124.95 329.1L124.95 330.35 126.6 330.35 126.6 324.6Q126.6 320.7 122.5 320.7 120.1 320.7 118.55 321.95L119.3 323.25Q120.5 322.2 122.3 322.2M122.2 326.1L124.85 326.1 124.85 327.45Q124.2 329.15 122.1 329.15 121.15 329.15 120.55 328.7 120 328.3 120 327.6 120 326.1 122.2 326.1M131.45 320.8L129.8 320.8 129.8 330.35 131.5 330.35 131.5 325.6Q131.5 324.05 132.3 323.2 133.1 322.4 134.5 322.4L134.9 322.4 134.9 320.7Q132.35 320.7 131.45 322.4L131.45 320.8M146.25 320.8L144.6 320.8 144.6 322.3Q143.4 320.7 141.1 320.7 139 320.7 137.65 322 136.25 323.3 136.25 325.35 136.25 327.35 137.65 328.65 139 329.95 141.1 329.95 143.3 329.95 144.55 328.5L144.55 329.25Q144.55 332.45 141.25 332.45 139.05 332.45 137.6 331.2L136.75 332.55Q138.35 333.95 141.3 333.95 146.25 333.95 146.25 329.05L146.25 320.8M138.95 323.1Q139.85 322.25 141.3 322.25 142.75 322.25 143.65 323.1 144.55 323.95 144.55 325.35 144.55 326.7 143.65 327.55 142.75 328.45 141.3 328.45 139.85 328.45 138.95 327.55 138 326.7 138 325.35 138 323.95 138.95 323.1M155.25 190.05L156 191.35Q157.2 190.3 159 190.3 161.55 190.3 161.55 192.6L161.55 192.95 158.85 192.95Q155 192.95 155 195.75 155 197 155.95 197.75 156.9 198.55 158.55 198.55 160.75 198.55 161.65 197.2L161.65 198.45 163.3 198.45 163.3 192.7Q163.3 188.8 159.2 188.8 156.8 188.8 155.25 190.05M161.55 195.55Q160.9 197.25 158.8 197.25 157.85 197.25 157.25 196.8 156.7 196.4 156.7 195.7 156.7 194.2 158.9 194.2L161.55 194.2 161.55 195.55M141.95 192.15Q141.95 194.95 143.85 196.75 145.75 198.6 148.6 198.6 151.65 198.6 153.45 196.6L152.25 195.5Q150.85 197 148.7 197 146.6 197 145.15 195.6 143.75 194.25 143.75 192.15 143.75 190.05 145.15 188.7 146.6 187.3 148.7 187.3 150.85 187.3 152.25 188.8L153.45 187.65Q151.7 185.7 148.65 185.7 145.75 185.7 143.85 187.55 141.95 189.35 141.95 192.15M134.7 185.1L132.95 185.1 132.95 190.35Q131.8 188.8 129.65 188.8 127.5 188.8 126.15 190.15 124.8 191.5 124.8 193.7 124.8 195.85 126.15 197.2 127.5 198.55 129.65 198.55 131.85 198.55 133.05 196.95L133.05 198.45 134.7 198.45 134.7 185.1M127.5 191.25Q128.35 190.35 129.75 190.35 131.15 190.35 132.05 191.25 133 192.15 133 193.7 133 195.2 132.05 196.15 131.15 197.05 129.75 197.05 128.35 197.05 127.5 196.15 126.55 195.2 126.55 193.7 126.55 192.15 127.5 191.25M138.8 164.45L138.8 163 136.05 163 136.05 160.9 134.35 160.9 134.35 163 132.7 163 132.7 164.45 134.35 164.45 134.35 169.65Q134.35 171.1 135.15 171.9 135.9 172.65 137.35 172.65 138.7 172.65 139.45 172L138.9 170.75Q138.35 171.2 137.55 171.2 136.05 171.2 136.05 169.6L136.05 164.45 138.8 164.45M128.15 164.4Q129.75 164.4 130.9 165.15L131.65 163.8Q130.3 162.9 128.15 162.9 126.35 162.9 125.25 163.7 124.2 164.5 124.2 165.8 124.2 167.05 125.15 167.7 125.8 168.2 127.2 168.45 129.05 168.8 129.3 168.85 130.2 169.2 130.2 169.85 130.2 171.15 127.95 171.15 126 171.15 124.6 170.2L123.9 171.55Q124.5 172 125.55 172.35 126.65 172.65 127.85 172.65 129.75 172.65 130.85 171.9 131.95 171.15 131.95 169.85 131.95 168.6 131 167.95 130.35 167.5 128.95 167.2 127.15 166.9 126.85 166.8 125.9 166.45 125.9 165.7 125.9 165.1 126.45 164.75 127.05 164.4 128.15 164.4M150.45 171.15Q149.05 171.15 148.15 170.25 147.2 169.3 147.2 167.8 147.2 166.25 148.15 165.35 149.05 164.45 150.45 164.45 152.2 164.45 153.05 165.8L154.4 164.95Q153.25 162.9 150.5 162.9 148.3 162.9 146.9 164.3 145.45 165.65 145.45 167.8 145.45 169.9 146.9 171.3 148.3 172.65 150.5 172.65 153.2 172.65 154.4 170.6L153.05 169.8Q152.2 171.15 150.45 171.15M118.55 188.8Q116.2 188.8 115.1 190.35L115.1 188.9 113.45 188.9 113.45 198.45 115.15 198.45 115.15 193.55Q115.15 192 116 191.15 116.8 190.35 118.2 190.35 120.75 190.35 120.75 193.15L120.75 198.45 122.5 198.45 122.5 192.95Q122.5 190.9 121.4 189.85 120.35 188.8 118.55 188.8M106.15 188.8Q103.75 188.8 102.2 190.05L102.95 191.35Q104.15 190.3 105.95 190.3 108.5 190.3 108.5 192.6L108.5 192.95 105.8 192.95Q101.95 192.95 101.95 195.75 101.95 197 102.9 197.75 103.85 198.55 105.5 198.55 107.7 198.55 108.6 197.2L108.6 198.45 110.25 198.45 110.25 192.7Q110.25 188.8 106.15 188.8M105.75 197.25Q104.8 197.25 104.2 196.8 103.65 196.4 103.65 195.7 103.65 194.2 105.85 194.2L108.5 194.2 108.5 195.55Q107.85 197.25 105.75 197.25M90.75 188.8Q88.4 188.8 87.3 190.35L87.3 188.9 85.65 188.9 85.65 198.45 87.35 198.45 87.35 193.55Q87.35 192 88.2 191.15 89 190.35 90.4 190.35 92.95 190.35 92.95 193.15L92.95 198.45 94.7 198.45 94.7 192.95Q94.7 190.9 93.6 189.85 92.55 188.8 90.75 188.8M121.4 164.3Q120.05 162.9 118 162.9 115.9 162.9 114.55 164.3 113.2 165.65 113.2 167.8 113.2 169.95 114.6 171.3 116.05 172.65 118.35 172.65 120.75 172.65 122.1 171.1L121.15 170Q120.1 171.15 118.4 171.15 117 171.15 116.05 170.4 115.1 169.6 114.95 168.35L122.65 168.35 122.7 167.85Q122.7 165.65 121.4 164.3M118 164.4Q119.25 164.4 120.1 165.15 120.9 165.9 121.05 167.1L114.95 167.1Q115.05 165.9 115.9 165.15 116.75 164.4 118 164.4M109.75 160.8Q108.55 159.95 106.4 159.95L100.75 159.95 100.75 172.55 106.75 172.55Q109.1 172.55 110.35 171.65 111.6 170.8 111.6 169.15 111.6 166.65 109.2 166 110.9 165.2 110.9 163.2 110.9 161.65 109.75 160.8M106.25 165.45L102.55 165.45 102.55 161.4 106.25 161.4Q109.1 161.4 109.1 163.45 109.1 165.45 106.25 165.45M109.75 169Q109.75 171.1 106.7 171.1L102.55 171.1 102.55 166.9 106.7 166.9Q109.75 166.9 109.75 169M70.95 188.9L69.25 188.9 69.25 198.45 70.95 198.45 70.95 188.9M73.35 193.7Q73.35 195.8 74.75 197.2 76.15 198.55 78.3 198.55 80.5 198.55 81.85 197.2 83.25 195.8 83.25 193.7 83.25 191.55 81.85 190.2 80.5 188.8 78.3 188.8 76.15 188.8 74.75 190.2 73.35 191.55 73.35 193.7M76.05 191.25Q76.9 190.35 78.3 190.35 79.7 190.35 80.6 191.25 81.55 192.15 81.55 193.7 81.55 195.2 80.6 196.15 79.7 197.05 78.3 197.05 76.9 197.05 76.05 196.15 75.1 195.2 75.1 193.7 75.1 192.15 76.05 191.25M70.1 184.85Q69.6 184.85 69.25 185.15 68.95 185.5 68.95 185.95 68.95 186.45 69.25 186.75 69.6 187.1 70.1 187.1 70.6 187.1 70.95 186.75 71.25 186.4 71.25 185.95 71.25 185.45 70.95 185.15 70.6 184.85 70.1 184.85M51.3 191.35Q52.5 190.3 54.3 190.3 56.85 190.3 56.85 192.6L56.85 192.95 54.15 192.95Q50.3 192.95 50.3 195.75 50.3 197 51.25 197.75 52.2 198.55 53.85 198.55 56.05 198.55 56.95 197.2L56.95 198.45 58.6 198.45 58.6 192.7Q58.6 188.8 54.5 188.8 52.1 188.8 50.55 190.05L51.3 191.35M54.1 197.25Q53.15 197.25 52.55 196.8 52 196.4 52 195.7 52 194.2 54.2 194.2L56.85 194.2 56.85 195.55Q56.2 197.25 54.1 197.25M60.4 188.9L60.4 190.35 62.05 190.35 62.05 195.55Q62.05 197 62.85 197.8 63.6 198.55 65.05 198.55 66.4 198.55 67.15 197.9L66.6 196.65Q66.05 197.1 65.25 197.1 63.75 197.1 63.75 195.5L63.75 190.35 66.5 190.35 66.5 188.9 63.75 188.9 63.75 186.8 62.05 186.8 62.05 188.9 60.4 188.9M47.5 191.7L48.85 190.85Q47.7 188.8 44.95 188.8 42.75 188.8 41.35 190.2 39.9 191.55 39.9 193.7 39.9 195.8 41.35 197.2 42.75 198.55 44.95 198.55 47.65 198.55 48.85 196.5L47.5 195.7Q46.65 197.05 44.9 197.05 43.5 197.05 42.6 196.15 41.65 195.2 41.65 193.7 41.65 192.15 42.6 191.25 43.5 190.35 44.9 190.35 46.65 190.35 47.5 191.7M30.3 188.9L28.55 188.9 28.55 194.4Q28.55 196.45 29.65 197.55 30.75 198.55 32.65 198.55 34.8 198.55 35.9 197L35.9 198.45 37.55 198.45 37.55 188.9 35.8 188.9 35.8 193.85Q35.8 195.35 35 196.2 34.2 197 32.85 197 30.3 197 30.3 194.2L30.3 188.9M16.85 190.15Q15.5 191.5 15.5 193.7 15.5 195.85 16.85 197.2 18.2 198.55 20.35 198.55 22.55 198.55 23.75 196.95L23.75 198.45 25.4 198.45 25.4 185.1 23.65 185.1 23.65 190.35Q22.5 188.8 20.35 188.8 18.2 188.8 16.85 190.15M18.2 196.15Q17.25 195.2 17.25 193.7 17.25 192.15 18.2 191.25 19.05 190.35 20.45 190.35 21.85 190.35 22.75 191.25 23.7 192.15 23.7 193.7 23.7 195.2 22.75 196.15 21.85 197.05 20.45 197.05 19.05 197.05 18.2 196.15M6.4 191.3L6.4 187.4 13.5 187.4 13.5 185.85 4.6 185.85 4.6 198.45 13.75 198.45 13.75 196.9 6.4 196.9 6.4 192.8 12.7 192.8 12.7 191.3 6.4 191.3M84.75 19.4L86.6 19.4 88 16.25 94.65 16.25 96.05 19.4 97.95 19.4 92.2 6.8 90.45 6.8 84.75 19.4M94.05 14.8L88.6 14.8 91.3 8.65 94.05 14.8M114 9.85L112.45 9.85 109.6 17.5 106.75 9.85 105.3 9.85 102.4 17.45 99.65 9.85 98 9.85 101.55 19.4 103.2 19.4 106 12.15 108.75 19.4 110.4 19.4 114 9.85M121.5 13.55L121.5 13.9 118.8 13.9Q114.95 13.9 114.95 16.7 114.95 17.95 115.9 18.7 116.85 19.5 118.5 19.5 120.7 19.5 121.6 18.15L121.6 19.4 123.25 19.4 123.25 13.65Q123.25 9.75 119.15 9.75 116.75 9.75 115.2 11L115.95 12.3Q117.15 11.25 118.95 11.25 121.5 11.25 121.5 13.55M121.5 15.15L121.5 16.5Q120.85 18.2 118.75 18.2 117.8 18.2 117.2 17.75 116.65 17.35 116.65 16.65 116.65 15.15 118.85 15.15L121.5 15.15M128.1 11.45L128.1 9.85 126.45 9.85 126.45 19.4 128.15 19.4 128.15 14.65Q128.15 13.1 128.95 12.25 129.75 11.45 131.15 11.45L131.55 11.45 131.55 9.75Q129 9.75 128.1 11.45M142.8 19.4L142.8 6.05 141.05 6.05 141.05 11.3Q139.9 9.75 137.75 9.75 135.6 9.75 134.25 11.1 132.9 12.45 132.9 14.65 132.9 16.8 134.25 18.15 135.6 19.5 137.75 19.5 139.95 19.5 141.15 17.9L141.15 19.4 142.8 19.4M137.85 11.3Q139.25 11.3 140.15 12.2 141.1 13.1 141.1 14.65 141.1 16.15 140.15 17.1 139.25 18 137.85 18 136.45 18 135.6 17.1 134.65 16.15 134.65 14.65 134.65 13.1 135.6 12.2 136.45 11.3 137.85 11.3M149.95 9.75Q147.85 9.75 146.5 11.15 145.15 12.5 145.15 14.65 145.15 16.8 146.55 18.15 148 19.5 150.3 19.5 152.7 19.5 154.05 17.95L153.1 16.85Q152.05 18 150.35 18 148.95 18 148 17.25 147.05 16.45 146.9 15.2L154.6 15.2 154.65 14.7Q154.65 12.5 153.35 11.15 152 9.75 149.95 9.75M147.85 12Q148.7 11.25 149.95 11.25 151.2 11.25 152.05 12 152.85 12.75 153 13.95L146.9 13.95Q147 12.75 147.85 12M299.85 193.7Q299.85 195.85 301.25 197.2 302.7 198.55 305 198.55 307.4 198.55 308.75 197L307.8 195.9Q306.75 197.05 305.05 197.05 303.65 197.05 302.7 196.3 301.75 195.5 301.6 194.25L309.3 194.25 309.35 193.75Q309.35 191.55 308.05 190.2 306.7 188.8 304.65 188.8 302.55 188.8 301.2 190.2 299.85 191.55 299.85 193.7M301.6 193Q301.7 191.8 302.55 191.05 303.4 190.3 304.65 190.3 305.9 190.3 306.75 191.05 307.55 191.8 307.7 193L301.6 193M289.6 193.7Q289.6 195.8 291.05 197.2 292.45 198.55 294.65 198.55 297.35 198.55 298.55 196.5L297.2 195.7Q296.35 197.05 294.6 197.05 293.2 197.05 292.3 196.15 291.35 195.2 291.35 193.7 291.35 192.15 292.3 191.25 293.2 190.35 294.6 190.35 296.35 190.35 297.2 191.7L298.55 190.85Q297.4 188.8 294.65 188.8 292.45 188.8 291.05 190.2 289.6 191.55 289.6 193.7M292.95 163L292.95 172.55 294.65 172.55 294.65 167.65Q294.65 166.1 295.5 165.25 296.3 164.45 297.7 164.45 300.25 164.45 300.25 167.25L300.25 172.55 302 172.55 302 167.05Q302 165 300.9 163.95 299.85 162.9 298.05 162.9 295.7 162.9 294.6 164.45L294.6 163 292.95 163M289.45 159.95L287.65 159.95 287.65 172.55 289.45 172.55 289.45 159.95M322.55 164.3Q321.2 162.9 319.15 162.9 317.05 162.9 315.7 164.3 314.35 165.65 314.35 167.8 314.35 169.95 315.75 171.3 317.2 172.65 319.5 172.65 321.9 172.65 323.25 171.1L322.3 170Q321.25 171.15 319.55 171.15 318.15 171.15 317.2 170.4 316.25 169.6 316.1 168.35L323.8 168.35 323.85 167.85Q323.85 165.65 322.55 164.3M319.15 164.4Q320.4 164.4 321.25 165.15 322.05 165.9 322.2 167.1L316.1 167.1Q316.2 165.9 317.05 165.15 317.9 164.4 319.15 164.4M313.65 163L311.95 163 308.6 170.65 305.3 163 303.5 163 307.7 172.55 309.45 172.55 313.65 163M283.35 188.8Q281 188.8 279.9 190.35L279.9 188.9 278.25 188.9 278.25 198.45 279.95 198.45 279.95 193.55Q279.95 192 280.8 191.15 281.6 190.35 283 190.35 285.55 190.35 285.55 193.15L285.55 198.45 287.3 198.45 287.3 192.95Q287.3 190.9 286.2 189.85 285.15 188.8 283.35 188.8M267 190.05L267.75 191.35Q268.95 190.3 270.75 190.3 273.3 190.3 273.3 192.6L273.3 192.95 270.6 192.95Q266.75 192.95 266.75 195.75 266.75 197 267.7 197.75 268.65 198.55 270.3 198.55 272.5 198.55 273.4 197.2L273.4 198.45 275.05 198.45 275.05 192.7Q275.05 188.8 270.95 188.8 268.55 188.8 267 190.05M270.55 197.25Q269.6 197.25 269 196.8 268.45 196.4 268.45 195.7 268.45 194.2 270.65 194.2L273.3 194.2 273.3 195.55Q272.65 197.25 270.55 197.25M250.95 189.85Q249.9 188.8 248.1 188.8 245.75 188.8 244.65 190.35L244.65 188.9 243 188.9 243 198.45 244.7 198.45 244.7 193.55Q244.7 192 245.55 191.15 246.35 190.35 247.75 190.35 250.3 190.35 250.3 193.15L250.3 198.45 252.05 198.45 252.05 192.95Q252.05 190.9 250.95 189.85M256.95 185.1L255.25 185.1 255.25 198.45 256.95 198.45 256.95 193.55Q256.95 192 257.8 191.15 258.6 190.35 260 190.35 262.55 190.35 262.55 193.15L262.55 198.45 264.3 198.45 264.3 192.95Q264.3 190.9 263.2 189.85 262.15 188.8 260.35 188.8 258.1 188.8 256.95 190.25L256.95 185.1M249.95 164.45L249.95 163 248.3 163 248.3 172.55 250 172.55 250 167.65Q250 166.1 250.85 165.25 251.65 164.45 253.05 164.45 255.6 164.45 255.6 167.25L255.6 172.55 257.35 172.55 257.35 167.05Q257.35 165 256.25 163.95 255.2 162.9 253.4 162.9 251.05 162.9 249.95 164.45M267.05 163L265.35 163 265.35 172.55 267.05 172.55 267.05 163M272 164.45L272 163 270.35 163 270.35 172.55 272.05 172.55 272.05 167.65Q272.05 166.1 272.9 165.25 273.7 164.45 275.1 164.45 277.65 164.45 277.65 167.25L277.65 172.55 279.4 172.55 279.4 167.05Q279.4 165 278.3 163.95 277.25 162.9 275.45 162.9 273.1 162.9 272 164.45M265.05 160.05Q265.05 160.55 265.35 160.85 265.7 161.2 266.2 161.2 266.7 161.2 267.05 160.85 267.35 160.5 267.35 160.05 267.35 159.55 267.05 159.25 266.7 158.95 266.2 158.95 265.7 158.95 265.35 159.25 265.05 159.6 265.05 160.05M240.35 196.9L233 196.9 233 192.8 239.3 192.8 239.3 191.3 233 191.3 233 187.4 240.1 187.4 240.1 185.85 231.2 185.85 231.2 198.45 240.35 198.45 240.35 196.9M216.2 188.9L214.4 188.9 218.6 198.45 218.3 199.1Q217.7 200.6 216.5 200.6 215.5 200.6 214.8 199.85L214.05 201.15Q214.95 202.05 216.5 202.05 217.65 202.05 218.45 201.5 219.3 200.85 219.9 199.4L224.55 188.9 222.85 188.9 219.55 196.55 216.2 188.9M210.4 190.5L210.4 188.9 208.75 188.9 208.75 198.45 210.45 198.45 210.45 193.7Q210.45 192.15 211.25 191.3 212.05 190.5 213.45 190.5L213.85 190.5 213.85 188.8Q211.3 188.8 210.4 190.5M212.2 163L212.2 168.5Q212.2 170.55 213.3 171.65 214.4 172.65 216.3 172.65 218.45 172.65 219.55 171.1L219.55 172.55 221.2 172.55 221.2 163 219.45 163 219.45 167.95Q219.45 169.45 218.65 170.3 217.85 171.1 216.5 171.1 213.95 171.1 213.95 168.3L213.95 163 212.2 163M236 167.8Q236 169.9 237.4 171.3 238.8 172.65 240.95 172.65 243.15 172.65 244.5 171.3 245.9 169.9 245.9 167.8 245.9 165.65 244.5 164.3 243.15 162.9 240.95 162.9 238.8 162.9 237.4 164.3 236 165.65 236 167.8M238.7 165.35Q239.55 164.45 240.95 164.45 242.35 164.45 243.25 165.35 244.2 166.25 244.2 167.8 244.2 169.3 243.25 170.25 242.35 171.15 240.95 171.15 239.55 171.15 238.7 170.25 237.75 169.3 237.75 167.8 237.75 166.25 238.7 165.35M231.9 163L231.9 172.55 233.6 172.55 233.6 163 231.9 163M229.15 164.45L229.15 163 226.4 163 226.4 160.9 224.7 160.9 224.7 163 223.05 163 223.05 164.45 224.7 164.45 224.7 169.65Q224.7 171.1 225.5 171.9 226.25 172.65 227.7 172.65 229.05 172.65 229.8 172L229.25 170.75Q228.7 171.2 227.9 171.2 226.4 171.2 226.4 169.6L226.4 164.45 229.15 164.45M233.9 160.05Q233.9 159.55 233.6 159.25 233.25 158.95 232.75 158.95 232.25 158.95 231.9 159.25 231.6 159.6 231.6 160.05 231.6 160.55 231.9 160.85 232.25 161.2 232.75 161.2 233.25 161.2 233.6 160.85 233.9 160.5 233.9 160.05M201.4 188.8Q199.25 188.8 197.85 190.2 196.45 191.55 196.45 193.7 196.45 195.8 197.85 197.2 199.25 198.55 201.4 198.55 203.6 198.55 204.95 197.2 206.35 195.8 206.35 193.7 206.35 191.55 204.95 190.2 203.6 188.8 201.4 188.8M199.15 191.25Q200 190.35 201.4 190.35 202.8 190.35 203.7 191.25 204.65 192.15 204.65 193.7 204.65 195.2 203.7 196.15 202.8 197.05 201.4 197.05 200 197.05 199.15 196.15 198.2 195.2 198.2 193.7 198.2 192.15 199.15 191.25M184.05 193.45Q184.05 195.45 185.45 196.75 186.8 198.05 188.9 198.05 191.1 198.05 192.35 196.6L192.35 197.35Q192.35 200.55 189.05 200.55 186.85 200.55 185.4 199.3L184.55 200.65Q186.15 202.05 189.1 202.05 194.05 202.05 194.05 197.15L194.05 188.9 192.4 188.9 192.4 190.4Q191.2 188.8 188.9 188.8 186.8 188.8 185.45 190.1 184.05 191.4 184.05 193.45M189.1 190.35Q190.55 190.35 191.45 191.2 192.35 192.05 192.35 193.45 192.35 194.8 191.45 195.65 190.55 196.55 189.1 196.55 187.65 196.55 186.75 195.65 185.8 194.8 185.8 193.45 185.8 192.05 186.75 191.2 187.65 190.35 189.1 190.35M181.25 190.2Q179.9 188.8 177.85 188.8 175.75 188.8 174.4 190.2 173.05 191.55 173.05 193.7 173.05 195.85 174.45 197.2 175.9 198.55 178.2 198.55 180.6 198.55 181.95 197L181 195.9Q179.95 197.05 178.25 197.05 176.85 197.05 175.9 196.3 174.95 195.5 174.8 194.25L182.5 194.25 182.55 193.75Q182.55 191.55 181.25 190.2M177.85 190.3Q179.1 190.3 179.95 191.05 180.75 191.8 180.9 193L174.8 193Q174.9 191.8 175.75 191.05 176.6 190.3 177.85 190.3M168.45 190.35L171.2 190.35 171.2 188.9 168.45 188.9 168.45 186.8 166.75 186.8 166.75 188.9 165.1 188.9 165.1 190.35 166.75 190.35 166.75 195.55Q166.75 197 167.55 197.8 168.3 198.55 169.75 198.55 171.1 198.55 171.85 197.9L171.3 196.65Q170.75 197.1 169.95 197.1 168.45 197.1 168.45 195.5L168.45 190.35M164.2 171.3Q165.6 169.9 165.6 167.8 165.6 165.65 164.2 164.3 162.85 162.9 160.65 162.9 158.5 162.9 157.1 164.3 155.7 165.65 155.7 167.8 155.7 169.9 157.1 171.3 158.5 172.65 160.65 172.65 162.85 172.65 164.2 171.3M163.9 167.8Q163.9 169.3 162.95 170.25 162.05 171.15 160.65 171.15 159.25 171.15 158.4 170.25 157.45 169.3 157.45 167.8 157.45 166.25 158.4 165.35 159.25 164.45 160.65 164.45 162.05 164.45 162.95 165.35 163.9 166.25 163.9 167.8M169.65 163L168 163 168 172.55 169.7 172.55 169.7 167.65Q169.7 166.1 170.55 165.25 171.35 164.45 172.75 164.45 175.3 164.45 175.3 167.25L175.3 172.55 177.05 172.55 177.05 167.05Q177.05 165 175.95 163.95 174.9 162.9 173.1 162.9 170.75 162.9 169.65 164.45L169.65 163M195.05 172.55L196.75 172.55 196.75 163 195.05 163 195.05 172.55M184.95 164.45L184.95 163 182.2 163 182.2 160.9 180.5 160.9 180.5 163 178.85 163 178.85 164.45 180.5 164.45 180.5 169.65Q180.5 171.1 181.3 171.9 182.05 172.65 183.5 172.65 184.85 172.65 185.6 172L185.05 170.75Q184.5 171.2 183.7 171.2 182.2 171.2 182.2 169.6L182.2 164.45 184.95 164.45M189.35 164.6L189.35 163 187.7 163 187.7 172.55 189.4 172.55 189.4 167.8Q189.4 166.25 190.2 165.4 191 164.6 192.4 164.6L192.8 164.6 192.8 162.9Q190.25 162.9 189.35 164.6M201.75 159.2L200.05 159.2 200.05 172.55 201.7 172.55 201.7 171.05Q202.85 172.65 205.1 172.65 207.2 172.65 208.55 171.3 209.9 169.95 209.9 167.8 209.9 165.6 208.55 164.25 207.2 162.9 205.1 162.9 202.95 162.9 201.75 164.45L201.75 159.2M202.65 165.35Q203.55 164.45 204.95 164.45 206.35 164.45 207.25 165.35 208.15 166.25 208.15 167.8 208.15 169.3 207.25 170.25 206.35 171.15 204.95 171.15 203.55 171.15 202.65 170.25 201.75 169.3 201.75 167.8 201.75 166.25 202.65 165.35M194.75 160.05Q194.75 160.55 195.05 160.85 195.4 161.2 195.9 161.2 196.4 161.2 196.75 160.85 197.05 160.5 197.05 160.05 197.05 159.55 196.75 159.25 196.4 158.95 195.9 158.95 195.4 158.95 195.05 159.25 194.75 159.6 194.75 160.05M166.05 6.05L164.3 6.05 164.3 11.3Q163.15 9.75 161 9.75 158.85 9.75 157.5 11.1 156.15 12.45 156.15 14.65 156.15 16.8 157.5 18.15 158.85 19.5 161 19.5 163.2 19.5 164.4 17.9L164.4 19.4 166.05 19.4 166.05 6.05M164.35 14.65Q164.35 16.15 163.4 17.1 162.5 18 161.1 18 159.7 18 158.85 17.1 157.9 16.15 157.9 14.65 157.9 13.1 158.85 12.2 159.7 11.3 161.1 11.3 162.5 11.3 163.4 12.2 164.35 13.1 164.35 14.65M177.55 9.75Q175.15 9.75 173.6 11L174.35 12.3Q175.55 11.25 177.35 11.25 179.9 11.25 179.9 13.55L179.9 13.9 177.2 13.9Q173.35 13.9 173.35 16.7 173.35 17.95 174.3 18.7 175.25 19.5 176.9 19.5 179.1 19.5 180 18.15L180 19.4 181.65 19.4 181.65 13.65Q181.65 9.75 177.55 9.75M179.9 15.15L179.9 16.5Q179.25 18.2 177.15 18.2 176.2 18.2 175.6 17.75 175.05 17.35 175.05 16.65 175.05 15.15 177.25 15.15L179.9 15.15M186.2 11.6Q186.8 11.25 187.9 11.25 189.5 11.25 190.65 12L191.4 10.65Q190.05 9.75 187.9 9.75 186.1 9.75 185 10.55 183.95 11.35 183.95 12.65 183.95 13.9 184.9 14.55 185.55 15.05 186.95 15.3 188.8 15.65 189.05 15.7 189.95 16.05 189.95 16.7 189.95 18 187.7 18 185.75 18 184.35 17.05L183.65 18.4Q184.25 18.85 185.3 19.2 186.4 19.5 187.6 19.5 189.5 19.5 190.6 18.75 191.7 18 191.7 16.7 191.7 15.45 190.75 14.8 190.1 14.35 188.7 14.05 186.9 13.75 186.6 13.65 185.65 13.3 185.65 12.55 185.65 11.95 186.2 11.6M206.2 19.4L206.2 13.65Q206.2 9.75 202.1 9.75 199.7 9.75 198.15 11L198.9 12.3Q200.1 11.25 201.9 11.25 204.45 11.25 204.45 13.55L204.45 13.9 201.75 13.9Q197.9 13.9 197.9 16.7 197.9 17.95 198.85 18.7 199.8 19.5 201.45 19.5 203.65 19.5 204.55 18.15L204.55 19.4 206.2 19.4M204.45 15.15L204.45 16.5Q203.8 18.2 201.7 18.2 200.75 18.2 200.15 17.75 199.6 17.35 199.6 16.65 199.6 15.15 201.8 15.15L204.45 15.15M227.85 6.8L226.35 6.8 221.15 15.65 215.9 6.8 214.45 6.8 214.45 19.4 216.15 19.4 216.15 10.3 220.7 17.85 221.55 17.85 226.1 10.2 226.1 19.4 227.85 19.4 227.85 6.8M230.85 11L231.6 12.3Q232.8 11.25 234.6 11.25 237.15 11.25 237.15 13.55L237.15 13.9 234.45 13.9Q230.6 13.9 230.6 16.7 230.6 17.95 231.55 18.7 232.5 19.5 234.15 19.5 236.35 19.5 237.25 18.15L237.25 19.4 238.9 19.4 238.9 13.65Q238.9 9.75 234.8 9.75 232.4 9.75 230.85 11M232.85 17.75Q232.3 17.35 232.3 16.65 232.3 15.15 234.5 15.15L237.15 15.15 237.15 16.5Q236.5 18.2 234.4 18.2 233.45 18.2 232.85 17.75M243.1 22.15Q243.9 21.3 243.9 19.85L243.9 9.85 242.2 9.85 242.2 19.85Q242.2 21.55 240.75 21.55 239.9 21.55 239.35 21.1L238.8 22.4Q239.5 23 240.85 23 242.3 23 243.1 22.15M251.25 9.75Q249.1 9.75 247.7 11.15 246.3 12.5 246.3 14.65 246.3 16.75 247.7 18.15 249.1 19.5 251.25 19.5 253.45 19.5 254.8 18.15 256.2 16.75 256.2 14.65 256.2 12.5 254.8 11.15 253.45 9.75 251.25 9.75M249 12.2Q249.85 11.3 251.25 11.3 252.65 11.3 253.55 12.2 254.5 13.1 254.5 14.65 254.5 16.15 253.55 17.1 252.65 18 251.25 18 249.85 18 249 17.1 248.05 16.15 248.05 14.65 248.05 13.1 249 12.2M243.9 6.1Q243.55 5.8 243.05 5.8 242.55 5.8 242.2 6.1 241.85 6.45 241.85 6.9 241.85 7.4 242.2 7.7 242.55 8.05 243.05 8.05 243.55 8.05 243.9 7.7 244.2 7.35 244.2 6.9 244.2 6.4 243.9 6.1M263.7 11.45L263.7 9.75Q261.15 9.75 260.25 11.45L260.25 9.85 258.6 9.85 258.6 19.4 260.3 19.4 260.3 14.65Q260.3 13.1 261.1 12.25 261.9 11.45 263.3 11.45L263.7 11.45M281.95 6.8L280.15 6.8 275.55 17.15 271 6.8 269.1 6.8 274.65 19.4 276.4 19.4 281.95 6.8M287.6 9.75Q285.45 9.75 284.05 11.15 282.65 12.5 282.65 14.65 282.65 16.75 284.05 18.15 285.45 19.5 287.6 19.5 289.8 19.5 291.15 18.15 292.55 16.75 292.55 14.65 292.55 12.5 291.15 11.15 289.8 9.75 287.6 9.75M287.6 11.3Q289 11.3 289.9 12.2 290.85 13.1 290.85 14.65 290.85 16.15 289.9 17.1 289 18 287.6 18 286.2 18 285.35 17.1 284.4 16.15 284.4 14.65 284.4 13.1 285.35 12.2 286.2 11.3 287.6 11.3M296.65 6.05L294.95 6.05 294.95 19.4 296.65 19.4 296.65 6.05M308.85 9.85L307.1 9.85 307.1 14.8Q307.1 16.3 306.3 17.15 305.5 17.95 304.15 17.95 301.6 17.95 301.6 15.15L301.6 9.85 299.85 9.85 299.85 15.35Q299.85 17.4 300.95 18.5 302.05 19.5 303.95 19.5 306.1 19.5 307.2 17.95L307.2 19.4 308.85 19.4 308.85 9.85M388.45 346.7L386.75 346.7 386.75 356.25 388.45 356.25 388.45 346.7M397.55 350.4L397.55 350.75 394.85 350.75Q391 350.75 391 353.55 391 354.8 391.95 355.55 392.9 356.35 394.55 356.35 396.75 356.35 397.65 355L397.65 356.25 399.3 356.25 399.3 350.5Q399.3 346.6 395.2 346.6 392.8 346.6 391.25 347.85L392 349.15Q393.2 348.1 395 348.1 397.55 348.1 397.55 350.4M394.9 352L397.55 352 397.55 353.35Q396.9 355.05 394.8 355.05 393.85 355.05 393.25 354.6 392.7 354.2 392.7 353.5 392.7 352 394.9 352M324.15 348.3L324.15 346.7 322.5 346.7 322.5 356.25 324.2 356.25 324.2 351.5Q324.2 349.95 325 349.1 325.8 348.3 327.2 348.3L327.6 348.3 327.6 346.6Q325.05 346.6 324.15 348.3M336.35 346.7L334.65 346.7 334.65 356.25 336.35 356.25 336.35 346.7M346.95 356.25L348.7 356.25 348.7 350.75Q348.7 348.7 347.6 347.65 346.55 346.6 344.75 346.6 342.4 346.6 341.3 348.15L341.3 346.7 339.65 346.7 339.65 356.25 341.35 356.25 341.35 351.35Q341.35 349.8 342.2 348.95 343 348.15 344.4 348.15 346.95 348.15 346.95 350.95L346.95 356.25M363.95 356.25L363.95 351.35Q363.95 349.8 364.8 348.95 365.6 348.15 367 348.15 369.55 348.15 369.55 350.95L369.55 356.25 371.3 356.25 371.3 350.75Q371.3 348.7 370.2 347.65 369.15 346.6 367.35 346.6 365 346.6 363.9 348.15L363.9 346.7 362.25 346.7 362.25 356.25 363.95 356.25M358.75 343.65L356.95 343.65 356.95 356.25 358.75 356.25 358.75 343.65M356.4 326.15L356.45 325.65Q356.45 323.45 355.15 322.1 353.8 320.7 351.75 320.7 349.65 320.7 348.3 322.1 346.95 323.45 346.95 325.6 346.95 327.75 348.35 329.1 349.8 330.45 352.1 330.45 354.5 330.45 355.85 328.9L354.9 327.8Q353.85 328.95 352.15 328.95 350.75 328.95 349.8 328.2 348.85 327.4 348.7 326.15L356.4 326.15M349.65 322.95Q350.5 322.2 351.75 322.2 353 322.2 353.85 322.95 354.65 323.7 354.8 324.9L348.7 324.9Q348.8 323.7 349.65 322.95M335.5 344.9Q336 344.9 336.35 344.55 336.65 344.2 336.65 343.75 336.65 343.25 336.35 342.95 336 342.65 335.5 342.65 335 342.65 334.65 342.95 334.35 343.3 334.35 343.75 334.35 344.25 334.65 344.55 335 344.9 335.5 344.9M325.75 317L324.05 317 324.05 330.35 325.75 330.35 325.75 317M330.75 317L329.05 317 329.05 330.35 330.75 330.35 330.75 317M341.9 320.7Q340.1 320.7 339 321.5 337.95 322.3 337.95 323.6 337.95 324.85 338.9 325.5 339.55 326 340.95 326.25 342.8 326.6 343.05 326.65 343.95 327 343.95 327.65 343.95 328.95 341.7 328.95 339.75 328.95 338.35 328L337.65 329.35Q338.25 329.8 339.3 330.15 340.4 330.45 341.6 330.45 343.5 330.45 344.6 329.7 345.7 328.95 345.7 327.65 345.7 326.4 344.75 325.75 344.1 325.3 342.7 325 340.9 324.7 340.6 324.6 339.65 324.25 339.65 323.5 339.65 322.9 340.2 322.55 340.8 322.2 341.9 322.2 343.5 322.2 344.65 322.95L345.4 321.6Q344.05 320.7 341.9 320.7M360.5 320.8L358.85 320.8 358.85 330.35 360.55 330.35 360.55 325.6Q360.55 324.05 361.35 323.2 362.15 322.4 363.55 322.4L363.95 322.4 363.95 320.7Q361.4 320.7 360.5 322.4L360.5 320.8M387.6 344.9Q388.1 344.9 388.45 344.55 388.75 344.2 388.75 343.75 388.75 343.25 388.45 342.95 388.1 342.65 387.6 342.65 387.1 342.65 386.75 342.95 386.45 343.3 386.45 343.75 386.45 344.25 386.75 344.55 387.1 344.9 387.6 344.9M400.05 326.15L400.1 325.65Q400.1 323.45 398.8 322.1 397.45 320.7 395.4 320.7 393.3 320.7 391.95 322.1 390.6 323.45 390.6 325.6 390.6 327.75 392 329.1 393.45 330.45 395.75 330.45 398.15 330.45 399.5 328.9L398.55 327.8Q397.5 328.95 395.8 328.95 394.4 328.95 393.45 328.2 392.5 327.4 392.35 326.15L400.05 326.15M395.4 322.2Q396.65 322.2 397.5 322.95 398.3 323.7 398.45 324.9L392.35 324.9Q392.45 323.7 393.3 322.95 394.15 322.2 395.4 322.2M383.05 328.05Q382.1 327.1 382.1 325.6 382.1 324.05 383.05 323.15 383.95 322.25 385.35 322.25 387.1 322.25 387.95 323.6L389.3 322.75Q388.15 320.7 385.4 320.7 383.2 320.7 381.8 322.1 380.35 323.45 380.35 325.6 380.35 327.7 381.8 329.1 383.2 330.45 385.4 330.45 388.1 330.45 389.3 328.4L387.95 327.6Q387.1 328.95 385.35 328.95 383.95 328.95 383.05 328.05M383.5 342.9L381.75 342.9 381.75 348.15Q380.6 346.6 378.45 346.6 376.3 346.6 374.95 347.95 373.6 349.3 373.6 351.5 373.6 353.65 374.95 355 376.3 356.35 378.45 356.35 380.65 356.35 381.85 354.75L381.85 356.25 383.5 356.25 383.5 342.9M380.85 349.05Q381.8 349.95 381.8 351.5 381.8 353 380.85 353.95 379.95 354.85 378.55 354.85 377.15 354.85 376.3 353.95 375.35 353 375.35 351.5 375.35 349.95 376.3 349.05 377.15 348.15 378.55 348.15 379.95 348.15 380.85 349.05M377.95 320.8L376.25 320.8 376.25 330.35 377.95 330.35 377.95 320.8M378.25 317.85Q378.25 317.35 377.95 317.05 377.6 316.75 377.1 316.75 376.6 316.75 376.25 317.05 375.95 317.4 375.95 317.85 375.95 318.35 376.25 318.65 376.6 319 377.1 319 377.6 319 377.95 318.65 378.25 318.3 378.25 317.85M366.3 320.8L364.5 320.8 368.7 330.35 370.45 330.35 374.65 320.8 372.95 320.8 369.6 328.45 366.3 320.8M352.6 190.35L354.25 190.35 354.25 195.55Q354.25 197 355.05 197.8 355.8 198.55 357.25 198.55 358.6 198.55 359.35 197.9L358.8 196.65Q358.25 197.1 357.45 197.1 355.95 197.1 355.95 195.5L355.95 190.35 358.7 190.35 358.7 188.9 355.95 188.9 355.95 186.8 354.25 186.8 354.25 188.9 352.6 188.9 352.6 190.35M343.4 188.9L341.75 188.9 341.75 198.45 343.45 198.45 343.45 193.55Q343.45 192 344.3 191.15 345.1 190.35 346.5 190.35 349.05 190.35 349.05 193.15L349.05 198.45 350.8 198.45 350.8 192.95Q350.8 190.9 349.7 189.85 348.65 188.8 346.85 188.8 344.5 188.8 343.4 190.35L343.4 188.9M332.7 196.3Q331.75 195.5 331.6 194.25L339.3 194.25 339.35 193.75Q339.35 191.55 338.05 190.2 336.7 188.8 334.65 188.8 332.55 188.8 331.2 190.2 329.85 191.55 329.85 193.7 329.85 195.85 331.25 197.2 332.7 198.55 335 198.55 337.4 198.55 338.75 197L337.8 195.9Q336.75 197.05 335.05 197.05 333.65 197.05 332.7 196.3M331.6 193Q331.7 191.8 332.55 191.05 333.4 190.3 334.65 190.3 335.9 190.3 336.75 191.05 337.55 191.8 337.7 193L331.6 193M327.6 192.95Q327.6 190.9 326.5 189.85 325.45 188.8 323.65 188.8 321.15 188.8 320 190.6 319.05 188.8 316.7 188.8 314.45 188.8 313.4 190.35L313.4 188.9 311.75 188.9 311.75 198.45 313.45 198.45 313.45 193.55Q313.45 192 314.25 191.15 315 190.35 316.35 190.35 318.8 190.35 318.8 193.15L318.8 198.45 320.5 198.45 320.5 193.55Q320.5 192 321.3 191.15 322.05 190.35 323.4 190.35 325.85 190.35 325.85 193.15L325.85 198.45 327.6 198.45 327.6 192.95M333.85 163L333.85 164.45 335.5 164.45 335.5 169.65Q335.5 171.1 336.3 171.9 337.05 172.65 338.5 172.65 339.85 172.65 340.6 172L340.05 170.75Q339.5 171.2 338.7 171.2 337.2 171.2 337.2 169.6L337.2 164.45 339.95 164.45 339.95 163 337.2 163 337.2 160.9 335.5 160.9 335.5 163 333.85 163M329.3 164.4Q330.9 164.4 332.05 165.15L332.8 163.8Q331.45 162.9 329.3 162.9 327.5 162.9 326.4 163.7 325.35 164.5 325.35 165.8 325.35 167.05 326.3 167.7 326.95 168.2 328.35 168.45 330.2 168.8 330.45 168.85 331.35 169.2 331.35 169.85 331.35 171.15 329.1 171.15 327.15 171.15 325.75 170.2L325.05 171.55Q325.65 172 326.7 172.35 327.8 172.65 329 172.65 330.9 172.65 332 171.9 333.1 171.15 333.1 169.85 333.1 168.6 332.15 167.95 331.5 167.5 330.1 167.2 328.3 166.9 328 166.8 327.05 166.45 327.05 165.7 327.05 165.1 327.6 164.75 328.2 164.4 329.3 164.4M354.1 163L354.1 172.55 355.8 172.55 355.8 167.8Q355.8 166.25 356.6 165.4 357.4 164.6 358.8 164.6L359.2 164.6 359.2 162.9Q356.65 162.9 355.75 164.6L355.75 163 354.1 163M350.3 171.3Q351.7 169.9 351.7 167.8 351.7 165.65 350.3 164.3 348.95 162.9 346.75 162.9 344.6 162.9 343.2 164.3 341.8 165.65 341.8 167.8 341.8 169.9 343.2 171.3 344.6 172.65 346.75 172.65 348.95 172.65 350.3 171.3M346.75 164.45Q348.15 164.45 349.05 165.35 350 166.25 350 167.8 350 169.3 349.05 170.25 348.15 171.15 346.75 171.15 345.35 171.15 344.5 170.25 343.55 169.3 343.55 167.8 343.55 166.25 344.5 165.35 345.35 164.45 346.75 164.45M326.85 10.8Q325.8 9.75 324 9.75 321.5 9.75 320.35 11.55 319.4 9.75 317.05 9.75 314.8 9.75 313.75 11.3L313.75 9.85 312.1 9.85 312.1 19.4 313.8 19.4 313.8 14.5Q313.8 12.95 314.6 12.1 315.35 11.3 316.7 11.3 319.15 11.3 319.15 14.1L319.15 19.4 320.85 19.4 320.85 14.5Q320.85 12.95 321.65 12.1 322.4 11.3 323.75 11.3 326.2 11.3 326.2 14.1L326.2 19.4 327.95 19.4 327.95 13.9Q327.95 11.85 326.85 10.8M338.4 11.15Q337.05 9.75 335 9.75 332.9 9.75 331.55 11.15 330.2 12.5 330.2 14.65 330.2 16.8 331.6 18.15 333.05 19.5 335.35 19.5 337.75 19.5 339.1 17.95L338.15 16.85Q337.1 18 335.4 18 334 18 333.05 17.25 332.1 16.45 331.95 15.2L339.65 15.2 339.7 14.7Q339.7 12.5 338.4 11.15M335 11.25Q336.25 11.25 337.1 12 337.9 12.75 338.05 13.95L331.95 13.95Q332.05 12.75 332.9 12 333.75 11.25 335 11.25M352.45 6.8L347.15 6.8 347.15 19.4 352.45 19.4Q355.5 19.4 357.35 17.65 359.25 15.9 359.25 13.1 359.25 10.3 357.35 8.55 355.5 6.8 352.45 6.8M348.95 8.35L352.35 8.35Q354.65 8.35 356.05 9.65 357.45 10.95 357.45 13.1 357.45 15.25 356.05 16.55 354.65 17.85 352.35 17.85L348.95 17.85 348.95 8.35M370.8 9.85L369.1 9.85 369.1 19.4 370.8 19.4 370.8 9.85M366.45 11.45L366.85 11.45 366.85 9.75Q364.3 9.75 363.4 11.45L363.4 9.85 361.75 9.85 361.75 19.4 363.45 19.4 363.45 14.65Q363.45 13.1 364.25 12.25 365.05 11.45 366.45 11.45M370.8 6.1Q370.45 5.8 369.95 5.8 369.45 5.8 369.1 6.1 368.8 6.45 368.8 6.9 368.8 7.4 369.1 7.7 369.45 8.05 369.95 8.05 370.45 8.05 370.8 7.7 371.1 7.35 371.1 6.9 371.1 6.4 370.8 6.1M382.55 9.85L380.85 9.85 377.5 17.5 374.2 9.85 372.4 9.85 376.6 19.4 378.35 19.4 382.55 9.85M391.45 11.15Q390.1 9.75 388.05 9.75 385.95 9.75 384.6 11.15 383.25 12.5 383.25 14.65 383.25 16.8 384.65 18.15 386.1 19.5 388.4 19.5 390.8 19.5 392.15 17.95L391.2 16.85Q390.15 18 388.45 18 387.05 18 386.1 17.25 385.15 16.45 385 15.2L392.7 15.2 392.75 14.7Q392.75 12.5 391.45 11.15M388.05 11.25Q389.3 11.25 390.15 12 390.95 12.75 391.1 13.95L385 13.95Q385.1 12.75 385.95 12 386.8 11.25 388.05 11.25M400.25 11.45L400.25 9.75Q397.7 9.75 396.8 11.45L396.8 9.85 395.15 9.85 395.15 19.4 396.85 19.4 396.85 14.65Q396.85 13.1 397.65 12.25 398.45 11.45 399.85 11.45L400.25 11.45Z"/><path fill="#EF534C" stroke="none" d="M450.4 327.15Q452.9 324.7 452.9 321.2 452.9 317.7 450.4 315.2 447.95 312.75 444.45 312.75 441.546 312.75 439.3 314.4 438.876 314.782 438.45 315.2 436 317.7 436 321.2 436 324.7 438.45 327.15 440.95 329.65 444.45 329.65 447.95 329.65 450.4 327.15Z"/><path fill="#F8A923" stroke="none" d="M392.05 158.25Q388.55 158.25 386.05 160.7 383.6 163.2 383.6 166.7 383.6 170.2 386.05 172.65 388.55 175.15 392.05 175.15 392.554 175.15 393 175.1 395.903 174.789 398 172.65 400.5 170.2 400.5 166.7 400.5 163.2 398 160.7 395.926 158.626 393.1 158.3 392.587 158.25 392.05 158.25Z"/><path fill="#4FB7BB" stroke="none" d="M452.9 13.15Q452.9 9.65 450.4 7.15 447.95 4.7 444.45 4.7 440.95 4.7 438.45 7.15 436 9.65 436 13.15 436 16.65 438.45 19.1 439.175 19.825 439.95 20.35 441.964 21.6 444.45 21.6 447.95 21.6 450.4 19.1 452.9 16.65 452.9 13.15Z"/><path id="Layer4_0_1_STROKES" stroke="#FFF" stroke-width="3.35" stroke-linejoin="round" stroke-linecap="round" fill="none" d="M439.975 20.35Q439.175 19.825 438.45 19.1 436 16.65 436 13.15 436 9.65 438.45 7.15 440.95 4.7 444.45 4.7 447.95 4.7 450.4 7.15 452.9 9.65 452.9 13.15 452.9 16.65 450.4 19.1 447.95 21.6 444.45 21.6 441.964 21.6 439.975 20.35ZM393.1 158.3Q395.926 158.626 398 160.7 400.5 163.2 400.5 166.7 400.5 170.2 398 172.65 395.903 174.789 393.025 175.1M439.325 314.425Q441.546 312.75 444.45 312.75 447.95 312.75 450.4 315.2 452.9 317.7 452.9 321.2 452.9 324.7 450.4 327.15 447.95 329.65 444.45 329.65 440.95 329.65 438.45 327.15 436 324.7 436 321.2 436 317.7 438.45 315.2 438.876 314.782 439.325 314.425ZM393.025 175.1Q392.554 175.15 392.05 175.15 388.55 175.15 386.05 172.65 383.6 170.2 383.6 166.7 383.6 163.2 386.05 160.7 388.55 158.25 392.05 158.25 392.587 158.25 393.1 158.3"/><path id="Layer4_0_2_STROKES" stroke="#999" stroke-width="2" stroke-linejoin="round" stroke-linecap="round" fill="none" d="M393.1 158.3Q395.617 79.538 439.975 20.35M393.025 175.1Q394.958 254.695 439.325 314.425"/></g><g id="Symbol-31" transform="translate(784.85 138.9)" opacity="0"><animateTransform attributeName="transform" additive="replace" type="translate" dur="0.517s" keyTimes="0;.934;1" values="784.85,138.9;734.85,138.9;734.85,138.9" keySplines=".25 .5 .5 1;.1 .1 .9 .9" calcMode="spline" fill="freeze"/><animate attributeName="opacity" dur="0.517s" keyTimes="0;.934;1" values="0;1;1" keySplines=".25 .5 .5 1;.1 .1 .9 .9" calcMode="spline" fill="freeze"/><path fill="#333" stroke="none" d="M251.2 325.65Q251.2 323.45 249.9 322.1 248.55 320.7 246.5 320.7 244.4 320.7 243.05 322.1 241.7 323.45 241.7 325.6 241.7 327.75 243.1 329.1 244.55 330.45 246.85 330.45 249.25 330.45 250.6 328.9L249.65 327.8Q248.6 328.95 246.9 328.95 245.5 328.95 244.55 328.2 243.6 327.4 243.45 326.15L251.15 326.15 251.2 325.65M248.6 322.95Q249.4 323.7 249.55 324.9L243.45 324.9Q243.55 323.7 244.4 322.95 245.25 322.2 246.5 322.2 247.75 322.2 248.6 322.95M258.9 322.1Q257.5 323.45 257.5 325.6 257.5 327.7 258.9 329.1 260.3 330.45 262.45 330.45 264.65 330.45 266 329.1 267.4 327.7 267.4 325.6 267.4 323.45 266 322.1 264.65 320.7 262.45 320.7 260.3 320.7 258.9 322.1M262.45 328.95Q261.05 328.95 260.2 328.05 259.25 327.1 259.25 325.6 259.25 324.05 260.2 323.15 261.05 322.25 262.45 322.25 263.85 322.25 264.75 323.15 265.7 324.05 265.7 325.6 265.7 327.1 264.75 328.05 263.85 328.95 262.45 328.95M271.75 320.8L271.75 320Q271.75 318.3 273.3 318.3 274 318.3 274.6 318.75L275.15 317.45Q274.4 316.9 273.2 316.9 271.7 316.9 270.85 317.75 270.05 318.55 270.05 319.95L270.05 320.8 268.4 320.8 268.4 322.25 270.05 322.25 270.05 330.35 271.75 330.35 271.75 322.25 274.5 322.25 274.5 320.8 271.75 320.8M173.55 354.95L173.55 346.7 171.9 346.7 171.9 348.2Q170.7 346.6 168.4 346.6 166.3 346.6 164.95 347.9 163.55 349.2 163.55 351.25 163.55 353.25 164.95 354.55 166.3 355.85 168.4 355.85 170.6 355.85 171.85 354.4L171.85 355.15Q171.85 358.35 168.55 358.35 166.35 358.35 164.9 357.1L164.05 358.45Q165.65 359.85 168.6 359.85 173.55 359.85 173.55 354.95M170.95 349Q171.85 349.85 171.85 351.25 171.85 352.6 170.95 353.45 170.05 354.35 168.6 354.35 167.15 354.35 166.25 353.45 165.3 352.6 165.3 351.25 165.3 349.85 166.25 349 167.15 348.15 168.6 348.15 170.05 348.15 170.95 349M190.6 325.65Q190.6 323.45 189.3 322.1 187.95 320.7 185.9 320.7 183.8 320.7 182.45 322.1 181.1 323.45 181.1 325.6 181.1 327.75 182.5 329.1 183.95 330.45 186.25 330.45 188.65 330.45 190 328.9L189.05 327.8Q188 328.95 186.3 328.95 184.9 328.95 183.95 328.2 183 327.4 182.85 326.15L190.55 326.15 190.6 325.65M188 322.95Q188.8 323.7 188.95 324.9L182.85 324.9Q182.95 323.7 183.8 322.95 184.65 322.2 185.9 322.2 187.15 322.2 188 322.95M171.45 317L169.75 317 169.75 330.35 171.45 330.35 171.45 325.45Q171.45 323.9 172.3 323.05 173.1 322.25 174.5 322.25 177.05 322.25 177.05 325.05L177.05 330.35 178.8 330.35 178.8 324.85Q178.8 322.8 177.7 321.75 176.65 320.7 174.85 320.7 172.6 320.7 171.45 322.15L171.45 317M202.55 322.25Q205.1 322.25 205.1 325.05L205.1 330.35 206.85 330.35 206.85 324.85Q206.85 322.8 205.75 321.75 204.7 320.7 202.9 320.7 200.65 320.7 199.5 322.15L199.5 317 197.8 317 197.8 330.35 199.5 330.35 199.5 325.45Q199.5 323.9 200.35 323.05 201.15 322.25 202.55 322.25M214.1 330.45Q216.3 330.45 217.65 329.1 219.05 327.7 219.05 325.6 219.05 323.45 217.65 322.1 216.3 320.7 214.1 320.7 211.95 320.7 210.55 322.1 209.15 323.45 209.15 325.6 209.15 327.7 210.55 329.1 211.95 330.45 214.1 330.45M214.1 322.25Q215.5 322.25 216.4 323.15 217.35 324.05 217.35 325.6 217.35 327.1 216.4 328.05 215.5 328.95 214.1 328.95 212.7 328.95 211.85 328.05 210.9 327.1 210.9 325.6 210.9 324.05 211.85 323.15 212.7 322.25 214.1 322.25M236.65 320.7Q234.85 320.7 233.75 321.5 232.7 322.3 232.7 323.6 232.7 324.85 233.65 325.5 234.3 326 235.7 326.25 237.55 326.6 237.8 326.65 238.7 327 238.7 327.65 238.7 328.95 236.45 328.95 234.5 328.95 233.1 328L232.4 329.35Q233 329.8 234.05 330.15 235.15 330.45 236.35 330.45 238.25 330.45 239.35 329.7 240.45 328.95 240.45 327.65 240.45 326.4 239.5 325.75 238.85 325.3 237.45 325 235.65 324.7 235.35 324.6 234.4 324.25 234.4 323.5 234.4 322.9 234.95 322.55 235.55 322.2 236.65 322.2 238.25 322.2 239.4 322.95L240.15 321.6Q238.8 320.7 236.65 320.7M230.35 320.8L228.6 320.8 228.6 325.75Q228.6 327.25 227.8 328.1 227 328.9 225.65 328.9 223.1 328.9 223.1 326.1L223.1 320.8 221.35 320.8 221.35 326.3Q221.35 328.35 222.45 329.45 223.55 330.45 225.45 330.45 227.6 330.45 228.7 328.9L228.7 330.35 230.35 330.35 230.35 320.8M132.35 355Q133.75 353.6 133.75 351.5 133.75 349.35 132.35 348 131 346.6 128.8 346.6 126.65 346.6 125.25 348 123.85 349.35 123.85 351.5 123.85 353.6 125.25 355 126.65 356.35 128.8 356.35 131 356.35 132.35 355M128.8 348.15Q130.2 348.15 131.1 349.05 132.05 349.95 132.05 351.5 132.05 353 131.1 353.95 130.2 354.85 128.8 354.85 127.4 354.85 126.55 353.95 125.6 353 125.6 351.5 125.6 349.95 126.55 349.05 127.4 348.15 128.8 348.15M147.2 356.25L148.9 356.25 148.9 346.7 147.2 346.7 147.2 356.25M160.15 347.65Q159.1 346.6 157.3 346.6 154.95 346.6 153.85 348.15L153.85 346.7 152.2 346.7 152.2 356.25 153.9 356.25 153.9 351.35Q153.9 349.8 154.75 348.95 155.55 348.15 156.95 348.15 159.5 348.15 159.5 350.95L159.5 356.25 161.25 356.25 161.25 350.75Q161.25 348.7 160.15 347.65M91.55 352.05L91.6 351.55Q91.6 349.35 90.3 348 88.95 346.6 86.9 346.6 84.8 346.6 83.45 348 82.1 349.35 82.1 351.5 82.1 353.65 83.5 355 84.95 356.35 87.25 356.35 89.65 356.35 91 354.8L90.05 353.7Q89 354.85 87.3 354.85 85.9 354.85 84.95 354.1 84 353.3 83.85 352.05L91.55 352.05M86.9 348.1Q88.15 348.1 89 348.85 89.8 349.6 89.95 350.8L83.85 350.8Q83.95 349.6 84.8 348.85 85.65 348.1 86.9 348.1M119.05 346.7L117.4 346.7 117.4 356.25 119.1 356.25 119.1 351.5Q119.1 349.95 119.9 349.1 120.7 348.3 122.1 348.3L122.5 348.3 122.5 346.6Q119.95 346.6 119.05 348.3L119.05 346.7M109.7 343.65L104.05 343.65 104.05 356.25 110.05 356.25Q112.4 356.25 113.65 355.35 114.9 354.5 114.9 352.85 114.9 350.35 112.5 349.7 114.2 348.9 114.2 346.9 114.2 345.35 113.05 344.5 111.85 343.65 109.7 343.65M105.85 345.1L109.55 345.1Q112.4 345.1 112.4 347.15 112.4 349.15 109.55 349.15L105.85 349.15 105.85 345.1M110 354.8L105.85 354.8 105.85 350.6 110 350.6Q113.05 350.6 113.05 352.7 113.05 354.8 110 354.8M95.7 342.9L94 342.9 94 356.25 95.7 356.25 95.7 342.9M97.15 326.15L97.2 325.65Q97.2 323.45 95.9 322.1 94.55 320.7 92.5 320.7 90.4 320.7 89.05 322.1 87.7 323.45 87.7 325.6 87.7 327.75 89.1 329.1 90.55 330.45 92.85 330.45 95.25 330.45 96.6 328.9L95.65 327.8Q94.6 328.95 92.9 328.95 91.5 328.95 90.55 328.2 89.6 327.4 89.45 326.15L97.15 326.15M92.5 322.2Q93.75 322.2 94.6 322.95 95.4 323.7 95.55 324.9L89.45 324.9Q89.55 323.7 90.4 322.95 91.25 322.2 92.5 322.2M115.35 320.8L115.35 320Q115.35 318.3 116.9 318.3 117.6 318.3 118.2 318.75L118.75 317.45Q118 316.9 116.8 316.9 115.3 316.9 114.45 317.75 113.65 318.55 113.65 319.95L113.65 320.8 112 320.8 112 322.25 113.65 322.25 113.65 330.35 115.35 330.35 115.35 322.25 118.1 322.25 118.1 320.8 115.35 320.8M106.15 321.6Q104.8 320.7 102.65 320.7 100.85 320.7 99.75 321.5 98.7 322.3 98.7 323.6 98.7 324.85 99.65 325.5 100.3 326 101.7 326.25 103.55 326.6 103.8 326.65 104.7 327 104.7 327.65 104.7 328.95 102.45 328.95 100.5 328.95 99.1 328L98.4 329.35Q99 329.8 100.05 330.15 101.15 330.45 102.35 330.45 104.25 330.45 105.35 329.7 106.45 328.95 106.45 327.65 106.45 326.4 105.5 325.75 104.85 325.3 103.45 325 101.65 324.7 101.35 324.6 100.4 324.25 100.4 323.5 100.4 322.9 100.95 322.55 101.55 322.2 102.65 322.2 104.25 322.2 105.4 322.95L106.15 321.6M160.9 320.8L160.9 322.25 162.55 322.25 162.55 327.45Q162.55 328.9 163.35 329.7 164.1 330.45 165.55 330.45 166.9 330.45 167.65 329.8L167.1 328.55Q166.55 329 165.75 329 164.25 329 164.25 327.4L164.25 322.25 167 322.25 167 320.8 164.25 320.8 164.25 318.7 162.55 318.7 162.55 320.8 160.9 320.8M148.05 344.9Q148.55 344.9 148.9 344.55 149.2 344.2 149.2 343.75 149.2 343.25 148.9 342.95 148.55 342.65 148.05 342.65 147.55 342.65 147.2 342.95 146.9 343.3 146.9 343.75 146.9 344.25 147.2 344.55 147.55 344.9 148.05 344.9M137.85 342.9L136.15 342.9 136.15 356.25 137.85 356.25 137.85 353.65 139.85 351.8 143.45 356.25 145.55 356.25 141.15 350.65 145.15 346.7 143.05 346.7 137.85 351.45 137.85 342.9M122.25 323.2Q123.05 322.4 124.45 322.4L124.85 322.4 124.85 320.7Q122.3 320.7 121.4 322.4L121.4 320.8 119.75 320.8 119.75 330.35 121.45 330.35 121.45 325.6Q121.45 324.05 122.25 323.2M136.1 325.6Q136.1 323.45 134.7 322.1 133.35 320.7 131.15 320.7 129 320.7 127.6 322.1 126.2 323.45 126.2 325.6 126.2 327.7 127.6 329.1 129 330.45 131.15 330.45 133.35 330.45 134.7 329.1 136.1 327.7 136.1 325.6M133.45 323.15Q134.4 324.05 134.4 325.6 134.4 327.1 133.45 328.05 132.55 328.95 131.15 328.95 129.75 328.95 128.9 328.05 127.95 327.1 127.95 325.6 127.95 324.05 128.9 323.15 129.75 322.25 131.15 322.25 132.55 322.25 133.45 323.15M140.15 320.8L138.5 320.8 138.5 330.35 140.2 330.35 140.2 325.45Q140.2 323.9 141 323.05 141.75 322.25 143.1 322.25 145.55 322.25 145.55 325.05L145.55 330.35 147.25 330.35 147.25 325.45Q147.25 323.9 148.05 323.05 148.8 322.25 150.15 322.25 152.6 322.25 152.6 325.05L152.6 330.35 154.35 330.35 154.35 324.85Q154.35 322.8 153.25 321.75 152.2 320.7 150.4 320.7 147.9 320.7 146.75 322.5 145.8 320.7 143.45 320.7 141.2 320.7 140.15 322.25L140.15 320.8M60.9 348.95Q61.7 348.15 63.1 348.15 65.65 348.15 65.65 350.95L65.65 356.25 67.4 356.25 67.4 350.75Q67.4 348.7 66.3 347.65 65.25 346.6 63.45 346.6 61.1 346.6 60 348.15L60 346.7 58.35 346.7 58.35 356.25 60.05 356.25 60.05 351.35Q60.05 349.8 60.9 348.95M79.7 346.7L78.05 346.7 78.05 348.2Q76.85 346.6 74.55 346.6 72.45 346.6 71.1 347.9 69.7 349.2 69.7 351.25 69.7 353.25 71.1 354.55 72.45 355.85 74.55 355.85 76.75 355.85 78 354.4L78 355.15Q78 358.35 74.7 358.35 72.5 358.35 71.05 357.1L70.2 358.45Q71.8 359.85 74.75 359.85 79.7 359.85 79.7 354.95L79.7 346.7M77.1 349Q78 349.85 78 351.25 78 352.6 77.1 353.45 76.2 354.35 74.75 354.35 73.3 354.35 72.4 353.45 71.45 352.6 71.45 351.25 71.45 349.85 72.4 349 73.3 348.15 74.75 348.15 76.2 348.15 77.1 349M51 343.65L49.25 343.65 43.55 356.25 45.4 356.25 46.8 353.1 53.45 353.1 54.85 356.25 56.75 356.25 51 343.65M52.85 351.65L47.4 351.65 50.1 345.5 52.85 351.65M58.7 322.1Q57.3 323.45 57.3 325.6 57.3 327.7 58.7 329.1 60.1 330.45 62.25 330.45 64.45 330.45 65.8 329.1 67.2 327.7 67.2 325.6 67.2 323.45 65.8 322.1 64.45 320.7 62.25 320.7 60.1 320.7 58.7 322.1M60 328.05Q59.05 327.1 59.05 325.6 59.05 324.05 60 323.15 60.85 322.25 62.25 322.25 63.65 322.25 64.55 323.15 65.5 324.05 65.5 325.6 65.5 327.1 64.55 328.05 63.65 328.95 62.25 328.95 60.85 328.95 60 328.05M51.1 317.6Q48.2 317.6 46.3 319.45 44.4 321.25 44.4 324.05 44.4 326.85 46.3 328.65 48.2 330.5 51.05 330.5 54.1 330.5 55.9 328.5L54.7 327.4Q53.3 328.9 51.15 328.9 49.05 328.9 47.6 327.5 46.2 326.15 46.2 324.05 46.2 321.95 47.6 320.6 49.05 319.2 51.15 319.2 53.3 319.2 54.7 320.7L55.9 319.55Q54.15 317.6 51.1 317.6M71.25 320.8L69.6 320.8 69.6 330.35 71.3 330.35 71.3 325.45Q71.3 323.9 72.1 323.05 72.85 322.25 74.2 322.25 76.65 322.25 76.65 325.05L76.65 330.35 78.35 330.35 78.35 325.45Q78.35 323.9 79.15 323.05 79.9 322.25 81.25 322.25 83.7 322.25 83.7 325.05L83.7 330.35 85.45 330.35 85.45 324.85Q85.45 322.8 84.35 321.75 83.3 320.7 81.5 320.7 79 320.7 77.85 322.5 76.9 320.7 74.55 320.7 72.3 320.7 71.25 322.25L71.25 320.8M141.6 166.25Q141.6 163.25 140.15 161.5 138.7 159.8 136.45 159.8 134.2 159.8 132.8 161.5 131.3 163.25 131.3 166.25 131.3 169.25 132.8 171 134.2 172.7 136.45 172.7 138.7 172.7 140.15 171 141.6 169.25 141.6 166.25M138.85 162.6Q139.8 163.9 139.8 166.25 139.8 168.6 138.85 169.9 138 171.1 136.45 171.1 134.95 171.1 134.05 169.9 133.1 168.6 133.1 166.25 133.1 163.9 134.05 162.6 134.95 161.4 136.45 161.4 138 161.4 138.85 162.6M150.85 163L150.85 160.9 149.15 160.9 149.15 163 147.5 163 147.5 164.45 149.15 164.45 149.15 169.65Q149.15 171.1 149.95 171.9 150.7 172.65 152.15 172.65 153.5 172.65 154.25 172L153.7 170.75Q153.15 171.2 152.35 171.2 150.85 171.2 150.85 169.6L150.85 164.45 153.6 164.45 153.6 163 150.85 163M120.8 161.5Q119.3 163.25 119.3 166.25 119.3 169.25 120.8 171 122.2 172.7 124.45 172.7 126.7 172.7 128.15 171 129.6 169.25 129.6 166.25 129.6 163.25 128.15 161.5 126.7 159.8 124.45 159.8 122.2 159.8 120.8 161.5M126.85 162.6Q127.8 163.9 127.8 166.25 127.8 168.6 126.85 169.9 126 171.1 124.45 171.1 122.95 171.1 122.05 169.9 121.1 168.6 121.1 166.25 121.1 163.9 122.05 162.6 122.95 161.4 124.45 161.4 126 161.4 126.85 162.6M108.8 161.5Q107.3 163.25 107.3 166.25 107.3 169.25 108.8 171 110.2 172.7 112.45 172.7 114.7 172.7 116.15 171 117.6 169.25 117.6 166.25 117.6 163.25 116.15 161.5 114.7 159.8 112.45 159.8 110.2 159.8 108.8 161.5M109.1 166.25Q109.1 163.9 110.05 162.6 110.95 161.4 112.45 161.4 114 161.4 114.85 162.6 115.8 163.9 115.8 166.25 115.8 168.6 114.85 169.9 114 171.1 112.45 171.1 110.95 171.1 110.05 169.9 109.1 168.6 109.1 166.25M103.5 159.95L101.6 159.95 95.15 168.2 95.15 169.45 102.15 169.45 102.15 172.55 103.9 172.55 103.9 169.45 106.3 169.45 106.3 167.9 103.9 167.9 103.9 165.15 102.2 165.15 102.2 167.9 97.35 167.9 103.5 159.95M56.9 8.5Q55 6.65 52.15 6.65 49.25 6.65 47.3 8.5 45.4 10.35 45.4 13.1 45.4 15.9 47.3 17.7 49.25 19.55 52.15 19.55 55 19.55 56.9 17.7 58.8 15.9 58.8 13.1 58.8 10.3 56.9 8.5M52.15 8.25Q54.25 8.25 55.6 9.65 57 11 57 13.1 57 15.2 55.6 16.55 54.25 17.95 52.15 17.95 50 17.95 48.6 16.55 47.2 15.2 47.2 13.1 47.2 11 48.6 9.65 50 8.25 52.15 8.25M69.75 9.85L68.05 9.85 64.7 17.5 61.4 9.85 59.6 9.85 63.8 19.4 65.55 19.4 69.75 9.85M75.25 9.75Q73.15 9.75 71.8 11.15 70.45 12.5 70.45 14.65 70.45 16.8 71.85 18.15 73.3 19.5 75.6 19.5 78 19.5 79.35 17.95L78.4 16.85Q77.35 18 75.65 18 74.25 18 73.3 17.25 72.35 16.45 72.2 15.2L79.9 15.2 79.95 14.7Q79.95 12.5 78.65 11.15 77.3 9.75 75.25 9.75M75.25 11.25Q76.5 11.25 77.35 12 78.15 12.75 78.3 13.95L72.2 13.95Q72.3 12.75 73.15 12 74 11.25 75.25 11.25M87.45 9.75Q84.9 9.75 84 11.45L84 9.85 82.35 9.85 82.35 19.4 84.05 19.4 84.05 14.65Q84.05 13.1 84.85 12.25 85.65 11.45 87.05 11.45L87.45 11.45 87.45 9.75M101.85 8.05L101.85 6.8 93.5 6.8 93.5 8.35 99.6 8.35 96.4 12.25 96.4 13.5 97.4 13.5Q100.55 13.5 100.55 15.7 100.55 16.75 99.75 17.35 98.95 17.95 97.55 17.95 95.2 17.95 93.75 16.6L92.95 18Q94.65 19.55 97.55 19.55 99.85 19.55 101.15 18.4 102.35 17.35 102.35 15.7 102.35 14.2 101.4 13.25 100.4 12.25 98.55 12.1L101.85 8.05M109.1 6.65Q106.85 6.65 105.45 8.35 103.95 10.1 103.95 13.1 103.95 16.1 105.45 17.85 106.85 19.55 109.1 19.55 111.35 19.55 112.8 17.85 114.25 16.1 114.25 13.1 114.25 10.1 112.8 8.35 111.35 6.65 109.1 6.65M106.7 9.45Q107.6 8.25 109.1 8.25 110.65 8.25 111.5 9.45 112.45 10.75 112.45 13.1 112.45 15.45 111.5 16.75 110.65 17.95 109.1 17.95 107.6 17.95 106.7 16.75 105.75 15.45 105.75 13.1 105.75 10.75 106.7 9.45M130 9.85L128.3 9.85 125 17.5 121.65 9.85 119.85 9.85 124.05 19.4 123.75 20.05Q123.15 21.55 121.95 21.55 120.95 21.55 120.25 20.8L119.5 22.1Q120.4 23 121.95 23 123.1 23 123.9 22.45 124.75 21.8 125.35 20.35L130 9.85M138.9 11.15Q137.55 9.75 135.5 9.75 133.4 9.75 132.05 11.15 130.7 12.5 130.7 14.65 130.7 16.8 132.1 18.15 133.55 19.5 135.85 19.5 138.25 19.5 139.6 17.95L138.65 16.85Q137.6 18 135.9 18 134.5 18 133.55 17.25 132.6 16.45 132.45 15.2L140.15 15.2 140.2 14.7Q140.2 12.5 138.9 11.15M135.5 11.25Q136.75 11.25 137.6 12 138.4 12.75 138.55 13.95L132.45 13.95Q132.55 12.75 133.4 12 134.25 11.25 135.5 11.25M146.05 9.75Q143.65 9.75 142.1 11L142.85 12.3Q144.05 11.25 145.85 11.25 148.4 11.25 148.4 13.55L148.4 13.9 145.7 13.9Q141.85 13.9 141.85 16.7 141.85 17.95 142.8 18.7 143.75 19.5 145.4 19.5 147.6 19.5 148.5 18.15L148.5 19.4 150.15 19.4 150.15 13.65Q150.15 9.75 146.05 9.75M148.4 15.15L148.4 16.5Q147.75 18.2 145.65 18.2 144.7 18.2 144.1 17.75 143.55 17.35 143.55 16.65 143.55 15.15 145.75 15.15L148.4 15.15M155 9.85L153.35 9.85 153.35 19.4 155.05 19.4 155.05 14.65Q155.05 13.1 155.85 12.25 156.65 11.45 158.05 11.45L158.45 11.45 158.45 9.75Q155.9 9.75 155 11.45L155 9.85M250.9 163.7Q249.85 164.5 249.85 165.8 249.85 167.05 250.8 167.7 251.45 168.2 252.85 168.45 254.7 168.8 254.95 168.85 255.85 169.2 255.85 169.85 255.85 171.15 253.6 171.15 251.65 171.15 250.25 170.2L249.55 171.55Q250.15 172 251.2 172.35 252.3 172.65 253.5 172.65 255.4 172.65 256.5 171.9 257.6 171.15 257.6 169.85 257.6 168.6 256.65 167.95 256 167.5 254.6 167.2 252.8 166.9 252.5 166.8 251.55 166.45 251.55 165.7 251.55 165.1 252.1 164.75 252.7 164.4 253.8 164.4 255.4 164.4 256.55 165.15L257.3 163.8Q255.95 162.9 253.8 162.9 252 162.9 250.9 163.7M222.25 164.3Q220.9 162.9 218.7 162.9 216.55 162.9 215.15 164.3 213.75 165.65 213.75 167.8 213.75 169.9 215.15 171.3 216.55 172.65 218.7 172.65 220.9 172.65 222.25 171.3 223.65 169.9 223.65 167.8 223.65 165.65 222.25 164.3M218.7 164.45Q220.1 164.45 221 165.35 221.95 166.25 221.95 167.8 221.95 169.3 221 170.25 220.1 171.15 218.7 171.15 217.3 171.15 216.45 170.25 215.5 169.3 215.5 167.8 215.5 166.25 216.45 165.35 217.3 164.45 218.7 164.45M241.9 163L241.9 164.45 243.55 164.45 243.55 169.65Q243.55 171.1 244.35 171.9 245.1 172.65 246.55 172.65 247.9 172.65 248.65 172L248.1 170.75Q247.55 171.2 246.75 171.2 245.25 171.2 245.25 169.6L245.25 164.45 248 164.45 248 163 245.25 163 245.25 160.9 243.55 160.9 243.55 163 241.9 163M227.75 163L226.05 163 226.05 172.55 227.75 172.55 227.75 163M232.7 164.45L232.7 163 231.05 163 231.05 172.55 232.75 172.55 232.75 167.65Q232.75 166.1 233.6 165.25 234.4 164.45 235.8 164.45 238.35 164.45 238.35 167.25L238.35 172.55 240.1 172.55 240.1 167.05Q240.1 165 239 163.95 237.95 162.9 236.15 162.9 233.8 162.9 232.7 164.45M225.75 160.05Q225.75 160.55 226.05 160.85 226.4 161.2 226.9 161.2 227.4 161.2 227.75 160.85 228.05 160.5 228.05 160.05 228.05 159.55 227.75 159.25 227.4 158.95 226.9 158.95 226.4 158.95 226.05 159.25 225.75 159.6 225.75 160.05M202.4 163L202.4 176.05 204.1 176.05 204.1 171.1Q205.3 172.65 207.45 172.65 209.55 172.65 210.9 171.3 212.25 169.95 212.25 167.8 212.25 165.6 210.9 164.25 209.55 162.9 207.45 162.9 205.2 162.9 204.05 164.55L204.05 163 202.4 163M205 165.35Q205.9 164.45 207.3 164.45 208.7 164.45 209.6 165.35 210.5 166.3 210.5 167.8 210.5 169.3 209.6 170.25 208.7 171.15 207.3 171.15 205.9 171.15 205 170.25 204.1 169.3 204.1 167.8 204.1 166.3 205 165.35M163.95 171.3Q165.35 169.9 165.35 167.8 165.35 165.65 163.95 164.3 162.6 162.9 160.4 162.9 158.25 162.9 156.85 164.3 155.45 165.65 155.45 167.8 155.45 169.9 156.85 171.3 158.25 172.65 160.4 172.65 162.6 172.65 163.95 171.3M163.65 167.8Q163.65 169.3 162.7 170.25 161.8 171.15 160.4 171.15 159 171.15 158.15 170.25 157.2 169.3 157.2 167.8 157.2 166.25 158.15 165.35 159 164.45 160.4 164.45 161.8 164.45 162.7 165.35 163.65 166.25 163.65 167.8M169.4 163L167.65 163 167.65 168.5Q167.65 170.55 168.75 171.65 169.85 172.65 171.75 172.65 173.9 172.65 175 171.1L175 172.55 176.65 172.55 176.65 163 174.9 163 174.9 167.95Q174.9 169.45 174.1 170.3 173.3 171.1 171.95 171.1 169.4 171.1 169.4 168.3L169.4 163M184.05 172.65Q186.75 172.65 187.95 170.6L186.6 169.8Q185.75 171.15 184 171.15 182.6 171.15 181.7 170.25 180.75 169.3 180.75 167.8 180.75 166.25 181.7 165.35 182.6 164.45 184 164.45 185.75 164.45 186.6 165.8L187.95 164.95Q186.8 162.9 184.05 162.9 181.85 162.9 180.45 164.3 179 165.65 179 167.8 179 169.9 180.45 171.3 181.85 172.65 184.05 172.65M191.85 159.2L190.15 159.2 190.15 172.55 191.85 172.55 191.85 167.65Q191.85 166.1 192.7 165.25 193.5 164.45 194.9 164.45 197.45 164.45 197.45 167.25L197.45 172.55 199.2 172.55 199.2 167.05Q199.2 165 198.1 163.95 197.05 162.9 195.25 162.9 193 162.9 191.85 164.35L191.85 159.2M167.25 10.65Q165.9 9.75 163.75 9.75 161.95 9.75 160.85 10.55 159.8 11.35 159.8 12.65 159.8 13.9 160.75 14.55 161.4 15.05 162.8 15.3 164.65 15.65 164.9 15.7 165.8 16.05 165.8 16.7 165.8 18 163.55 18 161.6 18 160.2 17.05L159.5 18.4Q160.1 18.85 161.15 19.2 162.25 19.5 163.45 19.5 165.35 19.5 166.45 18.75 167.55 18 167.55 16.7 167.55 15.45 166.6 14.8 165.95 14.35 164.55 14.05 162.75 13.75 162.45 13.65 161.5 13.3 161.5 12.55 161.5 11.95 162.05 11.6 162.65 11.25 163.75 11.25 165.35 11.25 166.5 12L167.25 10.65M182.1 11.15Q180.75 9.75 178.55 9.75 176.4 9.75 175 11.15 173.6 12.5 173.6 14.65 173.6 16.75 175 18.15 176.4 19.5 178.55 19.5 180.75 19.5 182.1 18.15 183.5 16.75 183.5 14.65 183.5 12.5 182.1 11.15M178.55 11.3Q179.95 11.3 180.85 12.2 181.8 13.1 181.8 14.65 181.8 16.15 180.85 17.1 179.95 18 178.55 18 177.15 18 176.3 17.1 175.35 16.15 175.35 14.65 175.35 13.1 176.3 12.2 177.15 11.3 178.55 11.3M186.95 6.8Q186.15 7.6 186.15 9L186.15 9.85 184.5 9.85 184.5 11.3 186.15 11.3 186.15 19.4 187.85 19.4 187.85 11.3 190.6 11.3 190.6 9.85 187.85 9.85 187.85 9.05Q187.85 7.35 189.4 7.35 190.1 7.35 190.7 7.8L191.25 6.5Q190.5 5.95 189.3 5.95 187.8 5.95 186.95 6.8M197.3 7.75L197.3 9.85 195.65 9.85 195.65 11.3 197.3 11.3 197.3 16.5Q197.3 17.95 198.1 18.75 198.85 19.5 200.3 19.5 201.65 19.5 202.4 18.85L201.85 17.6Q201.3 18.05 200.5 18.05 199 18.05 199 16.45L199 11.3 201.75 11.3 201.75 9.85 199 9.85 199 7.75 197.3 7.75M209.6 9.75Q207.05 9.75 206.15 11.45L206.15 9.85 204.5 9.85 204.5 19.4 206.2 19.4 206.2 14.65Q206.2 13.1 207 12.25 207.8 11.45 209.2 11.45L209.6 11.45 209.6 9.75M220.75 9.85L219 9.85 219 14.8Q219 16.3 218.2 17.15 217.4 17.95 216.05 17.95 213.5 17.95 213.5 15.15L213.5 9.85 211.75 9.85 211.75 15.35Q211.75 17.4 212.85 18.5 213.95 19.5 215.85 19.5 218 19.5 219.1 17.95L219.1 19.4 220.75 19.4 220.75 9.85M225.35 11.6Q225.95 11.25 227.05 11.25 228.65 11.25 229.8 12L230.55 10.65Q229.2 9.75 227.05 9.75 225.25 9.75 224.15 10.55 223.1 11.35 223.1 12.65 223.1 13.9 224.05 14.55 224.7 15.05 226.1 15.3 227.95 15.65 228.2 15.7 229.1 16.05 229.1 16.7 229.1 18 226.85 18 224.9 18 223.5 17.05L222.8 18.4Q223.4 18.85 224.45 19.2 225.55 19.5 226.75 19.5 228.65 19.5 229.75 18.75 230.85 18 230.85 16.7 230.85 15.45 229.9 14.8 229.25 14.35 227.85 14.05 226.05 13.75 225.75 13.65 224.8 13.3 224.8 12.55 224.8 11.95 225.35 11.6M237.7 11.3L237.7 9.85 234.95 9.85 234.95 7.75 233.25 7.75 233.25 9.85 231.6 9.85 231.6 11.3 233.25 11.3 233.25 16.5Q233.25 17.95 234.05 18.75 234.8 19.5 236.25 19.5 237.6 19.5 238.35 18.85L237.8 17.6Q237.25 18.05 236.45 18.05 234.95 18.05 234.95 16.45L234.95 11.3 237.7 11.3M247.75 11.15Q246.4 9.75 244.35 9.75 242.25 9.75 240.9 11.15 239.55 12.5 239.55 14.65 239.55 16.8 240.95 18.15 242.4 19.5 244.7 19.5 247.1 19.5 248.45 17.95L247.5 16.85Q246.45 18 244.75 18 243.35 18 242.4 17.25 241.45 16.45 241.3 15.2L249 15.2 249.05 14.7Q249.05 12.5 247.75 11.15M244.35 11.25Q245.6 11.25 246.45 12 247.25 12.75 247.4 13.95L241.3 13.95Q241.4 12.75 242.25 12 243.1 11.25 244.35 11.25M260.45 6.05L258.7 6.05 258.7 11.3Q257.55 9.75 255.4 9.75 253.25 9.75 251.9 11.1 250.55 12.45 250.55 14.65 250.55 16.8 251.9 18.15 253.25 19.5 255.4 19.5 257.6 19.5 258.8 17.9L258.8 19.4 260.45 19.4 260.45 6.05M253.25 12.2Q254.1 11.3 255.5 11.3 256.9 11.3 257.8 12.2 258.75 13.1 258.75 14.65 258.75 16.15 257.8 17.1 256.9 18 255.5 18 254.1 18 253.25 17.1 252.3 16.15 252.3 14.65 252.3 13.1 253.25 12.2M272.4 9.75Q270.3 9.75 268.95 11.15 267.6 12.5 267.6 14.65 267.6 16.8 269 18.15 270.45 19.5 272.75 19.5 275.15 19.5 276.5 17.95L275.55 16.85Q274.5 18 272.8 18 271.4 18 270.45 17.25 269.5 16.45 269.35 15.2L277.05 15.2 277.1 14.7Q277.1 12.5 275.8 11.15 274.45 9.75 272.4 9.75M270.3 12Q271.15 11.25 272.4 11.25 273.65 11.25 274.5 12 275.3 12.75 275.45 13.95L269.35 13.95Q269.45 12.75 270.3 12M287.35 9.85L285.45 9.85 282.85 13.3 280.2 9.85 278.3 9.85 281.85 14.5 278.1 19.4 280.05 19.4 282.8 15.75 285.6 19.4 287.55 19.4 283.75 14.5 287.35 9.85M297.9 11.1Q296.55 9.75 294.45 9.75 292.2 9.75 291.05 11.4L291.05 9.85 289.4 9.85 289.4 22.9 291.1 22.9 291.1 17.95Q292.3 19.5 294.45 19.5 296.55 19.5 297.9 18.15 299.25 16.8 299.25 14.65 299.25 12.45 297.9 11.1M294.3 11.3Q295.7 11.3 296.6 12.2 297.5 13.15 297.5 14.65 297.5 16.15 296.6 17.1 295.7 18 294.3 18 292.9 18 292 17.1 291.1 16.15 291.1 14.65 291.1 13.15 292 12.2 292.9 11.3 294.3 11.3M308.95 11.15Q307.6 9.75 305.55 9.75 303.45 9.75 302.1 11.15 300.75 12.5 300.75 14.65 300.75 16.8 302.15 18.15 303.6 19.5 305.9 19.5 308.3 19.5 309.65 17.95L308.7 16.85Q307.65 18 305.95 18 304.55 18 303.6 17.25 302.65 16.45 302.5 15.2L310.2 15.2 310.25 14.7Q310.25 12.5 308.95 11.15M305.55 11.25Q306.8 11.25 307.65 12 308.45 12.75 308.6 13.95L302.5 13.95Q302.6 12.75 303.45 12 304.3 11.25 305.55 11.25M317.75 9.75Q315.2 9.75 314.3 11.45L314.3 9.85 312.65 9.85 312.65 19.4 314.35 19.4 314.35 14.65Q314.35 13.1 315.15 12.25 315.95 11.45 317.35 11.45L317.75 11.45 317.75 9.75M329.15 9.85L327.45 9.85 327.45 19.4 329.15 19.4 329.15 9.85M324.7 11.3L324.7 9.85 321.95 9.85 321.95 7.75 320.25 7.75 320.25 9.85 318.6 9.85 318.6 11.3 320.25 11.3 320.25 16.5Q320.25 17.95 321.05 18.75 321.8 19.5 323.25 19.5 324.6 19.5 325.35 18.85L324.8 17.6Q324.25 18.05 323.45 18.05 321.95 18.05 321.95 16.45L321.95 11.3 324.7 11.3M328.3 5.8Q327.8 5.8 327.45 6.1 327.15 6.45 327.15 6.9 327.15 7.4 327.45 7.7 327.8 8.05 328.3 8.05 328.8 8.05 329.15 7.7 329.45 7.35 329.45 6.9 329.45 6.4 329.15 6.1 328.8 5.8 328.3 5.8M339 10.65Q337.65 9.75 335.5 9.75 333.7 9.75 332.6 10.55 331.55 11.35 331.55 12.65 331.55 13.9 332.5 14.55 333.15 15.05 334.55 15.3 336.4 15.65 336.65 15.7 337.55 16.05 337.55 16.7 337.55 18 335.3 18 333.35 18 331.95 17.05L331.25 18.4Q331.85 18.85 332.9 19.2 334 19.5 335.2 19.5 337.1 19.5 338.2 18.75 339.3 18 339.3 16.7 339.3 15.45 338.35 14.8 337.7 14.35 336.3 14.05 334.5 13.75 334.2 13.65 333.25 13.3 333.25 12.55 333.25 11.95 333.8 11.6 334.4 11.25 335.5 11.25 337.1 11.25 338.25 12L339 10.65M350 15.2L350.05 14.7Q350.05 12.5 348.75 11.15 347.4 9.75 345.35 9.75 343.25 9.75 341.9 11.15 340.55 12.5 340.55 14.65 340.55 16.8 341.95 18.15 343.4 19.5 345.7 19.5 348.1 19.5 349.45 17.95L348.5 16.85Q347.45 18 345.75 18 344.35 18 343.4 17.25 342.45 16.45 342.3 15.2L350 15.2M347.45 12Q348.25 12.75 348.4 13.95L342.3 13.95Q342.4 12.75 343.25 12 344.1 11.25 345.35 11.25 346.6 11.25 347.45 12Z"/><path fill="#EF534C" stroke="none" d="M2.45 315.2Q0 317.7 0 321.2 0 324.7 2.45 327.15 4.95 329.65 8.45 329.65 11.95 329.65 14.4 327.15 16.9 324.7 16.9 321.2 16.9 318.003 14.8 315.65 14.617 315.417 14.4 315.2 11.95 312.75 8.45 312.75 4.95 312.75 2.45 315.2Z"/><path fill="#F8A923" stroke="none" d="M67.7 160.7Q65.319 158.319 61.95 158.25 61.848 158.25 61.75 158.25 58.25 158.25 55.75 160.7 53.3 163.2 53.3 166.7 53.3 170.2 55.75 172.65 58.25 175.15 61.75 175.15 61.881 175.15 62 175.15 65.342 175.056 67.7 172.65 70.2 170.2 70.2 166.7 70.2 163.2 67.7 160.7Z"/><path fill="#4FB7BB" stroke="none" d="M8.45 4.7Q4.95 4.7 2.45 7.15 0 9.65 0 13.15 0 16.65 2.45 19.1 4.95 21.6 8.45 21.6 11.841 21.6 14.25 19.25 14.323 19.177 14.4 19.1 16.9 16.65 16.9 13.15 16.9 9.65 14.4 7.15 11.95 4.7 8.45 4.7Z"/><path id="Layer2_0_1_STROKES" stroke="#FFF" stroke-width="3.35" stroke-linejoin="round" stroke-linecap="round" fill="none" d="M14.25 19.25Q11.841 21.6 8.45 21.6 4.95 21.6 2.45 19.1 0 16.65 0 13.15 0 9.65 2.45 7.15 4.95 4.7 8.45 4.7 11.95 4.7 14.4 7.15 16.9 9.65 16.9 13.15 16.9 16.65 14.4 19.1 14.323 19.177 14.25 19.25ZM61.95 158.25Q65.319 158.319 67.7 160.7 70.2 163.2 70.2 166.7 70.2 170.2 67.7 172.65 65.342 175.056 62 175.15M14.825 315.65Q16.9 318.003 16.9 321.2 16.9 324.7 14.4 327.15 11.95 329.65 8.45 329.65 4.95 329.65 2.45 327.15 0 324.7 0 321.2 0 317.7 2.45 315.2 4.95 312.75 8.45 312.75 11.95 312.75 14.4 315.2 14.617 315.417 14.825 315.65ZM62 175.15Q61.881 175.15 61.75 175.15 58.25 175.15 55.75 172.65 53.3 170.2 53.3 166.7 53.3 163.2 55.75 160.7 58.25 158.25 61.75 158.25 61.848 158.25 61.95 158.25"/><path id="Layer2_0_2_STROKES" stroke="#999" stroke-width="2" stroke-linejoin="round" stroke-linecap="round" fill="none" d="M61.95 158.25Q59.394 78.793 14.25 19.25M62 175.15Q60.057 255.518 14.825 315.65"/></g></g></svg>