<?xml version="1.0" encoding="utf-8"?><svg id="08-Best-in-classInvestingPlatforms" image-rendering="auto" baseProfile="basic" version="1.1" x="0px" y="0px" width="1180" height="560" xmlns="http://www.w3.org/2000/svg" xmlns:xlink="http://www.w3.org/1999/xlink"><g id="Scene-1r1" overflow="visible"><g id="Symbol-7" transform="translate(-30 137.5)" opacity="0"><animateTransform attributeName="transform" additive="replace" type="translate" dur="0.621s" keyTimes="0;.833;1" values="-30,137.5;-38.05,13.5;-38.05,13.5" keySplines=".25 .5 .5 1;.1 .1 .9 .9" calcMode="spline" fill="freeze"/><animate attributeName="opacity" dur="0.621s" keyTimes="0;.833;1" values="0;1;1" keySplines=".25 .5 .5 1;.1 .1 .9 .9" calcMode="spline" fill="freeze"/><image overflow="visible" xlink:href="img/platform-mf.png" height="515" width="974" transform="translate(140.3 30.85)"/></g><g display="none"><g id="Symbol-6" transform="translate(17.85 317.8)" opacity="0"><animate attributeName="opacity" dur="0.621s" keyTimes="0;.167;.555;1" values="0;0;1;1" keySplines=".25 .5 .5 1;.25 .5 .5 1;.1 .1 .9 .9" calcMode="spline" fill="freeze"/><path fill="#404041" stroke="none" d="M110.8 131.2L111.8 131.2 112.55 129Q112.85 128.2 112.8 127.85 112.75 126.85 111.75 126.75 110.8 126.8 110.7 127.85 110.75 128.6 111.35 128.85L110.8 131.2M86.25 131.2L87.25 131.2 88 129Q88.3 128.2 88.25 127.85 88.2 126.85 87.2 126.75 86.25 126.8 86.15 127.85 86.2 128.6 86.8 128.85L86.25 131.2M98.7 123.3Q98.35 117.7 94.15 117.55 89.85 117.65 89.55 123.3 89.85 128.9 94.15 129 98.35 128.9 98.7 123.3M91.15 123.3Q91.3 119 94.15 118.95 96.9 118.95 97.1 123.3 96.9 127.6 94.15 127.6 91.3 127.6 91.15 123.3M109.4 123.3Q109.05 117.7 104.85 117.55 100.55 117.65 100.25 123.3 100.55 128.9 104.85 129 109.05 128.9 109.4 123.3M101.85 123.3Q102 119 104.85 118.95 107.6 118.95 107.8 123.3 107.6 127.6 104.85 127.6 102 127.6 101.85 123.3M118.75 117.55Q114.45 117.65 114.15 123.3 114.45 128.9 118.75 129 122.95 128.9 123.3 123.3 122.95 117.7 118.75 117.55M115.75 123.3Q115.9 119 118.75 118.95 121.5 118.95 121.7 123.3 121.5 127.6 118.75 127.6 115.9 127.6 115.75 123.3M140.1 117.55Q135.8 117.65 135.5 123.3 135.8 128.9 140.1 129 144.3 128.9 144.65 123.3 144.3 117.7 140.1 117.55M137.1 123.3Q137.25 119 140.1 118.95 142.85 118.95 143.05 123.3 142.85 127.6 140.1 127.6 137.25 127.6 137.1 123.3M134 123.3Q133.65 117.7 129.45 117.55 125.15 117.65 124.85 123.3 125.15 128.9 129.45 129 133.65 128.9 134 123.3M126.45 123.3Q126.6 119 129.45 118.95 132.2 118.95 132.4 123.3 132.2 127.6 129.45 127.6 126.6 127.6 126.45 123.3M157.65 121.65Q156.55 120.3 154.7 120.3 150.7 120.55 150.4 124.65 150.7 128.75 154.7 128.95 156.65 128.95 157.7 127.55L157.7 128.9 159.2 128.9 159.2 117 157.65 117 157.65 121.65M157.65 124.65Q157.45 127.5 154.8 127.65 152.15 127.5 151.95 124.65 152.15 121.8 154.8 121.65 157.45 121.8 157.65 124.65M80.15 122.1L78.9 122.1 79.2 119.05 84.2 119.05 84.2 117.65 77.85 117.65 77.25 123.5 79.8 123.5Q83.45 123.6 83.2 125.55 83.15 127.45 80.55 127.55 78.4 127.5 77.2 126.35L76.45 127.6Q78.05 128.95 80.55 129 84.85 128.7 84.8 125.5 85 122.3 80.15 122.1M69.35 84.3Q67.25 84.3 65.85 85.4L66.5 86.55Q67.55 85.65 69.15 85.65 71.45 85.7 71.45 87.7L71.45 88 69 88Q65.4 88.2 65.6 90.45 65.7 92.8 68.75 92.95 70.75 92.95 71.5 91.75L71.5 92.85 73 92.85 73 87.75Q72.9 84.3 69.35 84.3M69 91.8Q67.2 91.7 67.1 90.4 66.95 89.2 69.05 89.1L71.45 89.1 71.45 90.25Q70.8 91.75 69 91.8M80.4 84.3Q78.15 84.3 77.3 85.8L77.3 84.4 75.85 84.4 75.85 92.85 77.4 92.85 77.4 88.65Q77.5 85.8 80.05 85.75 80.25 85.75 80.4 85.8L80.4 84.3M44.95 89.15L49.25 89.15 49.25 87.8 44.95 87.8 44.95 89.15M57.45 85.05Q56.2 84.3 54.35 84.3 50.95 84.45 50.8 86.85 51.15 89.1 53.5 89.2 55.85 89.3 56.2 90.5 56.25 91.6 54.15 91.65 52.4 91.6 51.2 90.75L50.55 91.95Q51.8 92.9 54.05 92.95 57.6 92.85 57.7 90.45 57.4 88.25 55.05 88.15 52.7 88 52.35 86.8 52.35 85.7 54.35 85.6 55.6 85.55 56.8 86.3L57.45 85.05M58.45 85.65L59.9 85.65 59.9 90.35Q59.95 92.95 62.6 93 63.65 93 64.45 92.4L63.95 91.3Q63.45 91.7 62.75 91.7 61.45 91.65 61.45 90.25L61.45 85.65 63.85 85.65 63.85 84.4 61.45 84.4 61.45 82.55 59.9 82.55 59.9 84.4 58.45 84.4 58.45 85.65M40.05 86.3L40.05 88.7 35.75 88.7 41.25 81.65 39.55 81.65 33.8 89 33.8 90.1 40.05 90.1 40.05 92.85 41.6 92.85 41.6 90.1 43.7 90.1 43.7 88.7 41.6 88.7 41.6 86.3 40.05 86.3M10.1 9.65L6 9.65 6 11.05 8.55 11.05 8.55 20.85 10.1 20.85 10.1 9.65M23.1 16.6Q23.4 20.7 27.5 20.95 31.65 20.7 31.9 16.6 31.65 12.55 27.5 12.3 23.4 12.55 23.1 16.6M27.5 13.65Q30.15 13.8 30.35 16.6 30.15 19.5 27.5 19.6 24.85 19.5 24.65 16.6 24.85 13.8 27.5 13.65M21.75 13.65L21.75 12.4 19.35 12.4 19.35 10.55 17.8 10.55 17.8 12.4 16.35 12.4 16.35 13.65 17.8 13.65 17.8 18.35Q17.85 20.95 20.5 21 21.55 21 22.35 20.4L21.85 19.3Q21.35 19.7 20.65 19.7 19.35 19.65 19.35 18.25L19.35 13.65 21.75 13.65M45.65 16.6Q45.85 13.8 48.55 13.65 50 13.65 50.85 14.85L52.05 14.1Q50.95 12.3 48.6 12.3 44.4 12.55 44.1 16.6 44.4 20.7 48.6 20.95 50.95 20.95 52.05 19.15L50.85 18.4Q50 19.65 48.55 19.6 45.85 19.5 45.65 16.6M42 20.9L42 12.4 40.45 12.4 40.45 16.8Q40.35 19.55 37.85 19.6 35.6 19.6 35.55 17.1L35.55 12.4 34 12.4 34 17.3Q34.2 21 37.65 21 39.5 20.95 40.55 19.6L40.55 20.9 42 20.9M62 20.9L62 16Q61.8 12.3 58.5 12.3 56.5 12.35 55.5 13.6L55.5 9 53.95 9 53.95 20.9 55.5 20.9 55.5 16.5Q55.6 13.7 58.2 13.7 60.4 13.7 60.45 16.15L60.45 20.9 62 20.9M68.7 18.75L68.05 19.95Q69.3 20.9 71.55 20.95 75.1 20.85 75.2 18.45 74.9 16.25 72.55 16.15 70.2 16 69.85 14.8 69.85 13.7 71.85 13.6 73.1 13.55 74.3 14.3L74.95 13.05Q73.7 12.3 71.85 12.3 68.45 12.45 68.3 14.85 68.65 17.1 71 17.2 73.35 17.3 73.7 18.5 73.75 19.6 71.65 19.65 69.9 19.6 68.7 18.75M143.7 92.95Q147.85 92.7 148.1 88.6 147.85 84.55 143.7 84.3 139.6 84.55 139.3 88.6 139.6 92.7 143.7 92.95M146.55 88.6Q146.35 91.5 143.7 91.6 141.05 91.5 140.85 88.6 141.05 85.8 143.7 85.65 146.35 85.8 146.55 88.6M151.7 84.4L150.25 84.4 150.25 92.85 151.8 92.85 151.8 88.5Q151.9 85.7 154.5 85.7 156.7 85.65 156.75 88.15L156.75 92.85 158.3 92.85 158.3 88Q158.1 84.25 154.8 84.3 152.7 84.35 151.7 85.65L151.7 84.4M131.4 85.7Q130.25 84.3 128.25 84.3 124.25 84.5 123.95 88.4 124.25 92.3 128.25 92.5 130.15 92.5 131.3 91.2L131.3 91.85Q131.35 94.75 128.4 94.7 126.4 94.7 125.15 93.6L124.4 94.8Q125.95 96.05 128.45 96.05 132.8 96.15 132.85 91.7L132.85 84.4 131.4 84.4 131.4 85.7M131.35 88.4Q131.15 91 128.45 91.15 125.7 91 125.5 88.4 125.7 85.8 128.45 85.65 131.15 85.8 131.35 88.4M110.85 84.4L109.3 84.4 109.3 92.85 110.85 92.85 110.85 84.4M110.1 82.75Q111.05 82.65 111.15 81.75 111.05 80.85 110.1 80.75 109.15 80.85 109.05 81.75 109.1 82.65 110.1 82.75M104.5 84.4L104.5 82.55 102.95 82.55 102.95 84.4 101.5 84.4 101.5 85.65 102.95 85.65 102.95 90.35Q103 92.95 105.65 93 106.7 93 107.5 92.4L107 91.3Q106.5 91.7 105.8 91.7 104.5 91.65 104.5 90.25L104.5 85.65 106.9 85.65 106.9 84.4 104.5 84.4M115.25 84.4L113.8 84.4 113.8 92.85 115.35 92.85 115.35 88.5Q115.45 85.7 118.05 85.7 120.25 85.65 120.3 88.15L120.3 92.85 121.85 92.85 121.85 88Q121.65 84.25 118.35 84.3 116.25 84.35 115.25 85.65L115.25 84.4M96.25 84.3Q94.15 84.3 92.75 85.4L93.4 86.55Q94.45 85.65 96.05 85.65 98.35 85.7 98.35 87.7L98.35 88 95.9 88Q92.3 88.2 92.5 90.45 92.6 92.8 95.65 92.95 97.65 92.95 98.4 91.75L98.4 92.85 99.9 92.85 99.9 87.75Q99.8 84.3 96.25 84.3M98.35 89.1L98.35 90.25Q97.7 91.75 95.9 91.8 94.1 91.7 94 90.4 93.85 89.2 95.95 89.1L98.35 89.1M91.25 85.8L91.25 84.3Q89 84.3 88.15 85.8L88.15 84.4 86.7 84.4 86.7 92.85 88.25 92.85 88.25 88.65Q88.35 85.8 90.9 85.75 91.1 85.75 91.25 85.8M109.55 48.3Q107.45 48.3 106.05 49.4L106.7 50.55Q107.75 49.65 109.35 49.65 111.65 49.7 111.65 51.7L111.65 52 109.2 52Q105.6 52.2 105.8 54.45 105.9 56.8 108.95 56.95 110.95 56.95 111.7 55.75L111.7 56.85 113.2 56.85 113.2 51.75Q113.1 48.3 109.55 48.3M111.65 53.1L111.65 54.25Q111 55.75 109.2 55.8 107.4 55.7 107.3 54.4 107.15 53.2 109.25 53.1L111.65 53.1M117.45 48.4L116 48.4 116 56.85 117.55 56.85 117.55 52.65Q117.65 49.8 120.2 49.75 120.4 49.75 120.55 49.8L120.55 48.3Q118.3 48.3 117.45 49.8L117.45 48.4M98.75 48.4L97.45 48.4 94.85 55.15 92.4 48.4 90.95 48.4 94.1 56.9 95.6 56.9 98.05 50.45 100.5 56.9 102 56.9 105.15 48.4 103.75 48.4 101.25 55.2 98.75 48.4M86.2 45.65L84.6 45.65 79.55 56.85 81.2 56.85 82.45 54.05 88.4 54.05 89.6 56.85 91.3 56.85 86.2 45.65M87.85 52.75L83 52.75 85.4 47.3 87.85 52.75M86.05 18.45Q86.15 20.8 89.2 20.95 91.2 20.95 91.95 19.75L91.95 20.85 93.45 20.85 93.45 15.75Q93.35 12.3 89.8 12.3 87.7 12.3 86.3 13.4L86.95 14.55Q88 13.65 89.6 13.65 91.9 13.7 91.9 15.7L91.9 16 89.45 16Q85.85 16.2 86.05 18.45M87.55 18.4Q87.4 17.2 89.5 17.1L91.9 17.1 91.9 18.25Q91.25 19.75 89.45 19.8 87.65 19.7 87.55 18.4M84.75 17.15Q84.8 16.9 84.8 16.65 84.55 12.55 80.6 12.3 76.65 12.6 76.35 16.6 76.6 20.7 80.9 20.95 83.05 20.95 84.25 19.6L83.4 18.6Q82.45 19.6 80.95 19.6 78.3 19.5 77.9 17.15L84.75 17.15M77.9 16.05Q78.25 13.75 80.6 13.6 82.95 13.75 83.35 16.05L77.9 16.05M102.5 20.85L104.05 20.85 104.05 16.5Q104.2 13.7 106.6 13.7 108.75 13.65 108.8 16.15L108.8 20.85 110.35 20.85 110.35 16Q110.15 12.25 106.85 12.3 104.65 12.35 103.6 13.85 102.7 12.3 100.65 12.3 98.7 12.3 97.7 13.65L97.7 12.4 96.25 12.4 96.25 20.85 97.8 20.85 97.8 16.5Q97.9 13.7 100.35 13.7 102.5 13.65 102.5 16.15L102.5 20.85M114.7 9L113.15 9 113.15 20.9 114.7 20.9 114.7 9M153.5 48.4L151.95 48.4 151.95 56.85 153.5 56.85 153.5 48.4M151.7 45.75Q151.75 46.65 152.75 46.75 153.7 46.65 153.8 45.75 153.7 44.85 152.75 44.75 151.8 44.85 151.7 45.75M137.7 48.4L136.25 48.4 139.4 56.9 140.9 56.9 143.35 50.45 145.8 56.9 147.3 56.9 150.45 48.4 149.05 48.4 146.55 55.2 144.05 48.4 142.75 48.4 140.15 55.15 137.7 48.4M130.4 45L128.85 45 128.85 49.65Q127.75 48.3 125.9 48.3 121.9 48.55 121.6 52.65 121.9 56.75 125.9 56.95 127.85 56.95 128.9 55.55L128.9 56.9 130.4 56.9 130.4 45M128.85 52.65Q128.65 55.5 126 55.65 123.35 55.5 123.15 52.65 123.35 49.8 126 49.65 128.65 49.8 128.85 52.65M138.15 13.6Q139.4 13.55 140.6 14.3L141.25 13.05Q140 12.3 138.15 12.3 134.75 12.45 134.6 14.85 134.95 17.1 137.3 17.2 139.65 17.3 140 18.5 140.05 19.6 137.95 19.65 136.2 19.6 135 18.75L134.35 19.95Q135.6 20.9 137.85 20.95 141.4 20.85 141.5 18.45 141.2 16.25 138.85 16.15 136.5 16 136.15 14.8 136.15 13.7 138.15 13.6M130.85 16.15Q128.5 16 128.15 14.8 128.15 13.7 130.15 13.6 131.4 13.55 132.6 14.3L133.25 13.05Q132 12.3 130.15 12.3 126.75 12.45 126.6 14.85 126.95 17.1 129.3 17.2 131.65 17.3 132 18.5 132.05 19.6 129.95 19.65 128.2 19.6 127 18.75L126.35 19.95Q127.6 20.9 129.85 20.95 133.4 20.85 133.5 18.45 133.2 16.25 130.85 16.15M125.25 17.15Q125.3 16.9 125.3 16.65 125.05 12.55 121.1 12.3 117.15 12.6 116.85 16.6 117.1 20.7 121.4 20.95 123.55 20.95 124.75 19.6L123.9 18.6Q122.95 19.6 121.45 19.6 118.8 19.5 118.4 17.15L125.25 17.15M118.4 16.05Q118.75 13.75 121.1 13.6 123.45 13.75 123.85 16.05L118.4 16.05M153.7 13.65L153.7 12.4 152.25 12.4 152.25 20.85 153.8 20.85 153.8 16.5Q153.9 13.7 156.5 13.7 158.7 13.65 158.75 16.15L158.75 20.85 160.3 20.85 160.3 16Q160.1 12.25 156.8 12.3 154.7 12.35 153.7 13.65M147.75 20.85L149.3 20.85 149.3 12.4 147.75 12.4 147.75 20.85M148.55 10.75Q149.5 10.65 149.6 9.75 149.5 8.85 148.55 8.75 147.6 8.85 147.5 9.75 147.55 10.65 148.55 10.75M165.7 128.95Q169.85 128.7 170.1 124.6 169.85 120.55 165.7 120.3 161.6 120.55 161.3 124.6 161.6 128.7 165.7 128.95M165.7 127.6Q163.05 127.5 162.85 124.6 163.05 121.8 165.7 121.65 168.35 121.8 168.55 124.6 168.35 127.5 165.7 127.6M198.85 117L197.3 117 197.3 128.9 198.85 128.9 198.85 117M187.85 120.4L186.4 120.4 186.4 128.85 187.95 128.85 187.95 124.5Q188.05 121.7 190.65 121.7 192.85 121.65 192.9 124.15L192.9 128.85 194.45 128.85 194.45 124Q194.25 120.25 190.95 120.3 188.85 120.35 187.85 121.65L187.85 120.4M184.85 120.4L183.45 120.4 180.95 127.2 178.45 120.4 177.15 120.4 174.55 127.15 172.1 120.4 170.65 120.4 173.8 128.9 175.3 128.9 177.75 122.45 180.2 128.9 181.7 128.9 184.85 120.4M205.35 128.95Q209.5 128.7 209.75 124.6 209.5 120.55 205.35 120.3 201.25 120.55 200.95 124.6 201.25 128.7 205.35 128.95M205.35 127.6Q202.7 127.5 202.5 124.6 202.7 121.8 205.35 121.65 208 121.8 208.2 124.6 208 127.5 205.35 127.6M211.4 121.4L212.05 122.55Q213.1 121.65 214.7 121.65 217 121.7 217 123.7L217 124 214.55 124Q210.95 124.2 211.15 126.45 211.25 128.8 214.3 128.95 216.3 128.95 217.05 127.75L217.05 128.85 218.55 128.85 218.55 123.75Q218.45 120.3 214.9 120.3 212.8 120.3 211.4 121.4M214.6 125.1L217 125.1 217 126.25Q216.35 127.75 214.55 127.8 212.75 127.7 212.65 126.4 212.5 125.2 214.6 125.1M237.55 122.3L238.2 121.05Q236.95 120.3 235.1 120.3 231.7 120.45 231.55 122.85 231.9 125.1 234.25 125.2 236.6 125.3 236.95 126.5 237 127.6 234.9 127.65 233.15 127.6 231.95 126.75L231.3 127.95Q232.55 128.9 234.8 128.95 238.35 128.85 238.45 126.45 238.15 124.25 235.8 124.15 233.45 124 233.1 122.8 233.1 121.7 235.1 121.6 236.35 121.55 237.55 122.3M229.45 117L227.9 117 227.9 121.65Q226.8 120.3 224.95 120.3 220.95 120.55 220.65 124.65 220.95 128.75 224.95 128.95 226.9 128.95 227.95 127.55L227.95 128.9 229.45 128.9 229.45 117M227.9 124.65Q227.7 127.5 225.05 127.65 222.4 127.5 222.2 124.65 222.4 121.8 225.05 121.65 227.7 121.8 227.9 124.65M236.85 90.6Q235.9 91.6 234.4 91.6 231.75 91.5 231.35 89.15L238.2 89.15Q238.25 88.9 238.25 88.65 238 84.55 234.05 84.3 230.1 84.6 229.8 88.6 230.05 92.7 234.35 92.95 236.5 92.95 237.7 91.6L236.85 90.6M236.8 88.05L231.35 88.05Q231.7 85.75 234.05 85.6 236.4 85.75 236.8 88.05M228.75 85.8L228.75 84.3Q226.5 84.3 225.65 85.8L225.65 84.4 224.2 84.4 224.2 92.85 225.75 92.85 225.75 88.65Q225.85 85.8 228.4 85.75 228.6 85.75 228.75 85.8M217.65 92.95Q221.8 92.7 222.05 88.6 221.8 84.55 217.65 84.3 213.55 84.55 213.25 88.6 213.55 92.7 217.65 92.95M217.65 91.6Q215 91.5 214.8 88.6 215 85.8 217.65 85.65 220.3 85.8 220.5 88.6 220.3 91.5 217.65 91.6M206.5 84.4L206.5 85.65 207.95 85.65 207.95 90.35Q208 92.95 210.65 93 211.7 93 212.5 92.4L212 91.3Q211.5 91.7 210.8 91.7 209.5 91.65 209.5 90.25L209.5 85.65 211.9 85.65 211.9 84.4 209.5 84.4 209.5 82.55 207.95 82.55 207.95 84.4 206.5 84.4M198.9 86.85Q199.25 89.1 201.6 89.2 203.95 89.3 204.3 90.5 204.35 91.6 202.25 91.65 200.5 91.6 199.3 90.75L198.65 91.95Q199.9 92.9 202.15 92.95 205.7 92.85 205.8 90.45 205.5 88.25 203.15 88.15 200.8 88 200.45 86.8 200.45 85.7 202.45 85.6 203.7 85.55 204.9 86.3L205.55 85.05Q204.3 84.3 202.45 84.3 199.05 84.45 198.9 86.85M198.35 84.4L196.85 84.4 193.95 91.2 190.95 84.4 189.35 84.4 193.1 92.85 192.85 93.45Q192.25 94.85 191.25 94.75 190.35 94.75 189.7 94.15L189.05 95.3Q189.9 96.05 191.25 96.1 193.15 96.25 194.25 93.75L198.35 84.4M170 81.65L165.65 81.65 165.65 92.85 167.25 92.85 167.25 89.45 170 89.45Q174.55 89.35 174.7 85.55 174.55 81.8 170 81.65M167.25 83.05L169.95 83.05Q173.05 83.1 173.1 85.55 173.05 88 169.95 88.05L167.25 88.05 167.25 83.05M178.55 81L177 81 177 92.9 178.55 92.9 178.55 81M181.05 85.4L181.7 86.55Q182.75 85.65 184.35 85.65 186.65 85.7 186.65 87.7L186.65 88 184.2 88Q180.6 88.2 180.8 90.45 180.9 92.8 183.95 92.95 185.95 92.95 186.7 91.75L186.7 92.85 188.2 92.85 188.2 87.75Q188.1 84.3 184.55 84.3 182.45 84.3 181.05 85.4M186.65 90.25Q186 91.75 184.2 91.8 182.4 91.7 182.3 90.4 182.15 89.2 184.25 89.1L186.65 89.1 186.65 90.25M162.95 56.85L164.5 56.85 164.5 52Q164.3 48.25 161 48.3 158.9 48.35 157.9 49.65L157.9 48.4 156.45 48.4 156.45 56.85 158 56.85 158 52.5Q158.1 49.7 160.7 49.7 162.9 49.65 162.95 52.15L162.95 56.85M184.15 48.4L182.7 48.4 182.7 56.85 184.25 56.85 184.25 52.5Q184.35 49.7 186.95 49.7 189.15 49.65 189.2 52.15L189.2 56.85 190.75 56.85 190.75 52Q190.55 48.25 187.25 48.3 185.15 48.35 184.15 49.65L184.15 48.4M201.75 48.4L200.3 48.4 200.3 49.7Q199.15 48.3 197.15 48.3 193.15 48.5 192.85 52.4 193.15 56.3 197.15 56.5 199.05 56.5 200.2 55.2L200.2 55.85Q200.25 58.75 197.3 58.7 195.3 58.7 194.05 57.6L193.3 58.8Q194.85 60.05 197.35 60.05 201.7 60.15 201.75 55.7L201.75 48.4M197.35 55.15Q194.6 55 194.4 52.4 194.6 49.8 197.35 49.65 200.05 49.8 200.25 52.4 200.05 55 197.35 55.15M168.8 48.4L167.35 48.4 167.35 56.85 168.9 56.85 168.9 52.5Q169 49.7 171.6 49.7 173.8 49.65 173.85 52.15L173.85 56.85 175.4 56.85 175.4 52Q175.2 48.25 171.9 48.3 169.8 48.35 168.8 49.65L168.8 48.4M177.95 45.75Q178 46.65 179 46.75 179.95 46.65 180.05 45.75 179.95 44.85 179 44.75 178.05 44.85 177.95 45.75M179.75 48.4L178.2 48.4 178.2 56.85 179.75 56.85 179.75 48.4M179.3 17.15Q179.35 16.9 179.35 16.65 179.1 12.55 175.15 12.3 171.2 12.6 170.9 16.6 171.15 20.7 175.45 20.95 177.6 20.95 178.8 19.6L177.95 18.6Q177 19.6 175.5 19.6 172.85 19.5 172.45 17.15L179.3 17.15M172.45 16.05Q172.8 13.75 175.15 13.6 177.5 13.75 177.9 16.05L172.45 16.05M165.95 19.2L163.05 12.4 161.45 12.4 165.15 20.9 166.75 20.9 170.45 12.4 168.95 12.4 165.95 19.2M186.65 14.3L187.3 13.05Q186.05 12.3 184.2 12.3 180.8 12.45 180.65 14.85 181 17.1 183.35 17.2 185.7 17.3 186.05 18.5 186.1 19.6 184 19.65 182.25 19.6 181.05 18.75L180.4 19.95Q181.65 20.9 183.9 20.95 187.45 20.85 187.55 18.45 187.25 16.25 184.9 16.15 182.55 16 182.2 14.8 182.2 13.7 184.2 13.6 185.45 13.55 186.65 14.3M191.25 10.55L189.7 10.55 189.7 12.4 188.25 12.4 188.25 13.65 189.7 13.65 189.7 18.35Q189.75 20.95 192.4 21 193.45 21 194.25 20.4L193.75 19.3Q193.25 19.7 192.55 19.7 191.25 19.65 191.25 18.25L191.25 13.65 193.65 13.65 193.65 12.4 191.25 12.4 191.25 10.55M230.9 48.4L229.45 48.4 229.45 59.95 231 59.95 231 55.6Q232.1 56.95 233.95 56.95 237.95 56.75 238.25 52.6 237.95 48.5 233.95 48.3 232 48.3 230.9 49.7L230.9 48.4M233.8 49.65Q236.45 49.8 236.7 52.6 236.5 55.5 233.8 55.6 231.2 55.5 230.95 52.6 231.2 49.8 233.8 49.65M220 48.4L218.55 48.4 218.55 59.95 220.1 59.95 220.1 55.6Q221.2 56.95 223.05 56.95 227.05 56.75 227.35 52.6 227.05 48.5 223.05 48.3 221.1 48.3 220 49.7L220 48.4M225.8 52.6Q225.6 55.5 222.9 55.6 220.3 55.5 220.05 52.6 220.3 49.8 222.9 49.65 225.55 49.8 225.8 52.6M212.05 48.3Q209.95 48.3 208.55 49.4L209.2 50.55Q210.25 49.65 211.85 49.65 214.15 49.7 214.15 51.7L214.15 52 211.7 52Q208.1 52.2 208.3 54.45 208.4 56.8 211.45 56.95 213.45 56.95 214.2 55.75L214.2 56.85 215.7 56.85 215.7 51.75Q215.6 48.3 212.05 48.3M214.15 53.1L214.15 54.25Q213.5 55.75 211.7 55.8 209.9 55.7 209.8 54.4 209.65 53.2 211.75 53.1L214.15 53.1M220.65 17.15Q220.7 16.9 220.7 16.65 220.45 12.55 216.5 12.3 212.55 12.6 212.25 16.6 212.5 20.7 216.8 20.95 218.95 20.95 220.15 19.6L219.3 18.6Q218.35 19.6 216.85 19.6 214.2 19.5 213.8 17.15L220.65 17.15M213.8 16.05Q214.15 13.75 216.5 13.6 218.85 13.75 219.25 16.05L213.8 16.05M203.9 20.85L203.9 16.5Q204.05 13.7 206.45 13.7 208.6 13.65 208.65 16.15L208.65 20.85 210.2 20.85 210.2 16Q210 12.25 206.7 12.3 204.5 12.35 203.45 13.85 202.55 12.3 200.5 12.3 198.55 12.3 197.55 13.65L197.55 12.4 196.1 12.4 196.1 20.85 197.65 20.85 197.65 16.5Q197.75 13.7 200.2 13.7 202.35 13.65 202.35 16.15L202.35 20.85 203.9 20.85M224.3 13.65L224.3 12.4 222.85 12.4 222.85 20.85 224.4 20.85 224.4 16.5Q224.5 13.7 227.1 13.7 229.3 13.65 229.35 16.15L229.35 20.85 230.9 20.85 230.9 16Q230.7 12.25 227.4 12.3 225.3 12.35 224.3 13.65M235.55 10.55L234 10.55 234 12.4 232.55 12.4 232.55 13.65 234 13.65 234 18.35Q234.05 20.95 236.7 21 237.75 21 238.55 20.4L238.05 19.3Q237.55 19.7 236.85 19.7 235.55 19.65 235.55 18.25L235.55 13.65 237.95 13.65 237.95 12.4 235.55 12.4 235.55 10.55Z"/><path fill="#31A52A" stroke="none" d="M273.7 125.55Q273.709 125.648 273.7 125.75 273.709 125.851 273.7 125.95 274.201 130.009 278.35 130.4 282.6 130.05 283 125.75 282.6 121.45 278.35 121.05 274.2 121.440 273.7 125.55M273.7 89.75Q273.709 89.851 273.7 89.95 274.201 94.009 278.35 94.4 282.6 94.05 283 89.75 282.6 85.45 278.35 85.05 274.2 85.440 273.7 89.55 273.709 89.648 273.7 89.75M273.7 54.3L273.7 54.35Q273.707 54.425 273.7 54.5 274.175 58.607 278.35 59 282.6 58.65 283 54.35 282.6 50.05 278.35 49.65 274.225 50.038 273.7 54.1 273.710 54.198 273.7 54.3M273.7 17.55Q273.709 17.651 273.7 17.75 274.201 21.809 278.35 22.2 282.6 21.85 283 17.55 282.6 13.25 278.35 12.85 274.2 13.240 273.7 17.35 273.709 17.448 273.7 17.55Z"/><path fill="#50504F" stroke="none" d="M246.1 125.55L246.1 125.75 273.7 125.75Q273.709 125.648 273.7 125.55L246.1 125.55M246.1 125.75L246.1 125.95 273.7 125.95Q273.709 125.851 273.7 125.75L246.1 125.75M246.1 89.55L246.1 89.75 273.7 89.75Q273.709 89.648 273.7 89.55L246.1 89.55M246.1 89.75L246.1 89.95 273.7 89.95Q273.709 89.851 273.7 89.75L246.1 89.75M273.7 54.3Q273.710 54.198 273.7 54.1L246.1 54.1 246.1 54.3 273.7 54.3M273.7 54.35L273.7 54.3 246.1 54.3 246.1 54.5 273.7 54.5Q273.707 54.425 273.7 54.35M273.7 17.55Q273.709 17.448 273.7 17.35L246.1 17.35 246.1 17.55 273.7 17.55M273.7 17.75Q273.709 17.651 273.7 17.55L246.1 17.55 246.1 17.75 273.7 17.75Z"/><path id="Layer2_0_1_STROKES" stroke="#FACA0E" stroke-width="2" stroke-linejoin="round" stroke-linecap="round" fill="none" d="M273.725 17.35Q273.709 17.448 273.7 17.55 273.709 17.651 273.725 17.75 274.201 21.809 278.35 22.2 282.6 21.85 283 17.55 282.6 13.25 278.35 12.85 274.2 13.240 273.725 17.35ZM273.7 17.55L246.1 17.55M273.725 54.1Q273.710 54.198 273.7 54.3L273.7 54.35Q273.707 54.425 273.725 54.5 274.175 58.607 278.35 59 282.6 58.65 283 54.35 282.6 50.05 278.35 49.65 274.225 50.038 273.725 54.1ZM273.7 54.3L246.1 54.3M273.725 89.55Q274.2 85.440 278.35 85.05 282.6 85.45 283 89.75 282.6 94.05 278.35 94.4 274.201 94.009 273.725 89.95 273.709 89.851 273.7 89.75L246.1 89.75M273.725 89.55Q273.709 89.648 273.7 89.75M273.725 125.55Q274.2 121.440 278.35 121.05 282.6 121.45 283 125.75 282.6 130.05 278.35 130.4 274.201 130.009 273.725 125.95 273.709 125.851 273.7 125.75L246.1 125.75M273.725 125.55Q273.709 125.648 273.7 125.75"/></g><animate attributeName="display" fill="freeze" repeatCount="1" dur="0.621s" keyTimes="0;.167;1" values="none;inline;inline"/></g><g display="none"><g id="website-bullet" transform="translate(867.85 127.8)" opacity="0"><animate attributeName="opacity" dur="0.621s" keyTimes="0;.167;.555;1" values="0;0;1;1" keySplines=".25 .5 .5 1;.25 .5 .5 1;.1 .1 .9 .9" calcMode="spline" fill="freeze"/><path fill="#404041" stroke="none" d="M74.75 83.4Q76.3 83.4 77.85 84.3L78.35 83.05Q76.85 82.05 74.75 82.05 70.4 82.35 70.45 85.25 70.9 88.05 73.85 88.35 76.85 88.7 77.25 90.4 77.3 92 74.5 92.15 72.2 92.05 70.8 90.85L70.2 92.1Q71.75 93.45 74.5 93.5 78.85 93.2 78.85 90.35 78.4 87.55 75.45 87.25 72.45 86.9 72.05 85.2 72 83.55 74.75 83.4M75.55 46.2L71.2 46.2 71.2 57.4 72.8 57.4 72.8 54 75.55 54Q80.1 53.9 80.25 50.1 80.1 46.35 75.55 46.2M72.8 47.6L75.5 47.6Q78.6 47.65 78.65 50.1 78.6 52.55 75.5 52.6L72.8 52.6 72.8 47.6M76.25 10.2L71.2 10.2 71.2 21.4 76.55 21.4Q80.8 21.35 80.85 18.4 80.75 16.15 78.75 15.6 80.15 14.95 80.25 13.1 80.15 10.3 76.25 10.2M72.8 11.5L76.1 11.5Q78.6 11.5 78.65 13.3 78.6 15.05 76.1 15.1L72.8 15.1 72.8 11.5M76.5 16.4Q79.2 16.35 79.2 18.25 79.2 20.15 76.5 20.1L72.8 20.1 72.8 16.4 76.5 16.4M149.2 84.95L147.65 84.95 147.65 93.4 149.2 93.4 149.2 84.95M148.45 83.3Q149.4 83.2 149.5 82.3 149.4 81.4 148.45 81.3 147.5 81.4 147.4 82.3 147.45 83.2 148.45 83.3M160.85 82.3Q160.8 81.4 159.8 81.3 158.85 81.4 158.8 82.3 158.85 83.2 159.8 83.3 160.8 83.2 160.85 82.3M160.6 84.95L159.05 84.95 159.05 93.4 160.6 93.4 160.6 84.95M156.4 83.1L156.85 81.95Q156.15 81.45 155.15 81.45 152.4 81.55 152.35 84.2L152.35 84.95 150.9 84.95 150.9 86.2 152.35 86.2 152.35 93.4 153.9 93.4 153.9 86.2 156.3 86.2 156.3 84.95 153.85 84.95 153.85 84.2Q153.85 82.7 155.2 82.7 155.9 82.75 156.4 83.1M138.2 84.95L136.75 84.95 136.75 93.4 138.3 93.4 138.3 89.05Q138.4 86.25 141 86.25 143.2 86.2 143.25 88.7L143.25 93.4 144.8 93.4 144.8 88.55Q144.6 84.8 141.3 84.85 139.2 84.9 138.2 86.2L138.2 84.95M133.85 84.9L132.3 84.9 132.3 89.3Q132.2 92.05 129.7 92.1 127.45 92.1 127.4 89.6L127.4 84.9 125.85 84.9 125.85 89.8Q126.05 93.5 129.5 93.5 131.35 93.45 132.4 92.1L132.4 93.4 133.85 93.4 133.85 84.9M131.1 53.7Q131.15 53.45 131.15 53.2 130.9 49.1 126.95 48.85 123 49.15 122.7 53.15 122.95 57.25 127.25 57.5 129.4 57.5 130.6 56.15L129.75 55.15Q128.8 56.15 127.3 56.15 124.65 56.05 124.25 53.7L131.1 53.7M126.95 50.15Q129.3 50.3 129.7 52.6L124.25 52.6Q124.6 50.3 126.95 50.15M139.35 55Q139.05 52.8 136.7 52.7 134.35 52.55 134 51.35 134 50.25 136 50.15 137.25 50.1 138.45 50.85L139.1 49.6Q137.85 48.85 136 48.85 132.6 49 132.45 51.4 132.8 53.65 135.15 53.75 137.5 53.85 137.85 55.05 137.9 56.15 135.8 56.2 134.05 56.15 132.85 55.3L132.2 56.5Q133.45 57.45 135.7 57.5 139.25 57.4 139.35 55M145.85 55.05Q145.9 56.15 143.8 56.2 142.05 56.15 140.85 55.3L140.2 56.5Q141.45 57.45 143.7 57.5 147.25 57.4 147.35 55 147.05 52.8 144.7 52.7 142.35 52.55 142 51.35 142 50.25 144 50.15 145.25 50.1 146.45 50.85L147.1 49.6Q145.85 48.85 144 48.85 140.6 49 140.45 51.4 140.8 53.65 143.15 53.75 145.5 53.85 145.85 55.05M119.45 89.7Q119.5 89.45 119.5 89.2 119.25 85.1 115.3 84.85 111.35 85.15 111.05 89.15 111.3 93.25 115.6 93.5 117.75 93.5 118.95 92.15L118.1 91.15Q117.15 92.15 115.65 92.15 113 92.05 112.6 89.7L119.45 89.7M118.05 88.6L112.6 88.6Q112.95 86.3 115.3 86.15 117.65 86.3 118.05 88.6M108.9 81.5L107.35 81.5 107.35 93.4 108.9 93.4 108.9 81.5M82.45 93.4L82.45 84.95 80.9 84.95 80.9 93.4 82.45 93.4M96.75 94.15L96 95.35Q97.55 96.6 100.05 96.6 104.4 96.7 104.45 92.25L104.45 84.95 103 84.95 103 86.25Q101.85 84.85 99.85 84.85 95.85 85.05 95.55 88.95 95.85 92.85 99.85 93.05 101.75 93.05 102.9 91.75L102.9 92.4Q102.95 95.3 100 95.25 98 95.25 96.75 94.15M100.05 91.7Q97.3 91.55 97.1 88.95 97.3 86.35 100.05 86.2 102.75 86.35 102.95 88.95 102.75 91.55 100.05 91.7M89.95 84.85Q87.85 84.9 86.85 86.2L86.85 84.95 85.4 84.95 85.4 93.4 86.95 93.4 86.95 89.05Q87.05 86.25 89.65 86.25 91.85 86.2 91.9 88.7L91.9 93.4 93.45 93.4 93.45 88.55Q93.25 84.8 89.95 84.85M82.75 82.3Q82.65 81.4 81.7 81.3 80.75 81.4 80.65 82.3 80.7 83.2 81.7 83.3 82.65 83.2 82.75 82.3M87.5 52.25L87.5 52.55 85.05 52.55Q81.45 52.75 81.65 55 81.75 57.35 84.8 57.5 86.8 57.5 87.55 56.3L87.55 57.4 89.05 57.4 89.05 52.3Q88.95 48.85 85.4 48.85 83.3 48.85 81.9 49.95L82.55 51.1Q83.6 50.2 85.2 50.2 87.5 50.25 87.5 52.25M87.5 53.65L87.5 54.8Q86.85 56.3 85.05 56.35 83.25 56.25 83.15 54.95 83 53.75 85.1 53.65L87.5 53.65M110.4 53.7Q110.45 53.45 110.45 53.2 110.2 49.1 106.25 48.85 102.3 49.15 102 53.15 102.25 57.25 106.55 57.5 108.7 57.5 109.9 56.15L109.05 55.15Q108.1 56.15 106.6 56.15 103.95 56.05 103.55 53.7L110.4 53.7M103.55 52.6Q103.9 50.3 106.25 50.15 108.6 50.3 109 52.6L103.55 52.6M114 48.95L112.55 48.95 112.55 57.4 114.1 57.4 114.1 53.2Q114.2 50.35 116.75 50.3 116.95 50.3 117.1 50.35L117.1 48.85Q114.85 48.85 114 50.35L114 48.95M120.55 45.5L119 45.5 119 57.4 120.55 57.4 120.55 45.5M93.3 48.95L91.85 48.95 91.85 60.5 93.4 60.5 93.4 56.15Q94.5 57.5 96.35 57.5 100.35 57.3 100.65 53.15 100.35 49.05 96.35 48.85 94.4 48.85 93.3 50.25L93.3 48.95M96.2 50.2Q98.85 50.35 99.1 53.15 98.9 56.05 96.2 56.15 93.6 56.05 93.35 53.15 93.6 50.35 96.2 50.2M96.9 14.25Q99.1 14.2 99.15 16.7L99.15 21.4 100.7 21.4 100.7 16.55Q100.5 12.8 97.2 12.85 95.1 12.9 94.1 14.2L94.1 12.95 92.65 12.95 92.65 21.4 94.2 21.4 94.2 17.05Q94.3 14.25 96.9 14.25M89.85 16.3Q89.75 12.85 86.2 12.85 84.1 12.85 82.7 13.95L83.35 15.1Q84.4 14.2 86 14.2 88.3 14.25 88.3 16.25L88.3 16.55 85.85 16.55Q82.25 16.75 82.45 19 82.55 21.35 85.6 21.5 87.6 21.5 88.35 20.3L88.35 21.4 89.85 21.4 89.85 16.3M85.85 20.35Q84.05 20.25 83.95 18.95 83.8 17.75 85.9 17.65L88.3 17.65 88.3 18.8Q87.65 20.3 85.85 20.35M105.1 9.5L103.55 9.5 103.55 21.4 105.1 21.4 105.1 19.05 106.85 17.4 110.05 21.4 111.9 21.4 108 16.4 111.55 12.9 109.7 12.9 105.1 17.1 105.1 9.5M155.15 48.95L153.6 48.95 153.6 57.4 155.15 57.4 155.15 48.95M154.4 47.3Q155.35 47.2 155.45 46.3 155.35 45.4 154.4 45.3 153.45 45.4 153.35 46.3 153.4 47.2 154.4 47.3M125.85 12.95L124.4 12.95 124.4 14.25Q123.25 12.85 121.25 12.85 117.25 13.05 116.95 16.95 117.25 20.85 121.25 21.05 123.15 21.05 124.3 19.75L124.3 20.4Q124.35 23.3 121.4 23.25 119.4 23.25 118.15 22.15L117.4 23.35Q118.95 24.6 121.45 24.6 125.8 24.7 125.85 20.25L125.85 12.95M121.45 19.7Q118.7 19.55 118.5 16.95 118.7 14.35 121.45 14.2 124.15 14.35 124.35 16.95 124.15 19.55 121.45 19.7M130.2 14.35L130.2 12.95 128.75 12.95 128.75 21.4 130.3 21.4 130.3 17.2Q130.4 14.35 132.95 14.3 133.15 14.3 133.3 14.35L133.3 12.85Q131.05 12.85 130.2 14.35M141.95 21.4L141.95 16.3Q141.85 12.85 138.3 12.85 136.2 12.85 134.8 13.95L135.45 15.1Q136.5 14.2 138.1 14.2 140.4 14.25 140.4 16.25L140.4 16.55 137.95 16.55Q134.35 16.75 134.55 19 134.65 21.35 137.7 21.5 139.7 21.5 140.45 20.3L140.45 21.4 141.95 21.4M138 17.65L140.4 17.65 140.4 18.8Q139.75 20.3 137.95 20.35 136.15 20.25 136.05 18.95 135.9 17.75 138 17.65M151.3 14.15Q150.2 12.8 148.35 12.8 144.35 13.05 144.05 17.15 144.35 21.25 148.35 21.45 150.3 21.45 151.35 20.05L151.35 21.4 152.85 21.4 152.85 9.5 151.3 9.5 151.3 14.15M148.45 14.15Q151.1 14.3 151.3 17.15 151.1 20 148.45 20.15 145.8 20 145.6 17.15 145.8 14.3 148.45 14.15M238.05 89.15Q238.35 93.25 242.45 93.5 246.6 93.25 246.85 89.15 246.6 85.1 242.45 84.85 238.35 85.1 238.05 89.15M242.45 92.15Q239.8 92.05 239.6 89.15 239.8 86.35 242.45 86.2 245.1 86.35 245.3 89.15 245.1 92.05 242.45 92.15M229.45 81.5L227.9 81.5 227.9 93.4 229.35 93.4 229.35 92.05Q230.45 93.5 232.4 93.45 236.4 93.25 236.7 89.15 236.4 85.05 232.4 84.8 230.55 84.8 229.45 86.15L229.45 81.5M232.25 92.15Q229.65 92 229.4 89.15 229.65 86.3 232.25 86.15 234.9 86.3 235.15 89.15 234.95 92 232.25 92.15M212.45 88.7Q210.1 88.55 209.75 87.35 209.75 86.25 211.75 86.15 213 86.1 214.2 86.85L214.85 85.6Q213.6 84.85 211.75 84.85 208.35 85 208.2 87.4 208.55 89.65 210.9 89.75 213.25 89.85 213.6 91.05 213.65 92.15 211.55 92.2 209.8 92.15 208.6 91.3L207.95 92.5Q209.2 93.45 211.45 93.5 215 93.4 215.1 91 214.8 88.8 212.45 88.7M218.55 81.5L217 81.5 217 93.4 218.55 93.4 218.55 89Q218.65 86.2 221.25 86.2 223.45 86.2 223.5 88.65L223.5 93.4 225.05 93.4 225.05 88.5Q224.85 84.8 221.55 84.8 219.55 84.85 218.55 86.1L218.55 81.5M216.05 57.4L216.05 52.55Q215.85 48.8 212.55 48.85 210.35 48.9 209.3 50.4 208.4 48.85 206.35 48.85 204.4 48.85 203.4 50.2L203.4 48.95 201.95 48.95 201.95 57.4 203.5 57.4 203.5 53.05Q203.6 50.25 206.05 50.25 208.2 50.2 208.2 52.7L208.2 57.4 209.75 57.4 209.75 53.05Q209.9 50.25 212.3 50.25 214.45 50.2 214.5 52.7L214.5 57.4 216.05 57.4M226.5 53.7Q226.55 53.45 226.55 53.2 226.3 49.1 222.35 48.85 218.4 49.15 218.1 53.15 218.35 57.25 222.65 57.5 224.8 57.5 226 56.15L225.15 55.15Q224.2 56.15 222.7 56.15 220.05 56.05 219.65 53.7L226.5 53.7M219.65 52.6Q220 50.3 222.35 50.15 224.7 50.3 225.1 52.6L219.65 52.6M202.2 88.55Q198.6 88.75 198.8 91 198.9 93.35 201.95 93.5 203.95 93.5 204.7 92.3L204.7 93.4 206.2 93.4 206.2 88.3Q206.1 84.85 202.55 84.85 200.45 84.85 199.05 85.95L199.7 87.1Q200.75 86.2 202.35 86.2 204.65 86.25 204.65 88.25L204.65 88.55 202.2 88.55M200.3 90.95Q200.15 89.75 202.25 89.65L204.65 89.65 204.65 90.8Q204 92.3 202.2 92.35 200.4 92.25 200.3 90.95M196.55 81.5L195 81.5 195 86.15Q193.9 84.8 192.05 84.8 188.05 85.05 187.75 89.15 188.05 93.25 192.05 93.45 194 93.45 195.05 92.05L195.05 93.4 196.55 93.4 196.55 81.5M192.15 92.15Q189.5 92 189.3 89.15 189.5 86.3 192.15 86.15 194.8 86.3 195 89.15 194.8 92 192.15 92.15M167.35 92.15Q164.7 92.05 164.3 89.7L171.15 89.7Q171.2 89.45 171.2 89.2 170.95 85.1 167 84.85 163.05 85.15 162.75 89.15 163 93.25 167.3 93.5 169.45 93.5 170.65 92.15L169.8 91.15Q168.85 92.15 167.35 92.15M169.75 88.6L164.3 88.6Q164.65 86.3 167 86.15 169.35 86.3 169.75 88.6M179.75 81.5L179.75 86.15Q178.65 84.8 176.8 84.8 172.8 85.05 172.5 89.15 172.8 93.25 176.8 93.45 178.75 93.45 179.8 92.05L179.8 93.4 181.3 93.4 181.3 81.5 179.75 81.5M176.9 92.15Q174.25 92 174.05 89.15 174.25 86.3 176.9 86.15 179.55 86.3 179.75 89.15 179.55 92 176.9 92.15M162.35 50.25Q164.55 50.2 164.6 52.7L164.6 57.4 166.15 57.4 166.15 52.55Q165.95 48.8 162.65 48.85 160.55 48.9 159.55 50.2L159.55 48.95 158.1 48.95 158.1 57.4 159.65 57.4 159.65 53.05Q159.75 50.25 162.35 50.25M185.15 53.7Q185.2 53.45 185.2 53.2 184.95 49.1 181 48.85 177.05 49.15 176.75 53.15 177 57.25 181.3 57.5 183.45 57.5 184.65 56.15L183.8 55.15Q182.85 56.15 181.35 56.15 178.7 56.05 178.3 53.7L185.15 53.7M178.3 52.6Q178.65 50.3 181 50.15 183.35 50.3 183.75 52.6L178.3 52.6M192.5 50.85L193.15 49.6Q191.9 48.85 190.05 48.85 186.65 49 186.5 51.4 186.85 53.65 189.2 53.75 191.55 53.85 191.9 55.05 191.95 56.15 189.85 56.2 188.1 56.15 186.9 55.3L186.25 56.5Q187.5 57.45 189.75 57.5 193.3 57.4 193.4 55 193.1 52.8 190.75 52.7 188.4 52.55 188.05 51.35 188.05 50.25 190.05 50.15 191.3 50.1 192.5 50.85M195.55 48.9L194.1 48.9 194.1 50.15 195.55 50.15 195.55 54.85Q195.6 57.45 198.25 57.5 199.3 57.5 200.1 56.9L199.6 55.8Q199.1 56.2 198.4 56.2 197.1 56.15 197.1 54.75L197.1 50.15 199.5 50.15 199.5 48.9 197.1 48.9 197.1 47.05 195.55 47.05 195.55 48.9M176.3 48.9L174.8 48.9 171.8 55.7 168.9 48.9 167.3 48.9 171 57.4 172.6 57.4 176.3 48.9M169 15.4Q169.35 17.65 171.7 17.75 174.05 17.85 174.4 19.05 174.45 20.15 172.35 20.2 170.6 20.15 169.4 19.3L168.75 20.5Q170 21.45 172.25 21.5 175.8 21.4 175.9 19 175.6 16.8 173.25 16.7 170.9 16.55 170.55 15.35 170.55 14.25 172.55 14.15 173.8 14.1 175 14.85L175.65 13.6Q174.4 12.85 172.55 12.85 169.15 13 169 15.4M163.35 17.7Q163.4 17.45 163.4 17.2 163.15 13.1 159.2 12.85 155.25 13.15 154.95 17.15 155.2 21.25 159.5 21.5 161.65 21.5 162.85 20.15L162 19.15Q161.05 20.15 159.55 20.15 156.9 20.05 156.5 17.7L163.35 17.7M161.95 16.6L156.5 16.6Q156.85 14.3 159.2 14.15 161.55 14.3 161.95 16.6M185.45 17.7Q185.5 17.45 185.5 17.2 185.25 13.1 181.3 12.85 177.35 13.15 177.05 17.15 177.3 21.25 181.6 21.5 183.75 21.5 184.95 20.15L184.1 19.15Q183.15 20.15 181.65 20.15 179 20.05 178.6 17.7L185.45 17.7M178.6 16.6Q178.95 14.3 181.3 14.15 183.65 14.3 184.05 16.6L178.6 16.6M191.3 20.15Q188.6 20.05 188.4 17.15 188.6 14.35 191.3 14.2 192.75 14.2 193.6 15.4L194.8 14.65Q193.7 12.85 191.35 12.85 187.15 13.1 186.85 17.15 187.15 21.25 191.35 21.5 193.7 21.5 194.8 19.7L193.6 18.95Q192.75 20.2 191.3 20.15M230.15 48.95L228.7 48.95 228.7 57.4 230.25 57.4 230.25 53.05Q230.35 50.25 232.95 50.25 235.15 50.2 235.2 52.7L235.2 57.4 236.75 57.4 236.75 52.55Q236.55 48.8 233.25 48.85 231.15 48.9 230.15 50.2L230.15 48.95M215.55 12.95L214 12.95 214 21.4 215.55 21.4 215.55 12.95M204.7 12.9L203.15 12.9 203.15 17.3Q203.05 20.05 200.55 20.1 198.3 20.1 198.25 17.6L198.25 12.9 196.7 12.9 196.7 17.8Q196.9 21.5 200.35 21.5 202.2 21.45 203.25 20.1L203.25 21.4 204.7 21.4 204.7 12.9M212.15 14.35L212.15 12.85Q209.9 12.85 209.05 14.35L209.05 12.95 207.6 12.95 207.6 21.4 209.15 21.4 209.15 17.2Q209.25 14.35 211.8 14.3 212 14.3 212.15 14.35M215.85 10.3Q215.75 9.4 214.8 9.3 213.85 9.4 213.75 10.3 213.8 11.2 214.8 11.3 215.75 11.2 215.85 10.3M223.3 20.9L222.8 19.8Q222.3 20.2 221.6 20.2 220.3 20.15 220.3 18.75L220.3 14.15 222.7 14.15 222.7 12.9 220.3 12.9 220.3 11.05 218.75 11.05 218.75 12.9 217.3 12.9 217.3 14.15 218.75 14.15 218.75 18.85Q218.8 21.45 221.45 21.5 222.5 21.5 223.3 20.9M232.45 12.9L230.95 12.9 228.05 19.7 225.05 12.9 223.45 12.9 227.2 21.35 226.95 21.95Q226.35 23.35 225.35 23.25 224.45 23.25 223.8 22.65L223.15 23.8Q224 24.55 225.35 24.6 227.25 24.75 228.35 22.25L232.45 12.9M271.3 81.5L271.3 86.15Q270.2 84.8 268.35 84.8 264.35 85.05 264.05 89.15 264.35 93.25 268.35 93.45 270.3 93.45 271.35 92.05L271.35 93.4 272.85 93.4 272.85 81.5 271.3 81.5M268.45 92.15Q265.8 92 265.6 89.15 265.8 86.3 268.45 86.15 271.1 86.3 271.3 89.15 271.1 92 268.45 92.15M252 84.85Q249.9 84.85 248.5 85.95L249.15 87.1Q250.2 86.2 251.8 86.2 254.1 86.25 254.1 88.25L254.1 88.55 251.65 88.55Q248.05 88.75 248.25 91 248.35 93.35 251.4 93.5 253.4 93.5 254.15 92.3L254.15 93.4 255.65 93.4 255.65 88.3Q255.55 84.85 252 84.85M251.65 92.35Q249.85 92.25 249.75 90.95 249.6 89.75 251.7 89.65L254.1 89.65 254.1 90.8Q253.45 92.3 251.65 92.35M259.95 84.95L258.5 84.95 258.5 93.4 260.05 93.4 260.05 89.2Q260.15 86.35 262.7 86.3 262.9 86.3 263.05 86.35L263.05 84.85Q260.8 84.85 259.95 86.35L259.95 84.95M244.4 56.9L243.9 55.8Q243.4 56.2 242.7 56.2 241.4 56.15 241.4 54.75L241.4 50.15 243.8 50.15 243.8 48.9 241.4 48.9 241.4 47.05 239.85 47.05 239.85 48.9 238.4 48.9 238.4 50.15 239.85 50.15 239.85 54.85Q239.9 57.45 242.55 57.5 243.6 57.5 244.4 56.9Z"/><path fill="#50504F" stroke="none" d="M35.55 88.7Q35.541 88.801 35.5 88.9L63.45 88.9 63.45 88.7 35.55 88.7M35.5 88.5Q35.540 88.598 35.55 88.7L63.45 88.7 63.45 88.5 35.5 88.5M35.5 53.1Q35.540 53.198 35.55 53.3L63.45 53.3 63.45 53.1 35.5 53.1M35.55 53.3Q35.541 53.401 35.5 53.5L63.45 53.5 63.45 53.3 35.55 53.3M63.45 16.75L63.45 16.55 35.55 16.55Q35.541 16.651 35.5 16.75L63.45 16.75M63.45 16.55L63.45 16.35 35.5 16.35Q35.540 16.448 35.55 16.55L63.45 16.55Z"/><path fill="#31A52A" stroke="none" d="M35.5 88.5Q35.05 84.390 30.9 84 26.6 84.4 26.2 88.7 26.6 93 30.9 93.35 35.097 92.959 35.5 88.9 35.541 88.801 35.55 88.7 35.540 88.598 35.5 88.5M35.5 53.5Q35.541 53.401 35.55 53.3 35.540 53.198 35.5 53.1 35.05 48.990 30.9 48.6 26.6 49 26.2 53.3 26.6 57.6 30.9 57.95 35.097 57.559 35.5 53.5M35.5 16.75Q35.541 16.651 35.55 16.55 35.540 16.448 35.5 16.35 35.05 12.240 30.9 11.85 26.6 12.25 26.2 16.55 26.6 20.85 30.9 21.2 35.097 20.809 35.5 16.75Z"/><path id="Layer1_0_1_STROKES" stroke="#FACA0E" stroke-width="2" stroke-linejoin="round" stroke-linecap="round" fill="none" d="M35.525 16.75Q35.097 20.809 30.9 21.2 26.6 20.85 26.2 16.55 26.6 12.25 30.9 11.85 35.05 12.240 35.525 16.35 35.540 16.448 35.55 16.55L63.45 16.55M35.55 16.55Q35.541 16.651 35.525 16.75M35.525 53.5Q35.541 53.401 35.55 53.3L63.45 53.3M35.55 53.3Q35.540 53.198 35.525 53.1 35.05 48.990 30.9 48.6 26.6 49 26.2 53.3 26.6 57.6 30.9 57.95 35.097 57.559 35.525 53.5M35.525 88.9Q35.097 92.959 30.9 93.35 26.6 93 26.2 88.7 26.6 84.4 30.9 84 35.05 84.390 35.525 88.5M35.525 88.9Q35.541 88.801 35.55 88.7 35.540 88.598 35.525 88.5M35.55 88.7L63.45 88.7"/></g><animate attributeName="display" fill="freeze" repeatCount="1" dur="0.621s" keyTimes="0;.167;1" values="none;inline;inline"/></g></g></svg>