<?xml version="1.0" encoding="utf-8"?><svg id="11-IncreasedOpportunitiesForChannelPartners" image-rendering="auto" baseProfile="basic" version="1.1" x="0px" y="0px" width="1180" height="543" xmlns="http://www.w3.org/2000/svg" xmlns:xlink="http://www.w3.org/1999/xlink"><g id="Scene-1r1" overflow="visible"><g display="none" id="Layer49_0_FILL"><path fill="#404041" stroke="none" d="M428.6 527.6L428.6 526.25 427.05 526.25 427.05 533.7 428.6 533.7 428.6 529.7Q428.6 528.65 429.2 528.1 429.8 527.55 430.65 527.55 432.35 527.55 432.35 529.6L432.35 533.7 433.9 533.7 433.9 529.15Q433.9 527.7 433.15 526.9 432.35 526.15 431.1 526.15 430.35 526.15 429.65 526.55 429 526.95 428.6 527.6M439.05 526.15Q437.55 526.15 436.6 527.2 435.65 528.2 435.65 529.75 435.65 531.3 436.6 532.35 437.55 533.4 439.05 533.35 439.85 533.35 440.5 533 441.15 532.6 441.5 531.95L441.5 532.9Q441.5 534.15 440.85 534.7 440.2 535.3 439.1 535.3 437.95 535.3 436.9 534.45L436.15 535.65Q437.5 536.7 439.2 536.7 440.85 536.7 441.95 535.7 443 534.75 443 532.75L443 526.25 441.45 526.25 441.45 527.35Q440.5 526.15 439.05 526.15M437.75 531.3Q437.2 530.6 437.2 529.7 437.2 528.8 437.75 528.1 438.3 527.4 439.3 527.4 440.2 527.4 440.85 528.05 441.45 528.75 441.45 529.7 441.45 530.65 440.85 531.3 440.25 531.95 439.3 531.95 438.35 531.95 437.75 531.3M424.75 526.3L423.2 526.3 423.2 533.75 424.75 533.75 424.75 526.3M418.35 531.9L416.5 526.25 414.85 526.25 413 531.9 411.15 526.25 409.55 526.25 412.15 533.7 413.9 533.7 415.7 528.6 417.45 533.7 419.25 533.7 421.8 526.25 420.2 526.25 418.35 531.9M423.3 524.8Q423.6 525.1 424 525.1 424.4 525.1 424.7 524.8 425 524.5 425 524.1 425 523.7 424.7 523.4 424.4 523.1 424 523.1 423.6 523.1 423.3 523.4 423 523.7 423 524.1 423 524.5 423.3 524.8M478.45 526.9Q477.65 526.15 476.4 526.15 474.75 526.15 473.65 527.6 473 526.15 471.25 526.15 470.45 526.15 469.8 526.55 469.1 526.95 468.75 527.6L468.75 526.25 467.2 526.25 467.2 533.7 468.75 533.7 468.75 529.7Q468.75 528.65 469.35 528.1 469.95 527.55 470.8 527.55 471.6 527.55 471.95 528.05 472.35 528.55 472.35 529.6L472.35 533.7 473.9 533.7 473.9 529.55Q473.95 528.6 474.55 528.05 475.15 527.55 475.95 527.55 477.65 527.55 477.65 529.6L477.65 533.7 479.2 533.7 479.2 529.15Q479.2 527.7 478.45 526.9M450.65 529.7Q450.65 528.65 451.25 528.1 451.85 527.55 452.7 527.55 454.4 527.55 454.4 529.6L454.4 533.7 455.95 533.7 455.95 529.15Q455.95 527.7 455.2 526.9 454.4 526.15 453.15 526.15 452.4 526.15 451.7 526.55 451.05 526.95 450.65 527.6L450.65 526.25 449.1 526.25 449.1 533.7 450.65 533.7 450.65 529.7M464.9 526.25L463.35 526.25 463.35 530.3Q463.35 531.3 462.75 531.85 462.15 532.4 461.35 532.4 459.6 532.4 459.6 530.35L459.6 526.25 458.05 526.25 458.05 530.8Q458.05 532.25 458.85 533.05 459.6 533.8 460.85 533.8 461.65 533.8 462.3 533.4 462.95 533 463.35 532.35L463.35 533.7 464.9 533.7 464.9 526.25M348.8 532Q348.15 531.5 348.05 530.65L353.9 530.65 353.9 529.6Q353.9 528 352.85 527.05 351.8 526.15 350.25 526.15 348.75 526.15 347.6 527.2 346.5 528.2 346.5 530 346.5 531.75 347.6 532.8 348.7 533.85 350.25 533.8 352.2 533.8 353.4 532.6L352.5 531.6Q351.75 532.45 350.4 532.5 349.5 532.45 348.8 532M348.05 529.45Q348.05 528.55 348.75 528 349.45 527.5 350.3 527.5 351.15 527.5 351.75 528 352.35 528.5 352.35 529.45L348.05 529.45M361.4 523.9L359.85 523.9 359.85 526.25 358.9 526.25 358.9 527.5 359.85 527.5 359.85 531.25Q359.85 532.4 360.55 533.1 361.25 533.8 362.25 533.8 363.25 533.8 364.1 533.05L363.45 531.95Q363 532.45 362.45 532.45 361.95 532.45 361.7 532.15 361.4 531.8 361.4 531.3L361.4 527.5 363.35 527.5 363.35 526.25 361.4 526.25 361.4 523.9M332.2 526.25L329.95 531.9 327.65 526.25 326.05 526.25 329.05 533.7 330.85 533.7 333.85 526.25 332.2 526.25M339.95 529.95Q339.95 528.9 340.7 528.25 341.4 527.6 342.4 527.6 343.35 527.6 344.35 528.45L345.25 527.3Q344.1 526.15 342.4 526.15 340.75 526.15 339.55 527.2 338.4 528.3 338.4 530 338.4 531.7 339.5 532.75 340.65 533.85 342.2 533.8 343.95 533.8 345.35 532.45L344.4 531.45Q343.5 532.4 342.45 532.4 341.4 532.4 340.7 531.7 339.95 530.95 339.95 529.95M336.65 526.3L335.1 526.3 335.1 533.75 336.65 533.75 336.65 526.3M336.6 523.4Q336.3 523.1 335.9 523.1 335.5 523.1 335.2 523.4 334.9 523.7 334.9 524.1 334.9 524.5 335.2 524.8 335.5 525.1 335.9 525.1 336.3 525.1 336.6 524.8 336.9 524.5 336.9 524.1 336.9 523.7 336.6 523.4M389.8 526.15Q388.3 526.15 387.35 527.2 386.4 528.2 386.4 529.75 386.4 531.3 387.35 532.35 388.3 533.4 389.8 533.35 390.6 533.35 391.25 533 391.9 532.6 392.25 531.95L392.25 532.9Q392.25 534.15 391.6 534.7 390.95 535.3 389.85 535.3 388.7 535.3 387.65 534.45L386.9 535.65Q388.25 536.7 389.95 536.7 391.6 536.7 392.7 535.7 393.75 534.75 393.75 532.75L393.75 526.25 392.2 526.25 392.2 527.35Q391.25 526.15 389.8 526.15M387.95 529.7Q387.95 528.8 388.5 528.1 389.05 527.4 390.05 527.4 390.95 527.4 391.6 528.05 392.2 528.75 392.2 529.7 392.2 530.65 391.6 531.3 391 531.95 390.05 531.95 389.1 531.95 388.5 531.3 387.95 530.6 387.95 529.7M402.05 527.25Q400.95 528.35 400.95 530 400.95 531.6 402.05 532.7 403.2 533.85 404.85 533.8 406.55 533.8 407.65 532.7 408.8 531.6 408.8 530 408.8 528.4 407.65 527.25 406.55 526.15 404.85 526.15 403.2 526.15 402.05 527.25M403.2 528.25Q403.85 527.55 404.85 527.55 405.9 527.55 406.55 528.25 407.25 528.9 407.2 530 407.2 531.05 406.55 531.75 405.9 532.45 404.85 532.4 403.85 532.4 403.2 531.75 402.5 531.05 402.5 530 402.5 528.9 403.2 528.25M397.55 530.5Q397.55 529.25 398.15 528.5 398.75 527.75 399.9 527.75 399.95 527.75 400 527.75L400 526.15Q399.25 526.15 398.6 526.6 397.95 527.05 397.55 527.75L397.55 526.25 396 526.25 396 533.7 397.55 533.7 397.55 530.5M366.85 523.35L365.3 523.35 365.3 533.7 366.85 533.7 366.85 529.7Q366.85 528.65 367.45 528.1 368.05 527.55 368.9 527.6 370.6 527.55 370.6 529.65L370.6 533.7 372.15 533.7 372.15 529.15Q372.15 527.7 371.4 526.95 370.6 526.15 369.35 526.15 368.55 526.15 367.9 526.55 367.2 526.95 366.85 527.65L366.85 523.35M377.65 526.15Q376.15 526.15 375 527.2 373.9 528.2 373.9 530 373.9 531.75 375 532.8 376.1 533.85 377.65 533.8 379.6 533.8 380.8 532.6L379.9 531.6Q379.15 532.45 377.8 532.5 376.9 532.45 376.2 532 375.55 531.5 375.45 530.65L381.3 530.65 381.3 529.6Q381.3 528 380.25 527.05 379.2 526.15 377.65 526.15M375.45 529.45Q375.45 528.55 376.15 528 376.85 527.5 377.7 527.5 378.55 527.5 379.15 528 379.75 528.5 379.75 529.45L375.45 529.45M457.95 465.35L455.45 465.35 449.25 473.45 449.25 475.1 456.15 475.1 456.15 477.95 458.45 477.95 458.45 475.1 460.65 475.1 460.65 473.1 458.45 473.1 458.45 470.55 456.25 470.55 456.25 473.1 452.1 473.1 457.95 465.35M435.8 478.15Q440.7 478 441.1 471.7 440.7 465.35 435.8 465.2 430.95 465.35 430.55 471.7 430.95 478.05 435.8 478.15M438.7 471.7Q438.55 476.2 435.8 476.15 433.1 476.2 432.9 471.7 433.1 467.15 435.8 467.25 438.55 467.15 438.7 471.7M421.15 468.55Q422.2 467.2 424.1 467.25 426.4 467.3 426.45 469.05 426.65 470 425 471.65L420 476.4 420 478 429.3 478 429.3 476 423.35 476 426.7 472.8Q429.05 470.5 428.8 468.8 428.6 465.35 424.3 465.2 421.05 465.25 419.5 467.3L421.15 468.55M441.9 465.35L441.9 467.3 444.55 467.3 444.55 477.95 446.9 477.95 446.9 465.35 441.9 465.35M570.05 527.25Q568.95 528.35 568.95 530 568.95 531.6 570.05 532.7 571.2 533.85 572.85 533.8 574.55 533.8 575.65 532.7 576.8 531.6 576.8 530 576.8 528.4 575.65 527.25 574.55 526.15 572.85 526.15 571.2 526.15 570.05 527.25M570.5 530Q570.5 528.9 571.2 528.25 571.85 527.55 572.85 527.55 573.9 527.55 574.55 528.25 575.25 528.9 575.2 530 575.2 531.05 574.55 531.75 573.9 532.45 572.85 532.4 571.85 532.4 571.2 531.75 570.5 531.05 570.5 530M585.75 528.8Q585.4 528.65 585.4 528.3 585.4 527.9 585.75 527.65 586.1 527.45 586.65 527.45 587.75 527.45 588.65 528.05L589.25 526.9Q588.1 526.15 586.8 526.15 585.5 526.15 584.7 526.75 583.9 527.4 583.9 528.45 583.9 529.9 586.2 530.55 586.3 530.55 586.4 530.6 587.9 531.05 587.85 531.6 587.9 532 587.55 532.2 587.25 532.45 586.75 532.45 585.5 532.45 584.2 531.5L583.45 532.7Q584.1 533.25 585 533.55 585.85 533.85 586.7 533.8 587.9 533.8 588.65 533.2 589.4 532.55 589.45 531.5 589.45 530.4 588.65 529.9 588.3 529.65 587.95 529.5 587.65 529.4 587.3 529.25 586.95 529.15 586.5 529.05 586.05 528.95 585.75 528.8M581.15 526.6Q580.5 527.05 580.1 527.75L580.1 526.25 578.55 526.25 578.55 533.7 580.1 533.7 580.1 530.5Q580.1 529.25 580.7 528.5 581.3 527.75 582.45 527.75 582.5 527.75 582.55 527.75L582.55 526.15Q581.8 526.15 581.15 526.6M509.45 527.25Q508.35 528.35 508.35 530 508.35 531.6 509.45 532.7 510.6 533.85 512.25 533.8 513.95 533.8 515.05 532.7 516.2 531.6 516.2 530 516.2 528.4 515.05 527.25 513.95 526.15 512.25 526.15 510.6 526.15 509.45 527.25M509.9 530Q509.9 528.9 510.6 528.25 511.25 527.55 512.25 527.55 513.3 527.55 513.95 528.25 514.65 528.9 514.6 530 514.6 531.05 513.95 531.75 513.3 532.45 512.25 532.4 511.25 532.4 510.6 531.75 509.9 531.05 509.9 530M521.8 524.95L522.45 523.85Q521.6 523.1 520.6 523.1 519.6 523.1 518.9 523.8 518.2 524.5 518.2 525.65L518.2 526.25 517.25 526.25 517.25 527.5 518.2 527.5 518.2 533.7 519.75 533.7 519.75 527.5 521.7 527.5 521.7 526.25 519.75 526.25 519.75 525.6Q519.75 525.1 520.05 524.75 520.3 524.45 520.8 524.45 521.3 524.45 521.8 524.95M488.95 529.9Q488.95 528.2 487.9 527.15 486.85 526.1 485.35 526.15 483.85 526.15 482.9 527.55L482.9 523.3 481.35 523.3 481.35 533.7 482.9 533.7 482.9 532.55Q484.05 533.8 485.45 533.8 486.85 533.8 487.9 532.7 488.95 531.65 488.95 529.9M486.75 528.2Q487.4 528.9 487.4 530 487.4 531.05 486.7 531.75 486.05 532.4 485.1 532.4 484.15 532.4 483.55 531.7 482.9 531.05 482.9 530 482.9 528.9 483.55 528.2 484.2 527.5 485.1 527.5 486.05 527.5 486.75 528.2M501 526.25L499.45 526.25 499.45 533.7 501 533.7 501 530.5Q501 529.25 501.6 528.5 502.2 527.75 503.35 527.75 503.4 527.75 503.45 527.75L503.45 526.15Q502.7 526.15 502.05 526.6 501.4 527.05 501 527.75L501 526.25M497.7 529.6Q497.7 528 496.65 527.05 495.6 526.15 494.05 526.15 492.55 526.15 491.4 527.2 490.3 528.2 490.3 530 490.3 531.75 491.4 532.8 492.5 533.85 494.05 533.8 496 533.8 497.2 532.6L496.3 531.6Q495.55 532.45 494.2 532.5 493.3 532.45 492.6 532 491.95 531.5 491.85 530.65L497.7 530.65 497.7 529.6M492.55 528Q493.25 527.5 494.1 527.5 494.95 527.5 495.55 528 496.15 528.5 496.15 529.45L491.85 529.45Q491.85 528.55 492.55 528M548.5 527.2Q547.4 528.2 547.4 530 547.4 531.75 548.5 532.8 549.6 533.85 551.15 533.8 553.1 533.8 554.3 532.6L553.4 531.6Q552.65 532.45 551.3 532.5 550.4 532.45 549.7 532 549.05 531.5 548.95 530.65L554.8 530.65 554.8 529.6Q554.8 528 553.75 527.05 552.7 526.15 551.15 526.15 549.65 526.15 548.5 527.2M548.95 529.45Q548.95 528.55 549.65 528 550.35 527.5 551.2 527.5 552.05 527.5 552.65 528 553.25 528.5 553.25 529.45L548.95 529.45M561.05 528.05L561.65 526.9Q560.5 526.15 559.2 526.15 557.9 526.15 557.1 526.75 556.3 527.4 556.3 528.45 556.3 529.9 558.6 530.55 558.7 530.55 558.8 530.6 560.3 531.05 560.25 531.6 560.3 532 559.95 532.2 559.65 532.45 559.15 532.45 557.9 532.45 556.6 531.5L555.85 532.7Q556.5 533.25 557.4 533.55 558.25 533.85 559.1 533.8 560.3 533.8 561.05 533.2 561.8 532.55 561.85 531.5 561.85 530.4 561.05 529.9 560.7 529.65 560.35 529.5 560.05 529.4 559.7 529.25 559.35 529.15 558.9 529.05 558.45 528.95 558.15 528.8 557.8 528.65 557.8 528.3 557.8 527.9 558.15 527.65 558.5 527.45 559.05 527.45 560.15 527.45 561.05 528.05M565.55 523.9L564 523.9 564 526.25 563.05 526.25 563.05 527.5 564 527.5 564 531.25Q564 532.4 564.7 533.1 565.4 533.8 566.4 533.8 567.4 533.8 568.25 533.05L567.6 531.95Q567.15 532.45 566.6 532.45 566.1 532.45 565.85 532.15 565.55 531.8 565.55 531.3L565.55 527.5 567.5 527.5 567.5 526.25 565.55 526.25 565.55 523.9M528.65 526.3L527.1 526.3 527.1 533.75 528.65 533.75 528.65 526.3M527.9 523.1Q527.5 523.1 527.2 523.4 526.9 523.7 526.9 524.1 526.9 524.5 527.2 524.8 527.5 525.1 527.9 525.1 528.3 525.1 528.6 524.8 528.9 524.5 528.9 524.1 528.9 523.7 528.6 523.4 528.3 523.1 527.9 523.1M545 526.25L542.75 531.9 540.45 526.25 538.85 526.25 541.85 533.7 543.65 533.7 546.65 526.25 545 526.25M537.75 529.15Q537.75 527.7 537 526.9 536.2 526.15 534.95 526.15 534.2 526.15 533.5 526.55 532.85 526.95 532.45 527.6L532.45 526.25 530.9 526.25 530.9 533.7 532.45 533.7 532.45 529.7Q532.45 528.65 533.05 528.1 533.65 527.55 534.5 527.55 536.2 527.55 536.2 529.6L536.2 533.7 537.75 533.7 537.75 529.15M576.85 471.7Q577.25 478.05 582.1 478.15 587 478 587.4 471.7 587 465.35 582.1 465.2 577.25 465.35 576.85 471.7M582.1 476.15Q579.4 476.2 579.2 471.7 579.4 467.15 582.1 467.25 584.85 467.15 585 471.7 584.85 476.2 582.1 476.15M575.1 468.8Q574.9 465.35 570.6 465.2 567.35 465.25 565.8 467.3L567.45 468.55Q568.5 467.2 570.4 467.25 572.7 467.3 572.75 469.05 572.95 470 571.3 471.65L566.3 476.4 566.3 478 575.6 478 575.6 476 569.65 476 573 472.8Q575.35 470.5 575.1 468.8M604.15 467.3L604.15 465.35 596.75 465.35 596.1 472.2 599.15 472.2Q602.8 472.3 602.5 474.15 602.45 476.05 599.85 476.1 597.6 476.05 596.15 474.85L595.15 476.7Q597.05 478.1 599.9 478.15 604.9 477.75 604.85 474.1 605.05 470.5 599.65 470.25L598.45 470.25 598.7 467.3 604.15 467.3M593.2 465.35L588.2 465.35 588.2 467.3 590.85 467.3 590.85 477.95 593.2 477.95 593.2 465.35M112.3 529.15Q112.3 527.7 111.55 526.9 110.75 526.15 109.5 526.15 108.75 526.15 108.05 526.55 107.4 526.95 107 527.6L107 526.25 105.45 526.25 105.45 533.7 107 533.7 107 529.7Q107 528.65 107.6 528.1 108.2 527.55 109.05 527.55 110.75 527.55 110.75 529.6L110.75 533.7 112.3 533.7 112.3 529.15M116.05 527.6L116.05 526.25 114.5 526.25 114.5 533.7 116.05 533.7 116.05 529.7Q116.05 528.65 116.65 528.1 117.25 527.55 118.1 527.55 119.8 527.55 119.8 529.6L119.8 533.7 121.35 533.7 121.35 529.15Q121.35 527.7 120.6 526.9 119.8 526.15 118.55 526.15 117.8 526.15 117.1 526.55 116.45 526.95 116.05 527.6M97.2 527.25L97.9 528.2Q99 527.45 100.05 527.45 101.7 527.45 101.7 528.95L101.7 529.2 99.65 529.2Q98.3 529.2 97.45 529.75 96.65 530.3 96.65 531.4 96.65 532.5 97.4 533.15 98.15 533.85 99.35 533.8 100.9 533.85 101.8 532.7L101.8 533.7 103.25 533.7 103.25 528.9Q103.25 527.5 102.4 526.8 101.6 526.15 100.25 526.15 98.55 526.15 97.2 527.25M98.2 531.35Q98.2 530.3 99.9 530.3L101.7 530.3 101.7 530.95Q101.7 531.65 101.1 532.05 100.55 532.5 99.8 532.5 99.05 532.5 98.65 532.2 98.2 531.9 98.2 531.35M91.8 527.6Q93.5 527.55 93.5 529.65L93.5 533.7 95.05 533.7 95.05 529.15Q95.05 527.7 94.3 526.95 93.5 526.15 92.25 526.15 91.45 526.15 90.8 526.55 90.1 526.95 89.75 527.65L89.75 523.35 88.2 523.35 88.2 533.7 89.75 533.7 89.75 529.7Q89.75 528.65 90.35 528.1 90.95 527.55 91.8 527.6M159.05 527.75L159.05 526.25 157.5 526.25 157.5 533.7 159.05 533.7 159.05 530.5Q159.05 529.25 159.65 528.5 160.25 527.75 161.4 527.75 161.45 527.75 161.5 527.75L161.5 526.15Q160.75 526.15 160.1 526.6 159.45 527.05 159.05 527.75M154.5 526.8Q153.7 526.15 152.35 526.15 150.65 526.15 149.3 527.25L150 528.2Q151.1 527.45 152.15 527.45 153.8 527.45 153.8 528.95L153.8 529.2 151.75 529.2Q150.4 529.2 149.55 529.75 148.75 530.3 148.75 531.4 148.75 532.5 149.5 533.15 150.25 533.85 151.45 533.8 153 533.85 153.9 532.7L153.9 533.7 155.35 533.7 155.35 528.9Q155.35 527.5 154.5 526.8M153.8 530.95Q153.8 531.65 153.2 532.05 152.65 532.5 151.9 532.5 151.15 532.5 150.75 532.2 150.3 531.9 150.3 531.35 150.3 530.3 152 530.3L153.8 530.3 153.8 530.95M140.1 523.9L140.1 533.7 141.75 533.7 141.75 530.8 143.5 530.8Q145.65 530.8 146.7 530 147.7 529.15 147.75 527.4 147.75 525.6 146.7 524.75 145.7 523.9 143.45 523.9L140.1 523.9M143.45 525.4Q144.8 525.4 145.4 525.8 146.05 526.25 146.05 527.25 146.05 528.25 145.55 528.8 145.05 529.3 143.65 529.3L141.75 529.3 141.75 525.4 143.45 525.4M124.15 527.2Q123.05 528.2 123.05 530 123.05 531.75 124.15 532.8 125.25 533.85 126.8 533.8 128.75 533.8 129.95 532.6L129.05 531.6Q128.3 532.45 126.95 532.5 126.05 532.45 125.35 532 124.7 531.5 124.6 530.65L130.45 530.65 130.45 529.6Q130.45 528 129.4 527.05 128.35 526.15 126.8 526.15 125.3 526.15 124.15 527.2M124.6 529.45Q124.6 528.55 125.3 528 126 527.5 126.85 527.5 127.7 527.5 128.3 528 128.9 528.5 128.9 529.45L124.6 529.45M133.75 523.3L132.2 523.3 132.2 533.7 133.75 533.7 133.75 523.3M80.2 531.25Q79.25 530.2 79.2 528.75 79.2 527.25 80.25 526.3 81.25 525.35 82.7 525.3 83.55 525.3 84.2 525.6 84.8 525.85 85.5 526.55L86.55 525.4Q85.05 523.7 82.75 523.7 80.5 523.7 79 525.15 77.5 526.6 77.5 528.8 77.5 531 78.95 532.4 80.4 533.85 82.65 533.85 84.85 533.85 86.4 532.1L85.35 531Q84.7 531.65 84.05 531.95 83.45 532.2 82.6 532.25 81.25 532.2 80.2 531.25M72.3 530.65L72.3 529.6Q72.3 528 71.25 527.05 70.2 526.15 68.65 526.15 67.15 526.15 66 527.2 64.9 528.2 64.9 530 64.9 531.75 66 532.8 67.1 533.85 68.65 533.8 70.6 533.8 71.8 532.6L70.9 531.6Q70.15 532.45 68.8 532.5 67.9 532.45 67.2 532 66.55 531.5 66.45 530.65L72.3 530.65M70.15 528Q70.75 528.5 70.75 529.45L66.45 529.45Q66.45 528.55 67.15 528 67.85 527.5 68.7 527.5 69.55 527.5 70.15 528M59.85 526.25L59.85 533.7 61.4 533.7 61.4 530.5Q61.4 529.25 62 528.5 62.6 527.75 63.75 527.75 63.8 527.75 63.85 527.75L63.85 526.15Q63.1 526.15 62.45 526.6 61.8 527.05 61.4 527.75L61.4 526.25 59.85 526.25M45.7 523.9L42.75 530.05 39.8 523.9 37.2 523.9 37.2 533.7 38.85 533.7 38.85 526.05 42.25 532.85 43.2 532.85 46.6 526.05 46.6 533.7 48.25 533.7 48.25 523.9 45.7 523.9M54.1 526.15Q52.45 526.15 51.3 527.25 50.2 528.35 50.2 530 50.2 531.6 51.3 532.7 52.45 533.85 54.1 533.8 55.8 533.8 56.9 532.7 58.05 531.6 58.05 530 58.05 528.4 56.9 527.25 55.8 526.15 54.1 526.15M52.45 531.75Q51.75 531.05 51.75 530 51.75 528.9 52.45 528.25 53.1 527.55 54.1 527.55 55.15 527.55 55.8 528.25 56.5 528.9 56.45 530 56.45 531.05 55.8 531.75 55.15 532.45 54.1 532.4 53.1 532.4 52.45 531.75M150.2 478.15Q155.1 478 155.5 471.7 155.1 465.35 150.2 465.2 145.35 465.35 144.95 471.7 145.35 478.05 150.2 478.15M150.2 476.15Q147.5 476.2 147.3 471.7 147.5 467.15 150.2 467.25 152.95 467.15 153.1 471.7 152.95 476.2 150.2 476.15M135.55 468.55Q136.6 467.2 138.5 467.25 140.8 467.3 140.85 469.05 141.05 470 139.4 471.65L134.4 476.4 134.4 478 143.7 478 143.7 476 137.75 476 141.1 472.8Q143.45 470.5 143.2 468.8 143 465.35 138.7 465.2 135.45 465.25 133.9 467.3L135.55 468.55M161.3 465.35L156.3 465.35 156.3 467.3 158.95 467.3 158.95 477.95 161.3 477.95 161.3 465.35M266.95 532Q266.3 531.5 266.2 530.65L272.05 530.65 272.05 529.6Q272.05 528 271 527.05 269.95 526.15 268.4 526.15 266.9 526.15 265.75 527.2 264.65 528.2 264.65 530 264.65 531.75 265.75 532.8 266.85 533.85 268.4 533.8 270.35 533.8 271.55 532.6L270.65 531.6Q269.9 532.45 268.55 532.5 267.65 532.45 266.95 532M266.2 529.45Q266.2 528.55 266.9 528 267.6 527.5 268.45 527.5 269.3 527.5 269.9 528 270.5 528.5 270.5 529.45L266.2 529.45M280.9 523.3L279.35 523.3 279.35 527.4Q278.45 526.1 276.95 526.15 275.45 526.15 274.4 527.15 273.3 528.2 273.3 529.95 273.3 531.65 274.35 532.75 275.4 533.8 276.8 533.8 278.5 533.8 279.35 532.55L279.35 533.7 280.9 533.7 280.9 523.3M275.55 528.2Q276.2 527.5 277.15 527.5 278.1 527.5 278.75 528.2 279.35 528.95 279.4 530 279.35 531.05 278.75 531.75 278.1 532.4 277.15 532.4 276.25 532.4 275.55 531.75 274.85 531.05 274.85 530 274.85 528.95 275.55 528.2M254 530.65L254 529.6Q254 528 252.95 527.05 251.9 526.15 250.35 526.15 248.85 526.15 247.7 527.2 246.6 528.2 246.6 530 246.6 531.75 247.7 532.8 248.8 533.85 250.35 533.8 252.3 533.8 253.5 532.6L252.6 531.6Q251.85 532.45 250.5 532.5 249.6 532.45 248.9 532 248.25 531.5 248.15 530.65L254 530.65M250.4 527.5Q251.25 527.5 251.85 528 252.45 528.5 252.45 529.45L248.15 529.45Q248.15 528.55 248.85 528 249.55 527.5 250.4 527.5M262.85 523.3L261.3 523.3 261.3 527.4Q260.4 526.1 258.9 526.15 257.4 526.15 256.35 527.15 255.25 528.2 255.25 529.95 255.25 531.65 256.3 532.75 257.35 533.8 258.75 533.8 260.45 533.8 261.3 532.55L261.3 533.7 262.85 533.7 262.85 523.3M256.8 530Q256.8 528.95 257.5 528.2 258.15 527.5 259.1 527.5 260.05 527.5 260.7 528.2 261.3 528.95 261.35 530 261.3 531.05 260.7 531.75 260.05 532.4 259.1 532.4 258.2 532.4 257.5 531.75 256.8 531.05 256.8 530M308.45 526.15Q307.15 526.15 306.35 526.75 305.55 527.4 305.55 528.45 305.55 529.9 307.85 530.55 307.95 530.55 308.05 530.6 309.55 531.05 309.5 531.6 309.55 532 309.2 532.2 308.9 532.45 308.4 532.45 307.15 532.45 305.85 531.5L305.1 532.7Q305.75 533.25 306.65 533.55 307.5 533.85 308.35 533.8 309.55 533.8 310.3 533.2 311.05 532.55 311.1 531.5 311.1 530.4 310.3 529.9 309.95 529.65 309.6 529.5 309.3 529.4 308.95 529.25 308.6 529.15 308.15 529.05 307.7 528.95 307.4 528.8 307.05 528.65 307.05 528.3 307.05 527.9 307.4 527.65 307.75 527.45 308.3 527.45 309.4 527.45 310.3 528.05L310.9 526.9Q309.75 526.15 308.45 526.15M323.05 527.75L323.05 526.25 321.5 526.25 321.5 533.7 323.05 533.7 323.05 530.5Q323.05 529.25 323.65 528.5 324.25 527.75 325.4 527.75 325.45 527.75 325.5 527.75L325.5 526.15Q324.75 526.15 324.1 526.6 323.45 527.05 323.05 527.75M314.7 532Q314.05 531.5 313.95 530.65L319.8 530.65 319.8 529.6Q319.8 528 318.75 527.05 317.7 526.15 316.15 526.15 314.65 526.15 313.5 527.2 312.4 528.2 312.4 530 312.4 531.75 313.5 532.8 314.6 533.85 316.15 533.8 318.1 533.8 319.3 532.6L318.4 531.6Q317.65 532.45 316.3 532.5 315.4 532.45 314.7 532M313.95 529.45Q313.95 528.55 314.65 528 315.35 527.5 316.2 527.5 317.05 527.5 317.65 528 318.25 528.5 318.25 529.45L313.95 529.45M287.4 526.25L286.45 526.25 286.45 527.5 287.4 527.5 287.4 531.25Q287.4 532.4 288.1 533.1 288.8 533.8 289.8 533.8 290.8 533.8 291.65 533.05L291 531.95Q290.55 532.45 290 532.45 289.5 532.45 289.25 532.15 288.95 531.8 288.95 531.3L288.95 527.5 290.9 527.5 290.9 526.25 288.95 526.25 288.95 523.9 287.4 523.9 287.4 526.25M299 527.25Q297.9 526.15 296.2 526.15 294.55 526.15 293.4 527.25 292.3 528.35 292.3 530 292.3 531.6 293.4 532.7 294.55 533.85 296.2 533.8 297.9 533.8 299 532.7 300.15 531.6 300.15 530 300.15 528.4 299 527.25M298.55 530Q298.55 531.05 297.9 531.75 297.25 532.45 296.2 532.4 295.2 532.4 294.55 531.75 293.85 531.05 293.85 530 293.85 528.9 294.55 528.25 295.2 527.55 296.2 527.55 297.25 527.55 297.9 528.25 298.6 528.9 298.55 530M190.5 527.75Q190.55 527.75 190.6 527.75L190.6 526.15Q189.85 526.15 189.2 526.6 188.55 527.05 188.15 527.75L188.15 526.25 186.6 526.25 186.6 533.7 188.15 533.7 188.15 530.5Q188.15 529.25 188.75 528.5 189.35 527.75 190.5 527.75M196.7 528.05L197.3 526.9Q196.15 526.15 194.85 526.15 193.55 526.15 192.75 526.75 191.95 527.4 191.95 528.45 191.95 529.9 194.25 530.55 194.35 530.55 194.45 530.6 195.95 531.05 195.9 531.6 195.95 532 195.6 532.2 195.3 532.45 194.8 532.45 193.55 532.45 192.25 531.5L191.5 532.7Q192.15 533.25 193.05 533.55 193.9 533.85 194.75 533.8 195.95 533.8 196.7 533.2 197.45 532.55 197.5 531.5 197.5 530.4 196.7 529.9 196.35 529.65 196 529.5 195.7 529.4 195.35 529.25 195 529.15 194.55 529.05 194.1 528.95 193.8 528.8 193.45 528.65 193.45 528.3 193.45 527.9 193.8 527.65 194.15 527.45 194.7 527.45 195.8 527.45 196.7 528.05M165 523.9L163.45 523.9 163.45 526.25 162.5 526.25 162.5 527.5 163.45 527.5 163.45 531.25Q163.45 532.4 164.15 533.1 164.85 533.8 165.85 533.8 166.85 533.8 167.7 533.05L167.05 531.95Q166.6 532.45 166.05 532.45 165.55 532.45 165.3 532.15 165 531.8 165 531.3L165 527.5 166.95 527.5 166.95 526.25 165 526.25 165 523.9M179.8 532Q179.15 531.5 179.05 530.65L184.9 530.65 184.9 529.6Q184.9 528 183.85 527.05 182.8 526.15 181.25 526.15 179.75 526.15 178.6 527.2 177.5 528.2 177.5 530 177.5 531.75 178.6 532.8 179.7 533.85 181.25 533.8 183.2 533.8 184.4 532.6L183.5 531.6Q182.75 532.45 181.4 532.5 180.5 532.45 179.8 532M179.05 529.45Q179.05 528.55 179.75 528 180.45 527.5 181.3 527.5 182.15 527.5 182.75 528 183.35 528.5 183.35 529.45L179.05 529.45M172.55 527.55Q174.25 527.55 174.25 529.6L174.25 533.7 175.8 533.7 175.8 529.15Q175.8 527.7 175.05 526.9 174.25 526.15 173 526.15 172.25 526.15 171.55 526.55 170.9 526.95 170.5 527.6L170.5 526.25 168.95 526.25 168.95 533.7 170.5 533.7 170.5 529.7Q170.5 528.65 171.1 528.1 171.7 527.55 172.55 527.55M240.25 532Q239.6 531.5 239.5 530.65L245.35 530.65 245.35 529.6Q245.35 528 244.3 527.05 243.25 526.15 241.7 526.15 240.2 526.15 239.05 527.2 237.95 528.2 237.95 530 237.95 531.75 239.05 532.8 240.15 533.85 241.7 533.8 243.65 533.8 244.85 532.6L243.95 531.6Q243.2 532.45 241.85 532.5 240.95 532.45 240.25 532M240.2 528Q240.9 527.5 241.75 527.5 242.6 527.5 243.2 528 243.8 528.5 243.8 529.45L239.5 529.45Q239.5 528.55 240.2 528M235.45 526.9Q234.65 526.15 233.4 526.15 232.65 526.15 231.95 526.55 231.3 526.95 230.9 527.6L230.9 526.25 229.35 526.25 229.35 533.7 230.9 533.7 230.9 529.7Q230.9 528.65 231.5 528.1 232.1 527.55 232.95 527.55 234.65 527.55 234.65 529.6L234.65 533.7 236.2 533.7 236.2 529.15Q236.2 527.7 235.45 526.9M206.15 526.15Q204.45 526.15 203.1 527.25L203.8 528.2Q204.9 527.45 205.95 527.45 207.6 527.45 207.6 528.95L207.6 529.2 205.55 529.2Q204.2 529.2 203.35 529.75 202.55 530.3 202.55 531.4 202.55 532.5 203.3 533.15 204.05 533.85 205.25 533.8 206.8 533.85 207.7 532.7L207.7 533.7 209.15 533.7 209.15 528.9Q209.15 527.5 208.3 526.8 207.5 526.15 206.15 526.15M204.1 531.35Q204.1 530.3 205.8 530.3L207.6 530.3 207.6 530.95Q207.6 531.65 207 532.05 206.45 532.5 205.7 532.5 204.95 532.5 204.55 532.2 204.1 531.9 204.1 531.35M217.5 527.2Q216.4 528.2 216.4 530 216.4 531.75 217.5 532.8 218.6 533.85 220.15 533.8 222.1 533.8 223.3 532.6L222.4 531.6Q221.65 532.45 220.3 532.5 219.4 532.45 218.7 532 218.05 531.5 217.95 530.65L223.8 530.65 223.8 529.6Q223.8 528 222.75 527.05 221.7 526.15 220.15 526.15 218.65 526.15 217.5 527.2M220.2 527.5Q221.05 527.5 221.65 528 222.25 528.5 222.25 529.45L217.95 529.45Q217.95 528.55 218.65 528 219.35 527.5 220.2 527.5M212.85 530.5Q212.85 529.25 213.45 528.5 214.05 527.75 215.2 527.75 215.25 527.75 215.3 527.75L215.3 526.15Q214.55 526.15 213.9 526.6 213.25 527.05 212.85 527.75L212.85 526.25 211.3 526.25 211.3 533.7 212.85 533.7 212.85 530.5M169.1 465.2Q164.25 465.35 163.85 471.7 164.25 478.05 169.1 478.15 174 478 174.4 471.7 174 465.35 169.1 465.2M169.1 467.25Q171.85 467.15 172 471.7 171.85 476.2 169.1 476.15 166.4 476.2 166.2 471.7 166.4 467.15 169.1 467.25M288.5 478.15Q293.4 478 293.8 471.7 293.4 465.35 288.5 465.2 283.65 465.35 283.25 471.7 283.65 478.05 288.5 478.15M291.4 471.7Q291.25 476.2 288.5 476.15 285.8 476.2 285.6 471.7 285.8 467.15 288.5 467.25 291.25 467.15 291.4 471.7M299.6 465.35L294.6 465.35 294.6 467.3 297.25 467.3 297.25 477.95 299.6 477.95 299.6 465.35M310.55 466.9L310.55 465.35 301.95 465.35 301.95 467.3 307.7 467.3 304.85 470.7 304.85 472.3 306 472.3Q308.8 472.4 308.7 474.2 308.65 476 306.05 476.1 303.8 476.05 302.35 474.85L301.35 476.7Q303.25 478.1 306.1 478.15 311.1 477.75 311.05 474.15 311.05 471.2 307.5 470.55L310.55 466.9M273.85 468.55Q274.9 467.2 276.8 467.25 279.1 467.3 279.15 469.05 279.35 470 277.7 471.65L272.7 476.4 272.7 478 282 478 282 476 276.05 476 279.4 472.8Q281.75 470.5 281.5 468.8 281.3 465.35 277 465.2 273.75 465.25 272.2 467.3L273.85 468.55M1041.6 478.15Q1046.5 478 1046.9 471.7 1046.5 465.35 1041.6 465.2 1036.75 465.35 1036.35 471.7 1036.75 478.05 1041.6 478.15M1041.6 476.15Q1038.9 476.2 1038.7 471.7 1038.9 467.15 1041.6 467.25 1044.35 467.15 1044.5 471.7 1044.35 476.2 1041.6 476.15M1013.9 471.7Q1014.3 478.05 1019.15 478.15 1024.05 478 1024.45 471.7 1024.05 465.35 1019.15 465.2 1014.3 465.35 1013.9 471.7M1022.05 471.7Q1021.9 476.2 1019.15 476.15 1016.45 476.2 1016.25 471.7 1016.45 467.15 1019.15 467.25 1021.9 467.15 1022.05 471.7M1026.9 468.55Q1027.95 467.2 1029.85 467.25 1032.15 467.3 1032.2 469.05 1032.4 470 1030.75 471.65L1025.75 476.4 1025.75 478 1035.05 478 1035.05 476 1029.1 476 1032.45 472.8Q1034.8 470.5 1034.55 468.8 1034.35 465.35 1030.05 465.2 1026.8 465.25 1025.25 467.3L1026.9 468.55M1004.5 468.55Q1005.55 467.2 1007.45 467.25 1009.75 467.3 1009.8 469.05 1010 470 1008.35 471.65L1003.35 476.4 1003.35 478 1012.65 478 1012.65 476 1006.7 476 1010.05 472.8Q1012.4 470.5 1012.15 468.8 1011.95 465.35 1007.65 465.2 1004.4 465.25 1002.85 467.3L1004.5 468.55M722.15 471.7Q722.55 478.05 727.4 478.15 732.3 478 732.7 471.7 732.3 465.35 727.4 465.2 722.55 465.35 722.15 471.7M727.4 476.15Q724.7 476.2 724.5 471.7 724.7 467.15 727.4 467.25 730.15 467.15 730.3 471.7 730.15 476.2 727.4 476.15M712.75 468.55Q713.8 467.2 715.7 467.25 718 467.3 718.05 469.05 718.25 470 716.6 471.65L711.6 476.4 711.6 478 720.9 478 720.9 476 714.95 476 718.3 472.8Q720.65 470.5 720.4 468.8 720.2 465.35 715.9 465.2 712.65 465.25 711.1 467.3L712.75 468.55M738.5 465.35L733.5 465.35 733.5 467.3 736.15 467.3 736.15 477.95 738.5 477.95 738.5 465.35M746.1 465.2Q741.65 465.35 741.4 468.7 741.45 470.5 742.95 471.35 741 472.25 740.95 474.35 741.15 478 746.1 478.15 751 478 751.25 474.35 751.2 472.25 749.2 471.35 750.75 470.5 750.8 468.7 750.55 465.35 746.1 465.2M743.7 468.8Q743.8 467.05 746.1 467.05 748.35 467.1 748.5 468.8 748.4 470.5 746.1 470.6 743.8 470.5 743.7 468.8M748.9 474.3Q748.8 476.25 746.1 476.35 743.4 476.25 743.3 474.3 743.4 472.35 746.1 472.3 748.8 472.35 748.9 474.3M873.7 478.15Q878.6 478 879 471.7 878.6 465.35 873.7 465.2 868.85 465.35 868.45 471.7 868.85 478.05 873.7 478.15M873.7 476.15Q871 476.2 870.8 471.7 871 467.15 873.7 467.25 876.45 467.15 876.6 471.7 876.45 476.2 873.7 476.15M857.4 467.3L859.05 468.55Q860.1 467.2 862 467.25 864.3 467.3 864.35 469.05 864.55 470 862.9 471.65L857.9 476.4 857.9 478 867.2 478 867.2 476 861.25 476 864.6 472.8Q866.95 470.5 866.7 468.8 866.5 465.35 862.2 465.2 858.95 465.25 857.4 467.3M884.8 465.35L879.8 465.35 879.8 467.3 882.45 467.3 882.45 477.95 884.8 477.95 884.8 465.35M897 471.45Q896.85 465.3 891.55 465.2 887.3 465.35 886.95 469.3 887.25 473 891.3 473.15 893.45 473.15 894.65 471.85 894.5 476.2 890.8 476.2 889.45 476.25 888.4 475.6L887.55 477.35Q888.85 478.15 890.85 478.15 896.65 478.05 897 471.45M894.3 469.15Q894.15 471.2 891.75 471.3 889.35 471.25 889.2 469.2 889.35 467.1 891.7 467.05 894.25 467.2 894.3 469.15Z"/><path fill="#000" stroke="none" d="M902.85 500.35L904.4 499.45Q903.3 497.45 900.75 497.45 896.4 497.7 896.1 501.8 896.4 505.95 900.75 506.2 903.3 506.15 904.4 504.2L902.85 503.3Q902.05 504.5 900.7 504.5 898.3 504.4 898.1 501.8 898.3 499.25 900.7 499.15 902 499.1 902.85 500.35M908.45 497.6L908.45 495.65 906.45 495.65 906.45 497.6 905.05 497.6 905.05 499.2 906.45 499.2 906.45 503.3Q906.55 506.15 909.4 506.2 910.55 506.2 911.3 505.6L910.75 504.2Q910.3 504.55 909.65 504.55 908.5 504.55 908.45 503.25L908.45 499.2 910.75 499.2 910.75 497.6 908.45 497.6M919.1 503.6Q918.2 504.5 916.75 504.5 914.45 504.4 914 502.45L920.7 502.45Q920.75 502.15 920.75 501.85 920.45 497.65 916.4 497.45 912.3 497.75 912 501.8 912.2 505.9 916.7 506.2 918.95 506.2 920.15 504.8L919.1 503.6M916.4 499.05Q918.5 499.15 918.85 501.15L914 501.15Q914.4 499.15 916.4 499.05M867.15 498.8L867.15 497.55 865.25 497.55 865.25 506.1 867.25 506.1 867.25 501.95Q867.35 499.3 869.75 499.3 869.95 499.3 870.2 499.35L870.2 497.45Q868.05 497.45 867.15 498.8M871.1 501.8Q871.4 505.95 875.65 506.2 879.9 505.95 880.2 501.8 879.9 497.7 875.65 497.45 871.4 497.7 871.1 501.8M878.2 501.8Q878 504.4 875.65 504.5 873.3 504.4 873.1 501.8 873.3 499.25 875.65 499.15 878 499.25 878.2 501.8M884.2 506.25L884.2 497.55 882.2 497.55 882.2 506.3Q882.15 507.65 881.05 507.7 880.35 507.65 879.9 507.35L879.3 508.85Q880.05 509.35 881.2 509.35 884.15 509.2 884.2 506.25M890.55 497.45Q886.45 497.75 886.15 501.8 886.35 505.9 890.85 506.2 893.1 506.2 894.3 504.8L893.25 503.6Q892.35 504.5 890.9 504.5 888.6 504.4 888.15 502.45L894.85 502.45Q894.9 502.15 894.9 501.85 894.6 497.65 890.55 497.45M888.15 501.15Q888.55 499.15 890.55 499.05 892.65 499.15 893 501.15L888.15 501.15M884.45 494.9Q884.4 493.85 883.2 493.75 882 493.85 881.9 494.95 882 496.05 883.2 496.15 884.4 496.05 884.45 494.9M858.65 494.9L854.05 494.9 854.05 506.1 856.15 506.1 856.15 502.85 858.65 502.85Q863.25 502.7 863.45 498.9 863.25 495.05 858.65 494.9M856.15 501.1L856.15 496.65 858.55 496.65Q861.3 496.7 861.35 498.9 861.3 501.05 858.55 501.1L856.15 501.1M931.05 494.25L929 494.25 929 498.65Q928 497.45 926.25 497.5 922.25 497.7 921.95 501.85 922.25 506.05 926.25 506.25 928.05 506.25 929.1 505L929.1 506.15 931.05 506.15 931.05 494.25M929.05 501.85Q928.85 504.4 926.5 504.55 924.15 504.4 923.95 501.85 924.15 499.3 926.5 499.2 928.85 499.3 929.05 501.85Z"/><path id="Layer49_0_1_STROKES" stroke="#999" stroke-width="1" stroke-linejoin="round" stroke-linecap="round" fill="none" d="M711.25 497.3L711.25 501.1 711.25 505.1M151.85 498.1L151.85 506.1M153.65 501.1L711.25 501.1"/><path id="Layer49_0_2_STROKES" stroke="#F4CC00" stroke-width="1" stroke-linejoin="round" stroke-linecap="round" fill="none" d="M743.95 497.1L743.95 505.1M744.55 501.1L834.3 501.1M1072.2 497.3L1072.2 505.1M953.25 501.1L1071.9 501.1"/><animate attributeName="display" fill="freeze" repeatCount="1" dur="1.172s" keyTimes="0;.147;1" values="none;inline;inline"/></g><g display="none"><g id="Symbol-80" transform="translate(973.1 523.3)"><path fill="#404041" stroke="none" d="M5.2 2.2Q5.95 2.45 6.4 2.8L7.3 1.6Q6.6 1 5.7 .7 4.75 .4 3.8 .4 2.35 .4 1.4 1.15 .4 1.85 .4 3.25 .4 4.6 1.25 5.25 1.7 5.6 2.25 5.8 2.8 6.05 3.9 6.3 4.95 6.55 5.4 6.85 5.85 7.2 5.85 7.75 5.85 8.3 5.4 8.65 4.9 9 4.1 9 2.5 9 1.05 7.7L0 8.95Q1.8 10.55 4.05 10.55 5.65 10.55 6.6 9.75 7.6 8.95 7.55 7.65 7.6 6.4 6.8 5.7 6.05 5.05 4.55 4.7 3.05 4.35 2.6 4 2.1 3.7 2.1 3.1 2.1 2.5 2.6 2.2 3.05 1.9 3.75 1.95 4.5 1.9 5.2 2.2M15.6 9.4Q16.75 8.3 16.75 6.7 16.75 5.1 15.6 3.95 14.5 2.85 12.8 2.85 11.15 2.85 10 3.95 8.9 5.05 8.9 6.7 8.9 8.3 10 9.4 11.15 10.55 12.8 10.5 14.5 10.5 15.6 9.4M12.8 4.25Q13.85 4.25 14.5 4.95 15.2 5.6 15.15 6.7 15.15 7.75 14.5 8.45 13.85 9.15 12.8 9.1 11.8 9.1 11.15 8.45 10.45 7.75 10.45 6.7 10.45 5.6 11.15 4.95 11.8 4.25 12.8 4.25M25.3 2.95L23.75 2.95 23.75 7Q23.75 8 23.15 8.55 22.55 9.1 21.75 9.1 20 9.1 20 7.05L20 2.95 18.45 2.95 18.45 7.5Q18.45 8.95 19.25 9.75 20 10.5 21.25 10.5 22.05 10.5 22.7 10.1 23.35 9.7 23.75 9.05L23.75 10.4 25.3 10.4 25.3 2.95M31.45 4.45Q31.5 4.45 31.55 4.45L31.55 2.85Q30.8 2.85 30.15 3.3 29.5 3.75 29.1 4.45L29.1 2.95 27.55 2.95 27.55 10.4 29.1 10.4 29.1 7.2Q29.1 5.95 29.7 5.2 30.3 4.45 31.45 4.45M38.55 5.15L39.45 4Q38.3 2.85 36.6 2.85 34.95 2.85 33.75 3.9 32.6 5 32.6 6.7 32.6 8.4 33.7 9.45 34.85 10.55 36.4 10.5 38.15 10.5 39.55 9.15L38.6 8.15Q37.7 9.1 36.65 9.1 35.6 9.1 34.9 8.4 34.15 7.65 34.15 6.65 34.15 5.6 34.9 4.95 35.6 4.3 36.6 4.3 37.55 4.3 38.55 5.15M44.45 2.85Q42.95 2.85 41.8 3.9 40.7 4.9 40.7 6.7 40.7 8.45 41.8 9.5 42.9 10.55 44.45 10.5 46.4 10.5 47.6 9.3L46.7 8.3Q45.95 9.15 44.6 9.2 43.7 9.15 43 8.7 42.35 8.2 42.25 7.35L48.1 7.35 48.1 6.3Q48.1 4.7 47.05 3.75 46 2.85 44.45 2.85M45.95 4.7Q46.55 5.2 46.55 6.15L42.25 6.15Q42.25 5.25 42.95 4.7 43.65 4.2 44.5 4.2 45.35 4.2 45.95 4.7M51.5 8.75Q51.15 8.45 50.75 8.45 50.3 8.45 50 8.75 49.7 9.05 49.7 9.45 49.7 9.9 50 10.2 50.3 10.5 50.75 10.5 51.15 10.5 51.5 10.2 51.8 9.9 51.8 9.45 51.8 9.05 51.5 8.75M51.5 5.3Q51.15 5 50.75 5 50.3 5 50 5.3 49.7 5.6 49.7 6.05 49.7 6.45 50 6.8 50.3 7.1 50.75 7.1 51.15 7.1 51.5 6.8 51.8 6.45 51.8 6.05 51.8 5.6 51.5 5.3M59.65 .6L58 .6 58 10.4 59.65 10.4 59.65 .6M68.9 5.85Q68.9 4.4 68.15 3.6 67.35 2.85 66.1 2.85 65.35 2.85 64.65 3.25 64 3.65 63.6 4.3L63.6 2.95 62.05 2.95 62.05 10.4 63.6 10.4 63.6 6.4Q63.6 5.35 64.2 4.8 64.8 4.25 65.65 4.25 67.35 4.25 67.35 6.3L67.35 10.4 68.9 10.4 68.9 5.85M72.95 2.95L72.95 .6 71.4 .6 71.4 2.95 70.45 2.95 70.45 4.2 71.4 4.2 71.4 7.95Q71.4 9.1 72.1 9.8 72.8 10.5 73.8 10.5 74.8 10.5 75.65 9.75L75 8.65Q74.55 9.15 74 9.15 73.5 9.15 73.25 8.85 72.95 8.5 72.95 8L72.95 4.2 74.9 4.2 74.9 2.95 72.95 2.95M83.8 7.35L83.8 6.3Q83.8 4.7 82.75 3.75 81.7 2.85 80.15 2.85 78.65 2.85 77.5 3.9 76.4 4.9 76.4 6.7 76.4 8.45 77.5 9.5 78.6 10.55 80.15 10.5 82.1 10.5 83.3 9.3L82.4 8.3Q81.65 9.15 80.3 9.2 79.4 9.15 78.7 8.7 78.05 8.2 77.95 7.35L83.8 7.35M81.65 4.7Q82.25 5.2 82.25 6.15L77.95 6.15Q77.95 5.25 78.65 4.7 79.35 4.2 80.2 4.2 81.05 4.2 81.65 4.7M89.4 4.45Q89.45 4.45 89.5 4.45L89.5 2.85Q88.75 2.85 88.1 3.3 87.45 3.75 87.05 4.45L87.05 2.95 85.5 2.95 85.5 10.4 87.05 10.4 87.05 7.2Q87.05 5.95 87.65 5.2 88.25 4.45 89.4 4.45M97.9 5.85Q97.9 4.4 97.15 3.6 96.35 2.85 95.1 2.85 94.35 2.85 93.65 3.25 93 3.65 92.6 4.3L92.6 2.95 91.05 2.95 91.05 10.4 92.6 10.4 92.6 6.4Q92.6 5.35 93.2 4.8 93.8 4.25 94.65 4.25 96.35 4.25 96.35 6.3L96.35 10.4 97.9 10.4 97.9 5.85M106.15 5.6Q106.15 4.2 105.3 3.5 104.5 2.85 103.15 2.85 101.45 2.85 100.1 3.95L100.8 4.9Q101.9 4.15 102.95 4.15 104.6 4.15 104.6 5.65L104.6 5.9 102.55 5.9Q101.2 5.9 100.35 6.45 99.55 7 99.55 8.1 99.55 9.2 100.3 9.85 101.05 10.55 102.25 10.5 103.8 10.55 104.7 9.4L104.7 10.4 106.15 10.4 106.15 5.6M102.7 9.2Q101.95 9.2 101.55 8.9 101.1 8.6 101.1 8.05 101.1 7 102.8 7L104.6 7 104.6 7.65Q104.6 8.35 104 8.75 103.45 9.2 102.7 9.2M109.9 0L108.35 0 108.35 10.4 109.9 10.4 109.9 0M119.9 4.45Q119.95 4.45 120 4.45L120 2.85Q119.25 2.85 118.6 3.3 117.95 3.75 117.55 4.45L117.55 2.95 116 2.95 116 10.4 117.55 10.4 117.55 7.2Q117.55 5.95 118.15 5.2 118.75 4.45 119.9 4.45M124.85 2.85Q123.35 2.85 122.2 3.9 121.1 4.9 121.1 6.7 121.1 8.45 122.2 9.5 123.3 10.55 124.85 10.5 126.8 10.5 128 9.3L127.1 8.3Q126.35 9.15 125 9.2 124.1 9.15 123.4 8.7 122.75 8.2 122.65 7.35L128.5 7.35 128.5 6.3Q128.5 4.7 127.45 3.75 126.4 2.85 124.85 2.85M124.9 4.2Q125.75 4.2 126.35 4.7 126.95 5.2 126.95 6.15L122.65 6.15Q122.65 5.25 123.35 4.7 124.05 4.2 124.9 4.2M135.35 3.6Q134.2 2.85 132.9 2.85 131.6 2.85 130.8 3.45 130 4.1 130 5.15 130 6.6 132.3 7.25 132.4 7.25 132.5 7.3 134 7.75 133.95 8.3 134 8.7 133.65 8.9 133.35 9.15 132.85 9.15 131.6 9.15 130.3 8.2L129.55 9.4Q130.2 9.95 131.1 10.25 131.95 10.55 132.8 10.5 134 10.5 134.75 9.9 135.5 9.25 135.55 8.2 135.55 7.1 134.75 6.6 134.4 6.35 134.05 6.2 133.75 6.1 133.4 5.95 133.05 5.85 132.6 5.75 132.15 5.65 131.85 5.5 131.5 5.35 131.5 5 131.5 4.6 131.85 4.35 132.2 4.15 132.75 4.15 133.85 4.15 134.75 4.75L135.35 3.6M144.2 7.35L144.2 6.3Q144.2 4.7 143.15 3.75 142.1 2.85 140.55 2.85 139.05 2.85 137.9 3.9 136.8 4.9 136.8 6.7 136.8 8.45 137.9 9.5 139 10.55 140.55 10.5 142.5 10.5 143.7 9.3L142.8 8.3Q142.05 9.15 140.7 9.2 139.8 9.15 139.1 8.7 138.45 8.2 138.35 7.35L144.2 7.35M142.05 4.7Q142.65 5.2 142.65 6.15L138.35 6.15Q138.35 5.25 139.05 4.7 139.75 4.2 140.6 4.2 141.45 4.2 142.05 4.7M152 10.4L152 5.6Q152 4.2 151.15 3.5 150.35 2.85 149 2.85 147.3 2.85 145.95 3.95L146.65 4.9Q147.75 4.15 148.8 4.15 150.45 4.15 150.45 5.65L150.45 5.9 148.4 5.9Q147.05 5.9 146.2 6.45 145.4 7 145.4 8.1 145.4 9.2 146.15 9.85 146.9 10.55 148.1 10.5 149.65 10.55 150.55 9.4L150.55 10.4 152 10.4M150.45 7.65Q150.45 8.35 149.85 8.75 149.3 9.2 148.55 9.2 147.8 9.2 147.4 8.9 146.95 8.6 146.95 8.05 146.95 7 148.65 7L150.45 7 150.45 7.65M158.05 4.45Q158.1 4.45 158.15 4.45L158.15 2.85Q157.4 2.85 156.75 3.3 156.1 3.75 155.7 4.45L155.7 2.95 154.15 2.95 154.15 10.4 155.7 10.4 155.7 7.2Q155.7 5.95 156.3 5.2 156.9 4.45 158.05 4.45M165.2 5.15L166.1 4Q164.95 2.85 163.25 2.85 161.6 2.85 160.4 3.9 159.25 5 159.25 6.7 159.25 8.4 160.35 9.45 161.5 10.55 163.05 10.5 164.8 10.5 166.2 9.15L165.25 8.15Q164.35 9.1 163.3 9.1 162.25 9.1 161.55 8.4 160.8 7.65 160.8 6.65 160.8 5.6 161.55 4.95 162.25 4.3 163.25 4.3 164.2 4.3 165.2 5.15M174.65 10.4L174.65 5.85Q174.65 4.4 173.9 3.65 173.1 2.85 171.85 2.85 171.05 2.85 170.4 3.25 169.7 3.65 169.35 4.35L169.35 .05 167.8 .05 167.8 10.4 169.35 10.4 169.35 6.4Q169.35 5.35 169.95 4.8 170.55 4.25 171.4 4.3 173.1 4.25 173.1 6.35L173.1 10.4 174.65 10.4Z" fill-opacity=".5"/></g><animate attributeName="display" fill="freeze" repeatCount="1" dur="1.172s" keyTimes="0;.147;1" values="none;inline;inline"/></g><g display="none"><path id="Layer48_0_1_STROKES" stroke="#9E9E9E" stroke-width="1" stroke-linejoin="round" stroke-linecap="round" fill="none" d="M117.05 456.15L1074.95 456.15"/><animate attributeName="display" fill="freeze" repeatCount="1" dur="1.172s" keyTimes="0;.147;1" values="none;inline;inline"/></g><g display="none" id="Layer47_0_FILL"><path fill="#F4CC00" stroke="none" d="M184.55 456.15L184.55 437.75 126.4 437.75 126.4 456.15 184.55 456.15M322.7 389.5L264.55 389.5 264.55 456.15 322.7 456.15 322.7 389.5M617.2 338.6L559.05 338.6 559.05 456.15 617.2 456.15 617.2 338.6M469.55 387.9L411.35 387.9 411.35 456.15 469.55 456.15 469.55 387.9M910 248.15L851.85 248.15 851.85 456.15 910 456.15 910 248.15M762.35 284.45L704.15 284.45 704.15 456.15 762.35 456.15 762.35 284.45M1053.4 198.5L995.15 198.5 995.15 456.15 1053.4 456.15 1053.4 198.5Z"/><animate attributeName="display" fill="freeze" repeatCount="1" dur="1.172s" keyTimes="0;.559;1" values="none;inline;inline"/></g><g display="none" id="Layer46_0_FILL"><path fill="#F4CC00" stroke="none" d="M184.55 456.15L184.55 437.8 126.4 437.8 126.4 456.15 184.55 456.15M322.7 389.75L264.55 389.75 264.55 456.15 322.7 456.15 322.7 389.75M617.2 339.05L559.05 339.05 559.05 456.15 617.2 456.15 617.2 339.05M469.55 388.15L411.35 388.15 411.35 456.15 469.55 456.15 469.55 388.15M910 249L851.85 249 851.85 456.15 910 456.15 910 249M762.35 285.15L704.15 285.15 704.15 456.15 762.35 456.15 762.35 285.15M1053.4 199.55L995.15 199.55 995.15 456.15 1053.4 456.15 1053.4 199.55Z"/><animate attributeName="display" fill="freeze" repeatCount="1" dur="1.172s" keyTimes="0;.529;.559;1" values="none;inline;none;none"/></g><g display="none" id="Layer45_0_FILL"><path fill="#F4CC00" stroke="none" d="M184.55 456.15L184.55 438.05 126.4 438.05 126.4 456.15 184.55 456.15M322.7 390.6L264.55 390.6 264.55 456.15 322.7 456.15 322.7 390.6M617.2 340.45L559.05 340.45 559.05 456.15 617.2 456.15 617.2 340.45M469.55 388.9L411.35 388.9 411.35 456.15 469.55 456.15 469.55 388.9M910 251.5L851.85 251.5 851.85 456.15 910 456.15 910 251.5M762.35 287.15L704.15 287.15 704.15 456.15 762.35 456.15 762.35 287.15M1053.4 202.6L995.15 202.6 995.15 456.15 1053.4 456.15 1053.4 202.6Z"/><animate attributeName="display" fill="freeze" repeatCount="1" dur="1.172s" keyTimes="0;.5;.529;1" values="none;inline;none;none"/></g><g display="none" id="Layer44_0_FILL"><path fill="#F4CC00" stroke="none" d="M184.55 456.15L184.55 438.4 126.4 438.4 126.4 456.15 184.55 456.15M322.7 391.95L264.55 391.95 264.55 456.15 322.7 456.15 322.7 391.95M617.2 342.8L559.05 342.8 559.05 456.15 617.2 456.15 617.2 342.8M469.55 390.15L411.35 390.15 411.35 456.15 469.55 456.15 469.55 390.15M910 255.65L851.85 255.65 851.85 456.15 910 456.15 910 255.65M762.35 290.6L704.15 290.6 704.15 456.15 762.35 456.15 762.35 290.6M1053.4 207.75L995.15 207.75 995.15 456.15 1053.4 456.15 1053.4 207.75Z"/><animate attributeName="display" fill="freeze" repeatCount="1" dur="1.172s" keyTimes="0;.471;.5;1" values="none;inline;none;none"/></g><g display="none" id="Layer43_0_FILL"><path fill="#F4CC00" stroke="none" d="M184.55 456.15L184.55 438.9 126.4 438.9 126.4 456.15 184.55 456.15M322.7 393.85L264.55 393.85 264.55 456.15 322.7 456.15 322.7 393.85M617.2 346.05L559.05 346.05 559.05 456.15 617.2 456.15 617.2 346.05M469.55 391.9L411.35 391.9 411.35 456.15 469.55 456.15 469.55 391.9M910 261.45L851.85 261.45 851.85 456.15 910 456.15 910 261.45M762.35 295.35L704.15 295.35 704.15 456.15 762.35 456.15 762.35 295.35M1053.4 214.9L995.15 214.9 995.15 456.15 1053.4 456.15 1053.4 214.9Z"/><animate attributeName="display" fill="freeze" repeatCount="1" dur="1.172s" keyTimes="0;.441;.471;1" values="none;inline;none;none"/></g><g display="none" id="Layer42_0_FILL"><path fill="#F4CC00" stroke="none" d="M184.55 456.15L184.55 439.5 126.4 439.5 126.4 456.15 184.55 456.15M322.7 396.25L264.55 396.25 264.55 456.15 322.7 456.15 322.7 396.25M469.55 394.1L411.35 394.1 411.35 456.15 469.55 456.15 469.55 394.1M910 268.95L851.85 268.95 851.85 456.15 910 456.15 910 268.95M762.35 301.5L704.15 301.5 704.15 456.15 762.35 456.15 762.35 301.5M1053.4 224.15L995.15 224.15 995.15 456.15 1053.4 456.15 1053.4 224.15Z"/><path fill="#F3CC00" stroke="none" d="M617.2 350.25L559.05 350.25 559.05 456.15 617.2 456.15 617.2 350.25Z"/><animate attributeName="display" fill="freeze" repeatCount="1" dur="1.172s" keyTimes="0;.412;.441;1" values="none;inline;none;none"/></g><g display="none" id="Layer41_0_FILL"><path fill="#F4CC00" stroke="none" d="M469.55 396.85L411.35 396.85 411.35 456.15 469.55 456.15 469.55 396.85M184.55 456.15L184.55 440.3 126.4 440.3 126.4 456.15 184.55 456.15M322.7 399.25L264.55 399.25 264.55 456.15 322.7 456.15 322.7 399.25M910 278.1L851.85 278.1 851.85 456.15 910 456.15 910 278.1M762.35 308.95L704.15 308.95 704.15 456.15 762.35 456.15 762.35 308.95M1053.4 235.45L995.15 235.45 995.15 456.15 1053.4 456.15 1053.4 235.45Z"/><path fill="#F3CC00" stroke="none" d="M617.2 355.4L559.05 355.4 559.05 456.15 617.2 456.15 617.2 355.4Z"/><animate attributeName="display" fill="freeze" repeatCount="1" dur="1.172s" keyTimes="0;.382;.412;1" values="none;inline;none;none"/></g><g display="none" id="Layer40_0_FILL"><path fill="#F4CC00" stroke="none" d="M469.55 400.1L411.35 400.1 411.35 456.15 469.55 456.15 469.55 400.1M184.55 456.15L184.55 441.25 126.4 441.25 126.4 456.15 184.55 456.15M322.7 402.75L264.55 402.75 264.55 456.15 322.7 456.15 322.7 402.75M910 288.95L851.85 288.95 851.85 456.15 910 456.15 910 288.95M762.35 317.85L704.15 317.85 704.15 456.15 762.35 456.15 762.35 317.85M1053.4 248.8L995.15 248.8 995.15 456.15 1053.4 456.15 1053.4 248.8Z"/><path fill="#F3CD00" stroke="none" d="M617.2 361.45L559.05 361.45 559.05 456.15 617.2 456.15 617.2 361.45Z"/><animate attributeName="display" fill="freeze" repeatCount="1" dur="1.172s" keyTimes="0;.353;.382;1" values="none;inline;none;none"/></g><g display="none" id="Layer39_0_FILL"><path fill="#F4CC00" stroke="none" d="M469.55 403.8L411.35 403.8 411.35 456.15 469.55 456.15 469.55 403.8M184.55 456.15L184.55 442.3 126.4 442.3 126.4 456.15 184.55 456.15M322.7 406.8L264.55 406.8 264.55 456.15 322.7 456.15 322.7 406.8M910 301.45L851.85 301.45 851.85 456.15 910 456.15 910 301.45M762.35 328.05L704.15 328.05 704.15 456.15 762.35 456.15 762.35 328.05M1053.4 264.2L995.15 264.2 995.15 456.15 1053.4 456.15 1053.4 264.2Z"/><path fill="#F2CD00" stroke="none" d="M617.2 368.45L559.05 368.45 559.05 456.15 617.2 456.15 617.2 368.45Z"/><animate attributeName="display" fill="freeze" repeatCount="1" dur="1.172s" keyTimes="0;.324;.353;1" values="none;inline;none;none"/></g><g display="none" id="Layer38_0_FILL"><path fill="#F4CC00" stroke="none" d="M469.55 408.05L411.35 408.05 411.35 456.15 469.55 456.15 469.55 408.05M184.55 456.15L184.55 443.5 126.4 443.5 126.4 456.15 184.55 456.15M322.7 411.4L264.55 411.4 264.55 456.15 322.7 456.15 322.7 411.4M910 315.6L851.85 315.6 851.85 456.15 910 456.15 910 315.6M762.35 339.6L704.15 339.6 704.15 456.15 762.35 456.15 762.35 339.6M1053.4 281.65L995.15 281.65 995.15 456.15 1053.4 456.15 1053.4 281.65Z"/><path fill="#F2CD00" stroke="none" d="M617.2 376.4L559.05 376.4 559.05 456.15 617.2 456.15 617.2 376.4Z"/><animate attributeName="display" fill="freeze" repeatCount="1" dur="1.172s" keyTimes="0;.294;.324;1" values="none;inline;none;none"/></g><g display="none" id="Layer37_0_FILL"><path fill="#F4CC00" stroke="none" d="M469.5 412.75L411.3 412.75 411.3 456.15 469.5 456.15 469.5 412.75M184.5 456.15L184.5 444.85 126.3 444.85 126.3 456.15 184.5 456.15M322.65 416.55L264.5 416.55 264.5 456.15 322.65 456.15 322.65 416.55M909.95 331.4L851.8 331.4 851.8 456.15 909.95 456.15 909.95 331.4M762.3 352.55L704.1 352.55 704.1 456.15 762.3 456.15 762.3 352.55M1053.35 301.15L995.1 301.15 995.1 456.15 1053.35 456.15 1053.35 301.15Z"/><path fill="#F1CD00" stroke="none" d="M617.15 385.25L559 385.25 559 456.15 617.15 456.15 617.15 385.25Z"/><animate attributeName="display" fill="freeze" repeatCount="1" dur="1.172s" keyTimes="0;.265;.294;1" values="none;inline;none;none"/></g><g display="none" id="Layer36_0_FILL"><path fill="#F4CC00" stroke="none" d="M469.5 417.95L411.3 417.95 411.3 456.15 469.5 456.15 469.5 417.95M184.5 456.15L184.5 446.35 126.3 446.35 126.3 456.15 184.5 456.15M322.65 422.2L264.5 422.2 264.5 456.15 322.65 456.15 322.65 422.2M909.95 348.9L851.8 348.9 851.8 456.15 909.95 456.15 909.95 348.9M762.3 366.85L704.1 366.85 704.1 456.15 762.3 456.15 762.3 366.85M1053.35 322.7L995.1 322.7 995.1 456.15 1053.35 456.15 1053.35 322.7Z"/><path fill="#F0CD00" stroke="none" d="M617.15 395.05L559 395.05 559 456.15 617.15 456.15 617.15 395.05Z"/><animate attributeName="display" fill="freeze" repeatCount="1" dur="1.172s" keyTimes="0;.235;.265;1" values="none;inline;none;none"/></g><g display="none" id="Layer35_0_FILL"><path fill="#F4CC00" stroke="none" d="M469.5 423.7L411.3 423.7 411.3 456.15 469.5 456.15 469.5 423.7M184.5 456.15L184.5 447.95 126.3 447.95 126.3 456.15 184.5 456.15M322.65 428.45L264.5 428.45 264.5 456.15 322.65 456.15 322.65 428.45M909.95 368.05L851.8 368.05 851.8 456.15 909.95 456.15 909.95 368.05M762.3 382.55L704.1 382.55 704.1 456.15 762.3 456.15 762.3 382.55M1053.35 346.3L995.1 346.3 995.1 456.15 1053.35 456.15 1053.35 346.3Z"/><path fill="#F0CD00" stroke="none" d="M617.15 456.15L617.15 405.8 559 405.8 559 456.15 617.15 456.15Z"/><animate attributeName="display" fill="freeze" repeatCount="1" dur="1.172s" keyTimes="0;.206;.235;1" values="none;inline;none;none"/></g><g display="none" id="Layer34_0_FILL"><path fill="#F4CC00" stroke="none" d="M469.5 429.9L411.3 429.9 411.3 456.15 469.5 456.15 469.5 429.9M184.5 456.15L184.5 449.75 126.3 449.75 126.3 456.15 184.5 456.15M322.65 435.2L264.5 435.2 264.5 456.15 322.65 456.15 322.65 435.2M762.3 456.15L762.3 399.55 704.1 399.55 704.1 456.15 762.3 456.15M909.95 388.85L851.8 388.85 851.8 456.15 909.95 456.15 909.95 388.85M1053.35 372L995.1 372 995.1 456.15 1053.35 456.15 1053.35 372Z"/><path fill="#EFCE00" stroke="none" d="M617.15 456.15L617.15 417.45 559 417.45 559 456.15 617.15 456.15Z"/><animate attributeName="display" fill="freeze" repeatCount="1" dur="1.172s" keyTimes="0;.176;.206;1" values="none;inline;none;none"/></g><g display="none" id="Layer33_0_FILL"><path fill="#F4CC00" stroke="none" d="M469.5 456.15L469.5 436.6 411.3 436.6 411.3 456.15 469.5 456.15M184.5 456.15L184.5 451.65 126.3 451.65 126.3 456.15 184.5 456.15M322.65 456.15L322.65 442.5 264.5 442.5 264.5 456.15 322.65 456.15M1053.35 456.15L1053.35 399.7 995.1 399.7 995.1 456.15 1053.35 456.15M762.3 456.15L762.3 417.95 704.1 417.95 704.1 456.15 762.3 456.15M909.95 456.15L909.95 411.35 851.8 411.35 851.8 456.15 909.95 456.15Z"/><path fill="#EECE00" stroke="none" d="M617.15 456.15L617.15 430.05 559 430.05 559 456.15 617.15 456.15Z"/><animate attributeName="display" fill="freeze" repeatCount="1" dur="1.172s" keyTimes="0;.147;.176;1" values="none;inline;none;none"/></g><g display="none"><g id="Symbol-79" transform="matrix(1.548 0 0 1.085 84.7 152.55)" opacity="0"><animateTransform attributeName="transform" additive="replace" type="translate" dur="1.172s" keyTimes="0;.147;.559;1" values="84.64,152.496;84.64,152.496;84.64,119.946;84.64,119.946" keySplines=".25 .5 .5 1;.25 .5 .5 1;.1 .1 .9 .9" calcMode="spline" fill="freeze"/><animateTransform attributeName="transform" additive="sum" type="scale" dur="1.172s" keyTimes="0;1" values="1.548,1.085;1.548,1.085" keySplines=".25 .5 .5 1" calcMode="spline" fill="freeze"/><animate attributeName="opacity" dur="1.172s" keyTimes="0;.147;.559;1" values="0;0;1;1" keySplines=".25 .5 .5 1;.25 .5 .5 1;.1 .1 .9 .9" calcMode="spline" fill="freeze"/><path fill="#000" fill-opacity=".866" stroke="none" d="M230.2 238Q230.2 237.5 229.95 237.15 229.7 236.8 229.3 236.8 228.95 236.8 228.7 237.15 228.4 237.5 228.4 238 228.4 238.55 228.7 238.9 228.95 239.25 229.3 239.25 229.7 239.25 229.95 238.9 230.2 238.55 230.2 238M223 226.55L223 228.1 225.1 228.1 225.1 239.15 226.4 239.15 226.4 226.55 223 226.55M234.1 231.55L233.05 231.55 233.3 228.1 237.45 228.1 237.45 226.55 232.2 226.55 231.7 233.15 233.8 233.15Q235.35 233.15 236.05 233.75 236.65 234.3 236.65 235.45 236.65 236.5 236.05 237.1 235.45 237.7 234.45 237.7 232.7 237.7 231.65 236.35L231.05 237.75Q232.3 239.3 234.45 239.3 236.15 239.3 237.1 238.15 237.95 237.1 237.95 235.35 237.95 231.55 234.1 231.55M43.65 283.4Q43.65 283.95 43.95 284.3 44.2 284.65 44.55 284.65 44.95 284.65 45.2 284.3 45.45 283.95 45.45 283.4 45.45 282.9 45.2 282.55 44.95 282.2 44.55 282.2 44.2 282.2 43.95 282.55 43.65 282.9 43.65 283.4M51.3 279.3Q52.2 278.15 52.55 277.15 52.85 276.3 52.85 275.3 52.85 273.7 51.95 272.75 51.1 271.8 49.65 271.8 47.35 271.8 46.25 273.7L47.15 274.8Q48 273.4 49.5 273.4 51.5 273.4 51.5 275.5 51.5 276.85 50.35 278.4L46.55 283.35 46.55 284.55 53.25 284.55 53.25 283 48.45 283 51.3 279.3M38.25 271.95L38.25 273.5 40.35 273.5 40.35 284.55 41.65 284.55 41.65 271.95 38.25 271.95M132.4 237.15Q132.1 237.5 132.1 238 132.1 238.55 132.4 238.9 132.65 239.25 133 239.25 133.4 239.25 133.65 238.9 133.9 238.55 133.9 238 133.9 237.5 133.65 237.15 133.4 236.8 133 236.8 132.65 236.8 132.4 237.15M126.7 226.55L126.7 228.1 128.8 228.1 128.8 239.15 130.1 239.15 130.1 226.55 126.7 226.55M137.8 231.55L136.75 231.55 137 228.1 141.15 228.1 141.15 226.55 135.9 226.55 135.4 233.15 137.5 233.15Q139.05 233.15 139.75 233.75 140.35 234.3 140.35 235.45 140.35 236.5 139.75 237.1 139.15 237.7 138.15 237.7 136.4 237.7 135.35 236.35L134.75 237.75Q136 239.3 138.15 239.3 139.85 239.3 140.8 238.15 141.65 237.1 141.65 235.35 141.65 231.55 137.8 231.55M317.2 179.9L317.2 181.45 319.3 181.45 319.3 192.5 320.6 192.5 320.6 179.9 317.2 179.9M414.7 140.65Q414.4 141 414.4 141.5 414.4 142.05 414.7 142.4 414.95 142.75 415.3 142.75 415.7 142.75 415.95 142.4 416.2 142.05 416.2 141.5 416.2 141 415.95 140.65 415.7 140.3 415.3 140.3 414.95 140.3 414.7 140.65M412.7 135.25Q413 134.4 413 133.4 413 131.8 412.1 130.85 411.25 129.9 409.8 129.9 407.5 129.9 406.4 131.8L407.3 132.9Q408.15 131.5 409.65 131.5 411.65 131.5 411.65 133.6 411.65 134.95 410.5 136.5L406.7 141.45 406.7 142.65 413.4 142.65 413.4 141.1 408.6 141.1 411.45 137.4Q412.35 136.25 412.7 135.25M417.2 130.05L417.2 133.85 418.45 133.85 418.45 131.6 422.7 131.6 419.05 142.65 420.45 142.65 424.2 131.3 424.2 130.05 417.2 130.05M324.45 191.35Q324.45 190.85 324.2 190.5 323.95 190.15 323.55 190.15 323.2 190.15 322.95 190.5 322.65 190.85 322.65 191.35 322.65 191.9 322.95 192.25 323.2 192.6 323.55 192.6 323.95 192.6 324.2 192.25 324.45 191.9 324.45 191.35M327.8 182.5Q328.6 181.3 330.05 181.3 331.2 181.3 331.85 181.9L332.35 180.5Q331.5 179.75 330.05 179.75 328.05 179.75 326.85 181.45 325.65 183.2 325.65 186.35 325.65 189.35 326.65 191 327.65 192.65 329.55 192.65 330.95 192.65 331.9 191.55 332.85 190.45 332.85 188.65 332.85 186.95 331.95 185.9 331.05 184.85 329.65 184.85 327.8 184.85 327 186.5L326.95 186.05Q326.95 183.75 327.8 182.5M331 190.5Q330.4 191.2 329.5 191.2 328.45 191.2 327.85 190.45 327.3 189.8 327.3 188.75 327.3 187.7 327.9 187 328.5 186.3 329.45 186.3 330.4 186.3 331 186.95 331.55 187.65 331.55 188.75 331.55 189.85 331 190.5M514.25 109.95Q514.65 109.95 514.9 109.6 515.15 109.25 515.15 108.7 515.15 108.2 514.9 107.85 514.65 107.5 514.25 107.5 513.9 107.5 513.65 107.85 513.35 108.2 513.35 108.7 513.35 109.25 513.65 109.6 513.9 109.95 514.25 109.95M511.8 98.5L511.8 97.25 505.65 97.25 505.65 98.8 510.1 98.8 507.8 102.7 507.8 103.95 508.5 103.95Q510.8 103.95 510.8 106.15 510.8 107.2 510.25 107.8 509.65 108.4 508.65 108.4 506.9 108.4 505.8 107.05L505.2 108.45Q506.45 110 508.65 110 510.35 110 511.3 108.85 512.15 107.8 512.15 106.15 512.15 104.65 511.45 103.7 510.7 102.7 509.35 102.55L511.8 98.5M515.8 97.25L515.8 98.8 517.9 98.8 517.9 109.85 519.2 109.85 519.2 97.25 515.8 97.25M613.45 52.3L613.45 50.75 608.2 50.75 607.7 57.35 609.8 57.35Q611.35 57.35 612.05 57.95 612.65 58.5 612.65 59.65 612.65 60.7 612.05 61.3 611.45 61.9 610.45 61.9 608.7 61.9 607.65 60.55L607.05 61.95Q608.3 63.5 610.45 63.5 612.15 63.5 613.1 62.35 613.95 61.3 613.95 59.55 613.95 55.75 610.1 55.75L609.05 55.75 609.3 52.3 613.45 52.3M605.35 61Q605 61 604.75 61.35 604.45 61.7 604.45 62.2 604.45 62.75 604.75 63.1 605 63.45 605.35 63.45 605.75 63.45 606 63.1 606.25 62.75 606.25 62.2 606.25 61.7 606 61.35 605.75 61 605.35 61M602.9 52L602.9 50.75 596.75 50.75 596.75 52.3 601.2 52.3 598.9 56.2 598.9 57.45 599.6 57.45Q601.9 57.45 601.9 59.65 601.9 60.7 601.35 61.3 600.75 61.9 599.75 61.9 598 61.9 596.9 60.55L596.3 61.95Q597.55 63.5 599.75 63.5 601.45 63.5 602.4 62.35 603.25 61.3 603.25 59.65 603.25 58.15 602.55 57.2 601.8 56.2 600.45 56.05L602.9 52Z"/></g><animate attributeName="display" fill="freeze" repeatCount="1" dur="1.172s" keyTimes="0;.147;1" values="none;inline;inline"/></g><g display="none" id="Layer25_0_FILL"><path fill="#999" stroke="none" d="M160.95 370.25Q160.4 370.45 160.4 371.1 160.4 371.25 160.45 371.35 160.65 372.05 161.35 372.1 161.5 372.1 161.6 372.05L285.5 338.4Q285.9 338.3 286.1 337.95 286.2 337.75 286.25 337.5 286.2 337.35 286.2 337.2 286.1 336.8 285.75 336.6 285.5 336.5 285.25 336.5 285.15 336.45 285.1 336.5 285.05 336.5 285 336.5L161.1 370.2Q161 370.2 160.95 370.25M430.05 331.2Q430 330.8 429.7 330.5 429.45 330.25 429.05 330.25 429 330.2 429 330.25L302.15 333.85Q302.1 333.85 302.05 333.9 301.25 334 301.2 334.8L301.2 334.85Q301.3 335.75 302.2 335.8L429.05 332.2Q429.15 332.15 429.25 332.15 429.55 332.1 429.75 331.85 430.05 331.6 430.05 331.2M446 329.65L446.05 329.65Q446.25 329.65 446.4 329.6L570.15 278.8Q570.2 278.8 570.2 278.75 570.55 278.6 570.7 278.25 570.8 278.1 570.8 277.9 570.8 277.75 570.7 277.55 570.55 277.15 570.2 277 570 276.9 569.8 276.9 569.7 276.9 569.55 276.95 569.5 277 569.45 277L445.8 327.7 445.65 327.8Q445.1 328.05 445.05 328.7 445.05 328.9 445.15 329.1 445.45 329.65 446 329.65M724.7 218.2Q724.55 217.8 724.2 217.65 724 217.55 723.85 217.55 723.65 217.55 723.5 217.6L723.45 217.65 585.7 271.55 585.65 271.55Q585.05 271.85 585.05 272.4 585.05 272.6 585.15 272.8 585.4 273.4 586.05 273.4 586.15 273.45 586.25 273.4 586.35 273.4 586.4 273.35L724.15 219.45Q724.15 219.4 724.2 219.4 724.55 219.25 724.7 218.9 724.8 218.7 724.8 218.5 724.75 218.3 724.7 218.2M875.25 177.25Q875.15 176.85 874.8 176.65 874.55 176.55 874.3 176.5 874.15 176.55 874.05 176.55L873.95 176.55 740.55 212.8Q740.2 212.85 740 213.1 739.8 213.4 739.8 213.75 739.8 213.9 739.85 214 739.95 214.4 740.35 214.6 740.55 214.7 740.8 214.7 740.9 214.7 741 214.65L874.55 178.45Q874.65 178.4 874.75 178.35 875 178.25 875.15 177.95 875.3 177.75 875.3 177.55 875.3 177.4 875.25 177.25M1019.1 139.15Q1019.4 139.05 1019.6 138.75 1019.7 138.5 1019.7 138.25 1019.7 138.1 1019.7 138 1019.55 137.6 1019.25 137.4 1019.05 137.25 1018.75 137.25 1018.65 137.25 1018.5 137.3L890.9 171.95Q890.7 172 890.55 172.15 890.2 172.45 890.2 172.9 890.2 173.05 890.25 173.15 890.4 173.6 890.85 173.75 890.95 173.85 891.15 173.85 891.3 173.85 891.4 173.8L1019.05 139.15 1019.1 139.15Z"/><path fill="#31A52A" stroke="none" d="M153.75 364.25Q145.2 365 144.4 373.55 145.2 382.1 153.75 382.9 162.3 382.1 163.1 373.55 162.3 365 153.75 364.25Z"/><path fill="#31A52A" stroke="none" d="M303.5 335.6Q302.75 327.05 294.2 326.25 285.65 327.05 284.85 335.6 285.65 344.15 294.2 344.95 302.75 344.15 303.5 335.6Z"/><path fill="#31A52A" stroke="none" d="M438.05 320.45Q429.5 321.25 428.75 329.8 429.5 338.35 438.05 339.1 446.6 338.35 447.4 329.8 446.6 321.25 438.05 320.45Z"/><path fill="#31A52A" stroke="none" d="M578.35 284.05Q586.9 283.25 587.65 274.7 586.9 266.15 578.35 265.4 569.8 266.15 569 274.7 569.8 283.25 578.35 284.05Z"/><path fill="#31A52A" stroke="none" d="M741.6 215.35Q740.85 206.8 732.3 206.05 723.75 206.8 722.95 215.35 723.75 223.9 732.3 224.7 740.85 223.9 741.6 215.35Z"/><path fill="#31A52A" stroke="none" d="M882.8 165Q874.25 165.75 873.45 174.3 874.25 182.85 882.8 183.65 891.35 182.85 892.1 174.3 891.35 165.75 882.8 165Z"/><path fill="#31A52A" stroke="none" d="M1027.05 144.95Q1035.6 144.15 1036.4 135.6 1035.6 127.05 1027.05 126.3 1018.5 127.05 1017.7 135.6 1018.5 144.15 1027.05 144.95Z"/><animate attributeName="display" fill="freeze" repeatCount="1" dur="1.172s" keyTimes="0;.294;1" values="none;inline;inline"/><animate attributeName="mask" repeatCount="1" dur="1.172s" keyTimes="0;.294;1" values="none;url(#mask_);url(#mask_)" fill="freeze"/></g><mask id="mask_"><g><g display="none"><g><g id="Layer24_0_FILL"><path fill="#FFF" stroke="none" d="M79.6 503L1296.05 274.65 1197.9 18.05 -18.5 246.4 79.6 503Z" fill-opacity="1"/></g></g><animate attributeName="display" fill="freeze" repeatCount="1" dur="1.172s" keyTimes="0;.971;1" values="none;inline;inline"/></g><g display="none"><g><g id="Layer23_0_FILL"><path fill="#FFF" stroke="none" d="M1294.05 275.1L1195.7 18.25 -18.55 246.2 79.75 503.05 1294.05 275.1Z" fill-opacity="1"/></g></g><animate attributeName="display" fill="freeze" repeatCount="1" dur="1.172s" keyTimes="0;.941;.971;1" values="none;inline;none;none"/></g><g display="none"><g><g id="Layer22_0_FILL"><path fill="#FFF" stroke="none" d="M1287.85 276.6L1188.95 19 -18.85 245.8 80 503.35 1287.85 276.6Z" fill-opacity="1"/></g></g><animate attributeName="display" fill="freeze" repeatCount="1" dur="1.172s" keyTimes="0;.912;.941;1" values="none;inline;none;none"/></g><g display="none"><g><g id="Layer21_0_FILL"><path fill="#FFF" stroke="none" d="M1277.7 279.1L1177.85 20.3 -19.3 245.1 80.5 503.9 1277.7 279.1Z" fill-opacity="1"/></g></g><animate attributeName="display" fill="freeze" repeatCount="1" dur="1.172s" keyTimes="0;.882;.912;1" values="none;inline;none;none"/></g><g display="none"><g><g id="Layer20_0_FILL"><path fill="#FFF" stroke="none" d="M1263.35 282.55L1162.2 22.05 -19.9 244.1 81.2 504.6 1263.35 282.55Z" fill-opacity="1"/></g></g><animate attributeName="display" fill="freeze" repeatCount="1" dur="1.172s" keyTimes="0;.853;.882;1" values="none;inline;none;none"/></g><g display="none"><g><g id="Layer19_0_FILL"><path fill="#FFF" stroke="none" d="M1244.95 287L1142.1 24.3 -20.75 242.85 82.05 505.55 1244.95 287Z" fill-opacity="1"/></g></g><animate attributeName="display" fill="freeze" repeatCount="1" dur="1.172s" keyTimes="0;.824;.853;1" values="none;inline;none;none"/></g><g display="none"><g><g id="Layer18_0_FILL"><path fill="#FFF" stroke="none" d="M1222.45 292.4L1117.5 27 -21.75 241.25 83.1 506.65 1222.45 292.4Z" fill-opacity="1"/></g></g><animate attributeName="display" fill="freeze" repeatCount="1" dur="1.172s" keyTimes="0;.794;.824;1" values="none;inline;none;none"/></g><g display="none"><g><g id="Layer17_0_FILL"><path fill="#FFF" stroke="none" d="M1195.75 298.85L1088.4 30.25 -23 239.4 84.3 507.95 1195.75 298.85Z" fill-opacity="1"/></g></g><animate attributeName="display" fill="freeze" repeatCount="1" dur="1.172s" keyTimes="0;.765;.794;1" values="none;inline;none;none"/></g><g display="none"><g><g id="Layer16_0_FILL"><path fill="#FFF" stroke="none" d="M1165.1 306.25L1054.9 34 -24.4 237.25 85.75 509.5 1165.1 306.25Z" fill-opacity="1"/></g></g><animate attributeName="display" fill="freeze" repeatCount="1" dur="1.172s" keyTimes="0;.735;.765;1" values="none;inline;none;none"/></g><g display="none"><g><g id="Layer15_0_FILL"><path fill="#FFF" stroke="none" d="M1130.35 314.55L1016.95 38.2 -25.9 234.75 87.45 511.15 1130.35 314.55Z" fill-opacity="1"/></g></g><animate attributeName="display" fill="freeze" repeatCount="1" dur="1.172s" keyTimes="0;.706;.735;1" values="none;inline;none;none"/></g><g display="none"><g><g id="Layer14_0_FILL"><path fill="#FFF" stroke="none" d="M1091.4 324L974.45 42.95 -27.7 232.1 89.2 513.1 1091.4 324Z" fill-opacity="1"/></g></g><animate attributeName="display" fill="freeze" repeatCount="1" dur="1.172s" keyTimes="0;.676;.706;1" values="none;inline;none;none"/></g><g display="none"><g><g id="Layer13_0_FILL"><path fill="#FFF" stroke="none" d="M1048.45 334.3L927.55 48.15 -29.65 229.05 91.25 515.2 1048.45 334.3Z" fill-opacity="1"/></g></g><animate attributeName="display" fill="freeze" repeatCount="1" dur="1.172s" keyTimes="0;.647;.676;1" values="none;inline;none;none"/></g><g display="none"><g><g id="Layer12_0_FILL"><path fill="#FFF" stroke="none" d="M1001.45 345.7L876.2 53.95 -31.7 225.8 93.5 517.6 1001.45 345.7Z" fill-opacity="1"/></g></g><animate attributeName="display" fill="freeze" repeatCount="1" dur="1.172s" keyTimes="0;.618;.647;1" values="none;inline;none;none"/></g><g display="none"><g><g id="Layer11_0_FILL"><path fill="#FFF" stroke="none" d="M950.25 358.05L820.35 60.15 -34 222.25 95.9 520.1 950.25 358.05Z" fill-opacity="1"/></g></g><animate attributeName="display" fill="freeze" repeatCount="1" dur="1.172s" keyTimes="0;.588;.618;1" values="none;inline;none;none"/></g><g display="none"><g><g id="Layer10_0_FILL"><path fill="#FFF" stroke="none" d="M895.05 371.35L760 66.9 -36.5 218.35 98.5 522.85 895.05 371.35Z" fill-opacity="1"/></g></g><animate attributeName="display" fill="freeze" repeatCount="1" dur="1.172s" keyTimes="0;.559;.588;1" values="none;inline;none;none"/></g><g display="none"><g><g id="Layer9_0_FILL"><path fill="#FFF" stroke="none" d="M835.65 385.6L695.2 74.05 -39.15 214.15 101.3 525.75 835.65 385.6Z" fill-opacity="1"/></g></g><animate attributeName="display" fill="freeze" repeatCount="1" dur="1.172s" keyTimes="0;.529;.559;1" values="none;inline;none;none"/></g><g display="none"><g><g id="Layer8_0_FILL"><path fill="#FFF" stroke="none" d="M625.95 81.85L-42 209.8 104.3 528.9 772.25 400.95 625.95 81.85Z" fill-opacity="1"/></g></g><animate attributeName="display" fill="freeze" repeatCount="1" dur="1.172s" keyTimes="0;.5;.529;1" values="none;inline;none;none"/></g><g display="none"><g><g id="Layer7_0_FILL"><path fill="#FFF" stroke="none" d="M552.2 90.05L-45.05 205.05 107.45 532.25 704.7 417.25 552.2 90.05Z" fill-opacity="1"/></g></g><animate attributeName="display" fill="freeze" repeatCount="1" dur="1.172s" keyTimes="0;.471;.5;1" values="none;inline;none;none"/></g><g display="none"><g><g id="Layer6_0_FILL"><path fill="#FFF" stroke="none" d="M633.05 434.5L473.95 98.75 -48.35 200.05 110.75 535.8 633.05 434.5Z" fill-opacity="1"/></g></g><animate attributeName="display" fill="freeze" repeatCount="1" dur="1.172s" keyTimes="0;.441;.471;1" values="none;inline;none;none"/></g><g display="none"><g><g id="Layer5_0_FILL"><path fill="#FFF" stroke="none" d="M557.35 452.75L391.3 108 -51.75 194.8 114.35 539.55 557.35 452.75Z" fill-opacity="1"/></g></g><animate attributeName="display" fill="freeze" repeatCount="1" dur="1.172s" keyTimes="0;.412;.441;1" values="none;inline;none;none"/></g><g display="none"><g><g id="Layer4_0_FILL"><path fill="#FFF" stroke="none" d="M477.55 472L304.2 117.7 -55.25 189.2 118.15 543.5 477.55 472Z" fill-opacity="1"/></g></g><animate attributeName="display" fill="freeze" repeatCount="1" dur="1.172s" keyTimes="0;.382;.412;1" values="none;inline;none;none"/></g><g display="none"><g><g id="Layer3_0_FILL"><path fill="#FFF" stroke="none" d="M393.7 492.25L212.6 127.9 -59.05 183.35 122.1 547.65 393.7 492.25Z" fill-opacity="1"/></g></g><animate attributeName="display" fill="freeze" repeatCount="1" dur="1.172s" keyTimes="0;.353;.382;1" values="none;inline;none;none"/></g><g display="none"><g><g id="Layer2_0_FILL"><path fill="#FFF" stroke="none" d="M126.2 552L305.65 513.45 116.5 138.65 -63 177.2 126.2 552Z" fill-opacity="1"/></g></g><animate attributeName="display" fill="freeze" repeatCount="1" dur="1.172s" keyTimes="0;.324;.353;1" values="none;inline;none;none"/></g><g display="none"><g><g id="Layer1_0_FILL"><path fill="#FFF" stroke="none" d="M130.55 556.5L213.6 535.6 15.95 149.8 -67.15 170.7 130.55 556.5Z" fill-opacity="1"/></g></g><animate attributeName="display" fill="freeze" repeatCount="1" dur="1.172s" keyTimes="0;.294;.324;1" values="none;inline;none;none"/></g></g></mask><g display="none"><g id="Symbol-78" transform="matrix(1.548 0 0 1.085 111.85 47.35)" opacity="0"><animateTransform attributeName="transform" additive="replace" type="translate" dur="1.172s" keyTimes="0;.588;.971;1" values="111.791,47.296;111.791,47.296;111.791,45.446;111.791,45.446" keySplines=".25 .5 .5 1;.25 .5 .5 1;.1 .1 .9 .9" calcMode="spline" fill="freeze"/><animateTransform attributeName="transform" additive="sum" type="scale" dur="1.172s" keyTimes="0;1" values="1.548,1.085;1.548,1.085" keySplines=".25 .5 .5 1" calcMode="spline" fill="freeze"/><animate attributeName="opacity" dur="1.172s" keyTimes="0;.588;.971;1" values="0;0;1;1" keySplines=".25 .5 .5 1;.25 .5 .5 1;.1 .1 .9 .9" calcMode="spline" fill="freeze"/><path fill="#000" fill-opacity=".866" stroke="none" d="M209.85 239.5Q210.15 239.85 210.55 239.85 211 239.85 211.25 239.5 211.55 239.15 211.55 238.6 211.55 238.1 211.25 237.75 211 237.4 210.55 237.4 210.15 237.4 209.85 237.75 209.55 238.1 209.55 238.6 209.55 239.15 209.85 239.5M204.15 232.15L203 232.15 203.25 228.7 207.85 228.7 207.85 227.15 202.05 227.15 201.5 233.75 203.85 233.75Q205.55 233.75 206.3 234.35 206.95 234.9 206.95 236.05 206.95 237.1 206.3 237.7 205.65 238.3 204.5 238.3 202.6 238.3 201.4 236.95L200.75 238.35Q202.15 239.9 204.5 239.9 206.4 239.9 207.45 238.75 208.4 237.7 208.4 235.95 208.4 232.15 204.15 232.15M215.85 232.15L214.7 232.15 214.95 228.7 219.55 228.7 219.55 227.15 213.75 227.15 213.2 233.75 215.55 233.75Q217.25 233.75 218 234.35 218.65 234.9 218.65 236.05 218.65 237.1 218 237.7 217.35 238.3 216.2 238.3 214.3 238.3 213.1 236.95L212.45 238.35Q213.85 239.9 216.2 239.9 218.1 239.9 219.15 238.75 220.1 237.7 220.1 235.95 220.1 232.15 215.85 232.15M24.4 282Q24.7 282.35 25.1 282.35 25.55 282.35 25.8 282 26.1 281.65 26.1 281.1 26.1 280.6 25.8 280.25 25.55 279.9 25.1 279.9 24.7 279.9 24.4 280.25 24.1 280.6 24.1 281.1 24.1 281.65 24.4 282M34.15 270.45Q33.15 269.5 31.45 269.5 29.8 269.5 28.8 270.45 27.75 271.35 27.75 272.9 27.75 274.8 29.2 275.65 27.4 276.5 27.4 278.7 27.4 280.4 28.5 281.4 29.6 282.4 31.45 282.4 33.35 282.4 34.45 281.4 35.55 280.4 35.55 278.7 35.55 276.5 33.75 275.65 35.2 274.8 35.2 272.9 35.2 271.35 34.15 270.45M29.8 271.5Q30.45 270.95 31.45 270.95 32.5 270.95 33.1 271.5 33.75 272.05 33.75 273 33.75 273.95 33.15 274.45 32.55 275 31.45 275 30.4 275 29.8 274.45 29.2 273.95 29.2 273 29.2 272.05 29.8 271.5M31.45 276.4Q32.7 276.4 33.4 277 34.1 277.6 34.1 278.65 34.1 279.7 33.4 280.3 32.7 280.95 31.45 280.95 30.25 280.95 29.55 280.3 28.85 279.7 28.85 278.65 28.85 277.6 29.55 277 30.25 276.4 31.45 276.4M22.4 271.2L22.4 269.65 16.6 269.65 16.05 276.25 18.4 276.25Q20.1 276.25 20.85 276.85 21.5 277.4 21.5 278.55 21.5 279.6 20.85 280.2 20.2 280.8 19.05 280.8 17.15 280.8 15.95 279.45L15.3 280.85Q16.7 282.4 19.05 282.4 20.95 282.4 22 281.25 22.95 280.2 22.95 278.45 22.95 274.65 18.7 274.65L17.55 274.65 17.8 271.2 22.4 271.2M115.8 246.45Q115.5 246.8 115.5 247.3 115.5 247.85 115.8 248.2 116.1 248.55 116.5 248.55 116.95 248.55 117.2 248.2 117.5 247.85 117.5 247.3 117.5 246.8 117.2 246.45 116.95 246.1 116.5 246.1 116.1 246.1 115.8 246.45M110.1 240.85L108.95 240.85 109.2 237.4 113.8 237.4 113.8 235.85 108 235.85 107.45 242.45 109.8 242.45Q111.5 242.45 112.25 243.05 112.9 243.6 112.9 244.75 112.9 245.8 112.25 246.4 111.6 247 110.45 247 108.55 247 107.35 245.65L106.7 247.05Q108.1 248.6 110.45 248.6 112.35 248.6 113.4 247.45 114.35 246.4 114.35 244.65 114.35 240.85 110.1 240.85M125.5 237.4L125.5 235.85 119.7 235.85 119.15 242.45 121.5 242.45Q123.2 242.45 123.95 243.05 124.6 243.6 124.6 244.75 124.6 245.8 123.95 246.4 123.3 247 122.15 247 120.25 247 119.05 245.65L118.4 247.05Q119.8 248.6 122.15 248.6 124.05 248.6 125.1 247.45 126.05 246.4 126.05 244.65 126.05 240.85 121.8 240.85L120.65 240.85 120.9 237.4 125.5 237.4M306.2 181.45Q305.15 182.35 305.15 183.9 305.15 185.8 306.6 186.65 304.8 187.5 304.8 189.7 304.8 191.4 305.9 192.4 307 193.4 308.85 193.4 310.75 193.4 311.85 192.4 312.95 191.4 312.95 189.7 312.95 187.5 311.15 186.65 312.6 185.8 312.6 183.9 312.6 182.35 311.55 181.45 310.55 180.5 308.85 180.5 307.2 180.5 306.2 181.45M307.2 185.45Q306.6 184.95 306.6 184 306.6 183.05 307.2 182.5 307.85 181.95 308.85 181.95 309.9 181.95 310.5 182.5 311.15 183.05 311.15 184 311.15 184.95 310.55 185.45 309.95 186 308.85 186 307.8 186 307.2 185.45M311.5 189.65Q311.5 190.7 310.8 191.3 310.1 191.95 308.85 191.95 307.65 191.95 306.95 191.3 306.25 190.7 306.25 189.65 306.25 188.6 306.95 188 307.65 187.4 308.85 187.4 310.1 187.4 310.8 188 311.5 188.6 311.5 189.65M302.5 190.9Q302.1 190.9 301.8 191.25 301.5 191.6 301.5 192.1 301.5 192.65 301.8 193 302.1 193.35 302.5 193.35 302.95 193.35 303.2 193 303.5 192.65 303.5 192.1 303.5 191.6 303.2 191.25 302.95 190.9 302.5 190.9M295.2 182.2L299.8 182.2 299.8 180.65 294 180.65 293.45 187.25 295.8 187.25Q297.5 187.25 298.25 187.85 298.9 188.4 298.9 189.55 298.9 190.6 298.25 191.2 297.6 191.8 296.45 191.8 294.55 191.8 293.35 190.45L292.7 191.85Q294.1 193.4 296.45 193.4 298.35 193.4 299.4 192.25 300.35 191.2 300.35 189.45 300.35 185.65 296.1 185.65L294.95 185.65 295.2 182.2M402.95 138.35Q402.95 137.85 402.65 137.5 402.4 137.15 401.95 137.15 401.55 137.15 401.25 137.5 400.95 137.85 400.95 138.35 400.95 138.9 401.25 139.25 401.55 139.6 401.95 139.6 402.4 139.6 402.65 139.25 402.95 138.9 402.95 138.35M398.25 127.7Q397.25 126.75 395.55 126.75 393.9 126.75 392.9 127.7 391.85 128.6 391.85 130.15 391.85 132.05 393.3 132.9 391.5 133.75 391.5 135.95 391.5 137.65 392.6 138.65 393.7 139.65 395.55 139.65 397.45 139.65 398.55 138.65 399.65 137.65 399.65 135.95 399.65 133.75 397.85 132.9 399.3 132.05 399.3 130.15 399.3 128.6 398.25 127.7M395.55 128.2Q396.6 128.2 397.2 128.75 397.85 129.3 397.85 130.25 397.85 131.2 397.25 131.7 396.65 132.25 395.55 132.25 394.5 132.25 393.9 131.7 393.3 131.2 393.3 130.25 393.3 129.3 393.9 128.75 394.55 128.2 395.55 128.2M397.5 134.25Q398.2 134.85 398.2 135.9 398.2 136.95 397.5 137.55 396.8 138.2 395.55 138.2 394.35 138.2 393.65 137.55 392.95 136.95 392.95 135.9 392.95 134.85 393.65 134.25 394.35 133.65 395.55 133.65 396.8 133.65 397.5 134.25M404.15 126.9L404.15 128.45 409.1 128.45 406.5 132.35 406.5 133.6 407.35 133.6Q409.85 133.6 409.85 135.8 409.85 136.85 409.25 137.45 408.6 138.05 407.45 138.05 405.55 138.05 404.35 136.7L403.65 138.1Q405.05 139.65 407.45 139.65 409.35 139.65 410.35 138.5 411.35 137.45 411.35 135.8 411.35 134.3 410.55 133.35 409.75 132.35 408.25 132.2L410.9 128.15 410.9 126.9 404.15 126.9M495.1 97.65Q495.55 97.65 495.8 97.3 496.1 96.95 496.1 96.4 496.1 95.9 495.8 95.55 495.55 95.2 495.1 95.2 494.7 95.2 494.4 95.55 494.1 95.9 494.1 96.4 494.1 96.95 494.4 97.3 494.7 97.65 495.1 97.65M491.65 86.45Q490.5 84.8 488.45 84.8 486.85 84.8 485.85 85.9 484.8 87 484.8 88.8 484.8 90.5 485.8 91.55 486.75 92.6 488.3 92.6 490.4 92.6 491.3 90.95L491.3 91.4Q491.3 93.7 490.35 94.95 489.45 96.15 487.9 96.15 486.65 96.15 485.9 95.55L485.35 96.95Q486.3 97.7 487.9 97.7 490.1 97.7 491.4 96 492.75 94.25 492.75 91.1 492.75 88.1 491.65 86.45M490.3 90.45Q489.6 91.15 488.55 91.15 487.5 91.15 486.85 90.5 486.25 89.8 486.25 88.7 486.25 87.6 486.85 86.9 487.5 86.25 488.5 86.25 489.65 86.25 490.3 87 490.95 87.65 490.95 88.7 490.95 89.75 490.3 90.45M504.85 85.55Q503.9 84.8 502.3 84.8 500.1 84.8 498.8 86.5 497.45 88.25 497.45 91.4 497.45 94.4 498.6 96.05 499.7 97.7 501.75 97.7 503.35 97.7 504.35 96.6 505.4 95.5 505.4 93.7 505.4 92 504.4 90.95 503.45 89.9 501.9 89.9 499.85 89.9 498.95 91.55L498.9 91.1Q498.9 88.8 499.85 87.55 500.75 86.35 502.35 86.35 503.6 86.35 504.3 86.95L504.85 85.55M501.65 91.35Q502.7 91.35 503.35 92 504 92.7 504 93.8 504 94.9 503.35 95.55 502.7 96.25 501.7 96.25 500.55 96.25 499.9 95.5 499.25 94.85 499.25 93.8 499.25 92.75 499.95 92.05 500.6 91.35 501.65 91.35M575.7 50.1L575.7 51.65 578.05 51.65 578.05 62.7 579.5 62.7 579.5 50.1 575.7 50.1M581.1 50.1L581.1 51.65 583.45 51.65 583.45 62.7 584.9 62.7 584.9 50.1 581.1 50.1M588.05 60.35Q587.65 60.35 587.35 60.7 587.05 61.05 587.05 61.55 587.05 62.1 587.35 62.45 587.65 62.8 588.05 62.8 588.5 62.8 588.75 62.45 589.05 62.1 589.05 61.55 589.05 61.05 588.75 60.7 588.5 60.35 588.05 60.35M597.6 61.15Q598.8 59.4 598.8 56.4 598.8 53.4 597.6 51.65 596.45 49.95 594.6 49.95 592.75 49.95 591.6 51.65 590.4 53.4 590.4 56.4 590.4 59.4 591.6 61.15 592.75 62.85 594.6 62.85 596.45 62.85 597.6 61.15M592.65 52.75Q593.35 51.55 594.6 51.55 595.85 51.55 596.55 52.75 597.3 54.05 597.3 56.4 597.3 58.75 596.55 60.05 595.85 61.25 594.6 61.25 593.35 61.25 592.65 60.05 591.85 58.75 591.85 56.4 591.85 54.05 592.65 52.75Z"/></g><animate attributeName="display" fill="freeze" repeatCount="1" dur="1.172s" keyTimes="0;.588;1" values="none;inline;inline"/></g><g display="none"><g id="Symbol-77" transform="translate(42.05 166.45)" opacity=".1"><animateTransform attributeName="transform" additive="replace" type="translate" dur="1.172s" keyTimes="0;.147;.53;1" values="42.05,166.45;42.05,166.45;62.05,166.45;62.05,166.45" keySplines=".25 .5 .5 1;.25 .5 .5 1;.1 .1 .9 .9" calcMode="spline" fill="freeze"/><animate attributeName="opacity" dur="1.172s" keyTimes="0;.147;.53;1" values=".1;.1;1;1" keySplines=".25 .5 .5 1;.25 .5 .5 1;.1 .1 .9 .9" calcMode="spline" fill="freeze"/><path fill="#F1F1F2" stroke="none" d="M370.2 -38.4L62.8 -38.4 62.8 58.35 370.2 58.35 370.2 -38.4M92.95 -11.75Q94.7 -13.5 97.15 -13.5 99.6 -13.5 101.35 -11.75 101.6 -11.5 101.8 -11.25 102.2 -10.75 102.5 -10.2 102.561 -10.077 102.6 -9.95L117.6 -17.4 102.6 -9.95Q103.1 -8.851 103.1 -7.55 103.1 -5.45 101.8 -3.85 101.6 -3.6 101.35 -3.35 99.6 -1.6 97.15 -1.6 94.7 -1.6 92.95 -3.35 92.333 -3.966 91.95 -4.65L79.45 1.55 91.95 -4.65Q91.809 -4.924 91.7 -5.2 91.2 -6.3 91.2 -7.55 91.2 -10 92.95 -11.75M136.2 -15.35L137.95 -15.35 137.95 -11.55Q138.85 -12.5 140.45 -12.5 143.35 -12.6 143.55 -9.25L143.55 -4.95 141.8 -4.95 141.8 -9Q141.75 -11 140.05 -11 138.05 -11 137.95 -8.75L137.95 -4.95 136.2 -4.95 136.2 -15.35M127.35 -9.85Q127.55 -6.6 130.85 -6.4 132.35 -6.4 133.45 -7.55L134.65 -6.45Q133.2 -4.85 130.75 -4.8 125.85 -5.15 125.5 -9.85 125.85 -14.6 130.75 -14.9 133.2 -14.9 134.65 -13.25L133.45 -12.15Q132.4 -13.3 130.85 -13.3 127.55 -13.1 127.35 -9.85M154.3 -12.4L155.95 -12.4 155.95 -11.45Q156.85 -12.5 158.55 -12.5 161.45 -12.55 161.65 -9.2L161.65 -4.95 159.9 -4.95 159.9 -9Q159.85 -11 158.15 -10.95 156.15 -11 156.05 -8.7L156.05 -4.95 154.3 -4.95 154.3 -12.4M148.35 -9.3L150.3 -9.3 150.3 -9.4Q150.3 -11 148.45 -11.05 147.1 -11 146.15 -10.3L145.45 -11.6Q146.75 -12.5 148.65 -12.5 151.95 -12.55 152.05 -9.3L152.05 -4.95 150.4 -4.95 150.4 -5.85Q149.75 -4.85 148.05 -4.85 145.35 -5 145.25 -7.1 145.1 -9.1 148.35 -9.3M163.85 -12.4L165.5 -12.4 165.5 -11.45Q166.4 -12.5 168.1 -12.5 171 -12.55 171.2 -9.2L171.2 -4.95 169.45 -4.95 169.45 -9Q169.4 -11 167.7 -10.95 165.7 -11 165.6 -8.7L165.6 -4.95 163.85 -4.95 163.85 -12.4M180.55 -8.65Q180.55 -8.4 180.5 -8.1L174.65 -8.1Q175.05 -6.4 177.05 -6.3 178.35 -6.3 179.1 -7.15L180.05 -6.05Q179 -4.85 177.05 -4.85 173.1 -5.1 172.9 -8.7 173.15 -12.25 176.75 -12.5 180.3 -12.3 180.55 -8.65M182.25 -15.35L184 -15.35 184 -4.95 182.25 -4.95 182.25 -15.35M192.1 -4.95L190.3 -4.95 190.3 -14.75 194.35 -14.75Q198.35 -14.65 198.5 -11.25 198.35 -7.9 194.35 -7.75L192.1 -7.75 192.1 -4.95M202.35 -4.85Q199.65 -5 199.55 -7.1 199.4 -9.1 202.65 -9.3L204.6 -9.3 204.6 -9.4Q204.6 -11 202.75 -11.05 201.4 -11 200.45 -10.3L199.75 -11.6Q201.05 -12.5 202.95 -12.5 206.25 -12.55 206.35 -9.3L206.35 -4.95 204.7 -4.95 204.7 -5.85Q204.05 -4.85 202.35 -4.85M213.7 -12.4L214.95 -12.4 214.95 -14.1 216.7 -14.1 216.7 -12.4 218.7 -12.4 218.7 -11 216.7 -11 216.7 -7.45Q216.7 -6.3 217.7 -6.3 218.3 -6.3 218.7 -6.6L219.2 -5.35Q218.5 -4.9 217.5 -4.85 215 -4.9 214.95 -7.4L214.95 -11 213.7 -11 213.7 -12.4M220.6 -12.4L222.25 -12.4 222.25 -11.45Q223.15 -12.5 224.85 -12.5 227.75 -12.55 227.95 -9.2L227.95 -4.95 226.2 -4.95 226.2 -9Q226.15 -11 224.45 -10.95 222.45 -11 222.35 -8.7L222.35 -4.95 220.6 -4.95 220.6 -12.4M208.6 -12.4L210.25 -12.4 210.25 -11.3Q211.05 -12.5 212.95 -12.5L212.95 -10.85Q212.7 -10.85 212.5 -10.85 210.45 -10.85 210.35 -8.55L210.35 -4.95 208.6 -4.95 208.6 -12.4M239 -12.4L240.65 -12.4 240.65 -11.3Q241.45 -12.5 243.35 -12.5L243.35 -10.85Q243.1 -10.85 242.9 -10.85 240.85 -10.85 240.75 -8.55L240.75 -4.95 239 -4.95 239 -12.4M236.8 -6.05Q235.75 -4.85 233.8 -4.85 229.85 -5.1 229.65 -8.7 229.9 -12.25 233.5 -12.5 237.05 -12.3 237.3 -8.65 237.3 -8.4 237.25 -8.1L231.4 -8.1Q231.8 -6.4 233.8 -6.3 235.1 -6.3 235.85 -7.15L236.8 -6.05M255.6 -14.75Q255.5 -13.75 254.45 -13.65 253.45 -13.75 253.35 -14.7 253.45 -15.65 254.45 -15.75 255.5 -15.7 255.6 -14.75M257.65 -12.4L259.3 -12.4 259.3 -11.45Q260.2 -12.5 261.9 -12.5 264.8 -12.55 265 -9.2L265 -4.95 263.25 -4.95 263.25 -9Q263.2 -11 261.5 -10.95 259.5 -11 259.4 -8.7L259.4 -4.95 257.65 -4.95 257.65 -12.4M253.6 -12.4L255.35 -12.4 255.35 -4.95 253.6 -4.95 253.6 -12.4M250.45 -15.35L252.15 -15.35Q250.4 -12.35 250.45 -8.8 250.45 -5.25 252.15 -2.25L250.45 -2.25Q248.8 -4.85 248.75 -8.8 248.8 -12.75 250.45 -15.35M277.05 -15.35L278.8 -15.35 278.8 -11.55Q279.7 -12.5 281.3 -12.5 284.2 -12.6 284.4 -9.25L284.4 -4.95 282.65 -4.95 282.65 -9Q282.6 -11 280.9 -11 278.9 -11 278.8 -8.75L278.8 -4.95 277.05 -4.95 277.05 -15.35M273.1 -14.1L273.1 -12.4 275.1 -12.4 275.1 -11 273.1 -11 273.1 -7.45Q273.1 -6.3 274.1 -6.3 274.7 -6.3 275.1 -6.6L275.6 -5.35Q274.9 -4.9 273.9 -4.85 271.4 -4.9 271.35 -7.4L271.35 -11 270.1 -11 270.1 -12.4 271.35 -12.4 271.35 -14.1 273.1 -14.1M295.65 -12.4L297.4 -12.4 297.4 -8.35Q297.45 -6.35 299.15 -6.35 301.1 -6.35 301.2 -8.6L301.2 -12.4 302.95 -12.4 302.95 -4.9 301.3 -4.9 301.3 -5.85Q300.4 -4.85 298.85 -4.8 295.85 -4.8 295.65 -8.15L295.65 -12.4M290.05 -4.85Q286.3 -5.05 286.05 -8.7 286.3 -12.25 290.05 -12.5 293.75 -12.25 294 -8.7 293.75 -5.05 290.05 -4.85M320.95 -12.4L322.6 -12.4 322.6 -11.45Q323.5 -12.5 325.2 -12.5 328.1 -12.55 328.3 -9.2L328.3 -4.95 326.55 -4.95 326.55 -9Q326.5 -11 324.8 -10.95 322.8 -11 322.7 -8.7L322.7 -4.95 320.95 -4.95 320.95 -12.4M310.7 -11.85L310.05 -10.5Q308.95 -11.15 307.9 -11.1 306.3 -11.05 306.35 -10.25 306.65 -9.35 308.65 -9.25 310.65 -9.1 310.95 -7.15 310.85 -4.95 307.55 -4.85 305.55 -4.9 304.4 -5.7L305.05 -7Q306.15 -6.3 307.7 -6.25 309.3 -6.3 309.25 -7.1 308.95 -7.95 306.95 -8.05 304.9 -8.15 304.6 -10.15 304.75 -12.4 307.9 -12.5 309.55 -12.5 310.7 -11.85M312.85 -10.3L312.15 -11.6Q313.45 -12.5 315.35 -12.5 318.65 -12.55 318.75 -9.3L318.75 -4.95 317.1 -4.95 317.1 -5.85Q316.45 -4.85 314.75 -4.85 312.05 -5 311.95 -7.1 311.8 -9.1 315.05 -9.3L317 -9.3 317 -9.4Q317 -11 315.15 -11.05 313.8 -11 312.85 -10.3M339.4 -15.35L341.05 -15.35Q342.75 -12.75 342.8 -8.8 342.75 -4.85 341.05 -2.25L339.4 -2.25Q341.1 -5.25 341.05 -8.8 341.1 -12.35 339.4 -15.35M336.2 -15.35L337.95 -15.35 337.95 -4.95 336.25 -4.95 336.25 -5.9Q335.35 -4.85 333.8 -4.85 330.25 -5.05 330 -8.7 330.25 -12.35 333.8 -12.5 335.25 -12.55 336.2 -11.5L336.2 -15.35M339.35 26.25L339.35 30.05Q340.25 29.1 341.85 29.1 344.75 29 344.95 32.35L344.95 36.65 343.2 36.65 343.2 32.6Q343.15 30.6 341.45 30.6 339.45 30.6 339.35 32.85L339.35 36.65 337.6 36.65 337.6 26.25 339.35 26.25M336.45 36.65L334.35 36.65 331.75 33.45 330.45 34.65 330.45 36.65 328.7 36.65 328.7 26.25 330.45 26.25 330.45 32.55 334.1 29.15 336.2 29.15 333.05 32.3 336.45 36.65M324.7 32.3L324.7 32.2Q324.7 30.6 322.85 30.55 321.5 30.6 320.55 31.3L319.85 30Q321.15 29.1 323.05 29.1 326.35 29.05 326.45 32.3L326.45 36.65 324.8 36.65 324.8 35.75Q324.15 36.75 322.45 36.75 319.75 36.6 319.65 34.5 319.5 32.5 322.75 32.3L324.7 32.3M349.75 32.8Q349.7 36.75 348 39.35L346.35 39.35Q348.05 36.35 348 32.8 348.05 29.25 346.35 26.25L348 26.25Q349.7 28.85 349.75 32.8M299.5 25.85Q300.55 25.9 300.65 26.85 300.55 27.85 299.5 27.95 298.5 27.85 298.4 26.9 298.5 25.95 299.5 25.85M295.55 26.25L297.25 26.25Q295.5 29.25 295.55 32.8 295.55 36.35 297.25 39.35L295.55 39.35Q293.9 36.75 293.85 32.8 293.9 28.85 295.55 26.25M298.65 36.65L298.65 29.2 300.4 29.2 300.4 36.65 298.65 36.65M302.7 36.65L302.7 29.2 304.35 29.2 304.35 30.15Q305.25 29.1 306.95 29.1 309.85 29.05 310.05 32.4L310.05 36.65 308.3 36.65 308.3 32.6Q308.25 30.6 306.55 30.65 304.55 30.6 304.45 32.9L304.45 36.65 302.7 36.65M284.25 27.5L286 27.5 286 29.2 288 29.2 288 30.6 286 30.6 286 34.15Q286 35.3 287 35.3 287.6 35.3 288 35L288.5 36.25Q287.8 36.7 286.8 36.75 284.3 36.7 284.25 34.2L284.25 30.6 283 30.6 283 29.2 284.25 29.2 284.25 27.5M316.15 26.25L317.9 26.25 317.9 36.65 316.15 36.65 316.15 26.25M259.25 29.1Q262.95 29.35 263.2 32.9 262.95 36.55 259.25 36.75 255.5 36.55 255.25 32.9 255.5 29.35 259.25 29.1M243.25 29.1Q245.5 29.1 246.45 30.85L245.1 31.6Q244.4 30.55 243.25 30.6 241.15 30.65 240.95 32.9 241.15 35.2 243.25 35.25 244.4 35.3 245.1 34.25L246.45 35Q245.5 36.75 243.25 36.75 239.45 36.55 239.2 32.9 239.45 29.35 243.25 29.1M251.25 35.25Q252.4 35.3 253.1 34.25L254.45 35Q253.5 36.75 251.25 36.75 247.45 36.55 247.2 32.9 247.45 29.35 251.25 29.1 253.5 29.1 254.45 30.85L253.1 31.6Q252.4 30.55 251.25 30.6 249.15 30.65 248.95 32.9 249.15 35.2 251.25 35.25M276.05 29.2L276.05 30.15Q276.95 29.1 278.65 29.1 281.55 29.05 281.75 32.4L281.75 36.65 280 36.65 280 32.6Q279.95 30.6 278.25 30.65 276.25 30.6 276.15 32.9L276.15 36.65 274.4 36.65 274.4 29.2 276.05 29.2M270.35 29.15L272.1 29.15 272.1 36.65 270.45 36.65 270.45 35.7Q269.55 36.7 268 36.75 265 36.75 264.8 33.4L264.8 29.15 266.55 29.15 266.55 33.2Q266.6 35.2 268.3 35.2 270.25 35.2 270.35 32.95L270.35 29.15M214.3 30.1L214.3 26.25 216.05 26.25 216.05 36.65 214.35 36.65 214.35 35.7Q213.45 36.75 211.9 36.75 208.35 36.55 208.1 32.9 208.35 29.25 211.9 29.1 213.35 29.05 214.3 30.1M222.3 34.5Q222 33.65 220 33.55 217.95 33.45 217.65 31.45 217.8 29.2 220.95 29.1 222.6 29.1 223.75 29.75L223.1 31.1Q222 30.45 220.95 30.5 219.35 30.55 219.4 31.35 219.7 32.25 221.7 32.35 223.7 32.5 224 34.45 223.9 36.65 220.6 36.75 218.6 36.7 217.45 35.9L218.1 34.6Q219.2 35.3 220.75 35.35 222.35 35.3 222.3 34.5M206.4 32.4L206.4 36.65 204.65 36.65 204.65 32.6Q204.6 30.6 202.9 30.65 200.9 30.6 200.8 32.9L200.8 36.65 199.05 36.65 199.05 29.2 200.7 29.2 200.7 30.15Q201.6 29.1 203.3 29.1 206.2 29.05 206.4 32.4M234.35 26.85L238.8 36.65 236.9 36.65 235.9 34.4 231 34.4 230.05 36.65 228.15 36.65 232.55 26.85 234.35 26.85M174.65 26.25L174.65 36.65 172.9 36.65 172.9 26.25 174.65 26.25M180.95 36.65L180.95 26.85 188.1 26.85 188.1 28.4 182.75 28.4 182.75 31.35 187.5 31.35 187.5 32.9 182.75 32.9 182.75 36.65 180.95 36.65M163.85 34.5Q163.7 32.5 166.95 32.3L168.9 32.3 168.9 32.2Q168.9 30.6 167.05 30.55 165.7 30.6 164.75 31.3L164.05 30Q165.35 29.1 167.25 29.1 170.55 29.05 170.65 32.3L170.65 36.65 169 36.65 169 35.75Q168.35 36.75 166.65 36.75 163.95 36.6 163.85 34.5M162.1 29.15L162.1 36.65 160.45 36.65 160.45 35.7Q159.55 36.7 158 36.75 155 36.75 154.8 33.4L154.8 29.15 156.55 29.15 156.55 33.2Q156.6 35.2 158.3 35.2 160.25 35.2 160.35 32.95L160.35 29.15 162.1 29.15M195 29.15L196.75 29.15 196.75 36.65 195.1 36.65 195.1 35.7Q194.2 36.7 192.65 36.75 189.65 36.75 189.45 33.4L189.45 29.15 191.2 29.15 191.2 33.2Q191.25 35.2 192.95 35.2 194.9 35.2 195 32.95L195 29.15M136.95 36.65L135.2 36.65 135.2 30.15 131.95 35.55 131.15 35.55 127.95 30.25 127.95 36.65 126.2 36.65 126.2 26.85 127.7 26.85 131.6 33.35 135.4 26.85 136.9 26.85 136.95 36.65M139.35 29.15L141.1 29.15 141.1 33.2Q141.15 35.2 142.85 35.2 144.8 35.2 144.9 32.95L144.9 29.15 146.65 29.15 146.65 36.65 145 36.65 145 35.7Q144.1 36.7 142.55 36.75 139.55 36.75 139.35 33.4L139.35 29.15M152.9 29.2L152.9 30.6 150.9 30.6 150.9 34.15Q150.9 35.3 151.9 35.3 152.5 35.3 152.9 35L153.4 36.25Q152.7 36.7 151.7 36.75 149.2 36.7 149.15 34.2L149.15 30.6 147.9 30.6 147.9 29.2 149.15 29.2 149.15 27.5 150.9 27.5 150.9 29.2 152.9 29.2M88.6 25.15L111.7 25.15 111.7 40.2 88.6 40.2 88.6 25.15M165.55 34.45Q165.6 35.45 167 35.5 168.35 35.5 168.9 34.35L168.9 33.45 167.1 33.45Q165.45 33.55 165.55 34.45M235.3 32.95L233.45 28.65 231.6 32.95 235.3 32.95M209.85 32.9Q210.05 35.15 212.1 35.25 214.15 35.15 214.3 32.9 214.15 30.65 212.1 30.55 210.05 30.65 209.85 32.9M257 32.9Q257.2 35.15 259.25 35.25 261.3 35.15 261.45 32.9 261.3 30.7 259.25 30.6 257.15 30.7 257 32.9M324.7 34.35L324.7 33.45 322.9 33.45Q321.25 33.55 321.35 34.45 321.4 35.45 322.8 35.5 324.15 35.5 324.7 34.35M334 -11.05Q331.95 -10.95 331.75 -8.7 331.95 -6.45 334 -6.35 336.05 -6.45 336.2 -8.7 336.05 -10.95 334 -11.05M317 -8.15L315.2 -8.15Q313.55 -8.05 313.65 -7.15 313.7 -6.15 315.1 -6.1 316.45 -6.1 317 -7.25L317 -8.15M287.8 -8.7Q288 -6.45 290.05 -6.35 292.1 -6.45 292.25 -8.7 292.1 -10.9 290.05 -11 287.95 -10.9 287.8 -8.7M235.65 -9.3Q235.35 -11 233.5 -11.1 231.75 -11 231.4 -9.3L235.65 -9.3M204.6 -7.25L204.6 -8.15 202.8 -8.15Q201.15 -8.05 201.25 -7.15 201.3 -6.15 202.7 -6.1 204.05 -6.1 204.6 -7.25M194.25 -9.3Q196.65 -9.35 196.65 -11.25 196.65 -13.15 194.25 -13.2L192.1 -13.2 192.1 -9.3 194.25 -9.3M176.75 -11.1Q175 -11 174.65 -9.3L178.9 -9.3Q178.6 -11 176.75 -11.1M148.5 -8.15Q146.85 -8.05 146.95 -7.15 147 -6.15 148.4 -6.1 149.75 -6.1 150.3 -7.25L150.3 -8.15 148.5 -8.15Z"/><path fill="#FAC200" stroke="none" d="M111.7 25.15L88.6 25.15 88.6 40.2 111.7 40.2 111.7 25.15Z"/><path fill="#404041" stroke="none" d="M152.9 30.6L152.9 29.2 150.9 29.2 150.9 27.5 149.15 27.5 149.15 29.2 147.9 29.2 147.9 30.6 149.15 30.6 149.15 34.2Q149.2 36.7 151.7 36.75 152.7 36.7 153.4 36.25L152.9 35Q152.5 35.3 151.9 35.3 150.9 35.3 150.9 34.15L150.9 30.6 152.9 30.6M141.1 29.15L139.35 29.15 139.35 33.4Q139.55 36.75 142.55 36.75 144.1 36.7 145 35.7L145 36.65 146.65 36.65 146.65 29.15 144.9 29.15 144.9 32.95Q144.8 35.2 142.85 35.2 141.15 35.2 141.1 33.2L141.1 29.15M135.2 36.65L136.95 36.65 136.9 26.85 135.4 26.85 131.6 33.35 127.7 26.85 126.2 26.85 126.2 36.65 127.95 36.65 127.95 30.25 131.15 35.55 131.95 35.55 135.2 30.15 135.2 36.65M196.75 29.15L195 29.15 195 32.95Q194.9 35.2 192.95 35.2 191.25 35.2 191.2 33.2L191.2 29.15 189.45 29.15 189.45 33.4Q189.65 36.75 192.65 36.75 194.2 36.7 195.1 35.7L195.1 36.65 196.75 36.65 196.75 29.15M162.1 36.65L162.1 29.15 160.35 29.15 160.35 32.95Q160.25 35.2 158.3 35.2 156.6 35.2 156.55 33.2L156.55 29.15 154.8 29.15 154.8 33.4Q155 36.75 158 36.75 159.55 36.7 160.45 35.7L160.45 36.65 162.1 36.65M166.95 32.3Q163.7 32.5 163.85 34.5 163.95 36.6 166.65 36.75 168.35 36.75 169 35.75L169 36.65 170.65 36.65 170.65 32.3Q170.55 29.05 167.25 29.1 165.35 29.1 164.05 30L164.75 31.3Q165.7 30.6 167.05 30.55 168.9 30.6 168.9 32.2L168.9 32.3 166.95 32.3M167 35.5Q165.6 35.45 165.55 34.45 165.45 33.55 167.1 33.45L168.9 33.45 168.9 34.35Q168.35 35.5 167 35.5M180.95 26.85L180.95 36.65 182.75 36.65 182.75 32.9 187.5 32.9 187.5 31.35 182.75 31.35 182.75 28.4 188.1 28.4 188.1 26.85 180.95 26.85M174.65 36.65L174.65 26.25 172.9 26.25 172.9 36.65 174.65 36.65M238.8 36.65L234.35 26.85 232.55 26.85 228.15 36.65 230.05 36.65 231 34.4 235.9 34.4 236.9 36.65 238.8 36.65M233.45 28.65L235.3 32.95 231.6 32.95 233.45 28.65M206.4 36.65L206.4 32.4Q206.2 29.05 203.3 29.1 201.6 29.1 200.7 30.15L200.7 29.2 199.05 29.2 199.05 36.65 200.8 36.65 200.8 32.9Q200.9 30.6 202.9 30.65 204.6 30.6 204.65 32.6L204.65 36.65 206.4 36.65M220 33.55Q222 33.65 222.3 34.5 222.35 35.3 220.75 35.35 219.2 35.3 218.1 34.6L217.45 35.9Q218.6 36.7 220.6 36.75 223.9 36.65 224 34.45 223.7 32.5 221.7 32.35 219.7 32.25 219.4 31.35 219.35 30.55 220.95 30.5 222 30.45 223.1 31.1L223.75 29.75Q222.6 29.1 220.95 29.1 217.8 29.2 217.65 31.45 217.95 33.45 220 33.55M214.3 26.25L214.3 30.1Q213.35 29.05 211.9 29.1 208.35 29.25 208.1 32.9 208.35 36.55 211.9 36.75 213.45 36.75 214.35 35.7L214.35 36.65 216.05 36.65 216.05 26.25 214.3 26.25M212.1 35.25Q210.05 35.15 209.85 32.9 210.05 30.65 212.1 30.55 214.15 30.65 214.3 32.9 214.15 35.15 212.1 35.25M272.1 29.15L270.35 29.15 270.35 32.95Q270.25 35.2 268.3 35.2 266.6 35.2 266.55 33.2L266.55 29.15 264.8 29.15 264.8 33.4Q265 36.75 268 36.75 269.55 36.7 270.45 35.7L270.45 36.65 272.1 36.65 272.1 29.15M276.05 30.15L276.05 29.2 274.4 29.2 274.4 36.65 276.15 36.65 276.15 32.9Q276.25 30.6 278.25 30.65 279.95 30.6 280 32.6L280 36.65 281.75 36.65 281.75 32.4Q281.55 29.05 278.65 29.1 276.95 29.1 276.05 30.15M253.1 34.25Q252.4 35.3 251.25 35.25 249.15 35.2 248.95 32.9 249.15 30.65 251.25 30.6 252.4 30.55 253.1 31.6L254.45 30.85Q253.5 29.1 251.25 29.1 247.45 29.35 247.2 32.9 247.45 36.55 251.25 36.75 253.5 36.75 254.45 35L253.1 34.25M246.45 30.85Q245.5 29.1 243.25 29.1 239.45 29.35 239.2 32.9 239.45 36.55 243.25 36.75 245.5 36.75 246.45 35L245.1 34.25Q244.4 35.3 243.25 35.25 241.15 35.2 240.95 32.9 241.15 30.65 243.25 30.6 244.4 30.55 245.1 31.6L246.45 30.85M263.2 32.9Q262.95 29.35 259.25 29.1 255.5 29.35 255.25 32.9 255.5 36.55 259.25 36.75 262.95 36.55 263.2 32.9M259.25 35.25Q257.2 35.15 257 32.9 257.15 30.7 259.25 30.6 261.3 30.7 261.45 32.9 261.3 35.15 259.25 35.25M317.9 26.25L316.15 26.25 316.15 36.65 317.9 36.65 317.9 26.25M286 27.5L284.25 27.5 284.25 29.2 283 29.2 283 30.6 284.25 30.6 284.25 34.2Q284.3 36.7 286.8 36.75 287.8 36.7 288.5 36.25L288 35Q287.6 35.3 287 35.3 286 35.3 286 34.15L286 30.6 288 30.6 288 29.2 286 29.2 286 27.5M302.7 29.2L302.7 36.65 304.45 36.65 304.45 32.9Q304.55 30.6 306.55 30.65 308.25 30.6 308.3 32.6L308.3 36.65 310.05 36.65 310.05 32.4Q309.85 29.05 306.95 29.1 305.25 29.1 304.35 30.15L304.35 29.2 302.7 29.2M298.65 29.2L298.65 36.65 300.4 36.65 300.4 29.2 298.65 29.2M297.25 26.25L295.55 26.25Q293.9 28.85 293.85 32.8 293.9 36.75 295.55 39.35L297.25 39.35Q295.55 36.35 295.55 32.8 295.5 29.25 297.25 26.25M300.65 26.85Q300.55 25.9 299.5 25.85 298.5 25.95 298.4 26.9 298.5 27.85 299.5 27.95 300.55 27.85 300.65 26.85M348 39.35Q349.7 36.75 349.75 32.8 349.7 28.85 348 26.25L346.35 26.25Q348.05 29.25 348 32.8 348.05 36.35 346.35 39.35L348 39.35M324.7 32.2L324.7 32.3 322.75 32.3Q319.5 32.5 319.65 34.5 319.75 36.6 322.45 36.75 324.15 36.75 324.8 35.75L324.8 36.65 326.45 36.65 326.45 32.3Q326.35 29.05 323.05 29.1 321.15 29.1 319.85 30L320.55 31.3Q321.5 30.6 322.85 30.55 324.7 30.6 324.7 32.2M324.7 33.45L324.7 34.35Q324.15 35.5 322.8 35.5 321.4 35.45 321.35 34.45 321.25 33.55 322.9 33.45L324.7 33.45M334.35 36.65L336.45 36.65 333.05 32.3 336.2 29.15 334.1 29.15 330.45 32.55 330.45 26.25 328.7 26.25 328.7 36.65 330.45 36.65 330.45 34.65 331.75 33.45 334.35 36.65M339.35 30.05L339.35 26.25 337.6 26.25 337.6 36.65 339.35 36.65 339.35 32.85Q339.45 30.6 341.45 30.6 343.15 30.6 343.2 32.6L343.2 36.65 344.95 36.65 344.95 32.35Q344.75 29 341.85 29.1 340.25 29.1 339.35 30.05M337.95 -15.35L336.2 -15.35 336.2 -11.5Q335.25 -12.55 333.8 -12.5 330.25 -12.35 330 -8.7 330.25 -5.05 333.8 -4.85 335.35 -4.85 336.25 -5.9L336.25 -4.95 337.95 -4.95 337.95 -15.35M331.75 -8.7Q331.95 -10.95 334 -11.05 336.05 -10.95 336.2 -8.7 336.05 -6.45 334 -6.35 331.95 -6.45 331.75 -8.7M341.05 -15.35L339.4 -15.35Q341.1 -12.35 341.05 -8.8 341.1 -5.25 339.4 -2.25L341.05 -2.25Q342.75 -4.85 342.8 -8.8 342.75 -12.75 341.05 -15.35M312.15 -11.6L312.85 -10.3Q313.8 -11 315.15 -11.05 317 -11 317 -9.4L317 -9.3 315.05 -9.3Q311.8 -9.1 311.95 -7.1 312.05 -5 314.75 -4.85 316.45 -4.85 317.1 -5.85L317.1 -4.95 318.75 -4.95 318.75 -9.3Q318.65 -12.55 315.35 -12.5 313.45 -12.5 312.15 -11.6M315.2 -8.15L317 -8.15 317 -7.25Q316.45 -6.1 315.1 -6.1 313.7 -6.15 313.65 -7.15 313.55 -8.05 315.2 -8.15M310.05 -10.5L310.7 -11.85Q309.55 -12.5 307.9 -12.5 304.75 -12.4 304.6 -10.15 304.9 -8.15 306.95 -8.05 308.95 -7.95 309.25 -7.1 309.3 -6.3 307.7 -6.25 306.15 -6.3 305.05 -7L304.4 -5.7Q305.55 -4.9 307.55 -4.85 310.85 -4.95 310.95 -7.15 310.65 -9.1 308.65 -9.25 306.65 -9.35 306.35 -10.25 306.3 -11.05 307.9 -11.1 308.95 -11.15 310.05 -10.5M322.6 -12.4L320.95 -12.4 320.95 -4.95 322.7 -4.95 322.7 -8.7Q322.8 -11 324.8 -10.95 326.5 -11 326.55 -9L326.55 -4.95 328.3 -4.95 328.3 -9.2Q328.1 -12.55 325.2 -12.5 323.5 -12.5 322.6 -11.45L322.6 -12.4M286.05 -8.7Q286.3 -5.05 290.05 -4.85 293.75 -5.05 294 -8.7 293.75 -12.25 290.05 -12.5 286.3 -12.25 286.05 -8.7M290.05 -6.35Q288 -6.45 287.8 -8.7 287.95 -10.9 290.05 -11 292.1 -10.9 292.25 -8.7 292.1 -6.45 290.05 -6.35M297.4 -12.4L295.65 -12.4 295.65 -8.15Q295.85 -4.8 298.85 -4.8 300.4 -4.85 301.3 -5.85L301.3 -4.9 302.95 -4.9 302.95 -12.4 301.2 -12.4 301.2 -8.6Q301.1 -6.35 299.15 -6.35 297.45 -6.35 297.4 -8.35L297.4 -12.4M273.1 -12.4L273.1 -14.1 271.35 -14.1 271.35 -12.4 270.1 -12.4 270.1 -11 271.35 -11 271.35 -7.4Q271.4 -4.9 273.9 -4.85 274.9 -4.9 275.6 -5.35L275.1 -6.6Q274.7 -6.3 274.1 -6.3 273.1 -6.3 273.1 -7.45L273.1 -11 275.1 -11 275.1 -12.4 273.1 -12.4M278.8 -15.35L277.05 -15.35 277.05 -4.95 278.8 -4.95 278.8 -8.75Q278.9 -11 280.9 -11 282.6 -11 282.65 -9L282.65 -4.95 284.4 -4.95 284.4 -9.25Q284.2 -12.6 281.3 -12.5 279.7 -12.5 278.8 -11.55L278.8 -15.35M252.15 -15.35L250.45 -15.35Q248.8 -12.75 248.75 -8.8 248.8 -4.85 250.45 -2.25L252.15 -2.25Q250.45 -5.25 250.45 -8.8 250.4 -12.35 252.15 -15.35M255.35 -12.4L253.6 -12.4 253.6 -4.95 255.35 -4.95 255.35 -12.4M259.3 -12.4L257.65 -12.4 257.65 -4.95 259.4 -4.95 259.4 -8.7Q259.5 -11 261.5 -10.95 263.2 -11 263.25 -9L263.25 -4.95 265 -4.95 265 -9.2Q264.8 -12.55 261.9 -12.5 260.2 -12.5 259.3 -11.45L259.3 -12.4M254.45 -13.65Q255.5 -13.75 255.6 -14.75 255.5 -15.7 254.45 -15.75 253.45 -15.65 253.35 -14.7 253.45 -13.75 254.45 -13.65M233.8 -4.85Q235.75 -4.85 236.8 -6.05L235.85 -7.15Q235.1 -6.3 233.8 -6.3 231.8 -6.4 231.4 -8.1L237.25 -8.1Q237.3 -8.4 237.3 -8.65 237.05 -12.3 233.5 -12.5 229.9 -12.25 229.65 -8.7 229.85 -5.1 233.8 -4.85M233.5 -11.1Q235.35 -11 235.65 -9.3L231.4 -9.3Q231.75 -11 233.5 -11.1M240.65 -12.4L239 -12.4 239 -4.95 240.75 -4.95 240.75 -8.55Q240.85 -10.85 242.9 -10.85 243.1 -10.85 243.35 -10.85L243.35 -12.5Q241.45 -12.5 240.65 -11.3L240.65 -12.4M210.25 -12.4L208.6 -12.4 208.6 -4.95 210.35 -4.95 210.35 -8.55Q210.45 -10.85 212.5 -10.85 212.7 -10.85 212.95 -10.85L212.95 -12.5Q211.05 -12.5 210.25 -11.3L210.25 -12.4M222.25 -12.4L220.6 -12.4 220.6 -4.95 222.35 -4.95 222.35 -8.7Q222.45 -11 224.45 -10.95 226.15 -11 226.2 -9L226.2 -4.95 227.95 -4.95 227.95 -9.2Q227.75 -12.55 224.85 -12.5 223.15 -12.5 222.25 -11.45L222.25 -12.4M214.95 -12.4L213.7 -12.4 213.7 -11 214.95 -11 214.95 -7.4Q215 -4.9 217.5 -4.85 218.5 -4.9 219.2 -5.35L218.7 -6.6Q218.3 -6.3 217.7 -6.3 216.7 -6.3 216.7 -7.45L216.7 -11 218.7 -11 218.7 -12.4 216.7 -12.4 216.7 -14.1 214.95 -14.1 214.95 -12.4M199.55 -7.1Q199.65 -5 202.35 -4.85 204.05 -4.85 204.7 -5.85L204.7 -4.95 206.35 -4.95 206.35 -9.3Q206.25 -12.55 202.95 -12.5 201.05 -12.5 199.75 -11.6L200.45 -10.3Q201.4 -11 202.75 -11.05 204.6 -11 204.6 -9.4L204.6 -9.3 202.65 -9.3Q199.4 -9.1 199.55 -7.1M204.6 -8.15L204.6 -7.25Q204.05 -6.1 202.7 -6.1 201.3 -6.15 201.25 -7.15 201.15 -8.05 202.8 -8.15L204.6 -8.15M190.3 -4.95L192.1 -4.95 192.1 -7.75 194.35 -7.75Q198.35 -7.9 198.5 -11.25 198.35 -14.65 194.35 -14.75L190.3 -14.75 190.3 -4.95M196.65 -11.25Q196.65 -9.35 194.25 -9.3L192.1 -9.3 192.1 -13.2 194.25 -13.2Q196.65 -13.15 196.65 -11.25M184 -15.35L182.25 -15.35 182.25 -4.95 184 -4.95 184 -15.35M180.5 -8.1Q180.55 -8.4 180.55 -8.65 180.3 -12.3 176.75 -12.5 173.15 -12.25 172.9 -8.7 173.1 -5.1 177.05 -4.85 179 -4.85 180.05 -6.05L179.1 -7.15Q178.35 -6.3 177.05 -6.3 175.05 -6.4 174.65 -8.1L180.5 -8.1M174.65 -9.3Q175 -11 176.75 -11.1 178.6 -11 178.9 -9.3L174.65 -9.3M165.5 -12.4L163.85 -12.4 163.85 -4.95 165.6 -4.95 165.6 -8.7Q165.7 -11 167.7 -10.95 169.4 -11 169.45 -9L169.45 -4.95 171.2 -4.95 171.2 -9.2Q171 -12.55 168.1 -12.5 166.4 -12.5 165.5 -11.45L165.5 -12.4M150.3 -9.3L148.35 -9.3Q145.1 -9.1 145.25 -7.1 145.35 -5 148.05 -4.85 149.75 -4.85 150.4 -5.85L150.4 -4.95 152.05 -4.95 152.05 -9.3Q151.95 -12.55 148.65 -12.5 146.75 -12.5 145.45 -11.6L146.15 -10.3Q147.1 -11 148.45 -11.05 150.3 -11 150.3 -9.4L150.3 -9.3M146.95 -7.15Q146.85 -8.05 148.5 -8.15L150.3 -8.15 150.3 -7.25Q149.75 -6.1 148.4 -6.1 147 -6.15 146.95 -7.15M155.95 -12.4L154.3 -12.4 154.3 -4.95 156.05 -4.95 156.05 -8.7Q156.15 -11 158.15 -10.95 159.85 -11 159.9 -9L159.9 -4.95 161.65 -4.95 161.65 -9.2Q161.45 -12.55 158.55 -12.5 156.85 -12.5 155.95 -11.45L155.95 -12.4M130.85 -6.4Q127.55 -6.6 127.35 -9.85 127.55 -13.1 130.85 -13.3 132.4 -13.3 133.45 -12.15L134.65 -13.25Q133.2 -14.9 130.75 -14.9 125.85 -14.6 125.5 -9.85 125.85 -5.15 130.75 -4.8 133.2 -4.85 134.65 -6.45L133.45 -7.55Q132.35 -6.4 130.85 -6.4M137.95 -15.35L136.2 -15.35 136.2 -4.95 137.95 -4.95 137.95 -8.75Q138.05 -11 140.05 -11 141.75 -11 141.8 -9L141.8 -4.95 143.55 -4.95 143.55 -9.25Q143.35 -12.6 140.45 -12.5 138.85 -12.5 137.95 -11.55L137.95 -15.35Z"/><path fill="#31A52A" stroke="none" d="M97.15 -13.5Q94.7 -13.5 92.95 -11.75 91.2 -10 91.2 -7.55 91.2 -6.3 91.7 -5.2 91.809 -4.924 91.95 -4.65 92.333 -3.966 92.95 -3.35 94.7 -1.6 97.15 -1.6 99.6 -1.6 101.35 -3.35 101.6 -3.6 101.8 -3.85 103.1 -5.45 103.1 -7.55 103.1 -8.851 102.6 -9.95 102.561 -10.077 102.5 -10.2 102.2 -10.75 101.8 -11.25 101.6 -11.5 101.35 -11.75 99.6 -13.5 97.15 -13.5Z"/><path id="Layer50_0_1_STROKES" stroke="#999" stroke-width="2" stroke-linejoin="round" stroke-linecap="round" fill="none" d="M102.625 -9.95L117.6 -17.4M79.45 1.55L91.95 -4.65"/></g><animate attributeName="display" fill="freeze" repeatCount="1" dur="1.172s" keyTimes="0;.147;1" values="none;inline;inline"/></g></g></svg>