<?xml version="1.0" encoding="utf-8"?><svg id="sec1.9" image-rendering="auto" baseProfile="basic" version="1.1" x="0px" y="0px" width="1180" height="560" xmlns="http://www.w3.org/2000/svg" xmlns:xlink="http://www.w3.org/1999/xlink"><defs><linearGradient id="Gradient_1" gradientUnits="userSpaceOnUse" x1="45.762" y1="49.587" x2="11.737" y2="83.612" spreadMethod="pad"><stop offset="0%" stop-color="#FF3A44"/><stop offset="100%" stop-color="#C31162"/></linearGradient><linearGradient id="Gradient_2" gradientUnits="userSpaceOnUse" x1="41.3" y1="29" x2="16.099" y2="54.2" spreadMethod="pad"><stop offset="0%" stop-color="#00A0FF"/><stop offset=".784%" stop-color="#00A1FF"/><stop offset="25.882%" stop-color="#00BEFF"/><stop offset="51.372%" stop-color="#00D2FF"/><stop offset="76.078%" stop-color="#00DFFF"/><stop offset="100%" stop-color="#00E3FF"/></linearGradient><linearGradient id="Gradient_3" gradientUnits="userSpaceOnUse" x1="59.3" y1="46.1" x2="23.2" y2="46.1" spreadMethod="pad"><stop offset="0%" stop-color="#FFE000"/><stop offset="40.784%" stop-color="#FFBD00"/><stop offset="77.647%" stop-color="#FFA500"/><stop offset="100%" stop-color="#FF9C00"/></linearGradient><linearGradient id="Gradient_4" gradientUnits="userSpaceOnUse" x1="19.575" y1="16.325" x2="34.625" y2="31.375" spreadMethod="pad"><stop offset="0%" stop-color="#32A071"/><stop offset="7.058%" stop-color="#2DA771"/><stop offset="47.450%" stop-color="#15CF74"/><stop offset="80%" stop-color="#06E775"/><stop offset="100%" stop-color="#00F076"/></linearGradient></defs><g id="Scene-1r1" overflow="visible"><g display="none" id="Layer1_0_FILL"><path fill="#9E9E9E" stroke="none" d="M1160.15 488.9L1160.15 483.2 44.9 483.65 44.9 489.35Q602.525 489.125 1160.15 488.9Z"/><animate attributeName="display" fill="freeze" repeatCount="1" dur="1.583s" keyTimes="0;.263;1" values="none;inline;inline"/></g><g display="none"><g id="high_4" transform="matrix(.178 0 0 .178 619.15 165.8)"><animateTransform attributeName="transform" additive="replace" type="translate" dur="1.583s" keyTimes="0;.447;.711;1" values="637.954,177.312;637.954,177.312;637.95,177.3;637.95,177.3" keySplines=".25 .5 .5 1;.25 .5 .5 1;.1 .1 .9 .9" calcMode="spline" fill="freeze"/><animateTransform attributeName="transform" additive="sum" type="scale" dur="1.583s" keyTimes="0;.447;.711;1" values=".178,.178;.178,.178;1,1;1,1" keySplines=".25 .5 .5 1;.25 .5 .5 1;.1 .1 .9 .9" calcMode="spline" fill="freeze"/><animateTransform attributeName="transform" additive="sum" type="translate" dur="1.583s" keyTimes="0;.447;.711;1" values="-105.75,-64.85;-105.75,-64.85;-105.5,-64.5;-105.5,-64.5" keySplines=".25 .5 .5 1;.25 .5 .5 1;.1 .1 .9 .9" calcMode="spline" fill="freeze"/><path fill="url(#Gradient_1)" stroke="none" d="M24.35 64.85L24.25 64.75 24.2 64.85Q25.25 65.9 27.35 65L49.15 52.45 49.35 52.35 49.2 52.2 43 46 24.4 64.6Q25.704 65.566 27.35 64.55L38.3 58.45 27.35 64.85Q25.65 65.9 24.35 64.85Z"/><path fill="#000" stroke="none" d="M24.35 64.55L24.25 64.6 24.2 64.7 24.25 64.75 24.35 64.85Q25.65 65.9 27.35 64.85L38.3 58.45 27.35 64.55Q25.704 65.566 24.4 64.6 24.391 64.583 24.35 64.55M56.75 48.1Q58.163 47.271 58.25 46.1 58.154 47.029 56.75 47.95L49.2 52.2 49.35 52.35 56.75 48.1Z"/><path fill="url(#Gradient_2)" stroke="none" d="M23.55 28.8Q23.556 29.031 23.55 29.25L23.55 62.6Q23.55 63.838 24.25 64.6L24.35 64.55Q24.391 64.583 24.4 64.6L43 46 24.25 27.35Q23.704 27.878 23.55 28.8M23.6 28.6Q23.718 27.677 24.2 27.15L24.2 27.15Q23.703 27.608 23.6 28.6Z"/><path fill="url(#Gradient_3)" stroke="none" d="M49.2 39.75L43 46 49.2 52.2 56.75 47.95Q58.154 47.029 58.25 46.1 58.163 47.271 56.75 48.1L49.35 52.35 49.15 52.45 49.2 52.5 56.75 48.4Q58.35 47.5 58.35 46.25 58.35 45.750 58.1 45.3 58.227 45.593 58.25 45.9 58.154 44.970 56.75 44.05L49.2 39.75Z"/><path fill="url(#Gradient_4)" stroke="none" d="M43 46L49.2 39.75 27.35 27.3Q25.8 26.4 24.65 27.05 24.427 27.177 24.25 27.35L43 46M49.3 39.65L49.35 39.65 47.95 38.85 49.3 39.65Z"/><path fill="#FFF" stroke="none" d="M49.3 39.65L47.95 38.85 27.35 27.15Q25.75 26.25 24.65 26.85 24.408 26.981 24.2 27.15 23.718 27.677 23.6 28.6L23.55 28.8Q23.704 27.878 24.25 27.35 24.427 27.177 24.65 27.05 25.8 26.4 27.35 27.3L49.2 39.75 56.75 44.05Q58.154 44.970 58.25 45.9 58.227 45.593 58.1 45.3 57.793 44.511 56.75 43.9L49.3 39.65Z"/><path fill="#404041" stroke="none" d="M101.1 111.2Q100.15 110.15 98.6 110.15 96.95 110.15 96.05 111.2 95.15 112.2 95.15 114.05 95.15 115.25 95.55 116.1 96 117 96.75 117.45 97.55 117.95 98.55 117.95 100.15 117.95 101.1 116.9 102 115.9 102 114.05 102 112.25 101.1 111.2M96.3 114.05Q96.3 112.6 96.9 111.85 97.45 111.15 98.55 111.15 99.7 111.15 100.25 111.9 100.85 112.6 100.85 114.05 100.85 115.5 100.25 116.25 99.7 117 98.55 117 97.45 117 96.9 116.25 96.3 115.5 96.3 114.05M92.1 111.3L92.05 111.3Q91.2 110.15 89.7 110.15 88.25 110.15 87.4 111.2 86.6 112.2 86.6 114.05 86.6 115.95 87.4 116.95 88.2 117.95 89.7 117.95 91.25 117.95 92.05 116.8L92.1 116.8 92.25 117.8 93.2 117.8 93.2 107.15 92.05 107.15 92.05 110.75 92.1 111.3M88.3 116.25Q87.75 115.5 87.75 114.1 87.75 112.65 88.3 111.9 88.8 111.1 89.8 111.1 91 111.1 91.5 111.8 92.05 112.5 92.05 114.05L92.05 114.3Q92.05 115.7 91.5 116.35 91 117 89.85 117 88.8 117 88.3 116.25M120.15 110.85Q119.45 110.15 118.1 110.15 117.3 110.15 116.7 110.5 116.05 110.8 115.7 111.35L115.65 111.35 115.5 110.3 114.55 110.3 114.55 117.8 115.7 117.8 115.7 113.85Q115.7 112.4 116.25 111.75 116.8 111.15 117.95 111.15 118.85 111.15 119.25 111.6 119.7 112.05 119.7 112.95L119.7 117.8 120.8 117.8 120.8 112.9Q120.8 111.5 120.15 110.85M113.25 110.3L112.05 110.3 110.5 116.6 110.45 116.6Q110.3 115.8 109.9 114.6L108.6 110.3 107.35 110.3 105.45 116.6 105.4 116.6Q105.35 116.1 104.95 114.6L103.85 110.3 102.65 110.3 104.7 117.8 106 117.8 107.9 111.55 107.95 111.55 109.8 117.8 111.15 117.8 113.25 110.3M124.25 107.15L123.1 107.15 123.1 117.8 124.25 117.8 124.25 107.15M129.65 110.15Q128 110.15 127.1 111.2 126.2 112.2 126.2 114.05 126.2 115.25 126.6 116.1 127.05 117 127.8 117.45 128.6 117.95 129.6 117.95 131.2 117.95 132.15 116.9 133.05 115.9 133.05 114.05 133.05 112.25 132.15 111.2 131.2 110.15 129.65 110.15M127.35 114.05Q127.35 112.6 127.95 111.85 128.5 111.15 129.6 111.15 130.75 111.15 131.3 111.9 131.9 112.6 131.9 114.05 131.9 115.5 131.3 116.25 130.75 117 129.6 117 128.5 117 127.95 116.25 127.35 115.5 127.35 114.05M139.85 110.8Q139.2 110.2 137.85 110.2 137.2 110.2 136.55 110.35 135.9 110.55 135.35 110.85L135.7 111.7Q136.85 111.1 137.8 111.1 138.65 111.1 139 111.55 139.4 111.95 139.4 112.85L139.4 113.3 138.1 113.35Q134.5 113.45 134.5 115.75 134.5 116.8 135.15 117.35 135.75 117.95 136.85 117.95 137.7 117.95 138.25 117.7 138.8 117.45 139.4 116.75L139.45 116.75 139.65 117.8 140.5 117.8 140.5 112.7Q140.5 111.35 139.85 110.8M138.75 116.4Q138.15 117 137.1 117 136.45 117 136.05 116.7 135.7 116.35 135.7 115.75 135.7 114.95 136.3 114.6 136.9 114.2 138.25 114.15L139.35 114.1 139.35 114.8Q139.35 115.85 138.75 116.4M149 107.15L147.85 107.15 147.85 110.75 147.9 111.3 147.85 111.3Q147 110.15 145.5 110.15 144.05 110.15 143.2 111.2 142.4 112.2 142.4 114.05 142.4 115.95 143.2 116.95 144 117.95 145.5 117.95 147.05 117.95 147.85 116.8L147.9 116.8 148.05 117.8 149 117.8 149 107.15M147.85 114.3Q147.85 115.7 147.3 116.35 146.8 117 145.65 117 144.6 117 144.1 116.25 143.55 115.5 143.55 114.1 143.55 112.65 144.1 111.9 144.6 111.1 145.6 111.1 146.8 111.1 147.3 111.8 147.85 112.5 147.85 114.05L147.85 114.3M152.35 111.35Q152.8 111.1 153.6 111.1 154.5 111.1 155.65 111.6L156.05 110.65Q154.85 110.15 153.65 110.15 152.35 110.15 151.6 110.7 150.85 111.25 150.85 112.15 150.85 112.65 151.1 113.05 151.3 113.4 151.75 113.7 152.2 114 153.25 114.35 154.35 114.8 154.7 115.1 155.1 115.4 155.1 115.85 155.1 116.45 154.6 116.7 154.15 117 153.25 117 152.65 117 152.05 116.85 151.45 116.7 150.9 116.4L150.9 117.45Q151.75 117.95 153.2 117.95 154.65 117.95 155.4 117.35 156.2 116.8 156.2 115.75 156.2 115 155.7 114.5 155.25 114.05 153.9 113.55 152.95 113.2 152.6 113 152.25 112.8 152.1 112.6 151.95 112.35 151.95 112.05 151.95 111.65 152.35 111.35M58.5 107.8L57.55 107.8 54.9 109.85 55.5 110.65 57.45 109 57.4 117.8 58.5 117.8 58.5 107.8M78.65 109.45L77.7 109.45 77.7 112.4 74.9 112.4 74.9 113.35 77.7 113.35 77.7 116.25 78.65 116.25 78.65 113.35 81.5 113.35 81.5 112.4 78.65 112.4 78.65 109.45M71.75 108.95L71.8 108.95Q71.7 110.25 71.7 111.35L71.7 117.8 72.85 117.8 72.85 107.8 71.15 107.8 67.95 116.05 67.9 116.05 64.7 107.8 62.95 107.8 62.95 117.8 64.05 117.8 64.05 111.45Q64.05 110 63.95 108.95L64 108.95 67.4 117.8 68.35 117.8 71.75 108.95M63.6 86.05Q64.5 86.05 65.65 86.55L66.05 85.6Q64.85 85.1 63.65 85.1 62.35 85.1 61.6 85.65 60.85 86.2 60.85 87.1 60.85 87.6 61.1 88 61.3 88.35 61.75 88.65 62.2 88.95 63.25 89.3 64.35 89.75 64.7 90.05 65.1 90.35 65.1 90.8 65.1 91.4 64.6 91.65 64.15 91.95 63.25 91.95 62.65 91.95 62.05 91.8 61.45 91.65 60.9 91.35L60.9 92.4Q61.75 92.9 63.2 92.9 64.65 92.9 65.4 92.3 66.2 91.75 66.2 90.7 66.2 89.95 65.7 89.45 65.25 89 63.9 88.5 62.95 88.15 62.6 87.95 62.25 87.75 62.1 87.55 61.95 87.3 61.95 87 61.95 86.6 62.35 86.3 62.8 86.05 63.6 86.05M79.9 85.1Q79.2 85.1 78.65 85.5 78.05 85.9 77.6 86.65L77.55 86.65 77.45 85.25 76.5 85.25 76.5 92.75 77.65 92.75 77.65 88.75Q77.65 87.65 78.3 86.9 78.95 86.15 79.85 86.15 80.2 86.15 80.65 86.25L80.8 85.2Q80.4 85.1 79.9 85.1M71.4 86.15L71.4 85.25 69.2 85.25 69.2 83.5 68.55 83.5 68.1 85.1 67 85.6 67 86.15 68.1 86.15 68.1 90.6Q68.1 92.9 70.25 92.9L70.9 92.85 71.45 92.7 71.45 91.8 71 91.9 70.4 91.95Q69.85 91.95 69.55 91.6 69.2 91.25 69.2 90.55L69.2 86.15 71.4 86.15M48.35 86.1Q49.25 86.1 49.65 86.55 50.1 87 50.1 87.9L50.1 92.75 51.2 92.75 51.2 87.85Q51.2 86.45 50.55 85.8 49.85 85.15 48.45 85.15 47.65 85.15 47.05 85.45 46.45 85.75 46.1 86.3L46.05 86.3 46.1 82.1 44.95 82.1 44.95 92.75 46.1 92.75 46.1 88.85Q46.1 87.35 46.65 86.75 47.15 86.1 48.35 86.1M58.6 86.05Q57.8 85.1 56.35 85.1 54.85 85.1 54 86.2 53.1 87.25 53.1 89.05 53.1 90.85 54.05 91.9 55 92.9 56.65 92.9 57.45 92.9 57.95 92.8 58.5 92.65 59.1 92.4L59.1 91.4Q57.9 91.9 56.7 91.9 55.55 91.9 54.95 91.2 54.3 90.55 54.25 89.2L59.4 89.2 59.4 88.5Q59.4 86.95 58.6 86.05M57.75 86.65Q58.2 87.2 58.2 88.3L54.3 88.3Q54.4 87.25 54.95 86.65 55.45 86.05 56.35 86.05 57.25 86.05 57.75 86.65M24.85 82.75L23.65 82.75 23.65 92.75 24.85 92.75 24.85 88.05 30.1 88.05 30.1 92.75 31.25 92.75 31.25 82.75 30.1 82.75 30.1 87 24.85 87 24.85 82.75M39.8 85.1Q38.45 85.1 37.7 85.8 36.95 86.45 36.95 87.7 36.95 88.4 37.3 89 37.7 89.55 38.25 89.8 37.8 90.1 37.6 90.4 37.35 90.7 37.35 91.1 37.35 91.5 37.55 91.75 37.75 92.05 38.05 92.15 37.25 92.35 36.8 92.85 36.35 93.35 36.35 94 36.35 95 37.15 95.55 37.95 96.1 39.45 96.1 41.35 96.1 42.35 95.45 43.35 94.8 43.35 93.55 43.35 92.6 42.7 92.05 42.05 91.55 40.8 91.55L39.5 91.55Q38.9 91.55 38.6 91.4 38.35 91.25 38.35 90.95 38.35 90.4 39.1 90L39.7 90.05Q41.05 90.05 41.8 89.4 42.55 88.75 42.55 87.65 42.55 87.15 42.4 86.75 42.25 86.4 42.05 86.15L43.45 86 43.45 85.25 40.85 85.25Q40.35 85.1 39.8 85.1M38.5 86.4Q38.95 85.95 39.75 85.95 41.4 85.95 41.4 87.65 41.4 89.25 39.75 89.25 38.95 89.25 38.5 88.85 38.1 88.45 38.1 87.65 38.1 86.8 38.5 86.4M39.1 92.6L40.45 92.6Q41.5 92.6 41.85 92.8 42.25 93.05 42.25 93.65 42.25 94.4 41.55 94.8 40.85 95.25 39.45 95.25 38.5 95.25 37.95 94.95 37.45 94.6 37.45 94 37.45 93.3 37.9 92.95 38.3 92.6 39.1 92.6M34.95 85.25L33.8 85.25 33.8 92.75 34.95 92.75 34.95 85.25M35.05 83.25Q35.05 82.85 34.85 82.65 34.65 82.5 34.4 82.5 34.1 82.5 33.9 82.65 33.7 82.85 33.7 83.25 33.7 83.6 33.9 83.8 34.1 84 34.4 84 34.65 84 34.85 83.8 35.05 83.6 35.05 83.25M145.6 85.25L144.65 85.25 144.65 92.75 145.8 92.75 145.8 88.8Q145.8 87.35 146.35 86.7 146.9 86.1 148.05 86.1 148.95 86.1 149.35 86.55 149.8 87 149.8 87.9L149.8 92.75 150.9 92.75 150.9 87.85Q150.9 86.45 150.25 85.8 149.55 85.1 148.2 85.1 147.4 85.1 146.8 85.45 146.15 85.75 145.8 86.3L145.75 86.3 145.6 85.25M159.35 85.25L156.75 85.25Q156.25 85.1 155.7 85.1 154.35 85.1 153.6 85.8 152.85 86.45 152.85 87.7 152.85 88.4 153.2 89 153.6 89.55 154.15 89.8 153.7 90.1 153.5 90.4 153.25 90.7 153.25 91.1 153.25 91.5 153.45 91.75 153.65 92.05 153.95 92.15 153.15 92.35 152.7 92.85 152.25 93.35 152.25 94 152.25 95 153.05 95.55 153.85 96.1 155.35 96.1 157.25 96.1 158.25 95.45 159.25 94.8 159.25 93.55 159.25 92.6 158.6 92.05 157.95 91.55 156.7 91.55L155.4 91.55Q154.8 91.55 154.5 91.4 154.25 91.25 154.25 90.95 154.25 90.4 155 90L155.6 90.05Q156.95 90.05 157.7 89.4 158.45 88.75 158.45 87.65 158.45 87.15 158.3 86.75 158.15 86.4 157.95 86.15L159.35 86 159.35 85.25M154.4 86.4Q154.85 85.95 155.65 85.95 157.3 85.95 157.3 87.65 157.3 89.25 155.65 89.25 154.85 89.25 154.4 88.85 154 88.45 154 87.65 154 86.8 154.4 86.4M155 92.6L156.35 92.6Q157.4 92.6 157.75 92.8 158.15 93.05 158.15 93.65 158.15 94.4 157.45 94.8 156.75 95.25 155.35 95.25 154.4 95.25 153.85 94.95 153.35 94.6 153.35 94 153.35 93.3 153.8 92.95 154.2 92.6 155 92.6M141.15 85.25L141.15 92.75 142.3 92.75 142.3 85.25 141.15 85.25M129.65 85.75Q129 85.15 127.65 85.15 127 85.15 126.35 85.3 125.7 85.5 125.15 85.8L125.5 86.65Q126.65 86.05 127.6 86.05 128.45 86.05 128.8 86.5 129.2 86.9 129.2 87.8L129.2 88.25 127.9 88.3Q124.3 88.4 124.3 90.7 124.3 91.75 124.95 92.3 125.55 92.9 126.65 92.9 127.5 92.9 128.05 92.65 128.6 92.4 129.2 91.7L129.25 91.7 129.45 92.75 130.3 92.75 130.3 87.65Q130.3 86.3 129.65 85.75M128.55 91.35Q127.95 91.95 126.9 91.95 126.25 91.95 125.85 91.65 125.5 91.3 125.5 90.7 125.5 89.9 126.1 89.55 126.7 89.15 128.05 89.1L129.15 89.05 129.15 89.75Q129.15 90.8 128.55 91.35M141.05 83.25Q141.05 83.6 141.25 83.8 141.45 84 141.75 84 142 84 142.2 83.8 142.4 83.6 142.4 83.25 142.4 82.85 142.2 82.65 142 82.5 141.75 82.5 141.45 82.5 141.25 82.65 141.05 82.85 141.05 83.25M138.8 82.1L137.65 82.1 137.7 86.25 137.65 86.25Q136.8 85.1 135.3 85.1 133.85 85.1 133 86.15 132.2 87.15 132.2 89 132.2 90.9 133 91.9 133.8 92.9 135.3 92.9 136.85 92.9 137.65 91.75L137.7 91.75 137.85 92.75 138.8 92.75 138.8 82.1M137.65 89.25Q137.65 90.65 137.1 91.3 136.6 91.95 135.45 91.95 134.4 91.95 133.9 91.2 133.35 90.45 133.35 89.05 133.35 87.6 133.9 86.85 134.4 86.05 135.4 86.05 136.6 86.05 137.1 86.75 137.65 87.45 137.65 89L137.65 89.25M108.6 82.1L107.45 82.1 107.45 85.7 107.5 86.25 107.45 86.25Q106.6 85.1 105.1 85.1 103.65 85.1 102.8 86.15 102 87.15 102 89 102 90.9 102.8 91.9 103.6 92.9 105.1 92.9 106.65 92.9 107.45 91.75L107.5 91.75 107.65 92.75 108.6 92.75 108.6 82.1M107.45 89.25Q107.45 90.65 106.9 91.3 106.4 91.95 105.25 91.95 104.2 91.95 103.7 91.2 103.15 90.45 103.15 89.05 103.15 87.6 103.7 86.85 104.2 86.05 105.2 86.05 106.4 86.05 106.9 86.75 107.45 87.45 107.45 89L107.45 89.25M120.4 85.25L119.45 85.25 119.45 92.75 120.6 92.75 120.6 88.75Q120.6 87.65 121.25 86.9 121.9 86.15 122.8 86.15 123.15 86.15 123.6 86.25L123.75 85.2Q123.35 85.1 122.85 85.1 122.15 85.1 121.6 85.5 121 85.9 120.55 86.65L120.5 86.65 120.4 85.25M113.55 86.15L114.65 86.15 114.65 90.6Q114.65 92.9 116.8 92.9L117.45 92.85 118 92.7 118 91.8 117.55 91.9 116.95 91.95Q116.4 91.95 116.1 91.6 115.75 91.25 115.75 90.55L115.75 86.15 117.95 86.15 117.95 85.25 115.75 85.25 115.75 83.5 115.1 83.5 114.65 85.1 113.55 85.6 113.55 86.15M84.65 86.05Q85.5 86.05 85.85 86.5 86.25 86.9 86.25 87.8L86.25 88.25 84.95 88.3Q81.35 88.4 81.35 90.7 81.35 91.75 82 92.3 82.6 92.9 83.7 92.9 84.55 92.9 85.1 92.65 85.65 92.4 86.25 91.7L86.3 91.7 86.5 92.75 87.35 92.75 87.35 87.65Q87.35 86.3 86.7 85.75 86.05 85.15 84.7 85.15 84.05 85.15 83.4 85.3 82.75 85.5 82.2 85.8L82.55 86.65Q83.7 86.05 84.65 86.05M86.2 89.05L86.2 89.75Q86.2 90.8 85.6 91.35 85 91.95 83.95 91.95 83.3 91.95 82.9 91.65 82.55 91.3 82.55 90.7 82.55 89.9 83.15 89.55 83.75 89.15 85.1 89.1L86.2 89.05M99.65 86.05Q98.85 85.1 97.4 85.1 95.9 85.1 95.05 86.2 94.15 87.25 94.15 89.05 94.15 90.85 95.1 91.9 96.05 92.9 97.7 92.9 98.5 92.9 99 92.8 99.55 92.65 100.15 92.4L100.15 91.4Q98.95 91.9 97.75 91.9 96.6 91.9 96 91.2 95.35 90.55 95.3 89.2L100.45 89.2 100.45 88.5Q100.45 86.95 99.65 86.05M98.8 86.65Q99.25 87.2 99.25 88.3L95.35 88.3Q95.45 87.25 96 86.65 96.5 86.05 97.4 86.05 98.3 86.05 98.8 86.65M93.05 86.15L93.05 85.25 90.85 85.25 90.85 83.5 90.2 83.5 89.75 85.1 88.65 85.6 88.65 86.15 89.75 86.15 89.75 90.6Q89.75 92.9 91.9 92.9L92.55 92.85 93.1 92.7 93.1 91.8 92.65 91.9 92.05 91.95Q91.5 91.95 91.2 91.6 90.85 91.25 90.85 90.55L90.85 86.15 93.05 86.15M89.9 40.15Q89.35 40.7 89.35 41.75 89.35 42.8 89.9 43.4 90.45 44 91.5 44 92.55 44 93.15 43.4 93.7 42.8 93.7 41.75 93.7 40.75 93.15 40.15 92.6 39.55 91.5 39.55 90.45 39.55 89.9 40.15M86.9 36.05L84 36.05 84 22.15 80.65 22.15 70.85 36.3 70.85 38.95 80.65 38.95 80.65 43.6 84 43.6 84 38.95 86.9 38.95 86.9 36.05M80.65 36.05L74.1 36.05 79.4 28.35Q80.3 26.95 80.7 26L80.8 26Q80.65 27.8 80.65 30.7L80.65 36.05M107.05 22.2L104.15 22.2 97.85 27.15 99.6 29.3 103.7 25.85 103.6 43.6 107.05 43.6 107.05 22.2M169.25 85.75Q168.6 85.15 167.25 85.15 166.6 85.15 165.95 85.3 165.3 85.5 164.75 85.8L165.1 86.65Q166.25 86.05 167.2 86.05 168.05 86.05 168.4 86.5 168.8 86.9 168.8 87.8L168.8 88.25 167.5 88.3Q163.9 88.4 163.9 90.7 163.9 91.75 164.55 92.3 165.15 92.9 166.25 92.9 167.1 92.9 167.65 92.65 168.2 92.4 168.8 91.7L168.85 91.7 169.05 92.75 169.9 92.75 169.9 87.65Q169.9 86.3 169.25 85.75M167.65 89.1L168.75 89.05 168.75 89.75Q168.75 90.8 168.15 91.35 167.55 91.95 166.5 91.95 165.85 91.95 165.45 91.65 165.1 91.3 165.1 90.7 165.1 89.9 165.7 89.55 166.3 89.15 167.65 89.1M181.9 86.3L181.85 86.3 181.7 85.25 180.75 85.25 180.75 96.1 181.9 96.1 181.8 91.8 181.9 91.8Q182.3 92.35 182.9 92.6 183.5 92.9 184.25 92.9 185.7 92.9 186.55 91.85 187.35 90.85 187.35 89 187.35 87.15 186.55 86.15 185.75 85.1 184.25 85.1 183.5 85.1 182.9 85.4 182.35 85.65 181.9 86.3M181.9 89L181.9 88.75Q181.9 87.35 182.4 86.7 182.95 86.1 184.1 86.1 185.05 86.1 185.65 86.85 186.15 87.6 186.15 89 186.15 90.35 185.65 91.15 185.05 91.95 184.1 91.95 182.95 91.95 182.4 91.25 181.9 90.6 181.9 89M175.7 85.1Q174.95 85.1 174.35 85.4 173.8 85.65 173.35 86.3L173.3 86.3 173.15 85.25 172.2 85.25 172.2 96.1 173.35 96.1 173.25 91.8 173.35 91.8Q173.75 92.35 174.35 92.6 174.95 92.9 175.7 92.9 177.15 92.9 178 91.85 178.8 90.85 178.8 89 178.8 87.15 178 86.15 177.2 85.1 175.7 85.1M173.35 88.75Q173.35 87.35 173.85 86.7 174.4 86.1 175.55 86.1 176.5 86.1 177.1 86.85 177.6 87.6 177.6 89 177.6 90.35 177.1 91.15 176.5 91.95 175.55 91.95 174.4 91.95 173.85 91.25 173.35 90.6 173.35 89L173.35 88.75Z"/><path fill="#FFCB05" stroke="none" d="M87.15 57.45Q87.05 57.15 86.7 57.15L80.35 56.6 77.9 50.7Q77.75 50.4 77.45 50.4 77.1 50.4 76.95 50.7L74.5 56.6 68.15 57.15Q67.8 57.15 67.7 57.45 67.6 57.8 67.85 58L72.65 62.2 71.25 68.4Q71.2 68.7 71.45 68.9 71.7 69.1 71.95 68.9L77.4 65.65 82.9 68.9Q83.15 69.1 83.4 68.9 83.7 68.7 83.6 68.4L82.2 62.2 87 58Q87.25 57.75 87.15 57.45M112.35 57.45Q112.25 57.15 111.95 57.15L105.6 56.6 103.1 50.7Q103 50.4 102.65 50.4 102.3 50.4 102.2 50.7L99.7 56.6 93.35 57.15Q93 57.15 92.95 57.45 92.85 57.8 93.1 58L97.9 62.2 96.45 68.4Q96.35 68.7 96.65 68.9 96.9 69.1 97.2 68.9L102.65 65.65 108.1 68.9Q108.4 69.1 108.65 68.9 108.95 68.7 108.85 68.4L107.4 62.2 112.2 58Q112.45 57.8 112.35 57.45M117.7 57.45Q117.6 57.8 117.85 58L122.65 62.2 121.2 68.4Q121.15 68.7 121.4 68.9 121.7 69.1 121.95 68.9L127.4 65.65 132.85 68.9Q133.15 69.1 133.4 68.9 133.7 68.7 133.6 68.4L132.15 62.2 137 58Q137.25 57.75 137.15 57.45 137.05 57.15 136.7 57.15L130.35 56.6 127.9 50.7Q127.75 50.4 127.45 50.4 127.1 50.4 126.95 50.7L124.5 56.6 118.15 57.15Q117.8 57.15 117.7 57.45M162.2 58Q162.45 57.8 162.35 57.45 162.25 57.15 161.9 57.15L155.6 56.6 153.1 50.7Q153 50.4 152.65 50.4 152.3 50.4 152.2 50.7L149.7 56.6 143.35 57.15Q143 57.15 142.9 57.45 142.8 57.75 143.05 58L147.9 62.2 146.45 68.4Q146.35 68.7 146.65 68.9 146.9 69.1 147.2 68.9L152.65 65.65 158.1 68.9Q158.35 69.1 158.65 68.9 158.95 68.7 158.85 68.4L157.4 62.2 162.2 58Z"/><path fill="#CCC" stroke="none" d="M187.6 57.45Q187.5 57.15 187.15 57.15L180.8 56.6 178.3 50.7Q178.2 50.4 177.85 50.4 177.5 50.4 177.4 50.7L174.9 56.6 168.6 57.15Q168.25 57.15 168.15 57.45 168.05 57.8 168.3 58L173.1 62.2 171.65 68.4Q171.6 68.7 171.85 68.9 172.15 69.1 172.4 68.9L177.85 65.65 183.3 68.9Q183.6 69.1 183.85 68.9 184.15 68.7 184.05 68.4L182.6 62.2 187.45 58Q187.7 57.75 187.6 57.45Z"/><path fill="#404041" stroke="none" d="M110.7 128.45Q110.507 128.252 110.2 128.25L104.2 128.25Q103.891 128.252 103.65 128.45 103.452 128.691 103.45 129 103.452 129.307 103.65 129.5 103.891 129.747 104.2 129.75L110.2 129.75Q110.507 129.747 110.7 129.5 110.947 129.307 110.95 129 110.947 128.691 110.7 128.45M98.7 128.45Q98.507 128.252 98.2 128.25L92.2 128.25Q91.891 128.252 91.65 128.45 91.452 128.691 91.45 129 91.452 129.307 91.65 129.5 91.891 129.747 92.2 129.75L98.2 129.75Q98.507 129.747 98.7 129.5 98.947 129.307 98.95 129 98.947 128.691 98.7 128.45M152.2 129.75L158.2 129.75Q158.507 129.747 158.7 129.5 158.947 129.307 158.95 129 158.947 128.691 158.7 128.45 158.507 128.252 158.2 128.25L152.2 128.25Q151.891 128.252 151.65 128.45 151.452 128.691 151.45 129 151.452 129.307 151.65 129.5 151.891 129.747 152.2 129.75M122.7 128.45Q122.507 128.252 122.2 128.25L116.2 128.25Q115.891 128.252 115.65 128.45 115.452 128.691 115.45 129 115.452 129.307 115.65 129.5 115.891 129.747 116.2 129.75L122.2 129.75Q122.507 129.747 122.7 129.5 122.947 129.307 122.95 129 122.947 128.691 122.7 128.45M139.45 129Q139.452 129.307 139.65 129.5 139.891 129.747 140.2 129.75L146.2 129.75Q146.507 129.747 146.7 129.5 146.947 129.307 146.95 129 146.947 128.691 146.7 128.45 146.507 128.252 146.2 128.25L140.2 128.25Q139.891 128.252 139.65 128.45 139.452 128.691 139.45 129M134.2 129.75Q134.507 129.747 134.7 129.5 134.947 129.307 134.95 129 134.947 128.691 134.7 128.45 134.507 128.252 134.2 128.25L128.2 128.25Q127.891 128.252 127.65 128.45 127.452 128.691 127.45 129 127.452 129.307 127.65 129.5 127.891 129.747 128.2 129.75L134.2 129.75M38.7 128.45Q38.507 128.252 38.2 128.25L32.2 128.25Q31.891 128.252 31.65 128.45 31.452 128.691 31.45 129 31.452 129.307 31.65 129.5 31.891 129.747 32.2 129.75L38.2 129.75Q38.507 129.747 38.7 129.5 38.947 129.307 38.95 129 38.947 128.691 38.7 128.45M14.7 128.45Q14.507 128.252 14.2 128.25L8.2 128.25Q7.891 128.252 7.65 128.45 7.452 128.691 7.45 129 7.452 129.307 7.65 129.5 7.891 129.747 8.2 129.75L14.2 129.75Q14.507 129.747 14.7 129.5 14.947 129.307 14.95 129 14.947 128.691 14.7 128.45M19.65 129.5Q19.891 129.747 20.2 129.75L26.2 129.75Q26.507 129.747 26.7 129.5 26.947 129.307 26.95 129 26.947 128.691 26.7 128.45 26.507 128.252 26.2 128.25L20.2 128.25Q19.891 128.252 19.65 128.45 19.452 128.691 19.45 129 19.452 129.307 19.65 129.5M.75 123Q.747 122.691 .5 122.45 .307 122.252 0 122.25 -.308 122.252 -.55 122.45 -.747 122.691 -.75 123L-.75 124Q-.747 127.882 1.9 129.1 2.205 129.256 2.5 129.15 2.790 129.051 2.9 128.75 3.056 128.494 2.95 128.2 2.851 127.910 2.55 127.75 .747 126.818 .75 124L.75 123M.75 111Q.747 110.691 .5 110.45 .307 110.252 0 110.25 -.308 110.252 -.55 110.45 -.747 110.691 -.75 111L-.75 117Q-.747 117.307 -.55 117.5 -.308 117.747 0 117.75 .307 117.747 .5 117.5 .747 117.307 .75 117L.75 111M80.2 128.25Q79.891 128.252 79.65 128.45 79.452 128.691 79.45 129 79.452 129.307 79.65 129.5 79.891 129.747 80.2 129.75L86.2 129.75Q86.507 129.747 86.7 129.5 86.947 129.307 86.95 129 86.947 128.691 86.7 128.45 86.507 128.252 86.2 128.25L80.2 128.25M74.2 129.75Q74.507 129.747 74.7 129.5 74.947 129.307 74.95 129 74.947 128.691 74.7 128.45 74.507 128.252 74.2 128.25L68.2 128.25Q67.891 128.252 67.65 128.45 67.452 128.691 67.45 129 67.452 129.307 67.65 129.5 67.891 129.747 68.2 129.75L74.2 129.75M55.45 129Q55.452 129.307 55.65 129.5 55.891 129.747 56.2 129.75L62.2 129.75Q62.507 129.747 62.7 129.5 62.947 129.307 62.95 129 62.947 128.691 62.7 128.45 62.507 128.252 62.2 128.25L56.2 128.25Q55.891 128.252 55.65 128.45 55.452 128.691 55.45 129M50.7 129.5Q50.947 129.307 50.95 129 50.947 128.691 50.7 128.45 50.507 128.252 50.2 128.25L44.2 128.25Q43.891 128.252 43.65 128.45 43.452 128.691 43.45 129 43.452 129.307 43.65 129.5 43.891 129.747 44.2 129.75L50.2 129.75Q50.507 129.747 50.7 129.5M.5 98.45Q.307 98.252 0 98.25 -.308 98.252 -.55 98.45 -.747 98.691 -.75 99L-.75 105Q-.747 105.307 -.55 105.5 -.308 105.747 0 105.75 .307 105.747 .5 105.5 .747 105.307 .75 105L.75 99Q.747 98.691 .5 98.45M.5 86.45Q.307 86.252 0 86.25 -.308 86.252 -.55 86.45 -.747 86.691 -.75 87L-.75 93Q-.747 93.307 -.55 93.5 -.308 93.747 0 93.75 .307 93.747 .5 93.5 .747 93.307 .75 93L.75 87Q.747 86.691 .5 86.45M.75 81L.75 75Q.747 74.691 .5 74.45 .307 74.252 0 74.25 -.308 74.252 -.55 74.45 -.747 74.691 -.75 75L-.75 81Q-.747 81.307 -.55 81.5 -.308 81.747 0 81.75 .307 81.747 .5 81.5 .747 81.307 .75 81M.75 69L.75 63Q.747 62.691 .5 62.45 .307 62.252 0 62.25 -.308 62.252 -.55 62.45 -.747 62.691 -.75 63L-.75 69Q-.747 69.307 -.55 69.5 -.308 69.747 0 69.75 .307 69.747 .5 69.5 .747 69.307 .75 69M0 57.75Q.307 57.747 .5 57.5 .747 57.307 .75 57L.75 51Q.747 50.691 .5 50.45 .307 50.252 0 50.25 -.308 50.252 -.55 50.45 -.747 50.691 -.75 51L-.75 57Q-.747 57.307 -.55 57.5 -.308 57.747 0 57.75M.75 45L.75 39Q.747 38.691 .5 38.45 .307 38.252 0 38.25 -.308 38.252 -.55 38.45 -.747 38.691 -.75 39L-.75 45Q-.747 45.307 -.55 45.5 -.308 45.747 0 45.75 .307 45.747 .5 45.5 .747 45.307 .75 45M.75 33L.75 27Q.747 26.691 .5 26.45 .307 26.252 0 26.25 -.308 26.252 -.55 26.45 -.747 26.691 -.75 27L-.75 33Q-.747 33.307 -.55 33.5 -.308 33.747 0 33.75 .307 33.747 .5 33.5 .747 33.307 .75 33M.75 15Q.747 14.691 .5 14.45 .307 14.252 0 14.25 -.308 14.252 -.55 14.45 -.747 14.691 -.75 15L-.75 21Q-.747 21.307 -.55 21.5 -.308 21.747 0 21.75 .307 21.747 .5 21.5 .747 21.307 .75 21L.75 15M.75 5Q.747 4.046 .9 3.25 .992 2.968 .8 2.7 .668 2.441 .35 2.35 .068 2.307 -.2 2.45 -.458 2.632 -.55 2.9 -.747 3.853 -.75 5L-.75 9Q-.747 9.307 -.55 9.5 -.308 9.747 0 9.75 .307 9.747 .5 9.5 .747 9.307 .75 9L.75 5M194.2 129.75Q194.507 129.747 194.7 129.5 194.947 129.307 194.95 129 194.947 128.691 194.7 128.45 194.507 128.252 194.2 128.25L188.2 128.25Q187.891 128.252 187.65 128.45 187.452 128.691 187.45 129 187.452 129.307 187.65 129.5 187.891 129.747 188.2 129.75L194.2 129.75M170.95 129Q170.947 128.691 170.7 128.45 170.507 128.252 170.2 128.25L164.2 128.25Q163.891 128.252 163.65 128.45 163.452 128.691 163.45 129 163.452 129.307 163.65 129.5 163.891 129.747 164.2 129.75L170.2 129.75Q170.507 129.747 170.7 129.5 170.947 129.307 170.95 129M175.45 129Q175.452 129.307 175.65 129.5 175.891 129.747 176.2 129.75L182.2 129.75Q182.507 129.747 182.7 129.5 182.947 129.307 182.95 129 182.947 128.691 182.7 128.45 182.507 128.252 182.2 128.25L176.2 128.25Q175.891 128.252 175.65 128.45 175.452 128.691 175.45 129M206.8 128.45Q206.607 128.252 206.3 128.25 206.15 128.25 206 128.25L200.2 128.25Q199.891 128.252 199.65 128.45 199.452 128.691 199.45 129 199.452 129.307 199.65 129.5 199.891 129.747 200.2 129.75L206 129.75Q206.15 129.75 206.3 129.75 206.607 129.747 206.8 129.5 207.047 129.307 207.05 129 207.047 128.691 206.8 128.45M211.75 119.7Q211.747 119.391 211.5 119.15 211.307 118.952 211 118.95 210.691 118.952 210.45 119.15 210.252 119.391 210.25 119.7L210.25 124Q210.249 124.838 210.05 125.5 209.994 125.802 210.15 126.05 210.303 126.344 210.6 126.4 210.902 126.505 211.15 126.35 211.444 126.196 211.5 125.9 211.750 125.061 211.75 124L211.75 119.7M210.45 107.15Q210.252 107.391 210.25 107.7L210.25 113.7Q210.252 114.007 210.45 114.2 210.691 114.447 211 114.45 211.307 114.447 211.5 114.2 211.747 114.007 211.75 113.7L211.75 107.7Q211.747 107.391 211.5 107.15 211.307 106.952 211 106.95 210.691 106.952 210.45 107.15M210.45 95.15Q210.252 95.391 210.25 95.7L210.25 101.7Q210.252 102.007 210.45 102.2 210.691 102.447 211 102.45 211.307 102.447 211.5 102.2 211.747 102.007 211.75 101.7L211.75 95.7Q211.747 95.391 211.5 95.15 211.307 94.952 211 94.95 210.691 94.952 210.45 95.15M210.45 83.15Q210.252 83.391 210.25 83.7L210.25 89.7Q210.252 90.007 210.45 90.2 210.691 90.447 211 90.45 211.307 90.447 211.5 90.2 211.747 90.007 211.75 89.7L211.75 83.7Q211.747 83.391 211.5 83.15 211.307 82.952 211 82.95 210.691 82.952 210.45 83.15M211.75 71.7Q211.747 71.391 211.5 71.15 211.307 70.952 211 70.95 210.691 70.952 210.45 71.15 210.252 71.391 210.25 71.7L210.25 77.7Q210.252 78.007 210.45 78.2 210.691 78.447 211 78.45 211.307 78.447 211.5 78.2 211.747 78.007 211.75 77.7L211.75 71.7M210.45 59.15Q210.252 59.391 210.25 59.7L210.25 65.7Q210.252 66.007 210.45 66.2 210.691 66.447 211 66.45 211.307 66.447 211.5 66.2 211.747 66.007 211.75 65.7L211.75 59.7Q211.747 59.391 211.5 59.15 211.307 58.952 211 58.95 210.691 58.952 210.45 59.15M210.45 47.15Q210.252 47.391 210.25 47.7L210.25 53.7Q210.252 54.007 210.45 54.2 210.691 54.447 211 54.45 211.307 54.447 211.5 54.2 211.747 54.007 211.75 53.7L211.75 47.7Q211.747 47.391 211.5 47.15 211.307 46.952 211 46.95 210.691 46.952 210.45 47.15M210.45 35.15Q210.252 35.391 210.25 35.7L210.25 41.7Q210.252 42.007 210.45 42.2 210.691 42.447 211 42.45 211.307 42.447 211.5 42.2 211.747 42.007 211.75 41.7L211.75 35.7Q211.747 35.391 211.5 35.15 211.307 34.952 211 34.95 210.691 34.952 210.45 35.15M211.75 23.7Q211.747 23.391 211.5 23.15 211.307 22.952 211 22.95 210.691 22.952 210.45 23.15 210.252 23.391 210.25 23.7L210.25 29.7Q210.252 30.007 210.45 30.2 210.691 30.447 211 30.45 211.307 30.447 211.5 30.2 211.747 30.007 211.75 29.7L211.75 23.7M210.45 11.15Q210.252 11.391 210.25 11.7L210.25 17.7Q210.252 18.007 210.45 18.2 210.691 18.447 211 18.45 211.307 18.447 211.5 18.2 211.747 18.007 211.75 17.7L211.75 11.7Q211.747 11.391 211.5 11.15 211.307 10.952 211 10.95 210.691 10.952 210.45 11.15M209.1 -.1Q208.857 -.206 208.55 -.1 208.273 -.002 208.1 .25 207.993 .542 208.1 .8 208.198 1.126 208.45 1.25 210.255 2.228 210.25 5L210.25 5.7Q210.252 6.007 210.45 6.2 210.691 6.447 211 6.45 211.307 6.447 211.5 6.2 211.747 6.007 211.75 5.7L211.75 5Q211.744 1.170 209.1 -.1M197 -.75Q196.691 -.747 196.45 -.55 196.252 -.308 196.25 0 196.252 .307 196.45 .5 196.691 .747 197 .75L203 .75Q203.307 .747 203.5 .5 203.747 .307 203.75 0 203.747 -.308 203.5 -.55 203.307 -.747 203 -.75L197 -.75M191.5 -.55Q191.307 -.747 191 -.75L185 -.75Q184.691 -.747 184.45 -.55 184.252 -.308 184.25 0 184.252 .307 184.45 .5 184.691 .747 185 .75L191 .75Q191.307 .747 191.5 .5 191.747 .307 191.75 0 191.747 -.308 191.5 -.55M179.5 -.55Q179.307 -.747 179 -.75L173 -.75Q172.691 -.747 172.45 -.55 172.252 -.308 172.25 0 172.252 .307 172.45 .5 172.691 .747 173 .75L179 .75Q179.307 .747 179.5 .5 179.747 .307 179.75 0 179.747 -.308 179.5 -.55M155.5 -.55Q155.307 -.747 155 -.75L149 -.75Q148.691 -.747 148.45 -.55 148.252 -.308 148.25 0 148.252 .307 148.45 .5 148.691 .747 149 .75L155 .75Q155.307 .747 155.5 .5 155.747 .307 155.75 0 155.747 -.308 155.5 -.55M161 -.75Q160.691 -.747 160.45 -.55 160.252 -.308 160.25 0 160.252 .307 160.45 .5 160.691 .747 161 .75L167 .75Q167.307 .747 167.5 .5 167.747 .307 167.75 0 167.747 -.308 167.5 -.55 167.307 -.747 167 -.75L161 -.75M137 -.75Q136.691 -.747 136.45 -.55 136.252 -.308 136.25 0 136.252 .307 136.45 .5 136.691 .747 137 .75L143 .75Q143.307 .747 143.5 .5 143.747 .307 143.75 0 143.747 -.308 143.5 -.55 143.307 -.747 143 -.75L137 -.75M131.5 -.55Q131.307 -.747 131 -.75L125 -.75Q124.691 -.747 124.45 -.55 124.252 -.308 124.25 0 124.252 .307 124.45 .5 124.691 .747 125 .75L131 .75Q131.307 .747 131.5 .5 131.747 .307 131.75 0 131.747 -.308 131.5 -.55M119 -.75L113 -.75Q112.691 -.747 112.45 -.55 112.252 -.308 112.25 0 112.252 .307 112.45 .5 112.691 .747 113 .75L119 .75Q119.307 .747 119.5 .5 119.747 .307 119.75 0 119.747 -.308 119.5 -.55 119.307 -.747 119 -.75M101 -.75Q100.691 -.747 100.45 -.55 100.252 -.308 100.25 0 100.252 .307 100.45 .5 100.691 .747 101 .75L107 .75Q107.307 .747 107.5 .5 107.747 .307 107.75 0 107.747 -.308 107.5 -.55 107.307 -.747 107 -.75L101 -.75M95.5 -.55Q95.307 -.747 95 -.75L89 -.75Q88.691 -.747 88.45 -.55 88.252 -.308 88.25 0 88.252 .307 88.45 .5 88.691 .747 89 .75L95 .75Q95.307 .747 95.5 .5 95.747 .307 95.75 0 95.747 -.308 95.5 -.55M77 -.75Q76.691 -.747 76.45 -.55 76.252 -.308 76.25 0 76.252 .307 76.45 .5 76.691 .747 77 .75L83 .75Q83.307 .747 83.5 .5 83.747 .307 83.75 0 83.747 -.308 83.5 -.55 83.307 -.747 83 -.75L77 -.75M71.5 -.55Q71.307 -.747 71 -.75L65 -.75Q64.691 -.747 64.45 -.55 64.252 -.308 64.25 0 64.252 .307 64.45 .5 64.691 .747 65 .75L71 .75Q71.307 .747 71.5 .5 71.747 .307 71.75 0 71.747 -.308 71.5 -.55M59.5 -.55Q59.307 -.747 59 -.75L53 -.75Q52.691 -.747 52.45 -.55 52.252 -.308 52.25 0 52.252 .307 52.45 .5 52.691 .747 53 .75L59 .75Q59.307 .747 59.5 .5 59.747 .307 59.75 0 59.747 -.308 59.5 -.55M47.5 -.55Q47.307 -.747 47 -.75L41 -.75Q40.691 -.747 40.45 -.55 40.252 -.308 40.25 0 40.252 .307 40.45 .5 40.691 .747 41 .75L47 .75Q47.307 .747 47.5 .5 47.747 .307 47.75 0 47.747 -.308 47.5 -.55M35.5 -.55Q35.307 -.747 35 -.75L29 -.75Q28.691 -.747 28.45 -.55 28.252 -.308 28.25 0 28.252 .307 28.45 .5 28.691 .747 29 .75L35 .75Q35.307 .747 35.5 .5 35.747 .307 35.75 0 35.747 -.308 35.5 -.55M17 -.75Q16.691 -.747 16.45 -.55 16.252 -.308 16.25 0 16.252 .307 16.45 .5 16.691 .747 17 .75L23 .75Q23.307 .747 23.5 .5 23.747 .307 23.75 0 23.747 -.308 23.5 -.55 23.307 -.747 23 -.75L17 -.75M11 -.75L5 -.75Q4.893 -.75 4.8 -.75 4.491 -.747 4.25 -.55 4.052 -.308 4.05 0 4.052 .307 4.25 .5 4.491 .747 4.8 .75 4.893 .75 5 .75L11 .75Q11.307 .747 11.5 .5 11.747 .307 11.75 0 11.747 -.308 11.5 -.55 11.307 -.747 11 -.75Z"/></g><animate attributeName="display" fill="freeze" repeatCount="1" dur="1.583s" keyTimes="0;.447;1" values="none;inline;inline"/></g><g display="none"><g id="lap_03" transform="matrix(.2 0 0 .2 966.3 432.9)"><animateTransform attributeName="transform" additive="replace" type="translate" dur="1.583s" keyTimes="0;.395;.553;1" values="1005.659,459.008;1005.659,459.008;957.65,356;957.65,356" keySplines=".25 .5 .5 1;.25 .5 .5 1;.1 .1 .9 .9" calcMode="spline" fill="freeze"/><animateTransform attributeName="transform" additive="sum" type="scale" dur="1.583s" keyTimes="0;.395;.553;1" values=".2,.2;.2,.2;1,1;1,1" keySplines=".25 .5 .5 1;.25 .5 .5 1;.1 .1 .9 .9" calcMode="spline" fill="freeze"/><animateTransform attributeName="transform" additive="sum" type="translate" dur="1.583s" keyTimes="0;.395;.553;1" values="-196.8,-130.55;-196.8,-130.55;-192.65,-130;-192.65,-130" keySplines=".25 .5 .5 1;.25 .5 .5 1;.1 .1 .9 .9" calcMode="spline" fill="freeze"/><image overflow="visible" xlink:href="img/flash0.ai_8/Layer_1/laptop.png" height="297" width="440" transform="matrix(.876 0 0 .876 0 0)"/></g><animate attributeName="display" fill="freeze" repeatCount="1" dur="1.583s" keyTimes="0;.395;1" values="none;inline;inline"/></g><g display="none"><g id="mob_02" transform="matrix(.2 0 0 .2 623.5 438.25)"><animateTransform attributeName="transform" additive="replace" type="translate" dur="1.583s" keyTimes="0;.316;.5;1" values="637.209,461.598;637.209,461.598;637.2,381.6;637.2,381.6" keySplines=".25 .5 .5 1;.25 .5 .5 1;.1 .1 .9 .9" calcMode="spline" fill="freeze"/><animateTransform attributeName="transform" additive="sum" type="scale" dur="1.583s" keyTimes="0;.316;.5;1" values=".2,.2;.2,.2;1,1;1,1" keySplines=".25 .5 .5 1;.25 .5 .5 1;.1 .1 .9 .9" calcMode="spline" fill="freeze"/><animateTransform attributeName="transform" additive="sum" type="translate" dur="1.583s" keyTimes="0;.316;.5;1" values="-68.8,-117;-68.8,-117;-68.2,-116.6;-68.2,-116.6" keySplines=".25 .5 .5 1;.25 .5 .5 1;.1 .1 .9 .9" calcMode="spline" fill="freeze"/><image overflow="visible" xlink:href="img/flash0.ai_8/Layer_1/Mobile-app.png" height="270" width="158" transform="matrix(.864 0 0 .864 0 0)"/></g><animate attributeName="display" fill="freeze" repeatCount="1" dur="1.583s" keyTimes="0;.316;1" values="none;inline;inline"/></g><g display="none"><g id="com01" transform="matrix(.2 0 0 .2 248.3 416.1)"><animateTransform attributeName="transform" additive="replace" type="translate" dur="1.583s" keyTimes="0;.263;.447;1" values="290.706,450.557;290.706,450.557;290.7,313.95;290.7,313.95" keySplines=".25 .5 .5 1;.25 .5 .5 1;.1 .1 .9 .9" calcMode="spline" fill="freeze"/><animateTransform attributeName="transform" additive="sum" type="scale" dur="1.583s" keyTimes="0;.263;.447;1" values=".2,.2;.2,.2;1,1;1,1" keySplines=".25 .5 .5 1;.25 .5 .5 1;.1 .1 .9 .9" calcMode="spline" fill="freeze"/><animateTransform attributeName="transform" additive="sum" type="translate" dur="1.583s" keyTimes="0;.263;.447;1" values="-212.3,-172.55;-212.3,-172.55;-211.7,-171.95;-211.7,-171.95" keySplines=".25 .5 .5 1;.25 .5 .5 1;.1 .1 .9 .9" calcMode="spline" fill="freeze"/><image overflow="visible" xlink:href="img/flash0.ai_8/Layer_1/desktop.png" height="420" width="517" transform="matrix(.819 0 0 .819 0 0)"/></g><animate attributeName="display" fill="freeze" repeatCount="1" dur="1.583s" keyTimes="0;.263;1" values="none;inline;inline"/></g></g></svg>