<?xml version="1.0" encoding="utf-8"?><svg id="sec1.7" image-rendering="auto" baseProfile="basic" version="1.1" x="0px" y="0px" width="1180" height="560" xmlns="http://www.w3.org/2000/svg" xmlns:xlink="http://www.w3.org/1999/xlink"><defs><linearGradient id="Gradient_1" gradientUnits="userSpaceOnUse" x1="117.35" y1="-68.350" x2="117.35" y2="624.65" spreadMethod="pad"><stop offset="21.568%" stop-color="#5F3615"/><stop offset="22.745%" stop-color="#775022"/><stop offset="24.313%" stop-color="#956F31"/><stop offset="26.274%" stop-color="#AE8B3E"/><stop offset="28.627%" stop-color="#C3A149"/><stop offset="31.372%" stop-color="#D3B251"/><stop offset="34.509%" stop-color="#DEBD57"/><stop offset="39.215%" stop-color="#E4C45A"/><stop offset="52.156%" stop-color="#E6C65B"/><stop offset="57.254%" stop-color="#D3B251"/><stop offset="67.843%" stop-color="#A27D37"/><stop offset="80.784%" stop-color="#5F3615"/></linearGradient><linearGradient id="Gradient_2" gradientUnits="userSpaceOnUse" x1="95.55" y1="-68.350" x2="95.55" y2="624.65" spreadMethod="pad"><stop offset="21.568%" stop-color="#5F3615"/><stop offset="22.745%" stop-color="#775022"/><stop offset="24.313%" stop-color="#956F31"/><stop offset="26.274%" stop-color="#AE8B3E"/><stop offset="28.627%" stop-color="#C3A149"/><stop offset="31.372%" stop-color="#D3B251"/><stop offset="34.509%" stop-color="#DEBD57"/><stop offset="39.215%" stop-color="#E4C45A"/><stop offset="52.156%" stop-color="#E6C65B"/><stop offset="57.254%" stop-color="#D3B251"/><stop offset="67.843%" stop-color="#A27D37"/><stop offset="80.784%" stop-color="#5F3615"/></linearGradient><linearGradient id="Gradient_3" gradientUnits="userSpaceOnUse" x1="177.9" y1="-68.350" x2="177.9" y2="624.65" spreadMethod="pad"><stop offset="21.568%" stop-color="#5F3615"/><stop offset="22.745%" stop-color="#775022"/><stop offset="24.313%" stop-color="#956F31"/><stop offset="26.274%" stop-color="#AE8B3E"/><stop offset="28.627%" stop-color="#C3A149"/><stop offset="31.372%" stop-color="#D3B251"/><stop offset="34.509%" stop-color="#DEBD57"/><stop offset="39.215%" stop-color="#E4C45A"/><stop offset="52.156%" stop-color="#E6C65B"/><stop offset="57.254%" stop-color="#D3B251"/><stop offset="67.843%" stop-color="#A27D37"/><stop offset="80.784%" stop-color="#5F3615"/></linearGradient><linearGradient id="Gradient_4" gradientUnits="userSpaceOnUse" x1="238.5" y1="624.65" x2="238.5" y2="-68.350" spreadMethod="pad"><stop offset="21.568%" stop-color="#5F3615"/><stop offset="22.745%" stop-color="#775022"/><stop offset="24.313%" stop-color="#956F31"/><stop offset="26.274%" stop-color="#AE8B3E"/><stop offset="28.627%" stop-color="#C3A149"/><stop offset="31.372%" stop-color="#D3B251"/><stop offset="34.509%" stop-color="#DEBD57"/><stop offset="39.215%" stop-color="#E4C45A"/><stop offset="52.156%" stop-color="#E6C65B"/><stop offset="57.254%" stop-color="#D3B251"/><stop offset="67.843%" stop-color="#A27D37"/><stop offset="80.784%" stop-color="#5F3615"/></linearGradient><linearGradient id="Gradient_5" gradientUnits="userSpaceOnUse" x1="260.3" y1="624.65" x2="260.3" y2="-68.350" spreadMethod="pad"><stop offset="21.568%" stop-color="#5F3615"/><stop offset="22.745%" stop-color="#775022"/><stop offset="24.313%" stop-color="#956F31"/><stop offset="26.274%" stop-color="#AE8B3E"/><stop offset="28.627%" stop-color="#C3A149"/><stop offset="31.372%" stop-color="#D3B251"/><stop offset="34.509%" stop-color="#DEBD57"/><stop offset="39.215%" stop-color="#E4C45A"/><stop offset="52.156%" stop-color="#E6C65B"/><stop offset="57.254%" stop-color="#D3B251"/><stop offset="67.843%" stop-color="#A27D37"/><stop offset="80.784%" stop-color="#5F3615"/></linearGradient><linearGradient id="Gradient_6" gradientUnits="userSpaceOnUse" x1="177.95" y1="624.65" x2="177.95" y2="-68.350" spreadMethod="pad"><stop offset="21.568%" stop-color="#5F3615"/><stop offset="22.745%" stop-color="#775022"/><stop offset="24.313%" stop-color="#956F31"/><stop offset="26.274%" stop-color="#AE8B3E"/><stop offset="28.627%" stop-color="#C3A149"/><stop offset="31.372%" stop-color="#D3B251"/><stop offset="34.509%" stop-color="#DEBD57"/><stop offset="39.215%" stop-color="#E4C45A"/><stop offset="52.156%" stop-color="#E6C65B"/><stop offset="57.254%" stop-color="#D3B251"/><stop offset="67.843%" stop-color="#A27D37"/><stop offset="80.784%" stop-color="#5F3615"/></linearGradient><linearGradient id="Gradient_7" gradientUnits="userSpaceOnUse" x1="36.15" y1="-25.812" x2="36.15" y2="236.112" spreadMethod="pad"><stop offset="21.568%" stop-color="#5F3615"/><stop offset="22.745%" stop-color="#775022"/><stop offset="24.313%" stop-color="#956F31"/><stop offset="26.274%" stop-color="#AE8B3E"/><stop offset="28.627%" stop-color="#C3A149"/><stop offset="31.372%" stop-color="#D3B251"/><stop offset="34.509%" stop-color="#DEBD57"/><stop offset="39.215%" stop-color="#E4C45A"/><stop offset="52.156%" stop-color="#E6C65B"/><stop offset="57.254%" stop-color="#D3B251"/><stop offset="67.843%" stop-color="#A27D37"/><stop offset="80.784%" stop-color="#5F3615"/></linearGradient><linearGradient id="Gradient_8" gradientUnits="userSpaceOnUse" x1="44.4" y1="-25.812" x2="44.4" y2="236.112" spreadMethod="pad"><stop offset="21.568%" stop-color="#5F3615"/><stop offset="22.745%" stop-color="#775022"/><stop offset="24.313%" stop-color="#956F31"/><stop offset="26.274%" stop-color="#AE8B3E"/><stop offset="28.627%" stop-color="#C3A149"/><stop offset="31.372%" stop-color="#D3B251"/><stop offset="34.509%" stop-color="#DEBD57"/><stop offset="39.215%" stop-color="#E4C45A"/><stop offset="52.156%" stop-color="#E6C65B"/><stop offset="57.254%" stop-color="#D3B251"/><stop offset="67.843%" stop-color="#A27D37"/><stop offset="80.784%" stop-color="#5F3615"/></linearGradient><linearGradient id="Gradient_9" gradientUnits="userSpaceOnUse" x1="48.75" y1="-23.262" x2="48.75" y2="212.762" spreadMethod="pad"><stop offset="21.568%" stop-color="#5F3615"/><stop offset="22.745%" stop-color="#775022"/><stop offset="24.313%" stop-color="#956F31"/><stop offset="26.274%" stop-color="#AE8B3E"/><stop offset="28.627%" stop-color="#C3A149"/><stop offset="31.372%" stop-color="#D3B251"/><stop offset="34.509%" stop-color="#DEBD57"/><stop offset="39.215%" stop-color="#E4C45A"/><stop offset="52.156%" stop-color="#E6C65B"/><stop offset="57.254%" stop-color="#D3B251"/><stop offset="67.843%" stop-color="#A27D37"/><stop offset="80.784%" stop-color="#5F3615"/></linearGradient><linearGradient id="Gradient_10" gradientUnits="userSpaceOnUse" x1="241.4" y1="236.112" x2="241.4" y2="-25.812" spreadMethod="pad"><stop offset="21.568%" stop-color="#5F3615"/><stop offset="22.745%" stop-color="#775022"/><stop offset="24.313%" stop-color="#956F31"/><stop offset="26.274%" stop-color="#AE8B3E"/><stop offset="28.627%" stop-color="#C3A149"/><stop offset="31.372%" stop-color="#D3B251"/><stop offset="34.509%" stop-color="#DEBD57"/><stop offset="39.215%" stop-color="#E4C45A"/><stop offset="52.156%" stop-color="#E6C65B"/><stop offset="57.254%" stop-color="#D3B251"/><stop offset="67.843%" stop-color="#A27D37"/><stop offset="80.784%" stop-color="#5F3615"/></linearGradient><linearGradient id="Gradient_11" gradientUnits="userSpaceOnUse" x1="233.15" y1="236.112" x2="233.15" y2="-25.812" spreadMethod="pad"><stop offset="21.568%" stop-color="#5F3615"/><stop offset="22.745%" stop-color="#775022"/><stop offset="24.313%" stop-color="#956F31"/><stop offset="26.274%" stop-color="#AE8B3E"/><stop offset="28.627%" stop-color="#C3A149"/><stop offset="31.372%" stop-color="#D3B251"/><stop offset="34.509%" stop-color="#DEBD57"/><stop offset="39.215%" stop-color="#E4C45A"/><stop offset="52.156%" stop-color="#E6C65B"/><stop offset="57.254%" stop-color="#D3B251"/><stop offset="67.843%" stop-color="#A27D37"/><stop offset="80.784%" stop-color="#5F3615"/></linearGradient><linearGradient id="Gradient_12" gradientUnits="userSpaceOnUse" x1="228.8" y1="212.762" x2="228.8" y2="-23.262" spreadMethod="pad"><stop offset="21.568%" stop-color="#5F3615"/><stop offset="22.745%" stop-color="#775022"/><stop offset="24.313%" stop-color="#956F31"/><stop offset="26.274%" stop-color="#AE8B3E"/><stop offset="28.627%" stop-color="#C3A149"/><stop offset="31.372%" stop-color="#D3B251"/><stop offset="34.509%" stop-color="#DEBD57"/><stop offset="39.215%" stop-color="#E4C45A"/><stop offset="52.156%" stop-color="#E6C65B"/><stop offset="57.254%" stop-color="#D3B251"/><stop offset="67.843%" stop-color="#A27D37"/><stop offset="80.784%" stop-color="#5F3615"/></linearGradient></defs><g id="Scene-1r1" overflow="visible"><g display="none"><g id="flash0.ai_5_Layer-1_.__3CGroup.__3E_1" transform="translate(800 54.9)" opacity=".1"><path fill="url(#Gradient_4)" stroke="none" d="M261.1 412Q257.65 398.7 245.15 397.85 235.7 397.2 215.95 404.3 224.6 406.05 237.55 411.7 249.15 415.6 261.1 412Z"/><path fill="url(#Gradient_5)" stroke="none" d="M282.75 393.35Q278 381.55 267.9 381.2 258.4 380.85 237.85 390.8 246.4 391.65 259.9 395.8 271.75 398.3 282.75 393.35Z"/><path fill="url(#Gradient_6)" stroke="none" d="M331.55 125.35Q336.75 117.85 335.7 107.45 326.6 110.8 323 119.2 320 126.2 321.2 135.75 318 124.15 314.2 113.8 315.6 110.35 318.35 106.45 322.15 101 322.55 100.3 326.85 93 324.8 82.6 322.55 83.35 320.95 84 317.95 85.3 316.1 87.6 310.5 94.55 313.65 112.25 309.3 100.65 304.3 90.1 305.35 86.9 307.65 82.85 310.65 77.55 311.2 76.4 314.75 68.75 311.85 59 307.2 60.35 304.1 64.5 297.9 72.65 303.3 87.95 298.7 78.35 292.35 67.35 293.05 64.2 294.95 60.15 297.55 54.75 297.9 53.75 300.8 46.05 297.1 36.65 289.95 43 288.85 51.15 287.95 58 291.25 65.5 285.25 55.35 278.55 45.8 279 42.55 280.6 38.5 282.75 33 283 32.1 285.2 24.6 280.7 15.6 274.15 22.9 274.65 32.8 275 39.4 277.95 44.9 272.75 37.5 266.55 27.55 260.35 17.5 258.4 14.75 250.65 3.7 239.55 0 246.35 13.75 254.45 23.7 260.85 31.5 266.75 35.55 270.1 39.9 272.55 43.35 267.55 38.9 261.75 36.9 254.05 34.25 245.85 36.35 253.55 44.35 262.1 46.2 264.35 46.65 269.1 47.1 273.5 47.5 275.85 48.1 281.15 55.8 286.5 64.65 281.55 59.5 275.65 57.05 267.85 53.75 259.6 55.85 266.4 63.75 275.45 66.45 280.5 67.95 289.3 69.45 293.9 77.45 298.35 86.4 293.4 80.5 286.8 77.65 279.3 74.4 271.75 76.25 278.25 84.8 287.05 87.9 289.25 88.65 294.25 89.8 298.65 90.85 301 91.85 305.5 101.5 308.65 109.85 304 103.15 297.55 99.7 289.95 95.6 282.05 97.45 287.8 105.85 296.9 109.9 299.2 110.95 304.15 112.65 308.6 114.2 310.65 115.25 314.25 125.2 316.8 134.4 312.7 127.05 307 122.95 299.3 117.4 290.4 119.3 295.1 127.5 304.4 132.6 309.45 135.4 318.1 139.4 320.55 149.05 322.45 159.25 315.85 145.1 307.15 141.9 303.3 140.45 296.7 141.65 300.85 150.2 309.95 156.15 314.85 159.4 323.3 164.15 324.85 173.6 325.8 184.25 320.9 170.95 313.7 166.5 308.45 163.3 300.8 164.5 304.35 173.2 313.25 180.05 318.1 183.75 326.2 189.25 326.9 198.85 326.9 209.65 324.5 200.2 319.65 194.4 312.9 186.3 302.9 187.55 305.8 196.35 314.35 204.05 316.3 205.75 321.15 209.65 325.15 212.8 326.8 214.55 326.6 224.5 325.5 234.95 323.95 224.8 319.3 218.35 313.1 209.75 302.85 210.6 305.25 220.1 313.15 228.15 314.2 229.2 319.5 234.1 323.15 237.5 324.9 239.8 323.7 249.6 321.4 260.15 320.9 249.55 316.95 242.55 311.45 232.9 300.55 233.3 302.05 242 309.6 251.55 310.85 253.15 315.6 258.65 319 262.55 320.35 264.75 318.1 274.15 314.6 284.5 315.2 273.55 312 266.15 307.45 255.65 296 255.4 296.75 264.35 303.45 274.45 303.75 274.95 308.8 282.1 311.8 286.3 313 288.95 309.25 299.05 304.95 307.85 307.05 296.25 304.2 288.15 300.5 277.65 289.1 276.5 289.05 285.45 294.75 296.4 296.25 299.35 299.3 304.7 301.8 309.25 302.75 312.15 298.2 321.05 292.45 329.85 295.95 318.45 294.2 310.05 291.85 298.6 279.85 296.4 279.1 305.25 283.6 317.15 284.75 320.3 287.2 326.05 289.1 330.95 289.7 333.85 284 342.2 277.1 350.25 282.85 337.9 281.3 328.6 279.55 317.9 268.3 314.75 266.55 323.3 269.75 335.95 270.65 339.3 272.4 345.5 273.8 350.7 274.05 353.75 267.7 360.8 259.2 368.8 266.95 356.6 266.5 346.95 266.05 335.85 254.55 331.45 251.9 339.75 253.75 353.1 254.25 356.6 255.3 363.2 256.1 368.7 255.95 371.85 247.6 379.4 238.55 385.9 248.45 373.8 249.45 363.8 250.6 352 238.8 346.3 235.2 354.6 235.7 368.65 235.85 372.35 236.2 379.1 236.4 384.7 235.8 387.85 226.6 394.25 216.75 399.6 242.7 371.9 221.35 359.3 216.9 367.2 215.95 381.25 215.75 384.95 215.4 391.95 215.05 397.7 214.15 401 204.7 406.05 194.95 410.15 207.65 398.5 210.45 389.6 213.95 378.35 202.35 370.45 197.15 377.7 194.95 391.8 194.35 395.55 193.45 402.6 192.6 408.5 191.5 411.6 183.05 415.2 171.75 419.25 185.55 407.95 188.95 399.55 193.35 388.6 182.05 379.8 176.3 386.65 172.95 400.7 172.05 404.4 170.55 411.5 169.2 417.45 167.9 420.6L147.65 427.6Q160.6 418.85 165.45 410.85 173.15 398.1 160.75 387.5 154.25 394.35 149.75 408.8 148.55 412.65 146.5 419.9 144.75 426 143.3 429.05 130.2 433.5 122.6 436.25 158.8 409.9 137.9 394.05 128.85 401.9 124.65 416.5 123.95 419 121.85 427.95 120.35 434.4 119 437.55 78 452.5 44.35 473.25 13.3 492.45 0 509.1L5 513.05Q18.6 496.55 47.8 478.3 82.3 456.75 124.15 442.65 128.7 444.75 133.8 448.25 136.7 450.25 142.2 454.2 152.2 461.1 162.35 462.3 163.6 448.9 155.1 443.45 147.8 438.75 132.85 439.7L147.85 434.45Q154.6 437.95 165.55 446.3 175.9 452.95 187.9 453.05 188.85 440.05 178.9 434.95 170.8 430.85 155 431.85 164.3 428.4 170.65 425.75 178.95 429.35 190.65 436.95 201.1 442.6 213.2 441.7 212.95 427.45 201.35 424.05 193.35 421.7 174.35 424.25 185.05 419.8 193.4 415.85 201.15 418.25 214.2 425.2 226.2 430.45 237.75 428.05 235.9 414.45 223.8 412.1 214.5 410.35 194.75 415.2 231.8 397.6 258.75 374.95 267.15 375.05 280.65 377.45 292.25 378.4 302.3 372.2 299.7 367.8 298.2 366.15 295.4 363.1 291.55 362.4 281.5 360.6 260.2 373.7 269.25 366 278.05 356.7 286.15 355.95 299.05 356.65 309.85 356.1 319.1 348.75 315.85 344.8 314.35 343.5 311.4 341 307.8 340.75 298.8 340.1 281 353.45 288.7 344.9 294.95 336.05 302 334.5 314.2 333.75 324.65 331.95 332.85 323.5 326.15 317.5 320.5 317.5 311.7 317.5 299.5 329.4 304.5 321.65 308.8 313.45 312.2 312.35 318.15 311.1 324.35 309.85 327 309 336.8 305.9 343.3 296.95 335.45 291.8 326.55 295.4 319.55 298.25 312.3 306.35 316.1 298.25 319.25 289.45 322.45 287.95 327.95 286.15 333.7 284.25 336 283.2 344.95 279.25 350.5 269.6 334.95 262.4 321.9 281.45 324.3 273.8 326.35 264.6 331.85 261.2 342.05 256.75 350.35 251.9 354.6 241.95 346.45 239.5 341.6 241.2 334.05 243.85 327.95 256.45 329.45 247.9 330.3 239.4 335.2 235.55 344.8 230.15 352.65 224.55 355.85 214.25 353.15 213.65 351.25 213.45 347.7 213.15 344.75 214.2 336 217.35 330.9 232.4 331.55 223.9 331.55 214.1 336.15 209.45 345.1 203.5 352.2 197.5 354.45 186.85 345.95 186.6 341.65 189.25 334.25 193.9 331.5 208.35 331.35 198.9 330.45 188.75 334.5 183.7 342.85 177.1 349.4 170.55 350.6 159.8 348.25 159.8 346.3 160.05 342.65 160.55 339.85 162.35 331.25 167.8 330.1 184.85 329.05 174 327.3 163.4 330.7 158.15 338.3 151 344.25 144 344.35 133.3 334.5 135.5 330 145.65 327 152.45 326.9 161 324.95 149.95 321.9 138.3 324.7 133.05 331.55 125.35Z"/></g><g id="flash0.ai_5_Layer-1_.__3CGroup.__3E" transform="translate(30 54.9)" opacity=".1"><path fill="url(#Gradient_1)" stroke="none" d="M128.35 407.8Q134.7 405.35 139.9 404.3 120.2 397.2 110.7 397.85 98.2 398.7 94.75 412 106.7 415.6 118.3 411.7 118.35 411.65 128.35 407.8Z"/><path fill="url(#Gradient_2)" stroke="none" d="M106.35 393.05Q112.95 391.3 118 390.8 97.45 380.85 87.95 381.2 77.9 381.55 73.1 393.35 84.1 398.3 95.95 395.8 96.95 395.6 106.35 393.05Z"/><path fill="url(#Gradient_3)" stroke="none" d="M86.75 47.1Q91.5 46.65 93.75 46.2 102.3 44.35 110 36.35 101.8 34.25 94.1 36.9 88.3 38.9 83.3 43.35 85.8 39.9 89.1 35.55 95 31.5 101.4 23.7 109.5 13.75 116.3 0 105.2 3.7 97.45 14.75 87.25 31.65 77.9 44.9 80.85 39.4 81.2 32.8 81.7 22.9 75.15 15.6 70.65 24.6 72.85 32.1 73.15 33 75.25 38.5 76.85 42.55 77.3 45.8 70.6 55.35 64.6 65.5 67.9 58 67 51.15 65.9 42.95 58.75 36.65 55.05 46.05 57.95 53.75 58.3 54.75 60.9 60.15 62.8 64.2 63.5 67.35 57.15 78.35 52.55 87.95 57.95 72.65 51.75 64.5 49.8 61.9 46.85 60.3 44.2 59.1 44 59 41.1 68.75 44.65 76.4 45.15 77.5 48.2 82.85 50.5 86.9 51.55 90.1 46.55 100.65 42.2 112.25 45.35 94.55 39.75 87.6 37.9 85.3 34.9 84 31.9 83.05 31.05 82.6 29 93 33.3 100.3 33.7 101 37.5 106.45 40.25 110.35 41.65 113.8 37.85 124.15 34.65 135.75 35.85 126.2 32.85 119.2 29.25 110.8 20.15 107.45 19.1 117.85 24.3 125.35 25.15 126.55 29.2 131.45 32.35 135.25 33.95 138.3 30.9 149.95 28.95 161 28.85 152.45 25.85 145.65 21.35 135.5 11.5 133.3 11.6 144 17.55 151 18.3 151.9 23.05 156.75 26.55 160.35 28.55 163.4 26.8 174 25.75 184.85 24.6 167.8 16.05 162.35 13.2 160.55 9.55 160.05 6.05 159.9 5.25 159.8 6.45 170.55 13 177.1 13.95 178 19.1 182.45 23.05 185.8 25.4 188.75 24.5 198.9 24.35 208.35 21.6 193.9 14.2 189.25 9.9 186.6 1.4 186.85 3.65 197.5 10.75 203.5 12.05 204.6 17.35 208.35 21.65 211.4 24.3 214.1 24.3 223.9 24.95 232.4 19.85 217.35 11.1 214.2 8.15 213.15 4.6 213.45 2.7 213.65 0 214.25 3.2 224.55 11.05 230.15 12.95 231.5 18.15 234.55 22.85 237.25 25.55 239.4 26.4 247.9 27.9 256.45 21.8 243.85 14.25 241.2 9.4 239.5 1.25 241.95 5.5 251.9 13.8 256.75 16 258 21.4 260.45 26.55 262.75 29.5 264.6 31.55 273.8 33.95 281.45 20.9 262.4 5.35 269.6 10.9 279.25 19.85 283.2 22.15 284.25 27.9 286.15 33.4 287.95 36.6 289.45 39.75 298.25 43.55 306.35 36.35 298.25 29.3 295.4 20.45 291.8 12.55 296.95 19.05 305.9 28.85 309 31.5 309.85 37.7 311.1 43.65 312.35 47.05 313.45 51.35 321.65 56.35 329.4 44.15 317.5 35.35 317.5 29.7 317.5 23 323.5 31.2 331.95 41.65 333.75 44.1 334.15 50.9 334.7 57 335.2 60.9 336.05 67.15 344.9 74.85 353.45 57.05 340.1 48.05 340.75 44.45 341 41.5 343.5 40 344.8 36.75 348.75 46 356.1 56.85 356.65 59.2 356.75 66.65 356.5 73.25 356.25 77.8 356.7 86.6 366 95.65 373.7 74.35 360.6 64.35 362.4 60.45 363.1 57.65 366.15 56.15 367.8 53.55 372.2 63.6 378.4 75.2 377.45 77.2 377.25 85.5 376 92.25 375 97.1 374.95 124.05 397.6 161.1 415.2 141.35 410.35 132.05 412.1 119.95 414.45 118.1 428.05 129.65 430.45 141.65 425.2 142.75 424.75 151.7 420.3 157.9 417.25 162.45 415.85 170.8 419.8 181.5 424.25 162.5 421.7 154.5 424.05 142.9 427.45 142.65 441.7 154.75 442.6 165.2 436.95 166.25 436.4 174.4 431.45 180.35 427.85 185.2 425.75 191.55 428.4 200.85 431.85 185.05 430.85 177 434.95 167 440.05 167.95 453.05 179.95 452.95 190.3 446.3 201.25 437.95 208 434.45L223 439.7Q208.05 438.75 200.75 443.45 192.25 448.9 193.5 462.3 203.65 461.1 213.65 454.2 219.15 450.25 222.05 448.25 227.15 444.75 231.7 442.65 273.55 456.75 308.05 478.3 337.3 496.55 350.85 513.05L355.85 509.1Q342.55 492.45 311.5 473.25 277.85 452.5 236.85 437.55 235.5 434.4 234 427.95 231.9 418.95 231.2 416.5 227 401.9 217.95 394.05 197.05 409.9 233.25 436.25 225.65 433.5 212.55 429.05 211.1 426 209.35 419.9 207.3 412.65 206.1 408.8 201.6 394.35 195.1 387.5 182.7 398.1 190.4 410.85 195.25 418.85 208.2 427.6L187.95 420.6Q186.65 417.45 185.3 411.5 183.8 404.4 182.9 400.7 179.55 386.65 173.8 379.8 162.5 388.6 166.9 399.55 170.3 407.95 184.1 419.25 172.8 415.2 164.35 411.6 163.25 408.5 162.4 402.6 161.5 395.55 160.9 391.8 158.7 377.7 153.5 370.45 141.9 378.35 145.4 389.6 148.2 398.5 160.9 410.15 151.15 406.05 141.7 401 140.8 397.7 140.45 391.95 140.1 384.95 139.9 381.25 138.95 367.2 134.5 359.3 113.15 371.9 139.1 399.6 129.25 394.25 120.05 387.85 119.45 384.7 119.65 379.1 120 372.35 120.15 368.65 120.65 354.6 117.05 346.3 105.25 352 106.4 363.8 107.4 373.8 117.3 385.9 108.25 379.4 99.9 371.85 99.75 368.7 100.55 363.2 101.6 356.6 102.1 353.1 103.95 339.75 101.3 331.45 89.8 335.85 89.35 346.95 88.9 356.6 96.65 368.8 88.2 360.8 81.8 353.75 82.05 350.7 83.45 345.5 85.2 339.3 86.1 335.95 89.3 323.3 87.55 314.75 76.3 317.9 74.55 328.6 73 337.9 78.75 350.25 71.85 342.2 66.15 333.85 66.75 330.95 68.65 326.05 71.1 320.3 72.3 317.15 76.75 305.25 76 296.4 64 298.6 61.65 310.05 59.9 318.45 63.4 329.85 57.65 321.05 53.1 312.15 54.05 309.3 56.55 304.7 59.6 299.35 61.1 296.4 66.8 285.45 66.75 276.5 55.35 277.65 51.65 288.15 48.8 296.25 50.9 307.85 46.6 299.05 42.85 288.95 44.05 286.35 47.05 282.1 52.15 274.85 52.4 274.45 59.1 264.35 59.85 255.4 48.4 255.65 43.85 266.15 40.65 273.55 41.25 284.5 37.75 274.15 35.5 264.75 36.85 262.55 40.25 258.65 45 253.15 46.25 251.55 53.8 242 55.3 233.3 44.4 232.9 38.9 242.55 34.95 249.55 34.45 260.15 32.15 249.6 30.95 239.8 32.7 237.5 36.35 234.1 41.65 229.2 42.75 228.15 50.6 220.1 53 210.6 42.75 209.75 36.55 218.35 31.9 224.8 30.35 234.95 29.25 224.5 29.05 214.55 30.7 212.8 34.7 209.65 39.6 205.75 41.5 204.05 50.05 196.35 52.95 187.55 42.95 186.3 36.2 194.4 31.4 200.2 28.95 209.65 28.95 198.85 29.65 189.25 37.8 183.75 42.6 180.05 51.5 173.2 55.05 164.5 47.4 163.3 42.15 166.5 34.95 170.95 30.05 184.25 31 173.6 32.55 164.15 41 159.4 45.95 156.15 55 150.2 59.15 141.65 52.55 140.45 48.7 141.9 40 145.1 33.4 159.25 35.3 149.05 37.75 139.4 46.4 135.4 51.45 132.6 60.75 127.5 65.45 119.3 56.55 117.4 48.85 122.95 43.15 127.05 39.05 134.4 41.6 125.2 45.2 115.25 49.15 113.25 59 109.9 68.05 105.85 73.8 97.45 65.9 95.6 58.3 99.7 51.85 103.15 47.2 109.85 50.4 101.5 54.85 91.85 59.2 90.05 68.8 87.9 77.6 84.8 84.1 76.25 76.55 74.4 69.05 77.65 62.45 80.5 57.5 86.4 61.95 77.45 66.55 69.45 70.65 68.15 80.4 66.45 89.45 63.75 96.25 55.85 88 53.75 80.2 57.05 74.3 59.5 69.35 64.65 74.7 55.8 80 48.1 82.35 47.5 86.75 47.1Z"/></g><animate attributeName="display" fill="freeze" repeatCount="1" dur="3.167s" keyTimes="0;.118;1" values="none;inline;inline"/></g><g display="none"><g id="award4" transform="matrix(.1 0 0 .1 287 308.4)"><animateTransform attributeName="transform" additive="replace" type="translate" dur="3.167s" keyTimes="0;.118;.25;1" values="300.904,317.154;300.904,317.154;272.9,311.4;272.9,311.4" fill="freeze"/><animateTransform attributeName="transform" additive="sum" type="scale" dur="3.167s" keyTimes="0;.118;.25;1" values=".1,.1;.1,.1;1,1;1,1" fill="freeze"/><animateTransform attributeName="transform" additive="sum" type="translate" dur="3.167s" keyTimes="0;.118;.25;1" values="-139.05,-87.55;-139.05,-87.55;-138.75,-87.35;-138.75,-87.35" fill="freeze"/><path fill="#404041" stroke="none" d="M86.3 109.4L83.6 109.4 83.6 119.25 86.3 119.25 86.3 109.4M83.5 106.9Q83.5 108.2 84.95 108.2 85.7 108.2 86.05 107.85 86.4 107.5 86.4 106.9 86.4 105.55 84.95 105.55 83.5 105.55 83.5 106.9M97.9 109.4L95.1 109.4 93.2 115Q92.85 116.2 92.8 117.05L92.75 117.05Q92.65 116.1 92.35 115L90.45 109.4 87.65 109.4 91.4 119.25 94.15 119.25 97.9 109.4M106.3 110.1Q105.25 109.2 103.3 109.2 101.2 109.2 99.5 110.1L100.4 111.9Q102 111.2 103.2 111.2 104.7 111.2 104.7 112.7L104.7 113.15 103 113.2Q100.8 113.25 99.7 114 98.6 114.75 98.6 116.3 98.6 117.8 99.4 118.6 100.25 119.45 101.65 119.45 102.8 119.45 103.5 119.1 104.25 118.75 104.9 117.9L105 117.9 105.5 119.25 107.35 119.25 107.35 112.7Q107.35 110.95 106.3 110.1M101.95 115.15Q102.5 114.75 103.65 114.75L104.7 114.7 104.7 115.5Q104.7 116.4 104.15 116.95 103.6 117.45 102.65 117.45 101.35 117.45 101.35 116.35 101.35 115.55 101.95 115.15M119.25 108.2Q120 108.2 120.35 107.85 120.7 107.5 120.7 106.9 120.7 105.55 119.25 105.55 117.8 105.55 117.8 106.9 117.8 108.2 119.25 108.2M120.6 109.4L117.9 109.4 117.9 119.25 120.6 119.25 120.6 109.4M115.85 109.4L113.1 109.4 113.1 107.35 111.35 107.35 110.6 109.4 109.1 110.3 109.1 111.45 110.4 111.45 110.4 116.15Q110.4 117.8 111.15 118.6 111.85 119.45 113.45 119.45 114.95 119.45 115.95 119L115.95 117Q114.95 117.3 114.25 117.3 113.7 117.3 113.4 117 113.1 116.75 113.1 116.15L113.1 111.45 115.85 111.45 115.85 109.4M124.75 109.4L121.95 109.4 125.7 119.25 128.45 119.25 132.2 109.4 129.4 109.4 127.5 115Q127.15 116.2 127.1 117.05L127.05 117.05Q126.95 116.1 126.65 115L124.75 109.4M142 115L142 113.7Q142 111.6 140.85 110.45 139.7 109.25 137.6 109.25 135.45 109.25 134.2 110.6 132.95 111.95 132.95 114.4 132.95 116.8 134.3 118.1 135.65 119.45 138 119.45 139.15 119.45 139.95 119.25 140.75 119.1 141.45 118.75L141.45 116.65Q140.6 117.05 139.8 117.25 139 117.45 138.15 117.45 137 117.45 136.35 116.8 135.7 116.15 135.65 115L142 115M139 111.7Q139.5 112.25 139.5 113.2L135.75 113.2Q135.8 112.25 136.3 111.7 136.75 111.15 137.65 111.15 138.5 111.15 139 111.7M150.9 110Q149.25 109.25 147.45 109.25 145.6 109.25 144.6 109.95 143.55 110.65 143.55 112 143.55 112.75 143.8 113.25 144.05 113.8 144.6 114.2 145.1 114.6 146.25 115.1L147.5 115.65Q148 115.9 148.15 116.1 148.35 116.3 148.35 116.6 148.35 117.45 146.9 117.45 146.2 117.45 145.25 117.25 144.3 117 143.6 116.65L143.6 118.85Q144.25 119.15 145 119.3 145.75 119.45 146.8 119.45 148.9 119.45 149.95 118.65 151 117.85 151 116.35 151 115.6 150.75 115.1 150.5 114.55 149.95 114.15 149.45 113.75 148.3 113.25 147 112.75 146.6 112.5 146.2 112.25 146.2 111.85 146.2 111.25 147.4 111.25 148.1 111.25 148.7 111.45L150.1 111.95 150.9 110M60.7 108.05Q58.95 106.4 55.8 106.4L51.75 106.4 51.75 119.25 55.4 119.25Q58.8 119.25 60.65 117.55 62.45 115.9 62.45 112.7 62.45 109.7 60.7 108.05M54.5 108.65L55.95 108.65Q59.6 108.65 59.6 112.75 59.6 117 55.65 117L54.5 117 54.5 108.65M68.9 109.25Q66.75 109.25 65.5 110.6 64.25 111.95 64.25 114.4 64.25 116.8 65.6 118.1 66.95 119.45 69.3 119.45 70.45 119.45 71.25 119.25 72.05 119.1 72.75 118.75L72.75 116.65Q71.9 117.05 71.1 117.25 70.3 117.45 69.45 117.45 68.3 117.45 67.65 116.8 67 116.15 66.95 115L73.3 115 73.3 113.7Q73.3 111.6 72.15 110.45 71 109.25 68.9 109.25M70.3 111.7Q70.8 112.25 70.8 113.2L67.05 113.2Q67.1 112.25 67.6 111.7 68.05 111.15 68.95 111.15 69.8 111.15 70.3 111.7M79.25 109.75Q78.45 110.25 78 111.1L77.9 111.1 77.5 109.4 75.45 109.4 75.45 119.25 78.15 119.25 78.15 114.25Q78.15 113.05 78.85 112.4 79.55 111.75 80.85 111.75L81.65 111.85 81.85 109.3 80.95 109.25Q80.05 109.25 79.25 109.75M69.85 85.9Q69.2 86.35 68.5 86.55 67.85 86.75 67.1 86.75 65 86.75 65 83.85 65 80.9 67.1 80.9 67.65 80.9 68.15 81.05L69.35 81.5 70.15 79.4Q68.8 78.75 67.1 78.75 64.75 78.75 63.5 80.05 62.25 81.4 62.25 83.9 62.25 88.95 66.85 88.95 67.85 88.95 68.55 88.75 69.2 88.6 69.85 88.2L69.85 85.9M78.5 78.8L77.6 78.75Q76.7 78.75 75.9 79.25 75.1 79.75 74.65 80.6L74.55 80.6 74.15 78.9 72.1 78.9 72.1 88.75 74.8 88.75 74.8 83.75Q74.8 82.55 75.5 81.9 76.2 81.25 77.5 81.25L78.3 81.35 78.5 78.8M60.1 75.05L57.4 75.05 57.4 88.75 60.1 88.75 60.1 75.05M54.6 78.9L51.95 78.9 51.95 83.55Q51.95 85.3 51.45 86.05 50.95 86.8 49.8 86.8 49 86.8 48.6 86.25 48.25 85.75 48.25 84.65L48.25 78.9 45.55 78.9 45.55 85.35Q45.55 87.05 46.45 88 47.3 88.95 49.05 88.95 50.05 88.95 50.85 88.55 51.65 88.2 52.05 87.5L52.2 87.5 52.55 88.75 54.6 88.75 54.6 78.9M38.65 81.45L38.65 78.15 43.35 78.15 43.35 75.9 35.95 75.9 35.95 88.75 38.65 88.75 38.65 83.65 43 83.65 43 81.45 38.65 81.45M155.25 83.8Q155.25 82.25 154.65 81.1 154.1 79.95 153 79.35 151.9 78.75 150.5 78.75 148.2 78.75 146.95 80.1 145.7 81.4 145.7 83.8 145.7 85.35 146.3 86.55 146.85 87.7 147.95 88.3 149.05 88.95 150.45 88.95 152.7 88.95 153.95 87.55 155.25 86.2 155.25 83.8M152.5 83.8Q152.5 85.3 152.05 86.05 151.55 86.75 150.5 86.75 149.4 86.75 148.95 86.05 148.45 85.3 148.45 83.8 148.45 82.35 148.9 81.65 149.4 80.9 150.45 80.9 151.55 80.9 152 81.65 152.5 82.35 152.5 83.8M129.35 75Q127.55 75 126.7 75.75 125.9 76.5 125.9 78.2L125.9 78.9 124.4 79.65 124.4 80.95 125.9 80.95 125.9 88.75 128.55 88.75 128.55 80.95 130.9 80.95 130.9 78.9 128.55 78.9 128.55 78.3Q128.55 77.8 128.8 77.45 129.1 77.1 129.65 77.1 130.35 77.1 131.15 77.35L131.85 75.4Q130.75 75 129.35 75M139.2 83.85Q139.2 80.9 141.3 80.9 141.85 80.9 142.35 81.05L143.55 81.5 144.35 79.4Q143 78.75 141.3 78.75 138.95 78.75 137.7 80.05 136.45 81.4 136.45 83.9 136.45 88.95 141.05 88.95 142.05 88.95 142.75 88.75 143.4 88.6 144.05 88.2L144.05 85.9Q143.4 86.35 142.7 86.55 142.05 86.75 141.3 86.75 139.2 86.75 139.2 83.85M121.05 79.35Q119.95 78.75 118.55 78.75 116.25 78.75 115 80.1 113.75 81.4 113.75 83.8 113.75 85.35 114.35 86.55 114.9 87.7 116 88.3 117.1 88.95 118.5 88.95 120.75 88.95 122 87.55 123.3 86.2 123.3 83.8 123.3 82.25 122.7 81.1 122.15 79.95 121.05 79.35M117 86.05Q116.5 85.3 116.5 83.8 116.5 82.35 116.95 81.65 117.45 80.9 118.5 80.9 119.6 80.9 120.05 81.65 120.55 82.35 120.55 83.8 120.55 85.3 120.1 86.05 119.6 86.75 118.55 86.75 117.45 86.75 117 86.05M89.25 78.9L86.6 78.9 86.6 83.55Q86.6 85.3 86.1 86.05 85.6 86.8 84.45 86.8 83.65 86.8 83.25 86.25 82.9 85.75 82.9 84.65L82.9 78.9 80.2 78.9 80.2 85.35Q80.2 87.05 81.1 88 81.95 88.95 83.7 88.95 84.7 88.95 85.5 88.55 86.3 88.2 86.7 87.5L86.85 87.5 87.2 88.75 89.25 88.75 89.25 78.9M100.7 80.2L100.45 80.2Q99.7 78.75 97.45 78.75 96.5 78.75 95.75 79.15 95 79.5 94.6 80.2L94.45 80.2 94.1 78.9 92.05 78.9 92.05 88.75 94.75 88.75 94.75 84.15Q94.75 82.4 95.2 81.65 95.65 80.9 96.7 80.9 97.45 80.9 97.8 81.4 98.15 81.95 98.15 83L98.15 88.75 100.85 88.75 100.85 83.8Q100.85 82.3 101.35 81.6 101.85 80.9 102.8 80.9 103.6 80.9 103.95 81.4 104.3 81.95 104.3 83L104.3 88.75 107 88.75 107 82.35Q107 80.45 106.15 79.6 105.25 78.75 103.6 78.75 102.65 78.75 101.85 79.1 101.1 79.5 100.7 80.2M116.3 47.75Q115.45 46.45 113.95 45.7 112.4 45 110.4 45 108.85 45 107.65 45.3 106.4 45.6 105.35 46.15 104.3 46.7 102.75 48.05L105.2 50.95Q106.5 49.9 107.65 49.35 108.8 48.75 110.05 48.75 111.25 48.75 111.95 49.4 112.65 50 112.65 51.3 112.65 52.15 112.35 52.95 112.05 53.8 111.3 54.75 110.55 55.65 108.2 58.1L102.8 63.55 102.8 66.7 117.75 66.7 117.75 62.9 108.45 62.9 108.45 62.7 111.2 60.1Q113.95 57.55 115.05 56.2 116.15 54.85 116.65 53.55 117.15 52.25 117.15 50.8 117.15 49.1 116.3 47.75M148.2 45.3L144.45 45.3 137.55 50.8 139.75 53.5 143.8 50.05 143.65 66.7 148.2 66.7 148.2 45.3M132.85 47.75Q130.95 44.95 127.25 44.95 123.45 44.95 121.6 47.65 119.8 50.3 119.8 56 119.8 61.45 121.65 64.2 123.55 67 127.25 67 131.1 67 132.9 64.3 134.75 61.6 134.75 56 134.75 50.55 132.85 47.75M124.3 56Q124.3 52.05 124.95 50.35 125.65 48.6 127.25 48.6 128.8 48.6 129.55 50.35 130.25 52.05 130.25 56 130.25 59.9 129.55 61.6 128.85 63.35 127.25 63.35 125.65 63.35 124.95 61.65 124.3 59.95 124.3 56M171.65 106.4L167.95 106.4 164.7 116.25 164.65 116.25 161.65 106.4 157.9 106.4 157.9 119.25 160.35 119.25 160.2 109.15 160.25 109.15 163.35 119.25 165.85 119.25 169.15 109.2 169.25 109.2Q169.15 111.6 169.15 112.15L169.1 119.25 171.65 119.25 171.65 106.4M182.75 119.25L182.75 112.7Q182.75 110.95 181.7 110.1 180.65 109.2 178.7 109.2 176.6 109.2 174.9 110.1L175.8 111.9Q177.4 111.2 178.6 111.2 180.1 111.2 180.1 112.7L180.1 113.15 178.4 113.2Q176.2 113.25 175.1 114 174 114.75 174 116.3 174 117.8 174.8 118.6 175.65 119.45 177.05 119.45 178.2 119.45 178.9 119.1 179.65 118.75 180.3 117.9L180.4 117.9 180.9 119.25 182.75 119.25M180.1 114.7L180.1 115.5Q180.1 116.4 179.55 116.95 179 117.45 178.05 117.45 176.75 117.45 176.75 116.35 176.75 115.55 177.35 115.15 177.9 114.75 179.05 114.75L180.1 114.7M189.3 109.75Q188.5 110.25 188.05 111.1L187.95 111.1 187.55 109.4 185.5 109.4 185.5 119.25 188.2 119.25 188.2 114.25Q188.2 113.05 188.9 112.4 189.6 111.75 190.9 111.75L191.7 111.85 191.9 109.3 191 109.25Q190.1 109.25 189.3 109.75M196.35 105.55L193.65 105.55 193.65 119.25 196.35 119.25 196.35 116.2 197.5 115.25 200.3 119.25 203.4 119.25 199.25 113.7 203.15 109.4 200.15 109.4 196.25 113.9 196.2 113.9 196.35 105.55M211.75 110.45Q210.6 109.25 208.5 109.25 206.35 109.25 205.1 110.6 203.85 111.95 203.85 114.4 203.85 116.8 205.2 118.1 206.55 119.45 208.9 119.45 210.05 119.45 210.85 119.25 211.65 119.1 212.35 118.75L212.35 116.65Q211.5 117.05 210.7 117.25 209.9 117.45 209.05 117.45 207.9 117.45 207.25 116.8 206.6 116.15 206.55 115L212.9 115 212.9 113.7Q212.9 111.6 211.75 110.45M209.9 111.7Q210.4 112.25 210.4 113.2L206.65 113.2Q206.7 112.25 207.2 111.7 207.65 111.15 208.55 111.15 209.4 111.15 209.9 111.7M215.55 109.4L214.05 110.3 214.05 111.45 215.35 111.45 215.35 116.15Q215.35 117.8 216.1 118.6 216.8 119.45 218.4 119.45 219.9 119.45 220.9 119L220.9 117Q219.9 117.3 219.2 117.3 218.65 117.3 218.35 117 218.05 116.75 218.05 116.15L218.05 111.45 220.8 111.45 220.8 109.4 218.05 109.4 218.05 107.35 216.3 107.35 215.55 109.4M237.25 78.9L234.35 78.9 232.55 84.45Q232.25 85.25 232.15 86.15L232.1 86.15Q232.05 85.15 231.8 84.45L229.95 78.9 227 78.9 230.9 88.7 230.75 89.15Q230.45 90.05 229.9 90.5 229.4 90.9 228.65 90.9 228.1 90.9 227.6 90.8L227.6 92.9Q228.3 93.05 229 93.05 230.4 93.05 231.45 92.3 232.5 91.55 233.1 90L237.25 78.9M212.4 75.05L209.7 75.05 209.7 78.2Q209.7 79.1 209.9 80.2L209.8 80.2Q208.85 78.75 207 78.75 205.2 78.75 204.2 80.1 203.2 81.45 203.2 83.85 203.2 86.25 204.2 87.6 205.2 88.95 206.9 88.95 208.8 88.95 209.7 87.5L209.8 87.5 210.35 88.75 212.4 88.75 212.4 75.05M206.45 86.05Q205.9 85.35 205.9 83.9 205.9 82.45 206.45 81.7 206.9 80.9 207.8 80.9 208.9 80.9 209.4 81.6 209.9 82.3 209.9 83.85L209.9 84.15Q209.85 85.6 209.35 86.2 208.9 86.8 207.85 86.8 206.95 86.8 206.45 86.05M217.85 78.9L215.15 78.9 215.15 88.75 217.85 88.75 217.85 78.9M215.05 76.4Q215.05 77.7 216.5 77.7 217.25 77.7 217.6 77.35 217.95 77 217.95 76.4 217.95 75.05 216.5 75.05 215.05 75.05 215.05 76.4M221.85 76.85L221.1 78.9 219.6 79.8 219.6 80.95 220.9 80.95 220.9 85.65Q220.9 87.3 221.65 88.1 222.35 88.95 223.95 88.95 225.45 88.95 226.45 88.5L226.45 86.5Q225.45 86.8 224.75 86.8 224.2 86.8 223.9 86.5 223.6 86.25 223.6 85.65L223.6 80.95 226.35 80.95 226.35 78.9 223.6 78.9 223.6 76.85 221.85 76.85M196.9 78.75Q194.6 78.75 193.35 80.1 192.1 81.4 192.1 83.8 192.1 85.35 192.7 86.55 193.25 87.7 194.35 88.3 195.45 88.95 196.85 88.95 199.1 88.95 200.35 87.55 201.65 86.2 201.65 83.8 201.65 82.25 201.05 81.1 200.5 79.95 199.4 79.35 198.3 78.75 196.9 78.75M195.35 86.05Q194.85 85.3 194.85 83.8 194.85 82.35 195.3 81.65 195.8 80.9 196.85 80.9 197.95 80.9 198.4 81.65 198.9 82.35 198.9 83.8 198.9 85.3 198.45 86.05 197.95 86.75 196.9 86.75 195.8 86.75 195.35 86.05M171.5 79.6Q170.6 78.75 168.95 78.75 168 78.75 167.2 79.1 166.45 79.5 166.05 80.2L165.8 80.2Q165.05 78.75 162.8 78.75 161.85 78.75 161.1 79.15 160.35 79.5 159.95 80.2L159.8 80.2 159.45 78.9 157.4 78.9 157.4 88.75 160.1 88.75 160.1 84.15Q160.1 82.4 160.55 81.65 161 80.9 162.05 80.9 162.8 80.9 163.15 81.4 163.5 81.95 163.5 83L163.5 88.75 166.2 88.75 166.2 83.8Q166.2 82.3 166.7 81.6 167.2 80.9 168.15 80.9 168.95 80.9 169.3 81.4 169.65 81.95 169.65 83L169.65 88.75 172.35 88.75 172.35 82.35Q172.35 80.45 171.5 79.6M180.45 78.75Q179.5 78.75 178.75 79.15 178 79.5 177.6 80.2L177.45 80.2 177.1 78.9 175.05 78.9 175.05 88.75 177.75 88.75 177.75 84.15Q177.75 82.4 178.2 81.65 178.65 80.9 179.7 80.9 180.45 80.9 180.8 81.4 181.15 81.95 181.15 83L181.15 88.75 183.85 88.75 183.85 83.8Q183.85 82.3 184.35 81.6 184.85 80.9 185.8 80.9 186.6 80.9 186.95 81.4 187.3 81.95 187.3 83L187.3 88.75 190 88.75 190 82.35Q190 80.45 189.15 79.6 188.25 78.75 186.6 78.75 185.65 78.75 184.85 79.1 184.1 79.5 183.7 80.2L183.45 80.2Q182.7 78.75 180.45 78.75M166.9 65.4Q169 63.8 169 61.15 169 59.5 167.95 58.1 166.9 56.7 164.5 55.4 166.5 54.4 167.4 53.1 168.3 51.8 168.3 50.2 168.3 47.8 166.45 46.4 164.55 45 161.5 45 158.4 45 156.5 46.45 154.6 47.85 154.6 50.15 154.6 51.7 155.4 53.05 156.25 54.35 158.05 55.5 155.9 56.6 154.95 58 153.95 59.45 153.95 61.25 153.95 64 155.95 65.5 157.95 67 161.5 67 164.85 67 166.9 65.4M163.95 59.2Q164.8 60.05 164.8 61.05 164.8 62.2 163.95 62.95 163.1 63.65 161.45 63.65 159.9 63.65 159 62.95 158.15 62.25 158.15 61 158.15 58.8 161.25 57.35 163.1 58.35 163.95 59.2M164.05 50.5Q164.05 51.4 163.5 52.1 162.9 52.85 161.5 53.5 160 52.75 159.45 52.1 158.9 51.4 158.9 50.5 158.9 49.5 159.6 48.9 160.3 48.3 161.45 48.3 162.6 48.3 163.35 48.9 164.05 49.5 164.05 50.5Z"/><path fill="url(#Gradient_7)" stroke="none" d="M27.65 148.65Q31.85 150.55 36.3 149.6 38.85 149.05 44.6 147.7 36.85 143.95 33.25 144.1 29.45 144.2 27.65 148.65Z"/><path fill="url(#Gradient_8)" stroke="none" d="M52.8 152.75Q45.433 150.150 41.85 150.35 37.1 150.7 35.85 155.7 40.35 157.05 44.75 155.6 47.245 154.751 52.85 152.8L52.9 152.8Q52.866 152.787 52.8 152.75Z"/><path fill="url(#Gradient_9)" stroke="none" d="M28.4 5.9Q26.75 9.3 27.55 12.15 28.95 15.25 29.25 17.3 26.5 21.25 24.45 24.75 27.25 18.3 22.25 13.85 20.8 17.4 21.9 20.3 23.6 23.4 24.05 25.45 21.7 29.5 19.9 33.25 21.95 27.45 19.6 24.4 18.4 22.85 16.65 22.3 15.55 26 16.9 28.9 18.85 32 19.5 34.05 17.65 37.95 16 42.45 17.15 35.75 15.05 33.1 14.7 32.65 11.75 31.25 11 35.2 12.65 37.9 14.9 40.8 15.75 43 14.45 46.6 13.1 51.3 13.55 47.7 12.45 45.05 11.1 41.85 7.65 40.6 7.25 44.55 9.2 47.4 11.8 50.3 12.85 52.3 11.9 55.85 10.95 60.85 10.9 57.6 9.75 55.05 8.05 51.2 4.35 50.4 4.4 54.45 6.65 57.1 9.55 59.8 10.8 61.75 10.15 65.55 9.75 69.85 9.35 63.4 6.1 61.35 4.95 60.65 2 60.4 2.45 64.45 4.95 66.95 8.1 69.45 9.6 71.35 9.25 75.8 9.25 78.75 8.2 73.3 5.4 71.55 3.8 70.55 .55 70.6 1.4 74.65 4.1 76.9 7.5 79.15 9.2 80.9 9.2 84.1 9.45 87.85 7.55 82.15 4.2 80.95 2.85 80.5 0 81 1.25 84.85 4.2 87 7.85 89.05 9.7 90.5 10 93.8 10.6 96.95 8.25 92.15 5.4 91.15 3.55 90.5 .5 91.45 2.1 95.2 5.25 97.05 9.1 98.75 11.2 100 11.9 103.35 12.85 106.4 7.95 99.15 2.05 101.9 4.15 105.55 7.5 107.05 9.5 107.9 13.85 109.4 15.25 113.2 16.5 115.8 10.15 108.7 4.75 112.25 7.2 115.6 10.95 116.8 13.1 117.45 17.8 118.5 19.35 121.45 21.35 124.5 16.7 120.05 13.4 120.05 11.25 120.05 8.7 122.3 11.8 125.5 15.8 126.15 18.1 126.55 23.05 127 25.55 130.55 28.3 133.6 21.6 128.55 18.2 128.8 16.25 128.95 13.9 131.8 17.4 134.6 21.5 134.8 23.9 134.95 29.45 134.85 32.7 138.25 36.15 141.25 28.1 136.3 24.35 137 22.2 137.35 20.25 140.65 24.05 143 28.45 142.65 31 142.45 36.75 141.75 43.851 147.731 52.8 152.75 52.866 152.787 52.9 152.8L52.85 152.8Q56.717 154.963 60.9 156.95 53.45 155.1 49.95 155.8 45.35 156.65 44.65 161.8 49.05 162.7 53.6 160.7 56.15 159.6 61.45 157.2 64.9 158.85 68.6 160.35 61.45 159.4 58.45 160.3 54.05 161.55 53.95 166.95 58.5 167.3 62.45 165.15 64.75 163.9 70 160.95L75.95 163.25Q62.8 162.4 63.5 171.25 68.05 171.2 71.95 168.7 74.2 167.25 78.65 164.2L84.3 166.2Q72.3 165.4 73.15 174.75 77 174.3 80.8 171.65 86.15 167.95 87.6 167.3L92.55 168.9Q94.25 172.2 95.65 173.9L97.55 172.45Q95.2 169.5 94.4 167.05 93.9 166.9 89.55 165.4 88.65 163.35 87.4 157.45 85.85 151.95 82.4 148.95 74.5 154.95 88.2 164.9L80.35 162.15Q80.25 161.95 77.95 154.5 76.25 149.05 73.75 146.45 66.05 153.05 78.7 161.6L71.05 159Q70.85 158.5 69.15 151.45 67.9 146.15 65.7 143.55 61.45 146.9 63.1 151 64.4 154.2 69.6 158.45 65.65 157.05 62.15 155.6 61.9 154.85 60.85 148.1 60 142.75 58.05 140 53.7 143 55 147.25 56.05 150.6 60.85 155.05 56.75 153.3 53.6 151.55 53.35 150.6 52.9 144.1 52.55 138.8 50.85 135.8 42.8 140.55 52.6 151.05 48.6 148.85 45.4 146.6 45.25 145.7 45.45 139.35 45.6 134.05 44.25 130.9 39.8 133.05 40.25 137.5 40.65 141.25 44.35 145.85 40.8 143.25 37.8 140.55 37.75 139.75 38.6 133.45 39.3 128.4 38.3 125.25 33.95 126.95 33.8 131.15 33.65 134.8 36.55 139.4 33.05 136.1 30.95 133.7 31 133 32.55 127 33.8 122.2 33.15 118.95 28.9 120.2 28.2 124.2 27.65 127.7 29.8 132.4 27.8 130.1 25 126.2 25.05 125.85 27.35 119.9 29.05 115.4 28.75 112.05 24.2 112.9 23.3 117.2 22.65 120.4 24 124.65 21.95 121.6 20.1 118 20.2 117.6 23.1 112.05 25.25 107.9 25.25 104.5 20.95 104.95 19.55 108.95 18.45 112 19.25 116.35 17.45 112.55 16.2 109.2 17 107.55 19.85 103.75 22.4 99.9 22.65 96.55 18.3 96.65 16.6 100.6 15.4 103.4 15.6 107.55 14.2 103.35 13.45 100.05 14.35 98.65 17.5 95.1 20.35 91.5 20.9 88.2 16.8 88.05 14.75 91.7 13.25 94.3 13.05 98.35 12.2 94.5 11.7 90.65 12.85 89.15 16.15 86.25 19.15 83.2 20.05 79.6 16.2 79.25 13.85 82.5 12.1 84.95 11.5 88.8 11.05 84.35 11 81.1 12.15 79.9 15.7 77.1 18.95 74.2 20.05 70.9 16.25 70.45 13.7 73.5 11.85 75.7 10.95 79.25 10.95 75.4 11.25 71.55 12.5 70.45 16.15 68.05 19.5 65.45 20.8 62.15 17.9 61.75 15.95 62.95 13.25 64.6 11.4 69.65 11.65 66.4 12.35 62.05 13.65 61.05 17.4 59 20.85 56.8 22.4 53.55 19.95 53.05 18.45 53.65 15.15 54.85 12.65 60.2 13.35 56.4 14.3 52.7 15.7 51.85 19.5 50.1 23 48.2 24.75 45.1 21.4 44.4 18.5 46.5 16.35 48.05 14.8 50.8 15.6 47.8 17.1 43.55 18.6 42.8 22.3 41.55 25.75 40 27.9 36.85 24.95 36.15 22.05 37.7 19.6 39 17.85 41.55 19.15 38.25 20.75 34.7 22.4 34.05 26 33.2 29.35 32.05 31.8 28.85 28.95 28.15 26.1 29.35 23.65 30.4 21.75 32.65 23.95 28.35 25.15 26.25 26.75 25.75 30.4 25.1 33.85 24.1 36.4 21.1 33.3 20.3 30.35 21.55 28.1 22.5 26.25 24.45 28.1 21.3 30.25 18.2 32 17.75 35.45 17.45 38.7 16.75 41.6 13.75 36.05 12.3 31.5 16.4L33.7 13.45Q35.95 11.9 38.35 8.95 41.4 5.2 44 0 39.8 1.4 36.85 5.6 33.05 12 29.5 17 30.6 14.8 30.7 12.4 30.9 8.65 28.4 5.9Z"/><path fill="url(#Gradient_10)" stroke="none" d="M232.95 147.7Q236.2 148.05 241.25 149.6 245.7 150.55 249.9 148.65 248.1 144.2 244.3 144.1 240.7 143.95 232.95 147.7Z"/><path fill="url(#Gradient_11)" stroke="none" d="M224.7 152.75Q224.683 152.787 224.65 152.8L224.65 152.8Q227.968 153.458 232.8 155.6 237.2 157.05 241.7 155.7 240.45 150.7 235.7 150.35 232.116 150.150 224.7 152.75Z"/><path fill="url(#Gradient_12)" stroke="none" d="M250 12.15Q250.8 9.3 249.15 5.9 246.65 8.65 246.85 12.4 246.95 14.8 248.05 17 242.6 8.3 240.7 5.6 237.75 1.4 233.55 0 236.15 5.2 239.2 8.95 241.6 11.9 243.85 13.45L246.05 16.4Q241.5 12.3 235.95 13.75 238.85 16.75 242.1 17.45 243.9 17.85 247.3 18.2 249.45 21.3 251.3 24.45 249.45 22.5 247.2 21.55 244.25 20.3 241.15 21.1 243.7 24.1 247.15 25.1 249.05 25.65 252.4 26.25 253.6 28.35 255.8 32.65 253.9 30.4 251.45 29.35 248.6 28.15 245.75 28.85 248.2 32.05 251.55 33.2 253.4 33.85 256.8 34.7 258.4 38.25 259.7 41.55 257.95 39 255.5 37.7 252.6 36.15 249.65 36.85 251.8 40 255.25 41.55 257.15 42.4 260.45 43.55 261.95 47.8 262.75 50.8 261.2 48.05 259.05 46.5 256.15 44.4 252.8 45.1 254.55 48.2 258.05 50.1 260 51.2 263.25 52.7 264.2 56.4 264.9 60.2 262.4 54.85 259.15 53.65 257.6 53.05 255.15 53.55 256.7 56.8 260.15 59 262.05 60.25 265.2 62.05 265.9 66.4 266.15 69.65 264.35 64.6 261.6 62.95 259.65 61.75 256.75 62.15 258.05 65.45 261.4 68.05 263.25 69.45 266.3 71.55 266.6 75.4 266.6 79.25 265.7 75.7 263.85 73.5 261.3 70.45 257.5 70.9 258.6 74.2 261.85 77.1 263.6 78.7 266.55 81.1 266.5 84.35 266.05 88.8 265.5 84.95 263.7 82.5 261.35 79.25 257.5 79.6 258.4 83.2 261.4 86.25 263 87.9 265.85 90.65 265.35 94.5 264.5 98.35 264.3 94.3 262.8 91.7 260.75 88.05 256.65 88.2 257.2 91.5 260.05 95.1 261.55 97 264.1 100.05 263.35 103.35 261.95 107.55 262.15 103.4 260.95 100.6 259.25 96.65 254.9 96.55 255.15 99.9 257.7 103.75 259.1 105.8 261.35 109.2 260.15 112.55 258.3 116.35 259.1 112 258 108.95 256.6 104.95 252.3 104.5 252.3 107.9 254.45 112.05 257.35 117.6 257.45 118 255.6 121.6 253.55 124.65 254.9 120.4 254.25 117.2 253.35 112.9 248.8 112.05 248.5 115.4 250.2 119.9 252.5 125.85 252.55 126.2 249.75 130.1 247.75 132.4 249.9 127.7 249.35 124.2 248.7 120.2 244.4 118.95 243.75 122.2 245 127 246.55 133 246.6 133.7 244.55 136.1 241 139.4 243.95 134.8 243.75 131.15 243.6 126.95 239.25 125.25 238.25 128.4 238.95 133.45 239.8 139.75 239.75 140.55 236.75 143.25 233.2 145.85 236.9 141.25 237.3 137.5 237.75 133.05 233.3 130.9 231.95 134.05 232.1 139.35 232.3 145.7 232.15 146.6 228.95 148.85 224.95 151.05 234.75 140.55 226.7 135.8 225 138.8 224.65 144.1 224.2 150.6 223.95 151.55 220.8 153.3 216.7 155.05 221.5 150.6 222.55 147.25 223.85 143 219.5 140 217.55 142.75 216.7 148.1 215.65 154.85 215.4 155.6 211.9 157.05 207.95 158.45 213.15 154.2 214.45 151 216.1 146.9 211.85 143.55 209.65 146.15 208.4 151.45 206.7 158.5 206.5 159L198.85 161.6Q211.5 153.05 203.8 146.45 201.3 149.05 199.6 154.5 197.3 161.95 197.2 162.15L189.35 164.9Q203.05 154.95 195.15 148.95 191.7 151.95 190.15 157.45 188.9 163.35 188 165.4 183.25 166.7 183.15 167.05 182.35 169.5 180 172.45L181.9 173.9Q183.3 172.2 185 168.9L189.95 167.3Q191.4 167.95 196.75 171.65 200.55 174.3 204.4 174.75 205.25 165.4 193.25 166.2L198.9 164.2Q201.45 165.55 205.6 168.7 209.5 171.2 214.05 171.25 214.75 162.4 201.6 163.25L207.55 160.95Q210.7 162.3 215.1 165.15 219.05 167.3 223.6 166.95 223.5 161.55 219.15 160.3 216.1 159.4 208.95 160.35 212.65 158.85 216.1 157.2 219.05 158.1 224 160.7 228.55 162.7 232.9 161.8 232.2 156.65 227.65 155.8 224.1 155.1 216.65 156.95 220.834 154.962 224.65 152.8L224.65 152.8Q224.683 152.787 224.7 152.75 233.700 147.730 240.8 141.75 244 141.75 249.1 142.65 253.5 143 257.3 140.65 255.35 137.35 253.2 137 249.45 136.3 241.4 141.25 244.85 138.25 248.1 134.85 251.2 134.55 256.05 134.8 260.15 134.6 263.65 131.8 261.3 128.95 259.4 128.8 255.95 128.55 249.25 133.6 252.05 130.55 254.5 127 257.15 126.45 261.75 126.15 265.75 125.5 268.85 122.3 266.3 120.05 264.15 120.05 260.85 120.05 256.2 124.5 258.2 121.45 259.75 118.5 262.2 117.7 266.6 116.8 270.35 115.6 272.8 112.25 267.4 108.7 261.05 115.8 262.3 113.2 263.7 109.4 266 108.35 270.05 107.05 273.4 105.55 275.5 101.9 269.6 99.15 264.7 106.4 265.65 103.35 266.35 100 268.45 98.75 272.3 97.05 275.45 95.2 277.05 91.45 274 90.5 272.15 91.15 269.3 92.15 266.95 96.95 267.55 93.8 267.85 90.5 269.7 89.05 273.35 87 276.3 84.85 277.55 81 274.7 80.5 273.35 80.95 270 82.15 268.1 87.85 268.35 84.1 268.35 80.9 270.1 79.15 273.45 76.9 276.15 74.65 277 70.6 273.75 70.55 272.15 71.55 269.35 73.3 268.3 78.75 268.3 75.8 267.95 71.35 269.5 69.45 272.6 66.95 275.1 64.45 275.55 60.4 272.6 60.65 271.45 61.35 268.2 63.4 267.8 69.85 267.4 65.55 266.75 61.75 268.05 59.8 270.9 57.1 273.15 54.45 273.2 50.4 269.5 51.2 267.8 55.05 266.65 57.6 266.6 60.85 265.65 55.85 264.7 52.3 265.75 50.3 268.35 47.4 270.3 44.55 269.9 40.6 266.45 41.85 265.1 45.05 264 47.7 264.45 51.3 263.1 46.6 261.8 43 262.7 40.8 264.95 37.9 266.55 35.2 265.8 31.25 262.9 32.65 262.5 33.1 260.4 35.75 261.55 42.45 259.9 37.95 258.05 34.05 258.75 32 260.65 28.9 262 26 260.9 22.3 259.15 22.85 257.95 24.4 255.6 27.45 257.65 33.25 255.9 29.5 253.5 25.45 254 23.4 255.65 20.3 256.75 17.4 255.3 13.85 250.3 18.3 253.1 24.75 251.05 21.25 248.3 17.3 248.6 15.25 250 12.15Z"/></g><animate attributeName="display" fill="freeze" repeatCount="1" dur="3.167s" keyTimes="0;.118;1" values="none;inline;inline"/></g><g display="none"><g id="awards02" transform="matrix(.1 0 0 .1 579 308.4)"><animateTransform attributeName="transform" additive="replace" type="translate" dur="3.167s" keyTimes="0;.118;.25;1" values="592.904,317.154;592.904,317.154;592.9,311.4;592.9,311.4" fill="freeze"/><animateTransform attributeName="transform" additive="sum" type="scale" dur="3.167s" keyTimes="0;.118;.25;1" values=".1,.1;.1,.1;1,1;1,1" fill="freeze"/><animateTransform attributeName="transform" additive="sum" type="translate" dur="3.167s" keyTimes="0;.118;.25;1" values="-139.05,-87.55;-139.05,-87.55;-138.75,-87.35;-138.75,-87.35" fill="freeze"/><path fill="url(#Gradient_7)" stroke="none" d="M27.65 148.65Q31.85 150.55 36.3 149.6 38.85 149.05 44.6 147.7 36.85 143.95 33.25 144.1 29.45 144.2 27.65 148.65Z"/><path fill="#404041" stroke="none" d="M65 78.75Q63.15 78.75 62.15 79.45 61.1 80.15 61.1 81.5 61.1 82.25 61.35 82.75 61.6 83.3 62.15 83.7 62.65 84.1 63.8 84.6L65.05 85.15Q65.55 85.4 65.7 85.6 65.9 85.8 65.9 86.1 65.9 86.95 64.45 86.95 63.75 86.95 62.8 86.75 61.85 86.5 61.15 86.15L61.15 88.35Q61.8 88.65 62.55 88.8 63.3 88.95 64.35 88.95 66.45 88.95 67.5 88.15 68.55 87.35 68.55 85.85 68.55 85.1 68.3 84.6 68.05 84.05 67.5 83.65 67 83.25 65.85 82.75 64.55 82.25 64.15 82 63.75 81.75 63.75 81.35 63.75 80.75 64.95 80.75 65.65 80.75 66.25 80.95L67.65 81.45 68.45 79.5Q66.8 78.75 65 78.75M73.6 78.9L73.6 76.85 71.85 76.85 71.1 78.9 69.6 79.8 69.6 80.95 70.9 80.95 70.9 85.65Q70.9 87.3 71.65 88.1 72.35 88.95 73.95 88.95 75.45 88.95 76.45 88.5L76.45 86.5Q75.45 86.8 74.75 86.8 74.2 86.8 73.9 86.5 73.6 86.25 73.6 85.65L73.6 80.95 76.35 80.95 76.35 78.9 73.6 78.9M55.15 78.75Q53 78.75 51.75 80.1 50.5 81.45 50.5 83.9 50.5 86.3 51.85 87.6 53.2 88.95 55.55 88.95 56.7 88.95 57.5 88.75 58.3 88.6 59 88.25L59 86.15Q58.15 86.55 57.35 86.75 56.55 86.95 55.7 86.95 54.55 86.95 53.9 86.3 53.25 85.65 53.2 84.5L59.55 84.5 59.55 83.2Q59.55 81.1 58.4 79.95 57.25 78.75 55.15 78.75M53.85 81.2Q54.3 80.65 55.2 80.65 56.05 80.65 56.55 81.2 57.05 81.75 57.05 82.7L53.3 82.7Q53.35 81.75 53.85 81.2M39.25 75.9L39.25 88.75 44.05 88.75Q46.25 88.75 47.55 87.75 48.8 86.8 48.8 85 48.8 83.8 48.25 83.05 47.7 82.3 46.5 82L46.5 81.95Q47.4 81.8 47.95 81.05 48.45 80.3 48.45 79.15 48.45 77.45 47.25 76.7 46 75.9 43.25 75.9L39.25 75.9M42 78.15L43.4 78.15Q44.6 78.15 45.15 78.45 45.65 78.75 45.65 79.5 45.65 80.3 45.2 80.65 44.7 81 43.55 81L42 81 42 78.15M42 83.15L43.7 83.15Q45.95 83.15 45.95 84.75 45.95 85.65 45.45 86.05 44.9 86.5 43.75 86.5L42 86.5 42 83.15M123.9 77.7Q124.65 77.7 125 77.35 125.35 77 125.35 76.4 125.35 75.05 123.9 75.05 122.45 75.05 122.45 76.4 122.45 77.7 123.9 77.7M125.25 78.9L122.55 78.9 122.55 88.75 125.25 88.75 125.25 78.9M140.85 84.9Q140.25 85.3 139.95 85.65 139.6 86.05 139.6 86.6 139.6 87.05 139.9 87.45 140.2 87.85 140.65 88 139.55 88.25 139 88.85 138.45 89.45 138.45 90.35 138.45 91.65 139.55 92.35 140.6 93.05 142.7 93.05 145.35 93.05 146.8 92.15 148.25 91.2 148.25 89.45 148.25 88.1 147.4 87.4 146.55 86.7 144.95 86.7L143.25 86.7Q141.8 86.7 141.8 86.15 141.8 85.75 142.2 85.45L142.6 85.5 143.1 85.5Q145.05 85.5 146.15 84.65 147.25 83.75 147.25 82.15 147.25 81.35 146.8 80.7L148.35 80.3 148.35 78.9 143.25 78.75Q141.3 78.75 140.25 79.6 139.2 80.5 139.2 82.1 139.2 83.1 139.65 83.85 140.1 84.6 140.85 84.9M141.3 91Q140.75 90.7 140.75 90.15 140.75 89.55 141.25 89.2 141.75 88.85 142.5 88.85L143.9 88.85Q144.9 88.85 145.4 89.1 145.85 89.3 145.85 89.85 145.85 90.55 145.05 90.95 144.25 91.35 142.8 91.35 141.85 91.35 141.3 91M142.1 83.4Q141.75 82.95 141.75 82.15 141.75 80.35 143.25 80.35 144.7 80.35 144.7 82.15 144.7 82.95 144.35 83.4 144 83.85 143.25 83.85 142.5 83.85 142.1 83.4M136.2 79.65Q135.3 78.75 133.6 78.75 132.6 78.75 131.8 79.1 131 79.45 130.55 80.2L130.4 80.2 130.05 78.9 128 78.9 128 88.75 130.7 88.75 130.7 84.15Q130.7 82.4 131.2 81.65 131.7 80.9 132.8 80.9 133.65 80.9 134 81.4 134.4 81.95 134.4 83L134.4 88.75 137.1 88.75 137.1 82.35Q137.1 80.6 136.2 79.65M117.3 80.2L117.2 80.2Q116.25 78.75 114.4 78.75 112.6 78.75 111.6 80.1 110.6 81.45 110.6 83.85 110.6 86.25 111.6 87.6 112.6 88.95 114.3 88.95 116.2 88.95 117.1 87.5L117.2 87.5 117.75 88.75 119.8 88.75 119.8 75.05 117.1 75.05 117.1 78.2Q117.1 79.1 117.3 80.2M113.85 81.7Q114.3 80.9 115.2 80.9 116.3 80.9 116.8 81.6 117.3 82.3 117.3 83.85L117.3 84.15Q117.25 85.6 116.75 86.2 116.3 86.8 115.25 86.8 114.35 86.8 113.85 86.05 113.3 85.35 113.3 83.9 113.3 82.45 113.85 81.7M100.8 83.5Q99.7 84.25 99.7 85.8 99.7 87.3 100.5 88.1 101.35 88.95 102.75 88.95 103.9 88.95 104.6 88.6 105.35 88.25 106 87.4L106.1 87.4 106.6 88.75 108.45 88.75 108.45 82.2Q108.45 80.45 107.4 79.6 106.35 78.7 104.4 78.7 102.3 78.7 100.6 79.6L101.5 81.4Q103.1 80.7 104.3 80.7 105.8 80.7 105.8 82.2L105.8 82.65 104.1 82.7Q101.9 82.75 100.8 83.5M102.45 85.85Q102.45 85.05 103.05 84.65 103.6 84.25 104.75 84.25L105.8 84.2 105.8 85Q105.8 85.9 105.25 86.45 104.7 86.95 103.75 86.95 102.45 86.95 102.45 85.85M91.7 78.15L91.7 75.9 82 75.9 82 78.15 85.5 78.15 85.5 88.75 88.2 88.75 88.2 78.15 91.7 78.15M98.95 78.8L98.05 78.75Q97.15 78.75 96.35 79.25 95.55 79.75 95.1 80.6L95 80.6 94.6 78.9 92.55 78.9 92.55 88.75 95.25 88.75 95.25 83.75Q95.25 82.55 95.95 81.9 96.65 81.25 97.95 81.25L98.75 81.35 98.95 78.8M115.55 47.75Q114.7 46.45 113.2 45.7 111.65 45 109.65 45 108.1 45 106.9 45.3 105.65 45.6 104.6 46.15 103.55 46.7 102 48.05L104.45 50.95Q105.75 49.9 106.9 49.35 108.05 48.75 109.3 48.75 110.5 48.75 111.2 49.4 111.9 50 111.9 51.3 111.9 52.15 111.6 52.95 111.3 53.8 110.55 54.75 109.8 55.65 107.45 58.1L102.05 63.55 102.05 66.7 117 66.7 117 62.9 107.7 62.9 107.7 62.7 110.45 60.1Q113.2 57.55 114.3 56.2 115.4 54.85 115.9 53.55 116.4 52.25 116.4 50.8 116.4 49.1 115.55 47.75M132.1 47.75Q130.2 44.95 126.5 44.95 122.7 44.95 120.85 47.65 119.05 50.3 119.05 56 119.05 61.45 120.9 64.2 122.8 67 126.5 67 130.35 67 132.15 64.3 134 61.6 134 56 134 50.55 132.1 47.75M128.8 50.35Q129.5 52.05 129.5 56 129.5 59.9 128.8 61.6 128.1 63.35 126.5 63.35 124.9 63.35 124.2 61.65 123.55 59.95 123.55 56 123.55 52.05 124.2 50.35 124.9 48.6 126.5 48.6 128.05 48.6 128.8 50.35M147.45 45.3L143.7 45.3 136.8 50.8 139 53.5 143.05 50.05 142.9 66.7 147.45 66.7 147.45 45.3M214.45 78.8L213.55 78.75Q212.65 78.75 211.85 79.25 211.05 79.75 210.6 80.6L210.5 80.6 210.1 78.9 208.05 78.9 208.05 88.75 210.75 88.75 210.75 83.75Q210.75 82.55 211.45 81.9 212.15 81.25 213.45 81.25L214.25 81.35 214.45 78.8M218.6 80.2L218.25 78.9 216.2 78.9 216.2 88.75 218.9 88.75 218.9 84.15Q218.9 82.4 219.35 81.65 219.8 80.9 220.85 80.9 221.6 80.9 221.95 81.4 222.3 81.95 222.3 83L222.3 88.75 225 88.75 225 83.8Q225 82.3 225.5 81.6 226 80.9 226.95 80.9 227.75 80.9 228.1 81.4 228.45 81.95 228.45 83L228.45 88.75 231.15 88.75 231.15 82.35Q231.15 80.45 230.3 79.6 229.4 78.75 227.75 78.75 226.8 78.75 226 79.1 225.25 79.5 224.85 80.2L224.6 80.2Q223.85 78.75 221.6 78.75 220.65 78.75 219.9 79.15 219.15 79.5 218.75 80.2L218.6 80.2M195.7 77.35L196.4 75.4Q195.3 75 193.9 75 192.1 75 191.25 75.75 190.45 76.5 190.45 78.2L190.45 78.9 188.95 79.65 188.95 80.95 190.45 80.95 190.45 88.75 193.1 88.75 193.1 80.95 195.45 80.95 195.45 78.9 193.1 78.9 193.1 78.3Q193.1 77.8 193.35 77.45 193.65 77.1 194.2 77.1 194.9 77.1 195.7 77.35M201.15 78.75Q198.85 78.75 197.6 80.1 196.35 81.4 196.35 83.8 196.35 85.35 196.95 86.55 197.5 87.7 198.6 88.3 199.7 88.95 201.1 88.95 203.35 88.95 204.6 87.55 205.9 86.2 205.9 83.8 205.9 82.25 205.3 81.1 204.75 79.95 203.65 79.35 202.55 78.75 201.15 78.75M199.55 81.65Q200.05 80.9 201.1 80.9 202.2 80.9 202.65 81.65 203.15 82.35 203.15 83.8 203.15 85.3 202.7 86.05 202.2 86.75 201.15 86.75 200.05 86.75 199.6 86.05 199.1 85.3 199.1 83.8 199.1 82.35 199.55 81.65M168.6 75.05L165.9 75.05 165.9 88.75 168.6 88.75 168.6 75.05M162.4 83.1Q163.7 82 163.7 79.9 163.7 77.9 162.5 76.9 161.25 75.9 158.9 75.9L154.8 75.9 154.8 88.75 157.55 88.75 157.55 84.2 158.7 84.2Q161.1 84.2 162.4 83.1M160.4 78.6Q160.95 79.05 160.95 80 160.95 80.95 160.3 81.45 159.7 81.95 158.45 81.95L157.55 81.95 157.55 78.15 158.8 78.15Q159.9 78.15 160.4 78.6M181.2 79.8L181.2 80.95 182.5 80.95 182.5 85.65Q182.5 87.3 183.25 88.1 183.95 88.95 185.55 88.95 187.05 88.95 188.05 88.5L188.05 86.5Q187.05 86.8 186.35 86.8 185.8 86.8 185.5 86.5 185.2 86.25 185.2 85.65L185.2 80.95 187.95 80.95 187.95 78.9 185.2 78.9 185.2 76.85 183.45 76.85 182.7 78.9 181.2 79.8M175.3 80.7Q176.8 80.7 176.8 82.2L176.8 82.65 175.1 82.7Q172.9 82.75 171.8 83.5 170.7 84.25 170.7 85.8 170.7 87.3 171.5 88.1 172.35 88.95 173.75 88.95 174.9 88.95 175.6 88.6 176.35 88.25 177 87.4L177.1 87.4 177.6 88.75 179.45 88.75 179.45 82.2Q179.45 80.45 178.4 79.6 177.35 78.7 175.4 78.7 173.3 78.7 171.6 79.6L172.5 81.4Q174.1 80.7 175.3 80.7M173.45 85.85Q173.45 85.05 174.05 84.65 174.6 84.25 175.75 84.25L176.8 84.2 176.8 85Q176.8 85.9 176.25 86.45 175.7 86.95 174.75 86.95 173.45 86.95 173.45 85.85M166.15 65.4Q168.25 63.8 168.25 61.15 168.25 59.5 167.2 58.1 166.15 56.7 163.75 55.4 165.75 54.4 166.65 53.1 167.55 51.8 167.55 50.2 167.55 47.8 165.7 46.4 163.8 45 160.75 45 157.65 45 155.75 46.45 153.85 47.85 153.85 50.15 153.85 51.7 154.65 53.05 155.5 54.35 157.3 55.5 155.15 56.6 154.2 58 153.2 59.45 153.2 61.25 153.2 64 155.2 65.5 157.2 67 160.75 67 164.1 67 166.15 65.4M163.2 59.2Q164.05 60.05 164.05 61.05 164.05 62.2 163.2 62.95 162.35 63.65 160.7 63.65 159.15 63.65 158.25 62.95 157.4 62.25 157.4 61 157.4 58.8 160.5 57.35 162.35 58.35 163.2 59.2M163.3 50.5Q163.3 51.4 162.75 52.1 162.15 52.85 160.75 53.5 159.25 52.75 158.7 52.1 158.15 51.4 158.15 50.5 158.15 49.5 158.85 48.9 159.55 48.3 160.7 48.3 161.85 48.3 162.6 48.9 163.3 49.5 163.3 50.5Z"/><path fill="url(#Gradient_8)" stroke="none" d="M52.8 152.75Q45.433 150.150 41.85 150.35 37.1 150.7 35.85 155.7 40.35 157.05 44.75 155.6 47.245 154.751 52.85 152.8L52.9 152.8Q52.866 152.787 52.8 152.75Z"/><path fill="url(#Gradient_9)" stroke="none" d="M28.4 5.9Q26.75 9.3 27.55 12.15 28.95 15.25 29.25 17.3 26.5 21.25 24.45 24.75 27.25 18.3 22.25 13.85 20.8 17.4 21.9 20.3 23.6 23.4 24.05 25.45 21.7 29.5 19.9 33.25 21.95 27.45 19.6 24.4 18.85 23.4 17.7 22.8 16.7 22.35 16.65 22.3 15.55 26 16.9 28.9 18.85 32 19.5 34.05 17.65 37.95 16 42.45 17.15 35.75 15.05 33.1 14.7 32.65 11.75 31.25 11 35.2 12.65 37.9 14.9 40.8 15.75 43 14.45 46.6 13.1 51.3 13.55 47.7 12.45 45.05 11.1 41.85 7.65 40.6 7.25 44.55 9.2 47.4 10.35 49 12.85 52.3 11.9 55.85 10.95 60.85 10.9 57.6 9.75 55.05 8.05 51.2 4.35 50.4 4.4 54.45 6.65 57.1 7.95 58.6 10.8 61.75 10.15 65.55 9.75 69.85 9.35 63.4 6.1 61.35 4.95 60.65 2 60.4 2.45 64.45 4.95 66.95 6.35 68.35 9.6 71.35 9.25 75.8 9.25 78.75 8.2 73.3 5.4 71.55 3.8 70.55 .55 70.6 1.4 74.65 4.1 76.9 5.65 78.25 9.2 80.9 9.2 84.1 9.45 87.85 7.55 82.15 4.2 80.95 2.85 80.5 0 81 1.25 84.85 4.2 87 5.95 88.2 9.7 90.5 10 93.8 10.6 96.95 8.25 92.15 5.4 91.15 3.55 90.5 .5 91.45 2.1 95.2 5.25 97.05 7.1 98.1 11.2 100 11.9 103.35 12.85 106.4 7.95 99.15 2.05 101.9 4.15 105.55 7.5 107.05 9.5 107.9 13.85 109.4 15.25 113.2 16.5 115.8 10.15 108.7 4.75 112.25 7.2 115.6 10.95 116.8 13.1 117.45 17.8 118.5 19.35 121.45 21.35 124.5 16.7 120.05 13.4 120.05 11.25 120.05 8.7 122.3 11.8 125.5 15.8 126.15 18.1 126.55 23.05 127 25.55 130.55 28.3 133.6 21.6 128.55 18.2 128.8 16.25 128.95 13.9 131.8 17.4 134.6 21.5 134.8 23.9 134.95 29.45 134.85 32.7 138.25 36.15 141.25 28.1 136.3 24.35 137 22.2 137.35 20.25 140.65 24.05 143 28.45 142.65 31 142.45 36.75 141.75 43.851 147.731 52.8 152.75 52.866 152.787 52.9 152.8L52.85 152.8Q56.717 154.963 60.9 156.95 53.45 155.1 49.95 155.8 45.35 156.65 44.65 161.8 49.05 162.7 53.6 160.7 56.15 159.6 61.45 157.2 64.9 158.85 68.6 160.35 61.45 159.4 58.45 160.3 54.05 161.55 53.95 166.95 58.5 167.3 62.45 165.15 64.75 163.9 70 160.95L75.95 163.25Q62.8 162.4 63.5 171.25 68.05 171.2 71.95 168.7 74.2 167.25 78.65 164.2L84.3 166.2Q72.3 165.4 73.15 174.75 77 174.3 80.8 171.65 86.15 167.95 87.6 167.3L92.55 168.9Q94.25 172.2 95.65 173.9L97.55 172.45Q95.2 169.5 94.4 167.05 93.9 166.9 89.55 165.4 88.65 163.35 87.4 157.45 85.85 151.95 82.4 148.95 74.5 154.95 88.2 164.9L80.35 162.15Q80.25 161.95 77.95 154.5 76.25 149.05 73.75 146.45 66.05 153.05 78.7 161.6L71.05 159Q70.85 158.5 69.15 151.45 67.9 146.15 65.7 143.55 61.45 146.9 63.1 151 64.4 154.2 69.6 158.45 65.65 157.05 62.15 155.6 61.9 154.85 60.85 148.1 60 142.75 58.05 140 53.7 143 55 147.25 56.05 150.6 60.85 155.05 56.75 153.3 53.6 151.55 53.35 150.6 52.9 144.1 52.55 138.8 50.85 135.8 42.8 140.55 52.6 151.05 48.6 148.85 45.4 146.6 45.25 145.7 45.45 139.35 45.6 134.05 44.25 130.9 39.8 133.05 40.25 137.5 40.65 141.25 44.35 145.85 40.8 143.25 37.8 140.55 37.75 139.75 38.6 133.45 39.3 128.4 38.3 125.25 33.95 126.95 33.8 131.15 33.65 134.8 36.55 139.4 33.05 136.1 30.95 133.7 31 133 32.55 127 33.8 122.2 33.15 118.95 28.9 120.2 28.2 124.2 27.65 127.7 29.8 132.4 27.8 130.1 25 126.2 25.05 125.85 27.35 119.9 29.05 115.4 28.75 112.05 24.2 112.9 23.3 117.2 22.65 120.4 24 124.65 21.95 121.6 20.1 118 20.2 117.6 23.1 112.05 25.25 107.9 25.25 104.5 20.95 104.95 19.55 108.95 18.45 112 19.25 116.35 17.45 112.55 16.2 109.2 17 107.55 19.85 103.75 22.4 99.9 22.65 96.55 18.3 96.65 16.6 100.6 15.4 103.4 15.6 107.55 14.2 103.35 13.45 100.05 14.35 98.65 17.5 95.1 20.35 91.5 20.9 88.2 16.8 88.05 14.75 91.7 13.25 94.3 13.05 98.35 12.2 94.5 11.7 90.65 12.85 89.15 16.15 86.25 19.15 83.2 20.05 79.6 16.2 79.25 13.85 82.5 12.1 84.95 11.5 88.8 11.05 84.35 11 81.1 12.15 79.9 15.7 77.1 18.95 74.2 20.05 70.9 16.25 70.45 13.7 73.5 11.85 75.7 10.95 79.25 10.95 75.4 11.25 71.55 12.5 70.45 16.15 68.05 19.5 65.45 20.8 62.15 17.9 61.75 15.95 62.95 13.25 64.6 11.4 69.65 11.65 66.4 12.35 62.05 13.65 61.05 17.4 59 20.85 56.8 22.4 53.55 19.95 53.05 18.45 53.65 15.15 54.85 12.65 60.2 13.35 56.4 14.3 52.7 15.7 51.85 19.5 50.1 23 48.2 24.75 45.1 21.4 44.4 18.5 46.5 16.35 48.05 14.8 50.8 15.6 47.8 17.1 43.55 18.6 42.8 22.3 41.55 25.75 40 27.9 36.85 24.95 36.15 22.05 37.7 19.6 39 17.85 41.55 19.15 38.25 20.75 34.7 22.4 34.05 26 33.2 29.35 32.05 31.8 28.85 28.95 28.15 26.1 29.35 23.65 30.4 21.75 32.65 23.95 28.35 25.15 26.25 26.75 25.75 30.4 25.1 33.85 24.1 36.4 21.1 33.3 20.3 30.35 21.55 28.1 22.5 26.25 24.45 28.1 21.3 30.25 18.2 32 17.75 35.45 17.45 38.7 16.75 41.6 13.75 36.05 12.3 31.5 16.4L33.7 13.45Q35.95 11.9 38.35 8.95 41.4 5.2 44 0 39.8 1.4 36.85 5.6 33.05 12 29.5 17 30.6 14.8 30.7 12.4 30.9 8.65 28.4 5.9Z"/><path fill="url(#Gradient_10)" stroke="none" d="M232.95 147.7Q236.2 148.05 241.25 149.6 245.7 150.55 249.9 148.65 248.1 144.2 244.3 144.1 240.7 143.95 232.95 147.7Z"/><path fill="url(#Gradient_11)" stroke="none" d="M224.7 152.75Q224.683 152.787 224.65 152.8L224.65 152.8Q227.968 153.458 232.8 155.6 237.2 157.05 241.7 155.7 240.45 150.7 235.7 150.35 232.116 150.150 224.7 152.75Z"/><path fill="url(#Gradient_12)" stroke="none" d="M250 12.15Q250.8 9.3 249.15 5.9 246.65 8.65 246.85 12.4 246.95 14.8 248.05 17 242.6 8.3 240.7 5.6 237.75 1.4 233.55 0 236.15 5.2 239.2 8.95 241.6 11.9 243.85 13.45L246.05 16.4Q241.5 12.3 235.95 13.75 238.85 16.75 242.1 17.45 243.9 17.85 247.3 18.2 249.45 21.3 251.3 24.45 249.45 22.5 247.2 21.55 244.25 20.3 241.15 21.1 243.7 24.1 247.15 25.1 249.05 25.65 252.4 26.25 253.6 28.35 255.8 32.65 253.9 30.4 251.45 29.35 248.6 28.15 245.75 28.85 248.2 32.05 251.55 33.2 253.4 33.85 256.8 34.7 258.4 38.25 259.7 41.55 257.95 39 255.5 37.7 252.6 36.15 249.65 36.85 251.8 40 255.25 41.55 257.15 42.4 260.45 43.55 261.95 47.8 262.75 50.8 261.2 48.05 259.05 46.5 256.15 44.4 252.8 45.1 254.55 48.2 258.05 50.1 260 51.2 263.25 52.7 264.2 56.4 264.9 60.2 262.4 54.85 259.15 53.65 257.6 53.05 255.15 53.55 256.7 56.8 260.15 59 262.05 60.25 265.2 62.05 265.9 66.4 266.15 69.65 264.35 64.6 261.6 62.95 259.65 61.75 256.75 62.15 258.05 65.45 261.4 68.05 263.25 69.45 266.3 71.55 266.6 75.4 266.6 79.25 265.7 75.7 263.85 73.5 261.3 70.45 257.5 70.9 258.6 74.2 261.85 77.1 263.6 78.7 266.55 81.1 266.5 84.35 266.05 88.8 265.5 84.95 263.7 82.5 261.35 79.25 257.5 79.6 258.4 83.2 261.4 86.25 263 87.9 265.85 90.65 265.35 94.5 264.5 98.35 264.3 94.3 262.8 91.7 260.75 88.05 256.65 88.2 257.2 91.5 260.05 95.1 261.55 97 264.1 100.05 263.35 103.35 261.95 107.55 262.15 103.4 260.95 100.6 259.25 96.65 254.9 96.55 255.15 99.9 257.7 103.75 259.1 105.8 261.35 109.2 260.15 112.55 258.3 116.35 259.1 112 258 108.95 256.6 104.95 252.3 104.5 252.3 107.9 254.45 112.05 257.35 117.6 257.45 118 255.6 121.6 253.55 124.65 254.9 120.4 254.25 117.2 253.35 112.9 248.8 112.05 248.5 115.4 250.2 119.9 252.5 125.85 252.55 126.2 249.75 130.1 247.75 132.4 249.9 127.7 249.35 124.2 248.7 120.2 244.4 118.95 243.75 122.2 245 127 246.55 133 246.6 133.7 244.55 136.1 241 139.4 243.95 134.8 243.75 131.15 243.6 126.95 239.25 125.25 238.25 128.4 238.95 133.45 239.8 139.75 239.75 140.55 236.75 143.25 233.2 145.85 236.9 141.25 237.3 137.5 237.75 133.05 233.3 130.9 231.95 134.05 232.1 139.35 232.3 145.7 232.15 146.6 228.95 148.85 224.95 151.05 234.75 140.55 226.7 135.8 225 138.8 224.65 144.1 224.2 150.6 223.95 151.55 220.8 153.3 216.7 155.05 221.5 150.6 222.55 147.25 223.85 143 219.5 140 217.55 142.75 216.7 148.1 215.65 154.85 215.4 155.6 211.9 157.05 207.95 158.45 213.15 154.2 214.45 151 216.1 146.9 211.85 143.55 209.65 146.15 208.4 151.45 206.7 158.5 206.5 159L198.85 161.6Q211.5 153.05 203.8 146.45 201.3 149.05 199.6 154.5 197.3 161.95 197.2 162.15L189.35 164.9Q203.05 154.95 195.15 148.95 191.7 151.95 190.15 157.45 188.9 163.35 188 165.4 183.25 166.7 183.15 167.05 182.35 169.5 180 172.45L181.9 173.9Q183.3 172.2 185 168.9L189.95 167.3Q191.4 167.95 196.75 171.65 200.55 174.3 204.4 174.75 205.25 165.4 193.25 166.2L198.9 164.2Q201.45 165.55 205.6 168.7 209.5 171.2 214.05 171.25 214.75 162.4 201.6 163.25L207.55 160.95Q210.7 162.3 215.1 165.15 219.05 167.3 223.6 166.95 223.5 161.55 219.15 160.3 216.1 159.4 208.95 160.35 212.65 158.85 216.1 157.2 219.05 158.1 224 160.7 228.55 162.7 232.9 161.8 232.2 156.65 227.65 155.8 224.1 155.1 216.65 156.95 220.834 154.962 224.65 152.8L224.65 152.8Q224.683 152.787 224.7 152.75 233.700 147.730 240.8 141.75 244 141.75 249.1 142.65 253.5 143 257.3 140.65 255.35 137.35 253.2 137 249.45 136.3 241.4 141.25 244.85 138.25 248.1 134.85 251.2 134.55 256.05 134.8 260.15 134.6 263.65 131.8 261.3 128.95 259.4 128.8 255.95 128.55 249.25 133.6 252.05 130.55 254.5 127 257.15 126.45 261.75 126.15 265.75 125.5 268.85 122.3 266.3 120.05 264.15 120.05 260.85 120.05 256.2 124.5 258.2 121.45 259.75 118.5 262.2 117.7 266.6 116.8 270.35 115.6 272.8 112.25 267.4 108.7 261.05 115.8 262.3 113.2 263.7 109.4 266 108.35 270.05 107.05 273.4 105.55 275.5 101.9 269.6 99.15 264.7 106.4 265.65 103.35 266.35 100 268.45 98.75 272.3 97.05 275.45 95.2 277.05 91.45 274 90.5 272.15 91.15 269.3 92.15 266.95 96.95 267.55 93.8 267.85 90.5 269.7 89.05 273.35 87 276.3 84.85 277.55 81 274.7 80.5 273.35 80.95 270 82.15 268.1 87.85 268.35 84.1 268.35 80.9 270.1 79.15 273.45 76.9 276.15 74.65 277 70.6 273.75 70.55 272.15 71.55 269.35 73.3 268.3 78.75 268.3 75.8 267.95 71.35 269.5 69.45 272.6 66.95 275.1 64.45 275.55 60.4 272.6 60.65 271.45 61.35 268.2 63.4 267.8 69.85 267.4 65.55 266.75 61.75 268.05 59.8 270.9 57.1 273.15 54.45 273.2 50.4 269.5 51.2 267.8 55.05 266.65 57.6 266.6 60.85 265.65 55.85 264.7 52.3 265.75 50.3 268.35 47.4 270.3 44.55 269.9 40.6 266.45 41.85 265.1 45.05 264 47.7 264.45 51.3 263.1 46.6 261.8 43 262.7 40.8 264.95 37.9 266.55 35.2 265.8 31.25 262.9 32.65 262.5 33.1 260.4 35.75 261.55 42.45 259.9 37.95 258.05 34.05 258.75 32 260.65 28.9 262 26 260.9 22.3 259.15 22.85 257.95 24.4 255.6 27.45 257.65 33.25 255.9 29.5 253.5 25.45 254 23.4 255.65 20.3 256.75 17.4 255.3 13.85 250.3 18.3 253.1 24.75 251.05 21.25 248.3 17.3 248.6 15.25 250 12.15Z"/></g><animate attributeName="display" fill="freeze" repeatCount="1" dur="3.167s" keyTimes="0;.118;1" values="none;inline;inline"/></g><g display="none"><g id="award03" transform="matrix(.1 0 0 .1 821 308.4)"><animateTransform attributeName="transform" additive="replace" type="translate" dur="3.167s" keyTimes="0;.118;.25;1" values="834.899,317.804;834.899,317.804;912.9,317.8;912.9,317.8" fill="freeze"/><animateTransform attributeName="transform" additive="sum" type="scale" dur="3.167s" keyTimes="0;.118;.25;1" values=".1,.1;.1,.1;1,1;1,1" fill="freeze"/><animateTransform attributeName="transform" additive="sum" type="translate" dur="3.167s" keyTimes="0;.118;.25;1" values="-139,-94.05;-139,-94.05;-138.75,-93.75;-138.75,-93.75" fill="freeze"/><path fill="#404041" stroke="none" d="M85.6 109.4L82.65 109.4 86.55 119.2 86.4 119.65Q86.1 120.55 85.55 121 85.05 121.4 84.3 121.4 83.75 121.4 83.25 121.3L83.25 123.4Q83.95 123.55 84.65 123.55 86.05 123.55 87.1 122.8 88.15 122.05 88.75 120.5L92.9 109.4 90 109.4 88.2 114.95Q87.9 115.75 87.8 116.65L87.75 116.65Q87.7 115.65 87.45 114.95L85.6 109.4M106.8 107.4Q105.55 106.4 103.2 106.4L99.1 106.4 99.1 119.25 101.85 119.25 101.85 114.7 103 114.7Q105.4 114.7 106.7 113.6 108 112.5 108 110.4 108 108.4 106.8 107.4M101.85 108.65L103.1 108.65Q104.2 108.65 104.7 109.1 105.25 109.55 105.25 110.5 105.25 111.45 104.6 111.95 104 112.45 102.75 112.45L101.85 112.45 101.85 108.65M117.25 110.1Q116.2 109.2 114.25 109.2 112.15 109.2 110.45 110.1L111.35 111.9Q112.95 111.2 114.15 111.2 115.65 111.2 115.65 112.7L115.65 113.15 113.95 113.2Q111.75 113.25 110.65 114 109.55 114.75 109.55 116.3 109.55 117.8 110.35 118.6 111.2 119.45 112.6 119.45 113.75 119.45 114.45 119.1 115.2 118.75 115.85 117.9L115.95 117.9 116.45 119.25 118.3 119.25 118.3 112.7Q118.3 110.95 117.25 110.1M112.3 116.35Q112.3 115.55 112.9 115.15 113.45 114.75 114.6 114.75L115.65 114.7 115.65 115.5Q115.65 116.4 115.1 116.95 114.55 117.45 113.6 117.45 112.3 117.45 112.3 116.35M130.05 109.4L127.4 109.4 127.4 114.05Q127.4 115.8 126.9 116.55 126.4 117.3 125.25 117.3 124.45 117.3 124.05 116.75 123.7 116.25 123.7 115.15L123.7 109.4 121 109.4 121 115.85Q121 117.55 121.9 118.5 122.75 119.45 124.5 119.45 125.5 119.45 126.3 119.05 127.1 118.7 127.5 118L127.65 118 128 119.25 130.05 119.25 130.05 109.4M135.55 105.55L132.85 105.55 132.85 119.25 135.55 119.25 135.55 105.55M158.95 106.4L156.25 106.4 154 116.8 151.55 106.4 148.95 106.4 146.75 115.25 146.5 116.8Q146.3 115.35 145.85 113.4L144.25 106.4 141.55 106.4 144.85 119.25 147.9 119.25 150.25 109.5 152.6 119.25 155.7 119.25 158.95 106.4M78.5 109.25Q76.7 109.25 75.75 110.7L75.65 110.7 75.75 105.55 73.05 105.55 73.05 119.25 75.1 119.25 75.55 118.15 75.75 118.15Q76.7 119.45 78.45 119.45 80.2 119.45 81.2 118.1 82.25 116.75 82.25 114.3 82.25 111.95 81.25 110.6 80.25 109.25 78.5 109.25M77.65 111.4Q78.5 111.4 79 112.1 79.5 112.85 79.5 114.3 79.5 115.75 79 116.5 78.5 117.25 77.7 117.25 76.7 117.25 76.2 116.55 75.75 115.9 75.75 114.3L75.75 114Q75.75 112.6 76.2 112 76.65 111.4 77.65 111.4M60.6 79.15Q59.85 79.5 59.45 80.2L59.3 80.2 58.95 78.9 56.9 78.9 56.9 88.75 59.6 88.75 59.6 84.15Q59.6 82.4 60.05 81.65 60.5 80.9 61.55 80.9 62.3 80.9 62.65 81.4 63 81.95 63 83L63 88.75 65.7 88.75 65.7 83.8Q65.7 82.3 66.2 81.6 66.7 80.9 67.65 80.9 68.45 80.9 68.8 81.4 69.15 81.95 69.15 83L69.15 88.75 71.85 88.75 71.85 82.35Q71.85 80.45 71 79.6 70.1 78.75 68.45 78.75 67.5 78.75 66.7 79.1 65.95 79.5 65.55 80.2L65.3 80.2Q64.55 78.75 62.3 78.75 61.35 78.75 60.6 79.15M51.45 83.55Q51.45 85.3 50.95 86.05 50.45 86.8 49.3 86.8 48.5 86.8 48.1 86.25 47.75 85.75 47.75 84.65L47.75 78.9 45.05 78.9 45.05 85.35Q45.05 87.05 45.95 88 46.8 88.95 48.55 88.95 49.55 88.95 50.35 88.55 51.15 88.2 51.55 87.5L51.7 87.5 52.05 88.75 54.1 88.75 54.1 78.9 51.45 78.9 51.45 83.55M30.65 78.65L30.7 78.65 33.8 88.75 36.3 88.75 39.6 78.7 39.7 78.7Q39.6 81.1 39.6 81.65L39.55 88.75 42.1 88.75 42.1 75.9 38.4 75.9 35.15 85.75 35.1 85.75 32.1 75.9 28.35 75.9 28.35 88.75 30.8 88.75 30.65 78.65M147.85 78.9L147.85 76.85 146.1 76.85 145.35 78.9 143.85 79.8 143.85 80.95 145.15 80.95 145.15 85.65Q145.15 87.3 145.9 88.1 146.6 88.95 148.2 88.95 149.7 88.95 150.7 88.5L150.7 86.5Q149.7 86.8 149 86.8 148.45 86.8 148.15 86.5 147.85 86.25 147.85 85.65L147.85 80.95 150.6 80.95 150.6 78.9 147.85 78.9M140.45 79.35Q139.35 78.75 137.95 78.75 135.65 78.75 134.4 80.1 133.15 81.4 133.15 83.8 133.15 85.35 133.75 86.55 134.3 87.7 135.4 88.3 136.5 88.95 137.9 88.95 140.15 88.95 141.4 87.55 142.7 86.2 142.7 83.8 142.7 82.25 142.1 81.1 141.55 79.95 140.45 79.35M136.4 86.05Q135.9 85.3 135.9 83.8 135.9 82.35 136.35 81.65 136.85 80.9 137.9 80.9 139 80.9 139.45 81.65 139.95 82.35 139.95 83.8 139.95 85.3 139.5 86.05 139 86.75 137.95 86.75 136.85 86.75 136.4 86.05M120.2 75.9L120.2 88.75 122.95 88.75 122.95 83.2 128.05 83.2 128.05 88.75 130.75 88.75 130.75 75.9 128.05 75.9 128.05 80.95 122.95 80.95 122.95 75.9 120.2 75.9M104.4 75.9L101.95 75.9 102.35 80.55 104.05 80.55 104.4 75.9M113.3 85.85Q113.3 85.1 113.05 84.6 112.8 84.05 112.25 83.65 111.75 83.25 110.6 82.75 109.3 82.25 108.9 82 108.5 81.75 108.5 81.35 108.5 80.75 109.7 80.75 110.4 80.75 111 80.95L112.4 81.45 113.2 79.5Q111.55 78.75 109.75 78.75 107.9 78.75 106.9 79.45 105.85 80.15 105.85 81.5 105.85 82.25 106.1 82.75 106.35 83.3 106.9 83.7 107.4 84.1 108.55 84.6L109.8 85.15Q110.3 85.4 110.45 85.6 110.65 85.8 110.65 86.1 110.65 86.95 109.2 86.95 108.5 86.95 107.55 86.75 106.6 86.5 105.9 86.15L105.9 88.35Q106.55 88.65 107.3 88.8 108.05 88.95 109.1 88.95 111.2 88.95 112.25 88.15 113.3 87.35 113.3 85.85M83.75 83.8Q83.75 81.45 82.75 80.1 81.75 78.75 80 78.75 78.2 78.75 77.25 80.2L77.15 80.2 77.25 75.05 74.55 75.05 74.55 88.75 76.6 88.75 77.05 87.65 77.25 87.65Q78.2 88.95 79.95 88.95 81.7 88.95 82.7 87.6 83.75 86.25 83.75 83.8M77.7 81.5Q78.15 80.9 79.15 80.9 80 80.9 80.5 81.6 81 82.35 81 83.8 81 85.25 80.5 86 80 86.75 79.2 86.75 78.2 86.75 77.7 86.05 77.25 85.4 77.25 83.8L77.25 83.5Q77.25 82.1 77.7 81.5M91.35 82.2L91.35 82.65 89.65 82.7Q87.45 82.75 86.35 83.5 85.25 84.25 85.25 85.8 85.25 87.3 86.05 88.1 86.9 88.95 88.3 88.95 89.45 88.95 90.15 88.6 90.9 88.25 91.55 87.4L91.65 87.4 92.15 88.75 94 88.75 94 82.2Q94 80.45 92.95 79.6 91.9 78.7 89.95 78.7 87.85 78.7 86.15 79.6L87.05 81.4Q88.65 80.7 89.85 80.7 91.35 80.7 91.35 82.2M91.35 84.2L91.35 85Q91.35 85.9 90.8 86.45 90.25 86.95 89.3 86.95 88 86.95 88 85.85 88 85.05 88.6 84.65 89.15 84.25 90.3 84.25L91.35 84.2M99.45 78.9L96.75 78.9 96.75 88.75 99.45 88.75 99.45 78.9M98.1 77.7Q98.85 77.7 99.2 77.35 99.55 77 99.55 76.4 99.55 75.05 98.1 75.05 96.65 75.05 96.65 76.4 96.65 77.7 98.1 77.7M115.8 47.75Q114.95 46.45 113.45 45.7 111.9 45 109.9 45 108.35 45 107.15 45.3 105.9 45.6 104.85 46.15 103.8 46.7 102.25 48.05L104.7 50.95Q106 49.9 107.15 49.35 108.3 48.75 109.55 48.75 110.75 48.75 111.45 49.4 112.15 50 112.15 51.3 112.15 52.15 111.85 52.95 111.55 53.8 110.8 54.75 110.05 55.65 107.7 58.1L102.3 63.55 102.3 66.7 117.25 66.7 117.25 62.9 107.95 62.9 107.95 62.7 110.7 60.1Q113.45 57.55 114.55 56.2 115.65 54.85 116.15 53.55 116.65 52.25 116.65 50.8 116.65 49.1 115.8 47.75M147.7 45.3L143.95 45.3 137.05 50.8 139.25 53.5 143.3 50.05 143.15 66.7 147.7 66.7 147.7 45.3M132.35 47.75Q130.45 44.95 126.75 44.95 122.95 44.95 121.1 47.65 119.3 50.3 119.3 56 119.3 61.45 121.15 64.2 123.05 67 126.75 67 130.6 67 132.4 64.3 134.25 61.6 134.25 56 134.25 50.55 132.35 47.75M129.05 50.35Q129.75 52.05 129.75 56 129.75 59.9 129.05 61.6 128.35 63.35 126.75 63.35 125.15 63.35 124.45 61.65 123.8 59.95 123.8 56 123.8 52.05 124.45 50.35 125.15 48.6 126.75 48.6 128.3 48.6 129.05 50.35M171 109.4L168.3 109.4 168.3 119.25 171 119.25 171 109.4M169.65 105.55Q168.2 105.55 168.2 106.9 168.2 108.2 169.65 108.2 170.4 108.2 170.75 107.85 171.1 107.5 171.1 106.9 171.1 105.55 169.65 105.55M166.55 109.3L165.65 109.25Q164.75 109.25 163.95 109.75 163.15 110.25 162.7 111.1L162.6 111.1 162.2 109.4 160.15 109.4 160.15 119.25 162.85 119.25 162.85 114.25Q162.85 113.05 163.55 112.4 164.25 111.75 165.55 111.75L166.35 111.85 166.55 109.3M174.25 109.4L172.75 110.3 172.75 111.45 174.05 111.45 174.05 116.15Q174.05 117.8 174.8 118.6 175.5 119.45 177.1 119.45 178.6 119.45 179.6 119L179.6 117Q178.6 117.3 177.9 117.3 177.35 117.3 177.05 117 176.75 116.75 176.75 116.15L176.75 111.45 179.5 111.45 179.5 109.4 176.75 109.4 176.75 107.35 175 107.35 174.25 109.4M188.85 110.45Q187.7 109.25 185.6 109.25 183.45 109.25 182.2 110.6 180.95 111.95 180.95 114.4 180.95 116.8 182.3 118.1 183.65 119.45 186 119.45 187.15 119.45 187.95 119.25 188.75 119.1 189.45 118.75L189.45 116.65Q188.6 117.05 187.8 117.25 187 117.45 186.15 117.45 185 117.45 184.35 116.8 183.7 116.15 183.65 115L190 115 190 113.7Q190 111.6 188.85 110.45M183.75 113.2Q183.8 112.25 184.3 111.7 184.75 111.15 185.65 111.15 186.5 111.15 187 111.7 187.5 112.25 187.5 113.2L183.75 113.2M195.95 109.75Q195.15 110.25 194.7 111.1L194.6 111.1 194.2 109.4 192.15 109.4 192.15 119.25 194.85 119.25 194.85 114.25Q194.85 113.05 195.55 112.4 196.25 111.75 197.55 111.75L198.35 111.85 198.55 109.3 197.65 109.25Q196.75 109.25 195.95 109.75M230.85 75.05L230.85 78.2Q230.85 79.1 231.05 80.2L230.95 80.2Q230 78.75 228.15 78.75 226.35 78.75 225.35 80.1 224.35 81.45 224.35 83.85 224.35 86.25 225.35 87.6 226.35 88.95 228.05 88.95 229.95 88.95 230.85 87.5L230.95 87.5 231.5 88.75 233.55 88.75 233.55 75.05 230.85 75.05M227.6 86.05Q227.05 85.35 227.05 83.9 227.05 82.45 227.6 81.7 228.05 80.9 228.95 80.9 230.05 80.9 230.55 81.6 231.05 82.3 231.05 83.85L231.05 84.15Q231 85.6 230.5 86.2 230.05 86.8 229 86.8 228.1 86.8 227.6 86.05M235.7 81.5Q235.7 82.25 235.95 82.75 236.2 83.3 236.75 83.7 237.25 84.1 238.4 84.6L239.65 85.15Q240.15 85.4 240.3 85.6 240.5 85.8 240.5 86.1 240.5 86.95 239.05 86.95 238.35 86.95 237.4 86.75 236.45 86.5 235.75 86.15L235.75 88.35Q236.4 88.65 237.15 88.8 237.9 88.95 238.95 88.95 241.05 88.95 242.1 88.15 243.15 87.35 243.15 85.85 243.15 85.1 242.9 84.6 242.65 84.05 242.1 83.65 241.6 83.25 240.45 82.75 239.15 82.25 238.75 82 238.35 81.75 238.35 81.35 238.35 80.75 239.55 80.75 240.25 80.75 240.85 80.95L242.25 81.45 243.05 79.5Q241.4 78.75 239.6 78.75 237.75 78.75 236.75 79.45 235.7 80.15 235.7 81.5M221.35 79.65Q220.45 78.75 218.75 78.75 217.75 78.75 216.95 79.1 216.15 79.45 215.7 80.2L215.55 80.2 215.2 78.9 213.15 78.9 213.15 88.75 215.85 88.75 215.85 84.15Q215.85 82.4 216.35 81.65 216.85 80.9 217.95 80.9 218.8 80.9 219.15 81.4 219.55 81.95 219.55 83L219.55 88.75 222.25 88.75 222.25 82.35Q222.25 80.6 221.35 79.65M201.65 85.8Q201.65 87.3 202.45 88.1 203.3 88.95 204.7 88.95 205.85 88.95 206.55 88.6 207.3 88.25 207.95 87.4L208.05 87.4 208.55 88.75 210.4 88.75 210.4 82.2Q210.4 80.45 209.35 79.6 208.3 78.7 206.35 78.7 204.25 78.7 202.55 79.6L203.45 81.4Q205.05 80.7 206.25 80.7 207.75 80.7 207.75 82.2L207.75 82.65 206.05 82.7Q203.85 82.75 202.75 83.5 201.65 84.25 201.65 85.8M205 84.65Q205.55 84.25 206.7 84.25L207.75 84.2 207.75 85Q207.75 85.9 207.2 86.45 206.65 86.95 205.7 86.95 204.4 86.95 204.4 85.85 204.4 85.05 205 84.65M191.85 79.15Q191.85 77.45 190.65 76.7 189.4 75.9 186.65 75.9L182.65 75.9 182.65 88.75 187.45 88.75Q189.65 88.75 190.95 87.75 192.2 86.8 192.2 85 192.2 83.8 191.65 83.05 191.1 82.3 189.9 82L189.9 81.95Q190.8 81.8 191.35 81.05 191.85 80.3 191.85 79.15M188.55 78.45Q189.05 78.75 189.05 79.5 189.05 80.3 188.6 80.65 188.1 81 186.95 81L185.4 81 185.4 78.15 186.8 78.15Q188 78.15 188.55 78.45M185.4 83.15L187.1 83.15Q189.35 83.15 189.35 84.75 189.35 85.65 188.85 86.05 188.3 86.5 187.15 86.5L185.4 86.5 185.4 83.15M200.9 78.8L200 78.75Q199.1 78.75 198.3 79.25 197.5 79.75 197.05 80.6L196.95 80.6 196.55 78.9 194.5 78.9 194.5 88.75 197.2 88.75 197.2 83.75Q197.2 82.55 197.9 81.9 198.6 81.25 199.9 81.25L200.7 81.35 200.9 78.8M165.35 84.45Q165.35 82.65 164.25 81.6 163.15 80.55 161.3 80.55 160.5 80.55 159.95 80.65L159.65 80.75 159.9 78.2 164.5 78.2 164.5 75.9 157.5 75.9 157.05 82.45 158.1 83.05 160.05 82.75Q162.65 82.75 162.65 84.7 162.65 86.7 160.15 86.7 159.3 86.7 158.4 86.5 157.45 86.25 156.8 85.9L156.8 88.25Q158.1 88.95 160.25 88.95 162.7 88.95 164.05 87.75 165.35 86.6 165.35 84.45M175.8 82.35Q175.8 79.05 174.65 77.4 173.5 75.7 171.3 75.7 169 75.7 167.9 77.3 166.8 78.9 166.8 82.35 166.8 85.6 167.95 87.25 169.05 88.95 171.3 88.95 173.6 88.95 174.7 87.3 175.8 85.7 175.8 82.35M172.65 78.95Q173.1 79.95 173.1 82.35 173.1 84.65 172.65 85.7 172.25 86.75 171.3 86.75 170.3 86.75 169.9 85.7 169.5 84.7 169.5 82.35 169.5 79.95 169.9 78.95 170.3 77.9 171.3 77.9 172.2 77.9 172.65 78.95M166.4 65.4Q168.5 63.8 168.5 61.15 168.5 59.5 167.45 58.1 166.4 56.7 164 55.4 166 54.4 166.9 53.1 167.8 51.8 167.8 50.2 167.8 47.8 165.95 46.4 164.05 45 161 45 157.9 45 156 46.45 154.1 47.85 154.1 50.15 154.1 51.7 154.9 53.05 155.75 54.35 157.55 55.5 155.4 56.6 154.45 58 153.45 59.45 153.45 61.25 153.45 64 155.45 65.5 157.45 67 161 67 164.35 67 166.4 65.4M163.45 59.2Q164.3 60.05 164.3 61.05 164.3 62.2 163.45 62.95 162.6 63.65 160.95 63.65 159.4 63.65 158.5 62.95 157.65 62.25 157.65 61 157.65 58.8 160.75 57.35 162.6 58.35 163.45 59.2M163.55 50.5Q163.55 51.4 163 52.1 162.4 52.85 161 53.5 159.5 52.75 158.95 52.1 158.4 51.4 158.4 50.5 158.4 49.5 159.1 48.9 159.8 48.3 160.95 48.3 162.1 48.3 162.85 48.9 163.55 49.5 163.55 50.5Z"/><path fill="url(#Gradient_7)" stroke="none" d="M27.65 148.65Q31.85 150.55 36.3 149.6 38.85 149.05 44.6 147.7 36.85 143.95 33.25 144.1 29.45 144.2 27.65 148.65Z"/><path fill="url(#Gradient_8)" stroke="none" d="M52.8 152.75Q45.433 150.150 41.85 150.35 37.1 150.7 35.85 155.7 40.35 157.05 44.75 155.6 47.245 154.751 52.85 152.8L52.9 152.8Q52.866 152.787 52.8 152.75Z"/><path fill="url(#Gradient_9)" stroke="none" d="M28.4 5.9Q26.75 9.3 27.55 12.15 28.95 15.25 29.25 17.3 26.5 21.25 24.45 24.75 27.25 18.3 22.25 13.85 20.8 17.4 21.9 20.3 23.6 23.4 24.05 25.45 21.7 29.5 19.9 33.25 21.95 27.45 19.6 24.4 18.85 23.4 17.7 22.8 16.7 22.35 16.65 22.3 15.55 26 16.9 28.9 18.85 32 19.5 34.05 17.65 37.95 16 42.45 17.15 35.75 15.05 33.1 14.7 32.65 11.75 31.25 11 35.2 12.65 37.9 14.9 40.8 15.75 43 14.45 46.6 13.1 51.3 13.55 47.7 12.45 45.05 11.1 41.85 7.65 40.6 7.25 44.55 9.2 47.4 10.35 49 12.85 52.3 11.9 55.85 10.95 60.85 10.9 57.6 9.75 55.05 8.05 51.2 4.35 50.4 4.4 54.45 6.65 57.1 7.95 58.6 10.8 61.75 10.15 65.55 9.75 69.85 9.35 63.4 6.1 61.35 4.95 60.65 2 60.4 2.45 64.45 4.95 66.95 6.35 68.35 9.6 71.35 9.25 75.8 9.25 78.75 8.2 73.3 5.4 71.55 3.8 70.55 .55 70.6 1.4 74.65 4.1 76.9 5.65 78.25 9.2 80.9 9.2 84.1 9.45 87.85 7.55 82.15 4.2 80.95 2.85 80.5 0 81 1.25 84.85 4.2 87 5.95 88.2 9.7 90.5 10 93.8 10.6 96.95 8.25 92.15 5.4 91.15 3.55 90.5 .5 91.45 2.1 95.2 5.25 97.05 7.1 98.1 11.2 100 11.9 103.35 12.85 106.4 7.95 99.15 2.05 101.9 4.15 105.55 7.5 107.05 9.5 107.9 13.85 109.4 15.25 113.2 16.5 115.8 10.15 108.7 4.75 112.25 7.2 115.6 10.95 116.8 13.1 117.45 17.8 118.5 19.35 121.45 21.35 124.5 16.7 120.05 13.4 120.05 11.25 120.05 8.7 122.3 11.8 125.5 15.8 126.15 18.1 126.55 23.05 127 25.55 130.55 28.3 133.6 21.6 128.55 18.2 128.8 16.25 128.95 13.9 131.8 17.4 134.6 21.5 134.8 23.9 134.95 29.45 134.85 32.7 138.25 36.15 141.25 28.1 136.3 24.35 137 22.2 137.35 20.25 140.65 24.05 143 28.45 142.65 31 142.45 36.75 141.75 43.851 147.731 52.8 152.75 52.866 152.787 52.9 152.8L52.85 152.8Q56.717 154.963 60.9 156.95 53.45 155.1 49.95 155.8 45.35 156.65 44.65 161.8 49.05 162.7 53.6 160.7 56.15 159.6 61.45 157.2 64.9 158.85 68.6 160.35 61.45 159.4 58.45 160.3 54.05 161.55 53.95 166.95 58.5 167.3 62.45 165.15 64.75 163.9 70 160.95L75.95 163.25Q62.8 162.4 63.5 171.25 68.05 171.2 71.95 168.7 74.2 167.25 78.65 164.2L84.3 166.2Q72.3 165.4 73.15 174.75 77 174.3 80.8 171.65 86.15 167.95 87.6 167.3L92.55 168.9Q94.25 172.2 95.65 173.9L97.55 172.45Q95.2 169.5 94.4 167.05 93.9 166.9 89.55 165.4 88.65 163.35 87.4 157.45 85.85 151.95 82.4 148.95 74.5 154.95 88.2 164.9L80.35 162.15Q80.25 161.95 77.95 154.5 76.25 149.05 73.75 146.45 66.05 153.05 78.7 161.6L71.05 159Q70.85 158.5 69.15 151.45 67.9 146.15 65.7 143.55 61.45 146.9 63.1 151 64.4 154.2 69.6 158.45 65.65 157.05 62.15 155.6 61.9 154.85 60.85 148.1 60 142.75 58.05 140 53.7 143 55 147.25 56.05 150.6 60.85 155.05 56.75 153.3 53.6 151.55 53.35 150.6 52.9 144.1 52.55 138.8 50.85 135.8 42.8 140.55 52.6 151.05 48.6 148.85 45.4 146.6 45.25 145.7 45.45 139.35 45.6 134.05 44.25 130.9 39.8 133.05 40.25 137.5 40.65 141.25 44.35 145.85 40.8 143.25 37.8 140.55 37.75 139.75 38.6 133.45 39.3 128.4 38.3 125.25 33.95 126.95 33.8 131.15 33.65 134.8 36.55 139.4 33.05 136.1 30.95 133.7 31 133 32.55 127 33.8 122.2 33.15 118.95 28.9 120.2 28.2 124.2 27.65 127.7 29.8 132.4 27.8 130.1 25 126.2 25.05 125.85 27.35 119.9 29.05 115.4 28.75 112.05 24.2 112.9 23.3 117.2 22.65 120.4 24 124.65 21.95 121.6 20.1 118 20.2 117.6 23.1 112.05 25.25 107.9 25.25 104.5 20.95 104.95 19.55 108.95 18.45 112 19.25 116.35 17.45 112.55 16.2 109.2 17 107.55 19.85 103.75 22.4 99.9 22.65 96.55 18.3 96.65 16.6 100.6 15.4 103.4 15.6 107.55 14.2 103.35 13.45 100.05 14.35 98.65 17.5 95.1 20.35 91.5 20.9 88.2 16.8 88.05 14.75 91.7 13.25 94.3 13.05 98.35 12.2 94.5 11.7 90.65 12.85 89.15 16.15 86.25 19.15 83.2 20.05 79.6 16.2 79.25 13.85 82.5 12.1 84.95 11.5 88.8 11.05 84.35 11 81.1 12.15 79.9 15.7 77.1 18.95 74.2 20.05 70.9 16.25 70.45 13.7 73.5 11.85 75.7 10.95 79.25 10.95 75.4 11.25 71.55 12.5 70.45 16.15 68.05 19.5 65.45 20.8 62.15 17.9 61.75 15.95 62.95 13.25 64.6 11.4 69.65 11.65 66.4 12.35 62.05 13.65 61.05 17.4 59 20.85 56.8 22.4 53.55 19.95 53.05 18.45 53.65 15.15 54.85 12.65 60.2 13.35 56.4 14.3 52.7 15.7 51.85 19.5 50.1 23 48.2 24.75 45.1 21.4 44.4 18.5 46.5 16.35 48.05 14.8 50.8 15.6 47.8 17.1 43.55 18.6 42.8 22.3 41.55 25.75 40 27.9 36.85 24.95 36.15 22.05 37.7 19.6 39 17.85 41.55 19.15 38.25 20.75 34.7 22.4 34.05 26 33.2 29.35 32.05 31.8 28.85 28.95 28.15 26.1 29.35 23.65 30.4 21.75 32.65 23.95 28.35 25.15 26.25 26.75 25.75 30.4 25.1 33.85 24.1 36.4 21.1 33.3 20.3 30.35 21.55 28.1 22.5 26.25 24.45 28.1 21.3 30.25 18.2 32 17.75 35.45 17.45 38.7 16.75 41.6 13.75 36.05 12.3 31.5 16.4L33.7 13.45Q35.95 11.9 38.35 8.95 41.4 5.2 44 0 39.8 1.4 36.85 5.6 33.05 12 29.5 17 30.6 14.8 30.7 12.4 30.9 8.65 28.4 5.9Z"/><path fill="url(#Gradient_10)" stroke="none" d="M232.95 147.7Q236.2 148.05 241.25 149.6 245.7 150.55 249.9 148.65 248.1 144.2 244.3 144.1 240.7 143.95 232.95 147.7Z"/><path fill="url(#Gradient_11)" stroke="none" d="M224.7 152.75Q224.683 152.787 224.65 152.8L224.65 152.8Q227.968 153.458 232.8 155.6 237.2 157.05 241.7 155.7 240.45 150.7 235.7 150.35 232.116 150.150 224.7 152.75Z"/><path fill="url(#Gradient_12)" stroke="none" d="M250 12.15Q250.8 9.3 249.15 5.9 246.65 8.65 246.85 12.4 246.95 14.8 248.05 17 242.6 8.3 240.7 5.6 237.75 1.4 233.55 0 236.15 5.2 239.2 8.95 241.6 11.9 243.85 13.45L246.05 16.4Q241.5 12.3 235.95 13.75 238.85 16.75 242.1 17.45 243.9 17.85 247.3 18.2 249.45 21.3 251.3 24.45 249.45 22.5 247.2 21.55 244.25 20.3 241.15 21.1 243.7 24.1 247.15 25.1 249.05 25.65 252.4 26.25 253.6 28.35 255.8 32.65 253.9 30.4 251.45 29.35 248.6 28.15 245.75 28.85 248.2 32.05 251.55 33.2 253.4 33.85 256.8 34.7 258.4 38.25 259.7 41.55 257.95 39 255.5 37.7 252.6 36.15 249.65 36.85 251.8 40 255.25 41.55 257.15 42.4 260.45 43.55 261.95 47.8 262.75 50.8 261.2 48.05 259.05 46.5 256.15 44.4 252.8 45.1 254.55 48.2 258.05 50.1 260 51.2 263.25 52.7 264.2 56.4 264.9 60.2 262.4 54.85 259.15 53.65 257.6 53.05 255.15 53.55 256.7 56.8 260.15 59 262.05 60.25 265.2 62.05 265.9 66.4 266.15 69.65 264.35 64.6 261.6 62.95 259.65 61.75 256.75 62.15 258.05 65.45 261.4 68.05 263.25 69.45 266.3 71.55 266.6 75.4 266.6 79.25 265.7 75.7 263.85 73.5 261.3 70.45 257.5 70.9 258.6 74.2 261.85 77.1 263.6 78.7 266.55 81.1 266.5 84.35 266.05 88.8 265.5 84.95 263.7 82.5 261.35 79.25 257.5 79.6 258.4 83.2 261.4 86.25 263 87.9 265.85 90.65 265.35 94.5 264.5 98.35 264.3 94.3 262.8 91.7 260.75 88.05 256.65 88.2 257.2 91.5 260.05 95.1 261.55 97 264.1 100.05 263.35 103.35 261.95 107.55 262.15 103.4 260.95 100.6 259.25 96.65 254.9 96.55 255.15 99.9 257.7 103.75 259.1 105.8 261.35 109.2 260.15 112.55 258.3 116.35 259.1 112 258 108.95 256.6 104.95 252.3 104.5 252.3 107.9 254.45 112.05 257.35 117.6 257.45 118 255.6 121.6 253.55 124.65 254.9 120.4 254.25 117.2 253.35 112.9 248.8 112.05 248.5 115.4 250.2 119.9 252.5 125.85 252.55 126.2 249.75 130.1 247.75 132.4 249.9 127.7 249.35 124.2 248.7 120.2 244.4 118.95 243.75 122.2 245 127 246.55 133 246.6 133.7 244.55 136.1 241 139.4 243.95 134.8 243.75 131.15 243.6 126.95 239.25 125.25 238.25 128.4 238.95 133.45 239.8 139.75 239.75 140.55 236.75 143.25 233.2 145.85 236.9 141.25 237.3 137.5 237.75 133.05 233.3 130.9 231.95 134.05 232.1 139.35 232.3 145.7 232.15 146.6 228.95 148.85 224.95 151.05 234.75 140.55 226.7 135.8 225 138.8 224.65 144.1 224.2 150.6 223.95 151.55 220.8 153.3 216.7 155.05 221.5 150.6 222.55 147.25 223.85 143 219.5 140 217.55 142.75 216.7 148.1 215.65 154.85 215.4 155.6 211.9 157.05 207.95 158.45 213.15 154.2 214.45 151 216.1 146.9 211.85 143.55 209.65 146.15 208.4 151.45 206.7 158.5 206.5 159L198.85 161.6Q211.5 153.05 203.8 146.45 201.3 149.05 199.6 154.5 197.3 161.95 197.2 162.15L189.35 164.9Q203.05 154.95 195.15 148.95 191.7 151.95 190.15 157.45 188.9 163.35 188 165.4 183.25 166.7 183.15 167.05 182.35 169.5 180 172.45L181.9 173.9Q183.3 172.2 185 168.9L189.95 167.3Q191.4 167.95 196.75 171.65 200.55 174.3 204.4 174.75 205.25 165.4 193.25 166.2L198.9 164.2Q201.45 165.55 205.6 168.7 209.5 171.2 214.05 171.25 214.75 162.4 201.6 163.25L207.55 160.95Q210.7 162.3 215.1 165.15 219.05 167.3 223.6 166.95 223.5 161.55 219.15 160.3 216.1 159.4 208.95 160.35 212.65 158.85 216.1 157.2 219.05 158.1 224 160.7 228.55 162.7 232.9 161.8 232.2 156.65 227.65 155.8 224.1 155.1 216.65 156.95 220.834 154.962 224.65 152.8L224.65 152.8Q224.683 152.787 224.7 152.75 233.700 147.730 240.8 141.75 244 141.75 249.1 142.65 253.5 143 257.3 140.65 255.35 137.35 253.2 137 249.45 136.3 241.4 141.25 244.85 138.25 248.1 134.85 251.2 134.55 256.05 134.8 260.15 134.6 263.65 131.8 261.3 128.95 259.4 128.8 255.95 128.55 249.25 133.6 252.05 130.55 254.5 127 257.15 126.45 261.75 126.15 265.75 125.5 268.85 122.3 266.3 120.05 264.15 120.05 260.85 120.05 256.2 124.5 258.2 121.45 259.75 118.5 262.2 117.7 266.6 116.8 270.35 115.6 272.8 112.25 267.4 108.7 261.05 115.8 262.3 113.2 263.7 109.4 266 108.35 270.05 107.05 273.4 105.55 275.5 101.9 269.6 99.15 264.7 106.4 265.65 103.35 266.35 100 268.45 98.75 272.3 97.05 275.45 95.2 277.05 91.45 274 90.5 272.15 91.15 269.3 92.15 266.95 96.95 267.55 93.8 267.85 90.5 269.7 89.05 273.35 87 276.3 84.85 277.55 81 274.7 80.5 273.35 80.95 270 82.15 268.1 87.85 268.35 84.1 268.35 80.9 270.1 79.15 273.45 76.9 276.15 74.65 277 70.6 273.75 70.55 272.15 71.55 269.35 73.3 268.3 78.75 268.3 75.8 267.95 71.35 269.5 69.45 272.6 66.95 275.1 64.45 275.55 60.4 272.6 60.65 271.45 61.35 268.2 63.4 267.8 69.85 267.4 65.55 266.75 61.75 268.05 59.8 270.9 57.1 273.15 54.45 273.2 50.4 269.5 51.2 267.8 55.05 266.65 57.6 266.6 60.85 265.65 55.85 264.7 52.3 265.75 50.3 268.35 47.4 270.3 44.55 269.9 40.6 266.45 41.85 265.1 45.05 264 47.7 264.45 51.3 263.1 46.6 261.8 43 262.7 40.8 264.95 37.9 266.55 35.2 265.8 31.25 262.9 32.65 262.5 33.1 260.4 35.75 261.55 42.45 259.9 37.95 258.05 34.05 258.75 32 260.65 28.9 262 26 260.9 22.3 259.15 22.85 257.95 24.4 255.6 27.45 257.65 33.25 255.9 29.5 253.5 25.45 254 23.4 255.65 20.3 256.75 17.4 255.3 13.85 250.3 18.3 253.1 24.75 251.05 21.25 248.3 17.3 248.6 15.25 250 12.15Z"/></g><animate attributeName="display" fill="freeze" repeatCount="1" dur="3.167s" keyTimes="0;.118;1" values="none;inline;inline"/></g></g></svg>