<?xml version="1.0" encoding="utf-8"?><svg id="sec2.1" image-rendering="auto" baseProfile="basic" version="1.1" x="0px" y="0px" width="1180" height="560" xmlns="http://www.w3.org/2000/svg" xmlns:xlink="http://www.w3.org/1999/xlink"><g id="Scene-1r1" overflow="visible"><g display="none"><g id="ind_txt" transform="translate(262.2 508.45)"><path fill="#FACA0A" stroke="none" d="M17.05 23.1Q19.95 20.2 19.95 16.05 19.95 11.9 17.05 9 14.1 6.05 10 6.05 5.9 6.05 2.95 9 0 11.95 0 16.05 0 20.15 2.95 23.1 5.85 26 10 26 14.15 26 17.05 23.1Z"/><path fill="#666" stroke="none" d="M43.45 6.8L41.95 6.8 36.75 15.65 31.5 6.8 30.05 6.8 30.05 19.4 31.75 19.4 31.75 10.3 36.3 17.85 37.15 17.85 41.7 10.2 41.7 19.4 43.45 19.4 43.45 6.8M55.85 9.85L54.1 9.85 54.1 14.8Q54.1 16.3 53.3 17.15 52.5 17.95 51.15 17.95 48.6 17.95 48.6 15.15L48.6 9.85 46.85 9.85 46.85 15.35Q46.85 17.4 47.95 18.5 49.05 19.5 50.95 19.5 53.1 19.5 54.2 17.95L54.2 19.4 55.85 19.4 55.85 9.85M61.05 11.3L63.8 11.3 63.8 9.85 61.05 9.85 61.05 7.75 59.35 7.75 59.35 9.85 57.7 9.85 57.7 11.3 59.35 11.3 59.35 16.5Q59.35 17.95 60.15 18.75 60.9 19.5 62.35 19.5 63.7 19.5 64.45 18.85L63.9 17.6Q63.35 18.05 62.55 18.05 61.05 18.05 61.05 16.45L61.05 11.3M75.45 9.85L73.7 9.85 73.7 14.8Q73.7 16.3 72.9 17.15 72.1 17.95 70.75 17.95 68.2 17.95 68.2 15.15L68.2 9.85 66.45 9.85 66.45 15.35Q66.45 17.4 67.55 18.5 68.65 19.5 70.55 19.5 72.7 19.5 73.8 17.95L73.8 19.4 75.45 19.4 75.45 9.85M89.45 19.4L91.15 19.4 91.15 6.05 89.45 6.05 89.45 19.4M84.5 13.55L84.5 13.9 81.8 13.9Q77.95 13.9 77.95 16.7 77.95 17.95 78.9 18.7 79.85 19.5 81.5 19.5 83.7 19.5 84.6 18.15L84.6 19.4 86.25 19.4 86.25 13.65Q86.25 9.75 82.15 9.75 79.75 9.75 78.2 11L78.95 12.3Q80.15 11.25 81.95 11.25 84.5 11.25 84.5 13.55M81.85 15.15L84.5 15.15 84.5 16.5Q83.85 18.2 81.75 18.2 80.8 18.2 80.2 17.75 79.65 17.35 79.65 16.65 79.65 15.15 81.85 15.15M108.4 8.35L108.4 6.8 99.5 6.8 99.5 19.4 101.3 19.4 101.3 14.3 107.6 14.3 107.6 12.75 101.3 12.75 101.3 8.35 108.4 8.35M119.55 9.85L117.8 9.85 117.8 14.8Q117.8 16.3 117 17.15 116.2 17.95 114.85 17.95 112.3 17.95 112.3 15.15L112.3 9.85 110.55 9.85 110.55 15.35Q110.55 17.4 111.65 18.5 112.75 19.5 114.65 19.5 116.8 19.5 117.9 17.95L117.9 19.4 119.55 19.4 119.55 9.85M130.75 10.8Q129.7 9.75 127.9 9.75 125.55 9.75 124.45 11.3L124.45 9.85 122.8 9.85 122.8 19.4 124.5 19.4 124.5 14.5Q124.5 12.95 125.35 12.1 126.15 11.3 127.55 11.3 130.1 11.3 130.1 14.1L130.1 19.4 131.85 19.4 131.85 13.9Q131.85 11.85 130.75 10.8M144.05 6.05L142.3 6.05 142.3 11.3Q141.15 9.75 139 9.75 136.85 9.75 135.5 11.1 134.15 12.45 134.15 14.65 134.15 16.8 135.5 18.15 136.85 19.5 139 19.5 141.2 19.5 142.4 17.9L142.4 19.4 144.05 19.4 144.05 6.05M139.1 11.3Q140.5 11.3 141.4 12.2 142.35 13.1 142.35 14.65 142.35 16.15 141.4 17.1 140.5 18 139.1 18 137.7 18 136.85 17.1 135.9 16.15 135.9 14.65 135.9 13.1 136.85 12.2 137.7 11.3 139.1 11.3M233.25 8.35L233.25 6.8 224.35 6.8 224.35 19.4 233.5 19.4 233.5 17.85 226.15 17.85 226.15 13.75 232.45 13.75 232.45 12.25 226.15 12.25 226.15 8.35 233.25 8.35M243.5 9.85L243.5 11.4Q242.3 9.75 240.1 9.75 237.95 9.75 236.6 11.1 235.25 12.45 235.25 14.65 235.25 16.8 236.6 18.15 237.95 19.5 240.1 19.5 242.2 19.5 243.4 17.95L243.4 22.9 245.15 22.9 245.15 9.85 243.5 9.85M237.95 12.2Q238.8 11.3 240.2 11.3 241.6 11.3 242.5 12.2 243.45 13.15 243.45 14.65 243.45 16.15 242.5 17.1 241.6 18 240.2 18 238.8 18 237.95 17.1 237 16.15 237 14.65 237 13.15 237.95 12.2M262.25 9.85L260.55 9.85 260.55 19.4 262.25 19.4 262.25 9.85M257.3 9.85L255.55 9.85 255.55 14.8Q255.55 16.3 254.75 17.15 253.95 17.95 252.6 17.95 250.05 17.95 250.05 15.15L250.05 9.85 248.3 9.85 248.3 15.35Q248.3 17.4 249.4 18.5 250.5 19.5 252.4 19.5 254.55 19.5 255.65 17.95L255.65 19.4 257.3 19.4 257.3 9.85M262.25 6.1Q261.9 5.8 261.4 5.8 260.9 5.8 260.55 6.1 260.25 6.45 260.25 6.9 260.25 7.4 260.55 7.7 260.9 8.05 261.4 8.05 261.9 8.05 262.25 7.7 262.55 7.35 262.55 6.9 262.55 6.4 262.25 6.1M264.15 11.3L265.8 11.3 265.8 16.5Q265.8 17.95 266.6 18.75 267.35 19.5 268.8 19.5 270.15 19.5 270.9 18.85L270.35 17.6Q269.8 18.05 269 18.05 267.5 18.05 267.5 16.45L267.5 11.3 270.25 11.3 270.25 9.85 267.5 9.85 267.5 7.75 265.8 7.75 265.8 9.85 264.15 9.85 264.15 11.3M281.45 9.85L279.75 9.85 276.45 17.5 273.1 9.85 271.3 9.85 275.5 19.4 275.2 20.05Q274.6 21.55 273.4 21.55 272.4 21.55 271.7 20.8L270.95 22.1Q271.85 23 273.4 23 274.55 23 275.35 22.45 276.2 21.8 276.8 20.35L281.45 9.85M347.5 6.8L345.7 6.8 345.7 19.4 347.5 19.4 347.5 6.8M358.95 10.8Q357.9 9.75 356.1 9.75 353.75 9.75 352.65 11.3L352.65 9.85 351 9.85 351 19.4 352.7 19.4 352.7 14.5Q352.7 12.95 353.55 12.1 354.35 11.3 355.75 11.3 358.3 11.3 358.3 14.1L358.3 19.4 360.05 19.4 360.05 13.9Q360.05 11.85 358.95 10.8M369.8 10.65Q368.45 9.75 366.3 9.75 364.5 9.75 363.4 10.55 362.35 11.35 362.35 12.65 362.35 13.9 363.3 14.55 363.95 15.05 365.35 15.3 367.2 15.65 367.45 15.7 368.35 16.05 368.35 16.7 368.35 18 366.1 18 364.15 18 362.75 17.05L362.05 18.4Q362.65 18.85 363.7 19.2 364.8 19.5 366 19.5 367.9 19.5 369 18.75 370.1 18 370.1 16.7 370.1 15.45 369.15 14.8 368.5 14.35 367.1 14.05 365.3 13.75 365 13.65 364.05 13.3 364.05 12.55 364.05 11.95 364.6 11.6 365.2 11.25 366.3 11.25 367.9 11.25 369.05 12L369.8 10.65M381.15 9.85L379.4 9.85 379.4 14.8Q379.4 16.3 378.6 17.15 377.8 17.95 376.45 17.95 373.9 17.95 373.9 15.15L373.9 9.85 372.15 9.85 372.15 15.35Q372.15 17.4 373.25 18.5 374.35 19.5 376.25 19.5 378.4 19.5 379.5 17.95L379.5 19.4 381.15 19.4 381.15 9.85M386.05 11.45L386.05 9.85 384.4 9.85 384.4 19.4 386.1 19.4 386.1 14.65Q386.1 13.1 386.9 12.25 387.7 11.45 389.1 11.45L389.5 11.45 389.5 9.75Q386.95 9.75 386.05 11.45M391.25 11L392 12.3Q393.2 11.25 395 11.25 397.55 11.25 397.55 13.55L397.55 13.9 394.85 13.9Q391 13.9 391 16.7 391 17.95 391.95 18.7 392.9 19.5 394.55 19.5 396.75 19.5 397.65 18.15L397.65 19.4 399.3 19.4 399.3 13.65Q399.3 9.75 395.2 9.75 392.8 9.75 391.25 11M394.8 18.2Q393.85 18.2 393.25 17.75 392.7 17.35 392.7 16.65 392.7 15.15 394.9 15.15L397.55 15.15 397.55 16.5Q396.9 18.2 394.8 18.2M410.45 10.8Q409.4 9.75 407.6 9.75 405.25 9.75 404.15 11.3L404.15 9.85 402.5 9.85 402.5 19.4 404.2 19.4 404.2 14.5Q404.2 12.95 405.05 12.1 405.85 11.3 407.25 11.3 409.8 11.3 409.8 14.1L409.8 19.4 411.55 19.4 411.55 13.9Q411.55 11.85 410.45 10.8M418.9 9.75Q416.7 9.75 415.3 11.15 413.85 12.5 413.85 14.65 413.85 16.75 415.3 18.15 416.7 19.5 418.9 19.5 421.6 19.5 422.8 17.45L421.45 16.65Q420.6 18 418.85 18 417.45 18 416.55 17.1 415.6 16.15 415.6 14.65 415.6 13.1 416.55 12.2 417.45 11.3 418.85 11.3 420.6 11.3 421.45 12.65L422.8 11.8Q421.65 9.75 418.9 9.75M432.3 11.15Q430.95 9.75 428.9 9.75 426.8 9.75 425.45 11.15 424.1 12.5 424.1 14.65 424.1 16.8 425.5 18.15 426.95 19.5 429.25 19.5 431.65 19.5 433 17.95L432.05 16.85Q431 18 429.3 18 427.9 18 426.95 17.25 426 16.45 425.85 15.2L433.55 15.2 433.6 14.7Q433.6 12.5 432.3 11.15M428.9 11.25Q430.15 11.25 431 12 431.8 12.75 431.95 13.95L425.85 13.95Q425.95 12.75 426.8 12 427.65 11.25 428.9 11.25M521.1 9.85L519.4 9.85 519.4 19.4 521.1 19.4 521.1 9.85M517.15 8.35L517.15 6.8 508.25 6.8 508.25 19.4 510.05 19.4 510.05 14.3 516.35 14.3 516.35 12.75 510.05 12.75 510.05 8.35 517.15 8.35M521.1 6.1Q520.75 5.8 520.25 5.8 519.75 5.8 519.4 6.1 519.1 6.45 519.1 6.9 519.1 7.4 519.4 7.7 519.75 8.05 520.25 8.05 520.75 8.05 521.1 7.7 521.4 7.35 521.4 6.9 521.4 6.4 521.1 6.1M532.25 9.85L530.35 9.85 527.75 13.3 525.1 9.85 523.2 9.85 526.75 14.5 523 19.4 524.95 19.4 527.7 15.75 530.5 19.4 532.45 19.4 528.65 14.5 532.25 9.85M541.6 11.15Q540.25 9.75 538.2 9.75 536.1 9.75 534.75 11.15 533.4 12.5 533.4 14.65 533.4 16.8 534.8 18.15 536.25 19.5 538.55 19.5 540.95 19.5 542.3 17.95L541.35 16.85Q540.3 18 538.6 18 537.2 18 536.25 17.25 535.3 16.45 535.15 15.2L542.85 15.2 542.9 14.7Q542.9 12.5 541.6 11.15M538.2 11.25Q539.45 11.25 540.3 12 541.1 12.75 541.25 13.95L535.15 13.95Q535.25 12.75 536.1 12 536.95 11.25 538.2 11.25M552.55 6.05L552.55 11.3Q551.4 9.75 549.25 9.75 547.1 9.75 545.75 11.1 544.4 12.45 544.4 14.65 544.4 16.8 545.75 18.15 547.1 19.5 549.25 19.5 551.45 19.5 552.65 17.9L552.65 19.4 554.3 19.4 554.3 6.05 552.55 6.05M547.1 12.2Q547.95 11.3 549.35 11.3 550.75 11.3 551.65 12.2 552.6 13.1 552.6 14.65 552.6 16.15 551.65 17.1 550.75 18 549.35 18 547.95 18 547.1 17.1 546.15 16.15 546.15 14.65 546.15 13.1 547.1 12.2M572.8 8.55Q570.95 6.8 567.9 6.8L562.6 6.8 562.6 19.4 567.9 19.4Q570.95 19.4 572.8 17.65 574.7 15.9 574.7 13.1 574.7 10.3 572.8 8.55M567.8 8.35Q570.1 8.35 571.5 9.65 572.9 10.95 572.9 13.1 572.9 15.25 571.5 16.55 570.1 17.85 567.8 17.85L564.4 17.85 564.4 8.35 567.8 8.35M584.5 11.15Q583.15 9.75 581.1 9.75 579 9.75 577.65 11.15 576.3 12.5 576.3 14.65 576.3 16.8 577.7 18.15 579.15 19.5 581.45 19.5 583.85 19.5 585.2 17.95L584.25 16.85Q583.2 18 581.5 18 580.1 18 579.15 17.25 578.2 16.45 578.05 15.2L585.75 15.2 585.8 14.7Q585.8 12.5 584.5 11.15M579 12Q579.85 11.25 581.1 11.25 582.35 11.25 583.2 12 584 12.75 584.15 13.95L578.05 13.95Q578.15 12.75 579 12M593.25 9.75Q591 9.75 589.85 11.4L589.85 9.85 588.2 9.85 588.2 22.9 589.9 22.9 589.9 17.95Q591.1 19.5 593.25 19.5 595.35 19.5 596.7 18.15 598.05 16.8 598.05 14.65 598.05 12.45 596.7 11.1 595.35 9.75 593.25 9.75M590.8 12.2Q591.7 11.3 593.1 11.3 594.5 11.3 595.4 12.2 596.3 13.15 596.3 14.65 596.3 16.15 595.4 17.1 594.5 18 593.1 18 591.7 18 590.8 17.1 589.9 16.15 589.9 14.65 589.9 13.15 590.8 12.2M608.05 18.15Q609.45 16.75 609.45 14.65 609.45 12.5 608.05 11.15 606.7 9.75 604.5 9.75 602.35 9.75 600.95 11.15 599.55 12.5 599.55 14.65 599.55 16.75 600.95 18.15 602.35 19.5 604.5 19.5 606.7 19.5 608.05 18.15M602.25 12.2Q603.1 11.3 604.5 11.3 605.9 11.3 606.8 12.2 607.75 13.1 607.75 14.65 607.75 16.15 606.8 17.1 605.9 18 604.5 18 603.1 18 602.25 17.1 601.3 16.15 601.3 14.65 601.3 13.1 602.25 12.2M622.55 9.85L620.85 9.85 620.85 19.4 622.55 19.4 622.55 9.85M617.65 12L618.4 10.65Q617.05 9.75 614.9 9.75 613.1 9.75 612 10.55 610.95 11.35 610.95 12.65 610.95 13.9 611.9 14.55 612.55 15.05 613.95 15.3 615.8 15.65 616.05 15.7 616.95 16.05 616.95 16.7 616.95 18 614.7 18 612.75 18 611.35 17.05L610.65 18.4Q611.25 18.85 612.3 19.2 613.4 19.5 614.6 19.5 616.5 19.5 617.6 18.75 618.7 18 618.7 16.7 618.7 15.45 617.75 14.8 617.1 14.35 615.7 14.05 613.9 13.75 613.6 13.65 612.65 13.3 612.65 12.55 612.65 11.95 613.2 11.6 613.8 11.25 614.9 11.25 616.5 11.25 617.65 12M621.7 5.8Q621.2 5.8 620.85 6.1 620.55 6.45 620.55 6.9 620.55 7.4 620.85 7.7 621.2 8.05 621.7 8.05 622.2 8.05 622.55 7.7 622.85 7.35 622.85 6.9 622.85 6.4 622.55 6.1 622.2 5.8 621.7 5.8M627.8 11.3L630.55 11.3 630.55 9.85 627.8 9.85 627.8 7.75 626.1 7.75 626.1 9.85 624.45 9.85 624.45 11.3 626.1 11.3 626.1 16.5Q626.1 17.95 626.9 18.75 627.65 19.5 629.1 19.5 630.45 19.5 631.2 18.85L630.65 17.6Q630.1 18.05 629.3 18.05 627.8 18.05 627.8 16.45L627.8 11.3Z"/><path fill="#44ADE2" stroke="none" d="M216.55 23.1Q219.5 20.15 219.5 16.05 219.5 11.95 216.55 9 213.65 6.05 209.5 6.05 205.4 6.05 202.45 9 199.55 11.9 199.55 16.05 199.55 20.2 202.45 23.1 205.4 26 209.5 26 213.65 26 216.55 23.1Z"/><path fill="#39BB9D" stroke="none" d="M336.1 23.1Q339 20.2 339 16.05 339 11.9 336.1 9 333.15 6.05 329.05 6.05 324.95 6.05 322 9 319.05 11.95 319.05 16.05 319.05 20.15 322 23.1 324.9 26 329.05 26 333.2 26 336.1 23.1Z"/><path fill="#76CED9" stroke="none" d="M498.8 23.1Q501.7 20.2 501.7 16.05 501.7 11.9 498.8 9 495.85 6.05 491.7 6.05 487.6 6.05 484.65 9 481.75 11.9 481.75 16.05 481.75 20.2 484.65 23.1 487.6 26 491.7 26 495.85 26 498.8 23.1Z"/></g><animate attributeName="display" fill="freeze" repeatCount="1" dur="2.083s" keyTimes="0;.2;1" values="none;inline;inline"/></g><g display="none"><g id="pie5" transform="translate(438.75 84.45)"><animateTransform attributeName="transform" additive="replace" type="translate" dur="2.083s" keyTimes="0;.2;.42;1" values="438.75,84.45;438.75,84.45;54.75,84.45;54.75,84.45" keySplines=".25 .5 .5 1;.25 .5 .5 1;.1 .1 .9 .9" calcMode="spline" fill="freeze"/><path fill="#666" stroke="none" d="M233.7 379.1Q234.5 378 234.5 375.75 234.5 373.6 233.7 372.45 232.85 371.3 231.35 371.3 228.2 371.3 228.2 375.75 228.2 377.95 229.05 379.1 229.85 380.25 231.35 380.25 232.9 380.25 233.7 379.1M230.1 375.75Q230.1 374.3 230.4 373.6 230.7 372.9 231.35 372.9 232.6 372.9 232.6 375.75 232.6 378.65 231.35 378.65 230.7 378.65 230.4 377.95 230.1 377.2 230.1 375.75M216.25 365.75Q215.5 365.6 214.45 365.6 207.6 365.6 207.6 373.95 207.6 375.95 208.25 377.35 208.85 378.75 209.95 379.5 211.1 380.25 212.65 380.25 214.8 380.25 216.05 378.95 217.3 377.65 217.3 375.4 217.3 373.35 216.25 372.15 215.15 370.95 213.2 370.95 212.1 370.95 211.25 371.4 210.4 371.85 209.95 372.65L209.85 372.65Q209.95 369.9 211.1 368.7 212.25 367.45 214.55 367.45 215.5 367.45 216.25 367.65L216.25 365.75M215.05 375.4Q215.05 376.85 214.4 377.6 213.8 378.35 212.6 378.35 211.45 378.35 210.7 377.4 209.95 376.45 209.95 375.1 209.95 374.5 210.3 373.95 210.65 373.4 211.3 373.1 211.9 372.75 212.65 372.75 213.85 372.75 214.45 373.5 215.05 374.2 215.05 375.4M225.2 370.05Q225.2 367.9 224.4 366.75 223.55 365.55 222.05 365.55 218.9 365.55 218.9 370.05 218.9 372.2 219.75 373.35 220.55 374.55 222.05 374.55 223.6 374.55 224.4 373.4 225.2 372.3 225.2 370.05M220.8 370.05Q220.8 368.6 221.1 367.9 221.4 367.15 222.05 367.15 223.3 367.15 223.3 370.05 223.3 372.95 222.05 372.95 221.4 372.95 221.1 372.2 220.8 371.5 220.8 370.05M231.6 365.75L229.7 365.75 221.8 380.05 223.7 380.05 231.6 365.75M198.55 372.65L198.45 372.65Q198.55 369.9 199.7 368.7 200.85 367.45 203.15 367.45 204.1 367.45 204.85 367.65L204.85 365.75Q204.1 365.6 203.05 365.6 196.2 365.6 196.2 373.95 196.2 375.95 196.85 377.35 197.45 378.75 198.55 379.5 199.7 380.25 201.25 380.25 203.4 380.25 204.65 378.95 205.9 377.65 205.9 375.4 205.9 373.35 204.85 372.15 203.75 370.95 201.8 370.95 200.7 370.95 199.85 371.4 199 371.85 198.55 372.65M199.3 377.4Q198.55 376.45 198.55 375.1 198.55 374.5 198.9 373.95 199.25 373.4 199.9 373.1 200.5 372.75 201.25 372.75 202.45 372.75 203.05 373.5 203.65 374.2 203.65 375.4 203.65 376.85 203 377.6 202.4 378.35 201.2 378.35 200.05 378.35 199.3 377.4M35.75 242.25Q36.55 243.4 38.05 243.4 39.6 243.4 40.4 242.25 41.2 241.15 41.2 238.9 41.2 236.75 40.4 235.6 39.55 234.45 38.05 234.45 34.9 234.45 34.9 238.9 34.9 241.1 35.75 242.25M37.1 236.75Q37.4 236.05 38.05 236.05 39.3 236.05 39.3 238.9 39.3 241.8 38.05 241.8 37.4 241.8 37.1 241.1 36.8 240.35 36.8 238.9 36.8 237.45 37.1 236.75M31.9 233.2Q31.9 231.05 31.1 229.9 30.25 228.7 28.75 228.7 25.6 228.7 25.6 233.2 25.6 235.35 26.45 236.5 27.25 237.7 28.75 237.7 30.3 237.7 31.1 236.55 31.9 235.45 31.9 233.2M27.5 233.2Q27.5 231.75 27.8 231.05 28.1 230.3 28.75 230.3 30 230.3 30 233.2 30 236.1 28.75 236.1 28.1 236.1 27.8 235.35 27.5 234.65 27.5 233.2M38.3 228.9L36.4 228.9 28.5 243.2 30.4 243.2 38.3 228.9M7.7 228.9L3.5 232.2 4.65 233.7 6.85 231.9 7.4 231.35 7.3 243.2 9.6 243.2 9.6 228.9 7.7 228.9M19.9 234.1Q18.8 234.1 17.95 234.55 17.1 235 16.65 235.8L16.55 235.8Q16.65 233.05 17.8 231.85 18.95 230.6 21.25 230.6 22.2 230.6 22.95 230.8L22.95 228.9Q22.2 228.75 21.15 228.75 14.3 228.75 14.3 237.1 14.3 239.1 14.95 240.5 15.55 241.9 16.65 242.65 17.8 243.4 19.35 243.4 21.5 243.4 22.75 242.1 24 240.8 24 238.55 24 236.5 22.95 235.3 21.85 234.1 19.9 234.1M17.4 240.55Q16.65 239.6 16.65 238.25 16.65 237.65 17 237.1 17.35 236.55 18 236.25 18.6 235.9 19.35 235.9 20.55 235.9 21.15 236.65 21.75 237.35 21.75 238.55 21.75 240 21.1 240.75 20.5 241.5 19.3 241.5 18.15 241.5 17.4 240.55M51.95 126.4L53.85 126.4 61.75 112.1 59.85 112.1 51.95 126.4M49.05 116.4Q49.05 118.55 49.9 119.7 50.7 120.9 52.2 120.9 53.75 120.9 54.55 119.75 55.35 118.65 55.35 116.4 55.35 114.25 54.55 113.1 53.7 111.9 52.2 111.9 49.05 111.9 49.05 116.4M50.95 116.4Q50.95 114.95 51.25 114.25 51.55 113.5 52.2 113.5 53.45 113.5 53.45 116.4 53.45 119.3 52.2 119.3 51.55 119.3 51.25 118.55 50.95 117.85 50.95 116.4M46.4 114L46.4 112.1Q45.65 111.95 44.6 111.95 37.75 111.95 37.75 120.3 37.75 122.3 38.4 123.7 39 125.1 40.1 125.85 41.25 126.6 42.8 126.6 44.95 126.6 46.2 125.3 47.45 124 47.45 121.75 47.45 119.7 46.4 118.5 45.3 117.3 43.35 117.3 42.25 117.3 41.4 117.75 40.55 118.2 40.1 119L40 119Q40.1 116.25 41.25 115.05 42.4 113.8 44.7 113.8 45.65 113.8 46.4 114M44.6 119.85Q45.2 120.55 45.2 121.75 45.2 123.2 44.55 123.95 43.95 124.7 42.75 124.7 41.6 124.7 40.85 123.75 40.1 122.8 40.1 121.45 40.1 120.85 40.45 120.3 40.8 119.75 41.45 119.45 42.05 119.1 42.8 119.1 44 119.1 44.6 119.85M64.65 122.1Q64.65 119.95 63.85 118.8 63 117.65 61.5 117.65 58.35 117.65 58.35 122.1 58.35 124.3 59.2 125.45 60 126.6 61.5 126.6 63.05 126.6 63.85 125.45 64.65 124.35 64.65 122.1M61.5 119.25Q62.75 119.25 62.75 122.1 62.75 125 61.5 125 60.85 125 60.55 124.3 60.25 123.55 60.25 122.1 60.25 120.65 60.55 119.95 60.85 119.25 61.5 119.25M129.4 69.1Q130.4 68.3 131.15 68 131.95 67.7 132.75 67.7 133.8 67.7 134.35 68.25 134.95 68.8 134.95 69.75 134.95 70.45 134.7 71.1 134.45 71.7 133.95 72.4 133.4 73.1 131.75 74.75L128.1 78.45 128.1 80.2 137.75 80.2 137.75 78.2 131 78.2 131 78.1 133.45 75.7Q135.15 74.1 135.85 73.2 136.55 72.25 136.9 71.4 137.25 70.5 137.25 69.55 137.25 67.8 136.05 66.75 134.85 65.7 132.85 65.7 131.6 65.7 130.45 66.15 129.35 66.55 128.15 67.55L129.4 69.1M144.9 66.9Q144.05 65.7 142.55 65.7 139.4 65.7 139.4 70.2 139.4 72.35 140.25 73.5 141.05 74.7 142.55 74.7 144.1 74.7 144.9 73.55 145.7 72.45 145.7 70.2 145.7 68.05 144.9 66.9M143.8 70.2Q143.8 73.1 142.55 73.1 141.9 73.1 141.6 72.35 141.3 71.65 141.3 70.2 141.3 68.75 141.6 68.05 141.9 67.3 142.55 67.3 143.8 67.3 143.8 70.2M154.2 72.6Q153.35 71.45 151.85 71.45 148.7 71.45 148.7 75.9 148.7 78.1 149.55 79.25 150.35 80.4 151.85 80.4 153.4 80.4 154.2 79.25 155 78.15 155 75.9 155 73.75 154.2 72.6M150.9 73.75Q151.2 73.05 151.85 73.05 153.1 73.05 153.1 75.9 153.1 78.8 151.85 78.8 151.2 78.8 150.9 78.1 150.6 77.35 150.6 75.9 150.6 74.45 150.9 73.75M152.1 65.9L150.2 65.9 142.3 80.2 144.2 80.2 152.1 65.9M117.3 69.2L118.45 70.7 120.65 68.9 121.2 68.35 121.1 80.2 123.4 80.2 123.4 65.9 121.5 65.9 117.3 69.2Z"/><path fill="#404041" stroke="none" d="M153 5.95Q153 6.75 152.7 7.5 152.4 8.25 151.7 9.15 151 10 148.8 12.3L143.75 17.35 143.75 20.3 157.75 20.3 157.75 16.75 149.05 16.75 149.05 16.55 151.6 14.15Q154.2 11.8 155.2 10.5 156.2 9.25 156.7 8.05 157.2 6.8 157.2 5.45 157.2 3.85 156.4 2.6 155.6 1.4 154.15 .7 152.75 0 150.85 0 149.45 0 148.3 .3 147.15 .6 146.15 1.1 145.2 1.6 143.7 2.9L146 5.6Q147.2 4.6 148.3 4.1 149.4 3.55 150.55 3.55 151.65 3.55 152.35 4.15 153 4.75 153 5.95M171.85 2.6Q170.1 0 166.65 0 163.1 0 161.35 2.5 159.65 5 159.65 10.3 159.65 15.4 161.45 18 163.2 20.55 166.65 20.55 170.2 20.55 171.95 18.05 173.65 15.55 173.65 10.3 173.65 5.25 171.85 2.6M163.85 10.3Q163.85 6.65 164.5 5.05 165.15 3.4 166.65 3.4 168.1 3.4 168.75 5.05 169.4 6.65 169.4 10.3 169.4 13.95 168.75 15.55 168.1 17.15 166.65 17.15 165.15 17.15 164.5 15.6 163.85 14 163.85 10.3M187.85 2.6Q186.1 0 182.65 0 179.1 0 177.35 2.5 175.65 5 175.65 10.3 175.65 15.4 177.45 18 179.2 20.55 182.65 20.55 186.2 20.55 187.95 18.05 189.65 15.55 189.65 10.3 189.65 5.25 187.85 2.6M184.75 5.05Q185.4 6.65 185.4 10.3 185.4 13.95 184.75 15.55 184.1 17.15 182.65 17.15 181.15 17.15 180.5 15.6 179.85 14 179.85 10.3 179.85 6.65 180.5 5.05 181.15 3.4 182.65 3.4 184.1 3.4 184.75 5.05M205.35 13.6Q205.35 10.8 203.65 9.15 201.95 7.55 199.05 7.55 197.8 7.55 197 7.7L196.5 7.8 196.85 3.9 204 3.9 204 .3 193.15 .3 192.4 10.5 194.1 11.4Q194.65 11.25 195.5 11.1 196.4 10.95 197.1 10.95 201.1 10.95 201.1 13.95 201.1 17.15 197.25 17.15 195.95 17.15 194.55 16.8 193.1 16.4 192 15.85L192 19.5Q194.05 20.55 197.4 20.55 201.25 20.55 203.3 18.75 205.35 16.95 205.35 13.6Z"/><path fill="#76CED9" stroke="none" d="M139.45 168.5L140.55 167.55 140.5 167.5 97.65 116.4Q79.8 131.45 67.85 151.9L125.5 185.2 125.6 185.25Q127.440 182.116 129.5 179.2L129.55 179.2 133 174.9Q133.651 174.199 134.3 173.5 135.218 172.493 136.2 171.5 137.764 169.954 139.45 168.5Z"/><path fill="#39BB9D" stroke="none" d="M63.95 159.1Q57.978 171.024 54.45 183.55 54.435 183.711 54.4 183.85 50.124 200.019 50 217.55 50.000 217.737 50 217.9L50 218.2Q50 218.397 50 218.6 50 218.798 50 219 50.000 219.147 50 219.3L50 219.3Q50.000 219.483 50 219.65 50.124 237.277 54.4 253.5 54.451 253.587 54.45 253.65 59.054 270.049 67.85 285.3L125.5 251.95 125.6 251.9 119.2 237.05Q119.146 236.822 119.05 236.55 118.983 236.242 118.9 235.9L117.1 226.45Q116.746 223.041 116.7 219.5 116.700 219.475 116.7 219.4 116.700 219.315 116.7 219.2 116.700 219.162 116.7 219.1L116.7 218.6Q116.7 209.621 118.85 201.35 121.15 193.025 125.6 185.25L125.5 185.2 67.85 151.9Q67.695 152.168 67.55 152.45 65.657 155.764 63.95 159.1Z"/><path fill="#FACA0A" stroke="none" d="M54.45 183.55Q57.978 171.024 63.95 159.1 65.657 155.764 67.55 152.45 67.695 152.168 67.85 151.9 79.8 131.45 97.65 116.4 99.946 114.473 102.25 112.6 95.420 117.896 89.05 124.25 63.030 150.335 54.45 183.55M183.35 151.95Q211 151.95 230.5 171.45 250 191.05 250 218.6 250 246.2 230.5 265.7 211.05 285.25 183.35 285.25 155.7 285.25 136.25 265.7 129.814 259.264 125.5 251.95L67.85 285.3Q59.054 270.049 54.45 253.65 63.048 286.864 89.05 312.9 128.2 352 183.4 352 238.65 352 277.7 312.9 316.8 273.9 316.8 218.6 316.8 163.3 277.7 124.25 238.7 85.2 183.4 85.2L183.35 151.95Z"/><path fill="#44ADE2" stroke="none" d="M182.55 85.2Q182.399 85.200 182.2 85.2 137.078 85.553 102.25 112.6L102.25 112.6Q99.946 114.473 97.65 116.4L140.5 167.5 140.55 167.55Q145.2 163.65 150.15 160.65 165.073 151.95 183.35 151.95L183.4 85.2 182.55 85.2Z"/><path id="Layer3_0_1_STROKES" stroke="#FFF" stroke-width="1" stroke-linejoin="round" stroke-linecap="round" fill="none" d="M183.4 85.2Q238.7 85.2 277.7 124.25 316.8 163.3 316.8 218.6 316.8 273.9 277.7 312.9 238.65 352 183.4 352 128.2 352 89.05 312.9 63.048 286.864 54.475 253.675 54.451 253.587 54.425 253.5 50.124 237.277 50 219.65 50.000 219.483 50 219.325L50 219.3M50 219Q50 218.798 50 218.6 50 218.397 50 218.2M50 217.9Q50.000 217.737 50 217.575 50.124 200.019 54.4 183.85 54.435 183.711 54.475 183.575 63.030 150.335 89.05 124.25 95.420 117.896 102.25 112.625L102.275 112.6Q137.078 85.553 182.225 85.2M183.35 151.95Q211 151.95 230.5 171.45 250 191.05 250 218.6 250 246.2 230.5 265.7 211.05 285.25 183.35 285.25 155.7 285.25 136.25 265.7 129.814 259.264 125.5 251.95M134.3 173.5Q135.218 172.493 136.2 171.525M116.7 219.425Q116.700 219.315 116.7 219.2"/></g><animate attributeName="display" fill="freeze" repeatCount="1" dur="2.083s" keyTimes="0;.2;1" values="none;inline;inline"/></g><g display="none"><g id="pie4" transform="matrix(.5 0 0 .5 519.75 181.4)"><animateTransform attributeName="transform" additive="replace" type="translate" dur="2.083s" keyTimes="0;1" values="598.5,278.4;598.5,278.4" keySplines=".25 .5 .5 1" calcMode="spline" fill="freeze"/><animateTransform attributeName="transform" additive="sum" type="scale" dur="2.083s" keyTimes="0;.2;.42;1" values=".5,.5;.5,.5;1,1;1,1" keySplines=".25 .5 .5 1;.25 .5 .5 1;.1 .1 .9 .9" calcMode="spline" fill="freeze"/><animateTransform attributeName="transform" additive="sum" type="translate" dur="2.083s" keyTimes="0;.2;.42;1" values="-157.5,-194;-157.5,-194;-157.45,-193.95;-157.45,-193.95" keySplines=".25 .5 .5 1;.25 .5 .5 1;.1 .1 .9 .9" calcMode="spline" fill="freeze"/><path fill="#666" stroke="none" d="M219.35 375.7Q219.35 373.55 218.55 372.4 217.7 371.25 216.2 371.25 213.05 371.25 213.05 375.7 213.05 377.9 213.9 379.05 214.7 380.2 216.2 380.2 217.75 380.2 218.55 379.05 219.35 377.95 219.35 375.7M216.2 372.85Q217.45 372.85 217.45 375.7 217.45 378.6 216.2 378.6 215.55 378.6 215.25 377.9 214.95 377.15 214.95 375.7 214.95 374.25 215.25 373.55 215.55 372.85 216.2 372.85M216.45 365.7L214.55 365.7 206.65 380 208.55 380 216.45 365.7M210.05 370Q210.05 367.85 209.25 366.7 208.4 365.5 206.9 365.5 203.75 365.5 203.75 370 203.75 372.15 204.6 373.3 205.4 374.5 206.9 374.5 208.45 374.5 209.25 373.35 210.05 372.25 210.05 370M205.65 370Q205.65 368.55 205.95 367.85 206.25 367.1 206.9 367.1 208.15 367.1 208.15 370 208.15 372.9 206.9 372.9 206.25 372.9 205.95 372.15 205.65 371.45 205.65 370M200.35 366.45Q199.15 365.5 197 365.5 194.4 365.5 192.45 366.95L193.55 368.55Q194.6 367.9 195.35 367.7 196.1 367.45 196.9 367.45 198.05 367.45 198.65 367.95 199.25 368.45 199.25 369.35 199.25 371.7 195.85 371.7L194.55 371.7 194.55 373.6 195.8 373.6Q197.75 373.6 198.65 374.1 199.55 374.65 199.55 375.8 199.55 377.1 198.75 377.7 197.95 378.3 196.25 378.3 195.35 378.3 194.3 378.1 193.3 377.85 192.4 377.4L192.4 379.4Q194 380.2 196.4 380.2 199.1 380.2 200.55 379.1 202 377.95 202 375.9 202 374.5 201.15 373.65 200.25 372.75 198.55 372.55L198.55 372.5Q200 372.15 200.8 371.25 201.55 370.35 201.55 369 201.55 367.35 200.35 366.45M189.7 365.7Q188.95 365.55 187.9 365.55 181.05 365.55 181.05 373.9 181.05 375.9 181.7 377.3 182.3 378.7 183.4 379.45 184.55 380.2 186.1 380.2 188.25 380.2 189.5 378.9 190.75 377.6 190.75 375.35 190.75 373.3 189.7 372.1 188.6 370.9 186.65 370.9 185.55 370.9 184.7 371.35 183.85 371.8 183.4 372.6L183.3 372.6Q183.4 369.85 184.55 368.65 185.7 367.4 188 367.4 188.95 367.4 189.7 367.6L189.7 365.7M187.9 373.45Q188.5 374.15 188.5 375.35 188.5 376.8 187.85 377.55 187.25 378.3 186.05 378.3 184.9 378.3 184.15 377.35 183.4 376.4 183.4 375.05 183.4 374.45 183.75 373.9 184.1 373.35 184.75 373.05 185.35 372.7 186.1 372.7 187.3 372.7 187.9 373.45M9.6 264.05L7.7 264.05 3.5 267.35 4.65 268.85 6.85 267.05 7.4 266.5 7.3 278.35 9.6 278.35 9.6 264.05M40.4 270.75Q39.55 269.6 38.05 269.6 34.9 269.6 34.9 274.05 34.9 276.25 35.75 277.4 36.55 278.55 38.05 278.55 39.6 278.55 40.4 277.4 41.2 276.3 41.2 274.05 41.2 271.9 40.4 270.75M37.1 271.9Q37.4 271.2 38.05 271.2 39.3 271.2 39.3 274.05 39.3 276.95 38.05 276.95 37.4 276.95 37.1 276.25 36.8 275.5 36.8 274.05 36.8 272.6 37.1 271.9M38.3 264.05L36.4 264.05 28.5 278.35 30.4 278.35 38.3 264.05M25.6 268.35Q25.6 270.5 26.45 271.65 27.25 272.85 28.75 272.85 30.3 272.85 31.1 271.7 31.9 270.6 31.9 268.35 31.9 266.2 31.1 265.05 30.25 263.85 28.75 263.85 25.6 263.85 25.6 268.35M27.5 268.35Q27.5 266.9 27.8 266.2 28.1 265.45 28.75 265.45 30 265.45 30 268.35 30 271.25 28.75 271.25 28.1 271.25 27.8 270.5 27.5 269.8 27.5 268.35M22.95 264.05Q22.2 263.9 21.15 263.9 14.3 263.9 14.3 272.25 14.3 274.25 14.95 275.65 15.55 277.05 16.65 277.8 17.8 278.55 19.35 278.55 21.5 278.55 22.75 277.25 24 275.95 24 273.7 24 271.65 22.95 270.45 21.85 269.25 19.9 269.25 18.8 269.25 17.95 269.7 17.1 270.15 16.65 270.95L16.55 270.95Q16.65 268.2 17.8 267 18.95 265.75 21.25 265.75 22.2 265.75 22.95 265.95L22.95 264.05M18 271.4Q18.6 271.05 19.35 271.05 20.55 271.05 21.15 271.8 21.75 272.5 21.75 273.7 21.75 275.15 21.1 275.9 20.5 276.65 19.3 276.65 18.15 276.65 17.4 275.7 16.65 274.75 16.65 273.4 16.65 272.8 17 272.25 17.35 271.7 18 271.4M60.5 128.5Q60.5 126.35 59.7 125.2 58.85 124.05 57.35 124.05 54.2 124.05 54.2 128.5 54.2 130.7 55.05 131.85 55.85 133 57.35 133 58.9 133 59.7 131.85 60.5 130.75 60.5 128.5M57.35 125.65Q58.6 125.65 58.6 128.5 58.6 131.4 57.35 131.4 56.7 131.4 56.4 130.7 56.1 129.95 56.1 128.5 56.1 127.05 56.4 126.35 56.7 125.65 57.35 125.65M57.6 118.5L55.7 118.5 47.8 132.8 49.7 132.8 57.6 118.5M50.4 119.5Q49.55 118.3 48.05 118.3 44.9 118.3 44.9 122.8 44.9 124.95 45.75 126.1 46.55 127.3 48.05 127.3 49.6 127.3 50.4 126.15 51.2 125.05 51.2 122.8 51.2 120.65 50.4 119.5M46.8 122.8Q46.8 121.35 47.1 120.65 47.4 119.9 48.05 119.9 49.3 119.9 49.3 122.8 49.3 125.7 48.05 125.7 47.4 125.7 47.1 124.95 46.8 124.25 46.8 122.8M42.6 121.25Q42 119.8 40.85 119.1 39.75 118.35 38.2 118.35 36.05 118.35 34.8 119.65 33.55 121 33.55 123.2 33.55 125.3 34.6 126.45 35.7 127.65 37.6 127.65 38.7 127.65 39.5 127.25 40.35 126.85 40.9 126L41 126Q40.9 128.65 39.75 129.9 38.65 131.15 36.3 131.15 35.4 131.15 34.55 130.9L34.55 132.85Q35.1 133 36.4 133 39.85 133 41.55 130.9 43.25 128.85 43.25 124.6 43.25 122.65 42.6 121.25M40.6 121.9Q40.9 122.65 40.9 123.5 40.9 124.45 40.15 125.1 39.35 125.8 38.2 125.8 37 125.8 36.4 125.1 35.8 124.4 35.8 123.2 35.8 121.8 36.45 121 37.05 120.25 38.25 120.25 39.05 120.25 39.65 120.7 40.25 121.1 40.6 121.9M137.05 75.85Q137.05 78.05 137.9 79.2 138.7 80.35 140.2 80.35 141.75 80.35 142.55 79.2 143.35 78.1 143.35 75.85 143.35 73.7 142.55 72.55 141.7 71.4 140.2 71.4 137.05 71.4 137.05 75.85M139.25 73.7Q139.55 73 140.2 73 141.45 73 141.45 75.85 141.45 78.75 140.2 78.75 139.55 78.75 139.25 78.05 138.95 77.3 138.95 75.85 138.95 74.4 139.25 73.7M140.45 65.85L138.55 65.85 130.65 80.15 132.55 80.15 140.45 65.85M127.75 70.15Q127.75 72.3 128.6 73.45 129.4 74.65 130.9 74.65 132.45 74.65 133.25 73.5 134.05 72.4 134.05 70.15 134.05 68 133.25 66.85 132.4 65.65 130.9 65.65 127.75 65.65 127.75 70.15M129.95 68Q130.25 67.25 130.9 67.25 132.15 67.25 132.15 70.15 132.15 73.05 130.9 73.05 130.25 73.05 129.95 72.3 129.65 71.6 129.65 70.15 129.65 68.7 129.95 68M117.75 69.05Q118.75 68.25 119.5 67.95 120.3 67.65 121.1 67.65 122.15 67.65 122.7 68.2 123.3 68.75 123.3 69.7 123.3 70.4 123.05 71.05 122.8 71.65 122.3 72.35 121.75 73.05 120.1 74.7L116.45 78.4 116.45 80.15 126.1 80.15 126.1 78.15 119.35 78.15 119.35 78.05 121.8 75.65Q123.5 74.05 124.2 73.15 124.9 72.2 125.25 71.35 125.6 70.45 125.6 69.5 125.6 67.75 124.4 66.7 123.2 65.65 121.2 65.65 119.95 65.65 118.8 66.1 117.7 66.5 116.5 67.5L117.75 69.05M109.85 65.85L105.65 69.15 106.8 70.65 109 68.85 109.55 68.3 109.45 80.15 111.75 80.15 111.75 65.85 109.85 65.85Z"/><path fill="#FACA0A" stroke="none" d="M62.45 280Q56.1 267.35 52.25 253.05 50.2 245.35 49 237.7 51.95 260.4 62.45 280M131.75 263.45Q133.35 265.2 135.15 266.85 134.55 266.25 133.95 265.65 132.85 264.55 131.75 263.45M114.5 222.75Q114.4 220.7 114.4 218.55 114.4 213.9 114.95 209.45 114 216.1 114.5 222.75M92.15 119.1Q93.75 117.7 95.35 116.35 97.65 114.425 99.95 112.6 95.963 115.632 92.15 119.1M65.15 152.15Q53.7 171.45 49.85 193.95 51.95 183.4 55.75 172.95 59.7 162 65.15 152.15M181.05 151.9Q208.65 151.9 228.2 171.4 247.7 191 247.7 218.55 247.7 246.15 228.2 265.65 208.65 285.2 181.05 285.2 156.35 285.2 138.25 269.65L95.35 320.7Q94.775 320.225 94.2 319.75 130.998 351.95 181.1 351.95 236.3 351.95 275.4 312.85 314.5 273.75 314.5 218.55 314.5 163.3 275.4 124.2 236.35 85.15 181.1 85.15L181.05 151.9Z"/><path fill="#39BB9D" stroke="none" d="M55.75 172.95Q51.95 183.4 49.85 193.95 49.2 197.4 48.75 200.95 48.15 205.25 47.9 209.65 47.3 217.6 47.85 225.65 48 229.1 48.35 232.6 48.6 235.15 49 237.7 50.2 245.35 52.25 253.05 56.1 267.35 62.45 280 68.9 292.45 78.15 303.45 82.15 308.25 86.75 312.85 89.85 315.95 93.1 318.8 93.648 319.281 94.2 319.75 94.775 320.225 95.35 320.7L138.25 269.65 138.25 269.6Q137.55 269 136.85 268.4 136.65 268.2 136.4 268 135.75 267.45 135.15 266.85 133.35 265.2 131.75 263.45 128.6 260 126.05 256.35 122.8 251.7 120.45 246.65 118.15 241.45 116.65 235.8 116.05 233.55 115.6 231.35 115.15 229.1 114.9 226.9 114.6 224.85 114.5 222.75 114 216.1 114.95 209.45 115.2 207.7 115.5 206 116.55 200.85 118.45 195.75L55.75 172.95Z"/><path fill="#76CED9" stroke="none" d="M65.15 152.15Q59.7 162 55.75 172.95L118.45 195.75Q118.5 195.65 118.55 195.55 118.55 195.45 118.6 195.35 118.65 195.15 118.75 195L121.8 187.95Q123.55 184.5 125.7 181.35 127.25 179.05 129 176.9 129.35 176.45 129.65 176.1L133.8 171.6Q133.85 171.5 133.95 171.4 135 170.4 136.05 169.4L136.1 169.4Q137.15 168.45 138.25 167.5L138.2 167.45 95.35 116.35Q93.75 117.7 92.15 119.1 90.6 120.5 89.1 121.95 88.2 122.75 87.35 123.65 86.75 124.2 86.2 124.75 81.85 129.1 78.05 133.7 70.75 142.45 65.15 152.15Z"/><path fill="#44ADE2" stroke="none" d="M179.95 85.15Q179.75 85.15 179.55 85.15 137.65 85.6 104.7 109.05 104.65 109.05 104.65 109.1 102.283 110.781 99.95 112.6 97.65 114.425 95.35 116.35L138.2 167.45 138.25 167.5Q142.9 163.6 147.85 160.65L181.05 151.9 181.1 85.15 180.35 85.15Q180.15 85.15 179.95 85.15Z"/><path fill="#404041" stroke="none" d="M162.65 20.25L162.65 16.7 153.95 16.7 153.95 16.5 156.5 14.1Q159.1 11.75 160.1 10.45 161.1 9.2 161.6 8 162.1 6.75 162.1 5.4 162.1 3.8 161.3 2.55 160.5 1.35 159.05 .65 157.65 -.05 155.75 -.05 154.35 -.05 153.2 .25 152.05 .55 151.05 1.05 150.1 1.55 148.6 2.85L150.9 5.55Q152.1 4.55 153.2 4.05 154.3 3.5 155.45 3.5 156.55 3.5 157.25 4.1 157.9 4.7 157.9 5.9 157.9 6.7 157.6 7.45 157.3 8.2 156.6 9.1 155.9 9.95 153.7 12.25L148.65 17.3 148.65 20.25 162.65 20.25M178.55 10.25Q178.55 5.2 176.75 2.55 175 -.05 171.55 -.05 168 -.05 166.25 2.45 164.55 4.95 164.55 10.25 164.55 15.35 166.35 17.95 168.1 20.5 171.55 20.5 175.1 20.5 176.85 18 178.55 15.5 178.55 10.25M173.65 5Q174.3 6.6 174.3 10.25 174.3 13.9 173.65 15.5 173 17.1 171.55 17.1 170.05 17.1 169.4 15.55 168.75 13.95 168.75 10.25 168.75 6.6 169.4 5 170.05 3.35 171.55 3.35 173 3.35 173.65 5M185.55 6.1Q185.95 5.75 187 4.7L186.9 20.25 191.1 20.25 191.1 .25 187.65 .25 181.2 5.4 183.25 7.95 185.55 6.1M208.55 9.1Q206.85 7.5 203.95 7.5 202.7 7.5 201.9 7.65L201.4 7.75 201.75 3.85 208.9 3.85 208.9 .25 198.05 .25 197.3 10.45 199 11.35Q199.55 11.2 200.4 11.05 201.3 10.9 202 10.9 206 10.9 206 13.9 206 17.1 202.15 17.1 200.85 17.1 199.45 16.75 198 16.35 196.9 15.8L196.9 19.45Q198.95 20.5 202.3 20.5 206.15 20.5 208.2 18.7 210.25 16.9 210.25 13.55 210.25 10.75 208.55 9.1Z"/><path id="Layer2_0_1_STROKES" stroke="#FFF" stroke-width="1" stroke-linejoin="round" stroke-linecap="round" fill="none" d="M179.55 85.15Q179.75 85.15 179.95 85.15 180.15 85.15 180.35 85.15M181.1 85.15Q236.35 85.15 275.4 124.2 314.5 163.3 314.5 218.55 314.5 273.75 275.4 312.85 236.3 351.95 181.1 351.95 130.998 351.95 94.2 319.75 93.648 319.281 93.1 318.8 89.85 315.95 86.75 312.85 82.15 308.25 78.15 303.45 68.9 292.45 62.45 280 51.95 260.4 49 237.7 48.6 235.15 48.35 232.6M48.75 200.95Q49.2 197.4 49.85 193.95 53.7 171.45 65.15 152.15 70.75 142.45 78.05 133.7M89.1 121.95Q90.6 120.5 92.15 119.1 95.963 115.632 99.95 112.6 102.283 110.781 104.65 109.1M181.05 151.9Q208.65 151.9 228.2 171.4 247.7 191 247.7 218.55 247.7 246.15 228.2 265.65 208.65 285.2 181.05 285.2 156.35 285.2 138.25 269.65M133.8 171.6Q133.85 171.5 133.95 171.4M114.95 209.45Q114.4 213.9 114.4 218.55 114.4 220.7 114.5 222.75 114.6 224.85 114.9 226.9M126.05 256.35Q128.6 260 131.75 263.45 132.85 264.55 133.95 265.65 134.55 266.25 135.15 266.85 135.75 267.45 136.4 268"/></g><animate attributeName="display" fill="freeze" repeatCount="1" dur="2.083s" keyTimes="0;.2;1" values="none;inline;inline"/></g><g display="none"><g id="pie03" transform="translate(443.35 84.45)"><animateTransform attributeName="transform" additive="replace" type="translate" dur="2.083s" keyTimes="0;.2;.42;1" values="443.35,84.45;443.35,84.45;816.25,84.45;816.25,84.45" keySplines=".25 .5 .5 1;.25 .5 .5 1;.1 .1 .9 .9" calcMode="spline" fill="freeze"/><path fill="#666" stroke="none" d="M249.05 362.5Q249.05 364.65 249.9 365.8 250.7 367 252.2 367 253.75 367 254.55 365.85 255.35 364.75 255.35 362.5 255.35 360.35 254.55 359.2 253.7 358 252.2 358 249.05 358 249.05 362.5M250.95 362.5Q250.95 361.05 251.25 360.35 251.55 359.6 252.2 359.6 253.45 359.6 253.45 362.5 253.45 365.4 252.2 365.4 251.55 365.4 251.25 364.65 250.95 363.95 250.95 362.5M261.75 358.2L259.85 358.2 251.95 372.5 253.85 372.5 261.75 358.2M264.65 368.2Q264.65 366.05 263.85 364.9 263 363.75 261.5 363.75 258.35 363.75 258.35 368.2 258.35 370.4 259.2 371.55 260 372.7 261.5 372.7 263.05 372.7 263.85 371.55 264.65 370.45 264.65 368.2M260.55 366.05Q260.85 365.35 261.5 365.35 262.75 365.35 262.75 368.2 262.75 371.1 261.5 371.1 260.85 371.1 260.55 370.4 260.25 369.65 260.25 368.2 260.25 366.75 260.55 366.05M237.55 358.25L237.55 360.25 245 360.25 239.35 372.5 241.85 372.5 247.45 359.85 247.45 358.25 237.55 358.25M229.95 363.65L229.15 363.8 229.45 360.25 234.85 360.25 234.85 358.2 227.45 358.2 226.9 365.2 227.9 365.8 230.25 365.5Q233.5 365.5 233.5 368.05 233.5 369.4 232.7 370.1 231.85 370.8 230.3 370.8 229.45 370.8 228.4 370.55 227.4 370.3 226.6 369.85L226.6 371.9Q227.95 372.7 230.35 372.7 233 372.7 234.4 371.4 235.85 370.15 235.85 367.85 235.85 365.85 234.6 364.75 233.35 363.6 231.15 363.6L229.95 363.65M41.75 335.65L41.75 321.35 39.85 321.35 35.65 324.65 36.8 326.15 39 324.35 39.55 323.8 39.45 335.65 41.75 335.65M73.35 331.35Q73.35 329.2 72.55 328.05 71.7 326.9 70.2 326.9 67.05 326.9 67.05 331.35 67.05 333.55 67.9 334.7 68.7 335.85 70.2 335.85 71.75 335.85 72.55 334.7 73.35 333.6 73.35 331.35M68.95 331.35Q68.95 329.9 69.25 329.2 69.55 328.5 70.2 328.5 71.45 328.5 71.45 331.35 71.45 334.25 70.2 334.25 69.55 334.25 69.25 333.55 68.95 332.8 68.95 331.35M57.75 325.65Q57.75 327.8 58.6 328.95 59.4 330.15 60.9 330.15 62.45 330.15 63.25 329 64.05 327.9 64.05 325.65 64.05 323.5 63.25 322.35 62.4 321.15 60.9 321.15 57.75 321.15 57.75 325.65M59.65 325.65Q59.65 324.2 59.95 323.5 60.25 322.75 60.9 322.75 62.15 322.75 62.15 325.65 62.15 328.55 60.9 328.55 60.25 328.55 59.95 327.8 59.65 327.1 59.65 325.65M56.15 321.4L46.25 321.4 46.25 323.4 53.7 323.4 48.05 335.65 50.55 335.65 56.15 323 56.15 321.4M70.45 321.35L68.55 321.35 60.65 335.65 62.55 335.65 70.45 321.35M29 178.2Q29 176.05 28.2 174.9 27.35 173.7 25.85 173.7 22.7 173.7 22.7 178.2 22.7 180.35 23.55 181.5 24.35 182.7 25.85 182.7 27.4 182.7 28.2 181.55 29 180.45 29 178.2M25.85 175.3Q27.1 175.3 27.1 178.2 27.1 181.1 25.85 181.1 25.2 181.1 24.9 180.35 24.6 179.65 24.6 178.2 24.6 176.75 24.9 176.05 25.2 175.3 25.85 175.3M38.3 183.9Q38.3 181.75 37.5 180.6 36.65 179.45 35.15 179.45 32 179.45 32 183.9 32 186.1 32.85 187.25 33.65 188.4 35.15 188.4 36.7 188.4 37.5 187.25 38.3 186.15 38.3 183.9M34.2 181.75Q34.5 181.05 35.15 181.05 36.4 181.05 36.4 183.9 36.4 186.8 35.15 186.8 34.5 186.8 34.2 186.1 33.9 185.35 33.9 183.9 33.9 182.45 34.2 181.75M35.4 173.9L33.5 173.9 25.6 188.2 27.5 188.2 35.4 173.9M6.7 173.9L4.8 173.9 .6 177.2 1.75 178.7 3.95 176.9 4.5 176.35 4.4 188.2 6.7 188.2 6.7 173.9M18.25 177.75Q18.25 178.45 18 179.1 17.75 179.7 17.25 180.4 16.7 181.1 15.05 182.75L11.4 186.45 11.4 188.2 21.05 188.2 21.05 186.2 14.3 186.2 14.3 186.1 16.75 183.7Q18.45 182.1 19.15 181.2 19.85 180.25 20.2 179.4 20.55 178.5 20.55 177.55 20.55 175.8 19.35 174.75 18.15 173.7 16.15 173.7 14.9 173.7 13.75 174.15 12.65 174.55 11.45 175.55L12.7 177.1Q13.7 176.3 14.45 176 15.25 175.7 16.05 175.7 17.1 175.7 17.65 176.25 18.25 176.8 18.25 177.75M117.75 80.9Q117.75 83.1 118.6 84.25 119.4 85.4 120.9 85.4 122.45 85.4 123.25 84.25 124.05 83.15 124.05 80.9 124.05 78.75 123.25 77.6 122.4 76.45 120.9 76.45 117.75 76.45 117.75 80.9M119.95 78.75Q120.25 78.05 120.9 78.05 122.15 78.05 122.15 80.9 122.15 83.8 120.9 83.8 120.25 83.8 119.95 83.1 119.65 82.35 119.65 80.9 119.65 79.45 119.95 78.75M89.7 73.9L90.25 73.35 90.15 85.2 92.45 85.2 92.45 70.9 90.55 70.9 86.35 74.2 87.5 75.7 89.7 73.9M113.95 71.9Q113.1 70.7 111.6 70.7 108.45 70.7 108.45 75.2 108.45 77.35 109.3 78.5 110.1 79.7 111.6 79.7 113.15 79.7 113.95 78.55 114.75 77.45 114.75 75.2 114.75 73.05 113.95 71.9M110.65 73.05Q110.95 72.3 111.6 72.3 112.85 72.3 112.85 75.2 112.85 78.1 111.6 78.1 110.95 78.1 110.65 77.35 110.35 76.65 110.35 75.2 110.35 73.75 110.65 73.05M121.15 70.9L119.25 70.9 111.35 85.2 113.25 85.2 121.15 70.9M105.4 70.9L103.15 70.9 96.65 80.3 96.65 82.1 103.15 82.1 103.15 85.2 105.4 85.2 105.4 82.1 107.3 82.1 107.3 80.2 105.4 80.2 105.4 70.9M103.15 73.45L103.25 73.45Q103.15 74.7 103.15 76.6L103.15 80.2 98.75 80.2 102.3 75Q102.9 74.1 103.15 73.45Z"/><path fill="#404041" stroke="none" d="M155.55 2.6Q154.75 1.4 153.3 .7 151.9 0 150 0 148.6 0 147.45 .3 146.3 .6 145.3 1.1 144.35 1.6 142.85 2.9L145.15 5.6Q146.35 4.6 147.45 4.1 148.55 3.55 149.7 3.55 150.8 3.55 151.5 4.15 152.15 4.75 152.15 5.95 152.15 6.75 151.85 7.5 151.55 8.25 150.85 9.15 150.15 10 147.95 12.3L142.9 17.35 142.9 20.3 156.9 20.3 156.9 16.75 148.2 16.75 148.2 16.55 150.75 14.15Q153.35 11.8 154.35 10.5 155.35 9.25 155.85 8.05 156.35 6.8 156.35 5.45 156.35 3.85 155.55 2.6M171 2.6Q169.25 0 165.8 0 162.25 0 160.5 2.5 158.8 5 158.8 10.3 158.8 15.4 160.6 18 162.35 20.55 165.8 20.55 169.35 20.55 171.1 18.05 172.8 15.55 172.8 10.3 172.8 5.25 171 2.6M167.9 5.05Q168.55 6.65 168.55 10.3 168.55 13.95 167.9 15.55 167.25 17.15 165.8 17.15 164.3 17.15 163.65 15.6 163 14 163 10.3 163 6.65 163.65 5.05 164.3 3.4 165.8 3.4 167.25 3.4 167.9 5.05M183.85 7.5Q183.55 8.25 182.85 9.15 182.15 10 179.95 12.3L174.9 17.35 174.9 20.3 188.9 20.3 188.9 16.75 180.2 16.75 180.2 16.55 182.75 14.15Q185.35 11.8 186.35 10.5 187.35 9.25 187.85 8.05 188.35 6.8 188.35 5.45 188.35 3.85 187.55 2.6 186.75 1.4 185.3 .7 183.9 0 182 0 180.6 0 179.45 .3 178.3 .6 177.3 1.1 176.35 1.6 174.85 2.9L177.15 5.6Q178.35 4.6 179.45 4.1 180.55 3.55 181.7 3.55 182.8 3.55 183.5 4.15 184.15 4.75 184.15 5.95 184.15 6.75 183.85 7.5M203.1 18.05Q204.8 15.55 204.8 10.3 204.8 5.25 203 2.6 201.25 0 197.8 0 194.25 0 192.5 2.5 190.8 5 190.8 10.3 190.8 15.4 192.6 18 194.35 20.55 197.8 20.55 201.35 20.55 203.1 18.05M199.9 5.05Q200.55 6.65 200.55 10.3 200.55 13.95 199.9 15.55 199.25 17.15 197.8 17.15 196.3 17.15 195.65 15.6 195 14 195 10.3 195 6.65 195.65 5.05 196.3 3.4 197.8 3.4 199.25 3.4 199.9 5.05Z"/><path fill="#FFCB05" stroke="none" d="M47.45 241.75L47.45 241.7 47.4 241.7Q46.741 237.927 46.25 234.15 48.863 259.033 60.2 280.25 58.009 275.953 56.15 271.45L47.65 243.05Q47.564 242.404 47.45 241.75M112.1 216.35L112.1 217.35Q112.121 216.445 112.15 215.5 112.124 215.950 112.1 216.35M47.3 195.3Q48.396 189.636 49.9 184 53.725 169.75 60.25 156.85 50.652 174.782 47.3 195.3M78 131.1Q77.274 131.951 76.55 132.8L76.55 132.8 76.6 132.8Q77.311 131.955 78 131.1M121.9 97.95Q122.145 97.818 122.4 97.7 122.776 97.523 123.15 97.35L142.4 90.15Q145.688 89.184 149 88.4 124.047 93.721 103.05 108.6 105.301 107.122 107.6 105.7L121.9 97.95M178.75 151.95Q206.35 151.95 225.9 171.45 245.4 191.05 245.4 218.6 245.4 246.2 225.9 265.7 206.35 285.25 178.75 285.25 172.771 285.25 167.15 284.3L155.65 349.95Q155.409 349.907 155.15 349.85L142.95 347.15Q139.354 346.232 135.85 345.1 155.915 352 178.8 352 234 352 273.1 312.9 312.2 273.8 312.2 218.6 312.2 163.35 273.1 124.25 234.05 85.2 178.8 85.2L178.75 151.95Z"/><path fill="#39BB9D" stroke="none" d="M115.65 240.3Q115.128 238.702 114.65 237.05L113.4 231.8Q113.271 231.151 113.15 230.45 113.128 230.311 113.1 230.15L47.45 241.75Q47.564 242.404 47.65 243.05L56.15 271.45Q58.009 275.953 60.2 280.25L60.65 280.85Q69.856 298.281 84.45 312.9 84.711 313.161 84.95 313.4 85.098 313.546 85.2 313.65 107.117 335.237 135.25 344.75L135.85 345.1Q139.354 346.232 142.95 347.15L155.15 349.85Q155.409 349.907 155.65 349.95L167.15 284.3 167.2 284.2Q166.970 284.158 166.75 284.1 166.563 284.090 166.35 284.05L152.25 279.8Q149.828 278.726 147.45 277.45L131.65 265.7 115.65 240.3Z"/><path fill="#76CED9" stroke="none" d="M76.55 132.8L76.35 133.1Q67.597 143.594 61.25 155.4L60.25 156.85Q53.725 169.75 49.9 184 48.396 189.636 47.3 195.3L45.85 206.65 45.4 222Q45.413 222.321 45.4 222.65L45.6 226.65 46.25 234.15Q46.741 237.927 47.4 241.7L47.45 241.7 47.45 241.75 113.1 230.15 112.65 227.4Q112.475 225.866 112.35 224.3 112.321 224.036 112.3 223.75L112.15 221.5Q112.1 220.056 112.1 218.6L112.1 217.35 112.1 216.35Q112.124 215.950 112.15 215.5L112.2 214.65 112.2 214.2Q112.255 213.640 112.3 213.1L112.6 210Q113.187 205.644 114.35 201.3 116.102 194.752 119.05 188.8L124.35 180Q125.939 177.842 127.7 175.75L127.65 175.7 76.6 132.8 76.55 132.8 76.55 132.8Z"/><path fill="#44ADE2" stroke="none" d="M178.4 85.2Q178.266 85.200 178.1 85.2L177.55 85.2Q177.423 85.200 177.3 85.2 177.167 85.201 177 85.2 163.199 85.380 150 88.25L149 88.4Q145.688 89.184 142.4 90.15L123.15 97.35Q122.776 97.523 122.4 97.7 122.145 97.818 121.9 97.95L107.6 105.7Q105.301 107.122 103.05 108.6L102.25 109.3Q93.677 115.294 86.1 122.6 85.980 122.747 85.85 122.85 85.147 123.552 84.45 124.25 84.308 124.391 84.15 124.5L82.85 125.85Q80.493 128.309 78.2 130.9L78 131.1Q77.311 131.955 76.6 132.8L127.65 175.7 127.7 175.75Q127.788 175.644 127.85 175.55 128.298 175.041 128.7 174.55 128.864 174.400 129 174.25L129.45 173.75 131.35 171.75Q131.504 171.595 131.65 171.45 131.859 171.240 132.05 171L135.6 167.75 141.9 163Q143.640 161.875 145.45 160.8L150.25 158.3Q150.441 158.224 150.6 158.15 151.013 157.957 151.4 157.75L162.3 153.95Q163.266 153.718 164.25 153.5L177.85 151.95Q178.004 151.950 178.1 151.95L178.4 151.95Q178.589 151.95 178.75 151.95L178.8 85.2 178.4 85.2Z"/><path id="Layer1_0_1_STROKES" stroke="#FFF" stroke-width="1" stroke-linejoin="round" stroke-linecap="round" fill="none" d="M178.425 85.2Q178.266 85.200 178.1 85.2L177.55 85.2Q177.423 85.200 177.3 85.2 177.167 85.201 177.025 85.2M150.025 88.275L149 88.4M103.075 108.625L102.275 109.3M85.85 122.875Q85.147 123.552 84.45 124.25 84.308 124.391 84.175 124.525M78.225 130.9L78.025 131.125M129.45 173.75L131.35 171.75Q131.504 171.595 131.65 171.45 131.859 171.240 132.05 171.025L135.6 167.775M177.875 151.95Q178.004 151.950 178.125 151.95M178.425 151.95Q178.589 151.95 178.75 151.95 206.35 151.95 225.9 171.45 245.4 191.05 245.4 218.6 245.4 246.2 225.9 265.7 206.35 285.25 178.75 285.25 172.771 285.25 167.175 284.325M135.85 345.125Q155.915 352 178.8 352 234 352 273.1 312.9 312.2 273.8 312.2 218.6 312.2 163.35 273.1 124.25 234.05 85.2 178.8 85.2M78.025 131.125Q77.274 131.951 76.55 132.8L76.35 133.1M61.25 155.4L60.25 156.875M47.325 195.3L45.875 206.65M45.6 226.65L46.25 234.175M112.35 224.325Q112.321 224.036 112.3 223.75L112.15 221.5Q112.1 220.056 112.1 218.6L112.1 217.375M112.15 215.525L112.2 214.675M112.3 213.1L112.625 210.025M60.25 156.875Q50.652 174.782 47.325 195.3M149 88.4Q124.047 93.721 103.075 108.625M112.1 217.375Q112.121 216.445 112.15 215.525M60.225 280.275L60.675 280.875M84.45 312.9Q84.711 313.161 84.975 313.425 85.098 313.546 85.225 313.675M135.275 344.775L135.85 345.125M46.25 234.175Q48.863 259.033 60.225 280.275"/></g><animate attributeName="display" fill="freeze" repeatCount="1" dur="2.083s" keyTimes="0;.2;1" values="none;inline;inline"/></g></g></svg>