<?xml version="1.0" encoding="utf-8"?><svg id="sec1.3" image-rendering="auto" baseProfile="basic" version="1.1" x="0px" y="0px" width="1180" height="560" xmlns="http://www.w3.org/2000/svg" xmlns:xlink="http://www.w3.org/1999/xlink"><g id="Scene-1-copy-copyr1" overflow="visible"><g display="none"><g id="LHS_1.3" transform="translate(98.65 71.6)"><animateTransform attributeName="transform" additive="replace" type="translate" dur="2.292s" keyTimes="0;.182;.309;1" values="98.65,71.6;98.65,71.6;88.65,71.6;88.65,71.6" keySplines=".25 .5 .5 1;.25 .5 .5 1;.1 .1 .9 .9" calcMode="spline" fill="freeze"/><path fill="#404041" stroke="none" d="M68.7 280.95L65.8 280.95 65.8 293.55 75.05 293.55 75.05 291.2 68.7 291.2 68.7 280.95M89.6 283.9Q88.7 282.4 87.15 281.6 85.6 280.75 83.6 280.75 81.6 280.75 80.05 281.6 78.5 282.4 77.6 283.9 76.7 285.35 76.7 287.25 76.7 289.15 77.6 290.6 78.5 292.05 80.05 292.9 81.6 293.75 83.6 293.75 85.6 293.75 87.15 292.9 88.7 292.05 89.6 290.6 90.5 289.15 90.5 287.25 90.5 285.35 89.6 283.9M83.6 283.2Q84.75 283.2 85.6 283.7 86.5 284.25 87 285.15 87.55 286.05 87.55 287.25 87.55 288.45 87 289.35 86.5 290.25 85.6 290.75 84.75 291.25 83.6 291.3 82.45 291.25 81.55 290.75 80.7 290.25 80.15 289.35 79.65 288.45 79.65 287.25 79.65 286.05 80.15 285.15 80.7 284.25 81.55 283.7 82.45 283.2 83.6 283.2M95.45 280.95L92.45 280.95 96.6 293.55 99.7 293.55 102.55 285 105.35 293.55 108.45 293.55 112.6 280.95 109.8 280.95 106.85 289.9 104 280.95 101.3 280.95 98.3 289.8 95.45 280.95M109.25 196.7Q109.25 194.75 108.4 193.35 107.5 191.95 105.95 191.2 104.4 190.4 102.3 190.4L96.6 190.4 96.6 203 102.3 203Q104.4 203 105.95 202.2 107.5 201.45 108.4 200.05 109.25 198.6 109.25 196.7M102.2 192.8Q103.45 192.8 104.35 193.25 105.3 193.75 105.8 194.6 106.3 195.5 106.3 196.7 106.3 197.9 105.8 198.8 105.3 199.65 104.35 200.15 103.45 200.6 102.2 200.6L99.5 200.6 99.5 192.8 102.2 192.8M92.75 190.4L89.85 190.4 89.85 203 92.75 203 92.75 190.4M94.5 101.85Q93.6 100.8 92.25 100.25 90.9 99.7 89.25 99.7 87.2 99.7 85.65 100.5 84.1 101.35 83.2 102.8 82.3 104.3 82.3 106.2 82.3 108.1 83.2 109.6 84.1 111.05 85.65 111.9 87.2 112.7 89.2 112.7 90.55 112.7 91.9 112.3 93.2 111.9 94.25 111.1L94.25 106 91.6 106 91.6 109.7Q91.05 110 90.5 110.1 89.95 110.25 89.35 110.25 88.15 110.2 87.2 109.7 86.3 109.2 85.75 108.3 85.25 107.4 85.25 106.2 85.25 105 85.8 104.1 86.3 103.2 87.25 102.65 88.15 102.15 89.4 102.15 90.35 102.15 91.15 102.5 91.95 102.85 92.65 103.6L94.5 101.85M109.4 99.9L106.5 99.9 106.5 104.85 100.75 104.85 100.75 99.9 97.85 99.9 97.85 112.5 100.75 112.5 100.75 107.35 106.5 107.35 106.5 112.5 109.4 112.5 109.4 99.9M74.2 190.4L71.8 190.4 71.8 203 74.55 203 74.55 195.6 78.2 201.65 79.55 201.65 83.25 195.45 83.25 203 86 203 85.95 190.4 83.55 190.4 78.9 198.25 74.2 190.4M69.6 99.9L69.6 104.85 63.85 104.85 63.85 99.9 60.95 99.9 60.95 112.5 63.85 112.5 63.85 107.35 69.6 107.35 69.6 112.5 72.5 112.5 72.5 99.9 69.6 99.9M79.25 99.9L76.35 99.9 76.35 112.5 79.25 112.5 79.25 99.9M12.7 9.35L8.8 18.35 5 9.35 1.85 9.35 7.25 21.95 10.15 21.95 15.6 9.35 12.7 9.35M20.7 11.7L27.3 11.7 27.3 9.35 17.8 9.35 17.8 21.95 27.55 21.95 27.55 19.6 20.7 19.6 20.7 16.7 26.55 16.7 26.55 14.45 20.7 14.45 20.7 11.7M40.95 16.35Q41.6 15.35 41.6 13.9 41.6 12.5 40.95 11.45 40.3 10.45 39.05 9.9 37.85 9.35 36.15 9.35L30.7 9.35 30.7 21.95 33.6 21.95 33.6 18.45 36.3 18.45 38.7 21.95 41.85 21.95 39.05 17.9Q40.25 17.35 40.95 16.35M33.6 11.7L36 11.7Q37.3 11.75 38 12.3 38.65 12.85 38.65 13.9 38.65 14.95 38 15.55 37.3 16.1 36 16.1L33.6 16.1 33.6 11.7M55.75 9.35L52.85 9.35 49.5 14.95 46.15 9.35 43.05 9.35 47.9 17.45 47.9 21.95 50.85 21.95 50.85 17.5 55.75 9.35M75.3 9.35L72.4 9.35 72.4 14.3 66.65 14.3 66.65 9.35 63.75 9.35 63.75 21.95 66.65 21.95 66.65 16.8 72.4 16.8 72.4 21.95 75.3 21.95 75.3 9.35M82.05 21.95L82.05 9.35 79.15 9.35 79.15 21.95 82.05 21.95M95.05 9.7Q93.7 9.15 92.05 9.15 90 9.15 88.45 9.95 86.9 10.8 86 12.25 85.1 13.75 85.1 15.65 85.1 17.55 86 19.05 86.9 20.5 88.45 21.35 90 22.15 92 22.15 93.35 22.15 94.7 21.75 96 21.35 97.05 20.55L97.05 15.45 94.4 15.45 94.4 19.15Q93.85 19.45 93.3 19.55 92.75 19.7 92.15 19.7 90.95 19.65 90 19.15 89.1 18.65 88.55 17.75 88.05 16.85 88.05 15.65 88.05 14.45 88.6 13.55 89.1 12.65 90.05 12.1 90.95 11.6 92.2 11.6 93.15 11.6 93.95 11.95 94.75 12.3 95.45 13.05L97.3 11.3Q96.4 10.25 95.05 9.7M109.3 14.3L103.55 14.3 103.55 9.35 100.65 9.35 100.65 21.95 103.55 21.95 103.55 16.8 109.3 16.8 109.3 21.95 112.2 21.95 112.2 9.35 109.3 9.35 109.3 14.3Z"/></g><animate attributeName="display" fill="freeze" repeatCount="1" dur="2.292s" keyTimes="0;.182;1" values="none;inline;inline"/></g><g display="none"><path id="Layer16_0_1_STROKES" stroke="#9E9E9E" stroke-width="1" stroke-linejoin="round" stroke-linecap="round" fill="none" d="M138.35 403.55L1085.3 403.55"/><path id="Layer17_0_1_STROKES" stroke="#9E9E9E" stroke-width="1" stroke-linejoin="round" stroke-linecap="round" fill="none" d="M214.2 52.65L214.2 454"/><animate attributeName="display" fill="freeze" repeatCount="1" dur="2.292s" keyTimes="0;.182;1" values="none;inline;inline"/></g><g display="none"><g id="arrow_1.3" transform="translate(322.5 75.2)"><path fill="#025AAE" stroke="none" d="M693.8 218.55L692.55 243.1 711.95 231.35 693.8 218.55Z"/><path id="Layer32_0_1_STROKES" stroke="#025AAE" stroke-width="5" stroke-linejoin="miter" stroke-linecap="butt" stroke-miterlimit="10" fill="none" d="M.05 0Q98.55 68.15 179.1 110.3 259.65 152.45 338.5 177.1 412.8 200.35 502.6 213.15 578.35 224 695.8 231.2"/></g><animate attributeName="display" fill="freeze" repeatCount="1" dur="2.292s" keyTimes="0;.182;1" values="none;inline;inline"/><animate attributeName="mask" repeatCount="1" dur="2.292s" keyTimes="0;.182;1" values="none;url(#mask_);url(#mask_)" fill="freeze"/></g><mask id="mask_"><g><g display="none"><g><g id="Layer15_0_FILL"><path fill="#FFF" stroke="none" d="M1053.1 373L1053.1 5.05 188.9 5.05 188.9 373 1053.1 373Z" fill-opacity="1"/></g><path id="Layer15_0_1_STROKES" stroke="#FFF" stroke-width="1" stroke-linejoin="round" stroke-linecap="round" fill="none" d="M188.9 5.05L1053.1 5.05 1053.1 373 188.9 373 188.9 5.05Z" stroke-opacity="1"/></g><animate attributeName="display" fill="freeze" repeatCount="1" dur="2.292s" keyTimes="0;.436;1" values="none;inline;inline"/></g><g display="none"><g><g id="Layer14_0_FILL"><path fill="#FFF" stroke="none" d="M1049.35 373L1049.35 5.05 188.9 5.05 188.9 373 1049.35 373Z" fill-opacity="1"/></g><path id="Layer14_0_1_STROKES" stroke="#FFF" stroke-width="1" stroke-linejoin="round" stroke-linecap="round" fill="none" d="M188.9 5.05L1049.35 5.05 1049.35 373 188.9 373 188.9 5.05Z" stroke-opacity="1"/></g><animate attributeName="display" fill="freeze" repeatCount="1" dur="2.292s" keyTimes="0;.418;.436;1" values="none;inline;none;none"/></g><g display="none"><g><g id="Layer13_0_FILL"><path fill="#FFF" stroke="none" d="M1038.05 373L1038.05 5.05 188.85 5.05 188.85 373 1038.05 373Z" fill-opacity="1"/></g><path id="Layer13_0_1_STROKES" stroke="#FFF" stroke-width="1" stroke-linejoin="round" stroke-linecap="round" fill="none" d="M188.85 5.05L1038.05 5.05 1038.05 373 188.85 373 188.85 5.05Z" stroke-opacity="1"/></g><animate attributeName="display" fill="freeze" repeatCount="1" dur="2.292s" keyTimes="0;.4;.418;1" values="none;inline;none;none"/></g><g display="none"><g><g id="Layer12_0_FILL"><path fill="#FFF" stroke="none" d="M1019.2 373L1019.2 5.05 188.75 5.05 188.75 373 1019.2 373Z" fill-opacity="1"/></g><path id="Layer12_0_1_STROKES" stroke="#FFF" stroke-width="1" stroke-linejoin="round" stroke-linecap="round" fill="none" d="M188.75 5.05L1019.2 5.05 1019.2 373 188.75 373 188.75 5.05Z" stroke-opacity="1"/></g><animate attributeName="display" fill="freeze" repeatCount="1" dur="2.292s" keyTimes="0;.382;.4;1" values="none;inline;none;none"/></g><g display="none"><g><g id="Layer11_0_FILL"><path fill="#FFF" stroke="none" d="M992.85 373L992.85 5.05 188.65 5.05 188.65 373 992.85 373Z" fill-opacity="1"/></g><path id="Layer11_0_1_STROKES" stroke="#FFF" stroke-width="1" stroke-linejoin="round" stroke-linecap="round" fill="none" d="M188.65 5.05L992.85 5.05 992.85 373 188.65 373 188.65 5.05Z" stroke-opacity="1"/></g><animate attributeName="display" fill="freeze" repeatCount="1" dur="2.292s" keyTimes="0;.364;.382;1" values="none;inline;none;none"/></g><g display="none"><g><g id="Layer10_0_FILL"><path fill="#FFF" stroke="none" d="M958.95 373L958.95 5.05 188.55 5.05 188.55 373 958.95 373Z" fill-opacity="1"/></g><path id="Layer10_0_1_STROKES" stroke="#FFF" stroke-width="1" stroke-linejoin="round" stroke-linecap="round" fill="none" d="M188.55 5.05L958.95 5.05 958.95 373 188.55 373 188.55 5.05Z" stroke-opacity="1"/></g><animate attributeName="display" fill="freeze" repeatCount="1" dur="2.292s" keyTimes="0;.345;.364;1" values="none;inline;none;none"/></g><g display="none"><g><g id="Layer9_0_FILL"><path fill="#FFF" stroke="none" d="M917.55 373L917.55 5.05 188.4 5.05 188.4 373 917.55 373Z" fill-opacity="1"/></g><path id="Layer9_0_1_STROKES" stroke="#FFF" stroke-width="1" stroke-linejoin="round" stroke-linecap="round" fill="none" d="M188.4 5.05L917.55 5.05 917.55 373 188.4 373 188.4 5.05Z" stroke-opacity="1"/></g><animate attributeName="display" fill="freeze" repeatCount="1" dur="2.292s" keyTimes="0;.327;.345;1" values="none;inline;none;none"/></g><g display="none"><g><g id="Layer8_0_FILL"><path fill="#FFF" stroke="none" d="M868.55 373L868.55 5.05 188.15 5.05 188.15 373 868.55 373Z" fill-opacity="1"/></g><path id="Layer8_0_1_STROKES" stroke="#FFF" stroke-width="1" stroke-linejoin="round" stroke-linecap="round" fill="none" d="M188.15 5.05L868.55 5.05 868.55 373 188.15 373 188.15 5.05Z" stroke-opacity="1"/></g><animate attributeName="display" fill="freeze" repeatCount="1" dur="2.292s" keyTimes="0;.309;.327;1" values="none;inline;none;none"/></g><g display="none"><g><g id="Layer7_0_FILL"><path fill="#FFF" stroke="none" d="M812.1 373L812.1 5.05 187.95 5.05 187.95 373 812.1 373Z" fill-opacity="1"/></g><path id="Layer7_0_1_STROKES" stroke="#FFF" stroke-width="1" stroke-linejoin="round" stroke-linecap="round" fill="none" d="M187.95 5.05L812.1 5.05 812.1 373 187.95 373 187.95 5.05Z" stroke-opacity="1"/></g><animate attributeName="display" fill="freeze" repeatCount="1" dur="2.292s" keyTimes="0;.291;.309;1" values="none;inline;none;none"/></g><g display="none"><g><g id="Layer6_0_FILL"><path fill="#FFF" stroke="none" d="M748.05 373L748.05 5.05 187.65 5.05 187.65 373 748.05 373Z" fill-opacity="1"/></g><path id="Layer6_0_1_STROKES" stroke="#FFF" stroke-width="1" stroke-linejoin="round" stroke-linecap="round" fill="none" d="M187.65 5.05L748.05 5.05 748.05 373 187.65 373 187.65 5.05Z" stroke-opacity="1"/></g><animate attributeName="display" fill="freeze" repeatCount="1" dur="2.292s" keyTimes="0;.273;.291;1" values="none;inline;none;none"/></g><g display="none"><g><g id="Layer5_0_FILL"><path fill="#FFF" stroke="none" d="M676.55 373L676.55 5.05 187.45 5.05 187.45 373 676.55 373Z" fill-opacity="1"/></g><path id="Layer5_0_1_STROKES" stroke="#FFF" stroke-width="1" stroke-linejoin="round" stroke-linecap="round" fill="none" d="M187.45 5.05L676.55 5.05 676.55 373 187.45 373 187.45 5.05Z" stroke-opacity="1"/></g><animate attributeName="display" fill="freeze" repeatCount="1" dur="2.292s" keyTimes="0;.255;.273;1" values="none;inline;none;none"/></g><g display="none"><g><g id="Layer4_0_FILL"><path fill="#FFF" stroke="none" d="M597.45 373L597.45 5.05 187.15 5.05 187.15 373 597.45 373Z" fill-opacity="1"/></g><path id="Layer4_0_1_STROKES" stroke="#FFF" stroke-width="1" stroke-linejoin="round" stroke-linecap="round" fill="none" d="M187.15 5.05L597.45 5.05 597.45 373 187.15 373 187.15 5.05Z" stroke-opacity="1"/></g><animate attributeName="display" fill="freeze" repeatCount="1" dur="2.292s" keyTimes="0;.236;.255;1" values="none;inline;none;none"/></g><g display="none"><g><g id="Layer3_0_FILL"><path fill="#FFF" stroke="none" d="M510.8 373L510.8 5.05 186.8 5.05 186.8 373 510.8 373Z" fill-opacity="1"/></g><path id="Layer3_0_1_STROKES" stroke="#FFF" stroke-width="1" stroke-linejoin="round" stroke-linecap="round" fill="none" d="M186.8 5.05L510.8 5.05 510.8 373 186.8 373 186.8 5.05Z" stroke-opacity="1"/></g><animate attributeName="display" fill="freeze" repeatCount="1" dur="2.292s" keyTimes="0;.218;.236;1" values="none;inline;none;none"/></g><g display="none"><g><g id="Layer2_0_FILL"><path fill="#FFF" stroke="none" d="M416.7 373L416.7 5.05 186.45 5.05 186.45 373 416.7 373Z" fill-opacity="1"/></g><path id="Layer2_0_1_STROKES" stroke="#FFF" stroke-width="1" stroke-linejoin="round" stroke-linecap="round" fill="none" d="M186.45 5.05L416.7 5.05 416.7 373 186.45 373 186.45 5.05Z" stroke-opacity="1"/></g><animate attributeName="display" fill="freeze" repeatCount="1" dur="2.292s" keyTimes="0;.2;.218;1" values="none;inline;none;none"/></g><g display="none"><g><g id="Layer1_0_FILL"><path fill="#FFF" stroke="none" d="M315 5.05L186.05 5.05 186.05 373 315 373 315 5.05Z" fill-opacity="1"/></g><path id="Layer1_0_1_STROKES" stroke="#FFF" stroke-width="1" stroke-linejoin="round" stroke-linecap="round" fill="none" d="M186.05 5.05L315 5.05 315 373 186.05 373 186.05 5.05Z" stroke-opacity="1"/></g><animate attributeName="display" fill="freeze" repeatCount="1" dur="2.292s" keyTimes="0;.182;.2;1" values="none;inline;none;none"/></g></g></mask><g display="none"><g id="convert_box_1.3" transform="translate(609.7 74.7)"><animateTransform attributeName="transform" additive="replace" type="translate" dur="2.292s" keyTimes="0;.182;.327;1" values="609.7,74.7;609.7,74.7;629.7,74.7;629.7,74.7" keySplines=".25 .5 .5 1;.25 .5 .5 1;.1 .1 .9 .9" calcMode="spline" fill="freeze"/><path fill="#FFF" stroke="none" d="M334.2 130.25L334.2 0 0 0 0 130.25 334.2 130.25Z"/><path id="Layer23_0_1_STROKES" stroke="#9E9E9E" stroke-width="1" stroke-linejoin="miter" stroke-linecap="butt" stroke-miterlimit="10" fill="none" d="M334.2 130.25L0 130.25 0 0 334.2 0 334.2 130.25Z"/><path fill="#FFCB05" stroke="none" d="M98.3 79.2Q98.3 71.65 95.6 64.7 93 57.95 88.2 52.55 82.6 46.7 75.2 43.45 67.55 40.1 59.15 40.1 42.5 40.1 30.75 51.9 18.95 63.65 18.95 80.3 18.95 87.85 21.65 94.8 24.25 101.5 29.05 106.95 34.65 112.85 42 116.05 48.530 118.909 55.65 119.3 56.655 119.387 57.65 119.4 57.881 119.4 58.1 119.4 74.75 119.4 86.55 107.65 98.3 95.85 98.3 79.2M27.55 79.35Q27.55 66.65 36.55 57.65 45.5 48.65 58.25 48.65 70.95 48.65 79.95 57.65 88.95 66.65 88.95 79.35 88.95 92.05 79.95 101.05 70.95 110.05 58.25 110.05 45.5 110.05 36.55 101.05 27.55 92.05 27.55 79.35M183.65 43.05Q176 39.7 167.55 39.7 150.9 39.7 139.15 51.5 127.35 63.25 127.35 79.9 127.35 87.45 130.05 94.4 132.65 101.15 137.45 106.55 143.1 112.4 150.45 115.65 156.981 118.491 164 118.9 165.048 118.987 166.1 119 166.329 119 166.55 119 183.2 119 195 107.2 206.75 95.45 206.75 78.75 206.75 71.25 204.05 64.3 201.45 57.6 196.65 52.15 191.05 46.25 183.65 43.05M188.35 57.2Q197.35 66.2 197.35 78.9 197.35 91.6 188.35 100.6 179.35 109.6 166.65 109.6 153.95 109.6 144.95 100.6 135.95 91.6 135.95 78.9 135.95 66.2 144.95 57.2 153.95 48.2 166.65 48.2 179.35 48.2 188.35 57.2M314.7 77.4Q314.7 69.85 312 62.9 309.4 56.2 304.6 50.75 299 44.9 291.6 41.65 283.95 38.3 275.5 38.3 258.85 38.3 247.1 50.1 235.3 61.85 235.3 78.5 235.3 86.05 238 93 240.6 99.7 245.4 105.15 251.05 111 258.4 114.25 264.931 117.091 271.95 117.5 272.998 117.587 274.05 117.6 274.279 117.6 274.5 117.6 291.15 117.6 302.95 105.85 314.7 94.05 314.7 77.4M243.9 77.55Q243.9 64.8 252.9 55.85 261.9 46.85 274.6 46.85 287.3 46.85 296.3 55.85 305.3 64.8 305.3 77.55 305.3 90.25 296.3 99.25 287.3 108.25 274.6 108.25 261.9 108.25 252.9 99.25 243.9 90.25 243.9 77.55Z"/><path fill="#FFF" stroke="none" d="M36.55 57.65Q27.55 66.65 27.55 79.35 27.55 92.05 36.55 101.05 45.5 110.05 58.25 110.05 70.95 110.05 79.95 101.05 88.95 92.05 88.95 79.35 88.95 66.65 79.95 57.65 70.95 48.65 58.25 48.65 45.5 48.65 36.55 57.65M197.35 78.9Q197.35 66.2 188.35 57.2 179.35 48.2 166.65 48.2 153.95 48.2 144.95 57.2 135.95 66.2 135.95 78.9 135.95 91.6 144.95 100.6 153.95 109.6 166.65 109.6 179.35 109.6 188.35 100.6 197.35 91.6 197.35 78.9M252.9 55.85Q243.9 64.8 243.9 77.55 243.9 90.25 252.9 99.25 261.9 108.25 274.6 108.25 287.3 108.25 296.3 99.25 305.3 90.25 305.3 77.55 305.3 64.8 296.3 55.85 287.3 46.85 274.6 46.85 261.9 46.85 252.9 55.85Z"/><path id="Layer25_0_1_STROKES" stroke="#58595B" stroke-width="1" stroke-linejoin="miter" stroke-linecap="butt" stroke-miterlimit="10" fill="none" d="M124.85 80.2L103.25 80.2"/><path id="Layer26_0_1_STROKES" stroke="#58595B" stroke-width="1" stroke-linejoin="miter" stroke-linecap="butt" stroke-miterlimit="10" fill="none" d="M119.1 75.25L125.05 79.95 119.45 85.15"/><path id="Layer27_0_1_STROKES" stroke="#58595B" stroke-width="1" stroke-linejoin="miter" stroke-linecap="butt" stroke-miterlimit="10" fill="none" d="M231 80.2L209.35 80.2"/><path id="Layer28_0_1_STROKES" stroke="#58595B" stroke-width="1" stroke-linejoin="miter" stroke-linecap="butt" stroke-miterlimit="10" fill="none" d="M225.2 75.25L231.15 79.95 225.6 85.15"/><path fill="#404041" stroke="none" d="M26.65 13.45Q25.35 14.75 25.35 16.95 25.35 19.1 26.6 20.4 27.9 21.8 30.05 21.8 32 21.8 33.2 20.6 34.3 19.45 34.3 17.95L31.5 17.95Q31.2 19.5 30 19.5 29.05 19.5 28.6 18.7 28.25 18.05 28.25 16.95 28.25 15.9 28.6 15.2 29.05 14.4 30 14.4 31.3 14.4 31.5 15.8L34.3 15.8Q34.1 14 33.05 13.05 31.95 12.1 30.05 12.1 27.95 12.1 26.65 13.45M60.45 14.85L57.85 14.85 56.75 18.95 55.7 14.85 52.95 14.85 55.2 21.6 58.2 21.6 60.45 14.85M43.15 18.2Q43.15 16.7 42.25 15.75 41.25 14.7 39.45 14.7 37.65 14.7 36.65 15.75 35.75 16.7 35.75 18.2 35.75 19.75 36.65 20.7 37.65 21.75 39.45 21.75 41.25 21.75 42.25 20.7 43.15 19.75 43.15 18.2M38.35 18.2Q38.35 16.55 39.45 16.55 40.55 16.55 40.55 18.2 40.55 19.9 39.45 19.9 38.35 19.9 38.35 18.2M47.3 15.7L47.3 14.85 44.8 14.85 44.8 21.6 47.4 21.6 47.4 18.05Q47.4 16.75 48.4 16.75 48.9 16.75 49.1 17.1 49.25 17.4 49.25 18.05L49.25 21.6 51.8 21.6 51.8 16.95Q51.8 15.85 51.1 15.25 50.5 14.7 49.5 14.7 48.05 14.7 47.3 15.7M70.35 14.85L70.35 21.6 72.95 21.6 72.95 18.95Q72.95 16.9 74.5 16.9 75 16.9 75.5 17.05L75.5 14.8Q75.1 14.7 74.75 14.7 73.5 14.7 72.85 15.95L72.8 15.95 72.8 14.85 70.35 14.85M64.9 14.7Q63.3 14.7 62.3 15.75 61.3 16.75 61.3 18.25 61.3 19.9 62.4 20.85 63.45 21.75 65.1 21.75 66.3 21.75 67.2 21.25 68.2 20.7 68.55 19.65L66.15 19.65Q65.85 20.1 65.1 20.1 63.9 20.1 63.8 18.8L68.7 18.8Q68.7 14.7 64.9 14.7M65.95 16.65Q66.25 17 66.25 17.45L63.8 17.45Q63.95 16.35 65.1 16.35 65.6 16.35 65.95 16.65M98.6 14.85L98.6 12.8 96.05 12.8 96.05 14.85 94.9 14.85 94.9 16.45 96.05 16.45 96.05 19.65Q96.05 20.9 96.75 21.35 97.25 21.7 98.3 21.7 98.85 21.7 99.95 21.6L99.95 19.65 99.4 19.7Q98.9 19.7 98.75 19.45 98.6 19.3 98.6 18.8L98.6 16.45 99.95 16.45 99.95 14.85 98.6 14.85M81.15 16.45L81.15 14.85 79.8 14.85 79.8 12.8 77.25 12.8 77.25 14.85 76.1 14.85 76.1 16.45 77.25 16.45 77.25 19.65Q77.25 20.9 77.95 21.35 78.45 21.7 79.5 21.7 80.05 21.7 81.15 21.6L81.15 19.65 80.6 19.7Q80.1 19.7 79.95 19.45 79.8 19.3 79.8 18.8L79.8 16.45 81.15 16.45M90.4 14.7Q89.15 14.7 88.3 15.1 87.25 15.7 87.25 16.85 87.25 17.7 87.85 18.2 88.5 18.7 90 18.95 90.9 19.1 91.15 19.25 91.4 19.35 91.4 19.65 91.4 19.9 91.1 20.05 90.85 20.2 90.55 20.2 90.05 20.2 89.85 20 89.55 19.75 89.55 19.4L87.05 19.4Q87.1 20.6 88.2 21.25 89.1 21.75 90.45 21.75 91.9 21.75 92.75 21.3 93.85 20.65 93.85 19.4 93.85 18 92.25 17.5 91.8 17.35 90.95 17.2 90.2 17.05 90 17 89.7 16.85 89.7 16.65 89.7 16.1 90.5 16.1 90.8 16.1 91.05 16.3 91.35 16.5 91.35 16.8L93.7 16.8Q93.65 15.65 92.6 15.1 91.75 14.7 90.4 14.7M108.45 18.2Q108.45 16.7 107.55 15.75 106.55 14.7 104.75 14.7 102.95 14.7 101.95 15.75 101.05 16.7 101.05 18.2 101.05 19.75 101.95 20.7 102.95 21.75 104.75 21.75 106.55 21.75 107.55 20.7 108.45 19.75 108.45 18.2M104.75 16.55Q105.85 16.55 105.85 18.2 105.85 19.9 104.75 19.9 103.65 19.9 103.65 18.2 103.65 16.55 104.75 16.55M110.9 15.65Q109.8 16.65 109.8 18.25 109.8 19.8 110.9 20.8 111.9 21.75 113.45 21.75 114.85 21.75 115.8 21.05 116.8 20.25 117 18.9L114.5 18.9Q114.5 19.3 114.2 19.6 113.95 19.9 113.5 19.9 112.4 19.9 112.4 18.25 112.4 16.55 113.5 16.55 113.95 16.55 114.15 16.8 114.4 17 114.45 17.4L116.9 17.4Q116.8 16.1 115.8 15.35 114.85 14.7 113.45 14.7 111.9 14.7 110.9 15.65M123.35 17.4L125.8 14.85 122.85 14.85 121.25 16.8 121.25 12.3 118.65 12.3 118.65 21.6 121.25 21.6 121.25 19.65 121.7 19.15 123.05 21.6 126.15 21.6 123.35 17.4M126.9 16.85Q126.9 17.7 127.5 18.2 128.15 18.7 129.65 18.95 130.55 19.1 130.8 19.25 131.05 19.35 131.05 19.65 131.05 19.9 130.75 20.05 130.5 20.2 130.2 20.2 129.7 20.2 129.5 20 129.2 19.75 129.2 19.4L126.7 19.4Q126.75 20.6 127.85 21.25 128.75 21.75 130.1 21.75 131.55 21.75 132.4 21.3 133.5 20.65 133.5 19.4 133.5 18 131.9 17.5 131.45 17.35 130.6 17.2 129.85 17.05 129.65 17 129.35 16.85 129.35 16.65 129.35 16.1 130.15 16.1 130.45 16.1 130.7 16.3 131 16.5 131 16.8L133.35 16.8Q133.3 15.65 132.25 15.1 131.4 14.7 130.05 14.7 128.8 14.7 127.95 15.1 126.9 15.7 126.9 16.85M143.15 14.85L143.15 12.8 140.6 12.8 140.6 14.85 139.45 14.85 139.45 16.45 140.6 16.45 140.6 19.65Q140.6 20.9 141.3 21.35 141.8 21.7 142.85 21.7 143.4 21.7 144.5 21.6L144.5 19.65 143.95 19.7Q143.45 19.7 143.3 19.45 143.15 19.3 143.15 18.8L143.15 16.45 144.5 16.45 144.5 14.85 143.15 14.85M146.5 15.75Q145.6 16.7 145.6 18.2 145.6 19.75 146.5 20.7 147.5 21.75 149.3 21.75 151.1 21.75 152.1 20.7 153 19.75 153 18.2 153 16.7 152.1 15.75 151.1 14.7 149.3 14.7 147.5 14.7 146.5 15.75M148.2 18.2Q148.2 16.55 149.3 16.55 150.4 16.55 150.4 18.2 150.4 19.9 149.3 19.9 148.2 19.9 148.2 18.2M179.75 18.2Q179.75 16.7 178.85 15.75 177.85 14.7 176.05 14.7 174.25 14.7 173.25 15.75 172.35 16.7 172.35 18.2 172.35 19.75 173.25 20.7 174.25 21.75 176.05 21.75 177.85 21.75 178.85 20.7 179.75 19.75 179.75 18.2M176.05 16.55Q177.15 16.55 177.15 18.2 177.15 19.9 176.05 19.9 174.95 19.9 174.95 18.2 174.95 16.55 176.05 16.55M167.25 16.75Q167.8 16.75 168 17.1 168.1 17.35 168.1 17.95L168.1 21.6 170.7 21.6 170.7 16.95Q170.7 16.05 170.2 15.4 169.55 14.7 168.4 14.7 167.35 14.7 166.65 15.2L166.25 15.55 166.1 15.75Q165.85 15.25 165.3 14.95 164.85 14.7 164.25 14.7 162.75 14.7 162.05 15.75L162 15.75 162 14.85 159.55 14.85 159.55 21.6 162.1 21.6 162.1 17.95Q162.1 16.75 163 16.75 163.5 16.75 163.7 17.1 163.85 17.35 163.85 17.95L163.85 21.6 166.4 21.6 166.4 17.95Q166.4 16.75 167.25 16.75M188.4 16.95Q188.4 15.85 187.7 15.25 187.1 14.7 186.1 14.7 184.65 14.7 183.9 15.7L183.9 14.85 181.4 14.85 181.4 21.6 184 21.6 184 18.05Q184 16.75 185 16.75 185.5 16.75 185.7 17.1 185.85 17.4 185.85 18.05L185.85 21.6 188.4 21.6 188.4 16.95M191.1 15.75Q190.1 16.75 190.1 18.25 190.1 19.9 191.2 20.85 192.25 21.75 193.9 21.75 195.1 21.75 196 21.25 197 20.7 197.35 19.65L194.95 19.65Q194.65 20.1 193.9 20.1 192.7 20.1 192.6 18.8L197.5 18.8Q197.5 14.7 193.7 14.7 192.1 14.7 191.1 15.75M195.05 17.45L192.6 17.45Q192.75 16.35 193.9 16.35 194.4 16.35 194.75 16.65 195.05 17 195.05 17.45M214.5 12.3L211.9 12.3 211.9 14.1 214.5 14.1 214.5 12.3M211.9 14.85L211.9 21.6 214.5 21.6 214.5 14.85 211.9 14.85M203.65 21.1L205.85 14.85 203.2 14.85 202.1 18.7 201 14.85 198.25 14.85 200 19.6Q200.55 20.95 200.55 21.15 200.55 21.55 200.3 21.65 200.15 21.75 199.5 21.75L198.9 21.75 198.9 23.8 200.1 23.8Q201.1 23.8 201.55 23.7 202.35 23.5 202.8 22.95 203.15 22.5 203.65 21.1M233.05 12.3L230.45 12.3 230.45 14.1 233.05 14.1 233.05 12.3M242.05 14.85L239.5 14.85 239.5 18.4Q239.5 19.7 238.45 19.7 237.95 19.7 237.75 19.35 237.65 19.05 237.65 18.4L237.65 14.85 235.05 14.85 235.05 19.5Q235.05 20.6 235.75 21.2 236.4 21.75 237.35 21.75 238.85 21.75 239.55 20.75L239.6 20.75 239.6 21.6 242.05 21.6 242.05 14.85M230.5 23.8Q231.95 23.75 232.45 23.35 232.8 23 232.95 22.45 233.05 22.05 233.05 21.15L233.05 14.85 230.45 14.85 230.45 20.9Q230.45 21.4 230.3 21.55 230.15 21.75 229.75 21.75L229.3 21.75 229.3 23.8 230.5 23.8M223.5 16.95Q223.5 15.85 222.8 15.25 222.2 14.7 221.2 14.7 219.75 14.7 219 15.7L219 14.85 216.5 14.85 216.5 21.6 219.1 21.6 219.1 18.05Q219.1 16.75 220.1 16.75 220.6 16.75 220.8 17.1 220.95 17.4 220.95 18.05L220.95 21.6 223.5 21.6 223.5 16.95M252.65 12.8L252.65 14.85 251.5 14.85 251.5 16.45 252.65 16.45 252.65 19.65Q252.65 20.9 253.35 21.35 253.85 21.7 254.9 21.7 255.45 21.7 256.55 21.6L256.55 19.65 256 19.7Q255.5 19.7 255.35 19.45 255.2 19.3 255.2 18.8L255.2 16.45 256.55 16.45 256.55 14.85 255.2 14.85 255.2 12.8 252.65 12.8M250.3 16.8Q250.25 15.65 249.2 15.1 248.35 14.7 247 14.7 245.75 14.7 244.9 15.1 243.85 15.7 243.85 16.85 243.85 17.7 244.45 18.2 245.1 18.7 246.6 18.95 247.5 19.1 247.75 19.25 248 19.35 248 19.65 248 19.9 247.7 20.05 247.45 20.2 247.15 20.2 246.65 20.2 246.45 20 246.15 19.75 246.15 19.4L243.65 19.4Q243.7 20.6 244.8 21.25 245.7 21.75 247.05 21.75 248.5 21.75 249.35 21.3 250.45 20.65 250.45 19.4 250.45 18 248.85 17.5 248.4 17.35 247.55 17.2 246.8 17.05 246.6 17 246.3 16.85 246.3 16.65 246.3 16.1 247.1 16.1 247.4 16.1 247.65 16.3 247.95 16.5 247.95 16.8L250.3 16.8M280.6 17.4L283.05 17.4Q282.95 16.1 281.95 15.35 281 14.7 279.6 14.7 278.05 14.7 277.05 15.65 275.95 16.65 275.95 18.25 275.95 19.8 277.05 20.8 278.05 21.75 279.6 21.75 281 21.75 281.95 21.05 282.95 20.25 283.15 18.9L280.65 18.9Q280.65 19.3 280.35 19.6 280.1 19.9 279.65 19.9 278.55 19.9 278.55 18.25 278.55 16.55 279.65 16.55 280.1 16.55 280.3 16.8 280.55 17 280.6 17.4M269.45 17.3Q269.45 16 269.05 15.5 268.4 14.7 266.25 14.7 264.75 14.7 263.95 15.05 262.8 15.6 262.75 16.9L265.15 16.9Q265.2 16.2 266.1 16.2 266.95 16.2 266.95 16.85 266.95 17.3 266.25 17.45 264.65 17.6 263.85 17.85 262.45 18.35 262.45 19.75 262.45 20.75 263.15 21.3 263.8 21.75 264.85 21.75 266.3 21.75 267 20.95L267.05 20.95Q267 21.3 267.1 21.6L269.75 21.6Q269.45 21.15 269.45 20.1L269.45 17.3M266.95 19.2Q266.9 20.25 265.9 20.25 265.55 20.25 265.3 20.05 265.1 19.85 265.1 19.65 265.1 19.3 265.3 19.15 265.5 19 265.95 18.9 266.6 18.75 266.95 18.55L266.95 19.2M300.85 17.4Q300.75 16.1 299.75 15.35 298.8 14.7 297.4 14.7 295.85 14.7 294.85 15.65 293.75 16.65 293.75 18.25 293.75 19.8 294.85 20.8 295.85 21.75 297.4 21.75 298.8 21.75 299.75 21.05 300.75 20.25 300.95 18.9L298.45 18.9Q298.45 19.3 298.15 19.6 297.9 19.9 297.45 19.9 296.35 19.9 296.35 18.25 296.35 16.55 297.45 16.55 297.9 16.55 298.1 16.8 298.35 17 298.4 17.4L300.85 17.4M289.45 14.85L289.45 21.6 292.05 21.6 292.05 14.85 289.45 14.85M292.05 12.3L289.45 12.3 289.45 14.1 292.05 14.1 292.05 12.3M287.4 12.3L284.8 12.3 284.8 21.6 287.4 21.6 287.4 12.3M311.05 21.6L313.75 21.6 313.75 19.05 311.05 19.05 311.05 21.6M306.8 14.85L305.2 16.8 305.2 12.3 302.6 12.3 302.6 21.6 305.2 21.6 305.2 19.65 305.65 19.15 307 21.6 310.1 21.6 307.3 17.4 309.75 14.85 306.8 14.85M313.75 12.3L311.05 12.3 311.05 14.5 311.75 18.25 313.05 18.25 313.75 14.5 313.75 12.3Z"/><path fill="#FFF" stroke="none" d="M69.15 77.75L69.15 78.2 70.75 78.2 70.75 77.75 69.15 77.75M51.2 85.65L47.95 85.65 47.95 88.2 69.15 88.2 69.15 85.65 65.85 85.65 51.2 85.65M47.95 80.9L47.95 83 51.2 83 65.85 83 69.15 83 69.15 80.9 65.85 80.9 51.2 80.9 47.95 80.9M47.95 83.3L47.95 85.35 51.2 85.35 65.85 85.35 69.15 85.35 69.15 83.3 65.85 83.3 51.2 83.3 47.95 83.3M47.95 77.75L47.95 78.2 47.95 80.6 51.2 80.6 65.85 80.6 69.15 80.6 69.15 78.2 69.15 77.75 69.15 70.7 47.95 70.7 47.95 77.75M61.75 73.3Q62.4 73.4 62.45 73.95 62.35 74.55 61.75 74.65 61.15 74.55 61.15 73.95 61.15 73.4 61.75 73.3M68.3 73.3Q68.95 73.35 69 73.95 68.9 74.6 68.3 74.65 67.8 74.6 67.7 73.95 67.75 73.4 68.3 73.3M48.2 73.95Q48.25 73.4 48.8 73.3 49.45 73.4 49.5 73.95 49.4 74.55 48.8 74.65 48.3 74.6 48.2 73.95M55.25 73.3Q55.9 73.35 55.95 73.95 55.85 74.6 55.25 74.65 54.75 74.6 54.65 73.95 54.7 73.4 55.25 73.3M57 74.15Q57.1 72.75 58.5 72.65 59.85 72.75 60 74.15 59.85 75.55 58.5 75.6 57.15 75.55 57 74.15M59.4 78.2L59.4 77.75 65.85 77.75 65.85 78.2 59.4 78.2M57.7 78.2L51.2 78.2 51.2 77.75 57.7 77.75 57.7 78.2M51.2 78.2L57.7 78.2 57.7 77.75 51.2 77.75 51.2 78.2M59.4 77.75L59.4 78.2 65.85 78.2 65.85 77.75 59.4 77.75M47.95 77.75L46.45 77.75 46.45 78.2 47.95 78.2 47.95 77.75M35 70.7L35 88.2 47.95 88.2 47.95 85.65 38.25 85.65 38.25 85.35 47.95 85.35 47.95 83.3 38.25 83.3 38.25 83 47.95 83 47.95 80.9 38.25 80.9 38.25 80.6 47.95 80.6 47.95 78.2 46.45 78.2 46.45 77.75 47.95 77.75 47.95 70.7 35 70.7M38.25 78.2L38.25 77.75 44.75 77.75 44.75 78.2 38.25 78.2M42.3 73.3Q42.95 73.35 43 73.95 42.9 74.6 42.3 74.65 41.8 74.6 41.7 73.95 41.75 73.4 42.3 73.3M44.05 74.15Q44.15 72.75 45.55 72.65 46.9 72.75 47.05 74.15 46.9 75.55 45.55 75.6 44.2 75.55 44.05 74.15M38.25 77.75L38.25 78.2 44.75 78.2 44.75 77.75 38.25 77.75M82.2 88.2L82.2 70.7 69.15 70.7 69.15 77.75 70.75 77.75 70.75 78.2 69.15 78.2 69.15 80.6 78.9 80.6 78.9 80.9 69.15 80.9 69.15 83 78.9 83 78.9 83.3 69.15 83.3 69.15 85.35 78.9 85.35 78.9 85.65 69.15 85.65 69.15 88.2 82.2 88.2M71.55 72.65Q72.9 72.75 73.05 74.15 72.9 75.55 71.55 75.6 70.2 75.55 70.05 74.15 70.15 72.75 71.55 72.65M74.2 73.95Q74.2 73.4 74.8 73.3 75.45 73.4 75.5 73.95 75.4 74.55 74.8 74.65 74.2 74.55 74.2 73.95M78.9 77.75L78.9 78.2 72.45 78.2 72.45 77.75 78.9 77.75M78.9 78.2L78.9 77.75 72.45 77.75 72.45 78.2 78.9 78.2Z"/><path fill="#44ADE2" stroke="none" d="M58.5 72.65Q57.1 72.75 57 74.15 57.15 75.55 58.5 75.6 59.85 75.55 60 74.15 59.85 72.75 58.5 72.65M45.55 72.65Q44.15 72.75 44.05 74.15 44.2 75.55 45.55 75.6 46.9 75.55 47.05 74.15 46.9 72.75 45.55 72.65M73.05 74.15Q72.9 72.75 71.55 72.65 70.15 72.75 70.05 74.15 70.2 75.55 71.55 75.6 72.9 75.55 73.05 74.15Z"/><path fill="#666" stroke="none" d="M55.95 73.95Q55.9 73.35 55.25 73.3 54.7 73.4 54.65 73.95 54.75 74.6 55.25 74.65 55.85 74.6 55.95 73.95M48.8 73.3Q48.25 73.4 48.2 73.95 48.3 74.6 48.8 74.65 49.4 74.55 49.5 73.95 49.45 73.4 48.8 73.3M69 73.95Q68.95 73.35 68.3 73.3 67.75 73.4 67.7 73.95 67.8 74.6 68.3 74.65 68.9 74.6 69 73.95M62.45 73.95Q62.4 73.4 61.75 73.3 61.15 73.4 61.15 73.95 61.15 74.55 61.75 74.65 62.35 74.55 62.45 73.95M43 73.95Q42.95 73.35 42.3 73.3 41.75 73.4 41.7 73.95 41.8 74.6 42.3 74.65 42.9 74.6 43 73.95M74.8 73.3Q74.2 73.4 74.2 73.95 74.2 74.55 74.8 74.65 75.4 74.55 75.5 73.95 75.45 73.4 74.8 73.3Z"/><path fill="#2980BA" stroke="none" d="M162.85 64.4Q162.55 64.4 162.4 64.6 161.05 66.25 161.1 68.4 161.2 70.55 162.65 72.1 162.8 72.25 163 72.25 163.25 72.25 163.45 71.95 163.55 71.7 163.35 71.45 162.1 70.15 162.05 68.35 162 66.6 163.15 65.2 163.3 65 163.2 64.7 163.15 64.5 162.85 64.4M171.15 64.6Q171 64.4 170.7 64.4 170.4 64.5 170.35 64.7 170.25 64.95 170.4 65.2 171.3 66.3 171.45 67.7 171.65 69.1 171 70.35 170.85 70.6 171 70.8 171.15 71.05 171.4 71.05 171.7 71.05 171.8 70.8 172.6 69.25 172.4 67.6 172.25 65.9 171.15 64.6Z"/><path fill="#F2C1A5" stroke="none" d="M174.8 76.3L175.3 76.25 175.6 76.25Q175.512 76.260 175.4 76.25 175.2 76.2 174.8 76.3M167.8 67.2Q167.536 66.966 167.2 66.85 166.3 67.218 166.3 68.2L166.3 79.05Q166.3 80.15 166.05 80.85 165.9 81.3 165.5 81.45 165 81.6 164.7 81.4 165 81.25 165.1 80.85 164.95 81.35 164.45 81.5 163.9 81.6 163.55 81.25 163.05 80.8 162.5 80 161.7 78.85 160.65 77.85 159.4 76.7 158.75 76.7 157.95 76.7 157.55 77.3 157.15 77.95 157.8 78.6 158.5 79.3 159.7 81.4 160.9 83.45 161.55 85.2 162.35 87.15 164.5 89.15 165.35 90 165.35 91.2L165.35 91.35Q165.35 91.75 165.65 92.05 165.9 92.3 166.3 92.3L173.85 92.3Q174.8 92.3 174.8 91.35L174.8 89.9Q174.8 89.5 175.1 89.25 176.7 87.75 176.7 85.2L176.7 77.75Q176.7 77.15 176.35 76.7 176.074 76.424 175.7 76.3 174.8 76.659 174.8 77.65L174.8 78.6Q174.8 79.05 174.35 79.05 173.85 79.05 173.85 78.6L173.85 77.6 173.85 75.3Q173.85 74.7 173.45 74.3 173.05 73.85 172.45 73.85L172.25 73.85Q172.603 73.851 172.9 73.95 171.95 74.3 171.95 75.3L171.95 78.15Q171.95 78.6 171.5 78.6 171.05 78.6 171.05 78.15L171.05 75.25 171.05 73.85Q171.05 73.3 170.65 72.85 170.2 72.45 169.6 72.45L169.4 72.5Q169.769 72.440 170.1 72.55 169.15 72.85 169.15 73.85L169.15 78.15Q169.15 78.6 168.65 78.6 168.2 78.6 168.2 78.15L168.2 73.8 168.2 71.2 168.2 68.2Q168.2 67.6 167.8 67.2Z"/><path fill="#A5907A" stroke="none" d="M175.7 76.3L175.6 76.25 175.3 76.25 174.8 76.3 174.3 76.65Q173.864 77.037 173.85 77.6L173.85 78.6Q173.85 79.05 174.35 79.05 174.8 79.05 174.8 78.6L174.8 77.65Q174.8 76.659 175.7 76.3M172.9 73.95Q172.603 73.851 172.25 73.85L171.95 73.95Q171.75 74 171.45 74.3 171.062 74.687 171.05 75.25L171.05 78.15Q171.05 78.6 171.5 78.6 171.95 78.6 171.95 78.15L171.95 75.3Q171.95 74.3 172.9 73.95M169.15 72.55Q168.25 72.85 168.2 73.8L168.2 78.15Q168.2 78.6 168.65 78.6 169.15 78.6 169.15 78.15L169.15 73.85Q169.15 72.85 170.1 72.55 169.769 72.440 169.4 72.5L169.15 72.55M167.2 66.85L167.25 66.85 167.05 66.8Q166.923 66.8 166.75 66.8L166.3 66.85Q165.35 67.2 165.35 68.2L165.35 71.2 165.35 79.05Q165.35 80.15 165.1 80.85 165 81.25 164.7 81.4 165 81.6 165.5 81.45 165.9 81.3 166.05 80.85 166.3 80.15 166.3 79.05L166.3 68.2Q166.3 67.218 167.2 66.85Z"/><path fill="#3B97D3" stroke="none" d="M167.25 66.85L167.2 66.85Q167.536 66.966 167.8 67.2 168.2 67.6 168.2 68.2L168.2 71.2Q169.25 70.65 169.75 69.65 170.25 68.6 170 67.45 169.75 66.35 168.85 65.6 167.9 64.9 166.75 64.9 165.6 64.9 164.7 65.6 163.8 66.3 163.55 67.45 163.3 68.6 163.8 69.65 164.3 70.65 165.35 71.2L165.35 68.2Q165.35 67.2 166.3 66.85L166.75 66.8Q166.923 66.8 167.05 66.8L167.25 66.85Z"/><path fill="#E5AC91" stroke="none" d="M284.6 81.35L283.55 81.95 283.55 82.85 284.6 82.25 284.6 81.35M284.6 79.55L283.55 80.15 283.55 81.05 284.6 80.45 284.6 79.55M284.6 77.8L283.55 78.4 283.55 79.25 284.6 78.65 284.6 77.8 284.6 77.8M266.5 76.2L266.8 76.35 266.05 75.95 266.5 76.2M277.95 86.05L277.95 85.2 276.95 85.75 276.95 86.6 276.95 86.65 277.95 86.05M276.95 83.95L276.95 84.85 277.95 84.3 277.95 83.4 276.95 83.95M276.95 82.2L276.95 82.2 276.95 83.1 277.95 82.5 277.95 81.65 277.9 81.65 276.95 82.2M273.6 71.5L274.65 72.1 274.15 71.8 273.6 71.5Z"/><path fill="#009F5E" stroke="none" d="M284.6 77.8L284.6 78.65 292.25 74.25 292.25 73.4 284.6 77.8M292.25 77.85L292.25 76.95 284.6 81.35 284.6 82.25 292.25 77.85M292.25 76.05L292.25 75.15 284.6 79.55 284.6 80.45 292.25 76.05M269.25 90.2L269.25 91.05 276.95 86.6 276.95 85.75 269.25 90.2M276.95 84.85L276.95 83.95 269.25 88.4 269.25 89.3 276.95 84.85M276.95 83.1L276.95 82.2 269.25 86.65 269.25 87.55 276.95 83.1Z"/><path fill="#00AC65" stroke="none" d="M263.3 79.5Q263.8 79.75 263.85 80.15 263.898 80.537 263.45 80.75L268 83.35Q268.402 83.15 269 83.15 269.65 83.2 270.15 83.5 270.202 83.526 270.25 83.55L274.75 80.95 267.6 76.85 263.15 79.4Q263.240 79.464 263.3 79.5M267.45 80.2Q267.45 79.95 267.7 79.8 268.25 79.45 268.95 79.85 269.65 80.25 269.05 80.6 268.5 80.95 267.8 80.55 267.5 80.4 267.45 80.2M277.95 84.3L276.95 84.85 269.25 89.3 269.25 90.2 276.95 85.75 277.95 85.2 283.55 81.95 284.6 81.35 292.25 76.95 292.25 76.05 284.6 80.45 283.55 81.05 277.95 84.3M277.95 82.5L276.95 83.1 269.25 87.55 269.25 88.4 276.95 83.95 277.95 83.4 283.55 80.15 284.6 79.55 292.25 75.15 292.25 74.25 284.6 78.65 283.55 79.25 277.95 82.5M282.05 70Q281.677 70.248 281.05 70.2 280.4 70.2 279.9 69.9 279.830 69.858 279.75 69.8L275.25 72.4 282.4 76.55 286.9 73.95Q286.862 73.931 286.8 73.9 286.3 73.6 286.25 73.25 286.202 72.869 286.55 72.6L282.05 70M280.2 72.85Q280.2 72.6 280.45 72.45 281.05 72.15 281.7 72.5 282.4 72.9 281.8 73.25 281.55 73.4 281.2 73.4 280.8 73.4 280.55 73.2 280.25 73.05 280.2 72.85Z"/><path fill="#FFE6C6" stroke="none" d="M267.7 79.8Q267.45 79.95 267.45 80.2 267.5 80.4 267.8 80.55 268.5 80.95 269.05 80.6 269.65 80.25 268.95 79.85 268.25 79.45 267.7 79.8M275.9 81.6L274.75 80.95 270.25 83.55Q270.202 83.526 270.15 83.5 269.65 83.2 269 83.15 268.402 83.15 268 83.35L263.45 80.75Q263.898 80.537 263.85 80.15 263.8 79.75 263.3 79.5 263.240 79.464 263.15 79.4L267.6 76.85 266.8 76.35 266.5 76.2 260 80 269.3 85.4 275.9 81.6M280.45 72.45Q280.2 72.6 280.2 72.85 280.25 73.05 280.55 73.2 280.8 73.4 281.2 73.4 281.55 73.4 281.8 73.25 282.4 72.9 281.7 72.5 281.05 72.15 280.45 72.45M274.15 71.8L274.65 72.1 275.25 72.4 279.75 69.8Q279.830 69.858 279.9 69.9 280.4 70.2 281.05 70.2 281.677 70.248 282.05 70L286.55 72.6Q286.202 72.869 286.25 73.25 286.3 73.6 286.8 73.9 286.862 73.931 286.9 73.95L282.4 76.55 283.5 77.15 290.05 73.4 288.85 72.7 288.85 72.7 288.75 72.65 281.95 68.7 281.95 68.7 280.75 68 274.15 71.8M272.1 71.75L271.35 72.15 266.45 75 266.45 75 277.9 81.65 277.95 81.65 283.55 78.4 272.1 71.75 272.1 71.75M270.85 73.75L271.8 73.15 281.1 78.5 280.15 79.1 270.85 73.75M278 79.05L277.05 79.6 269.95 75.5 270.9 74.95 278 79.05Z"/><path fill="#FFCBA1" stroke="none" d="M277.95 83.4L277.95 84.3 283.55 81.05 283.55 80.15 277.95 83.4M277.95 85.2L277.95 86.05 283.55 82.85 283.55 81.95 277.95 85.2M277.95 81.65L277.95 82.5 283.55 79.25 283.55 78.4 277.95 81.65Z"/><path fill="#FFD6A0" stroke="none" d="M276.95 82.2L277.9 81.65 266.45 75 265.45 75.6 266.05 75.95 266.8 76.35 267.6 76.85 274.75 80.95 275.9 81.6 276.95 82.2M273.1 71.2L272.1 71.75 283.55 78.4 284.6 77.8 283.5 77.15 282.4 76.55 275.25 72.4 274.65 72.1 273.6 71.5 273.1 71.2Z"/><path fill="#00C169" stroke="none" d="M276.95 82.2L276.95 82.2 275.9 81.6 269.3 85.4 260 80 266.5 76.2 266.05 75.95 265.45 75.6 266.45 75 266.45 75 257.8 80 269.25 86.65 276.95 82.2M271.35 72.15L272.1 71.75 272.1 71.75 273.1 71.2 273.6 71.5 274.15 71.8 280.75 68 281.95 68.7 281.95 68.7 288.75 72.65 288.85 72.7 288.85 72.7 290.05 73.4 283.5 77.15 284.6 77.8 284.6 77.8 292.25 73.4 280.75 66.75 271.35 72.15Z"/><path fill="#007A6E" stroke="none" d="M257.8 80L257.8 80.9 269.25 87.55 269.25 86.65 257.8 80M257.8 83.55L257.8 84.45 269.25 91.05 269.25 90.2 257.8 83.55M257.8 81.8L257.8 82.7 269.25 89.3 269.25 88.4 257.8 81.8Z"/><path fill="#00917F" stroke="none" d="M257.8 80.9L257.8 81.8 269.25 88.4 269.25 87.55 257.8 80.9M257.8 82.7L257.8 83.55 269.25 90.2 269.25 89.3 257.8 82.7Z"/><path fill="#E6C190" stroke="none" d="M277.05 79.6L278 79.05 270.9 74.95 269.95 75.5 277.05 79.6M271.8 73.15L270.85 73.75 280.15 79.1 281.1 78.5 271.8 73.15Z"/><path id="Layer30_0_1_STROKES" stroke="#666" stroke-width="1" stroke-linejoin="round" stroke-linecap="round" fill="none" d="M69.15 70.7L82.2 70.7 82.2 88.2 69.15 88.2 47.95 88.2 35 88.2 35 70.7 47.95 70.7 69.15 70.7 69.15 77.75M69.15 78.2L69.15 80.6M69.15 80.9L69.15 83M69.15 83.3L69.15 85.35M69.15 85.65L69.15 88.2M47.95 85.35L47.95 83.3M47.95 83L47.95 80.9M47.95 80.6L47.95 78.2M47.95 70.7L47.95 77.75 47.95 78.2M47.95 88.2L47.95 85.65M69.15 77.75L69.15 78.2"/><path id="Layer30_0_2_STROKES" stroke="#666" stroke-width=".5" stroke-linejoin="round" stroke-linecap="round" fill="none" d="M69.15 77.75L70.75 77.75 70.75 78.2 69.15 78.2M69.15 80.6L78.9 80.6 78.9 80.9 69.15 80.9M69.15 83L78.9 83 78.9 83.3 69.15 83.3M69.15 85.35L78.9 85.35 78.9 85.65 69.15 85.65M44.75 78.2L38.25 78.2 38.25 77.75 44.75 77.75 44.75 78.2ZM47.95 85.65L38.25 85.65 38.25 85.35 47.95 85.35M47.95 83.3L38.25 83.3 38.25 83 47.95 83M47.95 80.9L38.25 80.9 38.25 80.6 47.95 80.6M47.95 78.2L46.45 78.2 46.45 77.75 47.95 77.75M65.85 78.2L59.4 78.2 59.4 77.75 65.85 77.75 65.85 78.2ZM57.7 78.2L51.2 78.2 51.2 77.75 57.7 77.75 57.7 78.2ZM65.85 80.9L51.2 80.9M65.85 83.3L51.2 83.3M65.85 85.65L51.2 85.65M78.9 78.2L72.45 78.2 72.45 77.75 78.9 77.75 78.9 78.2ZM51.2 83L65.85 83M51.2 85.35L65.85 85.35M51.2 80.6L65.85 80.6"/></g><animate attributeName="display" fill="freeze" repeatCount="1" dur="2.292s" keyTimes="0;.182;1" values="none;inline;inline"/></g><g display="none"><g id="bar_1.3" transform="matrix(1 0 0 .165 295.6 358.8)"><animateTransform attributeName="transform" additive="replace" type="translate" dur="2.292s" keyTimes="0;.182;.382;1" values="669.3,381.257;669.3,381.257;669.3,268.25;669.3,268.25" keySplines=".25 .5 .5 1;.25 .5 .5 1;.1 .1 .9 .9" calcMode="spline" fill="freeze"/><animateTransform attributeName="transform" additive="sum" type="scale" dur="2.292s" keyTimes="0;.182;.382;1" values="1,.165;1,.165;1,1;1,1" keySplines=".25 .5 .5 1;.25 .5 .5 1;.1 .1 .9 .9" calcMode="spline" fill="freeze"/><animateTransform attributeName="transform" additive="sum" type="translate" dur="2.292s" keyTimes="0;.182;.382;1" values="-373.7,-136.45;-373.7,-136.45;-373.7,-135.3;-373.7,-135.3" keySplines=".25 .5 .5 1;.25 .5 .5 1;.1 .1 .9 .9" calcMode="spline" fill="freeze"/><path fill="#025AAE" stroke="none" d="M58.25 .05L0 .05 0 270.65 58.25 270.65 58.25 .05Z"/><path fill="#025AAE" stroke="none" d="M288.4 124.2L230.15 124.2 230.15 270.6 288.4 270.6 288.4 124.2Z"/><path fill="#025AAE" stroke="none" d="M453.2 178.4L453.2 270.65 511.45 270.65 511.45 178.4 453.2 178.4Z"/><path fill="#025AAE" stroke="none" d="M747.45 270.6L747.45 212.75 689.2 212.75 689.2 270.6 747.45 270.6Z"/></g><animate attributeName="display" fill="freeze" repeatCount="1" dur="2.292s" keyTimes="0;.182;1" values="none;inline;inline"/></g><g display="none"><g id="bottom_txt_1.3" transform="translate(288.35 449.05)"><animateTransform attributeName="transform" additive="replace" type="translate" dur="2.292s" keyTimes="0;.182;.345;1" values="288.35,449.05;288.35,449.05;288.35,429.05;288.35,429.05" keySplines=".25 .5 .5 1;.25 .5 .5 1;.1 .1 .9 .9" calcMode="spline" fill="freeze"/><path fill="#404041" stroke="none" d="M50.4 59.85L47.5 59.85 47.5 72.45 50.4 72.45 50.4 59.85M63.8 62.2L63.8 59.85 52.8 59.85 52.8 62.2 56.85 62.2 56.85 72.45 59.75 72.45 59.75 62.2 63.8 62.2M77.15 59.85L74.25 59.85 70.9 65.45 67.55 59.85 64.45 59.85 69.3 67.95 69.3 72.45 72.25 72.45 72.25 68 77.15 59.85M6.4 64.95L6.4 62.2 13 62.2 13 59.85 3.5 59.85 3.5 72.45 13.25 72.45 13.25 70.1 6.4 70.1 6.4 67.2 12.25 67.2 12.25 64.95 6.4 64.95M26.05 60.5Q24.5 59.65 22.5 59.65 20.5 59.65 18.95 60.5 17.4 61.3 16.5 62.8 15.6 64.25 15.6 66.15 15.6 67.85 16.35 69.25 17.1 70.6 18.4 71.5 19.75 72.4 21.5 72.6 22.45 73.65 23.25 74.25 24.1 74.85 24.9 75.1 25.7 75.35 26.6 75.35 27.65 75.35 28.55 74.95 29.4 74.55 30.05 73.8L28.75 72.25Q28.3 72.7 27.75 72.95 27.25 73.2 26.7 73.2 26.2 73.2 25.8 73 25.35 72.8 24.9 72.3 26.25 71.85 27.25 71 28.25 70.1 28.8 68.85 29.4 67.65 29.4 66.15 29.4 64.25 28.5 62.8 27.6 61.3 26.05 60.5M25.9 64.05Q26.45 64.95 26.45 66.15 26.45 67.35 25.9 68.25 25.4 69.15 24.5 69.65 23.65 70.15 22.5 70.2 21.35 70.15 20.45 69.65 19.6 69.15 19.05 68.25 18.55 67.35 18.55 66.15 18.55 64.95 19.05 64.05 19.6 63.15 20.45 62.6 21.35 62.1 22.5 62.1 23.65 62.1 24.5 62.6 25.4 63.15 25.9 64.05M35.25 59.85L32.35 59.85 32.35 66.9Q32.35 69.7 33.85 71.2 35.35 72.65 38.05 72.65 40.75 72.65 42.25 71.2 43.7 69.7 43.75 66.9L43.75 59.85 40.85 59.85 40.85 66.8Q40.85 68.6 40.15 69.4 39.4 70.2 38.05 70.2 36.75 70.2 36 69.4 35.25 68.6 35.25 66.8L35.25 59.85M216.95 59.85L213.8 59.85 210.95 63.95 208.05 59.85 204.75 59.85 209.15 66.05 204.5 72.45 207.85 72.45 210.85 68.05 213.9 72.45 217.25 72.45 212.55 65.95 216.95 59.85M229.4 72.45L229.4 70.1 222.55 70.1 222.55 67.2 228.4 67.2 228.4 64.95 222.55 64.95 222.55 62.2 229.15 62.2 229.15 59.85 219.65 59.85 219.65 72.45 229.4 72.45M186.85 72.45L189.75 72.45 189.75 67.85 195.6 67.85 195.6 65.5 189.75 65.5 189.75 62.2 196.35 62.2 196.35 59.85 186.85 59.85 186.85 72.45M202.1 59.85L199.2 59.85 199.2 72.45 202.1 72.45 202.1 59.85M309.85 66.15Q309.85 64.25 308.95 62.8 308.05 61.3 306.5 60.5 304.95 59.65 302.95 59.65 300.95 59.65 299.4 60.5 297.85 61.3 296.95 62.8 296.05 64.25 296.05 66.15 296.05 68.05 296.95 69.5 297.85 70.95 299.4 71.8 300.95 72.65 302.95 72.65 304.95 72.65 306.5 71.8 308.05 70.95 308.95 69.5 309.85 68.05 309.85 66.15M304.95 62.6Q305.85 63.15 306.35 64.05 306.9 64.95 306.9 66.15 306.9 67.35 306.35 68.25 305.85 69.15 304.95 69.65 304.1 70.15 302.95 70.2 301.8 70.15 300.9 69.65 300.05 69.15 299.5 68.25 299 67.35 299 66.15 299 64.95 299.5 64.05 300.05 63.15 300.9 62.6 301.8 62.1 302.95 62.1 304.1 62.1 304.95 62.6M321.85 60.75Q320.95 60.2 319.8 59.9 318.65 59.65 317.45 59.65 315.7 59.65 314.5 60.15 313.3 60.7 312.75 61.6 312.15 62.45 312.15 63.55 312.15 64.7 312.7 65.4 313.25 66.1 314.05 66.5 314.9 66.9 315.8 67.15 316.75 67.35 317.6 67.55 318.4 67.75 318.95 68.1 319.45 68.4 319.5 69 319.5 69.6 318.9 69.95 318.35 70.3 317.05 70.35 315.9 70.3 314.8 69.95 313.7 69.6 312.9 69L311.9 71.2Q312.45 71.65 313.3 72 314.1 72.3 315.05 72.5 316 72.65 317.05 72.65 318.85 72.65 320 72.1 321.2 71.6 321.8 70.7 322.4 69.85 322.4 68.75 322.35 67.6 321.85 66.9 321.3 66.25 320.5 65.85 319.65 65.45 318.7 65.25 317.8 65 316.95 64.8 316.1 64.6 315.6 64.3 315.05 64 315.05 63.4 315.05 62.8 315.6 62.4 316.15 62 317.45 61.95 318.3 61.95 319.15 62.2 320.05 62.45 320.95 62.95L321.85 60.75M245.2 66.15Q245.2 64.2 244.35 62.8 243.45 61.4 241.9 60.65 240.35 59.85 238.25 59.85L232.55 59.85 232.55 72.45 238.25 72.45Q240.35 72.45 241.9 71.65 243.45 70.9 244.35 69.5 245.2 68.05 245.2 66.15M238.15 62.25Q239.4 62.25 240.3 62.7 241.25 63.2 241.75 64.05 242.25 64.95 242.25 66.15 242.25 67.35 241.75 68.25 241.25 69.1 240.3 69.6 239.4 70.05 238.15 70.05L235.45 70.05 235.45 62.25 238.15 62.25M282.8 59.85L282.8 72.45 285.7 72.45 285.7 69 288.25 69Q289.95 68.95 291.15 68.4 292.4 67.85 293.05 66.85 293.7 65.85 293.7 64.45 293.7 63 293.05 61.95 292.4 60.95 291.15 60.4 289.95 59.85 288.25 59.85L282.8 59.85M290.1 62.8Q290.75 63.35 290.75 64.45 290.75 65.45 290.1 66.05 289.4 66.6 288.1 66.6L285.7 66.6 285.7 62.2 288.1 62.2Q289.4 62.25 290.1 62.8M263.55 71.65Q265.1 70.9 266 69.5 266.85 68.05 266.85 66.15 266.85 64.2 266 62.8 265.1 61.4 263.55 60.65 262 59.85 259.9 59.85L254.2 59.85 254.2 72.45 259.9 72.45Q262 72.45 263.55 71.65M263.4 64.05Q263.9 64.95 263.9 66.15 263.9 67.35 263.4 68.25 262.9 69.1 261.95 69.6 261.05 70.05 259.8 70.05L257.1 70.05 257.1 62.25 259.8 62.25Q261.05 62.25 261.95 62.7 262.9 63.2 263.4 64.05M272.8 70.1L272.8 67.2 278.65 67.2 278.65 64.95 272.8 64.95 272.8 62.2 279.4 62.2 279.4 59.85 269.9 59.85 269.9 72.45 279.65 72.45 279.65 70.1 272.8 70.1M287.95 1.45Q286.5 0 284.5 0L251.4 0Q249.35 0 247.9 1.45 246.45 2.9 246.45 4.95L246.45 40.05Q246.45 42.1 247.9 43.55 249.35 45 251.4 45L284.5 45Q286.5 45 287.95 43.55 289.4 42.1 289.4 40.05L289.4 4.95Q289.4 2.9 287.95 1.45M287.15 2.25Q288.25 3.4 288.25 4.95L288.25 40.05Q288.25 41.6 287.15 42.7 286.05 43.85 284.5 43.85L251.4 43.85Q249.85 43.85 248.75 42.7 247.65 41.6 247.65 40.05L247.65 4.95Q247.65 3.35 248.75 2.25 249.85 1.15 251.4 1.15L284.5 1.15Q286.05 1.15 287.15 2.25M253.3 34.65Q253.3 35.2 253.9 35.2L282.05 35.2Q282.6 35.2 282.6 34.6 282.6 34.05 282 34.05L253.85 34.05Q253.3 34.05 253.3 34.65M260.45 26.35Q260.45 27 261 26.9L282.05 26.9Q282.6 26.9 282.6 26.35 282.6 25.75 282 25.75L261 25.75Q260.75 25.75 260.6 25.95 260.4 26.15 260.45 26.35M282 17.7L266.55 17.7Q265.95 17.7 265.95 18.3 265.95 18.85 266.55 18.85L282.05 18.85Q282.6 18.85 282.6 18.25 282.6 17.7 282 17.7M282.05 11.25Q282.6 11.25 282.6 10.7 282.6 10.1 282 10.1L253.85 10.1Q253.3 10.1 253.3 10.7 253.3 11.25 253.9 11.25L282.05 11.25M334.6 62.2L334.6 72.45 337.5 72.45 337.5 62.2 341.55 62.2 341.55 59.85 330.55 59.85 330.55 62.2 334.6 62.2M328.15 59.85L325.25 59.85 325.25 72.45 328.15 72.45 328.15 59.85M352.9 60.75Q352 60.2 350.85 59.9 349.7 59.65 348.5 59.65 346.75 59.65 345.55 60.15 344.35 60.7 343.8 61.6 343.2 62.45 343.2 63.55 343.2 64.7 343.75 65.4 344.3 66.1 345.1 66.5 345.95 66.9 346.85 67.15 347.8 67.35 348.65 67.55 349.45 67.75 350 68.1 350.5 68.4 350.55 69 350.55 69.6 349.95 69.95 349.4 70.3 348.1 70.35 346.95 70.3 345.85 69.95 344.75 69.6 343.95 69L342.95 71.2Q343.5 71.65 344.35 72 345.15 72.3 346.1 72.5 347.05 72.65 348.1 72.65 349.9 72.65 351.05 72.1 352.25 71.6 352.85 70.7 353.45 69.85 353.45 68.75 353.4 67.6 352.9 66.9 352.35 66.25 351.55 65.85 350.7 65.45 349.75 65.25 348.85 65 348 64.8 347.15 64.6 346.65 64.3 346.1 64 346.1 63.4 346.1 62.8 346.65 62.4 347.2 62 348.5 61.95 349.35 61.95 350.2 62.2 351.1 62.45 352 62.95L352.9 60.75M468.9 60.7Q469.95 59.65 471.55 59.65 472.4 59.65 473.1 59.9 473.8 60.2 474.65 60.9L476.15 58.8Q474.15 57.05 471.4 57.05 468.7 57.05 466.8 58.9 464.9 60.8 464.9 63.55 464.9 66.4 466.75 68.2 468.65 70.05 471.4 70.05 474.7 70.05 476.6 67.95L476.6 63.5 473.75 63.5 473.75 66.95Q472.8 67.5 471.35 67.5 469.9 67.5 468.85 66.45 467.8 65.35 467.8 63.6 467.8 61.8 468.9 60.7M503.8 69.9L503.8 67.4 498.45 67.4 498.45 57.3 495.65 57.3 495.65 69.9 503.8 69.9M490.55 68.15Q492.45 66.3 492.45 63.55 492.45 60.75 490.55 58.9 488.6 57.05 485.85 57.05 483.05 57.05 481.15 58.9 479.25 60.75 479.25 63.55 479.25 66.3 481.15 68.15 483.05 70 485.85 70 488.6 70 490.55 68.15M489.6 63.55Q489.6 65.2 488.5 66.4 487.4 67.6 485.85 67.6 484.25 67.6 483.2 66.4 482.1 65.2 482.1 63.55 482.1 61.85 483.2 60.65 484.25 59.5 485.85 59.5 487.4 59.5 488.5 60.65 489.6 61.85 489.6 63.55M511.15 57.3L506.7 57.3 506.7 69.9 511 69.9Q514.6 69.9 516.35 68.2 518.1 66.5 518.1 63.55 518.1 60.6 516.3 58.95 514.5 57.3 511.15 57.3M509.5 59.75L511.05 59.75Q513.2 59.75 514.25 60.75 515.3 61.75 515.3 63.6 515.3 65.45 514.25 66.45 513.2 67.4 511.3 67.4L509.5 67.4 509.5 59.75M692.25 69.9L695.25 69.9 696.4 67.2 701.7 67.2 702.85 69.9 705.85 69.9 700.4 57.3 697.7 57.3 692.25 69.9M700.65 64.7L697.5 64.7 699.05 61.05 700.65 64.7M716.3 69.9L716.3 67.4 710.95 67.4 710.95 57.3 708.15 57.3 708.15 69.9 716.3 69.9M684.1 67.4L684.1 64.8 689.75 64.8 689.75 62.4 684.1 62.4 684.1 59.8 690.35 59.8 690.35 57.3 681.3 57.3 681.3 69.9 690.55 69.9 690.55 67.4 684.1 67.4M676.35 58.3Q675.1 57.3 672.15 57.3L667.4 57.3 667.4 69.9 670.2 69.9 670.2 65.9 672.15 65.9 674.95 69.9 678.4 69.9 675.2 65.4Q677.6 64.5 677.6 61.5 677.6 59.3 676.35 58.3M670.2 59.75L672.3 59.75Q673.65 59.75 674.2 60.1 674.75 60.5 674.75 61.5 674.75 62.5 674.2 63 673.7 63.45 672.25 63.45L670.2 63.45 670.2 59.75M781 59.75L784.6 59.75 784.6 57.3 774.65 57.3 774.65 59.75 778.2 59.75 778.2 69.9 781 69.9 781 59.75M796.5 59.8L796.5 57.3 787.45 57.3 787.45 69.9 796.7 69.9 796.7 67.4 790.25 67.4 790.25 64.8 795.9 64.8 795.9 62.4 790.25 62.4 790.25 59.8 796.5 59.8M733.85 59.8L733.85 57.3 724.8 57.3 724.8 69.9 734.05 69.9 734.05 67.4 727.6 67.4 727.6 64.8 733.25 64.8 733.25 62.4 727.6 62.4 727.6 59.8 733.85 59.8M740.35 59.85Q740.75 59.5 741.45 59.5 743.2 59.5 744.85 60.75L746.25 58.7Q745.3 57.9 744.05 57.45 742.8 57.05 741.55 57.05 739.6 57.05 738.35 58 737.05 59 737.05 60.75 737.05 62.55 738.05 63.4 739.1 64.25 741.25 64.75 742.65 65.1 743.1 65.45 743.6 65.75 743.6 66.3 743.6 66.9 743.15 67.25 742.7 67.55 741.95 67.55 740.2 67.55 738.15 65.8L736.5 67.85Q738.9 70.05 741.9 70.05 743.95 70.05 745.2 69 746.5 67.95 746.5 66.25 746.5 64.55 745.5 63.65 744.5 62.8 742.7 62.35 740.95 61.9 740.45 61.6 739.95 61.25 739.95 60.7 739.95 60.15 740.35 59.85M758.6 59.75L758.6 57.3 748.65 57.3 748.65 59.75 752.2 59.75 752.2 69.9 755 69.9 755 59.75 758.6 59.75M767.95 57.3L765.25 57.3 759.8 69.9 762.8 69.9 763.95 67.2 769.25 67.2 770.4 69.9 773.4 69.9 767.95 57.3M768.2 64.7L765.05 64.7 766.6 61.05 768.2 64.7M753.05 10.1Q753.05 9.3 752.25 9.3L749.95 9.3 749.95 8.55Q749.95 7.75 749.15 7.75 748.4 7.75 748.4 8.55L748.4 9.3 745.25 9.3 745.25 8.55Q745.25 7.75 744.5 7.75 743.7 7.75 743.7 8.55L743.7 9.3 740.6 9.3 740.6 2.3Q740.6 1.55 739.85 1.55L732.85 1.55 732.85 .75Q732.85 0 732.1 0 731.3 0 731.3 .75L731.3 1.55 728.2 1.55 728.2 .75Q728.2 0 727.45 0 726.65 0 726.65 .75L726.65 1.55 719.65 1.55Q718.9 1.55 718.9 2.3L718.9 9.3 715.8 9.3 715.8 8.55Q715.8 7.75 715 7.75 714.25 7.75 714.25 8.55L714.25 9.3 711.15 9.3 711.15 8.55Q711.15 7.75 710.35 7.75 709.6 7.75 709.6 8.55L709.6 9.3 707.25 9.3Q706.5 9.3 706.5 10.1L706.5 44.2Q706.5 45 707.25 45L752.25 45Q753.05 45 753.05 44.2L753.05 10.1M736.75 36.45Q736.75 35.7 735.95 35.7L723.55 35.7Q722.75 35.7 722.75 36.45L722.75 43.45 720.45 43.45 720.45 3.1 739.05 3.1 739.05 43.45 736.75 43.45 736.75 36.45M735.25 37.25L735.25 43.45 730.6 43.45 730.6 37.25 735.25 37.25M729.05 37.25L729.05 43.45 724.35 43.45 724.35 37.25 729.05 37.25M740.6 43.45L740.6 38.8 751.5 38.8 751.5 43.45 740.6 43.45M751.5 10.85L751.5 37.25 740.6 37.25 740.6 10.85 751.5 10.85M708.05 43.45L708.05 38.8 718.9 38.8 718.9 43.45 708.05 43.45M708.05 10.85L718.9 10.85 718.9 37.25 708.05 37.25 708.05 10.85M715.4 26.8Q714.95 26.35 714.3 26.35L712.75 26.35Q712.1 26.35 711.65 26.8 711.2 27.25 711.2 27.9L711.2 29.45Q711.2 30.1 711.65 30.6 712.1 31.05 712.75 31.05L714.3 31.05Q714.95 31.05 715.4 30.6 715.85 30.1 715.85 29.45L715.85 27.9Q715.85 27.25 715.4 26.8M714.3 27.9L714.3 29.45 712.75 29.45 712.75 27.9 714.3 27.9M712.75 20.15Q712.1 20.15 711.65 20.6 711.2 21.05 711.2 21.7L711.2 23.25Q711.2 23.9 711.65 24.4 712.1 24.85 712.75 24.85L714.3 24.85Q714.95 24.85 715.4 24.4 715.85 23.9 715.85 23.25L715.85 21.7Q715.85 21.05 715.4 20.6 714.95 20.15 714.3 20.15L712.75 20.15M712.75 23.25L712.75 21.7 714.3 21.7 714.3 23.25 712.75 23.25M715.4 14.4Q714.95 13.95 714.3 13.95L712.75 13.95Q712.1 13.95 711.65 14.4 711.2 14.85 711.2 15.5L711.2 17.05Q711.2 17.7 711.65 18.2 712.1 18.65 712.75 18.65L714.3 18.65Q714.95 18.65 715.4 18.2 715.85 17.7 715.85 17.05L715.85 15.5Q715.85 14.85 715.4 14.4M714.3 15.5L714.3 17.05 712.75 17.05 712.75 15.5 714.3 15.5M748 26.8Q747.55 26.35 746.9 26.35L745.35 26.35Q744.7 26.35 744.25 26.8 743.8 27.25 743.8 27.9L743.8 29.45Q743.8 30.1 744.25 30.6 744.7 31.05 745.35 31.05L746.9 31.05Q747.55 31.05 748 30.6 748.45 30.1 748.45 29.45L748.45 27.9Q748.45 27.25 748 26.8M745.35 29.45L745.35 27.9 746.9 27.9 746.9 29.45 745.35 29.45M743.8 21.7L743.8 23.25Q743.8 23.9 744.25 24.4 744.7 24.85 745.35 24.85L746.9 24.85Q747.55 24.85 748 24.4 748.45 23.9 748.45 23.25L748.45 21.7Q748.45 21.05 748 20.6 747.55 20.15 746.9 20.15L745.35 20.15Q744.7 20.15 744.25 20.6 743.8 21.05 743.8 21.7M745.35 23.25L745.35 21.7 746.9 21.7 746.9 23.25 745.35 23.25M748 14.4Q747.55 13.95 746.9 13.95L745.35 13.95Q744.7 13.95 744.25 14.4 743.8 14.85 743.8 15.5L743.8 17.05Q743.8 17.7 744.25 18.2 744.7 18.65 745.35 18.65L746.9 18.65Q747.55 18.65 748 18.2 748.45 17.7 748.45 17.05L748.45 15.5Q748.45 14.85 748 14.4M745.35 17.05L745.35 15.5 746.9 15.5 746.9 17.05 745.35 17.05M727.9 27.1Q727.9 26.45 727.45 26 727 25.55 726.35 25.55L724.8 25.55Q724.15 25.55 723.7 26 723.25 26.45 723.25 27.1L723.25 28.65Q723.25 29.3 723.7 29.8 724.15 30.25 724.8 30.25L726.35 30.25Q727 30.25 727.45 29.8 727.9 29.3 727.9 28.65L727.9 27.1M724.8 27.1L726.35 27.1 726.35 28.65 724.8 28.65 724.8 27.1M723.7 19.7Q723.25 20.15 723.25 20.8L723.25 22.35Q723.25 23 723.7 23.5 724.15 23.95 724.8 23.95L726.35 23.95Q727 23.95 727.45 23.5 727.9 23 727.9 22.35L727.9 20.8Q727.9 20.15 727.45 19.7 727 19.25 726.35 19.25L724.8 19.25Q724.15 19.25 723.7 19.7M724.8 20.8L726.35 20.8 726.35 22.35 724.8 22.35 724.8 20.8M727.9 14.6Q727.9 13.95 727.45 13.5 727 13.05 726.35 13.05L724.8 13.05Q724.15 13.05 723.7 13.5 723.25 13.95 723.25 14.6L723.25 16.15Q723.25 16.8 723.7 17.3 724.15 17.75 724.8 17.75L726.35 17.75Q727 17.75 727.45 17.3 727.9 16.8 727.9 16.15L727.9 14.6M724.8 14.6L726.35 14.6 726.35 16.15 724.8 16.15 724.8 14.6M723.25 9.95Q723.25 10.6 723.7 11.1 724.15 11.55 724.8 11.55L726.35 11.55Q727 11.55 727.45 11.1 727.9 10.6 727.9 9.95L727.9 8.4Q727.9 7.75 727.45 7.3 727 6.85 726.35 6.85L724.8 6.85Q724.15 6.85 723.7 7.3 723.25 7.75 723.25 8.4L723.25 9.95M724.8 8.4L726.35 8.4 726.35 9.95 724.8 9.95 724.8 8.4M735.55 26Q735.1 25.55 734.45 25.55L732.9 25.55Q732.25 25.55 731.8 26 731.35 26.45 731.35 27.1L731.35 28.65Q731.35 29.3 731.8 29.8 732.25 30.25 732.9 30.25L734.45 30.25Q735.1 30.25 735.55 29.8 736 29.3 736 28.65L736 27.1Q736 26.45 735.55 26M734.45 27.1L734.45 28.65 732.9 28.65 732.9 27.1 734.45 27.1M732.9 19.25Q732.25 19.25 731.8 19.7 731.35 20.15 731.35 20.8L731.35 22.35Q731.35 23 731.8 23.5 732.25 23.95 732.9 23.95L734.45 23.95Q735.1 23.95 735.55 23.5 736 23 736 22.35L736 20.8Q736 20.15 735.55 19.7 735.1 19.25 734.45 19.25L732.9 19.25M732.9 22.35L732.9 20.8 734.45 20.8 734.45 22.35 732.9 22.35M735.55 13.5Q735.1 13.05 734.45 13.05L732.9 13.05Q732.25 13.05 731.8 13.5 731.35 13.95 731.35 14.6L731.35 16.15Q731.35 16.8 731.8 17.3 732.25 17.75 732.9 17.75L734.45 17.75Q735.1 17.75 735.55 17.3 736 16.8 736 16.15L736 14.6Q736 13.95 735.55 13.5M734.45 14.6L734.45 16.15 732.9 16.15 732.9 14.6 734.45 14.6M731.35 9.95Q731.35 10.6 731.8 11.1 732.25 11.55 732.9 11.55L734.45 11.55Q735.1 11.55 735.55 11.1 736 10.6 736 9.95L736 8.4Q736 7.75 735.55 7.3 735.1 6.85 734.45 6.85L732.9 6.85Q732.25 6.85 731.8 7.3 731.35 7.75 731.35 8.4L731.35 9.95M732.9 9.95L732.9 8.4 734.45 8.4 734.45 9.95 732.9 9.95Z"/><path fill="#FAC200" stroke="none" d="M27.05 43.35L33.6 43.35 33.6 26.15 27.05 26.15 27.05 43.35M14.8 33.55L14.8 43.35 21.35 43.35 21.35 33.55 14.8 33.55M45.9 43.35L45.9 19.65 39.35 19.65 39.35 43.35 45.9 43.35M58.15 13.1L51.6 13.1 51.6 43.35 58.15 43.35 58.15 13.1M288.25 4.95Q288.25 3.4 287.15 2.25 286.05 1.15 284.5 1.15L251.4 1.15Q249.85 1.15 248.75 2.25 247.65 3.35 247.65 4.95L247.65 40.05Q247.65 41.6 248.75 42.7 249.85 43.85 251.4 43.85L284.5 43.85Q286.05 43.85 287.15 42.7 288.25 41.6 288.25 40.05L288.25 4.95M282.6 10.7Q282.6 11.25 282.05 11.25L253.9 11.25Q253.3 11.25 253.3 10.7 253.3 10.1 253.85 10.1L282 10.1Q282.6 10.1 282.6 10.7M266.55 17.7L282 17.7Q282.6 17.7 282.6 18.25 282.6 18.85 282.05 18.85L266.55 18.85Q265.95 18.85 265.95 18.3 265.95 17.7 266.55 17.7M261 26.9Q260.45 27 260.45 26.35 260.4 26.15 260.6 25.95 260.75 25.75 261 25.75L282 25.75Q282.6 25.75 282.6 26.35 282.6 26.9 282.05 26.9L261 26.9M253.9 35.2Q253.3 35.2 253.3 34.65 253.3 34.05 253.85 34.05L282 34.05Q282.6 34.05 282.6 34.6 282.6 35.2 282.05 35.2L253.9 35.2M485.65 31.8L472.6 31.8 468.75 43.05 489.45 43.05 485.65 31.8M500.8 30.35L497 19.1 483.95 19.1 480.1 30.35 500.8 30.35M495.3 31.8L491.45 43.05 512.15 43.05 508.35 31.8 495.3 31.8M718.9 10.85L708.05 10.85 708.05 37.25 718.9 37.25 718.9 10.85M714.3 13.95Q714.95 13.95 715.4 14.4 715.85 14.85 715.85 15.5L715.85 17.05Q715.85 17.7 715.4 18.2 714.95 18.65 714.3 18.65L712.75 18.65Q712.1 18.65 711.65 18.2 711.2 17.7 711.2 17.05L711.2 15.5Q711.2 14.85 711.65 14.4 712.1 13.95 712.75 13.95L714.3 13.95M711.65 20.6Q712.1 20.15 712.75 20.15L714.3 20.15Q714.95 20.15 715.4 20.6 715.85 21.05 715.85 21.7L715.85 23.25Q715.85 23.9 715.4 24.4 714.95 24.85 714.3 24.85L712.75 24.85Q712.1 24.85 711.65 24.4 711.2 23.9 711.2 23.25L711.2 21.7Q711.2 21.05 711.65 20.6M714.3 26.35Q714.95 26.35 715.4 26.8 715.85 27.25 715.85 27.9L715.85 29.45Q715.85 30.1 715.4 30.6 714.95 31.05 714.3 31.05L712.75 31.05Q712.1 31.05 711.65 30.6 711.2 30.1 711.2 29.45L711.2 27.9Q711.2 27.25 711.65 26.8 712.1 26.35 712.75 26.35L714.3 26.35M714.3 29.45L714.3 27.9 712.75 27.9 712.75 29.45 714.3 29.45M712.75 21.7L712.75 23.25 714.3 23.25 714.3 21.7 712.75 21.7M714.3 17.05L714.3 15.5 712.75 15.5 712.75 17.05 714.3 17.05M708.05 38.8L708.05 43.45 718.9 43.45 718.9 38.8 708.05 38.8M751.5 37.25L751.5 10.85 740.6 10.85 740.6 37.25 751.5 37.25M746.9 13.95Q747.55 13.95 748 14.4 748.45 14.85 748.45 15.5L748.45 17.05Q748.45 17.7 748 18.2 747.55 18.65 746.9 18.65L745.35 18.65Q744.7 18.65 744.25 18.2 743.8 17.7 743.8 17.05L743.8 15.5Q743.8 14.85 744.25 14.4 744.7 13.95 745.35 13.95L746.9 13.95M743.8 23.25L743.8 21.7Q743.8 21.05 744.25 20.6 744.7 20.15 745.35 20.15L746.9 20.15Q747.55 20.15 748 20.6 748.45 21.05 748.45 21.7L748.45 23.25Q748.45 23.9 748 24.4 747.55 24.85 746.9 24.85L745.35 24.85Q744.7 24.85 744.25 24.4 743.8 23.9 743.8 23.25M746.9 26.35Q747.55 26.35 748 26.8 748.45 27.25 748.45 27.9L748.45 29.45Q748.45 30.1 748 30.6 747.55 31.05 746.9 31.05L745.35 31.05Q744.7 31.05 744.25 30.6 743.8 30.1 743.8 29.45L743.8 27.9Q743.8 27.25 744.25 26.8 744.7 26.35 745.35 26.35L746.9 26.35M745.35 27.9L745.35 29.45 746.9 29.45 746.9 27.9 745.35 27.9M745.35 21.7L745.35 23.25 746.9 23.25 746.9 21.7 745.35 21.7M745.35 15.5L745.35 17.05 746.9 17.05 746.9 15.5 745.35 15.5M740.6 38.8L740.6 43.45 751.5 43.45 751.5 38.8 740.6 38.8M735.95 35.7Q736.75 35.7 736.75 36.45L736.75 43.45 739.05 43.45 739.05 3.1 720.45 3.1 720.45 43.45 722.75 43.45 722.75 36.45Q722.75 35.7 723.55 35.7L735.95 35.7M731.8 11.1Q731.35 10.6 731.35 9.95L731.35 8.4Q731.35 7.75 731.8 7.3 732.25 6.85 732.9 6.85L734.45 6.85Q735.1 6.85 735.55 7.3 736 7.75 736 8.4L736 9.95Q736 10.6 735.55 11.1 735.1 11.55 734.45 11.55L732.9 11.55Q732.25 11.55 731.8 11.1M734.45 13.05Q735.1 13.05 735.55 13.5 736 13.95 736 14.6L736 16.15Q736 16.8 735.55 17.3 735.1 17.75 734.45 17.75L732.9 17.75Q732.25 17.75 731.8 17.3 731.35 16.8 731.35 16.15L731.35 14.6Q731.35 13.95 731.8 13.5 732.25 13.05 732.9 13.05L734.45 13.05M731.8 19.7Q732.25 19.25 732.9 19.25L734.45 19.25Q735.1 19.25 735.55 19.7 736 20.15 736 20.8L736 22.35Q736 23 735.55 23.5 735.1 23.95 734.45 23.95L732.9 23.95Q732.25 23.95 731.8 23.5 731.35 23 731.35 22.35L731.35 20.8Q731.35 20.15 731.8 19.7M734.45 25.55Q735.1 25.55 735.55 26 736 26.45 736 27.1L736 28.65Q736 29.3 735.55 29.8 735.1 30.25 734.45 30.25L732.9 30.25Q732.25 30.25 731.8 29.8 731.35 29.3 731.35 28.65L731.35 27.1Q731.35 26.45 731.8 26 732.25 25.55 732.9 25.55L734.45 25.55M723.7 11.1Q723.25 10.6 723.25 9.95L723.25 8.4Q723.25 7.75 723.7 7.3 724.15 6.85 724.8 6.85L726.35 6.85Q727 6.85 727.45 7.3 727.9 7.75 727.9 8.4L727.9 9.95Q727.9 10.6 727.45 11.1 727 11.55 726.35 11.55L724.8 11.55Q724.15 11.55 723.7 11.1M727.45 13.5Q727.9 13.95 727.9 14.6L727.9 16.15Q727.9 16.8 727.45 17.3 727 17.75 726.35 17.75L724.8 17.75Q724.15 17.75 723.7 17.3 723.25 16.8 723.25 16.15L723.25 14.6Q723.25 13.95 723.7 13.5 724.15 13.05 724.8 13.05L726.35 13.05Q727 13.05 727.45 13.5M723.25 20.8Q723.25 20.15 723.7 19.7 724.15 19.25 724.8 19.25L726.35 19.25Q727 19.25 727.45 19.7 727.9 20.15 727.9 20.8L727.9 22.35Q727.9 23 727.45 23.5 727 23.95 726.35 23.95L724.8 23.95Q724.15 23.95 723.7 23.5 723.25 23 723.25 22.35L723.25 20.8M727.45 26Q727.9 26.45 727.9 27.1L727.9 28.65Q727.9 29.3 727.45 29.8 727 30.25 726.35 30.25L724.8 30.25Q724.15 30.25 723.7 29.8 723.25 29.3 723.25 28.65L723.25 27.1Q723.25 26.45 723.7 26 724.15 25.55 724.8 25.55L726.35 25.55Q727 25.55 727.45 26M726.35 27.1L724.8 27.1 724.8 28.65 726.35 28.65 726.35 27.1M726.35 20.8L724.8 20.8 724.8 22.35 726.35 22.35 726.35 20.8M726.35 14.6L724.8 14.6 724.8 16.15 726.35 16.15 726.35 14.6M726.35 8.4L724.8 8.4 724.8 9.95 726.35 9.95 726.35 8.4M734.45 28.65L734.45 27.1 732.9 27.1 732.9 28.65 734.45 28.65M732.9 20.8L732.9 22.35 734.45 22.35 734.45 20.8 732.9 20.8M734.45 16.15L734.45 14.6 732.9 14.6 732.9 16.15 734.45 16.15M732.9 8.4L732.9 9.95 734.45 9.95 734.45 8.4 732.9 8.4Z"/><path fill="#39BB9D" stroke="none" d="M50.75 1.85L50.75 1.75 50.8 1.65 50.8 1.3 50.75 1.2 50.7 1.15 50.7 1.1 50.65 1.05 50.6 .95 50.45 .8 50.35 .75 50.25 .75 50.05 .65 43.05 0Q42.972 -.011 42.9 0L41.9 -.1Q41.55 -.15 41.3 .1 41.05 .3 41 .65 41 1.5 41.75 1.5L46.2 1.95 16.55 19.1Q16.25 19.25 16.15 19.6 16.05 19.9 16.25 20.2 16.5 20.6 16.95 20.6 17.25 20.6 17.35 20.5L17.5 20.4Q17.723 20.7 18.1 20.7 18.4 20.7 18.5 20.6L46.55 4.35 45.2 7.45Q45.05 7.75 45.2 8.1 45.3 8.4 45.6 8.55L45.95 8.6Q46.286 8.6 46.45 8.4 46.579 8.564 46.75 8.65L47.1 8.7Q47.65 8.7 47.8 8.25L50.75 1.85M475.35 7.95L474.3 9 479.5 14.15 480.5 13.15 475.35 7.95M475.65 23.4L468.35 23.4 468.35 24.85 475.65 24.85 475.65 23.4M512.6 23.4L505.25 23.4 505.25 24.85 512.6 24.85 512.6 23.4M491.2 2L489.75 2 489.75 9.3 491.2 9.3 491.2 2M505.6 7.95L500.45 13.15 501.45 14.15 506.6 9 505.6 7.95M729.05 43.45L729.05 37.25 724.35 37.25 724.35 43.45 729.05 43.45M735.25 43.45L735.25 37.25 730.6 37.25 730.6 43.45 735.25 43.45Z"/><path id="Layer18_0_1_STROKES" stroke="#404041" stroke-width="1" stroke-linejoin="round" stroke-linecap="round" fill="none" d="M495.3 31.8L508.35 31.8 512.15 43.05 491.45 43.05 495.3 31.8ZM497 19.1L500.8 30.35 480.1 30.35 483.95 19.1 497 19.1ZM489.45 43.05L468.75 43.05 472.6 31.8 485.65 31.8 489.45 43.05ZM58.15 43.35L51.6 43.35 51.6 13.1 58.15 13.1 58.15 43.35ZM45.9 43.35L39.35 43.35 39.35 19.65 45.9 19.65 45.9 43.35ZM21.35 43.35L14.8 43.35 14.8 33.55 21.35 33.55 21.35 43.35ZM33.6 43.35L27.05 43.35 27.05 26.15 33.6 26.15 33.6 43.35Z"/></g><animate attributeName="display" fill="freeze" repeatCount="1" dur="2.292s" keyTimes="0;.182;1" values="none;inline;inline"/></g></g></svg>