<?xml version="1.0" encoding="utf-8"?><svg id="sec2.0" image-rendering="auto" baseProfile="basic" version="1.1" x="0px" y="0px" width="1180" height="560" xmlns="http://www.w3.org/2000/svg" xmlns:xlink="http://www.w3.org/1999/xlink"><g id="Scene-1r1" overflow="visible"><g display="none"><g id="footer_txt" transform="translate(91.7 518.4)"><path fill="#FAC200" stroke="none" d="M15 9.7L10.2 9.6Q9.9 9.6 9.9 9.4 9.45 8.8 9.35 8.25L7.65 3.95 7.4 4.45 6.35 7.55Q6.05 8.5 5.5 9.45L5.45 9.5 5.45 9.55 5.4 9.55 5.4 9.6 5.35 9.6 5.35 9.65 .05 9.6 4.1 12.9Q4.2 13 4.2 13.25L3.75 15 3.7 15.15 3.35 16.7Q2.9 18.15 2.85 18.45L2.85 18.5 7.1 16.15 7.45 15.9Q7.65 15.8 7.8 15.9L8.05 16.1 11.35 17.95Q11.8 18.25 12.55 18.6L11.7 14.95 11.6 14.75 11.25 13.1Q11.25 12.9 11.4 12.8L14.55 10.15 15 9.7Z"/><path fill="#404041" stroke="none" d="M29.55 8.1L29.6 8.1Q29.5 9.4 29.5 10.5L29.5 16.95 30.65 16.95 30.65 6.95 28.95 6.95 25.75 15.2 25.7 15.2 22.5 6.95 20.75 6.95 20.75 16.95 21.85 16.95 21.85 10.6Q21.85 9.15 21.75 8.1L21.8 8.1 25.2 16.95 26.15 16.95 29.55 8.1M38.3 10.25Q37.5 9.3 36.05 9.3 34.55 9.3 33.7 10.4 32.8 11.45 32.8 13.25 32.8 15.05 33.75 16.1 34.7 17.1 36.35 17.1 37.15 17.1 37.65 17 38.2 16.85 38.8 16.6L38.8 15.6Q37.6 16.1 36.4 16.1 35.25 16.1 34.65 15.4 34 14.75 33.95 13.4L39.1 13.4 39.1 12.7Q39.1 11.15 38.3 10.25M34.65 10.85Q35.15 10.25 36.05 10.25 36.95 10.25 37.45 10.85 37.9 11.4 37.9 12.5L34 12.5Q34.1 11.45 34.65 10.85M50.75 9.45L49.6 9.45 49.6 16.95 50.75 16.95 50.75 9.45M43.75 9.3Q42.3 9.3 41.45 10.35 40.65 11.35 40.65 13.2 40.65 15.1 41.45 16.1 42.25 17.1 43.75 17.1 45.3 17.1 46.1 15.95L46.15 15.95 46.3 16.95 47.25 16.95 47.25 6.3 46.1 6.3 46.1 9.9 46.15 10.45 46.1 10.45Q45.25 9.3 43.75 9.3M42.35 11.05Q42.85 10.25 43.85 10.25 45.05 10.25 45.55 10.95 46.1 11.65 46.1 13.2L46.1 13.45Q46.1 14.85 45.55 15.5 45.05 16.15 43.9 16.15 42.85 16.15 42.35 15.4 41.8 14.65 41.8 13.25 41.8 11.8 42.35 11.05M53.4 10L53.75 10.85Q54.9 10.25 55.85 10.25 56.7 10.25 57.05 10.7 57.45 11.1 57.45 12L57.45 12.45 56.15 12.5Q52.55 12.6 52.55 14.9 52.55 15.95 53.2 16.5 53.8 17.1 54.9 17.1 55.75 17.1 56.3 16.85 56.85 16.6 57.45 15.9L57.5 15.9 57.7 16.95 58.55 16.95 58.55 11.85Q58.55 10.5 57.9 9.95 57.25 9.35 55.9 9.35 55.25 9.35 54.6 9.5 53.95 9.7 53.4 10M57.4 13.25L57.4 13.95Q57.4 15 56.8 15.55 56.2 16.15 55.15 16.15 54.5 16.15 54.1 15.85 53.75 15.5 53.75 14.9 53.75 14.1 54.35 13.75 54.95 13.35 56.3 13.3L57.4 13.25M50.65 8Q50.85 7.8 50.85 7.45 50.85 7.05 50.65 6.85 50.45 6.7 50.2 6.7 49.9 6.7 49.7 6.85 49.5 7.05 49.5 7.45 49.5 7.8 49.7 8 49.9 8.2 50.2 8.2 50.45 8.2 50.65 8M64.4 9.3Q63.6 9.3 63 9.65 62.35 9.95 62 10.5L61.95 10.5 61.8 9.45 60.85 9.45 60.85 16.95 62 16.95 62 13Q62 11.55 62.55 10.9 63.1 10.3 64.25 10.3 65.15 10.3 65.55 10.75 66 11.2 66 12.1L66 16.95 67.1 16.95 67.1 12.05Q67.1 10.65 66.45 10 65.75 9.3 64.4 9.3M76.75 6.9L75.75 6.9 71.8 16.95 73 16.95 74.2 13.75 78.2 13.75 79.45 16.95 80.65 16.95 76.75 6.9M75.8 9.65Q76.05 8.85 76.2 8.2L77.85 12.75 74.6 12.75 75.8 9.65M85.4 9.45Q84.9 9.3 84.35 9.3 83 9.3 82.25 10 81.5 10.65 81.5 11.9 81.5 12.6 81.85 13.2 82.25 13.75 82.8 14 82.35 14.3 82.15 14.6 81.9 14.9 81.9 15.3 81.9 15.7 82.1 15.95 82.3 16.25 82.6 16.35 81.8 16.55 81.35 17.05 80.9 17.55 80.9 18.2 80.9 19.2 81.7 19.75 82.5 20.3 84 20.3 85.9 20.3 86.9 19.65 87.9 19 87.9 17.75 87.9 16.8 87.25 16.25 86.6 15.75 85.35 15.75L84.05 15.75Q83.45 15.75 83.15 15.6 82.9 15.45 82.9 15.15 82.9 14.6 83.65 14.2L84.25 14.25Q85.6 14.25 86.35 13.6 87.1 12.95 87.1 11.85 87.1 11.35 86.95 10.95 86.8 10.6 86.6 10.35L88 10.2 88 9.45 85.4 9.45M83.05 10.6Q83.5 10.15 84.3 10.15 85.95 10.15 85.95 11.85 85.95 13.45 84.3 13.45 83.5 13.45 83.05 13.05 82.65 12.65 82.65 11.85 82.65 11 83.05 10.6M86.4 17Q86.8 17.25 86.8 17.85 86.8 18.6 86.1 19 85.4 19.45 84 19.45 83.05 19.45 82.5 19.15 82 18.8 82 18.2 82 17.5 82.45 17.15 82.85 16.8 83.65 16.8L85 16.8Q86.05 16.8 86.4 17M94.6 10.25Q93.8 9.3 92.35 9.3 90.85 9.3 90 10.4 89.1 11.45 89.1 13.25 89.1 15.05 90.05 16.1 91 17.1 92.65 17.1 93.45 17.1 93.95 17 94.5 16.85 95.1 16.6L95.1 15.6Q93.9 16.1 92.7 16.1 91.55 16.1 90.95 15.4 90.3 14.75 90.25 13.4L95.4 13.4 95.4 12.7Q95.4 11.15 94.6 10.25M92.35 10.25Q93.25 10.25 93.75 10.85 94.2 11.4 94.2 12.5L90.3 12.5Q90.4 11.45 90.95 10.85 91.45 10.25 92.35 10.25M205.15 6.95L202.55 6.95 202.55 16.95 203.75 16.95 203.75 13 204.9 13Q206.85 13 207.9 12.2 208.9 11.4 208.9 9.85 208.9 6.95 205.15 6.95M203.75 12L203.75 7.95 205.05 7.95Q206.4 7.95 207.05 8.45 207.7 8.95 207.7 9.9 207.7 11 207 11.5 206.35 12 204.8 12L203.75 12M215.9 10.25Q215.1 9.3 213.65 9.3 212.15 9.3 211.3 10.4 210.4 11.45 210.4 13.25 210.4 15.05 211.35 16.1 212.3 17.1 213.95 17.1 214.75 17.1 215.25 17 215.8 16.85 216.4 16.6L216.4 15.6Q215.2 16.1 214 16.1 212.85 16.1 212.25 15.4 211.6 14.75 211.55 13.4L216.7 13.4 216.7 12.7Q216.7 11.15 215.9 10.25M213.65 10.25Q214.55 10.25 215.05 10.85 215.5 11.4 215.5 12.5L211.6 12.5Q211.7 11.45 212.25 10.85 212.75 10.25 213.65 10.25M224.2 16.05Q225.1 15.05 225.1 13.2 225.1 11.4 224.2 10.35 223.25 9.3 221.7 9.3 220.05 9.3 219.15 10.35 218.25 11.35 218.25 13.2 218.25 14.4 218.65 15.25 219.1 16.15 219.85 16.6 220.65 17.1 221.65 17.1 223.25 17.1 224.2 16.05M223.95 13.2Q223.95 14.65 223.35 15.4 222.8 16.15 221.65 16.15 220.55 16.15 220 15.4 219.4 14.65 219.4 13.2 219.4 11.75 220 11 220.55 10.3 221.65 10.3 222.8 10.3 223.35 11.05 223.95 11.75 223.95 13.2M228.05 9.45L227.1 9.45 227.1 20.3 228.25 20.3 228.15 16 228.25 16Q228.65 16.55 229.25 16.8 229.85 17.1 230.6 17.1 232.05 17.1 232.9 16.05 233.7 15.05 233.7 13.2 233.7 11.35 232.9 10.35 232.1 9.3 230.6 9.3 229.85 9.3 229.25 9.6 228.7 9.85 228.25 10.5L228.2 10.5 228.05 9.45M228.75 10.9Q229.3 10.3 230.45 10.3 231.4 10.3 232 11.05 232.5 11.8 232.5 13.2 232.5 14.55 232 15.35 231.4 16.15 230.45 16.15 229.3 16.15 228.75 15.45 228.25 14.8 228.25 13.2L228.25 12.95Q228.25 11.55 228.75 10.9M236.8 6.3L235.65 6.3 235.65 16.95 236.8 16.95 236.8 6.3M243.6 17Q244.15 16.85 244.75 16.6L244.75 15.6Q243.55 16.1 242.35 16.1 241.2 16.1 240.6 15.4 239.95 14.75 239.9 13.4L245.05 13.4 245.05 12.7Q245.05 11.15 244.25 10.25 243.45 9.3 242 9.3 240.5 9.3 239.65 10.4 238.75 11.45 238.75 13.25 238.75 15.05 239.7 16.1 240.65 17.1 242.3 17.1 243.1 17.1 243.6 17M243.4 10.85Q243.85 11.4 243.85 12.5L239.95 12.5Q240.05 11.45 240.6 10.85 241.1 10.25 242 10.25 242.9 10.25 243.4 10.85M259.3 9.45L258.35 9.45 258.35 16.95 259.5 16.95 259.5 12.95Q259.5 11.85 260.15 11.1 260.8 10.35 261.7 10.35 262.05 10.35 262.5 10.45L262.65 9.4Q262.25 9.3 261.75 9.3 261.05 9.3 260.5 9.7 259.9 10.1 259.45 10.85L259.4 10.85 259.3 9.45M256.05 11.85Q256.05 10.5 255.4 9.95 254.75 9.35 253.4 9.35 252.75 9.35 252.1 9.5 251.45 9.7 250.9 10L251.25 10.85Q252.4 10.25 253.35 10.25 254.2 10.25 254.55 10.7 254.95 11.1 254.95 12L254.95 12.45 253.65 12.5Q250.05 12.6 250.05 14.9 250.05 15.95 250.7 16.5 251.3 17.1 252.4 17.1 253.25 17.1 253.8 16.85 254.35 16.6 254.95 15.9L255 15.9 255.2 16.95 256.05 16.95 256.05 11.85M251.6 15.85Q251.25 15.5 251.25 14.9 251.25 14.1 251.85 13.75 252.45 13.35 253.8 13.3L254.9 13.25 254.9 13.95Q254.9 15 254.3 15.55 253.7 16.15 252.65 16.15 252 16.15 251.6 15.85M268.85 10.25Q268.05 9.3 266.6 9.3 265.1 9.3 264.25 10.4 263.35 11.45 263.35 13.25 263.35 15.05 264.3 16.1 265.25 17.1 266.9 17.1 267.7 17.1 268.2 17 268.75 16.85 269.35 16.6L269.35 15.6Q268.15 16.1 266.95 16.1 265.8 16.1 265.2 15.4 264.55 14.75 264.5 13.4L269.65 13.4 269.65 12.7Q269.65 11.15 268.85 10.25M265.2 10.85Q265.7 10.25 266.6 10.25 267.5 10.25 268 10.85 268.45 11.4 268.45 12.5L264.55 12.5Q264.65 11.45 265.2 10.85M280.3 10.25Q279.5 9.3 278.05 9.3 276.55 9.3 275.7 10.4 274.8 11.45 274.8 13.25 274.8 15.05 275.75 16.1 276.7 17.1 278.35 17.1 279.15 17.1 279.65 17 280.2 16.85 280.8 16.6L280.8 15.6Q279.6 16.1 278.4 16.1 277.25 16.1 276.65 15.4 276 14.75 275.95 13.4L281.1 13.4 281.1 12.7Q281.1 11.15 280.3 10.25M276.65 10.85Q277.15 10.25 278.05 10.25 278.95 10.25 279.45 10.85 279.9 11.4 279.9 12.5L276 12.5Q276.1 11.45 276.65 10.85M287 10.7Q287.4 11.1 287.4 12L287.4 12.45 286.1 12.5Q282.5 12.6 282.5 14.9 282.5 15.95 283.15 16.5 283.75 17.1 284.85 17.1 285.7 17.1 286.25 16.85 286.8 16.6 287.4 15.9L287.45 15.9 287.65 16.95 288.5 16.95 288.5 11.85Q288.5 10.5 287.85 9.95 287.2 9.35 285.85 9.35 285.2 9.35 284.55 9.5 283.9 9.7 283.35 10L283.7 10.85Q284.85 10.25 285.8 10.25 286.65 10.25 287 10.7M286.25 13.3L287.35 13.25 287.35 13.95Q287.35 15 286.75 15.55 286.15 16.15 285.1 16.15 284.45 16.15 284.05 15.85 283.7 15.5 283.7 14.9 283.7 14.1 284.3 13.75 284.9 13.35 286.25 13.3M295.1 9.4Q294.7 9.3 294.2 9.3 293.5 9.3 292.95 9.7 292.35 10.1 291.9 10.85L291.85 10.85 291.75 9.45 290.8 9.45 290.8 16.95 291.95 16.95 291.95 12.95Q291.95 11.85 292.6 11.1 293.25 10.35 294.15 10.35 294.5 10.35 294.95 10.45L295.1 9.4M297.6 10.5L297.45 9.45 296.5 9.45 296.5 16.95 297.65 16.95 297.65 13Q297.65 11.55 298.2 10.9 298.75 10.3 299.9 10.3 300.8 10.3 301.2 10.75 301.65 11.2 301.65 12.1L301.65 16.95 302.75 16.95 302.75 12.05Q302.75 10.65 302.1 10 301.4 9.3 300.05 9.3 299.25 9.3 298.65 9.65 298 9.95 297.65 10.5L297.6 10.5M306.2 9.45L305.05 9.45 305.05 16.95 306.2 16.95 306.2 9.45M304.95 7.45Q304.95 7.8 305.15 8 305.35 8.2 305.65 8.2 305.9 8.2 306.1 8 306.3 7.8 306.3 7.45 306.3 7.05 306.1 6.85 305.9 6.7 305.65 6.7 305.35 6.7 305.15 6.85 304.95 7.05 304.95 7.45M317.5 10Q316.75 10.65 316.75 11.9 316.75 12.6 317.1 13.2 317.5 13.75 318.05 14 317.6 14.3 317.4 14.6 317.15 14.9 317.15 15.3 317.15 15.7 317.35 15.95 317.55 16.25 317.85 16.35 317.05 16.55 316.6 17.05 316.15 17.55 316.15 18.2 316.15 19.2 316.95 19.75 317.75 20.3 319.25 20.3 321.15 20.3 322.15 19.65 323.15 19 323.15 17.75 323.15 16.8 322.5 16.25 321.85 15.75 320.6 15.75L319.3 15.75Q318.7 15.75 318.4 15.6 318.15 15.45 318.15 15.15 318.15 14.6 318.9 14.2L319.5 14.25Q320.85 14.25 321.6 13.6 322.35 12.95 322.35 11.85 322.35 11.35 322.2 10.95 322.05 10.6 321.85 10.35L323.25 10.2 323.25 9.45 320.65 9.45Q320.15 9.3 319.6 9.3 318.25 9.3 317.5 10M317.9 11.85Q317.9 11 318.3 10.6 318.75 10.15 319.55 10.15 321.2 10.15 321.2 11.85 321.2 13.45 319.55 13.45 318.75 13.45 318.3 13.05 317.9 12.65 317.9 11.85M321.65 17Q322.05 17.25 322.05 17.85 322.05 18.6 321.35 19 320.65 19.45 319.25 19.45 318.3 19.45 317.75 19.15 317.25 18.8 317.25 18.2 317.25 17.5 317.7 17.15 318.1 16.8 318.9 16.8L320.25 16.8Q321.3 16.8 321.65 17M314.8 12.05Q314.8 10.65 314.15 10 313.45 9.3 312.1 9.3 311.3 9.3 310.7 9.65 310.05 9.95 309.7 10.5L309.65 10.5 309.5 9.45 308.55 9.45 308.55 16.95 309.7 16.95 309.7 13Q309.7 11.55 310.25 10.9 310.8 10.3 311.95 10.3 312.85 10.3 313.25 10.75 313.7 11.2 313.7 12.1L313.7 16.95 314.8 16.95 314.8 12.05M337.5 10.75Q337.9 11.2 337.9 12.1L337.9 16.95 339.05 16.95 339.05 12.05Q339.05 10.65 338.4 10 337.75 9.3 336.5 9.3 335.7 9.3 335.05 9.65 334.4 10 334.1 10.6L334.05 10.6Q333.5 9.3 331.75 9.3 331 9.3 330.4 9.65 329.85 9.95 329.5 10.5L329.45 10.5 329.3 9.45 328.35 9.45 328.35 16.95 329.5 16.95 329.5 13Q329.5 11.55 330 10.95 330.5 10.3 331.55 10.3 332.35 10.3 332.75 10.75 333.1 11.2 333.1 12.1L333.1 16.95 334.25 16.95 334.25 12.75Q334.25 11.5 334.75 10.9 335.25 10.3 336.35 10.3 337.15 10.3 337.5 10.75M364.25 15.3L363 15.3 362.3 18.75 363.15 18.75 364.35 15.5 364.25 15.3M350.9 10.85L350.85 10.85 350.75 9.45 349.8 9.45 349.8 16.95 350.95 16.95 350.95 12.95Q350.95 11.85 351.6 11.1 352.25 10.35 353.15 10.35 353.5 10.35 353.95 10.45L354.1 9.4Q353.7 9.3 353.2 9.3 352.5 9.3 351.95 9.7 351.35 10.1 350.9 10.85M346.9 10.35Q345.95 9.3 344.4 9.3 342.75 9.3 341.85 10.35 340.95 11.35 340.95 13.2 340.95 14.4 341.35 15.25 341.8 16.15 342.55 16.6 343.35 17.1 344.35 17.1 345.95 17.1 346.9 16.05 347.8 15.05 347.8 13.2 347.8 11.4 346.9 10.35M344.35 10.3Q345.5 10.3 346.05 11.05 346.65 11.75 346.65 13.2 346.65 14.65 346.05 15.4 345.5 16.15 344.35 16.15 343.25 16.15 342.7 15.4 342.1 14.65 342.1 13.2 342.1 11.75 342.7 11 343.25 10.3 344.35 10.3M360.3 10.25Q359.5 9.3 358.05 9.3 356.55 9.3 355.7 10.4 354.8 11.45 354.8 13.25 354.8 15.05 355.75 16.1 356.7 17.1 358.35 17.1 359.15 17.1 359.65 17 360.2 16.85 360.8 16.6L360.8 15.6Q359.6 16.1 358.4 16.1 357.25 16.1 356.65 15.4 356 14.75 355.95 13.4L361.1 13.4 361.1 12.7Q361.1 11.15 360.3 10.25M356.65 10.85Q357.15 10.25 358.05 10.25 358.95 10.25 359.45 10.85 359.9 11.4 359.9 12.5L356 12.5Q356.1 11.45 356.65 10.85M375.5 11.85Q375.5 10.5 374.85 9.95 374.2 9.35 372.85 9.35 372.2 9.35 371.55 9.5 370.9 9.7 370.35 10L370.7 10.85Q371.85 10.25 372.8 10.25 373.65 10.25 374 10.7 374.4 11.1 374.4 12L374.4 12.45 373.1 12.5Q369.5 12.6 369.5 14.9 369.5 15.95 370.15 16.5 370.75 17.1 371.85 17.1 372.7 17.1 373.25 16.85 373.8 16.6 374.4 15.9L374.45 15.9 374.65 16.95 375.5 16.95 375.5 11.85M373.25 13.3L374.35 13.25 374.35 13.95Q374.35 15 373.75 15.55 373.15 16.15 372.1 16.15 371.45 16.15 371.05 15.85 370.7 15.5 370.7 14.9 370.7 14.1 371.3 13.75 371.9 13.35 373.25 13.3M378.75 9.45L377.8 9.45 377.8 16.95 378.95 16.95 378.95 13Q378.95 11.55 379.5 10.9 380.05 10.3 381.2 10.3 382.1 10.3 382.5 10.75 382.95 11.2 382.95 12.1L382.95 16.95 384.05 16.95 384.05 12.05Q384.05 10.65 383.4 10 382.7 9.3 381.35 9.3 380.55 9.3 379.95 9.65 379.3 9.95 378.95 10.5L378.9 10.5 378.75 9.45M391.4 10.45Q390.55 9.3 389.05 9.3 387.6 9.3 386.75 10.35 385.95 11.35 385.95 13.2 385.95 15.1 386.75 16.1 387.55 17.1 389.05 17.1 390.6 17.1 391.4 15.95L391.45 15.95 391.6 16.95 392.55 16.95 392.55 6.3 391.4 6.3 391.4 9.9 391.45 10.45 391.4 10.45M389.15 10.25Q390.35 10.25 390.85 10.95 391.4 11.65 391.4 13.2L391.4 13.45Q391.4 14.85 390.85 15.5 390.35 16.15 389.2 16.15 388.15 16.15 387.65 15.4 387.1 14.65 387.1 13.25 387.1 11.8 387.65 11.05 388.15 10.25 389.15 10.25M399.65 9.45L398.5 9.45 398.5 16.95 399.65 16.95 399.65 9.45M398.4 7.45Q398.4 7.8 398.6 8 398.8 8.2 399.1 8.2 399.35 8.2 399.55 8 399.75 7.8 399.75 7.45 399.75 7.05 399.55 6.85 399.35 6.7 399.1 6.7 398.8 6.7 398.6 6.85 398.4 7.05 398.4 7.45M408.25 12.05Q408.25 10.65 407.6 10 406.9 9.3 405.55 9.3 404.75 9.3 404.15 9.65 403.5 9.95 403.15 10.5L403.1 10.5 402.95 9.45 402 9.45 402 16.95 403.15 16.95 403.15 13Q403.15 11.55 403.7 10.9 404.25 10.3 405.4 10.3 406.3 10.3 406.7 10.75 407.15 11.2 407.15 12.1L407.15 16.95 408.25 16.95 408.25 12.05M416.35 9.45L415.15 9.45 412.9 15.9 412.8 15.9Q412.75 15.45 412.2 13.9L410.55 9.45 409.35 9.45 412.2 16.95 413.5 16.95 416.35 9.45M420.4 9.3Q418.9 9.3 418.05 10.4 417.15 11.45 417.15 13.25 417.15 15.05 418.1 16.1 419.05 17.1 420.7 17.1 421.5 17.1 422 17 422.55 16.85 423.15 16.6L423.15 15.6Q421.95 16.1 420.75 16.1 419.6 16.1 419 15.4 418.35 14.75 418.3 13.4L423.45 13.4 423.45 12.7Q423.45 11.15 422.65 10.25 421.85 9.3 420.4 9.3M420.4 10.25Q421.3 10.25 421.8 10.85 422.25 11.4 422.25 12.5L418.35 12.5Q418.45 11.45 419 10.85 419.5 10.25 420.4 10.25M427.7 9.3Q426.4 9.3 425.65 9.85 424.9 10.4 424.9 11.3 424.9 11.8 425.15 12.2 425.35 12.55 425.8 12.85 426.25 13.15 427.3 13.5 428.4 13.95 428.75 14.25 429.15 14.55 429.15 15 429.15 15.6 428.65 15.85 428.2 16.15 427.3 16.15 426.7 16.15 426.1 16 425.5 15.85 424.95 15.55L424.95 16.6Q425.8 17.1 427.25 17.1 428.7 17.1 429.45 16.5 430.25 15.95 430.25 14.9 430.25 14.15 429.75 13.65 429.3 13.2 427.95 12.7 427 12.35 426.65 12.15 426.3 11.95 426.15 11.75 426 11.5 426 11.2 426 10.8 426.4 10.5 426.85 10.25 427.65 10.25 428.55 10.25 429.7 10.75L430.1 9.8Q428.9 9.3 427.7 9.3M438.1 9.45L436.95 9.45 436.95 16.95 438.1 16.95 438.1 9.45M435.45 10.35L435.45 9.45 433.25 9.45 433.25 7.7 432.6 7.7 432.15 9.3 431.05 9.8 431.05 10.35 432.15 10.35 432.15 14.8Q432.15 17.1 434.3 17.1L434.95 17.05 435.5 16.9 435.5 16 435.05 16.1 434.45 16.15Q433.9 16.15 433.6 15.8 433.25 15.45 433.25 14.75L433.25 10.35 435.45 10.35M438.2 7.45Q438.2 7.05 438 6.85 437.8 6.7 437.55 6.7 437.25 6.7 437.05 6.85 436.85 7.05 436.85 7.45 436.85 7.8 437.05 8 437.25 8.2 437.55 8.2 437.8 8.2 438 8 438.2 7.8 438.2 7.45M449.4 10Q448.65 10.65 448.65 11.9 448.65 12.6 449 13.2 449.4 13.75 449.95 14 449.5 14.3 449.3 14.6 449.05 14.9 449.05 15.3 449.05 15.7 449.25 15.95 449.45 16.25 449.75 16.35 448.95 16.55 448.5 17.05 448.05 17.55 448.05 18.2 448.05 19.2 448.85 19.75 449.65 20.3 451.15 20.3 453.05 20.3 454.05 19.65 455.05 19 455.05 17.75 455.05 16.8 454.4 16.25 453.75 15.75 452.5 15.75L451.2 15.75Q450.6 15.75 450.3 15.6 450.05 15.45 450.05 15.15 450.05 14.6 450.8 14.2L451.4 14.25Q452.75 14.25 453.5 13.6 454.25 12.95 454.25 11.85 454.25 11.35 454.1 10.95 453.95 10.6 453.75 10.35L455.15 10.2 455.15 9.45 452.55 9.45Q452.05 9.3 451.5 9.3 450.15 9.3 449.4 10M449.8 11.85Q449.8 11 450.2 10.6 450.65 10.15 451.45 10.15 453.1 10.15 453.1 11.85 453.1 13.45 451.45 13.45 450.65 13.45 450.2 13.05 449.8 12.65 449.8 11.85M450.8 16.8L452.15 16.8Q453.2 16.8 453.55 17 453.95 17.25 453.95 17.85 453.95 18.6 453.25 19 452.55 19.45 451.15 19.45 450.2 19.45 449.65 19.15 449.15 18.8 449.15 18.2 449.15 17.5 449.6 17.15 450 16.8 450.8 16.8M446.7 12.05Q446.7 10.65 446.05 10 445.35 9.3 444 9.3 443.2 9.3 442.6 9.65 441.95 9.95 441.6 10.5L441.55 10.5 441.4 9.45 440.45 9.45 440.45 16.95 441.6 16.95 441.6 13Q441.6 11.55 442.15 10.9 442.7 10.3 443.85 10.3 444.75 10.3 445.15 10.75 445.6 11.2 445.6 12.1L445.6 16.95 446.7 16.95 446.7 12.05M470.95 12.05Q470.95 10.65 470.3 10 469.65 9.3 468.4 9.3 467.6 9.3 466.95 9.65 466.3 10 466 10.6L465.95 10.6Q465.4 9.3 463.65 9.3 462.9 9.3 462.3 9.65 461.75 9.95 461.4 10.5L461.35 10.5 461.2 9.45 460.25 9.45 460.25 16.95 461.4 16.95 461.4 13Q461.4 11.55 461.9 10.95 462.4 10.3 463.45 10.3 464.25 10.3 464.65 10.75 465 11.2 465 12.1L465 16.95 466.15 16.95 466.15 12.75Q466.15 11.5 466.65 10.9 467.15 10.3 468.25 10.3 469.05 10.3 469.4 10.75 469.8 11.2 469.8 12.1L469.8 16.95 470.95 16.95 470.95 12.05M482.65 9.45L481.7 9.45 481.7 16.95 482.85 16.95 482.85 12.95Q482.85 11.85 483.5 11.1 484.15 10.35 485.05 10.35 485.4 10.35 485.85 10.45L486 9.4Q485.6 9.3 485.1 9.3 484.4 9.3 483.85 9.7 483.25 10.1 482.8 10.85L482.75 10.85 482.65 9.45M478.8 10.35Q477.85 9.3 476.3 9.3 474.65 9.3 473.75 10.35 472.85 11.35 472.85 13.2 472.85 14.4 473.25 15.25 473.7 16.15 474.45 16.6 475.25 17.1 476.25 17.1 477.85 17.1 478.8 16.05 479.7 15.05 479.7 13.2 479.7 11.4 478.8 10.35M476.25 10.3Q477.4 10.3 477.95 11.05 478.55 11.75 478.55 13.2 478.55 14.65 477.95 15.4 477.4 16.15 476.25 16.15 475.15 16.15 474.6 15.4 474 14.65 474 13.2 474 11.75 474.6 11 475.15 10.3 476.25 10.3M492.2 10.25Q491.4 9.3 489.95 9.3 488.45 9.3 487.6 10.4 486.7 11.45 486.7 13.25 486.7 15.05 487.65 16.1 488.6 17.1 490.25 17.1 491.05 17.1 491.55 17 492.1 16.85 492.7 16.6L492.7 15.6Q491.5 16.1 490.3 16.1 489.15 16.1 488.55 15.4 487.9 14.75 487.85 13.4L493 13.4 493 12.7Q493 11.15 492.2 10.25M489.95 10.25Q490.85 10.25 491.35 10.85 491.8 11.4 491.8 12.5L487.9 12.5Q488 11.45 488.55 10.85 489.05 10.25 489.95 10.25M612.45 7.5Q611.6 8.2 611.6 9.35 611.6 10.45 612.2 11.1 612.8 11.8 614.2 12.3 615.2 12.65 615.7 12.95 616.15 13.2 616.4 13.55 616.6 13.9 616.6 14.4 616.6 15.2 616 15.65 615.4 16.05 614.25 16.05 613.55 16.05 612.8 15.9 612.1 15.75 611.45 15.5L611.45 16.65Q612.45 17.1 614.2 17.1 615.85 17.1 616.8 16.35 617.75 15.6 617.75 14.3 617.75 13.25 617.2 12.6 616.6 12 615 11.4 614.05 11.1 613.6 10.8 613.15 10.55 612.95 10.2 612.8 9.85 612.8 9.35 612.8 8.65 613.3 8.25 613.8 7.85 614.75 7.85 615.9 7.85 617.15 8.35L617.5 7.35Q616.25 6.8 614.75 6.8 613.35 6.8 612.45 7.5M622.65 9.3Q621 9.3 620.1 10.35 619.2 11.35 619.2 13.2 619.2 14.4 619.6 15.25 620.05 16.15 620.8 16.6 621.6 17.1 622.6 17.1 624.2 17.1 625.15 16.05 626.05 15.05 626.05 13.2 626.05 11.4 625.15 10.35 624.2 9.3 622.65 9.3M620.95 11Q621.5 10.3 622.6 10.3 623.75 10.3 624.3 11.05 624.9 11.75 624.9 13.2 624.9 14.65 624.3 15.4 623.75 16.15 622.6 16.15 621.5 16.15 620.95 15.4 620.35 14.65 620.35 13.2 620.35 11.75 620.95 11M634.25 9.45L633.1 9.45 633.1 13.4Q633.1 14.85 632.55 15.5 632 16.15 630.85 16.15 629.95 16.15 629.55 15.7 629.1 15.25 629.1 14.3L629.1 9.45 627.95 9.45 627.95 14.35Q627.95 15.8 628.65 16.45 629.35 17.1 630.7 17.1 631.5 17.1 632.1 16.8 632.75 16.5 633.1 15.95L633.15 15.95 633.3 16.95 634.25 16.95 634.25 9.45M647 9.7Q646.7 9.55 646.15 9.45 645.6 9.3 645.05 9.3 643.4 9.3 642.5 10.35 641.6 11.35 641.6 13.25 641.6 15.1 642.5 16.1 643.35 17.1 645 17.1 646.15 17.1 646.9 16.7L646.9 15.7Q645.9 16.1 644.95 16.1 643.9 16.1 643.3 15.35 642.75 14.6 642.75 13.25 642.75 10.35 645.05 10.35 645.4 10.35 645.85 10.45L646.65 10.65 647 9.7M638.4 11.1Q639.05 10.35 639.95 10.35 640.3 10.35 640.75 10.45L640.9 9.4Q640.5 9.3 640 9.3 639.3 9.3 638.75 9.7 638.15 10.1 637.7 10.85L637.65 10.85 637.55 9.45 636.6 9.45 636.6 16.95 637.75 16.95 637.75 12.95Q637.75 11.85 638.4 11.1M656.55 15.55Q656.35 15.75 656.35 16.25 656.35 16.7 656.55 16.95 656.8 17.15 657.15 17.15 657.55 17.15 657.75 16.9 658 16.65 658 16.25 658 15.75 657.75 15.55 657.55 15.3 657.15 15.3 656.75 15.3 656.55 15.55M658 10.2Q658 9.25 657.15 9.25 656.35 9.25 656.35 10.2 656.35 10.7 656.55 10.9 656.8 11.1 657.15 11.1 657.55 11.1 657.75 10.85 658 10.65 658 10.2M651.5 9.3Q650 9.3 649.15 10.4 648.25 11.45 648.25 13.25 648.25 15.05 649.2 16.1 650.15 17.1 651.8 17.1 652.6 17.1 653.1 17 653.65 16.85 654.25 16.6L654.25 15.6Q653.05 16.1 651.85 16.1 650.7 16.1 650.1 15.4 649.45 14.75 649.4 13.4L654.55 13.4 654.55 12.7Q654.55 11.15 653.75 10.25 652.95 9.3 651.5 9.3M651.5 10.25Q652.4 10.25 652.9 10.85 653.35 11.4 653.35 12.5L649.45 12.5Q649.55 11.45 650.1 10.85 650.6 10.25 651.5 10.25M665.15 6.95L663.95 6.95 663.95 16.95 665.15 16.95 665.15 6.95M669.85 9.65Q669.2 9.95 668.85 10.5L668.8 10.5 668.65 9.45 667.7 9.45 667.7 16.95 668.85 16.95 668.85 13Q668.85 11.55 669.4 10.9 669.95 10.3 671.1 10.3 672 10.3 672.4 10.75 672.85 11.2 672.85 12.1L672.85 16.95 673.95 16.95 673.95 12.05Q673.95 10.65 673.3 10 672.6 9.3 671.25 9.3 670.45 9.3 669.85 9.65M685.95 9.45L684.8 9.45 684.8 16.95 685.95 16.95 685.95 9.45M685.4 6.7Q685.1 6.7 684.9 6.85 684.7 7.05 684.7 7.45 684.7 7.8 684.9 8 685.1 8.2 685.4 8.2 685.65 8.2 685.85 8 686.05 7.8 686.05 7.45 686.05 7.05 685.85 6.85 685.65 6.7 685.4 6.7M681.3 10.45Q680.45 9.3 678.95 9.3 677.5 9.3 676.65 10.35 675.85 11.35 675.85 13.2 675.85 15.1 676.65 16.1 677.45 17.1 678.95 17.1 680.5 17.1 681.3 15.95L681.35 15.95 681.5 16.95 682.45 16.95 682.45 6.3 681.3 6.3 681.35 10.45 681.3 10.45M679.05 10.25Q680.25 10.25 680.75 10.95 681.3 11.65 681.3 13.2L681.3 13.45Q681.3 14.85 680.75 15.5 680.25 16.15 679.1 16.15 678.05 16.15 677.55 15.4 677 14.65 677 13.25 677 11.8 677.55 11.05 678.05 10.25 679.05 10.25M693.75 11.85Q693.75 10.5 693.1 9.95 692.45 9.35 691.1 9.35 690.45 9.35 689.8 9.5 689.15 9.7 688.6 10L688.95 10.85Q690.1 10.25 691.05 10.25 691.9 10.25 692.25 10.7 692.65 11.1 692.65 12L692.65 12.45 691.35 12.5Q687.75 12.6 687.75 14.9 687.75 15.95 688.4 16.5 689 17.1 690.1 17.1 690.95 17.1 691.5 16.85 692.05 16.6 692.65 15.9L692.7 15.9 692.9 16.95 693.75 16.95 693.75 11.85M691.5 13.3L692.6 13.25 692.6 13.95Q692.6 15 692 15.55 691.4 16.15 690.35 16.15 689.7 16.15 689.3 15.85 688.95 15.5 688.95 14.9 688.95 14.1 689.55 13.75 690.15 13.35 691.5 13.3M700.6 9.45L699.65 9.45 699.65 20.3 700.8 20.3 700.7 16 700.8 16Q701.2 16.55 701.8 16.8 702.4 17.1 703.15 17.1 704.6 17.1 705.45 16.05 706.25 15.05 706.25 13.2 706.25 11.35 705.45 10.35 704.65 9.3 703.15 9.3 702.4 9.3 701.8 9.6 701.25 9.85 700.8 10.5L700.75 10.5 700.6 9.45M701.3 10.9Q701.85 10.3 703 10.3 703.95 10.3 704.55 11.05 705.05 11.8 705.05 13.2 705.05 14.55 704.55 15.35 703.95 16.15 703 16.15 701.85 16.15 701.3 15.45 700.8 14.8 700.8 13.2L700.8 12.95Q700.8 11.55 701.3 10.9M713.3 10.25Q712.5 9.3 711.05 9.3 709.55 9.3 708.7 10.4 707.8 11.45 707.8 13.25 707.8 15.05 708.75 16.1 709.7 17.1 711.35 17.1 712.15 17.1 712.65 17 713.2 16.85 713.8 16.6L713.8 15.6Q712.6 16.1 711.4 16.1 710.25 16.1 709.65 15.4 709 14.75 708.95 13.4L714.1 13.4 714.1 12.7Q714.1 11.15 713.3 10.25M709.65 10.85Q710.15 10.25 711.05 10.25 711.95 10.25 712.45 10.85 712.9 11.4 712.9 12.5L709 12.5Q709.1 11.45 709.65 10.85M719.4 10.35Q719.75 10.35 720.2 10.45L720.35 9.4Q719.95 9.3 719.45 9.3 718.75 9.3 718.2 9.7 717.6 10.1 717.15 10.85L717.1 10.85 717 9.45 716.05 9.45 716.05 16.95 717.2 16.95 717.2 12.95Q717.2 11.85 717.85 11.1 718.5 10.35 719.4 10.35M736.9 10.25Q737.75 10.25 738.1 10.7 738.5 11.1 738.5 12L738.5 12.45 737.2 12.5Q733.6 12.6 733.6 14.9 733.6 15.95 734.25 16.5 734.85 17.1 735.95 17.1 736.8 17.1 737.35 16.85 737.9 16.6 738.5 15.9L738.55 15.9 738.75 16.95 739.6 16.95 739.6 11.85Q739.6 10.5 738.95 9.95 738.3 9.35 736.95 9.35 736.3 9.35 735.65 9.5 735 9.7 734.45 10L734.8 10.85Q735.95 10.25 736.9 10.25M737.35 13.3L738.45 13.25 738.45 13.95Q738.45 15 737.85 15.55 737.25 16.15 736.2 16.15 735.55 16.15 735.15 15.85 734.8 15.5 734.8 14.9 734.8 14.1 735.4 13.75 736 13.35 737.35 13.3M732.05 8.4L732.55 7.4Q731.4 6.8 729.8 6.8 728.35 6.8 727.25 7.45 726.15 8.05 725.6 9.25 725 10.4 725 11.95 725 14.4 726.2 15.75 727.4 17.1 729.6 17.1 731.15 17.1 732.2 16.7L732.2 15.7Q730.85 16.05 729.8 16.05 728.1 16.05 727.15 15 726.25 13.9 726.25 11.95 726.25 10.05 727.2 8.95 728.15 7.85 729.8 7.85 730.95 7.85 732.05 8.4M744.05 9.6Q743.5 9.85 743.05 10.5L743 10.5 742.85 9.45 741.9 9.45 741.9 20.3 743.05 20.3 742.95 16 743.05 16Q743.45 16.55 744.05 16.8 744.65 17.1 745.4 17.1 746.85 17.1 747.7 16.05 748.5 15.05 748.5 13.2 748.5 11.35 747.7 10.35 746.9 9.3 745.4 9.3 744.65 9.3 744.05 9.6M745.25 10.3Q746.2 10.3 746.8 11.05 747.3 11.8 747.3 13.2 747.3 14.55 746.8 15.35 746.2 16.15 745.25 16.15 744.1 16.15 743.55 15.45 743.05 14.8 743.05 13.2L743.05 12.95Q743.05 11.55 743.55 10.9 744.1 10.3 745.25 10.3M754.05 9.3L752.95 9.8 752.95 10.35 754.05 10.35 754.05 14.8Q754.05 17.1 756.2 17.1L756.85 17.05 757.4 16.9 757.4 16 756.95 16.1 756.35 16.15Q755.8 16.15 755.5 15.8 755.15 15.45 755.15 14.75L755.15 10.35 757.35 10.35 757.35 9.45 755.15 9.45 755.15 7.7 754.5 7.7 754.05 9.3M751.6 9.45L750.45 9.45 750.45 16.95 751.6 16.95 751.6 9.45M751.5 8Q751.7 7.8 751.7 7.45 751.7 7.05 751.5 6.85 751.3 6.7 751.05 6.7 750.75 6.7 750.55 6.85 750.35 7.05 750.35 7.45 750.35 7.8 750.55 8 750.75 8.2 751.05 8.2 751.3 8.2 751.5 8M762.8 10.7Q763.2 11.1 763.2 12L763.2 12.45 761.9 12.5Q758.3 12.6 758.3 14.9 758.3 15.95 758.95 16.5 759.55 17.1 760.65 17.1 761.5 17.1 762.05 16.85 762.6 16.6 763.2 15.9L763.25 15.9 763.45 16.95 764.3 16.95 764.3 11.85Q764.3 10.5 763.65 9.95 763 9.35 761.65 9.35 761 9.35 760.35 9.5 759.7 9.7 759.15 10L759.5 10.85Q760.65 10.25 761.6 10.25 762.45 10.25 762.8 10.7M762.05 13.3L763.15 13.25 763.15 13.95Q763.15 15 762.55 15.55 761.95 16.15 760.9 16.15 760.25 16.15 759.85 15.85 759.5 15.5 759.5 14.9 759.5 14.1 760.1 13.75 760.7 13.35 762.05 13.3M771.55 6.95L770.35 6.95 770.35 16.95 771.55 16.95 771.55 6.95M785.7 9.3Q784.05 9.3 783.15 10.35 782.25 11.35 782.25 13.25 782.25 15.1 783.15 16.1 784 17.1 785.65 17.1 786.8 17.1 787.55 16.7L787.55 15.7Q786.55 16.1 785.6 16.1 784.55 16.1 783.95 15.35 783.4 14.6 783.4 13.25 783.4 10.35 785.7 10.35 786.05 10.35 786.5 10.45L787.3 10.65 787.65 9.7Q787.35 9.55 786.8 9.45 786.25 9.3 785.7 9.3M780.35 12.05Q780.35 10.65 779.7 10 779 9.3 777.65 9.3 776.85 9.3 776.25 9.65 775.6 9.95 775.25 10.5L775.2 10.5 775.05 9.45 774.1 9.45 774.1 16.95 775.25 16.95 775.25 13Q775.25 11.55 775.8 10.9 776.35 10.3 777.5 10.3 778.4 10.3 778.8 10.75 779.25 11.2 779.25 12.1L779.25 16.95 780.35 16.95 780.35 12.05M794.85 10.35Q793.9 9.3 792.35 9.3 790.7 9.3 789.8 10.35 788.9 11.35 788.9 13.2 788.9 14.4 789.3 15.25 789.75 16.15 790.5 16.6 791.3 17.1 792.3 17.1 793.9 17.1 794.85 16.05 795.75 15.05 795.75 13.2 795.75 11.4 794.85 10.35M790.65 11Q791.2 10.3 792.3 10.3 793.45 10.3 794 11.05 794.6 11.75 794.6 13.2 794.6 14.65 794 15.4 793.45 16.15 792.3 16.15 791.2 16.15 790.65 15.4 790.05 14.65 790.05 13.2 790.05 11.75 790.65 11M803.45 10.6Q802.9 9.3 801.15 9.3 800.4 9.3 799.8 9.65 799.25 9.95 798.9 10.5L798.85 10.5 798.7 9.45 797.75 9.45 797.75 16.95 798.9 16.95 798.9 13Q798.9 11.55 799.4 10.95 799.9 10.3 800.95 10.3 801.75 10.3 802.15 10.75 802.5 11.2 802.5 12.1L802.5 16.95 803.65 16.95 803.65 12.75Q803.65 11.5 804.15 10.9 804.65 10.3 805.75 10.3 806.55 10.3 806.9 10.75 807.3 11.2 807.3 12.1L807.3 16.95 808.45 16.95 808.45 12.05Q808.45 10.65 807.8 10 807.15 9.3 805.9 9.3 805.1 9.3 804.45 9.65 803.8 10 803.5 10.6L803.45 10.6M824.95 13.7L824.95 12.7 821.55 12.7 821.55 13.7 824.95 13.7M813.6 9.3Q812.1 9.3 811.25 10.4 810.35 11.45 810.35 13.25 810.35 15.05 811.3 16.1 812.25 17.1 813.9 17.1 814.7 17.1 815.2 17 815.75 16.85 816.35 16.6L816.35 15.6Q815.15 16.1 813.95 16.1 812.8 16.1 812.2 15.4 811.55 14.75 811.5 13.4L816.65 13.4 816.65 12.7Q816.65 11.15 815.85 10.25 815.05 9.3 813.6 9.3M813.6 10.25Q814.5 10.25 815 10.85 815.45 11.4 815.45 12.5L811.55 12.5Q811.65 11.45 812.2 10.85 812.7 10.25 813.6 10.25M839.25 8.1L839.3 8.1Q839.2 9.4 839.2 10.5L839.2 16.95 840.35 16.95 840.35 6.95 838.65 6.95 835.45 15.2 835.4 15.2 832.2 6.95 830.45 6.95 830.45 16.95 831.55 16.95 831.55 10.6Q831.55 9.15 831.45 8.1L831.5 8.1 834.9 16.95 835.85 16.95 839.25 8.1M851.75 11.95Q851.75 9.55 850.55 8.15 849.35 6.8 847.2 6.8 844.95 6.8 843.75 8.15 842.55 9.5 842.55 11.95 842.55 14.4 843.75 15.75 844.95 17.1 847.15 17.1 849.3 17.1 850.55 15.7 851.75 14.35 851.75 11.95M847.2 7.85Q848.85 7.85 849.7 8.9 850.5 9.9 850.5 11.95 850.5 14 849.65 15 848.8 16.05 847.15 16.05 845.5 16.05 844.65 15 843.8 13.95 843.8 11.95 843.8 9.95 844.65 8.9 845.5 7.85 847.2 7.85M853.45 9.35Q853.45 10.45 854.05 11.1 854.65 11.8 856.05 12.3 857.05 12.65 857.55 12.95 858 13.2 858.25 13.55 858.45 13.9 858.45 14.4 858.45 15.2 857.85 15.65 857.25 16.05 856.1 16.05 855.4 16.05 854.65 15.9 853.95 15.75 853.3 15.5L853.3 16.65Q854.3 17.1 856.05 17.1 857.7 17.1 858.65 16.35 859.6 15.6 859.6 14.3 859.6 13.25 859.05 12.6 858.45 12 856.85 11.4 855.9 11.1 855.45 10.8 855 10.55 854.8 10.2 854.65 9.85 854.65 9.35 854.65 8.65 855.15 8.25 855.65 7.85 856.6 7.85 857.75 7.85 859 8.35L859.35 7.35Q858.1 6.8 856.6 6.8 855.2 6.8 854.3 7.5 853.45 8.2 853.45 9.35M864.2 6.95L861.6 6.95 861.6 16.95 862.8 16.95 862.8 13 863.95 13Q865.9 13 866.95 12.2 867.95 11.4 867.95 9.85 867.95 6.95 864.2 6.95M862.8 12L862.8 7.95 864.1 7.95Q865.45 7.95 866.1 8.45 866.75 8.95 866.75 9.9 866.75 11 866.05 11.5 865.4 12 863.85 12L862.8 12M871.2 16.95L871.2 6.95 870 6.95 870 16.95 871.2 16.95Z"/></g><animate attributeName="display" fill="freeze" repeatCount="1" dur="2.083s" keyTimes="0;.2;1" values="none;inline;inline"/></g><g display="none"><g id="proj_txt" transform="translate(89.85 455.5)"><path fill="#404041" stroke="none" d="M27.65 12.7Q26.6 13.75 26.6 15.55 26.6 17.2 27.5 18.15 28.35 19.1 29.85 19.1 30.75 19.1 31.4 18.75 32.05 18.45 32.5 17.75L32.6 17.75Q32.5 19.9 31.6 20.9 30.7 21.9 28.85 21.9 28.15 21.9 27.45 21.7L27.45 23.25Q27.9 23.35 28.95 23.35 31.65 23.35 33 21.7 34.4 20.05 34.4 16.65 34.4 15.1 33.9 13.95 33.4 12.8 32.5 12.2 31.6 11.65 30.35 11.65 28.65 11.65 27.65 12.7M30.35 17.6Q29.35 17.6 28.9 17.05 28.45 16.5 28.45 15.5 28.45 14.4 28.95 13.8 29.45 13.15 30.4 13.15 31 13.15 31.5 13.5 32 13.85 32.25 14.45 32.55 15.05 32.55 15.75 32.55 16.5 31.9 17.05 31.25 17.6 30.35 17.6M22.95 11.8L21.4 11.8 18.05 14.4 19 15.6 20.75 14.15 21.15 13.75 21.1 23.2 22.95 23.2 22.95 11.8M45.8 21.85Q46.8 23.35 48.7 23.35 50.7 23.35 51.65 21.9 52.6 20.45 52.6 17.5 52.6 14.6 51.6 13.1 50.65 11.6 48.7 11.6 46.75 11.6 45.8 13.05 44.85 14.45 44.85 17.5 44.85 20.35 45.8 21.85M47.2 14.15Q47.65 13.15 48.7 13.15 49.75 13.15 50.25 14.15 50.75 15.2 50.75 17.5 50.75 19.8 50.25 20.8 49.75 21.85 48.7 21.85 47.65 21.85 47.2 20.85 46.7 19.85 46.7 17.5 46.7 15.15 47.2 14.15M43.5 16.65Q43.5 15.1 43 13.95 42.5 12.8 41.6 12.2 40.7 11.65 39.45 11.65 37.75 11.65 36.75 12.7 35.7 13.75 35.7 15.55 35.7 17.2 36.6 18.15 37.45 19.1 38.95 19.1 39.85 19.1 40.5 18.75 41.15 18.45 41.6 17.75L41.7 17.75Q41.6 19.9 40.7 20.9 39.8 21.9 37.95 21.9 37.25 21.9 36.55 21.7L36.55 23.25Q37 23.35 38.05 23.35 40.75 23.35 42.1 21.7 43.5 20.05 43.5 16.65M41.65 15.75Q41.65 16.5 41 17.05 40.35 17.6 39.45 17.6 38.45 17.6 38 17.05 37.55 16.5 37.55 15.5 37.55 14.4 38.05 13.8 38.55 13.15 39.5 13.15 40.1 13.15 40.6 13.5 41.1 13.85 41.35 14.45 41.65 15.05 41.65 15.75M130.65 13.05Q129.7 14.45 129.7 17.5 129.7 20.35 130.65 21.85 131.65 23.35 133.55 23.35 135.55 23.35 136.5 21.9 137.45 20.45 137.45 17.5 137.45 14.6 136.45 13.1 135.5 11.6 133.55 11.6 131.6 11.6 130.65 13.05M135.1 14.15Q135.6 15.2 135.6 17.5 135.6 19.8 135.1 20.8 134.6 21.85 133.55 21.85 132.5 21.85 132.05 20.85 131.55 19.85 131.55 17.5 131.55 15.15 132.05 14.15 132.5 13.15 133.55 13.15 134.6 13.15 135.1 14.15M124.45 11.6Q123.4 11.6 122.5 11.95 121.6 12.3 120.65 13.1L121.65 14.3Q122.45 13.65 123.1 13.45 123.7 13.2 124.35 13.2 125.15 13.2 125.65 13.65 126.1 14.1 126.1 14.85 126.1 15.4 125.9 15.9 125.7 16.4 125.3 16.95 124.85 17.5 123.55 18.85L120.6 21.8 120.6 23.2 128.35 23.2 128.35 21.6 122.9 21.6 122.9 21.5 124.9 19.6Q126.25 18.35 126.8 17.6 127.4 16.85 127.65 16.15 127.95 15.45 127.95 14.7 127.95 13.3 127 12.45 126.05 11.6 124.45 11.6M146.55 17.5Q146.55 14.6 145.55 13.1 144.6 11.6 142.65 11.6 140.7 11.6 139.75 13.05 138.8 14.45 138.8 17.5 138.8 20.35 139.75 21.85 140.75 23.35 142.65 23.35 144.65 23.35 145.6 21.9 146.55 20.45 146.55 17.5M144.2 14.15Q144.7 15.2 144.7 17.5 144.7 19.8 144.2 20.8 143.7 21.85 142.65 21.85 141.6 21.85 141.15 20.85 140.65 19.85 140.65 17.5 140.65 15.15 141.15 14.15 141.6 13.15 142.65 13.15 143.7 13.15 144.2 14.15M148.85 13.05Q147.9 14.45 147.9 17.5 147.9 20.35 148.85 21.85 149.85 23.35 151.75 23.35 153.75 23.35 154.7 21.9 155.65 20.45 155.65 17.5 155.65 14.6 154.65 13.1 153.7 11.6 151.75 11.6 149.8 11.6 148.85 13.05M150.25 14.15Q150.7 13.15 151.75 13.15 152.8 13.15 153.3 14.15 153.8 15.2 153.8 17.5 153.8 19.8 153.3 20.8 152.8 21.85 151.75 21.85 150.7 21.85 150.25 20.85 149.75 19.85 149.75 17.5 149.75 15.15 150.25 14.15M246.7 13.05Q245.75 14.45 245.75 17.5 245.75 20.35 246.7 21.85 247.7 23.35 249.6 23.35 251.6 23.35 252.55 21.9 253.5 20.45 253.5 17.5 253.5 14.6 252.5 13.1 251.55 11.6 249.6 11.6 247.65 11.6 246.7 13.05M251.15 14.15Q251.65 15.2 251.65 17.5 251.65 19.8 251.15 20.8 250.65 21.85 249.6 21.85 248.55 21.85 248.1 20.85 247.6 19.85 247.6 17.5 247.6 15.15 248.1 14.15 248.55 13.15 249.6 13.15 250.65 13.15 251.15 14.15M243.7 16.15Q244 15.45 244 14.7 244 13.3 243.05 12.45 242.1 11.6 240.5 11.6 239.45 11.6 238.55 11.95 237.65 12.3 236.7 13.1L237.7 14.3Q238.5 13.65 239.15 13.45 239.75 13.2 240.4 13.2 241.2 13.2 241.7 13.65 242.15 14.1 242.15 14.85 242.15 15.4 241.95 15.9 241.75 16.4 241.35 16.95 240.9 17.5 239.6 18.85L236.65 21.8 236.65 23.2 244.4 23.2 244.4 21.6 238.95 21.6 238.95 21.5 240.95 19.6Q242.3 18.35 242.85 17.6 243.45 16.85 243.7 16.15M260.25 11.8L258.7 11.8 255.35 14.4 256.3 15.6 258.05 14.15 258.45 13.75 258.4 23.2 260.25 23.2 260.25 11.8M271.7 17.5Q271.7 14.6 270.7 13.1 269.75 11.6 267.8 11.6 265.85 11.6 264.9 13.05 263.95 14.45 263.95 17.5 263.95 20.35 264.9 21.85 265.9 23.35 267.8 23.35 269.8 23.35 270.75 21.9 271.7 20.45 271.7 17.5M269.35 14.15Q269.85 15.2 269.85 17.5 269.85 19.8 269.35 20.8 268.85 21.85 267.8 21.85 266.75 21.85 266.3 20.85 265.8 19.85 265.8 17.5 265.8 15.15 266.3 14.15 266.75 13.15 267.8 13.15 268.85 13.15 269.35 14.15M380.45 11.6Q379.4 11.6 378.5 11.95 377.6 12.3 376.65 13.1L377.65 14.3Q378.45 13.65 379.1 13.45 379.7 13.2 380.35 13.2 381.15 13.2 381.65 13.65 382.1 14.1 382.1 14.85 382.1 15.4 381.9 15.9 381.7 16.4 381.3 16.95 380.85 17.5 379.55 18.85L376.6 21.8 376.6 23.2 384.35 23.2 384.35 21.6 378.9 21.6 378.9 21.5 380.9 19.6Q382.25 18.35 382.8 17.6 383.4 16.85 383.65 16.15 383.95 15.45 383.95 14.7 383.95 13.3 383 12.45 382.05 11.6 380.45 11.6M393.45 17.5Q393.45 14.6 392.45 13.1 391.5 11.6 389.55 11.6 387.6 11.6 386.65 13.05 385.7 14.45 385.7 17.5 385.7 20.35 386.65 21.85 387.65 23.35 389.55 23.35 391.55 23.35 392.5 21.9 393.45 20.45 393.45 17.5M391.1 14.15Q391.6 15.2 391.6 17.5 391.6 19.8 391.1 20.8 390.6 21.85 389.55 21.85 388.5 21.85 388.05 20.85 387.55 19.85 387.55 17.5 387.55 15.15 388.05 14.15 388.5 13.15 389.55 13.15 390.6 13.15 391.1 14.15M400.2 11.8L398.65 11.8 395.3 14.4 396.25 15.6 398 14.15 398.4 13.75 398.35 23.2 400.2 23.2 400.2 11.8M407.8 16.05L406.15 16.25 406.4 13.4 410.7 13.4 410.7 11.8 404.8 11.8 404.35 17.35 405.15 17.85 407 17.6Q409.65 17.6 409.65 19.65 409.65 20.7 409 21.25 408.35 21.85 407.1 21.85 406.4 21.85 405.55 21.65 404.75 21.45 404.1 21.1L404.1 22.75Q405.2 23.35 407.1 23.35 409.25 23.35 410.4 22.35 411.5 21.3 411.5 19.45 411.5 17.9 410.5 17 409.5 16.05 407.8 16.05M519.45 11.6Q518.4 11.6 517.5 11.95 516.6 12.3 515.65 13.1L516.65 14.3Q517.45 13.65 518.1 13.45 518.7 13.2 519.35 13.2 520.15 13.2 520.65 13.65 521.1 14.1 521.1 14.85 521.1 15.4 520.9 15.9 520.7 16.4 520.3 16.95 519.85 17.5 518.55 18.85L515.6 21.8 515.6 23.2 523.35 23.2 523.35 21.6 517.9 21.6 517.9 21.5 519.9 19.6Q521.25 18.35 521.8 17.6 522.4 16.85 522.65 16.15 522.95 15.45 522.95 14.7 522.95 13.3 522 12.45 521.05 11.6 519.45 11.6M528.55 23.35Q530.55 23.35 531.5 21.9 532.45 20.45 532.45 17.5 532.45 14.6 531.45 13.1 530.5 11.6 528.55 11.6 526.6 11.6 525.65 13.05 524.7 14.45 524.7 17.5 524.7 20.35 525.65 21.85 526.65 23.35 528.55 23.35M527.05 14.15Q527.5 13.15 528.55 13.15 529.6 13.15 530.1 14.15 530.6 15.2 530.6 17.5 530.6 19.8 530.1 20.8 529.6 21.85 528.55 21.85 527.5 21.85 527.05 20.85 526.55 19.85 526.55 17.5 526.55 15.15 527.05 14.15M539.2 11.8L537.65 11.8 534.3 14.4 535.25 15.6 537 14.15 537.4 13.75 537.35 23.2 539.2 23.2 539.2 11.8M550.7 13.1L550.7 11.8 542.8 11.8 542.8 13.4 548.7 13.4 544.2 23.2 546.2 23.2 550.7 13.1M640.45 39.3L638.05 39.3 638.05 48.65Q638.05 49.3 637.8 49.65 637.5 49.95 636.9 49.95 636.3 49.95 635.8 49.8L635.8 51.7Q636.45 51.9 637.35 51.9 638.8 51.9 639.65 51.15 640.45 50.4 640.45 49L640.45 39.3M635.55 41.25Q635.05 40.25 634.1 39.7 633.15 39.15 631.9 39.15 629.85 39.15 628.75 40.35 627.6 41.55 627.6 43.65 627.6 45.05 628.15 46.05 628.65 47.1 629.6 47.65 630.55 48.2 631.85 48.2 633.85 48.2 634.95 47 636.1 45.8 636.1 43.65 636.1 42.3 635.55 41.25M630.45 41.7Q630.9 41.05 631.85 41.05 632.8 41.05 633.25 41.7 633.65 42.35 633.65 43.65 633.65 44.95 633.25 45.65 632.8 46.3 631.85 46.3 630.9 46.3 630.5 45.65 630.05 44.95 630.05 43.65 630.05 42.35 630.45 41.7M639.25 35.9Q637.95 35.9 637.95 37.05 637.95 38.25 639.25 38.25 639.9 38.25 640.2 37.95 640.55 37.6 640.55 37.05 640.55 35.9 639.25 35.9M626.15 39.15Q625.3 39.15 624.65 39.6 623.95 40.05 623.5 40.8L623.4 40.8 623.05 39.3 621.25 39.3 621.25 48.05 623.65 48.05 623.65 43.6Q623.65 42.55 624.25 41.95 624.9 41.4 626.05 41.4L626.75 41.45 626.95 39.2 626.15 39.15M615.1 36.65L611.45 36.65 611.45 48.05 613.85 48.05 613.85 44 614.9 44Q617 44 618.2 43 619.35 42.05 619.35 40.2 619.35 38.4 618.25 37.55 617.15 36.65 615.1 36.65M613.85 42L613.85 38.6 614.95 38.6Q615.95 38.6 616.4 39 616.9 39.45 616.9 40.3 616.9 41.1 616.35 41.55 615.75 42 614.65 42L613.85 42M684.55 35.9L682.15 35.9 682.15 38.7Q682.15 39.45 682.3 40.45L682.25 40.45Q681.4 39.15 679.75 39.15 678.15 39.15 677.25 40.35 676.35 41.55 676.35 43.7 676.35 45.8 677.25 47 678.15 48.2 679.65 48.2 681.35 48.2 682.15 46.9L682.25 46.9 682.7 48.05 684.55 48.05 684.55 35.9M680.45 41.1Q681.45 41.1 681.9 41.7 682.3 42.3 682.3 43.7L682.3 43.95Q682.25 45.25 681.85 45.8 681.4 46.3 680.5 46.3 679.65 46.3 679.25 45.65 678.8 45 678.8 43.75 678.8 42.45 679.25 41.75 679.65 41.1 680.45 41.1M666.9 43.75Q666.9 45.9 668.1 47.05 669.3 48.2 671.4 48.2 672.45 48.2 673.15 48.05 673.85 47.9 674.45 47.6L674.45 45.75Q673.7 46.1 673 46.25 672.3 46.45 671.5 46.45 670.5 46.45 669.95 45.85 669.35 45.3 669.35 44.3L674.95 44.3 674.95 43.1Q674.95 41.25 673.95 40.2 672.9 39.15 671.05 39.15 669.1 39.15 668 40.35 666.9 41.55 666.9 43.75M672.25 41.35Q672.7 41.8 672.75 42.7L669.4 42.7Q669.45 41.8 669.9 41.35 670.3 40.85 671.05 40.85 671.85 40.85 672.25 41.35M663.2 41.1L665.65 41.1 665.65 39.3 663.2 39.3 663.2 37.45 661.65 37.45 661 39.3 659.65 40.1 659.65 41.1 660.8 41.1 660.8 45.3Q660.8 46.75 661.45 47.5 662.1 48.2 663.55 48.2 664.85 48.2 665.75 47.8L665.75 46.05Q664.85 46.3 664.25 46.3 663.75 46.3 663.5 46.05 663.2 45.8 663.2 45.3L663.2 41.1M650.4 43.1Q650.4 41.25 649.4 40.2 648.35 39.15 646.5 39.15 644.55 39.15 643.45 40.35 642.35 41.55 642.35 43.75 642.35 45.9 643.55 47.05 644.75 48.2 646.85 48.2 647.9 48.2 648.6 48.05 649.3 47.9 649.9 47.6L649.9 45.75Q649.15 46.1 648.45 46.25 647.75 46.45 646.95 46.45 645.95 46.45 645.4 45.85 644.8 45.3 644.8 44.3L650.4 44.3 650.4 43.1M646.5 40.85Q647.3 40.85 647.7 41.35 648.15 41.8 648.2 42.7L644.85 42.7Q644.9 41.8 645.35 41.35 645.75 40.85 646.5 40.85M656.1 41.05Q656.6 41.05 657.1 41.2L658.1 41.6 658.85 39.75Q657.6 39.15 656.1 39.15 654.05 39.15 652.95 40.35 651.8 41.5 651.8 43.75 651.8 48.2 655.9 48.2 656.8 48.2 657.4 48.05 658 47.95 658.55 47.55L658.55 45.5Q657.95 45.9 657.4 46.1 656.8 46.3 656.1 46.3 654.25 46.3 654.25 43.7 654.25 41.05 656.1 41.05M686.55 17.5Q686.55 14.6 685.55 13.1 684.6 11.6 682.65 11.6 680.7 11.6 679.75 13.05 678.8 14.45 678.8 17.5 678.8 20.35 679.75 21.85 680.75 23.35 682.65 23.35 684.65 23.35 685.6 21.9 686.55 20.45 686.55 17.5M684.2 14.15Q684.7 15.2 684.7 17.5 684.7 19.8 684.2 20.8 683.7 21.85 682.65 21.85 681.6 21.85 681.15 20.85 680.65 19.85 680.65 17.5 680.65 15.15 681.15 14.15 681.6 13.15 682.65 13.15 683.7 13.15 684.2 14.15M673.55 11.6Q672.5 11.6 671.6 11.95 670.7 12.3 669.75 13.1L670.75 14.3Q671.55 13.65 672.2 13.45 672.8 13.2 673.45 13.2 674.25 13.2 674.75 13.65 675.2 14.1 675.2 14.85 675.2 15.4 675 15.9 674.8 16.4 674.4 16.95 673.95 17.5 672.65 18.85L669.7 21.8 669.7 23.2 677.45 23.2 677.45 21.6 672 21.6 672 21.5 674 19.6Q675.35 18.35 675.9 17.6 676.5 16.85 676.75 16.15 677.05 15.45 677.05 14.7 677.05 13.3 676.1 12.45 675.15 11.6 673.55 11.6M697.95 13.05Q697 14.45 697 17.5 697 20.35 697.95 21.85 698.95 23.35 700.85 23.35 702.85 23.35 703.8 21.9 704.75 20.45 704.75 17.5 704.75 14.6 703.75 13.1 702.8 11.6 700.85 11.6 698.9 11.6 697.95 13.05M698.85 17.5Q698.85 15.15 699.35 14.15 699.8 13.15 700.85 13.15 701.9 13.15 702.4 14.15 702.9 15.2 702.9 17.5 702.9 19.8 702.4 20.8 701.9 21.85 700.85 21.85 699.8 21.85 699.35 20.85 698.85 19.85 698.85 17.5M691.75 11.6Q690.7 11.6 689.8 11.95 688.9 12.3 687.95 13.1L688.95 14.3Q689.75 13.65 690.4 13.45 691 13.2 691.65 13.2 692.45 13.2 692.95 13.65 693.4 14.1 693.4 14.85 693.4 15.4 693.2 15.9 693 16.4 692.6 16.95 692.15 17.5 690.85 18.85L687.9 21.8 687.9 23.2 695.65 23.2 695.65 21.6 690.2 21.6 690.2 21.5 692.2 19.6Q693.55 18.35 694.1 17.6 694.7 16.85 694.95 16.15 695.25 15.45 695.25 14.7 695.25 13.3 694.3 12.45 693.35 11.6 691.75 11.6M864.8 13.05Q863.85 14.45 863.85 17.5 863.85 20.35 864.8 21.85 865.8 23.35 867.7 23.35 869.7 23.35 870.65 21.9 871.6 20.45 871.6 17.5 871.6 14.6 870.6 13.1 869.65 11.6 867.7 11.6 865.75 11.6 864.8 13.05M865.7 17.5Q865.7 15.15 866.2 14.15 866.65 13.15 867.7 13.15 868.75 13.15 869.25 14.15 869.75 15.2 869.75 17.5 869.75 19.8 869.25 20.8 868.75 21.85 867.7 21.85 866.65 21.85 866.2 20.85 865.7 19.85 865.7 17.5M858.6 11.6Q857.55 11.6 856.65 11.95 855.75 12.3 854.8 13.1L855.8 14.3Q856.6 13.65 857.25 13.45 857.85 13.2 858.5 13.2 859.3 13.2 859.8 13.65 860.25 14.1 860.25 14.85 860.25 15.4 860.05 15.9 859.85 16.4 859.45 16.95 859 17.5 857.7 18.85L854.75 21.8 854.75 23.2 862.5 23.2 862.5 21.6 857.05 21.6 857.05 21.5 859.05 19.6Q860.4 18.35 860.95 17.6 861.55 16.85 861.8 16.15 862.1 15.45 862.1 14.7 862.1 13.3 861.15 12.45 860.2 11.6 858.6 11.6M889.8 17.5Q889.8 14.6 888.8 13.1 887.85 11.6 885.9 11.6 883.95 11.6 883 13.05 882.05 14.45 882.05 17.5 882.05 20.35 883 21.85 884 23.35 885.9 23.35 887.9 23.35 888.85 21.9 889.8 20.45 889.8 17.5M887.45 14.15Q887.95 15.2 887.95 17.5 887.95 19.8 887.45 20.8 886.95 21.85 885.9 21.85 884.85 21.85 884.4 20.85 883.9 19.85 883.9 17.5 883.9 15.15 884.4 14.15 884.85 13.15 885.9 13.15 886.95 13.15 887.45 14.15M879.3 12.35Q878.35 11.6 876.6 11.6 874.5 11.6 872.95 12.75L873.85 14.05Q874.65 13.5 875.25 13.35 875.9 13.15 876.5 13.15 877.45 13.15 877.95 13.55 878.4 13.95 878.4 14.7 878.4 16.6 875.65 16.6L874.65 16.6 874.65 18.05 875.65 18.05Q877.2 18.05 877.95 18.5 878.65 18.95 878.65 19.85 878.65 20.85 878 21.35 877.35 21.85 876 21.85 875.25 21.85 874.45 21.65 873.65 21.45 872.9 21.1L872.9 22.75Q874.25 23.35 876.15 23.35 878.25 23.35 879.45 22.45 880.6 21.55 880.6 19.9 880.6 18.8 879.9 18.1 879.25 17.4 877.85 17.25L877.85 17.2Q879 16.95 879.65 16.2 880.25 15.5 880.25 14.4 880.25 13.1 879.3 12.35Z"/><path id="Layer27_0_1_STROKES" stroke="#666" stroke-width="1" stroke-linejoin="round" stroke-linecap="round" fill="none" d="M872.6 49L872.6 41.9 703.6 41.9M872.6 41.9L872.6 33.7M399.75 34.4L399.75 49.7M400.8 41.9L595.8 41.9"/><path id="Layer27_0_2_STROKES" stroke="#FACA0A" stroke-width="1" stroke-linejoin="round" stroke-linecap="round" fill="none" d="M386.05 34.25L386.05 42.3 386.05 49.55M34.4 34.25L34.4 49.55M386.05 42.3L35.1 42.3"/><path id="Layer27_0_3_STROKES" stroke="#999" stroke-width="1" stroke-linejoin="round" stroke-linecap="round" fill="none" d="M0 0L1001.35 0"/></g><animate attributeName="display" fill="freeze" repeatCount="1" dur="2.083s" keyTimes="0;.2;1" values="none;inline;inline"/></g><g display="none"><g id="fig_01" transform="matrix(.5 0 0 .5 113.65 401.6)"><animateTransform attributeName="transform" additive="replace" type="translate" dur="2.083s" keyTimes="0;.2;.42;1" values="291.695,426.074;291.695,426.074;461.7,399.05;461.7,399.05" keySplines=".25 .5 .5 1;.25 .5 .5 1;.1 .1 .9 .9" calcMode="spline" fill="freeze"/><animateTransform attributeName="transform" additive="sum" type="scale" dur="2.083s" keyTimes="0;.2;.42;1" values=".5,.5;.5,.5;1,1;1,1" keySplines=".25 .5 .5 1;.25 .5 .5 1;.1 .1 .9 .9" calcMode="spline" fill="freeze"/><animateTransform attributeName="transform" additive="sum" type="translate" dur="2.083s" keyTimes="0;.2;.42;1" values="-356.1,-48.95;-356.1,-48.95;-356,-48.65;-356,-48.65" keySplines=".25 .5 .5 1;.25 .5 .5 1;.1 .1 .9 .9" calcMode="spline" fill="freeze"/><path fill="#404041" stroke="none" d="M64.6 83.15Q64.55 83.9 64.55 85.25L64.55 92.6 66.4 92.6 66.4 81.2 64.85 81.2 61.5 83.8 62.45 85Q63.9 83.75 64.2 83.55 64.45 83.3 64.6 83.15M54.35 82.85Q54.95 82.6 55.6 82.6 56.4 82.6 56.9 83.05 57.35 83.5 57.35 84.25 57.35 84.8 57.15 85.3 56.95 85.8 56.55 86.35 56.1 86.9 54.8 88.25L51.85 91.2 51.85 92.6 59.6 92.6 59.6 91 54.15 91 54.15 90.9 56.15 89Q57.5 87.75 58.05 87 58.65 86.25 58.9 85.55 59.2 84.85 59.2 84.1 59.2 82.7 58.25 81.85 57.3 81 55.7 81 54.65 81 53.75 81.35 52.85 81.7 51.9 82.5L52.9 83.7Q53.7 83.05 54.35 82.85M11.7 9.1L11.6 9.05 2.4 9.05 2.3 9.1 2.3 10 2.4 10.1 4.05 10.1Q4.95 10.1 6 10.65 6.75 11.2 7 12.1L2.4 12.1 2.3 12.15 2.3 13.05 2.4 13.1 7 13.1 7 13.65Q6.35 15.95 3.2 15.95L2.6 15.95 2.6 16Q6.4 20.95 8.35 23.45L10.2 23.45 10.2 23.35 5.25 16.95Q5.3 16.95 5.35 16.9 6 16.9 7.6 16 9.4 14.6 9.4 13.1L11.6 13.1 11.7 13.05 11.7 12.15 11.6 12.1 9.35 12.1 9.3 11.8Q8.9 10.55 8.15 10.15L8.15 10.1 11.6 10.1 11.7 10 11.7 9.1M28.05 21.1L25.3 21.1Q24.95 23.4 24.3 26L26.45 26Q27.65 23.25 28.2 21.3L28.05 21.1M21.85 11.7L21.85 9.1 14.1 9.1 13.55 16.4 14.75 17.05 16.9 16.7Q19.8 16.7 19.8 18.9 19.8 21.15 17 21.15 16.1 21.15 15.05 20.9 14.05 20.65 13.3 20.2L13.3 22.8Q14.75 23.6 17.1 23.6 19.85 23.6 21.35 22.3 22.8 21 22.8 18.6 22.8 16.6 21.6 15.45 20.35 14.3 18.3 14.3 17.4 14.3 16.8 14.4L16.5 14.5 16.75 11.7 21.85 11.7M35.05 11.8Q36 11.3 37.55 11.3 38.4 11.3 39.3 11.5L39.3 9.1Q38.6 8.95 37.35 8.95 33.8 8.95 32 11.05 30.2 13.1 30.2 17.35 30.2 19.3 30.85 20.7 31.5 22.15 32.65 22.85 33.85 23.6 35.4 23.6 37.7 23.6 39 22.25 40.3 20.95 40.3 18.65 40.3 16.55 39.2 15.3 38.1 14.1 36.2 14.1 34.05 14.1 33.1 15.8L33 15.8Q33.05 14.1 33.55 13.2 34.05 12.25 35.05 11.8M33.85 17.05Q34.5 16.45 35.4 16.45 36.4 16.45 36.9 17.05 37.35 17.65 37.35 18.7 37.35 19.9 36.85 20.55 36.35 21.2 35.35 21.2 34.4 21.2 33.8 20.4 33.2 19.6 33.2 18.4 33.2 17.65 33.85 17.05M49.1 9.4Q48.1 8.9 46.75 8.9 45.75 8.9 44.9 9.1 44.1 9.3 43.4 9.7 42.7 10.05 41.65 10.95L43.3 12.9Q44.15 12.2 44.95 11.8 45.7 11.45 46.55 11.45 47.35 11.45 47.8 11.85 48.3 12.3 48.3 13.15 48.3 13.7 48.05 14.25 47.85 14.8 47.35 15.4 46.9 16.05 45.3 17.7L41.7 21.3 41.7 23.4 51.7 23.4 51.7 20.85 45.45 20.85 45.45 20.7 47.3 19Q49.15 17.3 49.85 16.4 50.6 15.5 50.95 14.65 51.3 13.75 51.3 12.8 51.3 11.65 50.7 10.75 50.15 9.9 49.1 9.4M60.55 9.1L58.1 9.1 53.5 12.8 54.95 14.6 56.6 13.3 57.6 12.3 57.55 23.4 60.55 23.4 60.55 9.1Z"/><path fill="#FAC200" stroke="none" d="M39.9 77.05L39.65 77.6 38.45 81.1Q38.05 82.25 37.5 83.25L37.45 83.3 37.45 83.35 37.4 83.35 37.4 83.4 37.35 83.4 37.35 83.45 31.35 83.4Q32.65 84.55 32.8 84.65L35.7 86.95 35.9 87.15Q36.05 87.3 36.05 87.55L35.95 87.75 34.5 93.4 34.5 93.45 39.7 90.55Q39.85 90.45 40.1 90.55L40.4 90.75 45.45 93.6 44.5 89.45 44.4 89.2 44.35 88.95 44.25 88.65 44 87.35Q44 87.15 44.15 87L48.25 83.5 42.8 83.4Q42.5 83.4 42.45 83.2 42.1 82.65 41.85 81.9L39.9 77.05Z"/><path fill="#76CED9" stroke="none" d="M16.75 41.2Q15.05 42.9 15.05 45.45 15.05 47.9 16.75 49.6 18.5 51.35 21 51.4 23.55 51.35 25.2 49.6 26.85 48 26.95 45.45 26.9 42.8 25.2 41.2 23.55 39.55 21 39.45 18.5 39.55 16.75 41.2M8.25 45.8Q7.45 44.85 6.15 44.85 5.2 44.85 4.35 45.5 3.55 46.25 3.45 47.35 3.4 48.45 4.15 49.35L13.8 60.6 12.75 75.6 14.75 75.6 14.75 75.8 12.75 97.1Q12.7 98.15 13.45 99 14.05 99.9 15.25 100.05L15.5 100.05Q16.6 100.05 17.25 99.3 17.95 98.75 18.2 97.6L20.1 76.95 20.45 76.95 22.4 97.6Q22.5 98.7 23.25 99.3 24 100.05 25.1 100.05L25.35 100.05Q26.55 99.9 27.2 99 27.9 98.15 27.8 97.1L25.85 75.8 25.85 75.6 27.75 75.6 26.75 60.45 33.8 52.2Q32.405 51.604 31.3 50.45 30.365 49.535 29.8 48.4L24.6 54.05Q24.6 52.7 24.2 52.55 23.8 52.4 22.9 52.75 21.85 53.2 20.35 53.25L20.15 53.25Q18.75 53.2 17.7 52.75 16.8 52.35 16.35 52.55 15.95 52.7 15.95 54.05L8.25 45.8Z"/><path fill="#31A52A" stroke="none" d="M45.25 44.7Q45.2 41.25 42.85 38.9 40.55 36.6 37.05 36.5 33.55 36.6 31.3 38.9 29 41.25 28.9 44.7 28.959 46.777 29.8 48.4 30.365 49.535 31.3 50.45 32.405 51.604 33.8 52.2 35.268 52.824 37.05 52.85 40.55 52.8 42.85 50.45 45.2 48.2 45.25 44.7M36.3 41.15Q35.85 40.95 35.45 40.95L33.9 40.95 33.9 40.9 34.4 40.1 40.3 40.1 39.75 40.95 38.15 40.95Q38.45 41.3 38.6 41.9L40.3 41.9 39.75 42.75 38.65 42.75Q38.65 43.2 38.2 43.85 37.7 44.45 37.3 44.6 36.4 45.05 35.6 45.05L38.9 49.1 38.9 49.25 37.55 49.25 34.15 45.2 34.15 44.35 34.8 44.4Q36.75 44.4 37.3 43.15L37.3 42.75 33.85 42.75 34.4 41.9 37.2 41.9 37.2 41.85Q36.95 41.35 36.3 41.15Z"/><path fill="#FFF" stroke="none" d="M35.45 40.95Q35.85 40.95 36.3 41.15 36.95 41.35 37.2 41.85L37.2 41.9 34.4 41.9 33.85 42.75 37.3 42.75 37.3 43.15Q36.75 44.4 34.8 44.4L34.15 44.35 34.15 45.2 37.55 49.25 38.9 49.25 38.9 49.1 35.6 45.05Q36.4 45.05 37.3 44.6 37.7 44.45 38.2 43.85 38.65 43.2 38.65 42.75L39.75 42.75 40.3 41.9 38.6 41.9Q38.45 41.3 38.15 40.95L39.75 40.95 40.3 40.1 34.4 40.1 33.9 40.9 33.9 40.95 35.45 40.95Z"/></g><animate attributeName="display" fill="freeze" repeatCount="1" dur="2.083s" keyTimes="0;.2;1" values="none;inline;inline"/></g><g display="none"><g id="fig12" transform="matrix(.339 0 0 .339 213.6 405.35)"><animateTransform attributeName="transform" additive="replace" type="translate" dur="2.083s" keyTimes="0;.24;.46;1" values="231.708,426.916;231.708,426.916;238.7,381.85;238.7,381.85" keySplines=".25 .5 .5 1;.25 .5 .5 1;.1 .1 .9 .9" calcMode="spline" fill="freeze"/><animateTransform attributeName="transform" additive="sum" type="scale" dur="2.083s" keyTimes="0;.24;.46;1" values=".339,.339;.339,.339;1,1;1,1" keySplines=".25 .5 .5 1;.25 .5 .5 1;.1 .1 .9 .9" calcMode="spline" fill="freeze"/><animateTransform attributeName="transform" additive="sum" type="translate" dur="2.083s" keyTimes="0;.24;.46;1" values="-53.55,-63.75;-53.55,-63.75;-53.45,-63.55;-53.45,-63.55" keySplines=".25 .5 .5 1;.25 .5 .5 1;.1 .1 .9 .9" calcMode="spline" fill="freeze"/><path fill="#404041" stroke="none" d="M89.6 123.1L89.6 123 91.6 121.1Q92.95 119.85 93.5 119.1 94.1 118.35 94.35 117.65 94.65 116.95 94.65 116.2 94.65 114.8 93.7 113.95 92.75 113.1 91.15 113.1 90.1 113.1 89.2 113.45 88.3 113.8 87.35 114.6L88.35 115.8Q89.15 115.15 89.8 114.95 90.4 114.7 91.05 114.7 91.85 114.7 92.35 115.15 92.8 115.6 92.8 116.35 92.8 116.9 92.6 117.4 92.4 117.9 92 118.45 91.55 119 90.25 120.35L87.3 123.3 87.3 124.7 95.05 124.7 95.05 123.1 89.6 123.1M103.75 115.9Q103.75 114.6 102.8 113.85 101.85 113.1 100.1 113.1 98 113.1 96.45 114.25L97.35 115.55Q98.15 115 98.75 114.85 99.4 114.65 100 114.65 100.95 114.65 101.45 115.05 101.9 115.45 101.9 116.2 101.9 118.1 99.15 118.1L98.15 118.1 98.15 119.55 99.15 119.55Q100.7 119.55 101.45 120 102.15 120.45 102.15 121.35 102.15 122.35 101.5 122.85 100.85 123.35 99.5 123.35 98.75 123.35 97.95 123.15 97.15 122.95 96.4 122.6L96.4 124.25Q97.75 124.85 99.65 124.85 101.75 124.85 102.95 123.95 104.1 123.05 104.1 121.4 104.1 120.3 103.4 119.6 102.75 118.9 101.35 118.75L101.35 118.7Q102.5 118.45 103.15 117.7 103.75 117 103.75 115.9M20.5 12.15L20.4 12.1 18.15 12.1 18.1 11.8Q17.7 10.55 16.95 10.15L16.95 10.1 20.4 10.1 20.5 10 20.5 9.1 20.4 9.05 11.2 9.05 11.1 9.1 11.1 10 11.2 10.1 12.85 10.1Q13.75 10.1 14.8 10.65 15.55 11.2 15.8 12.1L11.2 12.1 11.1 12.15 11.1 13.05 11.2 13.1 15.8 13.1 15.8 13.65Q15.15 15.95 12 15.95L11.4 15.95 11.4 16Q15.2 20.95 17.15 23.45L19 23.45 19 23.35 14.05 16.95Q14.1 16.95 14.15 16.9 14.8 16.9 16.4 16 18.2 14.6 18.2 13.1L20.4 13.1 20.5 13.05 20.5 12.15M29.35 9.1L26.9 9.1 22.3 12.8 23.75 14.6 25.4 13.3 26.4 12.3 26.35 23.4 29.35 23.4 29.35 9.1M48.4 21.3L48.25 21.1 45.5 21.1Q45.15 23.4 44.5 26L46.65 26Q47.85 23.25 48.4 21.3M42.3 11.5L42.3 9.1Q41.6 8.95 40.35 8.95 36.8 8.95 35 11.05 33.2 13.1 33.2 17.35 33.2 19.3 33.85 20.7 34.5 22.15 35.65 22.85 36.85 23.6 38.4 23.6 40.7 23.6 42 22.25 43.3 20.95 43.3 18.65 43.3 16.55 42.2 15.3 41.1 14.1 39.2 14.1 37.05 14.1 36.1 15.8L36 15.8Q36.05 14.1 36.55 13.2 37.05 12.25 38.05 11.8 39 11.3 40.55 11.3 41.4 11.3 42.3 11.5M38.4 16.45Q39.4 16.45 39.9 17.05 40.35 17.65 40.35 18.7 40.35 19.9 39.85 20.55 39.35 21.2 38.35 21.2 37.4 21.2 36.8 20.4 36.2 19.6 36.2 18.4 36.2 17.65 36.85 17.05 37.5 16.45 38.4 16.45M54.15 11.7L59.25 11.7 59.25 9.1 51.5 9.1 50.95 16.4 52.15 17.05 54.3 16.7Q57.2 16.7 57.2 18.9 57.2 21.15 54.4 21.15 53.5 21.15 52.45 20.9 51.45 20.65 50.7 20.2L50.7 22.8Q52.15 23.6 54.5 23.6 57.25 23.6 58.75 22.3 60.2 21 60.2 18.6 60.2 16.6 59 15.45 57.75 14.3 55.7 14.3 54.8 14.3 54.2 14.4L53.9 14.5 54.15 11.7M70.5 9.1L67.7 9.1 61.45 18.35 61.45 20.45 67.55 20.45 67.55 23.4 70.5 23.4 70.5 20.45 72.2 20.45 72.2 18.1 70.5 18.1 70.5 9.1M66.7 14.15Q67.2 13.4 67.6 12.6L67.65 12.6 67.55 18.1 64.1 18.1 66.7 14.15M82 22.25Q83.3 20.95 83.3 18.65 83.3 16.55 82.2 15.3 81.1 14.1 79.2 14.1 77.05 14.1 76.1 15.8L76 15.8Q76.05 14.1 76.55 13.2 77.05 12.25 78.05 11.8 79 11.3 80.55 11.3 81.4 11.3 82.3 11.5L82.3 9.1Q81.6 8.95 80.35 8.95 76.8 8.95 75 11.05 73.2 13.1 73.2 17.35 73.2 19.3 73.85 20.7 74.5 22.15 75.65 22.85 76.85 23.6 78.4 23.6 80.7 23.6 82 22.25M78.4 16.45Q79.4 16.45 79.9 17.05 80.35 17.65 80.35 18.7 80.35 19.9 79.85 20.55 79.35 21.2 78.35 21.2 77.4 21.2 76.8 20.4 76.2 19.6 76.2 18.4 76.2 17.65 76.85 17.05 77.5 16.45 78.4 16.45Z"/><path fill="#FAC200" stroke="none" d="M75.05 109.3L74.8 109.85 73.6 113.35Q73.2 114.5 72.65 115.5L72.6 115.55 72.6 115.6 72.55 115.6 72.55 115.65 72.5 115.65 72.5 115.7 66.5 115.65Q67.8 116.8 67.95 116.9L70.85 119.2 71.05 119.4Q71.2 119.55 71.2 119.8L71.1 120 69.65 125.65 69.65 125.7 74.85 122.8Q75 122.7 75.25 122.8L75.55 123 80.6 125.85 79.65 121.7 79.55 121.45 79.5 121.2 79.4 120.9 79.15 119.6Q79.15 119.4 79.3 119.25L83.4 115.75 77.95 115.65Q77.65 115.65 77.6 115.45 77.25 114.9 77 114.15L75.05 109.3Z"/><path fill="#76CED9" stroke="none" d="M57.9 44Q57.75 39.85 55.1 37.2 52.4 34.5 48.35 34.35 44.2 34.5 41.5 37.2 38.7 39.95 38.7 44 38.7 48.05 41.5 50.75 44.2 53.5 48.35 53.65 52.45 53.5 55.1 50.75 57.75 48.1 57.9 44M27.75 44.65Q26.3 43.05 24.35 43.05 22.85 43.05 21.45 44.2 20.1 45.4 20 47.15 19.85 48.95 21.15 50.3L36.75 68.55 35.05 92.7 38.2 92.7 38.2 93 35 127.35Q34.85 129 36.1 130.5 37.2 131.9 39 132.1L39.4 132.1Q41.05 132.1 42.3 130.95 43.45 129.95 43.75 128.15L46.9 94.85 47.45 94.85 50.5 128.15Q50.75 129.9 51.95 130.95 53.2 132.1 54.9 132.1L55.35 132.1Q57.15 131.9 58.3 130.5 59.4 129.1 59.25 127.35L56.15 93 56.15 92.7 59.2 92.7 57.6 68.2 69 54.95Q66.727 53.977 64.9 52.15 63.396 50.686 62.45 48.85L54.1 57.95Q54.1 55.75 53.5 55.5 52.9 55.3 51.4 55.85 49.9 56.5 47.3 56.65L46.95 56.65Q44.35 56.5 43 55.85 41.4 55.3 40.75 55.5 40.2 55.7 40.2 57.95L27.75 44.65Z"/><path fill="#31A52A" stroke="none" d="M87.4 42.9Q87.25 37.25 83.55 33.55 79.85 29.85 74.25 29.6 68.55 29.85 64.9 33.55 61.2 37.15 61.05 42.9 61.139 46.253 62.45 48.85 63.396 50.686 64.9 52.15 66.727 53.977 69 54.95 71.390 55.924 74.25 56 79.75 55.85 83.55 52.15 87.25 48.45 87.4 42.9M78.6 36.8L76 36.8Q76.45 37.5 76.75 38.35L79.45 38.35 78.6 39.7 76.8 39.7Q76.75 40.4 76.1 41.5 75.25 42.5 74.55 42.7 73.15 43.4 71.9 43.4 71.9 43.55 72.45 44.3L77.2 49.95 77.2 50.15 75.05 50.15 69.5 43.65 69.5 42.3 70.6 42.35Q73.8 42.35 74.55 40.35L74.65 39.7 69 39.7 69.95 38.35 74.5 38.35 74.5 38.25Q74 37.5 73.05 37.15 72.2 36.8 71.6 36.8L69.1 36.8 69.1 36.75 69.95 35.45 79.45 35.45 78.6 36.8Z"/><path fill="#FFF" stroke="none" d="M76 36.8L78.6 36.8 79.45 35.45 69.95 35.45 69.1 36.75 69.1 36.8 71.6 36.8Q72.2 36.8 73.05 37.15 74 37.5 74.5 38.25L74.5 38.35 69.95 38.35 69 39.7 74.65 39.7 74.55 40.35Q73.8 42.35 70.6 42.35L69.5 42.3 69.5 43.65 75.05 50.15 77.2 50.15 77.2 49.95 72.45 44.3Q71.9 43.55 71.9 43.4 73.15 43.4 74.55 42.7 75.25 42.5 76.1 41.5 76.75 40.4 76.8 39.7L78.6 39.7 79.45 38.35 76.75 38.35Q76.45 37.5 76 36.8Z"/></g><animate attributeName="display" fill="freeze" repeatCount="1" dur="2.083s" keyTimes="0;.24;1" values="none;inline;inline"/></g><g display="none"><g id="fig11" transform="matrix(.285 0 0 .285 337.75 405.45)"><animateTransform attributeName="transform" additive="replace" type="translate" dur="2.083s" keyTimes="0;.28;.5;1" values="351.652,428.611;351.652,428.611;359.65,369.5;359.65,369.5" keySplines=".25 .5 .5 1;.25 .5 .5 1;.1 .1 .9 .9" calcMode="spline" fill="freeze"/><animateTransform attributeName="transform" additive="sum" type="scale" dur="2.083s" keyTimes="0;.28;.5;1" values=".285,.285;.285,.285;1,1;1,1" keySplines=".25 .5 .5 1;.25 .5 .5 1;.1 .1 .9 .9" calcMode="spline" fill="freeze"/><animateTransform attributeName="transform" additive="sum" type="translate" dur="2.083s" keyTimes="0;.28;.5;1" values="-48.9,-81.35;-48.9,-81.35;-48.7,-80.9;-48.7,-80.9" keySplines=".25 .5 .5 1;.25 .5 .5 1;.1 .1 .9 .9" calcMode="spline" fill="freeze"/><path fill="#404041" stroke="none" d="M88.6 148.45L88.5 148.45Q88.6 146.3 89.5 145.3 90.45 144.3 92.25 144.3 93.05 144.3 93.65 144.5L93.65 142.95Q93.05 142.85 92.2 142.85 86.75 142.85 86.75 149.55 86.75 151.1 87.25 152.25 87.7 153.4 88.6 153.95 89.5 154.55 90.75 154.55 92.5 154.55 93.5 153.5 94.5 152.45 94.5 150.65 94.5 149.05 93.65 148.1 92.75 147.15 91.2 147.15 90.3 147.15 89.65 147.5 89 147.85 88.6 148.45M92.2 149.15Q92.7 149.7 92.7 150.7 92.7 151.8 92.2 152.45 91.65 153.05 90.7 153.05 89.8 153.05 89.2 152.3 88.6 151.55 88.6 150.45 88.6 149.95 88.9 149.55 89.15 149.1 89.65 148.85 90.15 148.6 90.75 148.6 91.75 148.6 92.2 149.15M79.5 143.15Q78.6 143.5 77.65 144.3L78.65 145.5Q79.45 144.85 80.1 144.65 80.7 144.4 81.35 144.4 82.15 144.4 82.65 144.85 83.1 145.3 83.1 146.05 83.1 146.6 82.9 147.1 82.7 147.6 82.3 148.15 81.85 148.7 80.55 150.05L77.6 153 77.6 154.4 85.35 154.4 85.35 152.8 79.9 152.8 79.9 152.7 81.9 150.8Q83.25 149.55 83.8 148.8 84.4 148.05 84.65 147.35 84.95 146.65 84.95 145.9 84.95 144.5 84 143.65 83.05 142.8 81.45 142.8 80.4 142.8 79.5 143.15M11.7 9.1L11.6 9.05 2.4 9.05 2.3 9.1 2.3 10 2.4 10.1 4.05 10.1Q4.95 10.1 6 10.65 6.75 11.2 7 12.1L2.4 12.1 2.3 12.15 2.3 13.05 2.4 13.1 7 13.1 7 13.65Q6.35 15.95 3.2 15.95L2.6 15.95 2.6 16Q6.4 20.95 8.35 23.45L10.2 23.45 10.2 23.35 5.25 16.95Q5.3 16.95 5.35 16.9 6 16.9 7.6 16 9.4 14.6 9.4 13.1L11.6 13.1 11.7 13.05 11.7 12.15 11.6 12.1 9.35 12.1 9.3 11.8Q8.9 10.55 8.15 10.15L8.15 10.1 11.6 10.1 11.7 10 11.7 9.1M39.45 21.1L36.7 21.1Q36.35 23.4 35.7 26L37.85 26Q39.05 23.25 39.6 21.3L39.45 21.1M23.4 18.1L21.7 18.1 21.7 9.1 18.9 9.1 12.65 18.35 12.65 20.45 18.75 20.45 18.75 23.4 21.7 23.4 21.7 20.45 23.4 20.45 23.4 18.1M18.75 18.1L15.3 18.1 17.9 14.15Q18.4 13.4 18.8 12.6L18.85 12.6 18.75 18.1M31.75 11.3Q32.6 11.3 33.5 11.5L33.5 9.1Q32.8 8.95 31.55 8.95 28 8.95 26.2 11.05 24.4 13.1 24.4 17.35 24.4 19.3 25.05 20.7 25.7 22.15 26.85 22.85 28.05 23.6 29.6 23.6 31.9 23.6 33.2 22.25 34.5 20.95 34.5 18.65 34.5 16.55 33.4 15.3 32.3 14.1 30.4 14.1 28.25 14.1 27.3 15.8L27.2 15.8Q27.25 14.1 27.75 13.2 28.25 12.25 29.25 11.8 30.2 11.3 31.75 11.3M27.4 18.4Q27.4 17.65 28.05 17.05 28.7 16.45 29.6 16.45 30.6 16.45 31.1 17.05 31.55 17.65 31.55 18.7 31.55 19.9 31.05 20.55 30.55 21.2 29.55 21.2 28.6 21.2 28 20.4 27.4 19.6 27.4 18.4M46.55 11.45Q47.35 11.45 47.8 11.85 48.3 12.3 48.3 13.15 48.3 13.7 48.05 14.25 47.85 14.8 47.35 15.4 46.9 16.05 45.3 17.7L41.7 21.3 41.7 23.4 51.7 23.4 51.7 20.85 45.45 20.85 45.45 20.7 47.3 19Q49.15 17.3 49.85 16.4 50.6 15.5 50.95 14.65 51.3 13.75 51.3 12.8 51.3 11.65 50.7 10.75 50.15 9.9 49.1 9.4 48.1 8.9 46.75 8.9 45.75 8.9 44.9 9.1 44.1 9.3 43.4 9.7 42.7 10.05 41.65 10.95L43.3 12.9Q44.15 12.2 44.95 11.8 45.7 11.45 46.55 11.45M63.4 18.1L61.7 18.1 61.7 9.1 58.9 9.1 52.65 18.35 52.65 20.45 58.75 20.45 58.75 23.4 61.7 23.4 61.7 20.45 63.4 20.45 63.4 18.1M57.9 14.15Q58.4 13.4 58.8 12.6L58.85 12.6 58.75 18.1 55.3 18.1 57.9 14.15M73.8 11.85Q73.15 10.45 71.95 9.7 70.8 8.95 69.2 8.95 66.95 8.95 65.65 10.3 64.35 11.6 64.35 13.9 64.35 16.05 65.4 17.25 66.5 18.45 68.35 18.45 69.45 18.45 70.2 18.05 70.95 17.7 71.5 16.8L71.65 16.8Q71.55 18.45 71.05 19.4 70.55 20.35 69.55 20.8 68.55 21.25 67.05 21.25 66.15 21.25 65.35 21.05L65.35 23.45Q66 23.6 67.25 23.6 70.85 23.6 72.65 21.5 74.4 19.45 74.4 15.2 74.4 13.25 73.8 11.85M67.8 12Q68.3 11.4 69.25 11.4 70.2 11.4 70.8 12.2 71.4 13 71.4 14.15 71.4 14.9 70.75 15.55 70.1 16.1 69.2 16.1 68.2 16.1 67.75 15.5 67.25 14.9 67.25 13.9 67.25 12.65 67.8 12Z"/><path fill="#FAC200" stroke="none" d="M56.8 145.35Q58.1 146.5 58.25 146.6L61.15 148.9 61.35 149.1Q61.5 149.25 61.5 149.5L61.4 149.7 59.95 155.35 59.95 155.4 65.15 152.5Q65.3 152.4 65.55 152.5L65.85 152.7 70.9 155.55 69.95 151.4 69.85 151.15 69.8 150.9 69.7 150.6 69.45 149.3Q69.45 149.1 69.6 148.95L72.65 146.35 72.65 145.4 68.25 145.35Q67.95 145.35 67.9 145.15 67.55 144.6 67.3 143.85L65.35 139 65.1 139.55 63.9 143.05Q63.5 144.2 62.95 145.2L62.9 145.25 62.9 145.3 62.85 145.3 62.85 145.35 62.8 145.35 62.8 145.4 56.8 145.35Z"/><path fill="#76CED9" stroke="none" d="M36.1 37.6Q30.8 37.85 27.4 41.15 23.85 44.7 23.85 49.85 23.85 54.9 27.4 58.45 30.85 61.9 36.1 62.1 41.3 61.9 44.7 58.45 48.1 54.9 48.25 49.85 48.1 44.7 44.7 41.15 41.3 37.85 36.1 37.6M39.95 64.9Q38.05 65.7 34.75 65.85L34.3 65.85Q31.1 65.7 29.35 64.9 27.4 64.15 26.45 64.45 25.75 64.75 25.75 67.5L9.9 50.65Q8.1 48.65 5.6 48.65 3.55 48.65 1.95 50.05 .2 51.6 .1 53.85 -.15 56.05 1.5 57.85L21.35 81 19.25 111.7 23.2 111.7 23.2 112.1 19.1 155.75Q18.95 157.95 20.5 159.75 21.8 161.45 24.2 161.8L24.75 161.8Q26.95 161.8 28.45 160.35 29.95 159 30.25 156.75L34.25 114.45 34.95 114.45 38.85 156.75Q39.15 159.05 40.7 160.35 42.25 161.8 44.45 161.8L45 161.8Q47.3 161.4 48.75 159.75 50.2 158 49.95 155.75L45.95 112.1 45.95 111.7 49.9 111.7 47.8 80.6 62.4 63.7Q59.475 62.499 57.15 60.15 55.200 58.303 54 56L43.45 67.5Q43.45 64.75 42.6 64.45 41.75 64.15 39.95 64.9Z"/><path fill="#31A52A" stroke="none" d="M57.15 36.55Q52.4 41.25 52.25 48.4 52.338 52.674 54 56 55.200 58.303 57.15 60.15 59.475 62.499 62.4 63.7 65.387 64.974 69 65.05 76.1 64.9 80.85 60.15 85.55 55.55 85.75 48.4 85.55 41.3 80.85 36.55 76.15 31.8 69 31.55 61.8 31.8 57.15 36.55M69.3 42.55Q68.75 41.6 67.45 41.1 66.15 40.7 65.65 40.7L62.45 40.7 62.45 40.6 63.55 38.95 75.65 38.95 74.5 40.7 71.25 40.7Q71.85 41.55 72.15 42.6L75.65 42.6 74.5 44.4 72.25 44.4Q72.1 45.35 71.35 46.6 70.35 47.85 69.4 48.15 67.6 49.05 66 49.05 66 49.25 66.75 50.2L72.75 57.35 72.75 57.65 70 57.65 62.95 49.35 62.95 47.65 64.4 47.75Q68.45 47.75 69.4 45.2L69.5 44.4 62.35 44.4 63.55 42.6 69.3 42.6 69.3 42.55Z"/><path fill="#FFF" stroke="none" d="M67.45 41.1Q68.75 41.6 69.3 42.55L69.3 42.6 63.55 42.6 62.35 44.4 69.5 44.4 69.4 45.2Q68.45 47.75 64.4 47.75L62.95 47.65 62.95 49.35 70 57.65 72.75 57.65 72.75 57.35 66.75 50.2Q66 49.25 66 49.05 67.6 49.05 69.4 48.15 70.35 47.85 71.35 46.6 72.1 45.35 72.25 44.4L74.5 44.4 75.65 42.6 72.15 42.6Q71.85 41.55 71.25 40.7L74.5 40.7 75.65 38.95 63.55 38.95 62.45 40.6 62.45 40.7 65.65 40.7Q66.15 40.7 67.45 41.1Z"/></g><animate attributeName="display" fill="freeze" repeatCount="1" dur="2.083s" keyTimes="0;.28;1" values="none;inline;inline"/></g><g display="none"><g id="fig10" transform="matrix(.301 0 0 .301 470.75 390.3)"><animateTransform attributeName="transform" additive="replace" type="translate" dur="2.083s" keyTimes="0;.3;.52;1" values="487.712,420.844;487.712,420.844;495.65,348.85;495.65,348.85" keySplines=".25 .5 .5 1;.25 .5 .5 1;.1 .1 .9 .9" calcMode="spline" fill="freeze"/><animateTransform attributeName="transform" additive="sum" type="scale" dur="2.083s" keyTimes="0;.3;.52;1" values=".301,.301;.301,.301;1,1;1,1" keySplines=".25 .5 .5 1;.25 .5 .5 1;.1 .1 .9 .9" calcMode="spline" fill="freeze"/><animateTransform attributeName="transform" additive="sum" type="translate" dur="2.083s" keyTimes="0;.3;.52;1" values="-56.55,-101.7;-56.55,-101.7;-56.3,-101.55;-56.3,-101.55" keySplines=".25 .5 .5 1;.25 .5 .5 1;.1 .1 .9 .9" calcMode="spline" fill="freeze"/><path fill="#404041" stroke="none" d="M97.6 195.7L99.6 195.7 104.1 185.6 104.1 184.3 96.2 184.3 96.2 185.9 102.1 185.9 97.6 195.7M91.05 184.1Q90 184.1 89.1 184.45 88.2 184.8 87.25 185.6L88.25 186.8Q89.05 186.15 89.7 185.95 90.3 185.7 90.95 185.7 91.75 185.7 92.25 186.15 92.7 186.6 92.7 187.35 92.7 187.9 92.5 188.4 92.3 188.9 91.9 189.45 91.45 190 90.15 191.35L87.2 194.3 87.2 195.7 94.95 195.7 94.95 194.1 89.5 194.1 89.5 194 91.5 192.1Q92.85 190.85 93.4 190.1 94 189.35 94.25 188.65 94.55 187.95 94.55 187.2 94.55 185.8 93.6 184.95 92.65 184.1 91.05 184.1M22.4 12.15L22.3 12.1 20.05 12.1 20 11.8Q19.6 10.55 18.85 10.15L18.85 10.1 22.3 10.1 22.4 10 22.4 9.1 22.3 9.05 13.1 9.05 13 9.1 13 10 13.1 10.1 14.75 10.1Q15.65 10.1 16.7 10.65 17.45 11.2 17.7 12.1L13.1 12.1 13 12.15 13 13.05 13.1 13.1 17.7 13.1 17.7 13.65Q17.05 15.95 13.9 15.95L13.3 15.95 13.3 16Q17.1 20.95 19.05 23.45L20.9 23.45 20.9 23.35 15.95 16.95Q16 16.95 16.05 16.9 16.7 16.9 18.3 16 20.1 14.6 20.1 13.1L22.3 13.1 22.4 13.05 22.4 12.15M25.4 9.9Q24.15 10.85 24.15 12.35 24.15 13.4 24.7 14.3 25.2 15.15 26.45 15.95 25 16.65 24.35 17.6 23.7 18.55 23.7 19.8 23.7 21.6 25.05 22.6 26.4 23.6 28.7 23.6 30.95 23.6 32.35 22.55 33.7 21.45 33.7 19.7 33.7 18.6 33.05 17.65 32.35 16.7 30.7 15.85 32.05 15.2 32.7 14.35 33.3 13.5 33.3 12.4 33.3 10.8 32.05 9.85 30.75 8.95 28.7 8.95 26.7 8.95 25.4 9.9M27.45 11.55Q27.95 11.15 28.7 11.15 29.45 11.15 29.95 11.55 30.45 11.95 30.45 12.6 30.45 13.2 30.05 13.7 29.7 14.15 28.7 14.6 27.75 14.1 27.35 13.65 27 13.2 27 12.6 27 11.95 27.45 11.55M28.6 17.2Q29.8 17.8 30.35 18.4 30.9 18.95 30.9 19.6 30.9 20.4 30.35 20.9 29.8 21.4 28.7 21.4 27.65 21.4 27.1 20.9 26.5 20.45 26.5 19.6 26.5 18.15 28.6 17.2M45.2 11.05L45.2 9.15 34.95 9.15 34.95 11.7 42 11.7 36.6 23.4 39.8 23.4 45.2 11.05M50.15 21.1L47.4 21.1Q47.05 23.4 46.4 26L48.55 26Q49.75 23.25 50.3 21.3L50.15 21.1M63.35 18.35L63.35 20.45 69.45 20.45 69.45 23.4 72.4 23.4 72.4 20.45 74.1 20.45 74.1 18.1 72.4 18.1 72.4 9.1 69.6 9.1 63.35 18.35M66 18.1L68.6 14.15Q69.1 13.4 69.5 12.6L69.55 12.6 69.45 18.1 66 18.1M62.4 11.05L62.4 9.15 52.15 9.15 52.15 11.7 59.2 11.7 53.8 23.4 57 23.4 62.4 11.05M83.75 22.55Q85.1 21.45 85.1 19.7 85.1 18.6 84.45 17.65 83.75 16.7 82.1 15.85 83.45 15.2 84.1 14.35 84.7 13.5 84.7 12.4 84.7 10.8 83.45 9.85 82.15 8.95 80.1 8.95 78.1 8.95 76.8 9.9 75.55 10.85 75.55 12.35 75.55 13.4 76.1 14.3 76.6 15.15 77.85 15.95 76.4 16.65 75.75 17.6 75.1 18.55 75.1 19.8 75.1 21.6 76.45 22.6 77.8 23.6 80.1 23.6 82.35 23.6 83.75 22.55M81.75 18.4Q82.3 18.95 82.3 19.6 82.3 20.4 81.75 20.9 81.2 21.4 80.1 21.4 79.05 21.4 78.5 20.9 77.9 20.45 77.9 19.6 77.9 18.15 80 17.2 81.2 17.8 81.75 18.4M81.85 12.6Q81.85 13.2 81.45 13.7 81.1 14.15 80.1 14.6 79.15 14.1 78.75 13.65 78.4 13.2 78.4 12.6 78.4 11.95 78.85 11.55 79.35 11.15 80.1 11.15 80.85 11.15 81.35 11.55 81.85 11.95 81.85 12.6Z"/><path fill="#FAC200" stroke="none" d="M78.9 185.15L76.95 180.3 76.7 180.85 75.5 184.35Q75.1 185.5 74.55 186.5L74.5 186.55 74.5 186.6 74.45 186.6 74.45 186.65 74.4 186.65 74.4 186.7 68.4 186.65Q69.7 187.8 69.85 187.9L72.75 190.2 72.95 190.4Q73.1 190.55 73.1 190.8L73 191 72.55 192.75 72.5 192.9 71.55 196.65 71.55 196.7 76.75 193.8Q76.9 193.7 77.15 193.8L77.45 194 82.5 196.85 81.55 192.7 81.45 192.45 81.4 192.2 81.3 191.9 81.05 190.6Q81.05 190.4 81.2 190.25L85.3 186.75 79.85 186.65Q79.55 186.65 79.5 186.45 79.15 185.9 78.9 185.15Z"/><path fill="#76CED9" stroke="none" d="M58.6 44.65Q54.2 40.25 47.35 40 40.45 40.25 35.95 44.65 31.35 49.2 31.25 56.1 31.35 62.8 35.95 67.35 40.45 71.9 47.35 72.2 54.2 71.9 58.6 67.35 63.15 62.7 63.3 56.1 63.15 49.3 58.6 44.65M12.95 57.2Q10.65 54.45 7.35 54.45 4.75 54.45 2.45 56.35 .2 58.4 .05 61.3 -.25 64.25 1.95 66.6L28 97.05 25.2 137.3 30.4 137.3 30.4 137.9 25.05 195.2Q24.9 198.05 26.9 200.45 28.75 202.75 31.75 203.1L32.45 203.1Q35.4 203.1 37.25 201.25 39.25 199.55 39.7 196.55L44.95 140.95 45.9 140.95 50.95 196.55Q51.35 199.55 53.4 201.25 55.35 203.1 58.35 203.1L59.05 203.1Q62.05 202.75 64 200.45 65.9 198.1 65.6 195.2L60.35 137.9 60.35 137.3 65.45 137.3 62.8 96.5 81.85 74.35Q78.039 72.738 75 69.65 72.481 67.192 70.95 64.15L57 79.35Q57 75.7 55.95 75.3 54.75 74.9 52.45 75.85 49.9 76.9 45.6 77.2L45.05 77.2Q40.85 76.9 38.45 75.85 35.95 74.9 34.7 75.3 33.75 75.65 33.75 79.35L12.95 57.2Z"/><path fill="#31A52A" stroke="none" d="M106.15 38.65Q100 32.3 90.6 32.05 81.15 32.3 75 38.65 68.8 44.8 68.55 54.2 68.698 59.781 70.95 64.15 72.481 67.192 75 69.65 78.039 72.738 81.85 74.35 85.820 75.998 90.6 76.1 100 75.9 106.15 69.65 112.3 63.6 112.6 54.2 112.3 44.8 106.15 38.65M81.9 48.9L83.5 46.6 91 46.6 91 46.5Q90.35 45.3 88.6 44.6 87.05 44.05 86.15 44.05L82.05 44.05 82.05 43.95 83.5 41.8 99.3 41.8Q97.95 44 97.85 44.05L93.6 44.05Q94.35 45.2 94.8 46.6L99.3 46.6 97.85 48.9 94.95 48.9Q94.8 50.05 93.7 51.85 92.3 53.5 91.15 53.85 88.9 55.05 86.75 55.05 86.75 55.2 87.65 56.55L95.55 65.9 95.55 66.35 91.95 66.35 82.7 55.45 82.7 53.15Q83.5 53.35 84.6 53.35 89.95 53.35 91.15 49.95 91.3 49.45 91.3 48.9L81.9 48.9Z"/><path fill="#FFF" stroke="none" d="M83.5 46.6L81.9 48.9 91.3 48.9Q91.3 49.45 91.15 49.95 89.95 53.35 84.6 53.35 83.5 53.35 82.7 53.15L82.7 55.45 91.95 66.35 95.55 66.35 95.55 65.9 87.65 56.55Q86.75 55.2 86.75 55.05 88.9 55.05 91.15 53.85 92.3 53.5 93.7 51.85 94.8 50.05 94.95 48.9L97.85 48.9 99.3 46.6 94.8 46.6Q94.35 45.2 93.6 44.05L97.85 44.05Q97.95 44 99.3 41.8L83.5 41.8 82.05 43.95 82.05 44.05 86.15 44.05Q87.05 44.05 88.6 44.6 90.35 45.3 91 46.5L91 46.6 83.5 46.6Z"/></g><animate attributeName="display" fill="freeze" repeatCount="1" dur="2.083s" keyTimes="0;.3;1" values="none;inline;inline"/></g><g display="none"><g id="fig9" transform="matrix(.285 0 0 .285 608.6 383.9)"><animateTransform attributeName="transform" additive="replace" type="translate" dur="2.083s" keyTimes="0;.34;.56;1" values="627.953,417.256;627.953,417.256;637.95,333.35;637.95,333.35" keySplines=".25 .5 .5 1;.25 .5 .5 1;.1 .1 .9 .9" calcMode="spline" fill="freeze"/><animateTransform attributeName="transform" additive="sum" type="scale" dur="2.083s" keyTimes="0;.34;.56;1" values=".285,.285;.285,.285;1,1;1,1" keySplines=".25 .5 .5 1;.25 .5 .5 1;.1 .1 .9 .9" calcMode="spline" fill="freeze"/><animateTransform attributeName="transform" additive="sum" type="translate" dur="2.083s" keyTimes="0;.34;.56;1" values="-68.1,-117.25;-68.1,-117.25;-67.85,-117;-67.85,-117" keySplines=".25 .5 .5 1;.25 .5 .5 1;.1 .1 .9 .9" calcMode="spline" fill="freeze"/><path fill="#FAC200" stroke="none" d="M90.95 211.8L89.75 215.3Q89.35 216.45 88.8 217.45L88.75 217.5 88.75 217.55 88.7 217.55 88.7 217.6 88.65 217.6 88.65 217.65 82.65 217.6Q83.95 218.75 84.1 218.85L87 221.15 87.2 221.35Q87.35 221.5 87.35 221.75L87.25 221.95 85.8 227.6 85.8 227.65 91 224.75Q91.15 224.65 91.4 224.75L91.7 224.95 96.75 227.8 95.8 223.65 95.7 223.4 95.65 223.15 95.55 222.85 95.3 221.55Q95.3 221.35 95.45 221.2L99.55 217.7 94.1 217.6Q93.8 217.6 93.75 217.4 93.4 216.85 93.15 216.1L91.2 211.25 90.95 211.8Z"/><path fill="#404041" stroke="none" d="M116.4 215.1Q114.85 215.1 113.85 215.8 112.9 216.55 112.9 217.8 112.9 218.65 113.35 219.35 113.8 220.05 114.85 220.7 113.6 221.3 113.1 222.05 112.55 222.8 112.55 223.75 112.55 225.2 113.55 226 114.6 226.8 116.45 226.8 118.2 226.8 119.25 225.95 120.3 225.1 120.3 223.7 120.3 222.8 119.75 222.05 119.15 221.3 117.8 220.6 119.95 219.6 119.95 217.8 119.95 216.55 119 215.85 118.05 215.1 116.4 215.1M114.75 222.45Q115.2 221.9 116.25 221.45L116.45 221.55Q117.5 222 118 222.5 118.55 223.05 118.55 223.65 118.55 224.45 118 224.95 117.4 225.4 116.4 225.4 115.45 225.4 114.85 224.95 114.3 224.5 114.3 223.7 114.3 223 114.75 222.45M114.65 217.95Q114.65 217.25 115.15 216.9 115.6 216.5 116.4 216.5 117.2 216.5 117.7 216.9 118.15 217.25 118.15 217.95 118.15 218.55 117.75 219 117.4 219.45 116.45 219.85 115.65 219.5 115.35 219.25 115 219 114.85 218.65 114.65 218.35 114.65 217.95M109.85 215.9Q108.9 215.05 107.3 215.05 106.25 215.05 105.35 215.4 104.45 215.75 103.5 216.55L104.5 217.75Q105.3 217.1 105.95 216.9 106.55 216.65 107.2 216.65 108 216.65 108.5 217.1 108.95 217.55 108.95 218.3 108.95 218.85 108.75 219.35 108.55 219.85 108.15 220.4 107.7 220.95 106.4 222.3L103.45 225.25 103.45 226.65 111.2 226.65 111.2 225.05 105.75 225.05 105.75 224.95 107.75 223.05Q109.1 221.8 109.65 221.05 110.25 220.3 110.5 219.6 110.8 218.9 110.8 218.15 110.8 216.75 109.85 215.9M22.05 10.65Q22.8 11.2 23.05 12.1L18.45 12.1 18.35 12.15 18.35 13.05 18.45 13.1 23.05 13.1 23.05 13.65Q22.4 15.95 19.25 15.95L18.65 15.95 18.65 16Q22.45 20.95 24.4 23.45L26.25 23.45 26.25 23.35 21.3 16.95Q21.35 16.95 21.4 16.9 22.05 16.9 23.65 16 25.45 14.6 25.45 13.1L27.65 13.1 27.75 13.05 27.75 12.15 27.65 12.1 25.4 12.1 25.35 11.8Q24.95 10.55 24.2 10.15L24.2 10.1 27.65 10.1 27.75 10 27.75 9.1 27.65 9.05 18.45 9.05 18.35 9.1 18.35 10 18.45 10.1 20.1 10.1Q21 10.1 22.05 10.65M36.6 9.1L34.15 9.1 29.55 12.8 31 14.6 32.65 13.3 33.65 12.3 33.6 23.4 36.6 23.4 36.6 9.1M44.25 21.3L44.1 21.1 41.35 21.1Q41 23.4 40.35 26L42.5 26Q43.7 23.25 44.25 21.3M53.8 9.1L51.35 9.1 46.75 12.8 48.2 14.6 49.85 13.3 50.85 12.3 50.8 23.4 53.8 23.4 53.8 9.1M72.85 21.3L72.7 21.1 69.95 21.1Q69.6 23.4 68.95 26L71.1 26Q72.3 23.25 72.85 21.3M66.4 10.75Q65.1 8.9 62.65 8.9 60.1 8.9 58.9 10.7 57.65 12.5 57.65 16.25 57.65 19.9 58.95 21.75 60.2 23.6 62.65 23.6 65.2 23.6 66.45 21.8 67.65 20 67.65 16.25 67.65 12.65 66.4 10.75M64.2 12.5Q64.65 13.65 64.65 16.25 64.65 18.85 64.2 20 63.7 21.15 62.65 21.15 61.6 21.15 61.15 20.05 60.65 18.9 60.65 16.25 60.65 13.65 61.15 12.5 61.6 11.35 62.65 11.35 63.7 11.35 64.2 12.5M83.65 21.8Q84.85 20 84.85 16.25 84.85 12.65 83.6 10.75 82.3 8.9 79.85 8.9 77.3 8.9 76.1 10.7 74.85 12.5 74.85 16.25 74.85 19.9 76.15 21.75 77.4 23.6 79.85 23.6 82.4 23.6 83.65 21.8M81.85 16.25Q81.85 18.85 81.4 20 80.9 21.15 79.85 21.15 78.8 21.15 78.35 20.05 77.85 18.9 77.85 16.25 77.85 13.65 78.35 12.5 78.8 11.35 79.85 11.35 80.9 11.35 81.4 12.5 81.85 13.65 81.85 16.25M95 10.75Q93.7 8.9 91.25 8.9 88.7 8.9 87.5 10.7 86.25 12.5 86.25 16.25 86.25 19.9 87.55 21.75 88.8 23.6 91.25 23.6 93.8 23.6 95.05 21.8 96.25 20 96.25 16.25 96.25 12.65 95 10.75M89.25 16.25Q89.25 13.65 89.75 12.5 90.2 11.35 91.25 11.35 92.3 11.35 92.8 12.5 93.25 13.65 93.25 16.25 93.25 18.85 92.8 20 92.3 21.15 91.25 21.15 90.2 21.15 89.75 20.05 89.25 18.9 89.25 16.25M106.4 10.75Q105.1 8.9 102.65 8.9 100.1 8.9 98.9 10.7 97.65 12.5 97.65 16.25 97.65 19.9 98.95 21.75 100.2 23.6 102.65 23.6 105.2 23.6 106.45 21.8 107.65 20 107.65 16.25 107.65 12.65 106.4 10.75M104.2 20Q103.7 21.15 102.65 21.15 101.6 21.15 101.15 20.05 100.65 18.9 100.65 16.25 100.65 13.65 101.15 12.5 101.6 11.35 102.65 11.35 103.7 11.35 104.2 12.5 104.65 13.65 104.65 16.25 104.65 18.85 104.2 20Z"/><path fill="#76CED9" stroke="none" d="M57.05 37.35Q48.85 37.65 43.3 42.95 37.8 48.55 37.65 56.75 37.8 64.8 43.3 70.35 48.85 75.85 57.05 76.2 65.3 75.85 70.65 70.35 76.15 64.8 76.3 56.75 76.15 48.55 70.65 42.95 65.35 37.65 57.05 37.35M90.4 73.1Q87.375 70.135 85.5 66.5L68.7 84.8Q68.7 80.35 67.45 79.9 66.05 79.45 63.2 80.6 60.05 81.85 54.95 82.2L54.3 82.2Q49.35 81.85 46.35 80.6 43.4 79.4 41.8 79.9 40.65 80.35 40.65 84.8L15.6 58.1Q12.8 54.75 8.85 54.75 5.75 54.75 2.9 57.05 .3 59.55 .05 63.05 -.25 66.7 2.3 69.4L33.75 106.15 30.35 154.7 36.65 154.7 36.65 155.4 30.2 224.5Q30.05 228.05 32.4 230.85 34.55 233.5 38.25 234.05L39.1 234.05Q42.65 234.05 44.9 231.8 47.4 229.7 47.85 226.15L54.2 159.1 55.3 159.1 61.4 226.15Q61.95 229.75 64.35 231.8 66.85 234.05 70.35 234.05L71.2 234.05Q74.85 233.55 77.15 230.85 79.4 228.15 79.1 224.5L72.75 155.4 72.75 154.7 78.9 154.7 75.7 105.5 98.75 78.75Q94.101 76.801 90.4 73.1Z"/><path fill="#31A52A" stroke="none" d="M109.25 27.75Q97.9 28.05 90.4 35.7 82.95 43.15 82.65 54.45 82.828 61.191 85.5 66.5 87.375 70.135 90.4 73.1 94.101 76.801 98.75 78.75 103.502 80.748 109.25 80.9 120.6 80.6 128 73.1 135.4 65.9 135.75 54.45 135.35 43.1 128 35.7 120.6 28.05 109.25 27.75M98.9 42.1L100.65 39.5 119.7 39.5Q118.25 42.05 117.95 42.25L112.85 42.25Q113.75 43.55 114.3 45.3L119.7 45.3 117.95 48.1 114.5 48.1Q114.25 49.6 112.95 51.65 111.3 53.65 109.9 54.05 107.15 55.5 104.6 55.5 104.6 55.65 105.65 57.3L115.2 68.6 115.2 69.1 110.85 69.1 99.7 56 99.7 53.2Q100.95 53.45 102 53.45 108.5 53.45 109.9 49.35 110.1 48.45 110.1 48.1L98.75 48.1 100.65 45.3 109.7 45.3 109.7 45.2Q108.9 43.65 106.8 42.9 105.05 42.25 103.85 42.25L98.9 42.25 98.9 42.1Z"/><path fill="#FFF" stroke="none" d="M100.65 39.5L98.9 42.1 98.9 42.25 103.85 42.25Q105.05 42.25 106.8 42.9 108.9 43.65 109.7 45.2L109.7 45.3 100.65 45.3 98.75 48.1 110.1 48.1Q110.1 48.45 109.9 49.35 108.5 53.45 102 53.45 100.95 53.45 99.7 53.2L99.7 56 110.85 69.1 115.2 69.1 115.2 68.6 105.65 57.3Q104.6 55.65 104.6 55.5 107.15 55.5 109.9 54.05 111.3 53.65 112.95 51.65 114.25 49.6 114.5 48.1L117.95 48.1 119.7 45.3 114.3 45.3Q113.75 43.55 112.85 42.25L117.95 42.25Q118.25 42.05 119.7 39.5L100.65 39.5Z"/></g><animate attributeName="display" fill="freeze" repeatCount="1" dur="2.083s" keyTimes="0;.34;1" values="none;inline;inline"/></g><g display="none"><g id="fig8" transform="matrix(.281 0 0 .281 762.75 377.5)"><animateTransform attributeName="transform" additive="replace" type="translate" dur="2.083s" keyTimes="0;.36;.58;1" values="785.154,415.455;785.154,415.455;796.1,315.45;796.1,315.45" keySplines=".25 .5 .5 1;.25 .5 .5 1;.1 .1 .9 .9" calcMode="spline" fill="freeze"/><animateTransform attributeName="transform" additive="sum" type="scale" dur="2.083s" keyTimes="0;.36;.58;1" values=".281,.281;.281,.281;1,1;1,1" keySplines=".25 .5 .5 1;.25 .5 .5 1;.1 .1 .9 .9" calcMode="spline" fill="freeze"/><animateTransform attributeName="transform" additive="sum" type="translate" dur="2.083s" keyTimes="0;.36;.58;1" values="-79.85,-135.15;-79.85,-135.15;-79.6,-134.95;-79.6,-134.95" keySplines=".25 .5 .5 1;.25 .5 .5 1;.1 .1 .9 .9" calcMode="spline" fill="freeze"/><path fill="#404041" stroke="none" d="M132.9 256Q132.9 254.45 132.4 253.3 131.9 252.15 131 251.55 130.1 251 128.85 251 127.15 251 126.15 252.05 125.1 253.1 125.1 254.9 125.1 256.55 126 257.5 126.85 258.45 128.35 258.45 129.25 258.45 129.9 258.1 130.55 257.8 131 257.1L131.1 257.1Q131 259.25 130.1 260.25 129.2 261.25 127.35 261.25 126.65 261.25 125.95 261.05L125.95 262.6Q126.4 262.7 127.45 262.7 130.15 262.7 131.5 261.05 132.9 259.4 132.9 256M128.9 252.5Q129.5 252.5 130 252.85 130.5 253.2 130.75 253.8 131.05 254.4 131.05 255.1 131.05 255.85 130.4 256.4 129.75 256.95 128.85 256.95 127.85 256.95 127.4 256.4 126.95 255.85 126.95 254.85 126.95 253.75 127.45 253.15 127.95 252.5 128.9 252.5M117.95 251.3Q117.05 251.65 116.1 252.45L117.1 253.65Q117.9 253 118.55 252.8 119.15 252.55 119.8 252.55 120.6 252.55 121.1 253 121.55 253.45 121.55 254.2 121.55 254.75 121.35 255.25 121.15 255.75 120.75 256.3 120.3 256.85 119 258.2L116.05 261.15 116.05 262.55 123.8 262.55 123.8 260.95 118.35 260.95 118.35 260.85 120.35 258.95Q121.7 257.7 122.25 256.95 122.85 256.2 123.1 255.5 123.4 254.8 123.4 254.05 123.4 252.65 122.45 251.8 121.5 250.95 119.9 250.95 118.85 250.95 117.95 251.3M33.35 12.2L33.25 12.15 31 12.15 30.95 11.85Q30.55 10.6 29.8 10.2L29.8 10.15 33.25 10.15 33.35 10.05 33.35 9.15 33.25 9.1 24.05 9.1 23.95 9.15 23.95 10.05 24.05 10.15 25.7 10.15Q26.6 10.15 27.65 10.7 28.4 11.25 28.65 12.15L24.05 12.15 23.95 12.2 23.95 13.1 24.05 13.15 28.65 13.15 28.65 13.7Q28 16 24.85 16L24.25 16 24.25 16.05Q28.05 21 30 23.5L31.85 23.5 31.85 23.4 26.9 17Q26.95 17 27 16.95 27.65 16.95 29.25 16.05 31.05 14.65 31.05 13.15L33.25 13.15 33.35 13.1 33.35 12.2M42.2 23.45L42.2 9.15 39.75 9.15 35.15 12.85 36.6 14.65 38.25 13.35 39.25 12.35 39.2 23.45 42.2 23.45M49.7 21.15L46.95 21.15Q46.6 23.45 45.95 26.05L48.1 26.05Q49.3 23.3 49.85 21.35L49.7 21.15M78.3 21.15L75.55 21.15Q75.2 23.45 74.55 26.05L76.7 26.05Q77.9 23.3 78.45 21.35L78.3 21.15M61.95 11.1L61.95 9.2 51.7 9.2 51.7 11.75 58.75 11.75 53.35 23.45 56.55 23.45 61.95 11.1M72.1 11.75L72.1 9.15 64.35 9.15 63.8 16.45 65 17.1 67.15 16.75Q70.05 16.75 70.05 18.95 70.05 21.2 67.25 21.2 66.35 21.2 65.3 20.95 64.3 20.7 63.55 20.25L63.55 22.85Q65 23.65 67.35 23.65 70.1 23.65 71.6 22.35 73.05 21.05 73.05 18.65 73.05 16.65 71.85 15.5 70.6 14.35 68.55 14.35 67.65 14.35 67.05 14.45L66.75 14.55 67 11.75 72.1 11.75M89.2 10.8Q87.9 8.95 85.45 8.95 82.9 8.95 81.7 10.75 80.45 12.55 80.45 16.3 80.45 19.95 81.75 21.8 83 23.65 85.45 23.65 88 23.65 89.25 21.85 90.45 20.05 90.45 16.3 90.45 12.7 89.2 10.8M87 12.55Q87.45 13.7 87.45 16.3 87.45 18.9 87 20.05 86.5 21.2 85.45 21.2 84.4 21.2 83.95 20.1 83.45 18.95 83.45 16.3 83.45 13.7 83.95 12.55 84.4 11.4 85.45 11.4 86.5 11.4 87 12.55M100.6 10.8Q99.3 8.95 96.85 8.95 94.3 8.95 93.1 10.75 91.85 12.55 91.85 16.3 91.85 19.95 93.15 21.8 94.4 23.65 96.85 23.65 99.4 23.65 100.65 21.85 101.85 20.05 101.85 16.3 101.85 12.7 100.6 10.8M98.4 12.55Q98.85 13.7 98.85 16.3 98.85 18.9 98.4 20.05 97.9 21.2 96.85 21.2 95.8 21.2 95.35 20.1 94.85 18.95 94.85 16.3 94.85 13.7 95.35 12.55 95.8 11.4 96.85 11.4 97.9 11.4 98.4 12.55M108.25 8.95Q105.7 8.95 104.5 10.75 103.25 12.55 103.25 16.3 103.25 19.95 104.55 21.8 105.8 23.65 108.25 23.65 110.8 23.65 112.05 21.85 113.25 20.05 113.25 16.3 113.25 12.7 112 10.8 110.7 8.95 108.25 8.95M110.25 16.3Q110.25 18.9 109.8 20.05 109.3 21.2 108.25 21.2 107.2 21.2 106.75 20.1 106.25 18.95 106.25 16.3 106.25 13.7 106.75 12.55 107.2 11.4 108.25 11.4 109.3 11.4 109.8 12.55 110.25 13.7 110.25 16.3Z"/><path fill="#FAC200" stroke="none" d="M106.7 253.5Q106.4 253.5 106.35 253.3 106 252.75 105.75 252L103.8 247.15 103.55 247.7 102.35 251.2Q101.95 252.35 101.4 253.35L101.35 253.4 101.35 253.45 101.3 253.45 101.3 253.5 101.25 253.5 101.25 253.55 95.25 253.5Q96.55 254.65 96.7 254.75L99.6 257.05 99.8 257.25Q99.95 257.4 99.95 257.65L99.85 257.85 98.4 263.5 98.4 263.55 103.6 260.65Q103.75 260.55 104 260.65L104.3 260.85 109.1 263.55 109.35 263.55 108.4 259.55 108.3 259.3 108.25 259.05 108.15 258.75 107.9 257.45Q107.9 257.25 108.05 257.1L112.15 253.6 106.7 253.5Z"/><path fill="#76CED9" stroke="none" d="M82.8 78Q89.25 71.6 89.45 62.05 89.25 52.4 82.8 45.9 76.45 39.6 66.85 39.25 57.2 39.65 50.7 45.9 44.2 52.5 44.05 62.05 44.2 71.5 50.7 78 57.2 84.5 66.85 84.85 76.45 84.5 82.8 78M106.05 81.25Q102.45 77.75 100.3 73.5L80.55 94.95Q80.55 89.75 79 89.2 77.5 88.65 74.1 89.95 70.45 91.5 64.4 91.9L63.6 91.9Q57.7 91.5 54.35 89.95 50.7 88.7 49.05 89.2 47.65 89.7 47.65 94.95L18.25 63.6Q15.05 59.8 10.3 59.8 6.7 59.8 3.45 62.45 .2 65.25 .05 69.45 -.4 73.6 2.7 76.85L39.5 119.95 35.55 176.95 42.95 176.95 42.95 177.7 35.35 258.8Q35.15 262.95 38 266.2 40.4 269.4 44.85 269.95L45.8 269.95Q49.95 269.95 52.65 267.3 55.4 264.85 56 260.65L63.45 182.05 64.8 182.05 71.95 260.65Q72.55 264.8 75.4 267.3 78.3 269.95 82.45 269.95L83.35 269.95Q87.7 269.45 90.4 266.2 93 263 92.7 258.8L85.3 177.7 85.3 176.95 92.5 176.95 88.7 119.2 115.8 87.85Q110.35 85.55 106.05 81.25Z"/><path fill="#31A52A" stroke="none" d="M150.05 37.4Q141.35 28.5 128.1 28.1 114.75 28.5 106.05 37.4 97.25 46.15 96.95 59.45 97.15 67.3 100.3 73.5 102.45 77.75 106.05 81.25 110.35 85.55 115.8 87.85 121.35 90.15 128.1 90.35 141.35 90 150.05 81.25 158.85 72.7 159.2 59.45 158.85 46.1 150.05 37.4M133.95 48.7L140.4 48.7 138.3 51.95 134.15 51.95Q133.95 53.65 132.45 56.1 130.55 58.3 128.85 59 125.55 60.65 122.55 60.65 122.55 60.85 123.9 62.8L135.1 76.05 135.1 76.6 129.95 76.6 116.85 61.25 116.85 58Q118.05 58.2 119.55 58.2 127.1 58.2 128.85 53.45 129 52.7 129 51.95L115.75 51.95 118 48.7 128.65 48.7 128.65 48.5Q127.7 46.85 125.2 45.85 123.1 45.1 121.8 45.1L115.95 45.1 115.95 44.9 118 41.85 140.4 41.85 138.3 45.1 132.25 45.1Q133.35 46.55 133.95 48.7Z"/><path fill="#FFF" stroke="none" d="M140.4 48.7L133.95 48.7Q133.35 46.55 132.25 45.1L138.3 45.1 140.4 41.85 118 41.85 115.95 44.9 115.95 45.1 121.8 45.1Q123.1 45.1 125.2 45.85 127.7 46.85 128.65 48.5L128.65 48.7 118 48.7 115.75 51.95 129 51.95Q129 52.7 128.85 53.45 127.1 58.2 119.55 58.2 118.05 58.2 116.85 58L116.85 61.25 129.95 76.6 135.1 76.6 135.1 76.05 123.9 62.8Q122.55 60.85 122.55 60.65 125.55 60.65 128.85 59 130.55 58.3 132.45 56.1 133.95 53.65 134.15 51.95L138.3 51.95 140.4 48.7Z"/></g><animate attributeName="display" fill="freeze" repeatCount="1" dur="2.083s" keyTimes="0;.36;1" values="none;inline;inline"/></g><g display="none"><g id="fig07" transform="matrix(.264 0 0 .264 943.85 365.2)"><animateTransform attributeName="transform" additive="replace" type="translate" dur="2.083s" keyTimes="0;.38;.6;1" values="969.913,409.301;969.913,409.301;979.85,283.3;979.85,283.3" keySplines=".25 .5 .5 1;.25 .5 .5 1;.1 .1 .9 .9" calcMode="spline" fill="freeze"/><animateTransform attributeName="transform" additive="sum" type="scale" dur="2.083s" keyTimes="0;.38;.6;1" values=".264,.264;.264,.264;1,1;1,1" keySplines=".25 .5 .5 1;.25 .5 .5 1;.1 .1 .9 .9" calcMode="spline" fill="freeze"/><animateTransform attributeName="transform" additive="sum" type="translate" dur="2.083s" keyTimes="0;.38;.6;1" values="-98.95,-167.3;-98.95,-167.3;-98.65,-167.1;-98.65,-167.1" keySplines=".25 .5 .5 1;.25 .5 .5 1;.1 .1 .9 .9" calcMode="spline" fill="freeze"/><path fill="#FAC200" stroke="none" d="M123.55 317.8Q124.85 318.95 125 319.05L127.9 321.35 128.1 321.55Q128.25 321.7 128.25 321.95L128.15 322.15 126.7 327.8 126.7 327.85 131.9 324.95Q132.05 324.85 132.3 324.95L132.6 325.15 137.65 328 136.7 323.85 136.6 323.6 136.55 323.35 136.45 323.05 136.2 321.75Q136.2 321.55 136.35 321.4L140.45 317.9 135 317.8Q134.7 317.8 134.65 317.6 134.3 317.05 134.05 316.3L132.1 311.45 131.85 312 130.65 315.5Q130.25 316.65 129.7 317.65L129.65 317.7 129.65 317.75 129.6 317.75 129.6 317.8 129.55 317.8 129.55 317.85 123.55 317.8Z"/><path fill="#404041" stroke="none" d="M158.85 315.45L157.3 315.45 153.95 318.05 154.9 319.25 156.65 317.8 157.05 317.4 157 326.85 158.85 326.85 158.85 315.45M146.05 320.25L146.05 321.7 147.05 321.7Q148.6 321.7 149.35 322.15 150.05 322.6 150.05 323.5 150.05 324.5 149.4 325 148.75 325.5 147.4 325.5 146.65 325.5 145.85 325.3 145.05 325.1 144.3 324.75L144.3 326.4Q145.65 327 147.55 327 149.65 327 150.85 326.1 152 325.2 152 323.55 152 322.45 151.3 321.75 150.65 321.05 149.25 320.9L149.25 320.85Q150.4 320.6 151.05 319.85 151.65 319.15 151.65 318.05 151.65 316.75 150.7 316 149.75 315.25 148 315.25 145.9 315.25 144.35 316.4L145.25 317.7Q146.05 317.15 146.65 317 147.3 316.8 147.9 316.8 148.85 316.8 149.35 317.2 149.8 317.6 149.8 318.35 149.8 320.25 147.05 320.25L146.05 320.25M60.2 21.35L60.05 21.15 57.3 21.15Q56.95 23.45 56.3 26.05L58.45 26.05Q59.65 23.3 60.2 21.35M43.7 9.15L43.6 9.1 34.4 9.1 34.3 9.15 34.3 10.05 34.4 10.15 36.05 10.15Q36.95 10.15 38 10.7 38.75 11.25 39 12.15L34.4 12.15 34.3 12.2 34.3 13.1 34.4 13.15 39 13.15 39 13.7Q38.35 16 35.2 16L34.6 16 34.6 16.05Q38.4 21 40.35 23.5L42.2 23.5 42.2 23.4 37.25 17Q37.3 17 37.35 16.95 38 16.95 39.6 16.05 41.4 14.65 41.4 13.15L43.6 13.15 43.7 13.1 43.7 12.2 43.6 12.15 41.35 12.15 41.3 11.85Q40.9 10.6 40.15 10.2L40.15 10.15 43.6 10.15 43.7 10.05 43.7 9.15M53.7 9.15L50.9 9.15 44.65 18.4 44.65 20.5 50.75 20.5 50.75 23.45 53.7 23.45 53.7 20.5 55.4 20.5 55.4 18.15 53.7 18.15 53.7 9.15M47.3 18.15L49.9 14.2Q50.4 13.45 50.8 12.65L50.85 12.65 50.75 18.15 47.3 18.15M70.55 9.9Q69.25 9 67.2 9 65.2 9 63.9 9.95 62.65 10.9 62.65 12.4 62.65 13.45 63.2 14.35 63.7 15.2 64.95 16 63.5 16.7 62.85 17.65 62.2 18.6 62.2 19.85 62.2 21.65 63.55 22.65 64.9 23.65 67.2 23.65 69.45 23.65 70.85 22.6 72.2 21.5 72.2 19.75 72.2 18.65 71.55 17.7 70.85 16.75 69.2 15.9 70.55 15.25 71.2 14.4 71.8 13.55 71.8 12.45 71.8 10.85 70.55 9.9M65.95 11.6Q66.45 11.2 67.2 11.2 67.95 11.2 68.45 11.6 68.95 12 68.95 12.65 68.95 13.25 68.55 13.75 68.2 14.2 67.2 14.65 66.25 14.15 65.85 13.7 65.5 13.25 65.5 12.65 65.5 12 65.95 11.6M67.1 17.25Q68.3 17.85 68.85 18.45 69.4 19 69.4 19.65 69.4 20.45 68.85 20.95 68.3 21.45 67.2 21.45 66.15 21.45 65.6 20.95 65 20.5 65 19.65 65 18.2 67.1 17.25M88.8 21.35L88.65 21.15 85.9 21.15Q85.55 23.45 84.9 26.05L87.05 26.05Q88.25 23.3 88.8 21.35M82.4 21.85Q83.6 20.05 83.6 16.3 83.6 12.7 82.35 10.8 81.05 8.95 78.6 8.95 76.05 8.95 74.85 10.75 73.6 12.55 73.6 16.3 73.6 19.95 74.9 21.8 76.15 23.65 78.6 23.65 81.15 23.65 82.4 21.85M76.6 16.3Q76.6 13.7 77.1 12.55 77.55 11.4 78.6 11.4 79.65 11.4 80.15 12.55 80.6 13.7 80.6 16.3 80.6 18.9 80.15 20.05 79.65 21.2 78.6 21.2 77.55 21.2 77.1 20.1 76.6 18.95 76.6 16.3M99.55 10.8Q98.25 8.95 95.8 8.95 93.25 8.95 92.05 10.75 90.8 12.55 90.8 16.3 90.8 19.95 92.1 21.8 93.35 23.65 95.8 23.65 98.35 23.65 99.6 21.85 100.8 20.05 100.8 16.3 100.8 12.7 99.55 10.8M97.35 12.55Q97.8 13.7 97.8 16.3 97.8 18.9 97.35 20.05 96.85 21.2 95.8 21.2 94.75 21.2 94.3 20.1 93.8 18.95 93.8 16.3 93.8 13.7 94.3 12.55 94.75 11.4 95.8 11.4 96.85 11.4 97.35 12.55M110.95 10.8Q109.65 8.95 107.2 8.95 104.65 8.95 103.45 10.75 102.2 12.55 102.2 16.3 102.2 19.95 103.5 21.8 104.75 23.65 107.2 23.65 109.75 23.65 111 21.85 112.2 20.05 112.2 16.3 112.2 12.7 110.95 10.8M108.75 12.55Q109.2 13.7 109.2 16.3 109.2 18.9 108.75 20.05 108.25 21.2 107.2 21.2 106.15 21.2 105.7 20.1 105.2 18.95 105.2 16.3 105.2 13.7 105.7 12.55 106.15 11.4 107.2 11.4 108.25 11.4 108.75 12.55M122.4 21.85Q123.6 20.05 123.6 16.3 123.6 12.7 122.35 10.8 121.05 8.95 118.6 8.95 116.05 8.95 114.85 10.75 113.6 12.55 113.6 16.3 113.6 19.95 114.9 21.8 116.15 23.65 118.6 23.65 121.15 23.65 122.4 21.85M120.6 16.3Q120.6 18.9 120.15 20.05 119.65 21.2 118.6 21.2 117.55 21.2 117.1 20.1 116.6 18.95 116.6 16.3 116.6 13.7 117.1 12.55 117.55 11.4 118.6 11.4 119.65 11.4 120.15 12.55 120.6 13.7 120.6 16.3Z"/><path fill="#76CED9" stroke="none" d="M102.7 96.25Q110.65 88.25 110.95 76.45 110.65 64.5 102.7 56.45 94.9 48.65 82.9 48.2 70.95 48.65 62.9 56.45 54.9 64.5 54.65 76.45 54.9 88.25 62.9 96.25 70.9 104.25 82.9 104.7 94.95 104.25 102.7 96.25M22.65 78.4Q18.6 73.65 12.8 73.65 8.3 73.65 4.3 76.95 .3 80.45 .05 85.65 -.4 90.8 3.35 94.85L49 148.3 44.05 218.95 53.25 218.95 53.25 219.85 43.85 320.4Q43.55 325.6 47.15 329.6 50.15 333.55 55.65 334.25L56.8 334.25Q62 334.25 65.3 331 68.75 327.95 69.5 322.75L78.65 225.25 80.35 225.25 89.25 322.75Q90 327.95 93.5 331 97.05 334.25 102.2 334.25L103.4 334.25Q108.8 333.6 112.1 329.6 115.4 325.6 114.95 320.4L105.75 219.85 105.75 218.95 114.7 218.95 110 147.35 143.6 108.45Q136.75 105.6 131.4 100.25 127 95.95 124.35 90.75L99.9 117.25Q99.9 110.85 98 110.15 96.05 109.5 91.85 111.05 87.35 113 79.9 113.45L78.9 113.45Q71.6 113 67.4 111.05 62.9 109.5 60.8 110.15 59.15 110.85 59.15 117.25L22.65 78.4Z"/><path fill="#31A52A" stroke="none" d="M197.35 73.2Q196.9 56.75 186 45.85 175.2 34.8 158.75 34.35 142.25 34.8 131.4 45.85 120.55 56.8 120.1 73.2 120.35 83 124.35 90.75 127 95.95 131.4 100.25 136.75 105.6 143.6 108.45 150.45 111.25 158.75 111.5 175.2 111.05 186 100.25 196.9 89.65 197.35 73.2M167.4 93.75L167.4 94.45 161 94.45 144.8 75.4 144.8 71.4Q146.2 71.6 148.1 71.6 157.5 71.6 159.6 65.75 159.85 64.65 159.85 63.9L143.4 63.9 146.2 59.85 159.4 59.85 159.4 59.65Q158.2 57.5 155.15 56.3 152.6 55.4 150.9 55.4L143.65 55.4 143.65 55.15 146.2 51.4 174 51.4 171.35 55.4 163.85 55.4Q165.25 57.3 165.95 59.85L174 59.85 171.35 63.9 166.2 63.9Q165.9 66 164.1 69.05 161.65 71.85 159.6 72.6 155.55 74.7 151.85 74.7 151.85 75 153.5 77.3L167.4 93.75Z"/><path fill="#FFF" stroke="none" d="M167.4 94.45L167.4 93.75 153.5 77.3Q151.85 75 151.85 74.7 155.55 74.7 159.6 72.6 161.65 71.85 164.1 69.05 165.9 66 166.2 63.9L171.35 63.9 174 59.85 165.95 59.85Q165.25 57.3 163.85 55.4L171.35 55.4 174 51.4 146.2 51.4 143.65 55.15 143.65 55.4 150.9 55.4Q152.6 55.4 155.15 56.3 158.2 57.5 159.4 59.65L159.4 59.85 146.2 59.85 143.4 63.9 159.85 63.9Q159.85 64.65 159.6 65.75 157.5 71.6 148.1 71.6 146.2 71.6 144.8 71.4L144.8 75.4 161 94.45 167.4 94.45Z"/></g><animate attributeName="display" fill="freeze" repeatCount="1" dur="2.083s" keyTimes="0;.38;1" values="none;inline;inline"/></g><g display="none"><image overflow="visible" xlink:href="img/flash0.ai_9/Layer_1/Group_1_0.png" height="232" width="905" transform="translate(102 59)"/><animate attributeName="display" fill="freeze" repeatCount="1" dur="2.083s" keyTimes="0;.2;1" values="none;inline;inline"/><animate attributeName="mask" repeatCount="1" dur="2.083s" keyTimes="0;.2;1" values="none;url(#mask_);url(#mask_)" fill="freeze"/></g><mask id="mask_"><g><g display="none"><g><g id="Layer19_0_FILL"><path fill="#FFF" stroke="none" d="M1044.6 399.7L1044.6 -20.25 -29.35 -20.25 -29.35 399.7 1044.6 399.7Z" fill-opacity="1"/></g></g><animate attributeName="display" fill="freeze" repeatCount="1" dur="2.083s" keyTimes="0;.56;1" values="none;inline;inline"/></g><g display="none"><g><g id="Layer18_0_FILL"><path fill="#FFF" stroke="none" d="M1041.65 399.7L1041.65 -20.25 -29.35 -20.25 -29.35 399.7 1041.65 399.7Z" fill-opacity="1"/></g></g><animate attributeName="display" fill="freeze" repeatCount="1" dur="2.083s" keyTimes="0;.54;.56;1" values="none;inline;none;none"/></g><g display="none"><g><g id="Layer17_0_FILL"><path fill="#FFF" stroke="none" d="M1032.9 399.7L1032.9 -20.25 -29.3 -20.25 -29.3 399.7 1032.9 399.7Z" fill-opacity="1"/></g></g><animate attributeName="display" fill="freeze" repeatCount="1" dur="2.083s" keyTimes="0;.52;.54;1" values="none;inline;none;none"/></g><g display="none"><g><g id="Layer16_0_FILL"><path fill="#FFF" stroke="none" d="M1018.1 399.7L1018.1 -20.25 -29.35 -20.25 -29.35 399.7 1018.1 399.7Z" fill-opacity="1"/></g></g><animate attributeName="display" fill="freeze" repeatCount="1" dur="2.083s" keyTimes="0;.5;.52;1" values="none;inline;none;none"/></g><g display="none"><g><g id="Layer15_0_FILL"><path fill="#FFF" stroke="none" d="M997.55 399.7L997.55 -20.25 -29.35 -20.25 -29.35 399.7 997.55 399.7Z" fill-opacity="1"/></g></g><animate attributeName="display" fill="freeze" repeatCount="1" dur="2.083s" keyTimes="0;.48;.5;1" values="none;inline;none;none"/></g><g display="none"><g><g id="Layer14_0_FILL"><path fill="#FFF" stroke="none" d="M971.05 399.7L971.05 -20.25 -29.35 -20.25 -29.35 399.7 971.05 399.7Z" fill-opacity="1"/></g></g><animate attributeName="display" fill="freeze" repeatCount="1" dur="2.083s" keyTimes="0;.46;.48;1" values="none;inline;none;none"/></g><g display="none"><g><g id="Layer13_0_FILL"><path fill="#FFF" stroke="none" d="M938.7 399.7L938.7 -20.25 -29.35 -20.25 -29.35 399.7 938.7 399.7Z" fill-opacity="1"/></g></g><animate attributeName="display" fill="freeze" repeatCount="1" dur="2.083s" keyTimes="0;.44;.46;1" values="none;inline;none;none"/></g><g display="none"><g><g id="Layer12_0_FILL"><path fill="#FFF" stroke="none" d="M900.55 399.7L900.55 -20.25 -29.3 -20.25 -29.3 399.7 900.55 399.7Z" fill-opacity="1"/></g></g><animate attributeName="display" fill="freeze" repeatCount="1" dur="2.083s" keyTimes="0;.42;.44;1" values="none;inline;none;none"/></g><g display="none"><g><g id="Layer11_0_FILL"><path fill="#FFF" stroke="none" d="M856.4 399.7L856.4 -20.25 -29.3 -20.25 -29.3 399.7 856.4 399.7Z" fill-opacity="1"/></g></g><animate attributeName="display" fill="freeze" repeatCount="1" dur="2.083s" keyTimes="0;.4;.42;1" values="none;inline;none;none"/></g><g display="none"><g><g id="Layer10_0_FILL"><path fill="#FFF" stroke="none" d="M806.4 399.7L806.4 -20.25 -29.3 -20.25 -29.3 399.7 806.4 399.7Z" fill-opacity="1"/></g></g><animate attributeName="display" fill="freeze" repeatCount="1" dur="2.083s" keyTimes="0;.38;.4;1" values="none;inline;none;none"/></g><g display="none"><g><g id="Layer9_0_FILL"><path fill="#FFF" stroke="none" d="M750.55 399.7L750.55 -20.25 -29.3 -20.25 -29.3 399.7 750.55 399.7Z" fill-opacity="1"/></g></g><animate attributeName="display" fill="freeze" repeatCount="1" dur="2.083s" keyTimes="0;.36;.38;1" values="none;inline;none;none"/></g><g display="none"><g><g id="Layer8_0_FILL"><path fill="#FFF" stroke="none" d="M688.7 399.7L688.7 -20.25 -29.35 -20.25 -29.35 399.7 688.7 399.7Z" fill-opacity="1"/></g></g><animate attributeName="display" fill="freeze" repeatCount="1" dur="2.083s" keyTimes="0;.34;.36;1" values="none;inline;none;none"/></g><g display="none"><g><g id="Layer7_0_FILL"><path fill="#FFF" stroke="none" d="M621.05 -20.25L-29.35 -20.25 -29.35 399.7 621.05 399.7 621.05 -20.25Z" fill-opacity="1"/></g></g><animate attributeName="display" fill="freeze" repeatCount="1" dur="2.083s" keyTimes="0;.32;.34;1" values="none;inline;none;none"/></g><g display="none"><g><g id="Layer6_0_FILL"><path fill="#FFF" stroke="none" d="M547.55 -20.25L-29.3 -20.25 -29.3 399.7 547.55 399.7 547.55 -20.25Z" fill-opacity="1"/></g></g><animate attributeName="display" fill="freeze" repeatCount="1" dur="2.083s" keyTimes="0;.3;.32;1" values="none;inline;none;none"/></g><g display="none"><g><g id="Layer5_0_FILL"><path fill="#FFF" stroke="none" d="M468.15 -20.25L-29.35 -20.25 -29.35 399.7 468.15 399.7 468.15 -20.25Z" fill-opacity="1"/></g></g><animate attributeName="display" fill="freeze" repeatCount="1" dur="2.083s" keyTimes="0;.28;.3;1" values="none;inline;none;none"/></g><g display="none"><g><g id="Layer4_0_FILL"><path fill="#FFF" stroke="none" d="M382.9 -20.25L-29.3 -20.25 -29.3 399.7 382.9 399.7 382.9 -20.25Z" fill-opacity="1"/></g></g><animate attributeName="display" fill="freeze" repeatCount="1" dur="2.083s" keyTimes="0;.26;.28;1" values="none;inline;none;none"/></g><g display="none"><g><g id="Layer3_0_FILL"><path fill="#FFF" stroke="none" d="M291.65 -20.25L-29.35 -20.25 -29.35 399.7 291.65 399.7 291.65 -20.25Z" fill-opacity="1"/></g></g><animate attributeName="display" fill="freeze" repeatCount="1" dur="2.083s" keyTimes="0;.24;.26;1" values="none;inline;none;none"/></g><g display="none"><g><g id="Layer2_0_FILL"><path fill="#FFF" stroke="none" d="M194.65 -20.25L-29.3 -20.25 -29.3 399.7 194.65 399.7 194.65 -20.25Z" fill-opacity="1"/></g></g><animate attributeName="display" fill="freeze" repeatCount="1" dur="2.083s" keyTimes="0;.22;.24;1" values="none;inline;none;none"/></g><g display="none"><g><g id="Layer1_0_FILL"><path fill="#FFF" stroke="none" d="M91.7 -20.3L-29.3 -20.3 -29.3 399.65 91.7 399.65 91.7 -20.3Z" fill-opacity="1"/></g></g><animate attributeName="display" fill="freeze" repeatCount="1" dur="2.083s" keyTimes="0;.2;.22;1" values="none;inline;none;none"/></g></g></mask></g></svg>