<?xml version="1.0" encoding="utf-8"?><svg id="section-3" image-rendering="auto" baseProfile="basic" version="1.1" x="0px" y="0px" width="1180" height="679" xmlns="http://www.w3.org/2000/svg" xmlns:xlink="http://www.w3.org/1999/xlink"><g id="Scene-1r1" overflow="visible" display="none"><image overflow="visible" xlink:href="img/Section-3_bg.png" height="679" width="1180"/><g id="Symbol-1" transform="translate(-393.15 372.65)" opacity=".2"><animateTransform attributeName="transform" additive="replace" type="translate" dur="1.042s" keyTimes="0;.36;.76;1" values="-393.15,372.65;-393.15,372.65;27.55,372.65;27.55,372.65" keySplines=".25 .5 .5 1;.25 .5 .5 1;.1 .1 .9 .9" calcMode="spline" fill="freeze"/><animate attributeName="opacity" dur="1.042s" keyTimes="0;.36;.76;1" values=".2;.2;1;1" keySplines=".25 .5 .5 1;.25 .5 .5 1;.1 .1 .9 .9" calcMode="spline" fill="freeze"/><path fill="#FFF" stroke="none" d="M78.25 67.75L66.7 67.75 66.7 91 56.65 91 56.65 67.75 45.1 67.75 45.1 124.45 56.65 124.45 56.65 99.35 66.7 99.35 66.7 124.45 78.25 124.45 78.25 67.75M34.55 71.55Q30.7 67.05 22.05 67.05 12.9 67.05 8.95 72.15 5.4 76.65 5.4 86.05L5.4 106.35Q5.4 115.45 8.95 120 12.95 125.25 22.05 125.25 30.75 125.25 34.6 120.4 37.9 116.3 37.9 108.2L37.9 103.55 26.7 103.55 26.7 109.05Q26.7 112.95 26.05 114.55 25.05 116.95 22.1 116.95 19.25 116.95 18.1 114.8 17.1 113.05 17.1 109.05L17.1 83.3Q17.1 79.4 17.85 77.75 18.95 75.3 22.1 75.3 25.1 75.3 26.1 77.6 26.7 79.15 26.7 82.95L26.7 88.2 37.9 88.2 37.9 83.45Q37.9 75.55 34.55 71.55M154.75 67.75L145.15 67.75 145.15 97.2 132.55 67.75 124.5 67.75 124.5 124.45 134.4 124.45 134.4 93.1 147 124.45 154.75 124.45 154.75 67.75M107.85 67.75L95.1 67.75 84.05 124.45 94.9 124.45 97.1 111.95 106.05 111.95 108.15 124.45 118.8 124.45 107.85 67.75M104.9 104.85L98.15 104.85 101.5 82.05 104.9 104.85M257.55 124.45L257.55 116.6 244.2 116.6 244.2 67.75 232.7 67.75 232.7 124.45 257.55 124.45M213.5 98.8L223.75 98.8 223.75 90.8 213.5 90.8 213.5 75.75 226.75 75.75 226.75 67.75 202 67.75 202 124.45 226.85 124.45 226.85 116.6 213.5 116.6 213.5 98.8M193.5 67.75L183.9 67.75 183.9 97.2 171.3 67.75 163.25 67.75 163.25 124.45 173.15 124.45 173.15 93.1 185.75 124.45 193.5 124.45 193.5 67.75M313.2 84.05Q313.2 67.75 298.5 67.75L280.5 67.75 280.5 124.45 292 124.45 292 99.85 297.3 99.85Q313.2 99.85 313.2 84.05M292 91.75L292 75.9 296.05 75.9Q300 75.9 301.35 77.95 302.35 79.55 302.35 83.85 302.35 88.25 301.15 89.9 299.85 91.75 296.15 91.75L292 91.75M368.2 98.75L372.4 98.75 378.85 124.45 390.65 124.45 382.85 96.8Q386.75 95.05 388.35 91.45 389.85 88.25 389.85 82.7 389.85 74.45 384.9 70.9 380.55 67.75 371.4 67.75L356.7 67.75 356.7 124.45 368.2 124.45 368.2 98.75M368.2 91.9L368.2 75.5 372.2 75.5Q376 75.5 377.55 77.6 378.95 79.45 378.95 83.65 378.95 87.9 377.35 89.85 375.65 91.9 371.6 91.9L368.2 91.9M340.05 67.75L327.3 67.75 316.25 124.45 327.1 124.45 329.3 111.95 338.25 111.95 340.35 124.45 351 124.45 340.05 67.75M337.1 104.85L330.35 104.85 333.7 82.05 337.1 104.85M414.5 76.3L423.05 76.3 423.05 67.75 394.1 67.75 394.1 76.3 402.85 76.3 402.85 124.45 414.5 124.45 414.5 76.3M436.2 67.75L428.15 67.75 428.15 124.45 438.05 124.45 438.05 93.1 450.65 124.45 458.4 124.45 458.4 67.75 448.8 67.75 448.8 97.2 436.2 67.75M578.65 124.45L589 124.45 589 114.3 578.65 114.3 578.65 124.45M537.1 81.5Q537.1 89.7 544.3 95.8L550.2 100.95Q553.45 103.75 554.75 105.8 556.4 108.4 556.4 111.75 556.4 116.4 552.55 116.4 547.3 116.4 546.95 105.9L537 107.55Q537.4 116.6 541.3 120.95 545.2 125.25 553.05 125.25 559.6 125.25 563.7 121.25 567.7 117.3 567.7 111.15 567.7 101.9 559 94.35L553.25 89.3Q550.6 87 549.55 85.3 548.15 83.15 548.15 80.35 548.15 78.4 549.15 77 550.25 75.5 552.15 75.5 554.75 75.5 555.75 77.95 556.5 79.8 556.6 84.25L566.6 82.8Q565.75 67.05 552.5 67.05 545.35 67.05 541.25 70.75 537.1 74.6 537.1 81.5M488.65 98.8L488.65 90.8 478.4 90.8 478.4 75.75 491.65 75.75 491.65 67.75 466.9 67.75 466.9 124.45 491.75 124.45 491.75 116.6 478.4 116.6 478.4 98.8 488.65 98.8M525.8 70.9Q521.45 67.75 512.3 67.75L497.6 67.75 497.6 124.45 509.1 124.45 509.1 98.75 513.3 98.75 519.75 124.45 531.55 124.45 523.75 96.8Q527.65 95.05 529.25 91.45 530.75 88.25 530.75 82.7 530.75 74.45 525.8 70.9M518.45 77.6Q519.85 79.45 519.85 83.65 519.85 87.9 518.25 89.85 516.55 91.9 512.5 91.9L509.1 91.9 509.1 75.5 513.1 75.5Q516.9 75.5 518.45 77.6M586.3 67.05Q579.5 67.05 575.8 70.55 572.1 73.95 572.1 80.1 572.1 83 573.1 86.15L582.75 84Q582.05 81.9 582.05 80.2 582.05 76.1 586.1 76.1 590.5 76.1 590.5 81.55 590.5 91.6 579.05 100.75L579.05 109.7 588.6 109.7 588.6 102.8Q600.85 93.4 600.85 81.3 600.85 74.5 597.1 70.8 593.3 67.05 586.3 67.05Z"/><path fill="#FFCC04" stroke="none" d="M491.2 -5L466.4 -5 466.4 2.3 473.9 2.3 473.9 43.6 483.85 43.6 483.85 2.3 491.2 2.3 491.2 -5M629.45 -5L614.05 -5 614.05 43.6 623.9 43.6 623.9 22.55 628.45 22.55Q642.05 22.55 642.05 8.95 642.05 -5 629.45 -5M632.8 8.8Q632.8 12.55 631.75 14 630.6 15.6 627.45 15.6L623.9 15.6 623.9 1.95 627.4 1.95Q630.75 1.95 631.9 3.75 632.8 5.15 632.8 8.8M596.4 -5L581 -5 581 43.6 590.85 43.6 590.85 22.55 595.4 22.55Q609 22.55 609 8.95 609 -5 596.4 -5M594.4 15.6L590.85 15.6 590.85 1.95 594.35 1.95Q597.7 1.95 598.85 3.75 599.75 5.15 599.75 8.8 599.75 12.55 598.7 14 597.55 15.6 594.4 15.6M560.1 -5.6Q552.3 -5.6 548.9 -1.45 545.75 2.35 545.75 10.15L545.75 28.3Q545.75 36.15 548.9 40.05 552.35 44.25 560.1 44.25 567.75 44.25 571.25 40.05 574.4 36.15 574.4 28.35L574.4 10.15Q574.4 2.4 571.25 -1.45 567.8 -5.6 560.1 -5.6M563.6 3.4Q564.35 4.8 564.35 7.75L564.35 30.75Q564.35 37.2 560.1 37.2 557.5 37.2 556.5 35.2 555.8 33.8 555.8 30.75L555.8 7.75Q555.8 4.8 556.55 3.4 557.55 1.45 560.1 1.45 562.65 1.45 563.6 3.4M524.05 -5L514.15 -5 514.15 14.9 505.6 14.9 505.6 -5 495.7 -5 495.7 43.6 505.6 43.6 505.6 22.05 514.15 22.05 514.15 43.6 524.05 43.6 524.05 -5M433.55 -5L425.2 -5 431.5 43.6 440.05 43.6 444.55 12.8 449.25 43.6 457.7 43.6 463.95 -5 455.75 -5 452.3 24.6 447.9 -4.95 441.2 -4.95 436.95 24.7 433.55 -5M417.35 -1.45Q413.9 -5.6 406.2 -5.6 398.4 -5.6 395 -1.45 391.85 2.35 391.85 10.15L391.85 28.3Q391.85 36.15 395 40.05 398.45 44.25 406.2 44.25 413.85 44.25 417.35 40.05 420.5 36.15 420.5 28.35L420.5 10.15Q420.5 2.4 417.35 -1.45M406.2 1.45Q408.75 1.45 409.7 3.4 410.45 4.8 410.45 7.75L410.45 30.75Q410.45 37.2 406.2 37.2 403.6 37.2 402.6 35.2 401.9 33.8 401.9 30.75L401.9 7.75Q401.9 4.8 402.65 3.4 403.65 1.45 406.2 1.45M381.75 -2.3Q378.05 -5 370.2 -5L357.6 -5 357.6 43.6 367.45 43.6 367.45 21.55 371.05 21.55 376.55 43.6 386.7 43.6 380 19.9Q383.35 18.4 384.75 15.3 386 12.55 386 7.85 386 .75 381.75 -2.3M370.4 15.7L367.45 15.7 367.45 1.65 370.9 1.65Q374.15 1.65 375.5 3.45 376.7 5.05 376.7 8.6 376.7 12.3 375.3 13.95 373.85 15.7 370.4 15.7M347.65 -1.75Q344.3 -5.6 336.8 -5.6 329.05 -5.6 325.6 -1.05 322.6 2.95 322.6 11.25L322.6 27.5Q322.6 44.35 335.75 44.35 341.5 44.35 343.7 39.3L344.4 43.6 350.85 43.6 350.85 18.65 337.15 18.65 337.15 24.65 341.9 24.65 341.9 29.8Q341.9 37.2 337.25 37.2 332.65 37.2 332.65 30.1L332.65 8.5Q332.65 5.05 333.3 3.65 334.2 1.45 336.95 1.45 339.55 1.45 340.45 3.35 341.05 4.65 341.05 8.05L341.05 11.45 350.7 11.45 350.7 8.6Q350.7 1.7 347.65 -1.75M167.2 -5L157.4 -5 157.4 43.6 167.2 43.6 167.2 -5M303.2 -5L282 -5 282 43.6 303.3 43.6 303.3 36.9 291.85 36.9 291.85 21.65 300.6 21.65 300.6 14.75 291.85 14.75 291.85 1.85 303.2 1.85 303.2 -5M274.6 -5L264.7 -5 264.7 14.9 256.15 14.9 256.15 -5 246.25 -5 246.25 43.6 256.15 43.6 256.15 22.05 264.7 22.05 264.7 43.6 274.6 43.6 274.6 -5M241.75 -5L216.95 -5 216.95 2.3 224.45 2.3 224.45 43.6 234.4 43.6 234.4 2.3 241.75 2.3 241.75 -5M186.65 -5.6Q180.5 -5.6 177 -2.45 173.4 .85 173.4 6.75 173.4 13.8 179.6 19.05L184.65 23.45Q187.4 25.85 188.55 27.6 189.95 29.85 189.95 32.75 189.95 36.7 186.7 36.7 182.15 36.7 181.9 27.7L173.35 29.15Q173.7 36.9 177 40.6 180.35 44.25 187.1 44.25 192.75 44.25 196.2 40.85 199.65 37.5 199.65 32.2 199.65 24.25 192.2 17.8L187.3 13.5Q185 11.5 184.1 10.05 182.9 8.2 182.9 5.8 182.9 4.1 183.75 2.95 184.7 1.65 186.3 1.65 188.55 1.65 189.4 3.75 190.05 5.35 190.15 9.15L198.75 7.9Q197.95 -5.6 186.65 -5.6M137.9 -5L113.1 -5 113.1 2.3 120.6 2.3 120.6 43.6 130.55 43.6 130.55 2.3 137.9 2.3 137.9 -5M101.75 -5L90.8 -5 81.35 43.6 90.65 43.6 92.5 32.9 100.2 32.9 102 43.6 111.15 43.6 101.75 -5M99.25 26.8L93.45 26.8 96.3 7.25 99.25 26.8M76.35 -5L66.45 -5 66.45 14.9 57.9 14.9 57.9 -5 48 -5 48 43.6 57.9 43.6 57.9 22.05 66.45 22.05 66.45 43.6 76.35 43.6 76.35 -5M26.45 -4.95L19.75 -4.95 15.5 24.7 12.1 -5 3.75 -5 10.05 43.6 18.6 43.6 23.1 12.8 27.8 43.6 36.25 43.6 42.5 -5 34.3 -5 30.85 24.6 26.45 -4.95M949 -1.45Q945.55 -5.6 937.85 -5.6 930.05 -5.6 926.65 -1.45 923.5 2.35 923.5 10.15L923.5 28.3Q923.5 36.15 926.65 40.05 930.1 44.25 937.85 44.25 945.5 44.25 949 40.05 952.15 36.15 952.15 28.35L952.15 10.15Q952.15 2.4 949 -1.45M941.35 3.4Q942.1 4.8 942.1 7.75L942.1 30.75Q942.1 37.2 937.85 37.2 935.25 37.2 934.25 35.2 933.55 33.8 933.55 30.75L933.55 7.75Q933.55 4.8 934.3 3.4 935.3 1.45 937.85 1.45 940.4 1.45 941.35 3.4M971.35 -5L958.75 -5 958.75 43.6 968.6 43.6 968.6 21.55 972.2 21.55 977.7 43.6 987.85 43.6 981.15 19.9Q984.5 18.4 985.9 15.3 987.15 12.55 987.15 7.85 987.15 .75 982.9 -2.3 979.2 -5 971.35 -5M972.05 1.65Q975.3 1.65 976.65 3.45 977.85 5.05 977.85 8.6 977.85 12.3 976.45 13.95 975 15.7 971.55 15.7L968.6 15.7 968.6 1.65 972.05 1.65M919.2 -5L898.7 -5 898.7 43.6 908.55 43.6 908.55 21.75 917.6 21.75 917.6 14.85 908.55 14.85 908.55 1.8 919.2 1.8 919.2 -5M879.5 -5L870.45 -5 865.65 12.1 860.45 -5 851.15 -5 860.6 24.35 860.6 43.6 870.15 43.6 870.15 24.35 879.5 -5M849.9 -5L825.1 -5 825.1 2.3 832.6 2.3 832.6 43.6 842.55 43.6 842.55 2.3 849.9 2.3 849.9 -5M820.65 -5L810.85 -5 810.85 43.6 820.65 43.6 820.65 -5M738.5 -5L713.7 -5 713.7 2.3 721.2 2.3 721.2 43.6 731.15 43.6 731.15 2.3 738.5 2.3 738.5 -5M803.45 -5L795.2 -5 795.2 20.25 784.4 -5 777.5 -5 777.5 43.6 786 43.6 786 16.75 796.75 43.6 803.45 43.6 803.45 -5M752.2 -5L742.5 -5 742.5 28.25Q742.5 36.4 745.4 40.1 748.65 44.25 756.55 44.25 764.45 44.25 767.75 40.1 770.65 36.35 770.65 28.25L770.65 -5 760.85 -5 760.85 29.65Q760.85 33.1 760.2 34.7 759.2 37.05 756.55 37.05 753.9 37.05 752.9 34.7 752.2 33.1 752.2 29.65L752.2 -5M705.8 -2.3Q702.1 -5 694.25 -5L681.65 -5 681.65 43.6 691.5 43.6 691.5 21.55 695.1 21.55 700.6 43.6 710.75 43.6 704.05 19.9Q707.4 18.4 708.8 15.3 710.05 12.55 710.05 7.85 710.05 .75 705.8 -2.3M694.45 15.7L691.5 15.7 691.5 1.65 694.95 1.65Q698.2 1.65 699.55 3.45 700.75 5.05 700.75 8.6 700.75 12.3 699.35 13.95 697.9 15.7 694.45 15.7M671.9 -1.45Q668.45 -5.6 660.75 -5.6 652.95 -5.6 649.55 -1.45 646.4 2.35 646.4 10.15L646.4 28.3Q646.4 36.15 649.55 40.05 653 44.25 660.75 44.25 668.4 44.25 671.9 40.05 675.05 36.15 675.05 28.35L675.05 10.15Q675.05 2.4 671.9 -1.45M664.25 3.4Q665 4.8 665 7.75L665 30.75Q665 37.2 660.75 37.2 658.15 37.2 657.15 35.2 656.45 33.8 656.45 30.75L656.45 7.75Q656.45 4.8 657.2 3.4 658.2 1.45 660.75 1.45 663.3 1.45 664.25 3.4Z"/></g><animate attributeName="display" fill="freeze" repeatCount="1" dur="1.042s" keyTimes="0;.36;1" values="none;inline;inline"/></g></svg>