<?xml version="1.0" encoding="utf-8"?>
<svg id="section-6" image-rendering="auto" baseProfile="basic" version="1.1" x="0px" y="0px" width="1180" height="679" xmlns="http://www.w3.org/2000/svg" xmlns:xlink="http://www.w3.org/1999/xlink"><g id="Scene-1r1" overflow="visible" display="none"><image overflow="visible" xlink:href="img/Section-6_bg.png" height="679" width="1180"/><g id="Symbol-1" transform="translate(-393.15 372.65)" opacity=".2"><animateTransform attributeName="transform" additive="replace" type="translate" dur="1.042s" keyTimes="0;.36;.76;1" values="-393.15,372.65;-393.15,372.65;27.55,372.65;27.55,372.65" keySplines=".25 .5 .5 1;.25 .5 .5 1;.1 .1 .9 .9" calcMode="spline" fill="freeze"/><animate attributeName="opacity" dur="1.042s" keyTimes="0;.36;.76;1" values=".2;.2;1;1" keySplines=".25 .5 .5 1;.25 .5 .5 1;.1 .1 .9 .9" calcMode="spline" fill="freeze"/><path fill="#FFF" stroke="none" d="M69.45 124.45L80.3 124.45 82.5 111.95 91.45 111.95 93.55 124.45 104.2 124.45 93.25 67.75 80.5 67.75 69.45 124.45M90.3 104.85L83.55 104.85 86.9 82.05 90.3 104.85M38.2 67.75L38.2 76.3 46.95 76.3 46.95 124.45 58.6 124.45 58.6 76.3 67.15 76.3 67.15 67.75 38.2 67.75M4.95 81.5Q4.95 89.7 12.15 95.8L18.05 100.95Q21.3 103.75 22.6 105.8 24.25 108.4 24.25 111.75 24.25 116.4 20.4 116.4 15.15 116.4 14.8 105.9L4.85 107.55Q5.25 116.6 9.15 120.95 13.05 125.25 20.9 125.25 27.45 125.25 31.55 121.25 35.55 117.3 35.55 111.15 35.55 101.9 26.85 94.35L21.1 89.3Q18.45 87 17.4 85.3 16 83.15 16 80.35 16 78.4 17 77 18.1 75.5 20 75.5 22.6 75.5 23.6 77.95 24.35 79.8 24.45 84.25L34.45 82.8Q33.6 67.05 20.35 67.05 13.2 67.05 9.1 70.75 4.95 74.6 4.95 81.5M138.1 70.9Q133.75 67.75 124.6 67.75L109.9 67.75 109.9 124.45 121.4 124.45 121.4 98.75 125.6 98.75 132.05 124.45 143.85 124.45 136.05 96.8Q139.95 95.05 141.55 91.45 143.05 88.25 143.05 82.7 143.05 74.45 138.1 70.9M121.4 91.9L121.4 75.5 125.4 75.5Q129.2 75.5 130.75 77.6 132.15 79.45 132.15 83.65 132.15 87.9 130.55 89.85 128.85 91.9 124.8 91.9L121.4 91.9M251.2 124.45L261.25 124.45 261.25 114.45 251.2 114.45 251.2 124.45M240.6 72Q236.4 67.75 225.9 67.75L212.05 67.75 212.05 124.45 226.2 124.45Q236.5 124.45 240.65 120.05 244.55 115.9 244.55 106.15L244.55 85.5Q244.55 76 240.6 72M223.55 75.9L226 75.9Q230.3 75.9 231.65 77.8 232.7 79.3 232.7 84L232.7 107.45Q232.7 112.5 231.75 114.15 230.45 116.4 226.1 116.4L223.55 116.4 223.55 75.9M167.7 76.3L176.25 76.3 176.25 67.75 147.3 67.75 147.3 76.3 156.05 76.3 156.05 124.45 167.7 124.45 167.7 76.3M192.85 90.8L192.85 75.75 206.1 75.75 206.1 67.75 181.35 67.75 181.35 124.45 206.2 124.45 206.2 116.6 192.85 116.6 192.85 98.8 203.1 98.8 203.1 90.8 192.85 90.8M261.9 67.9L251.3 67.9 254.4 110.5 258.1 110.5 261.9 67.9Z"/><path fill="#FFCB05" stroke="none" d="M225.35 -5L200.55 -5 200.55 2.3 208.05 2.3 208.05 43.6 218 43.6 218 2.3 225.35 2.3 225.35 -5M198.35 -5L177.15 -5 177.15 43.6 198.45 43.6 198.45 36.9 187 36.9 187 21.65 195.75 21.65 195.75 14.75 187 14.75 187 1.85 198.35 1.85 198.35 -5M156.35 -5.6Q148.6 -5.6 145.15 -1.05 142.15 2.95 142.15 11.25L142.15 27.5Q142.15 44.35 155.3 44.35 161.05 44.35 163.25 39.3L163.95 43.6 170.4 43.6 170.4 18.65 156.7 18.65 156.7 24.65 161.45 24.65 161.45 29.8Q161.45 37.2 156.8 37.2 152.2 37.2 152.2 30.1L152.2 8.5Q152.2 5.05 152.85 3.65 153.75 1.45 156.5 1.45 159.1 1.45 160 3.35 160.6 4.65 160.6 8.05L160.6 11.45 170.25 11.45 170.25 8.6Q170.25 1.7 167.2 -1.75 163.85 -5.6 156.35 -5.6M109.65 -5.6Q103.5 -5.6 100 -2.45 96.4 .85 96.4 6.75 96.4 13.8 102.6 19.05L107.65 23.45Q110.4 25.85 111.55 27.6 112.95 29.85 112.95 32.75 112.95 36.7 109.7 36.7 105.15 36.7 104.9 27.7L96.35 29.15Q96.7 36.9 100 40.6 103.35 44.25 110.1 44.25 115.75 44.25 119.2 40.85 122.65 37.5 122.65 32.2 122.65 24.25 115.2 17.8L110.3 13.5Q108 11.5 107.1 10.05 105.9 8.2 105.9 5.8 105.9 4.1 106.75 2.95 107.7 1.65 109.3 1.65 111.55 1.65 112.4 3.75 113.05 5.35 113.15 9.15L121.75 7.9Q120.95 -5.6 109.65 -5.6M92.45 -5L84.15 -5 84.15 3.25 88.1 3.25Q88.1 6 87.45 7.25 86.65 8.8 84.55 8.85L85.35 11.8Q89.15 11.75 90.75 9.15 92.2 6.85 92.35 1.45L92.45 -5M52.8 -5L31.6 -5 31.6 43.6 52.9 43.6 52.9 36.9 41.45 36.9 41.45 21.65 50.2 21.65 50.2 14.75 41.45 14.75 41.45 1.85 52.8 1.85 52.8 -5M79.8 -5L55 -5 55 2.3 62.5 2.3 62.5 43.6 72.45 43.6 72.45 2.3 79.8 2.3 79.8 -5M15.5 -5L5.65 -5 5.65 43.6 26.95 43.6 26.95 36.9 15.5 36.9 15.5 -5Z"/></g><animate attributeName="display" fill="freeze" repeatCount="1" dur="1.042s" keyTimes="0;.36;1" values="none;inline;inline"/></g></svg>