<?xml version="1.0" encoding="utf-8"?><svg id="section-2" image-rendering="auto" baseProfile="basic" version="1.1" x="0px" y="0px" width="1180" height="679" xmlns="http://www.w3.org/2000/svg" xmlns:xlink="http://www.w3.org/1999/xlink"><g id="Scene-1r1" overflow="visible" display="none"><image overflow="visible" xlink:href="img/Section-2_bg.png" height="679" width="1180" transform="translate(1 2)"/><g id="Symbol-1" transform="translate(-393.15 372.65)" opacity=".2"><animateTransform attributeName="transform" additive="replace" type="translate" dur="1.042s" keyTimes="0;.36;.76;1" values="-393.15,372.65;-393.15,372.65;27.55,372.65;27.55,372.65" keySplines=".25 .5 .5 1;.25 .5 .5 1;.1 .1 .9 .9" calcMode="spline" fill="freeze"/><animate attributeName="opacity" dur="1.042s" keyTimes="0;.36;.76;1" values=".2;.2;1;1" keySplines=".25 .5 .5 1;.25 .5 .5 1;.1 .1 .9 .9" calcMode="spline" fill="freeze"/><path fill="#FFF" stroke="none" d="M74.15 67.75L64.55 67.75 64.55 97.2 51.95 67.75 43.9 67.75 43.9 124.45 53.8 124.45 53.8 93.1 66.4 124.45 74.15 124.45 74.15 67.75M27.25 67.75L14.5 67.75 3.45 124.45 14.3 124.45 16.5 111.95 25.45 111.95 27.55 124.45 38.2 124.45 27.25 67.75M24.3 104.85L17.55 104.85 20.9 82.05 24.3 104.85M134.15 98.8L144.4 98.8 144.4 90.8 134.15 90.8 134.15 75.75 147.4 75.75 147.4 67.75 122.65 67.75 122.65 124.45 147.5 124.45 147.5 116.6 134.15 116.6 134.15 98.8M98.45 67.05Q89.35 67.05 85.35 72.35 81.8 77.05 81.8 86.7L81.8 105.7Q81.8 125.3 97.15 125.3 103.9 125.3 106.45 119.45L107.25 124.45 114.8 124.45 114.8 95.35 98.85 95.35 98.85 102.35 104.4 102.35 104.4 108.35Q104.4 116.95 98.9 116.95 93.6 116.95 93.6 108.7L93.6 83.5Q93.6 79.5 94.35 77.85 95.4 75.3 98.55 75.3 101.6 75.3 102.65 77.5 103.4 79.05 103.4 82.95L103.4 86.9 114.6 86.9 114.6 83.65Q114.6 75.55 111.1 71.55 107.15 67.05 98.45 67.05M178.2 124.45L178.2 116.6 164.85 116.6 164.85 67.75 153.35 67.75 153.35 124.45 178.2 124.45M224.7 94Q232.95 92.55 232.95 82.45 232.95 74.1 227.95 70.6 223.85 67.75 215.6 67.75L201.15 67.75 201.15 124.45 218.15 124.45Q234.65 124.45 234.65 107.8 234.65 95.45 224.7 94M212.65 98.4L215.75 98.4Q220.05 98.4 221.8 100.6 223.55 102.7 223.55 107.55 223.55 112.15 221.9 114.15 220.2 116.3 215.95 116.3L212.65 116.3 212.65 98.4M212.65 90.65L212.65 75.7 214.8 75.7Q218.95 75.7 220.85 77.25 222.9 78.9 222.9 82.7 222.9 86.85 221.45 88.65 219.8 90.65 215.6 90.65L212.65 90.65M314.85 85.45Q314.85 76.35 311.15 71.9 307.1 67.05 298.1 67.05 289.05 67.05 285.05 71.9 281.35 76.35 281.35 85.45L281.35 106.6Q281.35 115.75 285.05 120.3 289.1 125.25 298.1 125.25 307.05 125.25 311.15 120.3 314.85 115.75 314.85 106.7L314.85 85.45M293.15 82.65Q293.15 79.15 294 77.5 295.15 75.3 298.1 75.3 301.1 75.3 302.2 77.5 303.05 79.15 303.05 82.65L303.05 109.5Q303.05 116.95 298.1 116.95 295.05 116.95 293.95 114.65 293.15 113.05 293.15 109.5L293.15 82.65M252.9 98.75L257.1 98.75 263.55 124.45 275.35 124.45 267.55 96.8Q271.45 95.05 273.05 91.45 274.55 88.25 274.55 82.7 274.55 74.45 269.6 70.9 265.25 67.75 256.1 67.75L241.4 67.75 241.4 124.45 252.9 124.45 252.9 98.75M252.9 91.9L252.9 75.5 256.9 75.5Q260.7 75.5 262.25 77.6 263.65 79.45 263.65 83.65 263.65 87.9 262.05 89.85 260.35 91.9 256.3 91.9L252.9 91.9M464.95 124.45L475.3 124.45 475.3 114.3 464.95 114.3 464.95 124.45M372.75 67.75L361.25 67.75 361.25 124.45 372.75 124.45 372.75 67.75M401.95 67.75L401.95 97.2 389.35 67.75 381.3 67.75 381.3 124.45 391.2 124.45 391.2 93.1 403.8 124.45 411.55 124.45 411.55 67.75 401.95 67.75M344.85 93.25L355.5 67.75 344.3 67.75 334 91.7 334 67.75 322.5 67.75 322.5 124.45 334 124.45 334 102.2 335.9 99.1 344.65 124.45 356.35 124.45 344.85 93.25M483.4 70.8Q479.6 67.05 472.6 67.05 465.8 67.05 462.1 70.55 458.4 73.95 458.4 80.1 458.4 83 459.4 86.15L469.05 84Q468.35 81.9 468.35 80.2 468.35 76.1 472.4 76.1 476.8 76.1 476.8 81.55 476.8 91.6 465.35 100.75L465.35 109.7 474.9 109.7 474.9 102.8Q487.15 93.4 487.15 81.3 487.15 74.5 483.4 70.8M431 83.5Q431 79.5 431.75 77.85 432.8 75.3 435.95 75.3 439 75.3 440.05 77.5 440.8 79.05 440.8 82.95L440.8 86.9 452 86.9 452 83.65Q452 75.55 448.5 71.55 444.55 67.05 435.85 67.05 426.75 67.05 422.75 72.35 419.2 77.05 419.2 86.7L419.2 105.7Q419.2 125.3 434.55 125.3 441.3 125.3 443.85 119.45L444.65 124.45 452.2 124.45 452.2 95.35 436.25 95.35 436.25 102.35 441.8 102.35 441.8 108.35Q441.8 116.95 436.3 116.95 431 116.95 431 108.7L431 83.5Z"/><path fill="#FFCB05" stroke="none" d="M332.25 -5.6Q326.1 -5.6 322.6 -2.45 319 .85 319 6.75 319 13.8 325.2 19.05L330.25 23.45Q333 25.85 334.15 27.6 335.55 29.85 335.55 32.75 335.55 36.7 332.3 36.7 327.75 36.7 327.5 27.7L318.95 29.15Q319.3 36.9 322.6 40.6 325.95 44.25 332.7 44.25 338.35 44.25 341.8 40.85 345.25 37.5 345.25 32.2 345.25 24.25 337.8 17.8L332.9 13.5Q330.6 11.5 329.7 10.05 328.5 8.2 328.5 5.8 328.5 4.1 329.35 2.95 330.3 1.65 331.9 1.65 334.15 1.65 335 3.75 335.65 5.35 335.75 9.15L344.35 7.9Q343.55 -5.6 332.25 -5.6M619.9 -1.45Q616.45 -5.6 608.75 -5.6 600.95 -5.6 597.55 -1.45 594.4 2.35 594.4 10.15L594.4 28.3Q594.4 36.15 597.55 40.05 601 44.25 608.75 44.25 616.4 44.25 619.9 40.05 623.05 36.15 623.05 28.35L623.05 10.15Q623.05 2.4 619.9 -1.45M608.75 1.45Q611.3 1.45 612.25 3.4 613 4.8 613 7.75L613 30.75Q613 37.2 608.75 37.2 606.15 37.2 605.15 35.2 604.45 33.8 604.45 30.75L604.45 7.75Q604.45 4.8 605.2 3.4 606.2 1.45 608.75 1.45M641.75 -5.6Q635.6 -5.6 632.1 -2.45 628.5 .85 628.5 6.75 628.5 13.8 634.7 19.05L639.75 23.45Q642.5 25.85 643.65 27.6 645.05 29.85 645.05 32.75 645.05 36.7 641.8 36.7 637.25 36.7 637 27.7L628.45 29.15Q628.8 36.9 632.1 40.6 635.45 44.25 642.2 44.25 647.85 44.25 651.3 40.85 654.75 37.5 654.75 32.2 654.75 24.25 647.3 17.8L642.4 13.5Q640.1 11.5 639.2 10.05 638 8.2 638 5.8 638 4.1 638.85 2.95 639.8 1.65 641.4 1.65 643.65 1.65 644.5 3.75 645.15 5.35 645.25 9.15L653.85 7.9Q653.05 -5.6 641.75 -5.6M585.35 -1.45Q581.9 -5.6 574.2 -5.6 566.4 -5.6 563 -1.45 559.85 2.35 559.85 10.15L559.85 28.3Q559.85 36.15 563 40.05 566.45 44.25 574.2 44.25 581.85 44.25 585.35 40.05 588.5 36.15 588.5 28.35L588.5 10.15Q588.5 2.4 585.35 -1.45M577.7 3.4Q578.45 4.8 578.45 7.75L578.45 30.75Q578.45 37.2 574.2 37.2 571.6 37.2 570.6 35.2 569.9 33.8 569.9 30.75L569.9 7.75Q569.9 4.8 570.65 3.4 571.65 1.45 574.2 1.45 576.75 1.45 577.7 3.4M553.15 -5L543.25 -5 543.25 14.9 534.7 14.9 534.7 -5 524.8 -5 524.8 43.6 534.7 43.6 534.7 22.05 543.25 22.05 543.25 43.6 553.15 43.6 553.15 -5M515.75 -1.7Q512.45 -5.6 505 -5.6 497.2 -5.6 493.8 -1.2 490.8 2.65 490.8 10.65L490.8 28.05Q490.8 35.9 493.8 39.8 497.25 44.25 505 44.25 512.5 44.25 515.8 40.15 518.65 36.65 518.65 29.7L518.65 25.65 509.05 25.65 509.05 30.4Q509.05 33.75 508.5 35.1 507.65 37.2 505.1 37.2 502.6 37.2 501.65 35.35 500.8 33.8 500.8 30.4L500.8 8.35Q500.8 5 501.45 3.55 502.4 1.45 505.1 1.45 507.65 1.45 508.5 3.45 509.05 4.75 509.05 8.05L509.05 12.5 518.65 12.5 518.65 8.45Q518.65 1.7 515.75 -1.7M458.3 -5.6Q452.15 -5.6 448.65 -2.45 445.05 .85 445.05 6.75 445.05 13.8 451.25 19.05L456.3 23.45Q459.05 25.85 460.2 27.6 461.6 29.85 461.6 32.75 461.6 36.7 458.35 36.7 453.8 36.7 453.55 27.7L445 29.15Q445.35 36.9 448.65 40.6 452 44.25 458.75 44.25 464.4 44.25 467.85 40.85 471.3 37.5 471.3 32.2 471.3 24.25 463.85 17.8L458.95 13.5Q456.65 11.5 455.75 10.05 454.55 8.2 454.55 5.8 454.55 4.1 455.4 2.95 456.35 1.65 457.95 1.65 460.2 1.65 461.05 3.75 461.7 5.35 461.8 9.15L470.4 7.9Q469.6 -5.6 458.3 -5.6M435.4 -2.3Q431.7 -5 423.85 -5L411.25 -5 411.25 43.6 421.1 43.6 421.1 21.55 424.7 21.55 430.2 43.6 440.35 43.6 433.65 19.9Q437 18.4 438.4 15.3 439.65 12.55 439.65 7.85 439.65 .75 435.4 -2.3M430.35 8.6Q430.35 12.3 428.95 13.95 427.5 15.7 424.05 15.7L421.1 15.7 421.1 1.65 424.55 1.65Q427.8 1.65 429.15 3.45 430.35 5.05 430.35 8.6M372.35 -5L347.55 -5 347.55 2.3 355.05 2.3 355.05 43.6 365 43.6 365 2.3 372.35 2.3 372.35 -5M401.5 -1.45Q398.05 -5.6 390.35 -5.6 382.55 -5.6 379.15 -1.45 376 2.35 376 10.15L376 28.3Q376 36.15 379.15 40.05 382.6 44.25 390.35 44.25 398 44.25 401.5 40.05 404.65 36.15 404.65 28.35L404.65 10.15Q404.65 2.4 401.5 -1.45M393.85 3.4Q394.6 4.8 394.6 7.75L394.6 30.75Q394.6 37.2 390.35 37.2 387.75 37.2 386.75 35.2 386.05 33.8 386.05 30.75L386.05 7.75Q386.05 4.8 386.8 3.4 387.8 1.45 390.35 1.45 392.9 1.45 393.85 3.4M315.05 -5L293.85 -5 293.85 43.6 315.15 43.6 315.15 36.9 303.7 36.9 303.7 21.65 312.45 21.65 312.45 14.75 303.7 14.75 303.7 1.85 315.05 1.85 315.05 -5M268.85 -5L260.25 -5 269.5 43.6 279.7 43.6 288.95 -5 280 -5 274.6 28.6 268.85 -5M236.3 -5L229.4 -5 229.4 43.6 237.9 43.6 237.9 16.75 248.65 43.6 255.35 43.6 255.35 -5 247.1 -5 247.1 20.25 236.3 -5M222.05 -5L212.25 -5 212.25 43.6 222.05 43.6 222.05 -5M187.35 -1.45Q183.9 -5.6 176.2 -5.6 168.4 -5.6 165 -1.45 161.85 2.35 161.85 10.15L161.85 28.3Q161.85 36.15 165 40.05 168.45 44.25 176.2 44.25 183.85 44.25 187.35 40.05 190.5 36.15 190.5 28.35L190.5 10.15Q190.5 2.4 187.35 -1.45M179.7 3.4Q180.45 4.8 180.45 7.75L180.45 30.75Q180.45 37.2 176.2 37.2 173.6 37.2 172.6 35.2 171.9 33.8 171.9 30.75L171.9 7.75Q171.9 4.8 172.65 3.4 173.65 1.45 176.2 1.45 178.75 1.45 179.7 3.4M152.7 -1.35Q149.05 -5 140.1 -5L128.2 -5 128.2 43.6 140.35 43.6Q149.15 43.6 152.7 39.8 156.05 36.3 156.05 27.95L156.05 10.25Q156.05 2.1 152.7 -1.35M145 3.6Q145.9 4.9 145.9 8.9L145.9 29Q145.9 33.4 145.1 34.8 143.95 36.7 140.2 36.7L138.05 36.7 138.05 1.95 140.15 1.95Q143.85 1.95 145 3.6M109 -5L99.95 -5 95.15 12.1 89.95 -5 80.65 -5 90.1 24.35 90.1 43.6 99.65 43.6 99.65 24.35 109 -5M76.35 -5L66.45 -5 66.45 14.9 57.9 14.9 57.9 -5 48 -5 48 43.6 57.9 43.6 57.9 22.05 66.45 22.05 66.45 43.6 76.35 43.6 76.35 -5M26.45 -4.95L19.75 -4.95 15.5 24.7 12.1 -5 3.75 -5 10.05 43.6 18.6 43.6 23.1 12.8 27.8 43.6 36.25 43.6 42.5 -5 34.3 -5 30.85 24.6 26.45 -4.95M681.15 -5L659.95 -5 659.95 43.6 681.25 43.6 681.25 36.9 669.8 36.9 669.8 21.65 678.55 21.65 678.55 14.75 669.8 14.75 669.8 1.85 681.15 1.85 681.15 -5Z"/></g><animate attributeName="display" fill="freeze" repeatCount="1" dur="1.042s" keyTimes="0;.36;1" values="none;inline;inline"/></g></svg>