<?xml version="1.0" encoding="utf-8"?><svg id="section-5" image-rendering="auto" baseProfile="basic" version="1.1" x="0px" y="0px" width="1180" height="679" xmlns="http://www.w3.org/2000/svg" xmlns:xlink="http://www.w3.org/1999/xlink"><g id="Scene-1r1" overflow="visible"><image overflow="visible" xlink:href="img/Bitmap_5.png" height="679" width="1180"/><g display="none"><g id="Symbol-2" transform="translate(-420.7 346.4)" opacity=".2"><animateTransform attributeName="transform" additive="replace" type="translate" dur="1.042s" keyTimes="0;.36;.76;1" values="-420.7,346.4;-420.7,346.4;0,346.4;0,346.4" keySplines=".25 .5 .5 1;.25 .5 .5 1;.1 .1 .9 .9" calcMode="spline" fill="freeze"/><animate attributeName="opacity" dur="1.042s" keyTimes="0;.36;.76;1" values=".2;.2;1;1" keySplines=".25 .5 .5 1;.25 .5 .5 1;.1 .1 .9 .9" calcMode="spline" fill="freeze"/><path fill="#4D4D4F" stroke="none" d="M880 168.3L880 0 0 0 0 168.3 880 168.3Z"/></g><animate attributeName="display" fill="freeze" repeatCount="1" dur="1.042s" keyTimes="0;.36;1" values="none;inline;inline"/></g><g display="none"><g id="Symbol-1" transform="translate(-393.15 372.65)" opacity=".2"><animateTransform attributeName="transform" additive="replace" type="translate" dur="1.042s" keyTimes="0;.36;.76;1" values="-393.15,372.65;-393.15,372.65;27.55,372.65;27.55,372.65" keySplines=".25 .5 .5 1;.25 .5 .5 1;.1 .1 .9 .9" calcMode="spline" fill="freeze"/><animate attributeName="opacity" dur="1.042s" keyTimes="0;.36;.76;1" values=".2;.2;1;1" keySplines=".25 .5 .5 1;.25 .5 .5 1;.1 .1 .9 .9" calcMode="spline" fill="freeze"/><path fill="#FAB813" stroke="none" d="M27.35 67.2Q17.3 67.2 10.65 73.4 4.05 79.6 4.05 89.05 4.05 98.5 10.65 104.7 17.3 110.9 27.35 110.9 37.45 110.9 44.1 104.7 50.7 98.5 50.7 89.05 50.7 79.6 44.1 73.4 37.45 67.2 27.35 67.2M19.3 97.75Q16.05 94.4 16.05 89.05 16.05 83.7 19.3 80.3 22.5 77.05 27.35 77.05 32.25 77.05 35.45 80.3 38.7 83.7 38.7 89.05 38.7 94.4 35.45 97.75 32.25 101.05 27.35 101.05 22.5 101.05 19.3 97.75M120.35 68.05L101.15 68.05 101.15 110.05 113.05 110.05 113.05 99.05 120.35 99.05Q128.95 99.05 134 94.9 139 90.75 139 83.6 139 76.4 134 72.25 128.95 68.05 120.35 68.05M119.65 89.7L113.05 89.7 113.05 77.4 119.65 77.4Q127 77.4 127 83.6 127 89.7 119.65 89.7M89.8 94.9Q94.8 90.75 94.8 83.6 94.8 76.4 89.8 72.25 84.75 68.05 76.15 68.05L56.95 68.05 56.95 110.05 68.85 110.05 68.85 99.05 76.15 99.05Q84.75 99.05 89.8 94.9M75.45 89.7L68.85 89.7 68.85 77.4 75.45 77.4Q82.8 77.4 82.8 83.6 82.8 89.7 75.45 89.7M208 98.9L214.45 98.9 222.1 110.05 234.8 110.05 225.75 96.85Q233.95 92.9 233.95 83.6 233.95 76.4 228.95 72.25 223.9 68.05 215.3 68.05L196.1 68.05 196.1 110.05 208 110.05 208 98.9M221.95 83.6Q221.95 89.7 214.6 89.7L208 89.7 208 77.4 214.6 77.4Q221.95 77.4 221.95 83.6M189.85 89.05Q189.85 79.6 183.25 73.4 176.6 67.2 166.5 67.2 156.45 67.2 149.8 73.4 143.2 79.6 143.2 89.05 143.2 98.5 149.8 104.7 156.45 110.9 166.5 110.9 176.6 110.9 183.25 104.7 189.85 98.5 189.85 89.05M166.5 77.05Q171.4 77.05 174.6 80.3 177.85 83.7 177.85 89.05 177.85 94.4 174.6 97.75 171.4 101.05 166.5 101.05 161.65 101.05 158.45 97.75 155.2 94.4 155.2 89.05 155.2 83.7 158.45 80.3 161.65 77.05 166.5 77.05M278.25 68.05L278.25 91.35Q278.25 100.7 283.45 105.8 288.6 110.9 298 110.9 307.35 110.9 312.5 105.8 317.75 100.7 317.75 91.35L317.75 68.05 306 68.05 306 91Q306 101.05 298.1 101.05 290.15 101.05 290.15 91L290.15 68.05 278.25 68.05M261.3 77.45L274.15 77.45 274.15 68.05 236.55 68.05 236.55 77.45 249.45 77.45 249.45 110.05 261.3 110.05 261.3 77.45M386 68.05L374.1 68.05 374.1 110.05 386 110.05 386 68.05M354.05 68.05L354.05 90.4 335.5 68.05 325.75 68.05 325.75 110.05 337.4 110.05 337.4 87.65 355.9 110.05 365.7 110.05 365.7 68.05 354.05 68.05M415.2 77.45L428.05 77.45 428.05 69.65 443.1 94.8 443.1 110.05 455 110.05 455 95 471.05 68.05 459.55 68.05 449.6 84.75 439.65 68.05 390.45 68.05 390.45 77.45 403.35 77.45 403.35 110.05 415.2 110.05 415.2 77.45M524.45 77.25L524.45 68.05 491.5 68.05 491.5 110.05 503.4 110.05 503.4 95.65 521.95 95.65 521.95 86.45 503.4 86.45 503.4 77.25 524.45 77.25M574.5 89.05Q574.5 79.6 567.9 73.4 561.25 67.2 551.15 67.2 541.1 67.2 534.45 73.4 527.85 79.6 527.85 89.05 527.85 98.5 534.45 104.7 541.1 110.9 551.15 110.9 561.25 110.9 567.9 104.7 574.5 98.5 574.5 89.05M543.1 97.75Q539.85 94.4 539.85 89.05 539.85 83.7 543.1 80.3 546.3 77.05 551.15 77.05 556.05 77.05 559.25 80.3 562.5 83.7 562.5 89.05 562.5 94.4 559.25 97.75 556.05 101.05 551.15 101.05 546.3 101.05 543.1 97.75M592.65 98.9L599.1 98.9 606.75 110.05 619.45 110.05 610.4 96.85Q618.6 92.9 618.6 83.6 618.6 76.4 613.6 72.25 608.55 68.05 599.95 68.05L580.75 68.05 580.75 110.05 592.65 110.05 592.65 98.9M606.6 83.6Q606.6 89.7 599.25 89.7L592.65 89.7 592.65 77.4 599.25 77.4Q606.6 77.4 606.6 83.6M795.9 110.6Q798.9 110.6 800.85 108.75 802.75 106.95 802.75 104.3 802.75 101.6 800.85 99.9 798.9 98.1 795.9 98.1 792.9 98.1 791 99.9 789.15 101.6 789.15 104.3 789.15 106.95 791 108.75 792.95 110.6 795.9 110.6M705.3 67.2Q695.25 67.2 688.6 73.4 682 79.6 682 89.05 682 98.5 688.6 104.7 695.25 110.9 705.3 110.9 715.4 110.9 722.05 104.7 728.65 98.5 728.65 89.05 728.65 79.6 722.05 73.4 715.4 67.2 705.3 67.2M697.25 97.75Q694 94.4 694 89.05 694 83.7 697.25 80.3 700.45 77.05 705.3 77.05 710.2 77.05 713.4 80.3 716.65 83.7 716.65 89.05 716.65 94.4 713.4 97.75 710.2 101.05 705.3 101.05 700.45 101.05 697.25 97.75M681.15 68.05L669.65 68.05 659.7 84.75 649.75 68.05 637.2 68.05 653.2 94.8 653.2 110.05 665.1 110.05 665.1 95 681.15 68.05M806.65 70.1Q802.35 67.2 795.25 67.2 782.7 67.2 777.45 76.1L786.4 80.9Q788.85 76.55 793.9 76.55 796.2 76.55 797.65 77.6 799.15 78.65 799.15 80.4 799.15 81.85 797.8 83.45L794.85 86.3Q790.55 90.4 790.55 94.75L801.25 94.75Q801.25 92.95 802.8 91.2 803.2 90.7 806.2 88.05 811.1 83.65 811.1 78.5 811.1 73.15 806.65 70.1M762.3 68.05L762.3 91Q762.3 101.05 754.4 101.05 746.45 101.05 746.45 91L746.45 68.05 734.55 68.05 734.55 91.35Q734.55 100.7 739.75 105.8 744.9 110.9 754.3 110.9 763.65 110.9 768.8 105.8 774.05 100.7 774.05 91.35L774.05 68.05 762.3 68.05Z"/><path fill="#FFF" stroke="none" d="M50.95 15.4L43.6 37.95 36.55 15.4 27.45 15.4 20.05 37.75 13 15.4 2.8 15.4 14.15 50.4 24.75 50.4 31.75 29.1 38.45 50.4 49.05 50.4 60.4 15.4 50.95 15.4M100.8 50.4L110.9 50.4 113.65 43.6 128.45 43.6 131.2 50.4 141.5 50.4 126 15.4 116.25 15.4 100.8 50.4M116.55 36.3L121.05 25.1 125.55 36.3 116.55 36.3M88.1 15.4L88.1 28.55 74.6 28.55 74.6 15.4 64.7 15.4 64.7 50.4 74.6 50.4 74.6 36.75 88.1 36.75 88.1 50.4 98 50.4 98 15.4 88.1 15.4M172.35 23.25L172.35 15.4 141 15.4 141 23.25 151.75 23.25 151.75 50.4 161.65 50.4 161.65 23.25 172.35 23.25M200.5 15.4L190.6 15.4 190.6 50.4 200.5 50.4 200.5 15.4M221.2 14.7Q213.7 14.7 209.55 18.05 205.7 21.1 205.7 26.05 205.7 30.45 208.8 33 211.1 34.9 215.65 36.1 218.15 36.75 222.5 37.8 225.6 38.8 225.6 40.55 225.6 43.4 219.9 43.4 213.55 43.4 208.35 39.95L205.1 47.25Q207.6 49 211.55 50.05 215.55 51.1 219.85 51.1 227.3 51.1 231.5 47.75 235.35 44.65 235.35 39.8 235.35 35.45 232.25 32.9 230 31 225.45 29.85 220.45 28.8 218.6 28.2 215.5 27.25 215.5 25.55 215.5 22.4 221.15 22.4 225.85 22.4 230.85 25.1L233.9 17.75Q228.65 14.7 221.2 14.7M271.8 23.25L282.5 23.25 282.5 15.4 251.15 15.4 251.15 23.25 261.9 23.25 261.9 50.4 271.8 50.4 271.8 23.25M309.6 15.4L309.6 28.55 296.1 28.55 296.1 15.4 286.2 15.4 286.2 50.4 296.1 50.4 296.1 36.75 309.6 36.75 309.6 50.4 319.5 50.4 319.5 15.4 309.6 15.4M353.95 23.05L353.95 15.4 326.5 15.4 326.5 50.4 354.6 50.4 354.6 42.75 336.3 42.75 336.3 36.35 351.85 36.35 351.85 28.95 336.3 28.95 336.3 23.05 353.95 23.05M406.85 46.65L406.85 32.15 398.1 32.15 398.1 41.75Q395.6 42.9 392.75 42.9 388.35 42.9 385.6 40.1 382.85 37.35 382.85 32.9 382.85 28.4 385.6 25.6 388.35 22.9 392.85 22.9 397.8 22.9 401.35 26.8L407.65 21.1Q402.35 14.7 392.35 14.7 383.8 14.7 378.35 19.8 372.85 24.9 372.85 32.9 372.85 40.85 378.35 46 383.75 51.1 392.15 51.1 400.65 51.1 406.85 46.65M440.5 18.9Q436.3 15.4 429.15 15.4L413.15 15.4 413.15 50.4 423.05 50.4 423.05 41.1 428.45 41.1 434.8 50.4 445.4 50.4 437.85 39.4Q444.7 36.1 444.7 28.35 444.7 22.35 440.5 18.9M434.7 28.35Q434.7 33.45 428.55 33.45L423.05 33.45 423.05 23.2 428.55 23.2Q434.7 23.2 434.7 28.35M481.75 19.85Q476.2 14.7 467.8 14.7 459.4 14.7 453.9 19.85 448.35 25.05 448.35 32.9 448.35 40.8 453.9 45.95 459.4 51.1 467.8 51.1 476.2 51.1 481.75 45.95 487.25 40.8 487.25 32.9 487.25 25.05 481.75 19.85M461.1 40.15Q458.35 37.35 458.35 32.9 458.35 28.45 461.1 25.6 463.75 22.9 467.8 22.9 471.85 22.9 474.5 25.6 477.25 28.45 477.25 32.9 477.25 37.35 474.5 40.15 471.85 42.9 467.8 42.9 463.75 42.9 461.1 40.15M537.9 15.4L530.55 37.95 523.5 15.4 514.4 15.4 507 37.75 499.95 15.4 489.75 15.4 501.1 50.4 511.7 50.4 518.7 29.1 525.4 50.4 536 50.4 547.35 15.4 537.9 15.4M606.8 15.4L606.8 28.55 593.3 28.55 593.3 15.4 583.4 15.4 583.4 50.4 593.3 50.4 593.3 36.75 606.8 36.75 606.8 50.4 616.7 50.4 616.7 15.4 606.8 15.4M569 23.25L579.7 23.25 579.7 15.4 548.35 15.4 548.35 23.25 559.1 23.25 559.1 50.4 569 50.4 569 23.25Z"/></g><animate attributeName="display" fill="freeze" repeatCount="1" dur="1.042s" keyTimes="0;.36;1" values="none;inline;inline"/></g></g></svg>