<?xml version="1.0" encoding="utf-8"?><svg id="section-4" image-rendering="auto" baseProfile="basic" version="1.1" x="0px" y="0px" width="1180" height="679" xmlns="http://www.w3.org/2000/svg" xmlns:xlink="http://www.w3.org/1999/xlink"><g id="Scene-1r1" overflow="visible"><image overflow="visible" xlink:href="img/Bitmap_4.png" height="679" width="1180"/><g display="none"><g id="Symbol-2" transform="translate(-420.7 346.4)" opacity=".2"><animateTransform attributeName="transform" additive="replace" type="translate" dur="1.042s" keyTimes="0;.36;.76;1" values="-420.7,346.4;-420.7,346.4;0,346.4;0,346.4" keySplines=".25 .5 .5 1;.25 .5 .5 1;.1 .1 .9 .9" calcMode="spline" fill="freeze"/><animate attributeName="opacity" dur="1.042s" keyTimes="0;.36;.76;1" values=".2;.2;1;1" keySplines=".25 .5 .5 1;.25 .5 .5 1;.1 .1 .9 .9" calcMode="spline" fill="freeze"/><path fill="#4D4D4F" stroke="none" d="M869 168.3L869 0 0 0 0 168.3 869 168.3Z"/></g><animate attributeName="display" fill="freeze" repeatCount="1" dur="1.042s" keyTimes="0;.36;1" values="none;inline;inline"/></g><g display="none"><g id="Symbol-1" transform="translate(-393.15 372.65)" opacity=".2"><animateTransform attributeName="transform" additive="replace" type="translate" dur="1.042s" keyTimes="0;.36;.76;1" values="-393.15,372.65;-393.15,372.65;27.55,372.65;27.55,372.65" keySplines=".25 .5 .5 1;.25 .5 .5 1;.1 .1 .9 .9" calcMode="spline" fill="freeze"/><animate attributeName="opacity" dur="1.042s" keyTimes="0;.36;.76;1" values=".2;.2;1;1" keySplines=".25 .5 .5 1;.25 .5 .5 1;.1 .1 .9 .9" calcMode="spline" fill="freeze"/><path fill="#FAB813" stroke="none" d="M75.6 68.05L63.9 68.05 45.35 110.05 57.5 110.05 60.8 101.9 78.55 101.9 81.85 110.05 94.2 110.05 75.6 68.05M64.25 93.1L69.65 79.7 75.05 93.1 64.25 93.1M25.4 68.05L6.2 68.05 6.2 110.05 18.1 110.05 18.1 99.05 25.4 99.05Q34 99.05 39.05 94.9 44.05 90.75 44.05 83.6 44.05 76.4 39.05 72.25 34 68.05 25.4 68.05M24.7 89.7L18.1 89.7 18.1 77.4 24.7 77.4Q32.05 77.4 32.05 83.6 32.05 89.7 24.7 89.7M116.75 68.05L97.55 68.05 97.55 110.05 109.45 110.05 109.45 98.9 115.9 98.9 123.55 110.05 136.25 110.05 127.2 96.85Q135.4 92.9 135.4 83.6 135.4 76.4 130.4 72.25 125.35 68.05 116.75 68.05M116.05 89.7L109.45 89.7 109.45 77.4 116.05 77.4Q123.4 77.4 123.4 83.6 123.4 89.7 116.05 89.7M189.8 68.05L180.05 68.05 180.05 110.05 191.7 110.05 191.7 87.65 210.2 110.05 220 110.05 220 68.05 208.35 68.05 208.35 90.4 189.8 68.05M162.75 77.45L175.6 77.45 175.6 68.05 138 68.05 138 77.45 150.9 77.45 150.9 110.05 162.75 110.05 162.75 77.45M298.35 96.85Q306.55 92.9 306.55 83.6 306.55 76.4 301.55 72.25 296.5 68.05 287.9 68.05L268.7 68.05 268.7 110.05 280.6 110.05 280.6 98.9 287.05 98.9 294.7 110.05 307.4 110.05 298.35 96.85M280.6 89.7L280.6 77.4 287.2 77.4Q294.55 77.4 294.55 83.6 294.55 89.7 287.2 89.7L280.6 89.7M258.85 93.2L258.85 84.3 240.15 84.3 240.15 77.25 261.35 77.25 261.35 68.05 228.4 68.05 228.4 110.05 262.1 110.05 262.1 100.9 240.15 100.9 240.15 93.2 258.85 93.2M401.55 110.05L413.45 110.05 413.45 68.05 401.55 68.05 401.55 110.05M356.9 68.05L348 94.85 339.55 68.05 327.3 68.05 340.95 110.05 353.65 110.05 362.05 84.5 370.1 110.05 382.8 110.05 396.45 68.05 385.1 68.05 376.25 95.1 367.8 68.05 356.9 68.05M417.9 68.05L417.9 77.45 430.8 77.45 430.8 110.05 442.65 110.05 442.65 77.45 455.5 77.45 455.5 68.05 417.9 68.05M550.95 68.05L539.25 68.05 520.7 110.05 532.85 110.05 536.15 101.9 553.9 101.9 557.2 110.05 569.55 110.05 550.95 68.05M539.6 93.1L545 79.7 550.4 93.1 539.6 93.1M488.05 68.05L488.05 83.85 471.85 83.85 471.85 68.05 459.95 68.05 459.95 110.05 471.85 110.05 471.85 93.65 488.05 93.65 488.05 110.05 499.9 110.05 499.9 68.05 488.05 68.05M601.2 68.05L601.2 90.4 582.65 68.05 572.9 68.05 572.9 110.05 584.55 110.05 584.55 87.65 603.05 110.05 612.85 110.05 612.85 68.05 601.2 68.05M758.2 110.6Q761.2 110.6 763.15 108.75 765.05 106.95 765.05 104.3 765.05 101.6 763.15 99.9 761.2 98.1 758.2 98.1 755.2 98.1 753.3 99.9 751.45 101.6 751.45 104.3 751.45 106.95 753.3 108.75 755.25 110.6 758.2 110.6M719.65 68.05L707.75 68.05 707.75 110.05 739.65 110.05 739.65 100.6 719.65 100.6 719.65 68.05M679.2 84.3L679.2 77.25 700.4 77.25 700.4 68.05 667.45 68.05 667.45 110.05 701.15 110.05 701.15 100.9 679.2 100.9 679.2 93.2 697.9 93.2 697.9 84.3 679.2 84.3M653.3 81.7L660.85 74.9Q654.45 67.2 642.5 67.2 632.25 67.2 625.7 73.35 619.1 79.45 619.1 89.05 619.1 98.6 625.65 104.8 632.2 110.9 642.25 110.9 652.45 110.9 659.9 105.55L659.9 88.15 649.4 88.15 649.4 99.7Q646.4 101.05 643 101.05 637.7 101.05 634.35 97.7 631.1 94.4 631.1 89.05 631.1 83.6 634.4 80.3 637.7 77.05 643.1 77.05 649.05 77.05 653.3 81.7M768.95 70.1Q764.65 67.2 757.55 67.2 745 67.2 739.75 76.1L748.7 80.9Q751.15 76.55 756.2 76.55 758.5 76.55 759.95 77.6 761.45 78.65 761.45 80.4 761.45 81.85 760.1 83.45L757.15 86.3Q752.85 90.4 752.85 94.75L763.55 94.75Q763.55 92.95 765.1 91.2 765.5 90.7 768.5 88.05 773.4 83.65 773.4 78.5 773.4 73.15 768.95 70.1Z"/><path fill="#FFF" stroke="none" d="M50.95 15.4L43.6 37.95 36.55 15.4 27.45 15.4 20.05 37.75 13 15.4 2.8 15.4 14.15 50.4 24.75 50.4 31.75 29.1 38.45 50.4 49.05 50.4 60.4 15.4 50.95 15.4M88.1 15.4L88.1 28.55 74.6 28.55 74.6 15.4 64.7 15.4 64.7 50.4 74.6 50.4 74.6 36.75 88.1 36.75 88.1 50.4 98 50.4 98 15.4 88.1 15.4M137.15 15.4L127.55 15.4 119.25 29.3 110.95 15.4 100.5 15.4 113.85 37.7 113.85 50.4 123.75 50.4 123.75 37.85 137.15 15.4M185.8 24.55Q185.8 20.35 182.4 17.95 178.8 15.4 172.1 15.4L154.2 15.4 154.2 50.4 173.1 50.4Q180.1 50.4 183.85 47.85 187.5 45.35 187.5 40.8 187.5 34.4 181.1 32.15 185.8 29.7 185.8 24.55M164 22.55L170.8 22.55Q175.8 22.55 175.8 25.9 175.8 29.3 170.8 29.3L164 29.3 164 22.55M177.5 39.7Q177.5 43.25 172.3 43.25L164 43.25 164 36.15 172.3 36.15Q177.5 36.15 177.5 39.7M218 36.35L218 28.95 202.45 28.95 202.45 23.05 220.1 23.05 220.1 15.4 192.65 15.4 192.65 50.4 220.75 50.4 220.75 42.75 202.45 42.75 202.45 36.35 218 36.35M258.75 21.3Q253.45 14.7 243.7 14.7 235.35 14.7 229.9 19.8 224.45 24.95 224.45 32.9 224.45 40.85 229.9 46 235.35 51.1 243.7 51.1 253.45 51.1 258.75 44.5L252.45 38.8Q249.05 42.9 244.2 42.9 239.85 42.9 237.2 40.15 234.45 37.4 234.45 32.9 234.45 28.45 237.2 25.65 239.85 22.9 244.2 22.9 249.05 22.9 252.45 27L258.75 21.3M294.75 45.95Q300.25 40.8 300.25 32.9 300.25 25.05 294.75 19.85 289.2 14.7 280.8 14.7 272.4 14.7 266.9 19.85 261.35 25.05 261.35 32.9 261.35 40.8 266.9 45.95 272.4 51.1 280.8 51.1 289.2 51.1 294.75 45.95M287.5 25.6Q290.25 28.45 290.25 32.9 290.25 37.35 287.5 40.15 284.85 42.9 280.8 42.9 276.75 42.9 274.1 40.15 271.35 37.35 271.35 32.9 271.35 28.45 274.1 25.6 276.75 22.9 280.8 22.9 284.85 22.9 287.5 25.6M346.05 15.4L337.9 15.4 325.9 35.6 313.6 15.4 305.45 15.4 305.45 50.4 314.6 50.4 314.6 32.35 323.55 46.95 327.95 46.95 336.95 31.85 337.05 50.4 346.15 50.4 346.05 15.4M378.5 36.35L378.5 28.95 362.95 28.95 362.95 23.05 380.6 23.05 380.6 15.4 353.15 15.4 353.15 50.4 381.25 50.4 381.25 42.75 362.95 42.75 362.95 36.35 378.5 36.35M422.3 15.4L412.55 15.4 397.1 50.4 407.2 50.4 409.95 43.6 424.75 43.6 427.5 50.4 437.8 50.4 422.3 15.4M412.85 36.3L417.35 25.1 421.85 36.3 412.85 36.3M453.35 32.9Q453.35 40.85 458.8 46 464.25 51.1 472.6 51.1 482.35 51.1 487.65 44.5L481.35 38.8Q477.95 42.9 473.1 42.9 468.75 42.9 466.1 40.15 463.35 37.4 463.35 32.9 463.35 28.45 466.1 25.65 468.75 22.9 473.1 22.9 477.95 22.9 481.35 27L487.65 21.3Q482.35 14.7 472.6 14.7 464.25 14.7 458.8 19.8 453.35 24.95 453.35 32.9M515.45 15.4L515.45 28.55 501.95 28.55 501.95 15.4 492.05 15.4 492.05 50.4 501.95 50.4 501.95 36.75 515.45 36.75 515.45 50.4 525.35 50.4 525.35 15.4 515.45 15.4M553.35 15.4L543.6 15.4 528.15 50.4 538.25 50.4 541 43.6 555.8 43.6 558.55 50.4 568.85 50.4 553.35 15.4M543.9 36.3L548.4 25.1 552.9 36.3 543.9 36.3M595.25 15.4L595.25 34.05 579.8 15.4 571.65 15.4 571.65 50.4 581.35 50.4 581.35 31.75 596.8 50.4 604.95 50.4 604.95 15.4 595.25 15.4M635.55 15.4L635.55 34.05 620.1 15.4 611.95 15.4 611.95 50.4 621.65 50.4 621.65 31.75 637.1 50.4 645.25 50.4 645.25 15.4 635.55 15.4M679.7 23.05L679.7 15.4 652.25 15.4 652.25 50.4 680.35 50.4 680.35 42.75 662.05 42.75 662.05 36.35 677.6 36.35 677.6 28.95 662.05 28.95 662.05 23.05 679.7 23.05M712.45 42.55L695.75 42.55 695.75 15.4 685.85 15.4 685.85 50.4 712.45 50.4 712.45 42.55Z"/></g><animate attributeName="display" fill="freeze" repeatCount="1" dur="1.042s" keyTimes="0;.36;1" values="none;inline;inline"/></g></g></svg>