<?xml version="1.0" encoding="utf-8"?>
<svg xmlns:xlink="http://www.w3.org/1999/xlink" baseProfile="basic" height="679" id="section-1" image-rendering="auto" version="1.1"
    width="1180" x="0px" xmlns="http://www.w3.org/2000/svg"
    y="0px">
    <g display="none" id="Scene-1r1" overflow="visible">
        <image height="679" overflow="visible" transform="translate(1 2)" width="1180"
            xlink:href="img/Section-1_bg.png" />
        <g id="Symbol-1" opacity=".2" transform="translate(-393.15 372.65)">
            <animateTransform additive="replace" attributeName="transform" calcMode="spline"
                dur="1.042s" fill="freeze"
                keySplines=".25 .5 .5 1;.25 .5 .5 1;.1 .1 .9 .9"
                keyTimes="0;.36;.76;1" type="translate" values="-393.15,372.65;-393.15,372.65;27.55,372.65;27.55,372.65" />
            <animate attributeName="opacity" calcMode="spline" dur="1.042s" fill="freeze"
                keySplines=".25 .5 .5 1;.25 .5 .5 1;.1 .1 .9 .9" keyTimes="0;.36;.76;1" values=".2;.2;1;1" />
            <path d="M78.25 67.75L66.7 67.75 66.7 91 56.65 91 56.65 67.75 45.1 67.75 45.1 124.45 56.65 124.45 56.65 99.35 66.7 99.35 66.7 124.45 78.25 124.45 78.25 67.75M34.55 71.55Q30.7 67.05 22.05 67.05 12.9 67.05 8.95 72.15 5.4 76.65 5.4 86.05L5.4 106.35Q5.4 115.45 8.95 120 12.95 125.25 22.05 125.25 30.75 125.25 34.6 120.4 37.9 116.3 37.9 108.2L37.9 103.55 26.7 103.55 26.7 109.05Q26.7 112.95 26.05 114.55 25.05 116.95 22.1 116.95 19.25 116.95 18.1 114.8 17.1 113.05 17.1 109.05L17.1 83.3Q17.1 79.4 17.85 77.75 18.95 75.3 22.1 75.3 25.1 75.3 26.1 77.6 26.7 79.15 26.7 82.95L26.7 88.2 37.9 88.2 37.9 83.45Q37.9 75.55 34.55 71.55M159.8 85.45Q159.8 76.35 156.1 71.9 152.05 67.05 143.05 67.05 134 67.05 130 71.9 126.3 76.35 126.3 85.45L126.3 106.6Q126.3 115.75 130 120.3 134.05 125.25 143.05 125.25 152 125.25 156.1 120.3 159.8 115.75 159.8 106.7L159.8 85.45M138.1 82.65Q138.1 79.15 138.95 77.5 140.1 75.3 143.05 75.3 146.05 75.3 147.15 77.5 148 79.15 148 82.65L148 109.5Q148 116.95 143.05 116.95 140 116.95 138.9 114.65 138.1 113.05 138.1 109.5L138.1 82.65M119.5 85.45Q119.5 76.35 115.8 71.9 111.75 67.05 102.75 67.05 93.7 67.05 89.7 71.9 86 76.35 86 85.45L86 106.6Q86 115.75 89.7 120.3 93.75 125.25 102.75 125.25 111.7 125.25 115.8 120.3 119.5 115.75 119.5 106.7L119.5 85.45M97.8 82.65Q97.8 79.15 98.65 77.5 99.8 75.3 102.75 75.3 105.75 75.3 106.85 77.5 107.7 79.15 107.7 82.65L107.7 109.5Q107.7 116.95 102.75 116.95 99.7 116.95 98.6 114.65 97.8 113.05 97.8 109.5L97.8 82.65M214.3 98.8L224.55 98.8 224.55 90.8 214.3 90.8 214.3 75.75 227.55 75.75 227.55 67.75 202.8 67.75 202.8 124.45 227.65 124.45 227.65 116.6 214.3 116.6 214.3 98.8M181.55 67.05Q174.4 67.05 170.3 70.75 166.15 74.6 166.15 81.5 166.15 89.7 173.35 95.8L179.25 100.95Q182.5 103.75 183.8 105.8 185.45 108.4 185.45 111.75 185.45 116.4 181.6 116.4 176.35 116.4 176 105.9L166.05 107.55Q166.45 116.6 170.35 120.95 174.25 125.25 182.1 125.25 188.65 125.25 192.75 121.25 196.75 117.3 196.75 111.15 196.75 101.9 188.05 94.35L182.3 89.3Q179.65 87 178.6 85.3 177.2 83.15 177.2 80.35 177.2 78.4 178.2 77 179.3 75.5 181.2 75.5 183.8 75.5 184.8 77.95 185.55 79.8 185.65 84.25L195.65 82.8Q194.8 67.05 181.55 67.05M314.35 85.45Q314.35 76.35 310.65 71.9 306.6 67.05 297.6 67.05 288.55 67.05 284.55 71.9 280.85 76.35 280.85 85.45L280.85 106.6Q280.85 115.75 284.55 120.3 288.6 125.25 297.6 125.25L298.8 125.15Q300.9 128.4 304.3 131.5 307.6 134.55 310.15 135.65L312.45 128.5Q310.25 127.3 306.7 123.3 314.35 119.55 314.35 106.7L314.35 85.45M292.65 82.65Q292.65 79.1 293.45 77.5 294.55 75.3 297.6 75.3 300.6 75.3 301.75 77.5 302.55 79.15 302.55 82.65L302.55 109.5Q302.55 113 301.75 114.65 300.6 116.95 297.6 116.95 294.55 116.95 293.45 114.65 292.65 113.05 292.65 109.5L292.65 82.65M262.5 98.8L272.75 98.8 272.75 90.8 262.5 90.8 262.5 75.75 275.75 75.75 275.75 67.75 251 67.75 251 124.45 275.85 124.45 275.85 116.6 262.5 116.6 262.5 98.8M452.55 124.45L462.9 124.45 462.9 114.3 452.55 114.3 452.55 124.45M374.1 67.75L362.6 67.75 362.6 124.45 374.1 124.45 374.1 67.75M354.4 67.75L343 67.75 343 108.15Q343 112.2 342.2 114.1 341.05 116.85 338 116.85 334.9 116.85 333.75 114.1 332.95 112.2 332.95 108.15L332.95 67.75 321.6 67.75 321.6 106.55Q321.6 116.05 324.95 120.35 328.75 125.25 338 125.25 347.2 125.25 351.05 120.35 354.4 116 354.4 106.55L354.4 67.75M460.2 67.05Q453.4 67.05 449.7 70.55 446 73.95 446 80.1 446 83 447 86.15L456.65 84Q455.95 81.9 455.95 80.2 455.95 76.1 460 76.1 464.4 76.1 464.4 81.55 464.4 91.6 452.95 100.75L452.95 109.7 462.5 109.7 462.5 102.8Q474.75 93.4 474.75 81.3 474.75 74.5 471 70.8 467.2 67.05 460.2 67.05M408.2 76.3L408.2 67.75 379.25 67.75 379.25 76.3 388 76.3 388 124.45 399.65 124.45 399.65 76.3 408.2 76.3M442.8 67.75L432.2 67.75 426.6 87.7 420.55 67.75 409.65 67.75 420.75 102 420.75 124.45 431.9 124.45 431.9 102 442.8 67.75Z" fill="#FFF"
                stroke="none" />
            <path d="M332.25 -5.6Q326.1 -5.6 322.6 -2.45 319 .85 319 6.75 319 13.8 325.2 19.05L330.25 23.45Q333 25.85 334.15 27.6 335.55 29.85 335.55 32.75 335.55 36.7 332.3 36.7 327.75 36.7 327.5 27.7L318.95 29.15Q319.3 36.9 322.6 40.6 325.95 44.25 332.7 44.25 338.35 44.25 341.8 40.85 345.25 37.5 345.25 32.2 345.25 24.25 337.8 17.8L332.9 13.5Q330.6 11.5 329.7 10.05 328.5 8.2 328.5 5.8 328.5 4.1 329.35 2.95 330.3 1.65 331.9 1.65 334.15 1.65 335 3.75 335.65 5.35 335.75 9.15L344.35 7.9Q343.55 -5.6 332.25 -5.6M458.3 -5.6Q452.15 -5.6 448.65 -2.45 445.05 .85 445.05 6.75 445.05 13.8 451.25 19.05L456.3 23.45Q459.05 25.85 460.2 27.6 461.6 29.85 461.6 32.75 461.6 36.7 458.35 36.7 453.8 36.7 453.55 27.7L445 29.15Q445.35 36.9 448.65 40.6 452 44.25 458.75 44.25 464.4 44.25 467.85 40.85 471.3 37.5 471.3 32.2 471.3 24.25 463.85 17.8L458.95 13.5Q456.65 11.5 455.75 10.05 454.55 8.2 454.55 5.8 454.55 4.1 455.4 2.95 456.35 1.65 457.95 1.65 460.2 1.65 461.05 3.75 461.7 5.35 461.8 9.15L470.4 7.9Q469.6 -5.6 458.3 -5.6M435.4 -2.3Q431.7 -5 423.85 -5L411.25 -5 411.25 43.6 421.1 43.6 421.1 21.55 424.7 21.55 430.2 43.6 440.35 43.6 433.65 19.9Q437 18.4 438.4 15.3 439.65 12.55 439.65 7.85 439.65 .75 435.4 -2.3M430.35 8.6Q430.35 12.3 428.95 13.95 427.5 15.7 424.05 15.7L421.1 15.7 421.1 1.65 424.55 1.65Q427.8 1.65 429.15 3.45 430.35 5.05 430.35 8.6M372.35 -5L347.55 -5 347.55 2.3 355.05 2.3 355.05 43.6 365 43.6 365 2.3 372.35 2.3 372.35 -5M401.5 -1.45Q398.05 -5.6 390.35 -5.6 382.55 -5.6 379.15 -1.45 376 2.35 376 10.15L376 28.3Q376 36.15 379.15 40.05 382.6 44.25 390.35 44.25 398 44.25 401.5 40.05 404.65 36.15 404.65 28.35L404.65 10.15Q404.65 2.4 401.5 -1.45M393.85 3.4Q394.6 4.8 394.6 7.75L394.6 30.75Q394.6 37.2 390.35 37.2 387.75 37.2 386.75 35.2 386.05 33.8 386.05 30.75L386.05 7.75Q386.05 4.8 386.8 3.4 387.8 1.45 390.35 1.45 392.9 1.45 393.85 3.4M315.05 -5L293.85 -5 293.85 43.6 315.15 43.6 315.15 36.9 303.7 36.9 303.7 21.65 312.45 21.65 312.45 14.75 303.7 14.75 303.7 1.85 315.05 1.85 315.05 -5M268.85 -5L260.25 -5 269.5 43.6 279.7 43.6 288.95 -5 280 -5 274.6 28.6 268.85 -5M236.3 -5L229.4 -5 229.4 43.6 237.9 43.6 237.9 16.75 248.65 43.6 255.35 43.6 255.35 -5 247.1 -5 247.1 20.25 236.3 -5M222.05 -5L212.25 -5 212.25 43.6 222.05 43.6 222.05 -5M187.35 -1.45Q183.9 -5.6 176.2 -5.6 168.4 -5.6 165 -1.45 161.85 2.35 161.85 10.15L161.85 28.3Q161.85 36.15 165 40.05 168.45 44.25 176.2 44.25 183.85 44.25 187.35 40.05 190.5 36.15 190.5 28.35L190.5 10.15Q190.5 2.4 187.35 -1.45M179.7 3.4Q180.45 4.8 180.45 7.75L180.45 30.75Q180.45 37.2 176.2 37.2 173.6 37.2 172.6 35.2 171.9 33.8 171.9 30.75L171.9 7.75Q171.9 4.8 172.65 3.4 173.65 1.45 176.2 1.45 178.75 1.45 179.7 3.4M152.7 -1.35Q149.05 -5 140.1 -5L128.2 -5 128.2 43.6 140.35 43.6Q149.15 43.6 152.7 39.8 156.05 36.3 156.05 27.95L156.05 10.25Q156.05 2.1 152.7 -1.35M145 3.6Q145.9 4.9 145.9 8.9L145.9 29Q145.9 33.4 145.1 34.8 143.95 36.7 140.2 36.7L138.05 36.7 138.05 1.95 140.15 1.95Q143.85 1.95 145 3.6M109 -5L99.95 -5 95.15 12.1 89.95 -5 80.65 -5 90.1 24.35 90.1 43.6 99.65 43.6 99.65 24.35 109 -5M76.35 -5L66.45 -5 66.45 14.9 57.9 14.9 57.9 -5 48 -5 48 43.6 57.9 43.6 57.9 22.05 66.45 22.05 66.45 43.6 76.35 43.6 76.35 -5M26.45 -4.95L19.75 -4.95 15.5 24.7 12.1 -5 3.75 -5 10.05 43.6 18.6 43.6 23.1 12.8 27.8 43.6 36.25 43.6 42.5 -5 34.3 -5 30.85 24.6 26.45 -4.95Z" fill="#FFCB05"
                stroke="none" />
        </g>
        <animate attributeName="display" dur="1.042s" fill="freeze" keyTimes="0;.36;1"
            repeatCount="1" values="none;inline;inline" />
    </g>
</svg>