<?xml version="1.0" encoding="utf-8"?><svg id="section-5" image-rendering="auto" baseProfile="basic" version="1.1" x="0px" y="0px" width="1180" height="679" xmlns="http://www.w3.org/2000/svg" xmlns:xlink="http://www.w3.org/1999/xlink"><g id="Scene-1r1" overflow="visible" display="none"><image overflow="visible" xlink:href="img/Section-5_bg.png" height="679" width="1180" transform="translate(2 2)"/><g id="Symbol-1" transform="translate(-393.15 372.65)" opacity=".2"><animateTransform attributeName="transform" additive="replace" type="translate" dur="1.042s" keyTimes="0;.36;.76;1" values="-393.15,372.65;-393.15,372.65;27.55,372.65;27.55,372.65" keySplines=".25 .5 .5 1;.25 .5 .5 1;.1 .1 .9 .9" calcMode="spline" fill="freeze"/><animate attributeName="opacity" dur="1.042s" keyTimes="0;.36;.76;1" values=".2;.2;1;1" keySplines=".25 .5 .5 1;.25 .5 .5 1;.1 .1 .9 .9" calcMode="spline" fill="freeze"/><path fill="#FFF" stroke="none" d="M78.9 67.75L67.5 67.75 67.5 108.15Q67.5 112.2 66.7 114.1 65.55 116.85 62.5 116.85 59.4 116.85 58.25 114.1 57.45 112.2 57.45 108.15L57.45 67.75 46.1 67.75 46.1 106.55Q46.1 116.05 49.45 120.35 53.25 125.25 62.5 125.25 71.7 125.25 75.55 120.35 78.9 116 78.9 106.55L78.9 67.75M33.05 70.6Q28.95 67.75 20.7 67.75L6.25 67.75 6.25 124.45 23.25 124.45Q39.75 124.45 39.75 107.8 39.75 95.45 29.8 94 38.05 92.55 38.05 82.45 38.05 74.1 33.05 70.6M17.75 90.65L17.75 75.7 19.9 75.7Q24.05 75.7 25.95 77.25 28 78.9 28 82.7 28 86.85 26.55 88.65 24.9 90.65 20.7 90.65L17.75 90.65M17.75 98.4L20.85 98.4Q25.15 98.4 26.9 100.6 28.65 102.7 28.65 107.55 28.65 112.15 27 114.15 25.3 116.3 21.05 116.3L17.75 116.3 17.75 98.4M133.95 67.75L122.45 67.75 122.45 124.45 133.95 124.45 133.95 67.75M101.05 67.05Q93.9 67.05 89.8 70.75 85.65 74.6 85.65 81.5 85.65 89.7 92.85 95.8L98.75 100.95Q102 103.75 103.3 105.8 104.95 108.4 104.95 111.75 104.95 116.4 101.1 116.4 95.85 116.4 95.5 105.9L85.55 107.55Q85.95 116.6 89.85 120.95 93.75 125.25 101.6 125.25 108.15 125.25 112.25 121.25 116.25 117.3 116.25 111.15 116.25 101.9 107.55 94.35L101.8 89.3Q99.15 87 98.1 85.3 96.7 83.15 96.7 80.35 96.7 78.4 97.7 77 98.8 75.5 100.7 75.5 103.3 75.5 104.3 77.95 105.05 79.8 105.15 84.25L115.15 82.8Q114.3 67.05 101.05 67.05M210.65 81.5Q210.65 89.7 217.85 95.8L223.75 100.95Q227 103.75 228.3 105.8 229.95 108.4 229.95 111.75 229.95 116.4 226.1 116.4 220.85 116.4 220.5 105.9L210.55 107.55Q210.95 116.6 214.85 120.95 218.75 125.25 226.6 125.25 233.15 125.25 237.25 121.25 241.25 117.3 241.25 111.15 241.25 101.9 232.55 94.35L226.8 89.3Q224.15 87 223.1 85.3 221.7 83.15 221.7 80.35 221.7 78.4 222.7 77 223.8 75.5 225.7 75.5 228.3 75.5 229.3 77.95 230.05 79.8 230.15 84.25L240.15 82.8Q239.3 67.05 226.05 67.05 218.9 67.05 214.8 70.75 210.65 74.6 210.65 81.5M172.75 67.75L163.15 67.75 163.15 97.2 150.55 67.75 142.5 67.75 142.5 124.45 152.4 124.45 152.4 93.1 165 124.45 172.75 124.45 172.75 67.75M192.75 90.8L192.75 75.75 206 75.75 206 67.75 181.25 67.75 181.25 124.45 206.1 124.45 206.1 116.6 192.75 116.6 192.75 98.8 203 98.8 203 90.8 192.75 90.8M261.4 67.05Q254.25 67.05 250.15 70.75 246 74.6 246 81.5 246 89.7 253.2 95.8L259.1 100.95Q262.35 103.75 263.65 105.8 265.3 108.4 265.3 111.75 265.3 116.4 261.45 116.4 256.2 116.4 255.85 105.9L245.9 107.55Q246.3 116.6 250.2 120.95 254.1 125.25 261.95 125.25 268.5 125.25 272.6 121.25 276.6 117.3 276.6 111.15 276.6 101.9 267.9 94.35L262.15 89.3Q259.5 87 258.45 85.3 257.05 83.15 257.05 80.35 257.05 78.4 258.05 77 259.15 75.5 261.05 75.5 263.65 75.5 264.65 77.95 265.4 79.8 265.5 84.25L275.5 82.8Q274.65 67.05 261.4 67.05M339.45 67.75L327.6 67.75 320.2 103.55 313.2 67.75 300.9 67.75 299.95 124.45 308.45 124.45 309.25 85.7 316.75 124.45 323.9 124.45 331.15 85.95 332.1 124.45 340.5 124.45 339.45 67.75M351.65 71.9Q347.95 76.35 347.95 85.45L347.95 106.6Q347.95 115.75 351.65 120.3 355.7 125.25 364.7 125.25 373.65 125.25 377.75 120.3 381.45 115.75 381.45 106.7L381.45 85.45Q381.45 76.35 377.75 71.9 373.7 67.05 364.7 67.05 355.65 67.05 351.65 71.9M359.75 82.65Q359.75 79.15 360.6 77.5 361.75 75.3 364.7 75.3 367.7 75.3 368.8 77.5 369.65 79.15 369.65 82.65L369.65 109.5Q369.65 116.95 364.7 116.95 361.65 116.95 360.55 114.65 359.75 113.05 359.75 109.5L359.75 82.65M471.4 67.75L459.9 67.75 459.9 124.45 484.75 124.45 484.75 116.6 471.4 116.6 471.4 67.75M421.6 85.5Q421.6 76 417.65 72 413.45 67.75 402.95 67.75L389.1 67.75 389.1 124.45 403.25 124.45Q413.55 124.45 417.7 120.05 421.6 115.9 421.6 106.15L421.6 85.5M408.7 77.8Q409.75 79.3 409.75 84L409.75 107.45Q409.75 112.5 408.8 114.15 407.5 116.4 403.15 116.4L400.6 116.4 400.6 75.9 403.05 75.9Q407.35 75.9 408.7 77.8M440.7 90.8L440.7 75.75 453.95 75.75 453.95 67.75 429.2 67.75 429.2 124.45 454.05 124.45 454.05 116.6 440.7 116.6 440.7 98.8 450.95 98.8 450.95 90.8 440.7 90.8M495.1 124.45L505.45 124.45 505.45 114.3 495.1 114.3 495.1 124.45M502.75 67.05Q495.95 67.05 492.25 70.55 488.55 73.95 488.55 80.1 488.55 83 489.55 86.15L499.2 84Q498.5 81.9 498.5 80.2 498.5 76.1 502.55 76.1 506.95 76.1 506.95 81.55 506.95 91.6 495.5 100.75L495.5 109.7 505.05 109.7 505.05 102.8Q517.3 93.4 517.3 81.3 517.3 74.5 513.55 70.8 509.75 67.05 502.75 67.05Z"/><path fill="#FFCC04" stroke="none" d="M340.8 -5L319.6 -5 319.6 43.6 340.9 43.6 340.9 36.9 329.45 36.9 329.45 21.65 338.2 21.65 338.2 14.75 329.45 14.75 329.45 1.85 340.8 1.85 340.8 -5M617.05 -5L608.75 -5 608.75 3.25 612.7 3.25Q612.7 6 612.05 7.25 611.25 8.8 609.15 8.85L609.95 11.8Q613.75 11.75 615.35 9.15 616.8 6.85 616.95 1.45L617.05 -5M634.25 -5.6Q628.1 -5.6 624.6 -2.45 621 .85 621 6.75 621 13.8 627.2 19.05L632.25 23.45Q635 25.85 636.15 27.6 637.55 29.85 637.55 32.75 637.55 36.7 634.3 36.7 629.75 36.7 629.5 27.7L620.95 29.15Q621.3 36.9 624.6 40.6 627.95 44.25 634.7 44.25 640.35 44.25 643.8 40.85 647.25 37.5 647.25 32.2 647.25 24.25 639.8 17.8L634.9 13.5Q632.6 11.5 631.7 10.05 630.5 8.2 630.5 5.8 630.5 4.1 631.35 2.95 632.3 1.65 633.9 1.65 636.15 1.65 637 3.75 637.65 5.35 637.75 9.15L646.35 7.9Q645.55 -5.6 634.25 -5.6M598.8 -1.75Q595.45 -5.6 587.95 -5.6 580.2 -5.6 576.75 -1.05 573.75 2.95 573.75 11.25L573.75 27.5Q573.75 44.35 586.9 44.35 592.65 44.35 594.85 39.3L595.55 43.6 602 43.6 602 18.65 588.3 18.65 588.3 24.65 593.05 24.65 593.05 29.8Q593.05 37.2 588.4 37.2 583.8 37.2 583.8 30.1L583.8 8.5Q583.8 5.05 584.45 3.65 585.35 1.45 588.1 1.45 590.7 1.45 591.6 3.35 592.2 4.65 592.2 8.05L592.2 11.45 601.85 11.45 601.85 8.6Q601.85 1.7 598.8 -1.75M533.9 -5L524.1 -5 524.1 43.6 533.9 43.6 533.9 -5M548.15 -5L541.25 -5 541.25 43.6 549.75 43.6 549.75 16.75 560.5 43.6 567.2 43.6 567.2 -5 558.95 -5 558.95 20.25 548.15 -5M519.15 -5L509.5 -5 500.7 15.55 500.7 -5 490.85 -5 490.85 43.6 500.7 43.6 500.7 24.55 502.3 21.9 509.8 43.6 519.85 43.6 510 16.85 519.15 -5M481.1 -1.45Q477.65 -5.6 469.95 -5.6 462.15 -5.6 458.75 -1.45 455.6 2.35 455.6 10.15L455.6 28.3Q455.6 36.15 458.75 40.05 462.2 44.25 469.95 44.25 477.6 44.25 481.1 40.05 484.25 36.15 484.25 28.35L484.25 10.15Q484.25 2.4 481.1 -1.45M473.45 3.4Q474.2 4.8 474.2 7.75L474.2 30.75Q474.2 37.2 469.95 37.2 467.35 37.2 466.35 35.2 465.65 33.8 465.65 30.75L465.65 7.75Q465.65 4.8 466.4 3.4 467.4 1.45 469.95 1.45 472.5 1.45 473.45 3.4M433.95 -5L421.35 -5 421.35 43.6 431.2 43.6 431.2 21.55 434.8 21.55 440.3 43.6 450.45 43.6 443.75 19.9Q447.1 18.4 448.5 15.3 449.75 12.55 449.75 7.85 449.75 .75 445.5 -2.3 441.8 -5 433.95 -5M434.15 15.7L431.2 15.7 431.2 1.65 434.65 1.65Q437.9 1.65 439.25 3.45 440.45 5.05 440.45 8.6 440.45 12.3 439.05 13.95 437.6 15.7 434.15 15.7M399.25 -5L386.85 -5 386.85 43.6 401.4 43.6Q415.55 43.6 415.55 29.35 415.55 18.75 407 17.5 414.1 16.25 414.1 7.6 414.1 .45 409.8 -2.55 406.3 -5 399.25 -5M399.35 21.3Q403.05 21.3 404.55 23.15 406.05 24.95 406.05 29.15 406.05 33.05 404.65 34.8 403.15 36.65 399.5 36.65L396.7 36.65 396.7 21.3 399.35 21.3M396.7 14.65L396.7 1.8 398.55 1.8Q402.1 1.8 403.75 3.15 405.45 4.6 405.45 7.85 405.45 11.35 404.25 12.9 402.85 14.65 399.25 14.65L396.7 14.65M355.75 -5L345.9 -5 345.9 43.6 367.2 43.6 367.2 36.9 355.75 36.9 355.75 -5M167.2 -5L157.4 -5 157.4 43.6 167.2 43.6 167.2 -5M309.65 -1.75Q306.3 -5.6 298.8 -5.6 291.05 -5.6 287.6 -1.05 284.6 2.95 284.6 11.25L284.6 27.5Q284.6 44.35 297.75 44.35 303.5 44.35 305.7 39.3L306.4 43.6 312.85 43.6 312.85 18.65 299.15 18.65 299.15 24.65 303.9 24.65 303.9 29.8Q303.9 37.2 299.25 37.2 294.65 37.2 294.65 30.1L294.65 8.5Q294.65 5.05 295.3 3.65 296.2 1.45 298.95 1.45 301.55 1.45 302.45 3.35 303.05 4.65 303.05 8.05L303.05 11.45 312.7 11.45 312.7 8.6Q312.7 1.7 309.65 -1.75M278.05 -5L269.8 -5 269.8 20.25 259 -5 252.1 -5 252.1 43.6 260.6 43.6 260.6 16.75 271.35 43.6 278.05 43.6 278.05 -5M237.85 -5L226.9 -5 217.45 43.6 226.75 43.6 228.6 32.9 236.3 32.9 238.1 43.6 247.25 43.6 237.85 -5M229.55 26.8L232.4 7.25 235.35 26.8 229.55 26.8M186.65 -5.6Q180.5 -5.6 177 -2.45 173.4 .85 173.4 6.75 173.4 13.8 179.6 19.05L184.65 23.45Q187.4 25.85 188.55 27.6 189.95 29.85 189.95 32.75 189.95 36.7 186.7 36.7 182.15 36.7 181.9 27.7L173.35 29.15Q173.7 36.9 177 40.6 180.35 44.25 187.1 44.25 192.75 44.25 196.2 40.85 199.65 37.5 199.65 32.2 199.65 24.25 192.2 17.8L187.3 13.5Q185 11.5 184.1 10.05 182.9 8.2 182.9 5.8 182.9 4.1 183.75 2.95 184.7 1.65 186.3 1.65 188.55 1.65 189.4 3.75 190.05 5.35 190.15 9.15L198.75 7.9Q197.95 -5.6 186.65 -5.6M137.9 -5L113.1 -5 113.1 2.3 120.6 2.3 120.6 43.6 130.55 43.6 130.55 2.3 137.9 2.3 137.9 -5M101.75 -5L90.8 -5 81.35 43.6 90.65 43.6 92.5 32.9 100.2 32.9 102 43.6 111.15 43.6 101.75 -5M99.25 26.8L93.45 26.8 96.3 7.25 99.25 26.8M76.35 -5L66.45 -5 66.45 14.9 57.9 14.9 57.9 -5 48 -5 48 43.6 57.9 43.6 57.9 22.05 66.45 22.05 66.45 43.6 76.35 43.6 76.35 -5M26.45 -4.95L19.75 -4.95 15.5 24.7 12.1 -5 3.75 -5 10.05 43.6 18.6 43.6 23.1 12.8 27.8 43.6 36.25 43.6 42.5 -5 34.3 -5 30.85 24.6 26.45 -4.95Z"/></g><animate attributeName="display" fill="freeze" repeatCount="1" dur="1.042s" keyTimes="0;.36;1" values="none;inline;inline"/></g></svg>