<?xml version="1.0" encoding="utf-8"?><svg id="section-1" image-rendering="auto" baseProfile="basic" version="1.1" x="0px" y="0px" width="1180" height="679" xmlns="http://www.w3.org/2000/svg" xmlns:xlink="http://www.w3.org/1999/xlink"><g id="Scene-1r1" overflow="visible"><image overflow="visible" xlink:href="img/Bitmap_1.png" height="679" width="1180"/><g display="none"><g id="Symbol-2" transform="translate(-420.7 346.4)" opacity=".2"><animateTransform attributeName="transform" additive="replace" type="translate" dur="1.042s" keyTimes="0;.36;.76;1" values="-420.7,346.4;-420.7,346.4;0,346.4;0,346.4" keySplines=".25 .5 .5 1;.25 .5 .5 1;.1 .1 .9 .9" calcMode="spline" fill="freeze"/><animate attributeName="opacity" dur="1.042s" keyTimes="0;.36;.76;1" values=".2;.2;1;1" keySplines=".25 .5 .5 1;.25 .5 .5 1;.1 .1 .9 .9" calcMode="spline" fill="freeze"/><path fill="#4D4D4F" stroke="none" d="M891.75 168.3L891.75 0 -.05 0 -.05 168.3 891.75 168.3Z"/></g><animate attributeName="display" fill="freeze" repeatCount="1" dur="1.042s" keyTimes="0;.36;1" values="none;inline;inline"/></g><g display="none"><g id="Symbol-1" transform="translate(-393.15 372.65)" opacity=".2"><animateTransform attributeName="transform" additive="replace" type="translate" dur="1.042s" keyTimes="0;.36;.76;1" values="-393.15,372.65;-393.15,372.65;27.55,372.65;27.55,372.65" keySplines=".25 .5 .5 1;.25 .5 .5 1;.1 .1 .9 .9" calcMode="spline" fill="freeze"/><animate attributeName="opacity" dur="1.042s" keyTimes="0;.36;.76;1" values=".2;.2;1;1" keySplines=".25 .5 .5 1;.25 .5 .5 1;.1 .1 .9 .9" calcMode="spline" fill="freeze"/><path fill="#FAB813" stroke="none" d="M30.75 92.3L15.95 68.05 6.2 68.05 6.2 110.05 17.2 110.05 17.2 88.4 27.95 105.9 33.2 105.9 44 87.8 44.15 110.05 55.05 110.05 54.9 68.05 45.15 68.05 30.75 92.3M106.6 68.05L106.6 77.45 119.5 77.45 119.5 110.05 131.35 110.05 131.35 77.45 144.2 77.45 144.2 68.05 106.6 68.05M102.55 91.35L102.55 68.05 90.8 68.05 90.8 91Q90.8 101.05 82.9 101.05 74.95 101.05 74.95 91L74.95 68.05 63.05 68.05 63.05 91.35Q63.05 100.7 68.25 105.8 73.4 110.9 82.8 110.9 92.15 110.9 97.3 105.8 102.55 100.7 102.55 91.35M274.85 110.05L274.85 100.6 254.85 100.6 254.85 68.05 242.95 68.05 242.95 110.05 274.85 110.05M221 68.05L209.3 68.05 190.75 110.05 202.9 110.05 206.2 101.9 223.95 101.9 227.25 110.05 239.6 110.05 221 68.05M209.65 93.1L215.05 79.7 220.45 93.1 209.65 93.1M187.8 91.35L187.8 68.05 176.05 68.05 176.05 91Q176.05 101.05 168.15 101.05 160.2 101.05 160.2 91L160.2 68.05 148.3 68.05 148.3 91.35Q148.3 100.7 153.5 105.8 158.65 110.9 168.05 110.9 177.4 110.9 182.55 105.8 187.8 100.7 187.8 91.35M362.9 68.05L362.9 91Q362.9 101.05 355 101.05 347.05 101.05 347.05 91L347.05 68.05 335.15 68.05 335.15 91.35Q335.15 100.7 340.35 105.8 345.5 110.9 354.9 110.9 364.25 110.9 369.4 105.8 374.65 100.7 374.65 91.35L374.65 68.05 362.9 68.05M329.95 77.25L329.95 68.05 297 68.05 297 110.05 308.9 110.05 308.9 95.65 327.45 95.65 327.45 86.45 308.9 86.45 308.9 77.25 329.95 77.25M474.3 89.05Q474.3 79.45 467.8 73.7 461.4 68.05 450.85 68.05L431 68.05 431 110.05 450.85 110.05Q461.4 110.05 467.8 104.4 474.3 98.65 474.3 89.05M450.4 77.55Q455.8 77.55 459.05 80.6 462.3 83.7 462.3 89.05 462.3 94.45 459.05 97.55 455.8 100.55 450.4 100.55L442.9 100.55 442.9 77.55 450.4 77.55M410.95 68.05L410.95 90.4 392.4 68.05 382.65 68.05 382.65 110.05 394.3 110.05 394.3 87.65 412.8 110.05 422.6 110.05 422.6 68.05 410.95 68.05M533.2 110.6Q536.2 110.6 538.15 108.75 540.05 106.95 540.05 104.3 540.05 101.6 538.15 99.9 536.2 98.1 533.2 98.1 530.2 98.1 528.3 99.9 526.45 101.6 526.45 104.3 526.45 106.95 528.3 108.75 530.25 110.6 533.2 110.6M514.75 76.1L523.7 80.9Q526.15 76.55 531.2 76.55 533.5 76.55 534.95 77.6 536.45 78.65 536.45 80.4 536.45 81.85 535.1 83.45L532.15 86.3Q527.85 90.4 527.85 94.75L538.55 94.75Q538.55 92.95 540.1 91.2 540.5 90.7 543.5 88.05 548.4 83.65 548.4 78.5 548.4 73.15 543.95 70.1 539.65 67.2 532.55 67.2 520 67.2 514.75 76.1M498.45 94.9Q502.2 96.1 502.2 98.25 502.2 101.65 495.35 101.65 487.8 101.65 481.5 97.5L477.6 106.25Q480.6 108.35 485.35 109.6 490.2 110.9 495.3 110.9 504.25 110.9 509.3 106.85 513.9 103.15 513.9 97.35 513.9 92.1 510.2 89.05 507.45 86.8 502 85.4 496.05 84.1 493.8 83.4 490.1 82.3 490.1 80.25 490.1 76.45 496.85 76.45 502.5 76.45 508.5 79.7L512.2 70.9Q505.85 67.2 496.9 67.2 487.95 67.2 482.95 71.2 478.35 74.9 478.35 80.85 478.35 86.1 482.05 89.2 484.8 91.45 490.25 92.9 493.25 93.65 498.45 94.9Z"/><path fill="#FFF" stroke="none" d="M50.95 15.4L43.6 37.95 36.55 15.4 27.45 15.4 20.05 37.75 13 15.4 2.8 15.4 14.15 50.4 24.75 50.4 31.75 29.1 38.45 50.4 49.05 50.4 60.4 15.4 50.95 15.4M88.1 15.4L88.1 28.55 74.6 28.55 74.6 15.4 64.7 15.4 64.7 50.4 74.6 50.4 74.6 36.75 88.1 36.75 88.1 50.4 98 50.4 98 15.4 88.1 15.4M137.15 15.4L127.55 15.4 119.25 29.3 110.95 15.4 100.5 15.4 113.85 37.7 113.85 50.4 123.75 50.4 123.75 37.85 137.15 15.4M184.9 45.7Q190.3 40.9 190.3 32.9 190.3 24.9 184.9 20.15 179.55 15.4 170.75 15.4L154.2 15.4 154.2 50.4 170.75 50.4Q179.55 50.4 184.9 45.7M164.1 23.3L170.35 23.3Q174.85 23.3 177.55 25.85 180.3 28.45 180.3 32.9 180.3 37.4 177.55 40 174.85 42.5 170.35 42.5L164.1 42.5 164.1 23.3M227.1 45.95Q232.6 40.8 232.6 32.9 232.6 25.05 227.1 19.85 221.55 14.7 213.15 14.7 204.75 14.7 199.25 19.85 193.7 25.05 193.7 32.9 193.7 40.8 199.25 45.95 204.75 51.1 213.15 51.1 221.55 51.1 227.1 45.95M213.15 42.9Q209.1 42.9 206.45 40.15 203.7 37.35 203.7 32.9 203.7 28.45 206.45 25.6 209.1 22.9 213.15 22.9 217.2 22.9 219.85 25.6 222.6 28.45 222.6 32.9 222.6 37.35 219.85 40.15 217.2 42.9 213.15 42.9M262.25 15.4L252.35 15.4 252.35 50.4 262.25 50.4 262.25 15.4M292.9 15.4L292.9 34.05 277.45 15.4 269.3 15.4 269.3 50.4 279 50.4 279 31.75 294.45 50.4 302.6 50.4 302.6 15.4 292.9 15.4M335.3 15.4L325.6 38.2 316.1 15.4 305.4 15.4 320.35 50.4 330.1 50.4 345.1 15.4 335.3 15.4M375.35 23.05L375.35 15.4 347.9 15.4 347.9 50.4 376 50.4 376 42.75 357.7 42.75 357.7 36.35 373.25 36.35 373.25 28.95 357.7 28.95 357.7 23.05 375.35 23.05M405.45 47.75Q409.3 44.65 409.3 39.8 409.3 35.45 406.2 32.9 403.95 31 399.4 29.85 394.4 28.8 392.55 28.2 389.45 27.25 389.45 25.55 389.45 22.4 395.1 22.4 399.8 22.4 404.8 25.1L407.85 17.75Q402.6 14.7 395.15 14.7 387.65 14.7 383.5 18.05 379.65 21.1 379.65 26.05 379.65 30.45 382.75 33 385.05 34.9 389.6 36.1 392.1 36.75 396.45 37.8 399.55 38.8 399.55 40.55 399.55 43.4 393.85 43.4 387.5 43.4 382.3 39.95L379.05 47.25Q381.55 49 385.5 50.05 389.5 51.1 393.8 51.1 401.25 51.1 405.45 47.75M431.2 23.25L441.9 23.25 441.9 15.4 410.55 15.4 410.55 23.25 421.3 23.25 421.3 50.4 431.2 50.4 431.2 23.25M463.25 14.7Q454.85 14.7 449.35 19.85 443.8 25.05 443.8 32.9 443.8 40.8 449.35 45.95 454.85 51.1 463.25 51.1 471.65 51.1 477.2 45.95 482.7 40.8 482.7 32.9 482.7 25.05 477.2 19.85 471.65 14.7 463.25 14.7M463.25 42.9Q459.2 42.9 456.55 40.15 453.8 37.35 453.8 32.9 453.8 28.45 456.55 25.6 459.2 22.9 463.25 22.9 467.3 22.9 469.95 25.6 472.7 28.45 472.7 32.9 472.7 37.35 469.95 40.15 467.3 42.9 463.25 42.9M503.9 15.4L487.9 15.4 487.9 50.4 497.8 50.4 497.8 41.1 503.2 41.1 509.55 50.4 520.15 50.4 512.6 39.4Q519.45 36.1 519.45 28.35 519.45 22.35 515.25 18.9 511.05 15.4 503.9 15.4M497.8 23.2L503.3 23.2Q509.45 23.2 509.45 28.35 509.45 33.45 503.3 33.45L497.8 33.45 497.8 23.2M538.55 14.7Q531.05 14.7 526.9 18.05 523.05 21.1 523.05 26.05 523.05 30.45 526.15 33 528.45 34.9 533 36.1 535.5 36.75 539.85 37.8 542.95 38.8 542.95 40.55 542.95 43.4 537.25 43.4 530.9 43.4 525.7 39.95L522.45 47.25Q524.95 49 528.9 50.05 532.9 51.1 537.2 51.1 544.65 51.1 548.85 47.75 552.7 44.65 552.7 39.8 552.7 35.45 549.6 32.9 547.35 31 542.8 29.85 537.8 28.8 535.95 28.2 532.85 27.25 532.85 25.55 532.85 22.4 538.5 22.4 543.2 22.4 548.2 25.1L551.25 17.75Q546 14.7 538.55 14.7M604.3 21.3Q599 14.7 589.25 14.7 580.9 14.7 575.45 19.8 570 24.95 570 32.9 570 40.85 575.45 46 580.9 51.1 589.25 51.1 599 51.1 604.3 44.5L598 38.8Q594.6 42.9 589.75 42.9 585.4 42.9 582.75 40.15 580 37.4 580 32.9 580 28.45 582.75 25.65 585.4 22.9 589.75 22.9 594.6 22.9 598 27L604.3 21.3M632.1 15.4L632.1 28.55 618.6 28.55 618.6 15.4 608.7 15.4 608.7 50.4 618.6 50.4 618.6 36.75 632.1 36.75 632.1 50.4 642 50.4 642 15.4 632.1 15.4M666.65 14.7Q658.25 14.7 652.75 19.85 647.2 25.05 647.2 32.9 647.2 40.8 652.75 45.95 658.25 51.1 666.65 51.1 675.05 51.1 680.6 45.95 686.1 40.8 686.1 32.9 686.1 25.05 680.6 19.85 675.05 14.7 666.65 14.7M666.65 42.9Q662.6 42.9 659.95 40.15 657.2 37.35 657.2 32.9 657.2 28.45 659.95 25.6 662.6 22.9 666.65 22.9 670.7 22.9 673.35 25.6 676.1 28.45 676.1 32.9 676.1 37.35 673.35 40.15 670.7 42.9 666.65 42.9M722.9 19.85Q717.35 14.7 708.95 14.7 700.55 14.7 695.05 19.85 689.5 25.05 689.5 32.9 689.5 40.8 695.05 45.95 700.55 51.1 708.95 51.1 717.35 51.1 722.9 45.95 728.4 40.8 728.4 32.9 728.4 25.05 722.9 19.85M702.25 40.15Q699.5 37.35 699.5 32.9 699.5 28.45 702.25 25.6 704.9 22.9 708.95 22.9 713 22.9 715.65 25.6 718.4 28.45 718.4 32.9 718.4 37.35 715.65 40.15 713 42.9 708.95 42.9 704.9 42.9 702.25 40.15M747.25 14.7Q739.75 14.7 735.6 18.05 731.75 21.1 731.75 26.05 731.75 30.45 734.85 33 737.15 34.9 741.7 36.1 744.2 36.75 748.55 37.8 751.65 38.8 751.65 40.55 751.65 43.4 745.95 43.4 739.6 43.4 734.4 39.95L731.15 47.25Q733.65 49 737.6 50.05 741.6 51.1 745.9 51.1 753.35 51.1 757.55 47.75 761.4 44.65 761.4 39.8 761.4 35.45 758.3 32.9 756.05 31 751.5 29.85 746.5 28.8 744.65 28.2 741.55 27.25 741.55 25.55 741.55 22.4 747.2 22.4 751.9 22.4 756.9 25.1L759.95 17.75Q754.7 14.7 747.25 14.7M775.75 42.75L775.75 36.35 791.3 36.35 791.3 28.95 775.75 28.95 775.75 23.05 793.4 23.05 793.4 15.4 765.95 15.4 765.95 50.4 794.05 50.4 794.05 42.75 775.75 42.75Z"/></g><animate attributeName="display" fill="freeze" repeatCount="1" dur="1.042s" keyTimes="0;.36;1" values="none;inline;inline"/></g></g></svg>