<?xml version="1.0" encoding="utf-8"?><svg id="section-3" image-rendering="auto" baseProfile="basic" version="1.1" x="0px" y="0px" width="1180" height="679" xmlns="http://www.w3.org/2000/svg" xmlns:xlink="http://www.w3.org/1999/xlink"><g id="Scene-1r1" overflow="visible"><image overflow="visible" xlink:href="img/Bitmap_3.png" height="679" width="1180"/><g display="none"><g id="Symbol-2" transform="translate(-420.7 346.4)" opacity=".2"><animateTransform attributeName="transform" additive="replace" type="translate" dur="1.042s" keyTimes="0;.36;.76;1" values="25.2,430.55;25.2,430.55;534.385,430.55;534.385,430.55" keySplines=".25 .5 .5 1;.25 .5 .5 1;.1 .1 .9 .9" calcMode="spline" fill="freeze"/><animateTransform attributeName="transform" additive="sum" type="scale" dur="1.042s" keyTimes="0;.36;.76;1" values="1,1;1,1;1.198,1;1.198,1" keySplines=".25 .5 .5 1;.25 .5 .5 1;.1 .1 .9 .9" calcMode="spline" fill="freeze"/><animateTransform attributeName="transform" additive="sum" type="translate" dur="1.042s" keyTimes="0;1" values="-445.9,-84.15;-445.9,-84.15" keySplines=".25 .5 .5 1" calcMode="spline" fill="freeze"/><animate attributeName="opacity" dur="1.042s" keyTimes="0;.36;.76;1" values=".2;.2;1;1" keySplines=".25 .5 .5 1;.25 .5 .5 1;.1 .1 .9 .9" calcMode="spline" fill="freeze"/><path fill="#4D4D4F" stroke="none" d="M0 -55.75L0 168.25 655 168.25 655 -55.75 0 -55.75Z"/></g><animate attributeName="display" fill="freeze" repeatCount="1" dur="1.042s" keyTimes="0;.36;1" values="none;inline;inline"/></g><g display="none"><g id="Symbol-1" transform="translate(-393.15 372.65)" opacity=".2"><animateTransform attributeName="transform" additive="replace" type="translate" dur="1.042s" keyTimes="0;.36;.76;1" values="-393.15,372.65;-393.15,372.65;27.55,372.65;27.55,372.65" keySplines=".25 .5 .5 1;.25 .5 .5 1;.1 .1 .9 .9" calcMode="spline" fill="freeze"/><animate attributeName="opacity" dur="1.042s" keyTimes="0;.36;.76;1" values=".2;.2;1;1" keySplines=".25 .5 .5 1;.25 .5 .5 1;.1 .1 .9 .9" calcMode="spline" fill="freeze"/><path fill="#FAB813" stroke="none" d="M696.55 110.6Q699.55 110.6 701.5 108.75 703.4 106.95 703.4 104.3 703.4 101.6 701.5 99.9 699.55 98.1 696.55 98.1 693.55 98.1 691.65 99.9 689.8 101.6 689.8 104.3 689.8 106.95 691.65 108.75 693.6 110.6 696.55 110.6M678.1 76.1L687.05 80.9Q689.5 76.55 694.55 76.55 696.85 76.55 698.3 77.6 699.8 78.65 699.8 80.4 699.8 81.85 698.45 83.45L695.5 86.3Q691.2 90.4 691.2 94.75L701.9 94.75Q701.9 92.95 703.45 91.2 703.85 90.7 706.85 88.05 711.75 83.65 711.75 78.5 711.75 73.15 707.3 70.1 703 67.2 695.9 67.2 683.35 67.2 678.1 76.1M78.55 68.05L78.55 83.85 62.35 83.85 62.35 68.05 50.45 68.05 50.45 110.05 62.35 110.05 62.35 93.65 78.55 93.65 78.55 110.05 90.4 110.05 90.4 68.05 78.55 68.05M19.3 97.75Q16.05 94.45 16.05 89.05 16.05 83.7 19.3 80.35 22.55 77.05 27.75 77.05 33.55 77.05 37.65 82L45.2 75.15Q38.85 67.2 27.15 67.2 17.1 67.2 10.6 73.35 4.05 79.5 4.05 89.05 4.05 98.6 10.6 104.8 17.1 110.9 27.15 110.9 38.85 110.9 45.2 102.95L37.65 96.15Q33.55 101.05 27.75 101.05 22.55 101.05 19.3 97.75M124 68.05L112.3 68.05 93.75 110.05 105.9 110.05 109.2 101.9 126.95 101.9 130.25 110.05 142.6 110.05 124 68.05M112.65 93.1L118.05 79.7 123.45 93.1 112.65 93.1M222.6 68.05L222.6 90.4 204.05 68.05 194.3 68.05 194.3 110.05 205.95 110.05 205.95 87.65 224.45 110.05 234.25 110.05 234.25 68.05 222.6 68.05M174.25 68.05L174.25 90.4 155.7 68.05 145.95 68.05 145.95 110.05 157.6 110.05 157.6 87.65 176.1 110.05 185.9 110.05 185.9 68.05 174.25 68.05M294.85 68.05L282.95 68.05 282.95 110.05 314.85 110.05 314.85 100.6 294.85 100.6 294.85 68.05M254.4 93.2L273.1 93.2 273.1 84.3 254.4 84.3 254.4 77.25 275.6 77.25 275.6 68.05 242.65 68.05 242.65 110.05 276.35 110.05 276.35 100.9 254.4 100.9 254.4 93.2M376.15 110.05L388.3 110.05 391.6 101.9 409.35 101.9 412.65 110.05 425 110.05 406.4 68.05 394.7 68.05 376.15 110.05M395.05 93.1L400.45 79.7 405.85 93.1 395.05 93.1M356.2 68.05L337 68.05 337 110.05 348.9 110.05 348.9 99.05 356.2 99.05Q364.8 99.05 369.85 94.9 374.85 90.75 374.85 83.6 374.85 76.4 369.85 72.25 364.8 68.05 356.2 68.05M355.5 89.7L348.9 89.7 348.9 77.4 355.5 77.4Q362.85 77.4 362.85 83.6 362.85 89.7 355.5 89.7M458 96.85Q466.2 92.9 466.2 83.6 466.2 76.4 461.2 72.25 456.15 68.05 447.55 68.05L428.35 68.05 428.35 110.05 440.25 110.05 440.25 98.9 446.7 98.9 454.35 110.05 467.05 110.05 458 96.85M440.25 89.7L440.25 77.4 446.85 77.4Q454.2 77.4 454.2 83.6 454.2 89.7 446.85 89.7L440.25 89.7M493.55 77.45L506.4 77.45 506.4 68.05 468.8 68.05 468.8 77.45 481.7 77.45 481.7 110.05 493.55 110.05 493.55 77.45M520.6 68.05L510.85 68.05 510.85 110.05 522.5 110.05 522.5 87.65 541 110.05 550.8 110.05 550.8 68.05 539.15 68.05 539.15 90.4 520.6 68.05M641.7 80.85Q641.7 86.1 645.4 89.2 648.15 91.45 653.6 92.9 656.6 93.65 661.8 94.9 665.55 96.1 665.55 98.25 665.55 101.65 658.7 101.65 651.15 101.65 644.85 97.5L640.95 106.25Q643.95 108.35 648.7 109.6 653.55 110.9 658.65 110.9 667.6 110.9 672.65 106.85 677.25 103.15 677.25 97.35 677.25 92.1 673.55 89.05 670.8 86.8 665.35 85.4 659.4 84.1 657.15 83.4 653.45 82.3 653.45 80.25 653.45 76.45 660.2 76.45 665.85 76.45 671.85 79.7L675.55 70.9Q669.2 67.2 660.25 67.2 651.3 67.2 646.3 71.2 641.7 74.9 641.7 80.85M611.4 98.9L617.85 98.9 625.5 110.05 638.2 110.05 629.15 96.85Q637.35 92.9 637.35 83.6 637.35 76.4 632.35 72.25 627.3 68.05 618.7 68.05L599.5 68.05 599.5 110.05 611.4 110.05 611.4 98.9M625.35 83.6Q625.35 89.7 618 89.7L611.4 89.7 611.4 77.4 618 77.4Q625.35 77.4 625.35 83.6M570.95 93.2L589.65 93.2 589.65 84.3 570.95 84.3 570.95 77.25 592.15 77.25 592.15 68.05 559.2 68.05 559.2 110.05 592.9 110.05 592.9 100.9 570.95 100.9 570.95 93.2Z"/><path fill="#FFF" stroke="none" d="M37.1 19.85Q31.55 14.7 23.15 14.7 14.75 14.7 9.25 19.85 3.7 25.05 3.7 32.9 3.7 40.8 9.25 45.95 14.75 51.1 23.15 51.1 31.55 51.1 37.1 45.95 42.6 40.8 42.6 32.9 42.6 25.05 37.1 19.85M16.45 40.15Q13.7 37.35 13.7 32.9 13.7 28.45 16.45 25.6 19.1 22.9 23.15 22.9 27.2 22.9 29.85 25.6 32.6 28.45 32.6 32.9 32.6 37.35 29.85 40.15 27.2 42.9 23.15 42.9 19.1 42.9 16.45 40.15M75.15 18.9Q70.95 15.4 63.8 15.4L47.8 15.4 47.8 50.4 57.7 50.4 57.7 41.25 63.8 41.25Q70.95 41.25 75.15 37.8 79.35 34.3 79.35 28.35 79.35 22.35 75.15 18.9M69.35 28.35Q69.35 33.45 63.2 33.45L57.7 33.45 57.7 23.2 63.2 23.2Q69.35 23.2 69.35 28.35M100.65 15.4L84.65 15.4 84.65 50.4 94.55 50.4 94.55 41.25 100.65 41.25Q107.8 41.25 112 37.8 116.2 34.3 116.2 28.35 116.2 22.35 112 18.9 107.8 15.4 100.65 15.4M94.55 23.2L100.05 23.2Q106.2 23.2 106.2 28.35 106.2 33.45 100.05 33.45L94.55 33.45 94.55 23.2M139.15 14.7Q130.75 14.7 125.25 19.85 119.7 25.05 119.7 32.9 119.7 40.8 125.25 45.95 130.75 51.1 139.15 51.1 147.55 51.1 153.1 45.95 158.6 40.8 158.6 32.9 158.6 25.05 153.1 19.85 147.55 14.7 139.15 14.7M139.15 42.9Q135.1 42.9 132.45 40.15 129.7 37.35 129.7 32.9 129.7 28.45 132.45 25.6 135.1 22.9 139.15 22.9 143.2 22.9 145.85 25.6 148.6 28.45 148.6 32.9 148.6 37.35 145.85 40.15 143.2 42.9 139.15 42.9M179.8 15.4L163.8 15.4 163.8 50.4 173.7 50.4 173.7 41.1 179.1 41.1 185.45 50.4 196.05 50.4 188.5 39.4Q195.35 36.1 195.35 28.35 195.35 22.35 191.15 18.9 186.95 15.4 179.8 15.4M173.7 23.2L179.2 23.2Q185.35 23.2 185.35 28.35 185.35 33.45 179.2 33.45L173.7 33.45 173.7 23.2M218.15 23.25L228.85 23.25 228.85 15.4 197.5 15.4 197.5 23.25 208.25 23.25 208.25 50.4 218.15 50.4 218.15 23.25M260.8 46.85Q265.15 42.6 265.15 34.8L265.15 15.4 255.4 15.4 255.4 34.5Q255.4 42.9 248.8 42.9 242.15 42.9 242.15 34.5L242.15 15.4 232.25 15.4 232.25 34.8Q232.25 42.6 236.6 46.85 240.9 51.1 248.7 51.1 256.5 51.1 260.8 46.85M322.05 15.4L312.15 15.4 312.15 50.4 322.05 50.4 322.05 15.4M295.45 15.4L295.45 34.05 280 15.4 271.85 15.4 271.85 50.4 281.55 50.4 281.55 31.75 297 50.4 305.15 50.4 305.15 15.4 295.45 15.4M379.6 37.85L393 15.4 383.4 15.4 375.1 29.3 366.8 15.4 325.8 15.4 325.8 23.25 336.55 23.25 336.55 50.4 346.45 50.4 346.45 23.25 357.15 23.25 357.15 16.75 369.7 37.7 369.7 50.4 379.6 50.4 379.6 37.85M437.5 23.05L437.5 15.4 410.05 15.4 410.05 50.4 419.95 50.4 419.95 38.4 435.4 38.4 435.4 30.75 419.95 30.75 419.95 23.05 437.5 23.05M459.8 14.7Q451.4 14.7 445.9 19.85 440.35 25.05 440.35 32.9 440.35 40.8 445.9 45.95 451.4 51.1 459.8 51.1 468.2 51.1 473.75 45.95 479.25 40.8 479.25 32.9 479.25 25.05 473.75 19.85 468.2 14.7 459.8 14.7M459.8 42.9Q455.75 42.9 453.1 40.15 450.35 37.35 450.35 32.9 450.35 28.45 453.1 25.6 455.75 22.9 459.8 22.9 463.85 22.9 466.5 25.6 469.25 28.45 469.25 32.9 469.25 37.35 466.5 40.15 463.85 42.9 459.8 42.9M494.35 41.1L499.75 41.1 506.1 50.4 516.7 50.4 509.15 39.4Q516 36.1 516 28.35 516 22.35 511.8 18.9 507.6 15.4 500.45 15.4L484.45 15.4 484.45 50.4 494.35 50.4 494.35 41.1M494.35 23.2L499.85 23.2Q506 23.2 506 28.35 506 33.45 499.85 33.45L494.35 33.45 494.35 23.2M606.8 -40.55L606.8 -27.4 593.3 -27.4 593.3 -40.55 583.4 -40.55 583.4 -5.55 593.3 -5.55 593.3 -19.2 606.8 -19.2 606.8 -5.55 616.7 -5.55 616.7 -40.55 606.8 -40.55M548.35 -40.55L548.35 -32.7 559.1 -32.7 559.1 -5.55 569 -5.55 569 -32.7 579.7 -32.7 579.7 -40.55 548.35 -40.55M523.5 -40.55L514.4 -40.55 507 -18.2 499.95 -40.55 489.75 -40.55 501.1 -5.55 511.7 -5.55 518.7 -26.85 525.4 -5.55 536 -5.55 547.35 -40.55 537.9 -40.55 530.55 -18 523.5 -40.55M481.75 -36.1Q476.2 -41.25 467.8 -41.25 459.4 -41.25 453.9 -36.1 448.35 -30.9 448.35 -23.05 448.35 -15.15 453.9 -10 459.4 -4.85 467.8 -4.85 476.2 -4.85 481.75 -10 487.25 -15.15 487.25 -23.05 487.25 -30.9 481.75 -36.1M467.8 -33.05Q471.85 -33.05 474.5 -30.35 477.25 -27.5 477.25 -23.05 477.25 -18.6 474.5 -15.8 471.85 -13.05 467.8 -13.05 463.75 -13.05 461.1 -15.8 458.35 -18.6 458.35 -23.05 458.35 -27.5 461.1 -30.35 463.75 -33.05 467.8 -33.05M440.5 -37.05Q436.3 -40.55 429.15 -40.55L413.15 -40.55 413.15 -5.55 423.05 -5.55 423.05 -14.85 428.45 -14.85 434.8 -5.55 445.4 -5.55 437.85 -16.55Q444.7 -19.85 444.7 -27.6 444.7 -33.6 440.5 -37.05M428.55 -32.75Q434.7 -32.75 434.7 -27.6 434.7 -22.5 428.55 -22.5L423.05 -22.5 423.05 -32.75 428.55 -32.75M385.6 -30.35Q388.35 -33.05 392.85 -33.05 397.8 -33.05 401.35 -29.15L407.65 -34.85Q402.35 -41.25 392.35 -41.25 383.8 -41.25 378.35 -36.15 372.85 -31.05 372.85 -23.05 372.85 -15.1 378.35 -9.95 383.75 -4.85 392.15 -4.85 400.65 -4.85 406.85 -9.3L406.85 -23.8 398.1 -23.8 398.1 -14.2Q395.6 -13.05 392.75 -13.05 388.35 -13.05 385.6 -15.85 382.85 -18.6 382.85 -23.05 382.85 -27.55 385.6 -30.35M353.95 -32.9L353.95 -40.55 326.5 -40.55 326.5 -5.55 354.6 -5.55 354.6 -13.2 336.3 -13.2 336.3 -19.6 351.85 -19.6 351.85 -27 336.3 -27 336.3 -32.9 353.95 -32.9M319.5 -40.55L309.6 -40.55 309.6 -27.4 296.1 -27.4 296.1 -40.55 286.2 -40.55 286.2 -5.55 296.1 -5.55 296.1 -19.2 309.6 -19.2 309.6 -5.55 319.5 -5.55 319.5 -40.55M261.9 -5.55L271.8 -5.55 271.8 -32.7 282.5 -32.7 282.5 -40.55 251.15 -40.55 251.15 -32.7 261.9 -32.7 261.9 -5.55M230.85 -30.85L233.9 -38.2Q228.65 -41.25 221.2 -41.25 213.7 -41.25 209.55 -37.9 205.7 -34.85 205.7 -29.9 205.7 -25.5 208.8 -22.95 211.1 -21.05 215.65 -19.85 218.15 -19.2 222.5 -18.15 225.6 -17.15 225.6 -15.4 225.6 -12.55 219.9 -12.55 213.55 -12.55 208.35 -16L205.1 -8.7Q207.6 -6.95 211.55 -5.9 215.55 -4.85 219.85 -4.85 227.3 -4.85 231.5 -8.2 235.35 -11.3 235.35 -16.15 235.35 -20.5 232.25 -23.05 230 -24.95 225.45 -26.1 220.45 -27.15 218.6 -27.75 215.5 -28.7 215.5 -30.4 215.5 -33.55 221.15 -33.55 225.85 -33.55 230.85 -30.85M190.6 -5.55L200.5 -5.55 200.5 -40.55 190.6 -40.55 190.6 -5.55M151.75 -5.55L161.65 -5.55 161.65 -32.7 172.35 -32.7 172.35 -40.55 141 -40.55 141 -32.7 151.75 -32.7 151.75 -5.55M110.9 -5.55L113.65 -12.35 128.45 -12.35 131.2 -5.55 141.5 -5.55 126 -40.55 116.25 -40.55 100.8 -5.55 110.9 -5.55M116.55 -19.65L121.05 -30.85 125.55 -19.65 116.55 -19.65M74.6 -27.4L74.6 -40.55 64.7 -40.55 64.7 -5.55 74.6 -5.55 74.6 -19.2 88.1 -19.2 88.1 -5.55 98 -5.55 98 -40.55 88.1 -40.55 88.1 -27.4 74.6 -27.4M36.55 -40.55L27.45 -40.55 20.05 -18.2 13 -40.55 2.8 -40.55 14.15 -5.55 24.75 -5.55 31.75 -26.85 38.45 -5.55 49.05 -5.55 60.4 -40.55 50.95 -40.55 43.6 -18 36.55 -40.55Z"/></g><animate attributeName="display" fill="freeze" repeatCount="1" dur="1.042s" keyTimes="0;.36;1" values="none;inline;inline"/></g></g></svg>