<?xml version="1.0" encoding="utf-8"?><svg id="section-4" image-rendering="auto" baseProfile="basic" version="1.1" x="0px" y="0px" width="1180" height="679" xmlns="http://www.w3.org/2000/svg" xmlns:xlink="http://www.w3.org/1999/xlink"><g id="Scene-1r1" overflow="visible" display="none"><image overflow="visible" xlink:href="img/Section-4_bg.png" height="679" width="1180"/><g id="Symbol-1" transform="translate(-393.15 372.65)" opacity=".2"><animateTransform attributeName="transform" additive="replace" type="translate" dur="1.042s" keyTimes="0;.36;.76;1" values="-393.15,372.65;-393.15,372.65;27.55,372.65;27.55,372.65" keySplines=".25 .5 .5 1;.25 .5 .5 1;.1 .1 .9 .9" calcMode="spline" fill="freeze"/><animate attributeName="opacity" dur="1.042s" keyTimes="0;.36;.76;1" values=".2;.2;1;1" keySplines=".25 .5 .5 1;.25 .5 .5 1;.1 .1 .9 .9" calcMode="spline" fill="freeze"/><path fill="#FFF" stroke="none" d="M67.15 67.75L55.65 67.75 55.65 124.45 67.15 124.45 67.15 67.75M30.5 67.8L22.7 67.8 17.75 102.4 13.75 67.75 4 67.75 11.35 124.45 21.4 124.45 26.65 88.55 32.1 124.45 41.95 124.45 49.25 67.75 39.65 67.75 35.65 102.25 30.5 67.8M118.05 91L118.05 67.75 106.5 67.75 106.5 124.45 118.05 124.45 118.05 99.35 128.1 99.35 128.1 124.45 139.65 124.45 139.65 67.75 128.1 67.75 128.1 91 118.05 91M92.7 76.3L101.25 76.3 101.25 67.75 72.3 67.75 72.3 76.3 81.05 76.3 81.05 124.45 92.7 124.45 92.7 76.3M233.65 67.75L224.05 67.75 224.05 97.2 211.45 67.75 203.4 67.75 203.4 124.45 213.3 124.45 213.3 93.1 225.9 124.45 233.65 124.45 233.65 67.75M186.75 67.75L174 67.75 162.95 124.45 173.8 124.45 176 111.95 184.95 111.95 187.05 124.45 197.7 124.45 186.75 67.75M183.8 104.85L177.05 104.85 180.4 82.05 183.8 104.85M293.65 98.8L303.9 98.8 303.9 90.8 293.65 90.8 293.65 75.75 306.9 75.75 306.9 67.75 282.15 67.75 282.15 124.45 307 124.45 307 116.6 293.65 116.6 293.65 98.8M257.95 67.05Q248.85 67.05 244.85 72.35 241.3 77.05 241.3 86.7L241.3 105.7Q241.3 125.3 256.65 125.3 263.4 125.3 265.95 119.45L266.75 124.45 274.3 124.45 274.3 95.35 258.35 95.35 258.35 102.35 263.9 102.35 263.9 108.35Q263.9 116.95 258.4 116.95 253.1 116.95 253.1 108.7L253.1 83.5Q253.1 79.5 253.85 77.85 254.9 75.3 258.05 75.3 261.1 75.3 262.15 77.5 262.9 79.05 262.9 82.95L262.9 86.9 274.1 86.9 274.1 83.65Q274.1 75.55 270.6 71.55 266.65 67.05 257.95 67.05M337.7 124.45L337.7 116.6 324.35 116.6 324.35 67.75 312.85 67.75 312.85 124.45 337.7 124.45M384.2 94Q392.45 92.55 392.45 82.45 392.45 74.1 387.45 70.6 383.35 67.75 375.1 67.75L360.65 67.75 360.65 124.45 377.65 124.45Q394.15 124.45 394.15 107.8 394.15 95.45 384.2 94M372.15 98.4L375.25 98.4Q379.55 98.4 381.3 100.6 383.05 102.7 383.05 107.55 383.05 112.15 381.4 114.15 379.7 116.3 375.45 116.3L372.15 116.3 372.15 98.4M372.15 90.65L372.15 75.7 374.3 75.7Q378.45 75.7 380.35 77.25 382.4 78.9 382.4 82.7 382.4 86.85 380.95 88.65 379.3 90.65 375.1 90.65L372.15 90.65M444.55 71.9Q440.85 76.35 440.85 85.45L440.85 106.6Q440.85 115.75 444.55 120.3 448.6 125.25 457.6 125.25 466.55 125.25 470.65 120.3 474.35 115.75 474.35 106.7L474.35 85.45Q474.35 76.35 470.65 71.9 466.6 67.05 457.6 67.05 448.55 67.05 444.55 71.9M452.65 82.65Q452.65 79.15 453.5 77.5 454.65 75.3 457.6 75.3 460.6 75.3 461.7 77.5 462.55 79.15 462.55 82.65L462.55 109.5Q462.55 116.95 457.6 116.95 454.55 116.95 453.45 114.65 452.65 113.05 452.65 109.5L452.65 82.65M412.4 98.75L416.6 98.75 423.05 124.45 434.85 124.45 427.05 96.8Q430.95 95.05 432.55 91.45 434.05 88.25 434.05 82.7 434.05 74.45 429.1 70.9 424.75 67.75 415.6 67.75L400.9 67.75 400.9 124.45 412.4 124.45 412.4 98.75M412.4 91.9L412.4 75.5 416.4 75.5Q420.2 75.5 421.75 77.6 423.15 79.45 423.15 83.65 423.15 87.9 421.55 89.85 419.85 91.9 415.8 91.9L412.4 91.9M624.45 124.45L634.8 124.45 634.8 114.3 624.45 114.3 624.45 124.45M532.25 67.75L520.75 67.75 520.75 124.45 532.25 124.45 532.25 67.75M561.45 67.75L561.45 97.2 548.85 67.75 540.8 67.75 540.8 124.45 550.7 124.45 550.7 93.1 563.3 124.45 571.05 124.45 571.05 67.75 561.45 67.75M504.35 93.25L515 67.75 503.8 67.75 493.5 91.7 493.5 67.75 482 67.75 482 124.45 493.5 124.45 493.5 102.2 495.4 99.1 504.15 124.45 515.85 124.45 504.35 93.25M642.9 70.8Q639.1 67.05 632.1 67.05 625.3 67.05 621.6 70.55 617.9 73.95 617.9 80.1 617.9 83 618.9 86.15L628.55 84Q627.85 81.9 627.85 80.2 627.85 76.1 631.9 76.1 636.3 76.1 636.3 81.55 636.3 91.6 624.85 100.75L624.85 109.7 634.4 109.7 634.4 102.8Q646.65 93.4 646.65 81.3 646.65 74.5 642.9 70.8M590.5 83.5Q590.5 79.5 591.25 77.85 592.3 75.3 595.45 75.3 598.5 75.3 599.55 77.5 600.3 79.05 600.3 82.95L600.3 86.9 611.5 86.9 611.5 83.65Q611.5 75.55 608 71.55 604.05 67.05 595.35 67.05 586.25 67.05 582.25 72.35 578.7 77.05 578.7 86.7L578.7 105.7Q578.7 125.3 594.05 125.3 600.8 125.3 603.35 119.45L604.15 124.45 611.7 124.45 611.7 95.35 595.75 95.35 595.75 102.35 601.3 102.35 601.3 108.35Q601.3 116.95 595.8 116.95 590.5 116.95 590.5 108.7L590.5 83.5Z"/><path fill="#FFCC04" stroke="none" d="M575.85 -5L554.65 -5 554.65 43.6 575.95 43.6 575.95 36.9 564.5 36.9 564.5 21.65 573.25 21.65 573.25 14.75 564.5 14.75 564.5 1.85 575.85 1.85 575.85 -5M637.3 -5L621.9 -5 621.9 43.6 631.75 43.6 631.75 22.55 636.3 22.55Q649.9 22.55 649.9 8.95 649.9 -5 637.3 -5M635.3 15.6L631.75 15.6 631.75 1.95 635.25 1.95Q638.6 1.95 639.75 3.75 640.65 5.15 640.65 8.8 640.65 12.55 639.6 14 638.45 15.6 635.3 15.6M590.8 -5L580.95 -5 580.95 43.6 602.25 43.6 602.25 36.9 590.8 36.9 590.8 -5M547.4 -5L539.15 -5 539.15 20.25 528.35 -5 521.45 -5 521.45 43.6 529.95 43.6 529.95 16.75 540.7 43.6 547.4 43.6 547.4 -5M514.2 -5L505.95 -5 505.95 20.25 495.15 -5 488.25 -5 488.25 43.6 496.75 43.6 496.75 16.75 507.5 43.6 514.2 43.6 514.2 -5M474 -5L463.05 -5 453.6 43.6 462.9 43.6 464.75 32.9 472.45 32.9 474.25 43.6 483.4 43.6 474 -5M465.7 26.8L468.55 7.25 471.5 26.8 465.7 26.8M430.15 -5L420.25 -5 420.25 43.6 430.15 43.6 430.15 22.05 438.7 22.05 438.7 43.6 448.6 43.6 448.6 -5 438.7 -5 438.7 14.9 430.15 14.9 430.15 -5M400.45 -5.6Q392.65 -5.6 389.25 -1.2 386.25 2.65 386.25 10.65L386.25 28.05Q386.25 35.9 389.25 39.8 392.7 44.25 400.45 44.25 407.95 44.25 411.25 40.15 414.1 36.65 414.1 29.7L414.1 25.65 404.5 25.65 404.5 30.4Q404.5 33.75 403.95 35.1 403.1 37.2 400.55 37.2 398.05 37.2 397.1 35.35 396.25 33.8 396.25 30.4L396.25 8.35Q396.25 5 396.9 3.55 397.85 1.45 400.55 1.45 403.1 1.45 403.95 3.45 404.5 4.75 404.5 8.05L404.5 12.5 414.1 12.5 414.1 8.45Q414.1 1.7 411.2 -1.7 407.9 -5.6 400.45 -5.6M357.7 -5L346.75 -5 337.3 43.6 346.6 43.6 348.45 32.9 356.15 32.9 357.95 43.6 367.1 43.6 357.7 -5M349.4 26.8L352.25 7.25 355.2 26.8 349.4 26.8M319.6 -5L298.4 -5 298.4 43.6 319.7 43.6 319.7 36.9 308.25 36.9 308.25 21.65 317 21.65 317 14.75 308.25 14.75 308.25 1.85 319.6 1.85 319.6 -5M267.85 -5L257.35 -5 256.55 43.6 263.8 43.6 264.5 10.4 270.9 43.6 277.05 43.6 283.3 10.6 284.1 43.6 291.3 43.6 290.35 -5 280.25 -5 273.9 25.65 267.85 -5M213.25 -1.7Q209.95 -5.6 202.5 -5.6 194.7 -5.6 191.3 -1.2 188.3 2.65 188.3 10.65L188.3 28.05Q188.3 35.9 191.3 39.8 194.75 44.25 202.5 44.25 210 44.25 213.3 40.15 216.15 36.65 216.15 29.7L216.15 25.65 206.55 25.65 206.55 30.4Q206.55 33.75 206 35.1 205.15 37.2 202.6 37.2 200.1 37.2 199.15 35.35 198.3 33.8 198.3 30.4L198.3 8.35Q198.3 5 198.95 3.55 199.9 1.45 202.6 1.45 205.15 1.45 206 3.45 206.55 4.75 206.55 8.05L206.55 12.5 216.15 12.5 216.15 8.45Q216.15 1.7 213.25 -1.7M235.8 -5.6Q228 -5.6 224.6 -1.45 221.45 2.35 221.45 10.15L221.45 28.3Q221.45 36.15 224.6 40.05 228.05 44.25 235.8 44.25 243.45 44.25 246.95 40.05 250.1 36.15 250.1 28.35L250.1 10.15Q250.1 2.4 246.95 -1.45 243.5 -5.6 235.8 -5.6M239.3 3.4Q240.05 4.8 240.05 7.75L240.05 30.75Q240.05 37.2 235.8 37.2 233.2 37.2 232.2 35.2 231.5 33.8 231.5 30.75L231.5 7.75Q231.5 4.8 232.25 3.4 233.25 1.45 235.8 1.45 238.35 1.45 239.3 3.4M183.9 -5L162.7 -5 162.7 43.6 184 43.6 184 36.9 172.55 36.9 172.55 21.65 181.3 21.65 181.3 14.75 172.55 14.75 172.55 1.85 183.9 1.85 183.9 -5M151.15 -2.55Q147.65 -5 140.6 -5L128.2 -5 128.2 43.6 142.75 43.6Q156.9 43.6 156.9 29.35 156.9 18.75 148.35 17.5 155.45 16.25 155.45 7.6 155.45 .45 151.15 -2.55M145.1 3.15Q146.8 4.6 146.8 7.85 146.8 11.35 145.6 12.9 144.2 14.65 140.6 14.65L138.05 14.65 138.05 1.8 139.9 1.8Q143.45 1.8 145.1 3.15M138.05 21.3L140.7 21.3Q144.4 21.3 145.9 23.15 147.4 24.95 147.4 29.15 147.4 33.05 146 34.8 144.5 36.65 140.85 36.65L138.05 36.65 138.05 21.3M109 -5L99.95 -5 95.15 12.1 89.95 -5 80.65 -5 90.1 24.35 90.1 43.6 99.65 43.6 99.65 24.35 109 -5M76.35 -5L66.45 -5 66.45 14.9 57.9 14.9 57.9 -5 48 -5 48 43.6 57.9 43.6 57.9 22.05 66.45 22.05 66.45 43.6 76.35 43.6 76.35 -5M26.45 -4.95L19.75 -4.95 15.5 24.7 12.1 -5 3.75 -5 10.05 43.6 18.6 43.6 23.1 12.8 27.8 43.6 36.25 43.6 42.5 -5 34.3 -5 30.85 24.6 26.45 -4.95M832.05 -2.3Q828.35 -5 820.5 -5L807.9 -5 807.9 43.6 817.75 43.6 817.75 21.55 821.35 21.55 826.85 43.6 837 43.6 830.3 19.9Q833.65 18.4 835.05 15.3 836.3 12.55 836.3 7.85 836.3 .75 832.05 -2.3M817.75 1.65L821.2 1.65Q824.45 1.65 825.8 3.45 827 5.05 827 8.6 827 12.3 825.6 13.95 824.15 15.7 820.7 15.7L817.75 15.7 817.75 1.65M744.05 -5L719.25 -5 719.25 2.3 726.75 2.3 726.75 43.6 736.7 43.6 736.7 2.3 744.05 2.3 744.05 -5M802.8 -5L781.6 -5 781.6 43.6 802.9 43.6 802.9 36.9 791.45 36.9 791.45 21.65 800.2 21.65 800.2 14.75 791.45 14.75 791.45 1.85 802.8 1.85 802.8 -5M755.3 -5L748.4 -5 748.4 43.6 756.9 43.6 756.9 16.75 767.65 43.6 774.35 43.6 774.35 -5 766.1 -5 766.1 20.25 755.3 -5M711.35 -2.3Q707.65 -5 699.8 -5L687.2 -5 687.2 43.6 697.05 43.6 697.05 21.55 700.65 21.55 706.15 43.6 716.3 43.6 709.6 19.9Q712.95 18.4 714.35 15.3 715.6 12.55 715.6 7.85 715.6 .75 711.35 -2.3M697.05 15.7L697.05 1.65 700.5 1.65Q703.75 1.65 705.1 3.45 706.3 5.05 706.3 8.6 706.3 12.3 704.9 13.95 703.45 15.7 700 15.7L697.05 15.7M672.95 -5L662 -5 652.55 43.6 661.85 43.6 663.7 32.9 671.4 32.9 673.2 43.6 682.35 43.6 672.95 -5M664.65 26.8L667.5 7.25 670.45 26.8 664.65 26.8Z"/></g><animate attributeName="display" fill="freeze" repeatCount="1" dur="1.042s" keyTimes="0;.36;1" values="none;inline;inline"/></g></svg>