<?xml version="1.0" encoding="utf-8"?><svg id="section-6" image-rendering="auto" baseProfile="basic" version="1.1" x="0px" y="0px" width="1180" height="679" xmlns="http://www.w3.org/2000/svg" xmlns:xlink="http://www.w3.org/1999/xlink"><g id="Scene-1r1" overflow="visible"><image overflow="visible" xlink:href="img/Bitmap_6.png" height="679" width="1180"/><g display="none"><g id="Symbol-2" transform="translate(-420.7 346.4)" opacity=".2"><animateTransform attributeName="transform" additive="replace" type="translate" dur="1.042s" keyTimes="0;.36;.76;1" values="-420.7,346.4;-420.7,346.4;0,346.4;0,346.4" keySplines=".25 .5 .5 1;.25 .5 .5 1;.1 .1 .9 .9" calcMode="spline" fill="freeze"/><animate attributeName="opacity" dur="1.042s" keyTimes="0;.36;.76;1" values=".2;.2;1;1" keySplines=".25 .5 .5 1;.25 .5 .5 1;.1 .1 .9 .9" calcMode="spline" fill="freeze"/><path fill="#4D4D4F" stroke="none" d="M396 168.3L396 0 0 0 0 168.3 396 168.3Z"/></g><animate attributeName="display" fill="freeze" repeatCount="1" dur="1.042s" keyTimes="0;.36;1" values="none;inline;inline"/></g><g display="none"><g id="Symbol-1" transform="translate(-393.15 372.65)" opacity=".2"><animateTransform attributeName="transform" additive="replace" type="translate" dur="1.042s" keyTimes="0;.36;.76;1" values="-393.15,372.65;-393.15,372.65;27.55,372.65;27.55,372.65" keySplines=".25 .5 .5 1;.25 .5 .5 1;.1 .1 .9 .9" calcMode="spline" fill="freeze"/><animate attributeName="opacity" dur="1.042s" keyTimes="0;.36;.76;1" values=".2;.2;1;1" keySplines=".25 .5 .5 1;.25 .5 .5 1;.1 .1 .9 .9" calcMode="spline" fill="freeze"/><path fill="#FAB813" stroke="none" d="M65.8 77.45L78.65 77.45 78.65 68.05 41.05 68.05 41.05 77.45 53.95 77.45 53.95 110.05 65.8 110.05 65.8 77.45M37.85 70.9Q31.5 67.2 22.55 67.2 13.6 67.2 8.6 71.2 4 74.9 4 80.85 4 86.1 7.7 89.2 10.45 91.45 15.9 92.9 18.9 93.65 24.1 94.9 27.85 96.1 27.85 98.25 27.85 101.65 21 101.65 13.45 101.65 7.15 97.5L3.25 106.25Q6.25 108.35 11 109.6 15.85 110.9 20.95 110.9 29.9 110.9 34.95 106.85 39.55 103.15 39.55 97.35 39.55 92.1 35.85 89.05 33.1 86.8 27.65 85.4 21.7 84.1 19.45 83.4 15.75 82.3 15.75 80.25 15.75 76.45 22.5 76.45 28.15 76.45 34.15 79.7L37.85 70.9M108.3 68.05L96.6 68.05 78.05 110.05 90.2 110.05 93.5 101.9 111.25 101.9 114.55 110.05 126.9 110.05 108.3 68.05M96.95 93.1L102.35 79.7 107.75 93.1 96.95 93.1M307.45 110.6Q310.45 110.6 312.35 108.75 314.25 106.95 314.25 104.3 314.25 101.6 312.35 99.9 310.45 98.1 307.45 98.1 304.45 98.1 302.55 99.9 300.65 101.6 300.65 104.3 300.65 106.95 302.55 108.75 304.5 110.6 307.45 110.6M168.1 83.6Q168.1 76.4 163.1 72.25 158.05 68.05 149.45 68.05L130.25 68.05 130.25 110.05 142.15 110.05 142.15 98.9 148.6 98.9 156.25 110.05 168.95 110.05 159.9 96.85Q168.1 92.9 168.1 83.6M156.1 83.6Q156.1 89.7 148.75 89.7L142.15 89.7 142.15 77.4 148.75 77.4Q156.1 77.4 156.1 83.6M170.7 68.05L170.7 77.45 183.6 77.45 183.6 110.05 195.45 110.05 195.45 77.45 208.3 77.45 208.3 68.05 170.7 68.05M302.9 94.75L311.95 94.75 314.25 68.05 300.7 68.05 302.9 94.75M272.9 68.05L253.05 68.05 253.05 110.05 272.9 110.05Q283.45 110.05 289.85 104.4 296.35 98.65 296.35 89.05 296.35 79.45 289.85 73.7 283.45 68.05 272.9 68.05M264.95 77.55L272.45 77.55Q277.85 77.55 281.1 80.6 284.35 83.7 284.35 89.05 284.35 94.45 281.1 97.55 277.85 100.55 272.45 100.55L264.95 100.55 264.95 77.55M243.2 93.2L243.2 84.3 224.5 84.3 224.5 77.25 245.7 77.25 245.7 68.05 212.75 68.05 212.75 110.05 246.45 110.05 246.45 100.9 224.5 100.9 224.5 93.2 243.2 93.2Z"/><path fill="#FFF" stroke="none" d="M32.1 42.55L15.4 42.55 15.4 15.4 5.5 15.4 5.5 50.4 32.1 50.4 32.1 42.55M63.45 23.05L63.45 15.4 36 15.4 36 50.4 64.1 50.4 64.1 42.75 45.8 42.75 45.8 36.35 61.35 36.35 61.35 28.95 45.8 28.95 45.8 23.05 63.45 23.05M97.65 23.25L97.65 15.4 66.3 15.4 66.3 23.25 77.05 23.25 77.05 50.4 86.95 50.4 86.95 23.25 97.65 23.25M109 14.35Q107.4 12.85 104.95 12.85 102.45 12.85 100.85 14.35 99.25 15.95 99.25 18.45 99.25 21.95 102.2 23.35L99.85 31.5 105.8 31.5 109 24.2Q110.6 20.5 110.6 18.45 110.6 15.95 109 14.35M133.55 40.55Q133.55 43.4 127.85 43.4 121.5 43.4 116.3 39.95L113.05 47.25Q115.55 49 119.5 50.05 123.5 51.1 127.8 51.1 135.25 51.1 139.45 47.75 143.3 44.65 143.3 39.8 143.3 35.45 140.2 32.9 137.95 31 133.4 29.85 128.4 28.8 126.55 28.2 123.45 27.25 123.45 25.55 123.45 22.4 129.1 22.4 133.8 22.4 138.8 25.1L141.85 17.75Q136.6 14.7 129.15 14.7 121.65 14.7 117.5 18.05 113.65 21.1 113.65 26.05 113.65 30.45 116.75 33 119.05 34.9 123.6 36.1 126.1 36.75 130.45 37.8 133.55 38.8 133.55 40.55M180.1 14.7Q171.55 14.7 166.1 19.8 160.6 24.9 160.6 32.9 160.6 40.85 166.1 46 171.5 51.1 179.9 51.1 188.4 51.1 194.6 46.65L194.6 32.15 185.85 32.15 185.85 41.75Q183.35 42.9 180.5 42.9 176.1 42.9 173.35 40.1 170.6 37.35 170.6 32.9 170.6 28.4 173.35 25.6 176.1 22.9 180.6 22.9 185.55 22.9 189.1 26.8L195.4 21.1Q190.1 14.7 180.1 14.7M228.35 23.05L228.35 15.4 200.9 15.4 200.9 50.4 229 50.4 229 42.75 210.7 42.75 210.7 36.35 226.25 36.35 226.25 28.95 210.7 28.95 210.7 23.05 228.35 23.05M251.85 23.25L262.55 23.25 262.55 15.4 231.2 15.4 231.2 23.25 241.95 23.25 241.95 50.4 251.85 50.4 251.85 23.25Z"/></g><animate attributeName="display" fill="freeze" repeatCount="1" dur="1.042s" keyTimes="0;.36;1" values="none;inline;inline"/></g></g></svg>