<?xml version="1.0" encoding="utf-8"?><svg id="section-2" image-rendering="auto" baseProfile="basic" version="1.1" x="0px" y="0px" width="1180" height="679" xmlns="http://www.w3.org/2000/svg" xmlns:xlink="http://www.w3.org/1999/xlink"><g id="Scene-1r1" overflow="visible"><image overflow="visible" xlink:href="img/Bitmap_2.png" height="679" width="1180"/><g display="none"><g id="Symbol-2" transform="translate(-420.7 346.4)" opacity=".2"><animateTransform attributeName="transform" additive="replace" type="translate" dur="1.042s" keyTimes="0;.36;.76;1" values="-420.7,346.4;-420.7,346.4;0,346.4;0,346.4" keySplines=".25 .5 .5 1;.25 .5 .5 1;.1 .1 .9 .9" calcMode="spline" fill="freeze"/><animate attributeName="opacity" dur="1.042s" keyTimes="0;.36;.76;1" values=".2;.2;1;1" keySplines=".25 .5 .5 1;.25 .5 .5 1;.1 .1 .9 .9" calcMode="spline" fill="freeze"/><path fill="#4D4D4F" stroke="none" d="M655 168.3L655 0 0 0 0 168.3 655 168.3Z"/></g><animate attributeName="display" fill="freeze" repeatCount="1" dur="1.042s" keyTimes="0;.36;1" values="none;inline;inline"/></g><g display="none"><g id="Symbol-1" transform="translate(-393.15 372.65)" opacity=".2"><animateTransform attributeName="transform" additive="replace" type="translate" dur="1.042s" keyTimes="0;.36;.76;1" values="-393.15,372.65;-393.15,372.65;27.55,372.65;27.55,372.65" keySplines=".25 .5 .5 1;.25 .5 .5 1;.1 .1 .9 .9" calcMode="spline" fill="freeze"/><animate attributeName="opacity" dur="1.042s" keyTimes="0;.36;.76;1" values=".2;.2;1;1" keySplines=".25 .5 .5 1;.25 .5 .5 1;.1 .1 .9 .9" calcMode="spline" fill="freeze"/><path fill="#FAB813" stroke="none" d="M78.55 68.05L78.55 83.85 62.35 83.85 62.35 68.05 50.45 68.05 50.45 110.05 62.35 110.05 62.35 93.65 78.55 93.65 78.55 110.05 90.4 110.05 90.4 68.05 78.55 68.05M19.3 97.75Q16.05 94.45 16.05 89.05 16.05 83.7 19.3 80.35 22.55 77.05 27.75 77.05 33.55 77.05 37.65 82L45.2 75.15Q38.85 67.2 27.15 67.2 17.1 67.2 10.6 73.35 4.05 79.5 4.05 89.05 4.05 98.6 10.6 104.8 17.1 110.9 27.15 110.9 38.85 110.9 45.2 102.95L37.65 96.15Q33.55 101.05 27.75 101.05 22.55 101.05 19.3 97.75M119.95 67.2Q109.9 67.2 103.25 73.4 96.65 79.6 96.65 89.05 96.65 98.5 103.25 104.7 109.9 110.9 119.95 110.9 130.05 110.9 136.7 104.7 143.3 98.5 143.3 89.05 143.3 79.6 136.7 73.4 130.05 67.2 119.95 67.2M111.9 97.75Q108.65 94.4 108.65 89.05 108.65 83.7 111.9 80.3 115.1 77.05 119.95 77.05 124.85 77.05 128.05 80.3 131.3 83.7 131.3 89.05 131.3 94.4 128.05 97.75 124.85 101.05 119.95 101.05 115.1 101.05 111.9 97.75M198.1 80.85Q198.1 86.1 201.8 89.2 204.55 91.45 210 92.9 213 93.65 218.2 94.9 221.95 96.1 221.95 98.25 221.95 101.65 215.1 101.65 207.55 101.65 201.25 97.5L197.35 106.25Q200.35 108.35 205.1 109.6 209.95 110.9 215.05 110.9 224 110.9 229.05 106.85 233.65 103.15 233.65 97.35 233.65 92.1 229.95 89.05 227.2 86.8 221.75 85.4 215.8 84.1 213.55 83.4 209.85 82.3 209.85 80.25 209.85 76.45 216.6 76.45 222.25 76.45 228.25 79.7L231.95 70.9Q225.6 67.2 216.65 67.2 207.7 67.2 202.7 71.2 198.1 74.9 198.1 80.85M194.05 89.05Q194.05 79.6 187.45 73.4 180.8 67.2 170.7 67.2 160.65 67.2 154 73.4 147.4 79.6 147.4 89.05 147.4 98.5 154 104.7 160.65 110.9 170.7 110.9 180.8 110.9 187.45 104.7 194.05 98.5 194.05 89.05M162.65 80.3Q165.85 77.05 170.7 77.05 175.6 77.05 178.8 80.3 182.05 83.7 182.05 89.05 182.05 94.4 178.8 97.75 175.6 101.05 170.7 101.05 165.85 101.05 162.65 97.75 159.4 94.4 159.4 89.05 159.4 83.7 162.65 80.3M250.85 93.2L269.55 93.2 269.55 84.3 250.85 84.3 250.85 77.25 272.05 77.25 272.05 68.05 239.1 68.05 239.1 110.05 272.8 110.05 272.8 100.9 250.85 100.9 250.85 93.2M328.3 110.05L340.65 110.05 322.05 68.05 310.35 68.05 291.8 110.05 303.95 110.05 307.25 101.9 325 101.9 328.3 110.05M310.7 93.1L316.1 79.7 321.5 93.1 310.7 93.1M353.75 68.05L344 68.05 344 110.05 355.65 110.05 355.65 87.65 374.15 110.05 383.95 110.05 383.95 68.05 372.3 68.05 372.3 90.4 353.75 68.05M450.3 93.2L469 93.2 469 84.3 450.3 84.3 450.3 77.25 471.5 77.25 471.5 68.05 438.55 68.05 438.55 110.05 472.25 110.05 472.25 100.9 450.3 100.9 450.3 93.2M405.5 80.3Q408.8 77.05 414.2 77.05 420.15 77.05 424.4 81.7L431.95 74.9Q425.55 67.2 413.6 67.2 403.35 67.2 396.8 73.35 390.2 79.45 390.2 89.05 390.2 98.6 396.75 104.8 403.3 110.9 413.35 110.9 423.55 110.9 431 105.55L431 88.15 420.5 88.15 420.5 99.7Q417.5 101.05 414.1 101.05 408.8 101.05 405.45 97.7 402.2 94.4 402.2 89.05 402.2 83.6 405.5 80.3M510.75 110.05L510.75 100.6 490.75 100.6 490.75 68.05 478.85 68.05 478.85 110.05 510.75 110.05M529.3 110.6Q532.3 110.6 534.25 108.75 536.15 106.95 536.15 104.3 536.15 101.6 534.25 99.9 532.3 98.1 529.3 98.1 526.3 98.1 524.4 99.9 522.55 101.6 522.55 104.3 522.55 106.95 524.4 108.75 526.35 110.6 529.3 110.6M510.85 76.1L519.8 80.9Q522.25 76.55 527.3 76.55 529.6 76.55 531.05 77.6 532.55 78.65 532.55 80.4 532.55 81.85 531.2 83.45L528.25 86.3Q523.95 90.4 523.95 94.75L534.65 94.75Q534.65 92.95 536.2 91.2 536.6 90.7 539.6 88.05 544.5 83.65 544.5 78.5 544.5 73.15 540.05 70.1 535.75 67.2 528.65 67.2 516.1 67.2 510.85 76.1Z"/><path fill="#FFF" stroke="none" d="M50.95 15.4L43.6 37.95 36.55 15.4 27.45 15.4 20.05 37.75 13 15.4 2.8 15.4 14.15 50.4 24.75 50.4 31.75 29.1 38.45 50.4 49.05 50.4 60.4 15.4 50.95 15.4M88.1 15.4L88.1 28.55 74.6 28.55 74.6 15.4 64.7 15.4 64.7 50.4 74.6 50.4 74.6 36.75 88.1 36.75 88.1 50.4 98 50.4 98 15.4 88.1 15.4M137.15 15.4L127.55 15.4 119.25 29.3 110.95 15.4 100.5 15.4 113.85 37.7 113.85 50.4 123.75 50.4 123.75 37.85 137.15 15.4M184.9 45.7Q190.3 40.9 190.3 32.9 190.3 24.9 184.9 20.15 179.55 15.4 170.75 15.4L154.2 15.4 154.2 50.4 170.75 50.4Q179.55 50.4 184.9 45.7M164.1 23.3L170.35 23.3Q174.85 23.3 177.55 25.85 180.3 28.45 180.3 32.9 180.3 37.4 177.55 40 174.85 42.5 170.35 42.5L164.1 42.5 164.1 23.3M227.1 45.95Q232.6 40.8 232.6 32.9 232.6 25.05 227.1 19.85 221.55 14.7 213.15 14.7 204.75 14.7 199.25 19.85 193.7 25.05 193.7 32.9 193.7 40.8 199.25 45.95 204.75 51.1 213.15 51.1 221.55 51.1 227.1 45.95M213.15 42.9Q209.1 42.9 206.45 40.15 203.7 37.35 203.7 32.9 203.7 28.45 206.45 25.6 209.1 22.9 213.15 22.9 217.2 22.9 219.85 25.6 222.6 28.45 222.6 32.9 222.6 37.35 219.85 40.15 217.2 42.9 213.15 42.9M262.25 15.4L252.35 15.4 252.35 50.4 262.25 50.4 262.25 15.4M292.9 15.4L292.9 34.05 277.45 15.4 269.3 15.4 269.3 50.4 279 50.4 279 31.75 294.45 50.4 302.6 50.4 302.6 15.4 292.9 15.4M335.3 15.4L325.6 38.2 316.1 15.4 305.4 15.4 320.35 50.4 330.1 50.4 345.1 15.4 335.3 15.4M375.35 23.05L375.35 15.4 347.9 15.4 347.9 50.4 376 50.4 376 42.75 357.7 42.75 357.7 36.35 373.25 36.35 373.25 28.95 357.7 28.95 357.7 23.05 375.35 23.05M405.45 47.75Q409.3 44.65 409.3 39.8 409.3 35.45 406.2 32.9 403.95 31 399.4 29.85 394.4 28.8 392.55 28.2 389.45 27.25 389.45 25.55 389.45 22.4 395.1 22.4 399.8 22.4 404.8 25.1L407.85 17.75Q402.6 14.7 395.15 14.7 387.65 14.7 383.5 18.05 379.65 21.1 379.65 26.05 379.65 30.45 382.75 33 385.05 34.9 389.6 36.1 392.1 36.75 396.45 37.8 399.55 38.8 399.55 40.55 399.55 43.4 393.85 43.4 387.5 43.4 382.3 39.95L379.05 47.25Q381.55 49 385.5 50.05 389.5 51.1 393.8 51.1 401.25 51.1 405.45 47.75M431.2 23.25L441.9 23.25 441.9 15.4 410.55 15.4 410.55 23.25 421.3 23.25 421.3 50.4 431.2 50.4 431.2 23.25M463.25 14.7Q454.85 14.7 449.35 19.85 443.8 25.05 443.8 32.9 443.8 40.8 449.35 45.95 454.85 51.1 463.25 51.1 471.65 51.1 477.2 45.95 482.7 40.8 482.7 32.9 482.7 25.05 477.2 19.85 471.65 14.7 463.25 14.7M463.25 42.9Q459.2 42.9 456.55 40.15 453.8 37.35 453.8 32.9 453.8 28.45 456.55 25.6 459.2 22.9 463.25 22.9 467.3 22.9 469.95 25.6 472.7 28.45 472.7 32.9 472.7 37.35 469.95 40.15 467.3 42.9 463.25 42.9M503.9 15.4L487.9 15.4 487.9 50.4 497.8 50.4 497.8 41.1 503.2 41.1 509.55 50.4 520.15 50.4 512.6 39.4Q519.45 36.1 519.45 28.35 519.45 22.35 515.25 18.9 511.05 15.4 503.9 15.4M497.8 23.2L503.3 23.2Q509.45 23.2 509.45 28.35 509.45 33.45 503.3 33.45L497.8 33.45 497.8 23.2M538.55 14.7Q531.05 14.7 526.9 18.05 523.05 21.1 523.05 26.05 523.05 30.45 526.15 33 528.45 34.9 533 36.1 535.5 36.75 539.85 37.8 542.95 38.8 542.95 40.55 542.95 43.4 537.25 43.4 530.9 43.4 525.7 39.95L522.45 47.25Q524.95 49 528.9 50.05 532.9 51.1 537.2 51.1 544.65 51.1 548.85 47.75 552.7 44.65 552.7 39.8 552.7 35.45 549.6 32.9 547.35 31 542.8 29.85 537.8 28.8 535.95 28.2 532.85 27.25 532.85 25.55 532.85 22.4 538.5 22.4 543.2 22.4 548.2 25.1L551.25 17.75Q546 14.7 538.55 14.7Z"/></g><animate attributeName="display" fill="freeze" repeatCount="1" dur="1.042s" keyTimes="0;.36;1" values="none;inline;inline"/></g></g></svg>