<?xml version="1.0" encoding="utf-8"?><svg id="sec1.8" image-rendering="auto" baseProfile="basic" version="1.1" x="0px" y="0px" width="1180" height="560" xmlns="http://www.w3.org/2000/svg" xmlns:xlink="http://www.w3.org/1999/xlink"><g id="Scene-1r1" overflow="visible"><g display="none"><g id="E01" transform="matrix(.2 0 0 .2 173.05 175.25)"><animateTransform attributeName="transform" additive="replace" type="translate" dur="1.125s" keyTimes="0;.37;.741;1" values="188.009,194.508;188.009,194.508;188,194.5;188,194.5" keySplines=".25 .5 .5 1;.25 .5 .5 1;.1 .1 .9 .9" calcMode="spline" fill="freeze"/><animateTransform attributeName="transform" additive="sum" type="scale" dur="1.125s" keyTimes="0;.37;.741;1" values=".2,.2;.2,.2;1,1;1,1" keySplines=".25 .5 .5 1;.25 .5 .5 1;.1 .1 .9 .9" calcMode="spline" fill="freeze"/><animateTransform attributeName="transform" additive="sum" type="translate" dur="1.125s" keyTimes="0;.37;.741;1" values="-75.05,-96.55;-75.05,-96.55;-74.7,-96.15;-74.7,-96.15" keySplines=".25 .5 .5 1;.25 .5 .5 1;.1 .1 .9 .9" calcMode="spline" fill="freeze"/><path fill="#404041" stroke="none" d="M95.75 175.2L92.8 175.2 96.7 185 96.55 185.45Q96.25 186.35 95.7 186.8 95.2 187.2 94.45 187.2 93.9 187.2 93.4 187.1L93.4 189.2Q94.1 189.35 94.8 189.35 96.2 189.35 97.25 188.6 98.3 187.85 98.9 186.3L103.05 175.2 100.15 175.2 98.35 180.75Q98.05 181.55 97.95 182.45L97.9 182.45Q97.85 181.45 97.6 180.75L95.75 175.2M83.75 172.7Q83.75 171.35 82.3 171.35 80.85 171.35 80.85 172.7 80.85 174 82.3 174 83.05 174 83.4 173.65 83.75 173.3 83.75 172.7M89.4 173.15L87.65 173.15 86.9 175.2 85.4 176.1 85.4 177.25 86.7 177.25 86.7 181.95Q86.7 183.6 87.45 184.4 88.15 185.25 89.75 185.25 91.25 185.25 92.25 184.8L92.25 182.8Q91.25 183.1 90.55 183.1 90 183.1 89.7 182.8 89.4 182.55 89.4 181.95L89.4 177.25 92.15 177.25 92.15 175.2 89.4 175.2 89.4 173.15M80.95 175.2L80.95 185.05 83.65 185.05 83.65 175.2 80.95 175.2M72.6 185.25Q73.6 185.25 74.4 184.85 75.2 184.5 75.6 183.8L75.75 183.8 76.1 185.05 78.15 185.05 78.15 175.2 75.5 175.2 75.5 179.85Q75.5 181.6 75 182.35 74.5 183.1 73.35 183.1 72.55 183.1 72.15 182.55 71.8 182.05 71.8 180.95L71.8 175.2 69.1 175.2 69.1 181.65Q69.1 183.35 70 184.3 70.85 185.25 72.6 185.25M57.2 180.15Q57.2 182.55 58.2 183.9 59.2 185.25 60.9 185.25 61.85 185.25 62.55 184.85 63.25 184.5 63.7 183.8L63.8 183.8 63.7 189.35 66.4 189.35 66.4 175.2 64.15 175.2 63.9 176.5 63.8 176.5Q63.3 175.75 62.6 175.4 61.9 175.05 60.95 175.05 59.2 175.05 58.2 176.4 57.2 177.75 57.2 180.15M60.4 182.4Q59.95 181.65 59.95 180.2 59.95 177.2 61.85 177.2 62.9 177.2 63.4 177.9 63.9 178.6 63.9 180.15L63.9 180.5Q63.85 181.95 63.35 182.55 62.9 183.15 61.9 183.15 60.9 183.15 60.4 182.4M55.35 172.2L47.95 172.2 47.95 185.05 55.35 185.05 55.35 182.8 50.7 182.8 50.7 179.5 55.05 179.5 55.05 177.25 50.7 177.25 50.7 174.45 55.35 174.45 55.35 172.2M85.8 82.5L65.5 82.5 65.5 107.3 85.8 107.3 85.8 82.5M83.55 84.75L83.55 87 67.75 87 67.75 84.75 83.55 84.75M83.55 89.25L83.55 91.5 67.75 91.5 67.75 89.25 83.55 89.25M83.55 93.75L83.55 96 67.75 96 67.75 93.75 83.55 93.75M67.75 102.8L70.05 102.8 70.05 100.55 67.75 100.55 67.75 98.25 83.55 98.25 83.55 100.55 72.3 100.55 72.3 102.8 83.55 102.8 83.55 105.05 67.75 105.05 67.75 102.8M63.25 91.5L43 91.5 43 107.3 63.25 107.3 63.25 91.5M45.25 96L45.25 93.75 61 93.75 61 96 45.25 96M45.25 98.25L61 98.25 61 100.55 45.25 100.55 45.25 98.25M61 102.8L61 105.05 45.25 105.05 45.25 102.8 61 102.8M108.4 73.5L88.1 73.5 88.1 107.3 108.4 107.3 108.4 73.5M90.35 87L90.35 84.75 101.6 84.75 101.6 82.5 90.35 82.5 90.35 80.2 106.15 80.2 106.15 82.5 103.85 82.5 103.85 84.75 106.15 84.75 106.15 87 90.35 87M90.35 96L90.35 93.75 106.15 93.75 106.15 96 90.35 96M90.35 78L90.35 75.75 106.15 75.75 106.15 78 90.35 78M90.35 91.5L90.35 89.25 106.15 89.25 106.15 91.5 90.35 91.5M90.35 98.25L106.15 98.25 106.15 100.55 90.35 100.55 90.35 98.25M106.15 105.05L90.35 105.05 90.35 102.8 106.15 102.8 106.15 105.05M106.15 42L94.75 42Q94.1 42 93.6 42.5 93.15 42.95 93.15 43.65 93.15 44.35 93.6 44.8 94.1 45.25 94.75 45.25L100.6 45.25 75.25 70.55 61.8 57.1Q61.3 56.6 60.65 56.6 60 56.6 59.5 57.1L41.65 74.95Q41.15 75.45 41.15 76.1 41.15 76.8 41.65 77.25 42.15 77.75 42.8 77.75 43.35 77.75 43.95 77.25L60.65 60.55 74.1 74Q74.6 74.5 75.25 74.5 75.95 74.5 76.4 74L102.9 47.55 102.9 53.4Q102.9 54.05 103.35 54.5 103.85 55 104.5 55 105.15 55 105.65 54.5 106.15 54.05 106.15 53.4L106.15 42Z"/><path fill="#FFCB05" stroke="none" d="M144.45 46.3Q139.55 33.65 130.5 23.45 119.95 12.4 106.05 6.3 104.55 5.65 103 5.05 101.65 4.5 100.3 4.05 88.45 0 75.75 0 63.05 0 51.25 4.05 49.85 4.5 48.5 5.05 47.35 5.5 46.25 5.95 32.7 11.7 22.2 22.2 11.75 32.65 6 46.25 .05 60.3 .05 75.7 .05 79.9 .5 84.05 1.55 93.8 5.1 103 10 115.65 19.05 125.85 29.6 136.9 43.5 143 49.3 145.55 55.35 147.05 61.3 148.55 67.5 149.05 70.9 149.3 73.8 149.3 83.25 149.3 92.25 147.05 97.85 145.65 103.25 143.35 116.85 137.6 127.35 127.15 137.8 116.65 143.55 103.05 147.45 93.85 148.8 84.05 149.5 78.9 149.5 73.6L149.5 71.45Q149.45 71.25 149.5 71.1 149.45 70.5 149.45 70 148.85 57.75 144.45 46.3M131.85 73.45Q131.85 73.65 131.85 73.85 131.85 79.1 131.05 84.05 128.1 101.5 114.9 114.7 98 131.65 74.05 131.65 73.75 131.65 73.45 131.65 67.5 131.6 61.9 130.45 52.15 128.45 43.75 123.2 40.4 121.05 37.3 118.5 35.7 117.15 34.15 115.7 33.15 114.75 32.2 113.75 32.1 113.65 32.05 113.55 19.8 100.75 17.05 84.05 16.2 79.1 16.2 73.85 16.2 49.9 33.15 32.95 50.1 16.05 74.05 16.05 98 16.05 114.9 32.95 127.65 45.7 130.8 62.4 131.55 66.55 131.8 70.95 131.85 71.9 131.85 72.9 131.85 73.1 131.85 73.3 131.85 73.35 131.85 73.45M70.05 102.8L67.75 102.8 67.75 105.05 83.55 105.05 83.55 102.8 72.3 102.8 72.3 100.55 83.55 100.55 83.55 98.25 67.75 98.25 67.75 100.55 70.05 100.55 70.05 102.8M83.55 96L83.55 93.75 67.75 93.75 67.75 96 83.55 96M83.55 91.5L83.55 89.25 67.75 89.25 67.75 91.5 83.55 91.5M83.55 87L83.55 84.75 67.75 84.75 67.75 87 83.55 87M61 105.05L61 102.8 45.25 102.8 45.25 105.05 61 105.05M61 98.25L45.25 98.25 45.25 100.55 61 100.55 61 98.25M45.25 93.75L45.25 96 61 96 61 93.75 45.25 93.75M90.35 105.05L106.15 105.05 106.15 102.8 90.35 102.8 90.35 105.05M106.15 98.25L90.35 98.25 90.35 100.55 106.15 100.55 106.15 98.25M90.35 89.25L90.35 91.5 106.15 91.5 106.15 89.25 90.35 89.25M90.35 75.75L90.35 78 106.15 78 106.15 75.75 90.35 75.75M90.35 93.75L90.35 96 106.15 96 106.15 93.75 90.35 93.75M90.35 84.75L90.35 87 106.15 87 106.15 84.75 103.85 84.75 103.85 82.5 106.15 82.5 106.15 80.2 90.35 80.2 90.35 82.5 101.6 82.5 101.6 84.75 90.35 84.75Z"/><path fill="#D8D9DD" stroke="none" d="M32.05 113.55Q32.1 113.65 32.2 113.75 33.15 114.75 34.15 115.7 33.65 115.2 33.15 114.7 32.6 114.15 32.05 113.55Z"/><path fill="#FFF" stroke="none" d="M131.85 73.85Q131.85 73.65 131.85 73.45 131.85 73.35 131.85 73.3 131.85 73.1 131.85 72.9 131.85 71.9 131.8 70.95 131.55 66.55 130.8 62.4 127.65 45.7 114.9 32.95 98 16.05 74.05 16.05 50.1 16.05 33.15 32.95 16.2 49.9 16.2 73.85 16.2 79.1 17.05 84.05 19.8 100.75 32.05 113.55 32.6 114.15 33.15 114.7 33.65 115.2 34.15 115.7 35.7 117.15 37.3 118.5 40.4 121.05 43.75 123.2 52.15 128.45 61.9 130.45 67.5 131.6 73.45 131.65 73.75 131.65 74.05 131.65 98 131.65 114.9 114.7 128.1 101.5 131.05 84.05 131.85 79.1 131.85 73.85M94.75 42L106.15 42 106.15 53.4Q106.15 54.05 105.65 54.5 105.15 55 104.5 55 103.85 55 103.35 54.5 102.9 54.05 102.9 53.4L102.9 47.55 76.4 74Q75.95 74.5 75.25 74.5 74.6 74.5 74.1 74L60.65 60.55 43.95 77.25Q43.35 77.75 42.8 77.75 42.15 77.75 41.65 77.25 41.15 76.8 41.15 76.1 41.15 75.45 41.65 74.95L59.5 57.1Q60 56.6 60.65 56.6 61.3 56.6 61.8 57.1L75.25 70.55 100.6 45.25 94.75 45.25Q94.1 45.25 93.6 44.8 93.15 44.35 93.15 43.65 93.15 42.95 93.6 42.5 94.1 42 94.75 42M88.1 73.5L108.4 73.5 108.4 107.3 88.1 107.3 88.1 73.5M43 91.5L63.25 91.5 63.25 107.3 43 107.3 43 91.5M65.5 82.5L85.8 82.5 85.8 107.3 65.5 107.3 65.5 82.5Z"/></g><animate attributeName="display" fill="freeze" repeatCount="1" dur="1.125s" keyTimes="0;.37;1" values="none;inline;inline"/></g><g display="none"><g id="D02" transform="matrix(.2 0 0 .2 449.65 158.05)"><animateTransform attributeName="transform" additive="replace" type="translate" dur="1.125s" keyTimes="0;.37;.741;1" values="464.599,173.009;464.599,173.009;464.6,173;464.6,173" keySplines=".25 .5 .5 1;.25 .5 .5 1;.1 .1 .9 .9" calcMode="spline" fill="freeze"/><animateTransform attributeName="transform" additive="sum" type="scale" dur="1.125s" keyTimes="0;.37;.741;1" values=".2,.2;.2,.2;1,1;1,1" keySplines=".25 .5 .5 1;.25 .5 .5 1;.1 .1 .9 .9" calcMode="spline" fill="freeze"/><animateTransform attributeName="transform" additive="sum" type="translate" dur="1.125s" keyTimes="0;.37;.741;1" values="-75,-75.05;-75,-75.05;-74.75,-74.65;-74.75,-74.65" keySplines=".25 .5 .5 1;.25 .5 .5 1;.1 .1 .9 .9" calcMode="spline" fill="freeze"/><path fill="#404041" stroke="none" d="M113.9 184.1Q113.05 184.5 112.25 184.7 111.45 184.9 110.6 184.9 109.45 184.9 108.8 184.25 108.15 183.6 108.1 182.45L114.45 182.45 114.45 181.15Q114.45 179.05 113.3 177.9 112.15 176.7 110.05 176.7 107.9 176.7 106.65 178.05 105.4 179.4 105.4 181.85 105.4 184.25 106.75 185.55 108.1 186.9 110.45 186.9 111.6 186.9 112.4 186.7 113.2 186.55 113.9 186.2L113.9 184.1M111.45 179.15Q111.95 179.7 111.95 180.65L108.2 180.65Q108.25 179.7 108.75 179.15 109.2 178.6 110.1 178.6 110.95 178.6 111.45 179.15M118.65 179.3Q118.65 178.7 119.85 178.7 120.55 178.7 121.15 178.9L122.55 179.4 123.35 177.45Q121.7 176.7 119.9 176.7 118.05 176.7 117.05 177.4 116 178.1 116 179.45 116 180.2 116.25 180.7 116.5 181.25 117.05 181.65 117.55 182.05 118.7 182.55L119.95 183.1Q120.45 183.35 120.6 183.55 120.8 183.75 120.8 184.05 120.8 184.9 119.35 184.9 118.65 184.9 117.7 184.7 116.75 184.45 116.05 184.1L116.05 186.3Q116.7 186.6 117.45 186.75 118.2 186.9 119.25 186.9 121.35 186.9 122.4 186.1 123.45 185.3 123.45 183.8 123.45 183.05 123.2 182.55 122.95 182 122.4 181.6 121.9 181.2 120.75 180.7 119.45 180.2 119.05 179.95 118.65 179.7 118.65 179.3M93.05 176.85L90.35 176.85 90.35 186.7 93.05 186.7 93.05 176.85M88.3 178.9L88.3 176.85 85.55 176.85 85.55 174.8 83.8 174.8 83.05 176.85 81.55 177.75 81.55 178.9 82.85 178.9 82.85 183.6Q82.85 185.25 83.6 186.05 84.3 186.9 85.9 186.9 87.4 186.9 88.4 186.45L88.4 184.45Q87.4 184.75 86.7 184.75 86.15 184.75 85.85 184.45 85.55 184.2 85.55 183.6L85.55 178.9 88.3 178.9M91.7 175.65Q92.45 175.65 92.8 175.3 93.15 174.95 93.15 174.35 93.15 173 91.7 173 90.25 173 90.25 174.35 90.25 175.65 91.7 175.65M97.2 176.85L94.4 176.85 98.15 186.7 100.9 186.7 104.65 176.85 101.85 176.85 99.95 182.45Q99.6 183.65 99.55 184.5L99.5 184.5Q99.4 183.55 99.1 182.45L97.2 176.85M70.35 176.85L67.55 176.85 65.65 182.45Q65.3 183.65 65.25 184.5L65.2 184.5Q65.1 183.55 64.8 182.45L62.9 176.85 60.1 176.85 63.85 186.7 66.6 186.7 70.35 176.85M75.75 176.65Q73.65 176.65 71.95 177.55L72.85 179.35Q74.45 178.65 75.65 178.65 77.15 178.65 77.15 180.15L77.15 180.6 75.45 180.65Q73.25 180.7 72.15 181.45 71.05 182.2 71.05 183.75 71.05 185.25 71.85 186.05 72.7 186.9 74.1 186.9 75.25 186.9 75.95 186.55 76.7 186.2 77.35 185.35L77.45 185.35 77.95 186.7 79.8 186.7 79.8 180.15Q79.8 178.4 78.75 177.55 77.7 176.65 75.75 176.65M75.1 184.9Q73.8 184.9 73.8 183.8 73.8 183 74.4 182.6 74.95 182.2 76.1 182.2L77.15 182.15 77.15 182.95Q77.15 183.85 76.6 184.4 76.05 184.9 75.1 184.9M53.4 176.7Q52.5 176.7 51.7 177.2 50.9 177.7 50.45 178.55L50.35 178.55 49.95 176.85 47.9 176.85 47.9 186.7 50.6 186.7 50.6 181.7Q50.6 180.5 51.3 179.85 52 179.2 53.3 179.2L54.1 179.3 54.3 176.75 53.4 176.7M58.75 176.85L56.05 176.85 56.05 186.7 58.75 186.7 58.75 176.85M57.4 175.65Q58.15 175.65 58.5 175.3 58.85 174.95 58.85 174.35 58.85 173 57.4 173 55.95 173 55.95 174.35 55.95 175.65 57.4 175.65M40.1 184.25Q39.45 183.6 39.4 182.45L45.75 182.45 45.75 181.15Q45.75 179.05 44.6 177.9 43.45 176.7 41.35 176.7 39.2 176.7 37.95 178.05 36.7 179.4 36.7 181.85 36.7 184.25 38.05 185.55 39.4 186.9 41.75 186.9 42.9 186.9 43.7 186.7 44.5 186.55 45.2 186.2L45.2 184.1Q44.35 184.5 43.55 184.7 42.75 184.9 41.9 184.9 40.75 184.9 40.1 184.25M39.5 180.65Q39.55 179.7 40.05 179.15 40.5 178.6 41.4 178.6 42.25 178.6 42.75 179.15 43.25 179.7 43.25 180.65L39.5 180.65M33.1 185Q34.9 183.35 34.9 180.15 34.9 177.15 33.15 175.5 31.4 173.85 28.25 173.85L24.2 173.85 24.2 186.7 27.85 186.7Q31.25 186.7 33.1 185M28.1 184.45L26.95 184.45 26.95 176.1 28.4 176.1Q32.05 176.1 32.05 180.2 32.05 184.45 28.1 184.45M92.1 46.3L92.1 42.2 43.05 42.2 43.05 105.6 92.1 105.6 92.1 101.5 106.45 101.5 106.45 85.1 92.1 85.1 92.1 82.05 106.45 82.05 106.45 65.7 92.1 65.7 92.1 62.65 106.45 62.65 106.45 46.3 92.1 46.3M90.05 44.25L90.05 46.3 47.1 46.3 47.1 74.9 77.8 74.9 77.8 72.85 49.15 72.85 49.15 48.35 85.95 48.35 85.95 53.45 81.85 53.45 81.85 72.85 79.8 72.85 79.8 74.9 81.85 74.9 81.85 94.3 85.95 94.3 85.95 101.5 90.05 101.5 90.05 103.55 45.05 103.55 45.05 44.25 90.05 44.25M88 48.35L104.4 48.35 104.4 60.6 88 60.6 88 48.35M83.9 55.5L85.95 55.5 85.95 72.85 83.9 72.85 83.9 55.5M90.05 62.65L90.05 65.7 88 65.7 88 62.65 90.05 62.65M90.05 82.05L90.05 85.1 85.95 85.1 85.95 92.3 83.9 92.3 83.9 74.9 85.95 74.9 85.95 82.05 90.05 82.05M104.4 80.05L88 80.05 88 67.75 104.4 67.75 104.4 80.05M88 87.15L104.4 87.15 104.4 99.45 88 99.45 88 87.15M79.8 99.45L77.8 99.45 77.8 101.5 79.8 101.5 79.8 99.45M75.75 101.5L75.75 99.45 70.65 99.45 70.65 101.5 75.75 101.5M70.65 95.35L70.65 97.4 79.8 97.4 79.8 95.35 70.65 95.35M70.65 87.15L70.65 89.2 79.8 89.2 79.8 87.15 70.65 87.15M70.65 91.25L70.65 93.3 79.8 93.3 79.8 91.25 70.65 91.25M79.8 85.1L79.8 83.05 70.65 83.05 70.65 85.1 79.8 85.1M79.8 81.05L79.8 79 70.65 79 70.65 81.05 79.8 81.05M58.35 79Q55.2 79.1 52.75 80.55 50.25 82.05 48.65 84.6 47.2 87.05 47.1 90.25 47.2 93.45 48.65 95.9 50.25 98.45 52.75 99.95 55.2 101.45 58.35 101.5 61.55 101.45 64.05 99.95 66.5 98.5 68.1 95.9 69.55 93.45 69.65 90.25 69.55 87.05 68.1 84.6 66.5 82 64.05 80.55 61.55 79.1 58.35 79M51.55 84.1Q53.8 81.55 57.35 81.1L57.35 90.75 65.05 96.55Q62.45 99.3 58.35 99.45 54.45 99.3 51.85 96.75 49.3 94.15 49.15 90.25 49.25 86.65 51.55 84.1M59.4 89.75L59.4 81.1Q62.95 81.55 65.2 84.1 67.55 86.65 67.6 90.25 67.55 92.8 66.25 94.9L59.4 89.75Z"/><path fill="#FFCB05" stroke="none" d="M144.45 46.35Q139.55 33.7 130.5 23.5 119.95 12.45 106 6.35 91.6 .05 75.7 .05 60.3 .05 46.25 6 32.65 11.75 22.2 22.25 11.7 32.7 5.95 46.3 0 60.35 0 75.75 0 89.9 5.1 103.05 9.75 115.2 18.3 125.1 18.65 125.5 19 125.9 29.55 136.95 43.5 143.05 55 148.1 67.45 149.1 67.8 149.15 68.2 149.15 71.25 149.35 73.8 149.35 89.2 149.35 103.25 143.4 116.85 137.65 127.35 127.2 128.4 126.15 129.4 125.1 138.35 115.35 143.55 103.1 149.5 89.05 149.5 73.65 149.5 59.5 144.45 46.35M131.3 66.05L131.75 71Q131.8 71.95 131.8 72.95L131.8 73.35Q131.8 73.4 131.8 73.5L131.8 73.9Q131.8 97.85 114.9 114.75 108.55 121.1 101.2 125.1 88.95 131.7 74 131.7 73.7 131.7 73.4 131.7L61.85 130.5Q53.95 128.9 46.95 125.1 45.8 124.45 44.65 123.8L38.95 119.9 34.55 116.15Q33.35 115 32.2 113.8 32.1 113.7 32.05 113.6 16.2 97.05 16.2 73.9 16.2 49.95 33.15 33 50.05 16.1 74 16.1 97.95 16.1 114.9 33 128.95 47.1 131.3 66.05M59.4 81.1L59.4 89.75 66.25 94.9Q67.55 92.8 67.6 90.25 67.55 86.65 65.2 84.1 62.95 81.55 59.4 81.1Z"/><path fill="#D8D9DD" stroke="none" d="M32.05 113.6Q32.1 113.7 32.2 113.8 33.35 115 34.55 116.15 33.85 115.45 33.15 114.75 32.55 114.2 32.05 113.6Z"/><path fill="#FFF" stroke="none" d="M131.75 71L131.3 66.05Q128.95 47.1 114.9 33 97.95 16.1 74 16.1 50.05 16.1 33.15 33 16.2 49.95 16.2 73.9 16.2 97.05 32.05 113.6 32.55 114.2 33.15 114.75 33.85 115.45 34.55 116.15L38.95 119.9 44.65 123.8Q45.8 124.45 46.95 125.1 53.95 128.9 61.85 130.5L73.4 131.7Q73.7 131.7 74 131.7 88.95 131.7 101.2 125.1 108.55 121.1 114.9 114.75 131.8 97.85 131.8 73.9L131.8 73.5Q131.8 73.4 131.8 73.35L131.8 72.95Q131.8 71.95 131.75 71M92.1 42.2L92.1 46.3 106.45 46.3 106.45 62.65 92.1 62.65 92.1 65.7 106.45 65.7 106.45 82.05 92.1 82.05 92.1 85.1 106.45 85.1 106.45 101.5 92.1 101.5 92.1 105.6 43.05 105.6 43.05 42.2 92.1 42.2M104.4 87.15L88 87.15 88 99.45 104.4 99.45 104.4 87.15M88 80.05L104.4 80.05 104.4 67.75 88 67.75 88 80.05M90.05 85.1L90.05 82.05 85.95 82.05 85.95 74.9 83.9 74.9 83.9 92.3 85.95 92.3 85.95 85.1 90.05 85.1M90.05 65.7L90.05 62.65 88 62.65 88 65.7 90.05 65.7M85.95 55.5L83.9 55.5 83.9 72.85 85.95 72.85 85.95 55.5M104.4 48.35L88 48.35 88 60.6 104.4 60.6 104.4 48.35M90.05 46.3L90.05 44.25 45.05 44.25 45.05 103.55 90.05 103.55 90.05 101.5 85.95 101.5 85.95 94.3 81.85 94.3 81.85 74.9 79.8 74.9 79.8 72.85 81.85 72.85 81.85 53.45 85.95 53.45 85.95 48.35 49.15 48.35 49.15 72.85 77.8 72.85 77.8 74.9 47.1 74.9 47.1 46.3 90.05 46.3M72.7 51.4L78.8 51.4 78.8 69.8 72.7 69.8 72.7 51.4M62.45 54.45L68.6 54.45 68.6 69.8 62.45 69.8 62.45 54.45M52.25 59.55L58.35 59.55 58.35 69.8 52.25 69.8 52.25 59.55M52.75 80.55Q55.2 79.1 58.35 79 61.55 79.1 64.05 80.55 66.5 82 68.1 84.6 69.55 87.05 69.65 90.25 69.55 93.45 68.1 95.9 66.5 98.5 64.05 99.95 61.55 101.45 58.35 101.5 55.2 101.45 52.75 99.95 50.25 98.45 48.65 95.9 47.2 93.45 47.1 90.25 47.2 87.05 48.65 84.6 50.25 82.05 52.75 80.55M79.8 79L79.8 81.05 70.65 81.05 70.65 79 79.8 79M79.8 83.05L79.8 85.1 70.65 85.1 70.65 83.05 79.8 83.05M70.65 93.3L70.65 91.25 79.8 91.25 79.8 93.3 70.65 93.3M70.65 89.2L70.65 87.15 79.8 87.15 79.8 89.2 70.65 89.2M70.65 97.4L70.65 95.35 79.8 95.35 79.8 97.4 70.65 97.4M75.75 99.45L75.75 101.5 70.65 101.5 70.65 99.45 75.75 99.45M77.8 99.45L79.8 99.45 79.8 101.5 77.8 101.5 77.8 99.45M57.35 81.1Q53.8 81.55 51.55 84.1 49.25 86.65 49.15 90.25 49.3 94.15 51.85 96.75 54.45 99.3 58.35 99.45 62.45 99.3 65.05 96.55L57.35 90.75 57.35 81.1Z"/><path fill="#39BB9D" stroke="none" d="M58.35 59.55L52.25 59.55 52.25 69.8 58.35 69.8 58.35 59.55M68.6 54.45L62.45 54.45 62.45 69.8 68.6 69.8 68.6 54.45M78.8 51.4L72.7 51.4 72.7 69.8 78.8 69.8 78.8 51.4Z"/></g><animate attributeName="display" fill="freeze" repeatCount="1" dur="1.125s" keyTimes="0;.37;1" values="none;inline;inline"/></g><g display="none"><g id="I6" transform="matrix(.2 0 0 .2 731.3 158.05)"><animateTransform attributeName="transform" additive="replace" type="translate" dur="1.125s" keyTimes="0;.37;.741;1" values="746.259,173.009;746.259,173.009;746.25,173;746.25,173" keySplines=".25 .5 .5 1;.25 .5 .5 1;.1 .1 .9 .9" calcMode="spline" fill="freeze"/><animateTransform attributeName="transform" additive="sum" type="scale" dur="1.125s" keyTimes="0;.37;.741;1" values=".2,.2;.2,.2;1,1;1,1" keySplines=".25 .5 .5 1;.25 .5 .5 1;.1 .1 .9 .9" calcMode="spline" fill="freeze"/><animateTransform attributeName="transform" additive="sum" type="translate" dur="1.125s" keyTimes="0;.37;.741;1" values="-75.05,-75.05;-75.05,-75.05;-74.7,-74.65;-74.7,-74.65" keySplines=".25 .5 .5 1;.25 .5 .5 1;.1 .1 .9 .9" calcMode="spline" fill="freeze"/><path fill="#404041" stroke="none" d="M78.8 176.1Q77.2 177.8 77.2 181 77.2 184.2 78.8 185.9 80.35 187.65 83.3 187.65 86.25 187.65 87.85 185.9 89.45 184.2 89.45 181 89.45 177.8 87.85 176.1 86.3 174.4 83.35 174.4 80.35 174.4 78.8 176.1M80.85 184.25Q80.05 183.15 80.05 181 80.05 178.85 80.9 177.75 81.7 176.65 83.35 176.65 86.55 176.65 86.55 181 86.55 185.35 83.3 185.35 81.7 185.35 80.85 184.25M74.05 181.8Q75.35 180.7 75.35 178.6 75.35 176.6 74.15 175.6 72.9 174.6 70.55 174.6L66.45 174.6 66.45 187.45 69.2 187.45 69.2 182.9 70.35 182.9Q72.75 182.9 74.05 181.8M72.05 177.3Q72.6 177.75 72.6 178.7 72.6 179.65 71.95 180.15 71.35 180.65 70.1 180.65L69.2 180.65 69.2 176.85 70.45 176.85Q71.55 176.85 72.05 177.3M60.5 174.6L60.5 187.45 63.25 187.45 63.25 174.6 60.5 174.6M105.55 68.55Q106.95 66.9 106.95 64.9 106.95 62.9 105.55 61.2L96.5 51Q96.15 50.55 95.55 50.55L60.55 50.55 60.55 46.3Q60.45 44.35 59.25 43.2 58.1 42 56.15 41.9 54.2 42 53.05 43.2 51.85 44.35 51.75 46.3L51.75 97.5 49.05 97.5Q47.85 97.5 47.05 98.3 46.2 99.2 46.15 100.4L46.15 104.85 43.9 104.85Q42.75 104.9 42.6 106.1 42.75 107.25 43.9 107.4L68.25 107.4Q69.4 107.25 69.55 106.1 69.4 104.9 68.25 104.85L66.1 104.85 66.1 100.35Q66.1 99.15 65.25 98.3 64.45 97.5 63.25 97.5L60.55 97.5 60.55 88.35Q60.45 87.2 59.25 87.1 58.1 87.2 58 88.35L58 97.5 54.3 97.5 54.3 79.25 95.55 79.25Q96.1 79.25 96.5 78.85L105.55 68.55M103.6 62.9Q104.35 63.8 104.35 64.85 104.35 66.05 103.6 66.85L94.95 76.7 54.3 76.7 54.3 53.1 94.95 53.1 103.6 62.9M54.3 46.3Q54.3 45.55 54.85 45 55.4 44.45 56.15 44.45 56.9 44.45 57.45 45 58 45.55 58 46.3L58 50.55 54.3 50.55 54.3 46.3M63.55 100.4L63.55 104.85 48.75 104.85 48.75 100.35Q48.75 100.15 49.05 100.05L63.25 100.05Q63.55 100.15 63.55 100.4M60.55 72.35L60.55 57.9Q60.4 56.75 59.25 56.6 58.1 56.75 58 57.9L58 72.35Q58.1 73.5 59.25 73.6 60.4 73.55 60.55 72.35M68.25 58.75Q67.1 58.8 66.95 60L66.95 70.65Q67.1 71.85 68.25 71.9 69.4 71.85 69.5 70.65L69.5 60Q69.4 58.8 68.25 58.75M81.05 65.3L81.05 61.15Q81.05 60.1 80.35 59.45 79.65 58.75 78.65 58.75L74.55 58.75Q73.55 58.75 72.85 59.45 72.15 60.15 72.1 61.15L72.1 70.3Q72.25 71.45 73.4 71.6 74.65 71.45 74.7 70.3L74.7 67.7 78.65 67.7Q79.75 67.6 80.35 67 81.05 66.3 81.05 65.3M74.7 61.3L78.55 61.3 78.55 65.1 74.7 65.1 74.7 61.3M92.25 61.15Q92.25 60.1 91.55 59.45 90.85 58.75 89.85 58.75L85.75 58.75Q84.75 58.75 84.05 59.45 83.35 60.15 83.3 61.15L83.3 69.5Q83.35 70.5 84.05 71.2 84.75 71.9 85.75 71.9L89.85 71.9Q90.85 71.9 91.55 71.2 92.25 70.55 92.25 69.5L92.25 61.15M85.9 61.3L89.75 61.3 89.75 69.35 85.9 69.35 85.9 61.3Z"/><path fill="#FFCB05" stroke="none" d="M144.45 46.3Q139.55 33.65 130.5 23.45 119.95 12.4 106 6.3 91.6 0 75.75 0 60.35 0 46.25 5.95 32.7 11.7 22.2 22.2 11.75 32.65 6 46.25 .05 60.3 .05 75.7 .05 89.9 5.1 103 10 115.65 19.05 125.85 29.6 136.9 43.5 143 55.05 148.05 67.5 149.05 70.9 149.3 73.8 149.3 89.2 149.3 103.25 143.35 116.85 137.6 127.35 127.15 137.8 116.65 143.55 103.05 149.5 89 149.5 73.6 149.5 71.9 149.45 70.85L149.45 70.35Q148.9 57.95 144.45 46.3M131.85 72.9Q131.85 73.1 131.85 73.3L131.85 73.45Q131.85 73.65 131.85 73.85 131.85 97.8 114.9 114.7 98 131.65 74.05 131.65 73.75 131.65 73.45 131.65L61.9 130.45Q52.15 128.45 43.75 123.2L37.3 118.5 34.15 115.7Q33.15 114.75 32.2 113.75 32.1 113.65 32.05 113.55 16.2 97 16.2 73.85 16.2 49.9 33.15 32.95 50.1 16.05 74.05 16.05 98 16.05 114.9 32.95 131.5 49.55 131.85 72.9M104.35 64.85Q104.35 63.8 103.6 62.9L94.95 53.1 54.3 53.1 54.3 76.7 94.95 76.7 103.6 66.85Q104.35 66.05 104.35 64.85M91.55 59.45Q92.25 60.1 92.25 61.15L92.25 69.5Q92.25 70.55 91.55 71.2 90.85 71.9 89.85 71.9L85.75 71.9Q84.75 71.9 84.05 71.2 83.35 70.5 83.3 69.5L83.3 61.15Q83.35 60.15 84.05 59.45 84.75 58.75 85.75 58.75L89.85 58.75Q90.85 58.75 91.55 59.45M81.05 61.15L81.05 65.3Q81.05 66.3 80.35 67 79.75 67.6 78.65 67.7L74.7 67.7 74.7 70.3Q74.65 71.45 73.4 71.6 72.25 71.45 72.1 70.3L72.1 61.15Q72.15 60.15 72.85 59.45 73.55 58.75 74.55 58.75L78.65 58.75Q79.65 58.75 80.35 59.45 81.05 60.1 81.05 61.15M66.95 60Q67.1 58.8 68.25 58.75 69.4 58.8 69.5 60L69.5 70.65Q69.4 71.85 68.25 71.9 67.1 71.85 66.95 70.65L66.95 60M60.55 57.9L60.55 72.35Q60.4 73.55 59.25 73.6 58.1 73.5 58 72.35L58 57.9Q58.1 56.75 59.25 56.6 60.4 56.75 60.55 57.9M78.55 61.3L74.7 61.3 74.7 65.1 78.55 65.1 78.55 61.3M89.75 61.3L85.9 61.3 85.9 69.35 89.75 69.35 89.75 61.3Z"/><path fill="#D8D9DD" stroke="none" d="M32.05 113.55Q32.1 113.65 32.2 113.75 33.15 114.75 34.15 115.7 33.65 115.2 33.15 114.7 32.6 114.15 32.05 113.55Z"/><path fill="#FFF" stroke="none" d="M131.85 73.3Q131.85 73.1 131.85 72.9 131.5 49.55 114.9 32.95 98 16.05 74.05 16.05 50.1 16.05 33.15 32.95 16.2 49.9 16.2 73.85 16.2 97 32.05 113.55 32.6 114.15 33.15 114.7 33.65 115.2 34.15 115.7L37.3 118.5 43.75 123.2Q52.15 128.45 61.9 130.45L73.45 131.65Q73.75 131.65 74.05 131.65 98 131.65 114.9 114.7 131.85 97.8 131.85 73.85 131.85 73.65 131.85 73.45L131.85 73.3M106.95 64.9Q106.95 66.9 105.55 68.55L96.5 78.85Q96.1 79.25 95.55 79.25L54.3 79.25 54.3 97.5 58 97.5 58 88.35Q58.1 87.2 59.25 87.1 60.45 87.2 60.55 88.35L60.55 97.5 63.25 97.5Q64.45 97.5 65.25 98.3 66.1 99.15 66.1 100.35L66.1 104.85 68.25 104.85Q69.4 104.9 69.55 106.1 69.4 107.25 68.25 107.4L43.9 107.4Q42.75 107.25 42.6 106.1 42.75 104.9 43.9 104.85L46.15 104.85 46.15 100.4Q46.2 99.2 47.05 98.3 47.85 97.5 49.05 97.5L51.75 97.5 51.75 46.3Q51.85 44.35 53.05 43.2 54.2 42 56.15 41.9 58.1 42 59.25 43.2 60.45 44.35 60.55 46.3L60.55 50.55 95.55 50.55Q96.15 50.55 96.5 51L105.55 61.2Q106.95 62.9 106.95 64.9M59.1 84.25Q57.95 84.2 57.8 83 57.95 81.85 59.1 81.7 60.35 81.85 60.4 83 60.3 84.2 59.1 84.25M54.85 45Q54.3 45.55 54.3 46.3L54.3 50.55 58 50.55 58 46.3Q58 45.55 57.45 45 56.9 44.45 56.15 44.45 55.4 44.45 54.85 45Z"/><path fill="#39BB9D" stroke="none" d="M57.8 83Q57.95 84.2 59.1 84.25 60.3 84.2 60.4 83 60.35 81.85 59.1 81.7 57.95 81.85 57.8 83M63.55 104.85L63.55 100.4Q63.55 100.15 63.25 100.05L49.05 100.05Q48.75 100.15 48.75 100.35L48.75 104.85 63.55 104.85Z"/></g><animate attributeName="display" fill="freeze" repeatCount="1" dur="1.125s" keyTimes="0;.37;1" values="none;inline;inline"/></g><g display="none"><g id="M04" transform="matrix(.2 0 0 .2 998.4 158.05)"><animateTransform attributeName="transform" additive="replace" type="translate" dur="1.125s" keyTimes="0;.37;.741;1" values="1013.399,173.009;1013.399,173.009;1013.4,173;1013.4,173" keySplines=".25 .5 .5 1;.25 .5 .5 1;.1 .1 .9 .9" calcMode="spline" fill="freeze"/><animateTransform attributeName="transform" additive="sum" type="scale" dur="1.125s" keyTimes="0;.37;.741;1" values=".2,.2;.2,.2;1,1;1,1" keySplines=".25 .5 .5 1;.25 .5 .5 1;.1 .1 .9 .9" calcMode="spline" fill="freeze"/><animateTransform attributeName="transform" additive="sum" type="translate" dur="1.125s" keyTimes="0;.37;.741;1" values="-75.25,-75.05;-75.25,-75.05;-74.75,-74.65;-74.75,-74.65" keySplines=".25 .5 .5 1;.25 .5 .5 1;.1 .1 .9 .9" calcMode="spline" fill="freeze"/><path fill="#404041" stroke="none" d="M130.85 173.3L128.15 173.3 128.15 176.45Q128.15 177.35 128.35 178.45L128.25 178.45Q127.3 177 125.45 177 123.65 177 122.65 178.35 121.65 179.7 121.65 182.1 121.65 184.5 122.65 185.85 123.65 187.2 125.35 187.2 127.25 187.2 128.15 185.75L128.25 185.75 128.8 187 130.85 187 130.85 173.3M126.3 185.05Q125.4 185.05 124.9 184.3 124.35 183.6 124.35 182.15 124.35 180.7 124.9 179.95 125.35 179.15 126.25 179.15 127.35 179.15 127.85 179.85 128.35 180.55 128.35 182.1L128.35 182.4Q128.3 183.85 127.8 184.45 127.35 185.05 126.3 185.05M136.85 179Q137.55 179 138.15 179.2L139.55 179.7 140.35 177.75Q138.7 177 136.9 177 135.05 177 134.05 177.7 133 178.4 133 179.75 133 180.5 133.25 181 133.5 181.55 134.05 181.95 134.55 182.35 135.7 182.85L136.95 183.4Q137.45 183.65 137.6 183.85 137.8 184.05 137.8 184.35 137.8 185.2 136.35 185.2 135.65 185.2 134.7 185 133.75 184.75 133.05 184.4L133.05 186.6Q133.7 186.9 134.45 187.05 135.2 187.2 136.25 187.2 138.35 187.2 139.4 186.4 140.45 185.6 140.45 184.1 140.45 183.35 140.2 182.85 139.95 182.3 139.4 181.9 138.9 181.5 137.75 181 136.45 180.5 136.05 180.25 135.65 180 135.65 179.6 135.65 179 136.85 179M112.85 178.45L112.5 177.15 110.45 177.15 110.45 187 113.15 187 113.15 182.4Q113.15 180.65 113.65 179.9 114.15 179.15 115.25 179.15 116.1 179.15 116.45 179.65 116.85 180.2 116.85 181.25L116.85 187 119.55 187 119.55 180.6Q119.55 178.85 118.65 177.9 117.75 177 116.05 177 115.05 177 114.25 177.35 113.45 177.7 113 178.45L112.85 178.45M98.6 177.15L98.6 183.6Q98.6 185.3 99.5 186.25 100.35 187.2 102.1 187.2 103.1 187.2 103.9 186.8 104.7 186.45 105.1 185.75L105.25 185.75 105.6 187 107.65 187 107.65 177.15 105 177.15 105 181.8Q105 183.55 104.5 184.3 104 185.05 102.85 185.05 102.05 185.05 101.65 184.5 101.3 184 101.3 182.9L101.3 177.15 98.6 177.15M96.4 176.4L96.4 174.15 89 174.15 89 187 91.7 187 91.7 181.9 96.05 181.9 96.05 179.7 91.7 179.7 91.7 176.4 96.4 176.4M78.7 173.3L78.7 187 81.4 187 81.4 173.3 78.7 173.3M74.9 177.85Q73.85 176.95 71.9 176.95 69.8 176.95 68.1 177.85L69 179.65Q70.6 178.95 71.8 178.95 73.3 178.95 73.3 180.45L73.3 180.9 71.6 180.95Q69.4 181 68.3 181.75 67.2 182.5 67.2 184.05 67.2 185.55 68 186.35 68.85 187.2 70.25 187.2 71.4 187.2 72.1 186.85 72.85 186.5 73.5 185.65L73.6 185.65 74.1 187 75.95 187 75.95 180.45Q75.95 178.7 74.9 177.85M73.3 182.45L73.3 183.25Q73.3 184.15 72.75 184.7 72.2 185.2 71.25 185.2 69.95 185.2 69.95 184.1 69.95 183.3 70.55 182.9 71.1 182.5 72.25 182.5L73.3 182.45M51.25 177.15L51.25 175.1 49.5 175.1 48.75 177.15 47.25 178.05 47.25 179.2 48.55 179.2 48.55 183.9Q48.55 185.55 49.3 186.35 50 187.2 51.6 187.2 53.1 187.2 54.1 186.75L54.1 184.75Q53.1 185.05 52.4 185.05 51.85 185.05 51.55 184.75 51.25 184.5 51.25 183.9L51.25 179.2 54 179.2 54 177.15 51.25 177.15M58.7 177.15L56 177.15 56 183.6Q56 185.3 56.9 186.25 57.75 187.2 59.5 187.2 60.5 187.2 61.3 186.8 62.1 186.45 62.5 185.75L62.65 185.75 63 187 65.05 187 65.05 177.15 62.4 177.15 62.4 181.8Q62.4 183.55 61.9 184.3 61.4 185.05 60.25 185.05 59.45 185.05 59.05 184.5 58.7 184 58.7 182.9L58.7 177.15M39.45 184.5Q39.1 184 39.1 182.9L39.1 177.15 36.4 177.15 36.4 183.6Q36.4 185.3 37.3 186.25 38.15 187.2 39.9 187.2 40.9 187.2 41.7 186.8 42.5 186.45 42.9 185.75L43.05 185.75 43.4 187 45.45 187 45.45 177.15 42.8 177.15 42.8 181.8Q42.8 183.55 42.3 184.3 41.8 185.05 40.65 185.05 39.85 185.05 39.45 184.5M19.7 174.15L19.7 187 22.15 187 22 176.9 22.05 176.9 25.15 187 27.65 187 30.95 176.95 31.05 176.95Q30.95 179.35 30.95 179.9L30.9 187 33.45 187 33.45 174.15 29.75 174.15 26.5 184 26.45 184 23.45 174.15 19.7 174.15M57.55 55.65L57.5 55.65Q57.667 55.920 57.8 56.15 57.677 55.920 57.55 55.65M97.6 48.35Q96.4 47.25 94.7 47.15 91.05 47.25 88.3 49.5 85.6 51.8 84.95 55.35L82.8 55.35Q82.526 55.935 82.2 56.5 81.843 57.097 81.4 57.65L87.05 57.65 87.15 56.6Q87.35 53.6 89.5 51.55 91.7 49.55 94.7 49.5 95.4 49.5 95.9 50 96.35 50.45 96.45 51.25L96.45 59.25 96.95 59.65Q99.5 61.4 100.85 63.9 102.2 66.45 102.3 69.5L102.3 71.65 106.95 71.65Q108.05 71.8 108.1 72.8L108.1 84.55Q108.05 85.55 106.95 85.7L102.05 85.7 101.8 86.55Q100.9 89.45 98.8 91.55 96.7 93.65 93.75 94.55L92.95 94.8 92.95 100.25Q92.9 100.85 92.35 100.85L80.7 100.85Q80.15 100.85 80.05 100.25L80.05 95 68.4 95 68.4 100.25Q68.4 100.85 67.85 100.85L56.15 100.85Q55.65 100.85 55.55 100.25L55.55 94 54.95 93.7Q51.9 92 50.3 89.35 48.6 86.6 48.6 83.2L48.6 69.5Q48.7 65.05 51.35 61.85 54.1 58.65 58.4 57.85L58.2 56.85Q58.112 56.688 58 56.5L57.8 56.15Q57.667 55.920 57.5 55.65 52.700 56.674 49.55 60.35 46.35 64.2 46.25 69.5L46.25 72.85 44.85 72.85Q45.05 72.3 45.05 71.65 45.05 70.2 44.05 69.2 43.1 68.25 41.55 68.15 41.1 68.15 40.4 68.35L40.4 64.7 38.05 64.7 38.05 71.65Q38.15 73.2 39.1 74.15 40.05 75.1 41.55 75.2L46.25 75.2 46.25 83.2Q46.25 86.95 48.1 90.25 50.05 93.5 53.25 95.4L53.25 100.25Q53.25 101.5 54.1 102.35 54.95 103.2 56.15 103.2L67.85 103.2Q69.05 103.2 69.9 102.35 70.75 101.5 70.75 100.25L70.75 97.4 77.75 97.4 77.75 100.25Q77.85 101.6 78.6 102.35 79.45 103.2 80.7 103.2L92.35 103.2Q93.55 103.2 94.4 102.35 95.25 101.5 95.25 100.25L95.25 96.5Q98.3 95.35 100.45 93.2 102.6 91.05 103.75 88.05L106.95 88.05Q108.5 88 109.45 87 110.45 86 110.45 84.55L110.45 72.8Q110.45 71.35 109.45 70.35 108.35 69.35 106.95 69.35L104.6 69.35Q104.6 65.95 103 63 101.5 60.05 98.75 58.05L98.75 51.25Q98.75 49.6 97.6 48.35M41.55 70.55Q42.6 70.65 42.75 71.65 42.6 72.8 41.55 72.85 40.5 72.75 40.4 71.65 40.45 70.65 41.55 70.55Z"/><path fill="#FFCB05" stroke="none" d="M144.45 46.3Q139.55 33.65 130.5 23.45 119.95 12.4 106 6.3 91.6 0 75.7 0 60.3 0 46.25 5.95 32.65 11.7 22.2 22.2 11.7 32.65 5.95 46.25 0 60.3 0 75.7 0 89.9 5.1 103 10 115.65 19.05 125.85 29.55 136.9 43.5 143 55.020 148.040 67.5 149.05 70.9 149.3 73.8 149.3 89.2 149.3 103.25 143.35 116.85 137.6 127.35 127.15 137.8 116.65 143.55 103.05 149.5 89 149.5 73.6 149.5 59.45 144.45 46.3M131.8 72.05Q131.823 72.107 131.8 72.15 131.844 72.420 131.85 72.7 131.848 72.885 131.85 73.05 131.848 73.260 131.85 73.45 131.85 73.649 131.85 73.85 131.85 97.8 114.9 114.7 97.95 131.65 74 131.65 73.700 131.65 73.4 131.65 67.465 131.593 61.85 130.4 52.107 128.478 43.7 123.15 40.340 121.051 37.2 118.45 35.652 117.133 34.15 115.7 33.151 114.749 32.2 113.75 32.117 113.656 32 113.55 16.2 96 16.2 73.85 16.2 49.9 33.15 32.95 50.05 16.05 74 16.05 97.95 16.05 114.9 32.95 130.930 48.980 131.8 71.25 131.796 71.355 131.8 71.45 131.805 71.503 131.8 71.55 131.820 71.678 131.8 71.8 131.821 71.934 131.8 72.05M90.6 63.5Q88.6 63.6 87.45 64.25 86.35 64.8 85.6 65.55 84.95 66.35 84.95 66.4 84.7 66.8 84.8 67.25 84.85 67.65 85.3 68 85.75 68.2 86.15 68.15 86.55 68.1 86.9 67.65 86.9 67.5 87.85 66.75 88.65 65.95 90.6 65.85 92.4 65.95 93.35 66.7 94.15 67.4 94.3 67.65 94.65 68.15 95.25 68.15 95.6 68.15 95.9 68 96.3 67.7 96.4 67.25 96.55 66.8 96.25 66.4L95.6 65.55Q95 64.85 93.7 64.25 92.65 63.6 90.6 63.5M42.75 71.65Q42.6 70.65 41.55 70.55 40.45 70.65 40.4 71.65 40.5 72.75 41.55 72.85 42.6 72.8 42.75 71.65Z"/><path fill="#D8D9DD" stroke="none" d="M32 113.55Q32.117 113.656 32.2 113.75 33.151 114.749 34.15 115.7 33.648 115.198 33.15 114.7 32.583 114.134 32 113.55M131.85 72.7Q131.844 72.420 131.8 72.15 131.838 72.610 131.85 73.05 131.848 72.885 131.85 72.7M131.8 71.55Q131.811 71.807 131.8 72.05 131.821 71.934 131.8 71.8 131.820 71.678 131.8 71.55Z"/><path fill="#FFF" stroke="none" d="M131.8 72.15Q131.823 72.107 131.8 72.05 131.811 71.807 131.8 71.55 131.805 71.503 131.8 71.45 131.796 71.355 131.8 71.25 130.930 48.980 114.9 32.95 97.95 16.05 74 16.05 50.05 16.05 33.15 32.95 16.2 49.9 16.2 73.85 16.2 96 32 113.55 32.583 114.134 33.15 114.7 33.648 115.198 34.15 115.7 35.652 117.133 37.2 118.45 40.340 121.051 43.7 123.15 52.107 128.478 61.85 130.4 67.465 131.593 73.4 131.65 73.700 131.65 74 131.65 97.95 131.65 114.9 114.7 131.85 97.8 131.85 73.85 131.85 73.649 131.85 73.45 131.848 73.260 131.85 73.05 131.838 72.610 131.8 72.15M94.7 47.15Q96.4 47.25 97.6 48.35 98.75 49.6 98.75 51.25L98.75 58.05Q101.5 60.05 103 63 104.6 65.95 104.6 69.35L106.95 69.35Q108.35 69.35 109.45 70.35 110.45 71.35 110.45 72.8L110.45 84.55Q110.45 86 109.45 87 108.5 88 106.95 88.05L103.75 88.05Q102.6 91.05 100.45 93.2 98.3 95.35 95.25 96.5L95.25 100.25Q95.25 101.5 94.4 102.35 93.55 103.2 92.35 103.2L80.7 103.2Q79.45 103.2 78.6 102.35 77.85 101.6 77.75 100.25L77.75 97.4 70.75 97.4 70.75 100.25Q70.75 101.5 69.9 102.35 69.05 103.2 67.85 103.2L56.15 103.2Q54.95 103.2 54.1 102.35 53.25 101.5 53.25 100.25L53.25 95.4Q50.05 93.5 48.1 90.25 46.25 86.95 46.25 83.2L46.25 75.2 41.55 75.2Q40.05 75.1 39.1 74.15 38.15 73.2 38.05 71.65L38.05 64.7 40.4 64.7 40.4 68.35Q41.1 68.15 41.55 68.15 43.1 68.25 44.05 69.2 45.05 70.2 45.05 71.65 45.05 72.3 44.85 72.85L46.25 72.85 46.25 69.5Q46.35 64.2 49.55 60.35 52.700 56.674 57.5 55.65 57.241 55.068 57 54.45L56.15 50.5Q56.156 50.4 56.15 50.3 56.131 50.199 56.1 50.1 56.108 49.889 56.1 49.65 56.102 49.562 56.1 49.45 56.2 45.45 58 42.4 59.85 39.3 63.05 37.4 66.1 35.6 70.1 35.5 74.1 35.6 77.15 37.4 80.35 39.3 82.2 42.4 84.05 45.6 84.1 49.45 84.058 52.620 82.8 55.35L84.95 55.35Q85.6 51.8 88.3 49.5 91.05 47.25 94.7 47.15M57 54.45Q57.241 55.068 57.5 55.65L57.55 55.65Q57.260 55.066 57 54.45M108.1 72.8Q108.05 71.8 106.95 71.65L102.3 71.65 102.3 69.5Q102.2 66.45 100.85 63.9 99.5 61.4 96.95 59.65L96.45 59.25 96.45 51.25Q96.35 50.45 95.9 50 95.4 49.5 94.7 49.5 91.7 49.55 89.5 51.55 87.35 53.6 87.15 56.6L87.05 57.65 81.4 57.65Q79.733 59.966 77.15 61.5 76.418 61.952 75.65 62.3L78.95 62.3 78.95 64.7 60.25 64.7 60.25 62.3 64.55 62.3Q63.781 61.952 63.05 61.5 60.044 59.715 58.2 56.85L58.4 57.85Q54.1 58.65 51.35 61.85 48.7 65.05 48.6 69.5L48.6 83.2Q48.6 86.6 50.3 89.35 51.9 92 54.95 93.7L55.55 94 55.55 100.25Q55.65 100.85 56.15 100.85L67.85 100.85Q68.4 100.85 68.4 100.25L68.4 95 80.05 95 80.05 100.25Q80.15 100.85 80.7 100.85L92.35 100.85Q92.9 100.85 92.95 100.25L92.95 94.8 93.75 94.55Q96.7 93.65 98.8 91.55 100.9 89.45 101.8 86.55L102.05 85.7 106.95 85.7Q108.05 85.55 108.1 84.55L108.1 72.8M87.45 64.25Q88.6 63.6 90.6 63.5 92.65 63.6 93.7 64.25 95 64.85 95.6 65.55L96.25 66.4Q96.55 66.8 96.4 67.25 96.3 67.7 95.9 68 95.6 68.15 95.25 68.15 94.65 68.15 94.3 67.65 94.15 67.4 93.35 66.7 92.4 65.95 90.6 65.85 88.65 65.95 87.85 66.75 86.9 67.5 86.9 67.65 86.55 68.1 86.15 68.15 85.75 68.2 85.3 68 84.85 67.65 84.8 67.25 84.7 66.8 84.95 66.4 84.95 66.35 85.6 65.55 86.35 64.8 87.45 64.25M65.5 43.05L65.4 43.1 65.4 44 65.5 44.1 67.25 44.1Q68.05 44.1 69.2 44.6 69.846 45.056 70.1 45.6 70.202 45.770 70.25 45.95L65.5 45.95 65.4 46 65.4 46.8 65.5 46.9 70.25 46.9 70.25 47 70.25 47.35Q69.6 49.55 66.3 49.55L66 49.55 65.75 49.55 65.75 49.6 71.6 56.6 73.55 56.6 73.55 56.55 73.3 56.25 68.45 50.55 68.55 50.5Q68.633 50.5 68.7 50.45 69.410 50.384 70.85 49.6 72.7 48.35 72.7 46.9L75 46.9 75.05 46.8 75.05 46 75 45.95 72.65 45.95 72.6 45.7Q72.1 44.45 71.4 44.1L71.85 44.1 75 44.1 75.05 44 75.05 43.1 75 43.05 65.5 43.05Z"/><path fill="#636363" stroke="none" d="M78.95 64.7L78.95 62.3 75.65 62.3 64.55 62.3 60.25 62.3 60.25 64.7 78.95 64.7M73.55 56.25L73.55 56.2 68.7 50.45Q68.633 50.5 68.55 50.5L68.45 50.55 73.3 56.25 73.55 56.25M75 45.95L75.05 46 75.05 45.6 72.65 45.6 72.6 45.35Q72.273 44.532 71.85 44.1L71.4 44.1Q72.1 44.45 72.6 45.7L72.65 45.95 75 45.95M65.75 49.2L65.75 49.25 66 49.55 66.3 49.55Q69.6 49.55 70.25 47.35L70.25 47Q69.55 49.2 66.3 49.2L65.75 49.2M65.4 45.6L65.4 46 65.5 45.95 70.25 45.95Q70.202 45.770 70.1 45.6L65.4 45.6M65.5 42.7L65.4 42.75 65.4 43.1 65.5 43.05 75 43.05 75.05 43.1 75.05 42.75 75 42.7 65.5 42.7Z"/><path fill="#39BB9D" stroke="none" d="M84.1 49.45Q84.05 45.6 82.2 42.4 80.35 39.3 77.15 37.4 74.1 35.6 70.1 35.5 66.1 35.6 63.05 37.4 59.85 39.3 58 42.4 56.2 45.45 56.1 49.45 56.102 49.562 56.1 49.65 56.108 49.889 56.1 50.1 56.131 50.199 56.15 50.3 56.156 50.4 56.15 50.5L57 54.45Q57.260 55.066 57.55 55.65 57.677 55.920 57.8 56.15L58 56.5Q58.112 56.688 58.2 56.85 60.044 59.715 63.05 61.5 63.781 61.952 64.55 62.3L75.65 62.3Q76.418 61.952 77.15 61.5 79.733 59.966 81.4 57.65 81.843 57.097 82.2 56.5 82.526 55.935 82.8 55.35 84.058 52.620 84.1 49.45M65.4 42.75L65.5 42.7 75 42.7 75.05 42.75 75.05 43.1 75.05 44 75 44.1 71.85 44.1Q72.273 44.532 72.6 45.35L72.65 45.6 75.05 45.6 75.05 46 75.05 46.8 75 46.9 72.7 46.9Q72.7 48.35 70.85 49.6 69.410 50.384 68.7 50.45L73.55 56.2 73.55 56.25 73.3 56.25 73.55 56.55 73.55 56.6 71.6 56.6 65.75 49.6 65.75 49.55 66 49.55 65.75 49.25 65.75 49.2 66.3 49.2Q69.55 49.2 70.25 47L70.25 46.9 65.5 46.9 65.4 46.8 65.4 46 65.4 45.6 70.1 45.6Q69.846 45.056 69.2 44.6 68.05 44.1 67.25 44.1L65.5 44.1 65.4 44 65.4 43.1 65.4 42.75Z"/><path id="Layer4_0_1_STROKES" stroke="#404041" stroke-width="3" stroke-linejoin="round" stroke-linecap="round" fill="none" d="M82.8 55.35Q82.526 55.935 82.2 56.5 81.843 57.097 81.425 57.65M58.225 56.875Q58.112 56.688 58 56.5L57.825 56.175Q57.667 55.920 57.525 55.65 57.241 55.068 57.025 54.45L56.175 50.5Q56.156 50.4 56.15 50.3 56.131 50.199 56.125 50.1 56.108 49.889 56.1 49.675 56.102 49.562 56.1 49.45 56.2 45.45 58 42.4 59.85 39.3 63.05 37.4 66.1 35.6 70.1 35.5 74.1 35.6 77.15 37.4 80.35 39.3 82.2 42.4 84.05 45.6 84.1 49.45 84.058 52.620 82.8 55.35M64.55 62.3Q63.781 61.952 63.05 61.5 60.044 59.715 58.225 56.875M81.425 57.65Q79.733 59.966 77.15 61.5 76.418 61.952 75.65 62.3"/></g><animate attributeName="display" fill="freeze" repeatCount="1" dur="1.125s" keyTimes="0;.37;1" values="none;inline;inline"/></g><g display="none"><g id="I05" transform="matrix(.2 0 0 .2 306.5 391.65)"><animateTransform attributeName="transform" additive="replace" type="translate" dur="1.125s" keyTimes="0;.37;.741;1" values="321.509,406.659;321.509,406.659;321.5,406.65;321.5,406.65" keySplines=".25 .5 .5 1;.25 .5 .5 1;.1 .1 .9 .9" calcMode="spline" fill="freeze"/><animateTransform attributeName="transform" additive="sum" type="scale" dur="1.125s" keyTimes="0;.37;.741;1" values=".2,.2;.2,.2;1,1;1,1" keySplines=".25 .5 .5 1;.25 .5 .5 1;.1 .1 .9 .9" calcMode="spline" fill="freeze"/><animateTransform attributeName="transform" additive="sum" type="translate" dur="1.125s" keyTimes="0;.37;.741;1" values="-75.3,-75.3;-75.3,-75.3;-74.75,-74.65;-74.75,-74.65" keySplines=".25 .5 .5 1;.25 .5 .5 1;.1 .1 .9 .9" calcMode="spline" fill="freeze"/><path fill="#404041" stroke="none" d="M109.55 175.7Q108.2 175.05 106.5 175.05 104.15 175.05 102.9 176.35 101.65 177.7 101.65 180.2 101.65 185.25 106.25 185.25 107.25 185.25 107.95 185.05 108.6 184.9 109.25 184.5L109.25 182.2Q108.6 182.65 107.9 182.85 107.25 183.05 106.5 183.05 104.4 183.05 104.4 180.15 104.4 177.2 106.5 177.2 107.05 177.2 107.55 177.35L108.75 177.8 109.55 175.7M115.55 175.05Q113.4 175.05 112.15 176.4 110.9 177.75 110.9 180.2 110.9 182.6 112.25 183.9 113.6 185.25 115.95 185.25 117.1 185.25 117.9 185.05 118.7 184.9 119.4 184.55L119.4 182.45Q118.55 182.85 117.75 183.05 116.95 183.25 116.1 183.25 114.95 183.25 114.3 182.6 113.65 181.95 113.6 180.8L119.95 180.8 119.95 179.5Q119.95 177.4 118.8 176.25 117.65 175.05 115.55 175.05M116.95 177.5Q117.45 178.05 117.45 179L113.7 179Q113.75 178.05 114.25 177.5 114.7 176.95 115.6 176.95 116.45 176.95 116.95 177.5M96.45 177.7Q96.85 178.25 96.85 179.3L96.85 185.05 99.55 185.05 99.55 178.65Q99.55 176.9 98.65 175.95 97.75 175.05 96.05 175.05 95.05 175.05 94.25 175.4 93.45 175.75 93 176.5L92.85 176.5 92.5 175.2 90.45 175.2 90.45 185.05 93.15 185.05 93.15 180.45Q93.15 178.7 93.65 177.95 94.15 177.2 95.25 177.2 96.1 177.2 96.45 177.7M79.85 175.9L80.75 177.7Q82.35 177 83.55 177 85.05 177 85.05 178.5L85.05 178.95 83.35 179Q81.15 179.05 80.05 179.8 78.95 180.55 78.95 182.1 78.95 183.6 79.75 184.4 80.6 185.25 82 185.25 83.15 185.25 83.85 184.9 84.6 184.55 85.25 183.7L85.35 183.7 85.85 185.05 87.7 185.05 87.7 178.5Q87.7 176.75 86.65 175.9 85.6 175 83.65 175 81.55 175 79.85 175.9M84 180.55L85.05 180.5 85.05 181.3Q85.05 182.2 84.5 182.75 83.95 183.25 83 183.25 81.7 183.25 81.7 182.15 81.7 181.35 82.3 180.95 82.85 180.55 84 180.55M77.2 177.55L78 177.65 78.2 175.1 77.3 175.05Q76.4 175.05 75.6 175.55 74.8 176.05 74.35 176.9L74.25 176.9 73.85 175.2 71.8 175.2 71.8 185.05 74.5 185.05 74.5 180.05Q74.5 178.85 75.2 178.2 75.9 177.55 77.2 177.55M59.95 175.2L59.95 181.65Q59.95 183.35 60.85 184.3 61.7 185.25 63.45 185.25 64.45 185.25 65.25 184.85 66.05 184.5 66.45 183.8L66.6 183.8 66.95 185.05 69 185.05 69 175.2 66.35 175.2 66.35 179.85Q66.35 181.6 65.85 182.35 65.35 183.1 64.2 183.1 63.4 183.1 63 182.55 62.65 182.05 62.65 180.95L62.65 175.2 59.95 175.2M57.05 177.75L57.85 175.8Q56.2 175.05 54.4 175.05 52.55 175.05 51.55 175.75 50.5 176.45 50.5 177.8 50.5 178.55 50.75 179.05 51 179.6 51.55 180 52.05 180.4 53.2 180.9L54.45 181.45Q54.95 181.7 55.1 181.9 55.3 182.1 55.3 182.4 55.3 183.25 53.85 183.25 53.15 183.25 52.2 183.05 51.25 182.8 50.55 182.45L50.55 184.65Q51.2 184.95 51.95 185.1 52.7 185.25 53.75 185.25 55.85 185.25 56.9 184.45 57.95 183.65 57.95 182.15 57.95 181.4 57.7 180.9 57.45 180.35 56.9 179.95 56.4 179.55 55.25 179.05 53.95 178.55 53.55 178.3 53.15 178.05 53.15 177.65 53.15 177.05 54.35 177.05 55.05 177.05 55.65 177.25L57.05 177.75M39.3 175.2L39.3 185.05 42 185.05 42 180.45Q42 178.7 42.5 177.95 43 177.2 44.1 177.2 44.95 177.2 45.3 177.7 45.7 178.25 45.7 179.3L45.7 185.05 48.4 185.05 48.4 178.65Q48.4 176.9 47.5 175.95 46.6 175.05 44.9 175.05 43.9 175.05 43.1 175.4 42.3 175.75 41.85 176.5L41.7 176.5 41.35 175.2 39.3 175.2M36.3 185.05L36.3 172.2 33.55 172.2 33.55 185.05 36.3 185.05M78.5 103.65L78.5 102.5 76.25 102.5 76.25 103.65Q76.249 103.695 76.25 103.75 76.169 106.129 74.55 107.7 72.95 109.3 70.5 109.3 68.2 109.3 66.5 107.7 64.85 106 64.8 103.65L64.8 102.5 62.55 102.5 62.55 103.65Q62.65 107 64.9 109.25 67.1 111.5 70.5 111.65 73.95 111.5 76.2 109.25 78.45 107.05 78.5 103.65M92.95 68.85Q95.8 65.95 100.2 65.85 104.45 65.95 107.35 68.7 110.2 71.45 110.4 75.75L112.7 75.75 112.7 74.95Q112.65 65.05 107.9 57.1 103.15 49.05 95.2 44.4 87.1 39.7 77.4 39.6 67.65 39.7 59.55 44.4 51.6 49.15 46.85 57.1 42.15 65 42 74.95L42.05 75.45 42.05 75.75 44.3 75.75Q44.6 71.4 47.45 68.7 50.3 65.95 54.55 65.85 58.95 65.95 61.85 68.85 64.75 71.75 64.8 76.1L67.1 76.1Q67.2 72.05 69.75 69.25 72.35 66.35 76.25 65.9L76.25 75.35Q76.523 75.357 76.8 75.35 77.668 75.372 78.5 75.45L78.5 65.9Q82.4 66.35 85 69.25 87.6 72.05 87.65 76.1L89.9 76.1Q90.05 71.65 92.95 68.85M104 55.3Q108.15 60.95 109.7 67.85 107.85 65.75 105.5 64.7 103.1 63.6 100.2 63.5 96.9 63.6 94.25 65.05 91.55 66.45 89.85 69 89.8 65.8 89.25 61.85 88.75 57.9 87.6 54.05 86.1 49.7 84.15 46.7 82.1 43.7 80.5 42 87.85 42.75 93.8 46.25 99.7 49.6 104 55.3M86.95 62Q87.5 65.75 87.55 68.8 85.85 66.4 83.15 64.95 80.45 63.55 77.4 63.5 74.25 63.6 71.55 64.95 68.9 66.4 67.15 68.8 67.3 65.75 67.75 62 68.3 58 69.35 54.75 70.4 51.45 72.1 48.7 73.55 46.25 75.05 44.5 76.7 42.8 77.4 42.2 78.05 42.75 79.65 44.5 81.05 46.05 82.7 48.7 84.3 51.3 85.4 54.75 86.55 58.55 86.95 62M74.25 42Q72.55 43.7 70.6 46.7 68.65 49.7 67.15 54.05 66.05 57.9 65.5 61.85 65 65.8 64.9 69 63.2 66.5 60.45 65.05 57.85 63.6 54.55 63.5 51.75 63.6 49.25 64.7 46.75 65.85 45.1 67.85 46.6 60.95 50.8 55.3 54.95 49.7 60.95 46.25 66.9 42.75 74.25 42Z"/><path fill="#FFCB05" stroke="none" d="M144.4 46.3Q139.5 33.65 130.45 23.45 119.95 12.4 106 6.3 91.6 0 75.7 0 60.3 0 46.25 5.95 32.65 11.7 22.2 22.2 11.7 32.65 5.95 46.25 0 60.3 0 75.7 0 89.9 5.1 103 9.95 115.7 19 125.9 25.803 132.994 34 138.05 38.546 140.833 43.5 143 55.027 148.025 67.45 149.05 70.003 149.290 73.5 149.3 73.665 149.3 73.8 149.3 89.2 149.3 103.25 143.35 108.643 141.069 113.55 138.05 121.013 133.455 127.35 127.15 137.8 116.65 143.55 103.05 149.5 89 149.5 73.6 149.5 59.4 144.4 46.3M131.3 66L131.7 70.9Q131.783 71.898 131.8 72.85L131.8 73.25Q131.799 73.361 131.8 73.45L131.8 73.85Q131.8 97.8 114.9 114.75 97.95 131.65 74 131.65 73.702 131.65 73.4 131.65L61.85 130.4Q51.603 128.388 42.85 122.65L35.75 117.2 33.45 115.05Q32.823 114.450 32.2 113.8 32.091 113.677 31.95 113.55 16.2 96.961 16.2 73.85 16.2 49.95 33.15 33 50.1 16.05 74 16.05 97.95 16.05 114.9 33 128.963 47.063 131.3 66M70.6 46.7Q72.55 43.7 74.25 42 66.9 42.75 60.95 46.25 54.95 49.7 50.8 55.3 46.6 60.95 45.1 67.85 46.75 65.85 49.25 64.7 51.75 63.6 54.55 63.5 57.85 63.6 60.45 65.05 63.2 66.5 64.9 69 65 65.8 65.5 61.85 66.05 57.9 67.15 54.05 68.65 49.7 70.6 46.7M87.55 68.8Q87.5 65.75 86.95 62 86.55 58.55 85.4 54.75 84.3 51.3 82.7 48.7 81.05 46.05 79.65 44.5 78.05 42.75 77.4 42.2 76.7 42.8 75.05 44.5 73.55 46.25 72.1 48.7 70.4 51.45 69.35 54.75 68.3 58 67.75 62 67.3 65.75 67.15 68.8 68.9 66.4 71.55 64.95 74.25 63.6 77.4 63.5 80.45 63.55 83.15 64.95 85.85 66.4 87.55 68.8M109.7 67.85Q108.15 60.95 104 55.3 99.7 49.6 93.8 46.25 87.85 42.75 80.5 42 82.1 43.7 84.15 46.7 86.1 49.7 87.6 54.05 88.75 57.9 89.25 61.85 89.8 65.8 89.85 69 91.55 66.45 94.25 65.05 96.9 63.6 100.2 63.5 103.1 63.6 105.5 64.7 107.85 65.75 109.7 67.85Z"/><path fill="#D8D9DD" stroke="none" d="M31.95 113.55Q32.091 113.677 32.2 113.8 32.823 114.450 33.45 115.05 33.309 114.909 33.15 114.75 32.556 114.156 31.95 113.55Z"/><path fill="#FFF" stroke="none" d="M131.7 70.9L131.3 66Q128.963 47.063 114.9 33 97.95 16.05 74 16.05 50.1 16.05 33.15 33 16.2 49.95 16.2 73.85 16.2 96.961 31.95 113.55 32.556 114.156 33.15 114.75 33.309 114.909 33.45 115.05L35.75 117.2 42.85 122.65Q51.603 128.388 61.85 130.4L73.4 131.65Q73.702 131.65 74 131.65 97.95 131.65 114.9 114.75 131.8 97.8 131.8 73.85L131.8 73.45Q131.799 73.361 131.8 73.25L131.8 72.85Q131.783 71.898 131.7 70.9M100.2 65.85Q95.8 65.95 92.95 68.85 90.05 71.65 89.9 76.1L87.65 76.1Q87.6 72.05 85 69.25 82.4 66.35 78.5 65.9L78.5 75.45Q81.453 75.856 83.95 77.3 87.2 79.2 89.05 82.4 90.95 85.65 91 89.55 90.95 93.55 89.05 96.75 87.2 99.9 83.95 101.8 81.453 103.321 78.5 103.65 78.45 107.05 76.2 109.25 73.95 111.5 70.5 111.65 67.1 111.5 64.9 109.25 62.65 107 62.55 103.65L62.55 102.5 64.8 102.5 64.8 103.65Q64.85 106 66.5 107.7 68.2 109.3 70.5 109.3 72.95 109.3 74.55 107.7 76.169 106.129 76.25 103.75 72.621 103.612 69.6 101.8 66.35 99.9 64.55 96.75 62.6 93.55 62.6 89.55 62.6 85.65 64.55 82.4 66.4 79.2 69.6 77.3 72.622 75.579 76.25 75.35L76.25 65.9Q72.35 66.35 69.75 69.25 67.2 72.05 67.1 76.1L64.8 76.1Q64.75 71.75 61.85 68.85 58.95 65.95 54.55 65.85 50.3 65.95 47.45 68.7 44.6 71.4 44.3 75.75L42.05 75.75 42.05 75.45 42 74.95Q42.15 65 46.85 57.1 51.6 49.15 59.55 44.4 67.65 39.7 77.4 39.6 87.1 39.7 95.2 44.4 103.15 49.05 107.9 57.1 112.65 65.05 112.7 74.95L112.7 75.75 110.4 75.75Q110.2 71.45 107.35 68.7 104.45 65.95 100.2 65.85M81.75 86.6L81.85 86.5 81.85 85.65 81.75 85.6 79.4 85.6 79.35 85.35Q78.9 84.1 78.15 83.75L81.75 83.75 81.85 83.65 81.85 82.75 81.75 82.7 72.1 82.7 72 82.75 72 83.65 72.1 83.75 73.85 83.75Q74.85 83.75 75.85 84.25 76.65 84.75 76.95 85.6L72.1 85.6 72 85.65 72 86.5 72.1 86.6 76.95 86.6 76.95 87.1Q76.2 89.3 72.95 89.3L72.3 89.3 72.3 89.35 78.35 96.45 80.25 96.45 80.25 96.4 75.1 90.3 75.2 90.25Q75.9 90.25 77.55 89.35 79.45 88 79.45 86.6L81.75 86.6Z"/><path fill="#39BB9D" stroke="none" d="M89.05 82.4Q87.2 79.2 83.95 77.3 81.453 75.856 78.5 75.45 77.668 75.372 76.8 75.35 76.523 75.357 76.25 75.35 72.622 75.579 69.6 77.3 66.4 79.2 64.55 82.4 62.6 85.65 62.6 89.55 62.6 93.55 64.55 96.75 66.35 99.9 69.6 101.8 72.621 103.612 76.25 103.75 76.249 103.695 76.25 103.65L76.25 102.5 78.5 102.5 78.5 103.65Q81.453 103.321 83.95 101.8 87.2 99.9 89.05 96.75 90.95 93.55 91 89.55 90.95 85.65 89.05 82.4M81.85 86.5L81.75 86.6 79.45 86.6Q79.45 88 77.55 89.35 75.9 90.25 75.2 90.25L75.1 90.3 80.25 96.4 80.25 96.45 78.35 96.45 72.3 89.35 72.3 89.3 72.95 89.3Q76.2 89.3 76.95 87.1L76.95 86.6 72.1 86.6 72 86.5 72 85.65 72.1 85.6 76.95 85.6Q76.65 84.75 75.85 84.25 74.85 83.75 73.85 83.75L72.1 83.75 72 83.65 72 82.75 72.1 82.7 81.75 82.7 81.85 82.75 81.85 83.65 81.75 83.75 78.15 83.75Q78.9 84.1 79.35 85.35L79.4 85.6 81.75 85.6 81.85 85.65 81.85 86.5Z"/><path id="Layer3_0_1_STROKES" stroke="#404041" stroke-width="3" stroke-linejoin="round" stroke-linecap="round" fill="none" d="M76.25 75.375Q76.523 75.357 76.8 75.35 77.668 75.372 78.5 75.475 81.453 75.856 83.95 77.3 87.2 79.2 89.05 82.4 90.95 85.65 91 89.55 90.95 93.55 89.05 96.75 87.2 99.9 83.95 101.8 81.453 103.321 78.5 103.65M76.25 103.75Q72.621 103.612 69.6 101.8 66.35 99.9 64.55 96.75 62.6 93.55 62.6 89.55 62.6 85.65 64.55 82.4 66.4 79.2 69.6 77.3 72.622 75.579 76.25 75.375"/></g><animate attributeName="display" fill="freeze" repeatCount="1" dur="1.125s" keyTimes="0;.37;1" values="none;inline;inline"/></g><g display="none"><g id="C8" transform="matrix(.2 0 0 .2 598.4 391.65)"><animateTransform attributeName="transform" additive="replace" type="translate" dur="1.125s" keyTimes="0;.37;.741;1" values="613.409,406.659;613.409,406.659;613.4,406.65;613.4,406.65" keySplines=".25 .5 .5 1;.25 .5 .5 1;.1 .1 .9 .9" calcMode="spline" fill="freeze"/><animateTransform attributeName="transform" additive="sum" type="scale" dur="1.125s" keyTimes="0;.37;.741;1" values=".2,.2;.2,.2;1,1;1,1" keySplines=".25 .5 .5 1;.25 .5 .5 1;.1 .1 .9 .9" calcMode="spline" fill="freeze"/><animateTransform attributeName="transform" additive="sum" type="translate" dur="1.125s" keyTimes="0;.37;.741;1" values="-75.3,-75.3;-75.3,-75.3;-74.7,-74.65;-74.7,-74.65" keySplines=".25 .5 .5 1;.25 .5 .5 1;.1 .1 .9 .9" calcMode="spline" fill="freeze"/><path fill="#404041" stroke="none" d="M131.1 177.3Q129.45 176.55 127.65 176.55 125.8 176.55 124.8 177.25 123.75 177.95 123.75 179.3 123.75 180.05 124 180.55 124.25 181.1 124.8 181.5 125.3 181.9 126.45 182.4L127.7 182.95Q128.2 183.2 128.35 183.4 128.55 183.6 128.55 183.9 128.55 184.75 127.1 184.75 126.4 184.75 125.45 184.55 124.5 184.3 123.8 183.95L123.8 186.15Q124.45 186.45 125.2 186.6 125.95 186.75 127 186.75 129.1 186.75 130.15 185.95 131.2 185.15 131.2 183.65 131.2 182.9 130.95 182.4 130.7 181.85 130.15 181.45 129.65 181.05 128.5 180.55 127.2 180.05 126.8 179.8 126.4 179.55 126.4 179.15 126.4 178.55 127.6 178.55 128.3 178.55 128.9 178.75L130.3 179.25 131.1 177.3M108.2 174.2Q108.2 175.5 109.65 175.5 110.4 175.5 110.75 175.15 111.1 174.8 111.1 174.2 111.1 172.85 109.65 172.85 108.2 172.85 108.2 174.2M111 176.7L108.3 176.7 108.3 186.55 111 186.55 111 176.7M121.05 177.75Q119.9 176.55 117.8 176.55 115.65 176.55 114.4 177.9 113.15 179.25 113.15 181.7 113.15 184.1 114.5 185.4 115.85 186.75 118.2 186.75 119.35 186.75 120.15 186.55 120.95 186.4 121.65 186.05L121.65 183.95Q120.8 184.35 120 184.55 119.2 184.75 118.35 184.75 117.2 184.75 116.55 184.1 115.9 183.45 115.85 182.3L122.2 182.3 122.2 181Q122.2 178.9 121.05 177.75M116.5 179Q116.95 178.45 117.85 178.45 118.7 178.45 119.2 179 119.7 179.55 119.7 180.5L115.95 180.5Q116 179.55 116.5 179M100.8 178.75L100.8 183.45Q100.8 185.1 101.55 185.9 102.25 186.75 103.85 186.75 105.35 186.75 106.35 186.3L106.35 184.3Q105.35 184.6 104.65 184.6 104.1 184.6 103.8 184.3 103.5 184.05 103.5 183.45L103.5 178.75 106.25 178.75 106.25 176.7 103.5 176.7 103.5 174.65 101.75 174.65 101 176.7 99.5 177.6 99.5 178.75 100.8 178.75M97.75 176.7L95.05 176.7 95.05 186.55 97.75 186.55 97.75 176.7M94.95 174.2Q94.95 175.5 96.4 175.5 97.15 175.5 97.5 175.15 97.85 174.8 97.85 174.2 97.85 172.85 96.4 172.85 94.95 172.85 94.95 174.2M92.3 172.85L89.6 172.85 89.6 176Q89.6 176.9 89.8 178L89.7 178Q88.75 176.55 86.9 176.55 85.1 176.55 84.1 177.9 83.1 179.25 83.1 181.65 83.1 184.05 84.1 185.4 85.1 186.75 86.8 186.75 88.7 186.75 89.6 185.3L89.7 185.3 90.25 186.55 92.3 186.55 92.3 172.85M87.7 178.7Q88.8 178.7 89.3 179.4 89.8 180.1 89.8 181.65L89.8 181.95Q89.75 183.4 89.25 184 88.8 184.6 87.75 184.6 86.85 184.6 86.35 183.85 85.8 183.15 85.8 181.7 85.8 180.25 86.35 179.5 86.8 178.7 87.7 178.7M79.3 177.15Q78.2 176.55 76.8 176.55 74.5 176.55 73.25 177.9 72 179.2 72 181.6 72 183.15 72.6 184.35 73.15 185.5 74.25 186.1 75.35 186.75 76.75 186.75 79 186.75 80.25 185.35 81.55 184 81.55 181.6 81.55 180.05 80.95 178.9 80.4 177.75 79.3 177.15M75.25 183.85Q74.75 183.1 74.75 181.6 74.75 180.15 75.2 179.45 75.7 178.7 76.75 178.7 77.85 178.7 78.3 179.45 78.8 180.15 78.8 181.6 78.8 183.1 78.35 183.85 77.85 184.55 76.8 184.55 75.7 184.55 75.25 183.85M60.35 176.55Q59.4 176.55 58.65 176.95 57.9 177.3 57.5 178L57.35 178 57 176.7 54.95 176.7 54.95 186.55 57.65 186.55 57.65 181.95Q57.65 180.2 58.1 179.45 58.55 178.7 59.6 178.7 60.35 178.7 60.7 179.2 61.05 179.75 61.05 180.8L61.05 186.55 63.75 186.55 63.75 181.6Q63.75 180.1 64.25 179.4 64.75 178.7 65.7 178.7 66.5 178.7 66.85 179.2 67.2 179.75 67.2 180.8L67.2 186.55 69.9 186.55 69.9 180.15Q69.9 178.25 69.05 177.4 68.15 176.55 66.5 176.55 65.55 176.55 64.75 176.9 64 177.3 63.6 178L63.35 178Q62.6 176.55 60.35 176.55M32.9 177.15Q31.8 176.55 30.4 176.55 28.1 176.55 26.85 177.9 25.6 179.2 25.6 181.6 25.6 183.15 26.2 184.35 26.75 185.5 27.85 186.1 28.95 186.75 30.35 186.75 32.6 186.75 33.85 185.35 35.15 184 35.15 181.6 35.15 180.05 34.55 178.9 34 177.75 32.9 177.15M31.95 183.85Q31.45 184.55 30.4 184.55 29.3 184.55 28.85 183.85 28.35 183.1 28.35 181.6 28.35 180.15 28.8 179.45 29.3 178.7 30.35 178.7 31.45 178.7 31.9 179.45 32.4 180.15 32.4 181.6 32.4 183.1 31.95 183.85M39.35 176.7L37.3 176.7 37.3 186.55 40 186.55 40 181.95Q40 180.2 40.45 179.45 40.9 178.7 41.95 178.7 42.7 178.7 43.05 179.2 43.4 179.75 43.4 180.8L43.4 186.55 46.1 186.55 46.1 181.6Q46.1 180.1 46.6 179.4 47.1 178.7 48.05 178.7 48.85 178.7 49.2 179.2 49.55 179.75 49.55 180.8L49.55 186.55 52.25 186.55 52.25 180.15Q52.25 178.25 51.4 177.4 50.5 176.55 48.85 176.55 47.9 176.55 47.1 176.9 46.35 177.3 45.95 178L45.7 178Q44.95 176.55 42.7 176.55 41.75 176.55 41 176.95 40.25 177.3 39.85 178L39.7 178 39.35 176.7M17.2 180.15Q17.2 178.1 18.05 176.95 18.9 175.8 20.45 175.8 21.15 175.8 21.85 176.05L23.3 176.65 24.2 174.4Q22.3 173.5 20.45 173.5 18.6 173.5 17.25 174.3 15.85 175.1 15.15 176.65 14.4 178.15 14.4 180.15 14.4 183.3 15.9 185.05 17.35 186.75 20.15 186.75 22.1 186.75 23.7 186.05L23.7 183.8Q21.8 184.45 20.45 184.45 17.2 184.45 17.2 180.15M96.95 71.15L84.3 71.15 81.9 79.3 77.65 79.3 77.65 75.1Q78.95 74.9 79.95 73.9 81.2 72.6 81.2 70.75 81.2 69.05 79.95 67.65 78.95 66.75 77.65 66.45L77.65 53.1Q79.5 52.65 80.5 51.2 81.45 49.65 81.15 47.9 80.75 46.3 79.6 45.35 78.35 44.35 76.8 44.35L39.8 44.35Q38 44.35 36.65 45.6 35.45 46.8 35.35 48.75 35.45 50.4 36.35 51.55 37.4 52.75 38.9 53.1L38.9 66.45Q37.05 66.9 36.1 68.35 35.15 69.75 35.45 71.65 35.75 73 36.65 73.9 37.55 74.8 38.9 75.1L38.9 88.5Q37.05 88.95 36.1 90.4 35.15 91.8 35.45 93.7 35.85 95.3 37 96.25 38.25 97.25 39.8 97.25L117 97.25 114.1 87.45 107.55 87.45 105.1 79.3 99.4 79.3 96.95 71.15M85.55 72.8L95.75 72.8 97.7 79.3 83.6 79.3 85.55 72.8M90.65 85.4L89.25 80.95 91.95 80.95 90.65 85.4M83.3 93.6L81.95 89.1 84.65 89.1 83.3 93.6M84.4 95.6L86.35 89.1 96.55 89.1 98.5 95.6 84.4 95.6M100.95 89.1L99.6 93.6 98.25 89.1 100.95 89.1M91.75 87.45L93.7 80.95 103.9 80.95 105.85 87.45 91.75 87.45M87.6 80.95L89.55 87.45 75.4 87.45 77.4 80.95 87.6 80.95M102.65 89.1L112.85 89.1 114.8 95.6 100.7 95.6 102.65 89.1M76.8 46.1Q77.85 46.1 78.65 46.9 79.45 47.6 79.45 48.75 79.45 49.8 78.65 50.6 77.85 51.4 76.8 51.4L39.8 51.4Q38.7 51.4 37.9 50.6 37.15 49.85 37.15 48.75 37.15 47.6 37.9 46.9 38.7 46.1 39.8 46.1L76.8 46.1M39.8 73.45Q38.6 73.35 37.9 72.65 37.15 71.9 37.15 70.75 37.15 69.75 37.9 68.9 38.65 68.15 39.75 68.15L50.7 68.15 49.35 71 49.35 71.1Q49.15 71.5 48.95 72.2L48.85 72.5 48.65 73.45 39.8 73.45M37.9 90.95Q38.65 90.2 39.8 90.2L68.05 90.2 66.45 95.5 39.8 95.5Q38.6 95.4 37.9 94.7 37.15 93.95 37.15 92.85 37.15 91.7 37.9 90.95M61.3 61Q61.25 60.8 61.05 60.7L60.85 60.35 60.25 59.55 60.1 59.4 59.35 58.3 59 57.9Q58.7 57.6 58.35 57.6 58.05 57.55 57.7 57.8L57.25 58.3 51.7 66.4 40.65 66.4 40.65 53.15 75.9 53.15 75.9 66.4 64.85 66.4 64.7 66.1 62.8 63.2Q62.05 62.1 61.3 61M65.95 68.3L65.85 68.15 76.8 68.15Q77.9 68.15 78.65 68.9 79.45 69.8 79.45 70.75 79.45 71.85 78.65 72.65 78 73.35 76.8 73.45L67.9 73.45 67.9 73.25 67.7 72.5 67.65 72.2 65.95 68.3M63.6 67.7Q65.1 70.35 65.75 72.05 66.25 73.55 66.25 74.35 66.1 77.75 63.9 79.95 61.7 82.2 58.3 82.25 54.85 82.15 52.7 79.95 50.45 77.7 50.35 74.35L50.45 73.4Q51.3 70.35 52.95 67.7 55.6 63.35 58.3 59.9L58.8 60.5Q61.35 63.95 63.6 67.7M53 82.45L54.6 83.3 56.4 83.85 57 83.9 57.35 84 59.25 84 59.55 83.9 60.2 83.85 62.35 83.15 63.55 82.45 64.3 81.9Q64.5 81.7 64.65 81.65L65.9 80.3 66.7 79.15 67.45 77.5 67.95 75.25 67.95 75.2 75.9 75.2 75.9 80.15 73.75 87.45 68.85 87.45 68.55 88.45 40.65 88.45 40.65 75.2 48.65 75.2 48.65 75.25 48.85 76.6 49.45 78.35 50.15 79.6 50.95 80.65 51.95 81.65 53 82.45M68.1 95.6L70.05 89.1 80.25 89.1 82.2 95.6 68.1 95.6M61.6 68.15Q61.2 68.05 60.9 68.2 60.65 68.35 60.45 68.7 60.35 69.15 60.5 69.4L60.55 69.45Q62.15 72.35 62.4 73.25 62.8 74.35 62.7 74.35 62.6 76.25 61.4 77.45 60.05 78.7 58.3 78.7 57.5 78.85 57.4 79.6 57.5 80.45 58.3 80.5 60.95 80.45 62.65 78.7 64.4 76.9 64.45 74.35 64.55 74 64.1 72.7 63.55 71.2 62.1 68.6 61.95 68.35 61.6 68.15Z"/><path fill="#FFCB05" stroke="none" d="M144.45 46.3Q139.55 33.65 130.5 23.45 119.95 12.4 106.05 6.3 91.6 0 75.75 0 60.35 0 46.3 5.95 32.7 11.7 22.25 22.2 11.75 32.65 6 46.25 .05 60.3 .05 75.7 .05 89.9 5.1 103 10 115.7 19.05 125.9 29.6 136.95 43.5 143 55.05 148.05 67.5 149.05 70.15 149.3 73.8 149.3 89.2 149.3 103.25 143.35 116.85 137.6 127.35 127.15 137.8 116.65 143.55 103.05 149.5 89 149.5 73.6L149.5 71.4Q149.45 71.2 149.5 71.05L149.45 70.05Q148.85 57.75 144.45 46.3M114.9 33Q115.95 34.05 116.9 35.1L117.15 35.35Q117.25 35.45 117.35 35.55 117.65 35.9 117.95 36.25L124 44.6Q129.05 52.95 130.85 62.65L131.85 73.3Q131.85 73.35 131.85 73.45 131.85 73.65 131.85 73.85 131.85 97.8 114.9 114.75 98 131.65 74.05 131.65 73.75 131.65 73.45 131.65L61.95 130.45Q51.8 128.4 43.15 122.8L36.2 117.6 33.55 115.15Q32.85 114.5 32.2 113.8 32.1 113.7 32 113.55 16.2 96.95 16.2 73.85 16.2 49.9 33.15 33 50.1 16.05 74.05 16.05 98 16.05 114.9 33M70.05 89.1L68.1 95.6 82.2 95.6 80.25 89.1 70.05 89.1M65.75 72.05Q65.1 70.35 63.6 67.7 61.35 63.95 58.8 60.5L58.3 59.9Q55.6 63.35 52.95 67.7 51.3 70.35 50.45 73.4L50.35 74.35Q50.45 77.7 52.7 79.95 54.85 82.15 58.3 82.25 61.7 82.2 63.9 79.95 66.1 77.75 66.25 74.35 66.25 73.55 65.75 72.05M60.9 68.2Q61.2 68.05 61.6 68.15 61.95 68.35 62.1 68.6 63.55 71.2 64.1 72.7 64.55 74 64.45 74.35 64.4 76.9 62.65 78.7 60.95 80.45 58.3 80.5 57.5 80.45 57.4 79.6 57.5 78.85 58.3 78.7 60.05 78.7 61.4 77.45 62.6 76.25 62.7 74.35 62.8 74.35 62.4 73.25 62.15 72.35 60.55 69.45L60.5 69.4Q60.35 69.15 60.45 68.7 60.65 68.35 60.9 68.2M112.85 89.1L102.65 89.1 100.7 95.6 114.8 95.6 112.85 89.1M89.55 87.45L87.6 80.95 77.4 80.95 75.4 87.45 89.55 87.45M93.7 80.95L91.75 87.45 105.85 87.45 103.9 80.95 93.7 80.95M86.35 89.1L84.4 95.6 98.5 95.6 96.55 89.1 86.35 89.1M95.75 72.8L85.55 72.8 83.6 79.3 97.7 79.3 95.75 72.8Z"/><path fill="#D8D9DD" stroke="none" d="M32 113.55Q32.1 113.7 32.2 113.8 32.85 114.5 33.55 115.15 33.35 114.95 33.15 114.75 32.55 114.15 32 113.55Z"/><path fill="#FFF" stroke="none" d="M116.9 35.1Q115.95 34.05 114.9 33 98 16.05 74.05 16.05 50.1 16.05 33.15 33 16.2 49.9 16.2 73.85 16.2 96.95 32 113.55 32.55 114.15 33.15 114.75 33.35 114.95 33.55 115.15L36.2 117.6 43.15 122.8Q51.8 128.4 61.95 130.45L73.45 131.65Q73.75 131.65 74.05 131.65 98 131.65 114.9 114.75 131.85 97.8 131.85 73.85 131.85 73.65 131.85 73.45 131.85 73.35 131.85 73.3L130.85 62.65Q129.05 52.95 124 44.6L117.95 36.25Q117.65 35.9 117.35 35.55 117.25 35.45 117.15 35.35L116.9 35.1M84.3 71.15L96.95 71.15 99.4 79.3 105.1 79.3 107.55 87.45 114.1 87.45 117 97.25 39.8 97.25Q38.25 97.25 37 96.25 35.85 95.3 35.45 93.7 35.15 91.8 36.1 90.4 37.05 88.95 38.9 88.5L38.9 75.1Q37.55 74.8 36.65 73.9 35.75 73 35.45 71.65 35.15 69.75 36.1 68.35 37.05 66.9 38.9 66.45L38.9 53.1Q37.4 52.75 36.35 51.55 35.45 50.4 35.35 48.75 35.45 46.8 36.65 45.6 38 44.35 39.8 44.35L76.8 44.35Q78.35 44.35 79.6 45.35 80.75 46.3 81.15 47.9 81.45 49.65 80.5 51.2 79.5 52.65 77.65 53.1L77.65 66.45Q78.95 66.75 79.95 67.65 81.2 69.05 81.2 70.75 81.2 72.6 79.95 73.9 78.95 74.9 77.65 75.1L77.65 79.3 81.9 79.3 84.3 71.15M54.6 83.3L53 82.45 54.25 83.15 54.6 83.3M65.85 68.15L65.95 68.3 67.65 72.2 67.7 72.5 67.9 73.25 67.9 73.45 76.8 73.45Q78 73.35 78.65 72.65 79.45 71.85 79.45 70.75 79.45 69.8 78.65 68.9 77.9 68.15 76.8 68.15L65.85 68.15M39.8 90.2Q38.65 90.2 37.9 90.95 37.15 91.7 37.15 92.85 37.15 93.95 37.9 94.7 38.6 95.4 39.8 95.5L66.45 95.5 68.05 90.2 39.8 90.2M37.9 72.65Q38.6 73.35 39.8 73.45L48.65 73.45 48.85 72.5 48.95 72.2Q49.15 71.5 49.35 71.1L49.35 71 50.7 68.15 39.75 68.15Q38.65 68.15 37.9 68.9 37.15 69.75 37.15 70.75 37.15 71.9 37.9 72.65M78.65 46.9Q77.85 46.1 76.8 46.1L39.8 46.1Q38.7 46.1 37.9 46.9 37.15 47.6 37.15 48.75 37.15 49.85 37.9 50.6 38.7 51.4 39.8 51.4L76.8 51.4Q77.85 51.4 78.65 50.6 79.45 49.8 79.45 48.75 79.45 47.6 78.65 46.9M99.6 93.6L100.95 89.1 98.25 89.1 99.6 93.6M81.95 89.1L83.3 93.6 84.65 89.1 81.95 89.1M89.25 80.95L90.65 85.4 91.95 80.95 89.25 80.95Z"/><path fill="#39BB9D" stroke="none" d="M51.95 81.65L50.95 80.65 50.15 79.6 49.45 78.35 48.85 76.6 48.65 75.25 48.65 75.2 40.65 75.2 40.65 88.45 68.55 88.45 68.85 87.45 73.75 87.45 75.9 80.15 75.9 75.2 67.95 75.2 67.95 75.25 67.45 77.5 66.7 79.15 65.9 80.3 64.65 81.65Q64.5 81.7 64.3 81.9L63.55 82.45 62.35 83.15 60.2 83.85 59.55 83.9 59.25 84 57.35 84 57 83.9 56.4 83.85 54.6 83.3 54.25 83.15 53 82.45 51.95 81.65M61.05 60.7Q61.25 60.8 61.3 61 62.05 62.1 62.8 63.2L64.7 66.1 64.85 66.4 75.9 66.4 75.9 53.15 40.65 53.15 40.65 66.4 51.7 66.4 57.25 58.3 57.7 57.8Q58.05 57.55 58.35 57.6 58.7 57.6 59 57.9L59.35 58.3 60.1 59.4 60.25 59.55 60.85 60.35 61.05 60.7Z"/></g><animate attributeName="display" fill="freeze" repeatCount="1" dur="1.125s" keyTimes="0;.37;1" values="none;inline;inline"/></g><g display="none"><g id="C07" transform="matrix(.2 0 0 .2 864.15 391.65)"><animateTransform attributeName="transform" additive="replace" type="translate" dur="1.125s" keyTimes="0;.37;.741;1" values="879.159,406.659;879.159,406.659;879.15,406.65;879.15,406.65" keySplines=".25 .5 .5 1;.25 .5 .5 1;.1 .1 .9 .9" calcMode="spline" fill="freeze"/><animateTransform attributeName="transform" additive="sum" type="scale" dur="1.125s" keyTimes="0;.37;.741;1" values=".2,.2;.2,.2;1,1;1,1" keySplines=".25 .5 .5 1;.25 .5 .5 1;.1 .1 .9 .9" calcMode="spline" fill="freeze"/><animateTransform attributeName="transform" additive="sum" type="translate" dur="1.125s" keyTimes="0;.37;.741;1" values="-75.3,-75.3;-75.3,-75.3;-74.75,-74.65;-74.75,-74.65" keySplines=".25 .5 .5 1;.25 .5 .5 1;.1 .1 .9 .9" calcMode="spline" fill="freeze"/><path fill="#404041" stroke="none" d="M104.25 177Q105 177 105.35 176.65 105.7 176.3 105.7 175.7 105.7 174.35 104.25 174.35 102.8 174.35 102.8 175.7 102.8 177 104.25 177M105.6 178.2L102.9 178.2 102.9 188.05 105.6 188.05 105.6 178.2M118.6 182.05Q118.85 182.6 119.4 183 119.9 183.4 121.05 183.9L122.3 184.45Q122.8 184.7 122.95 184.9 123.15 185.1 123.15 185.4 123.15 186.25 121.7 186.25 121 186.25 120.05 186.05 119.1 185.8 118.4 185.45L118.4 187.65Q119.05 187.95 119.8 188.1 120.55 188.25 121.6 188.25 123.7 188.25 124.75 187.45 125.8 186.65 125.8 185.15 125.8 184.4 125.55 183.9 125.3 183.35 124.75 182.95 124.25 182.55 123.1 182.05 121.8 181.55 121.4 181.3 121 181.05 121 180.65 121 180.05 122.2 180.05 122.9 180.05 123.5 180.25L124.9 180.75 125.7 178.8Q124.05 178.05 122.25 178.05 120.4 178.05 119.4 178.75 118.35 179.45 118.35 180.8 118.35 181.55 118.6 182.05M115.65 179.25Q114.5 178.05 112.4 178.05 110.25 178.05 109 179.4 107.75 180.75 107.75 183.2 107.75 185.6 109.1 186.9 110.45 188.25 112.8 188.25 113.95 188.25 114.75 188.05 115.55 187.9 116.25 187.55L116.25 185.45Q115.4 185.85 114.6 186.05 113.8 186.25 112.95 186.25 111.8 186.25 111.15 185.6 110.5 184.95 110.45 183.8L116.8 183.8 116.8 182.5Q116.8 180.4 115.65 179.25M112.45 179.95Q113.3 179.95 113.8 180.5 114.3 181.05 114.3 182L110.55 182Q110.6 181.05 111.1 180.5 111.55 179.95 112.45 179.95M90.05 178.95Q89.15 178.05 87.45 178.05 86.45 178.05 85.65 178.4 84.85 178.75 84.4 179.5L84.25 179.5 83.9 178.2 81.85 178.2 81.85 188.05 84.55 188.05 84.55 183.45Q84.55 181.7 85.05 180.95 85.55 180.2 86.65 180.2 87.5 180.2 87.85 180.7 88.25 181.25 88.25 182.3L88.25 188.05 90.95 188.05 90.95 181.65Q90.95 179.9 90.05 178.95M95.8 183.15Q95.8 180.2 97.9 180.2 98.45 180.2 98.95 180.35L100.15 180.8 100.95 178.7Q99.6 178.05 97.9 178.05 95.55 178.05 94.3 179.35 93.05 180.7 93.05 183.2 93.05 188.25 97.65 188.25 98.65 188.25 99.35 188.05 100 187.9 100.65 187.5L100.65 185.2Q100 185.65 99.3 185.85 98.65 186.05 97.9 186.05 95.8 186.05 95.8 183.15M68.95 178.05Q68.05 178.05 67.25 178.55 66.45 179.05 66 179.9L65.9 179.9 65.5 178.2 63.45 178.2 63.45 188.05 66.15 188.05 66.15 183.05Q66.15 181.85 66.85 181.2 67.55 180.55 68.85 180.55L69.65 180.65 69.85 178.1 68.95 178.05M75.3 178.05Q73.15 178.05 71.9 179.4 70.65 180.75 70.65 183.2 70.65 185.6 72 186.9 73.35 188.25 75.7 188.25 76.85 188.25 77.65 188.05 78.45 187.9 79.15 187.55L79.15 185.45Q78.3 185.85 77.5 186.05 76.7 186.25 75.85 186.25 74.7 186.25 74.05 185.6 73.4 184.95 73.35 183.8L79.7 183.8 79.7 182.5Q79.7 180.4 78.55 179.25 77.4 178.05 75.3 178.05M73.45 182Q73.5 181.05 74 180.5 74.45 179.95 75.35 179.95 76.2 179.95 76.7 180.5 77.2 181.05 77.2 182L73.45 182M49.85 178.2L49.85 182.85Q49.85 184.6 49.35 185.35 48.85 186.1 47.7 186.1 46.9 186.1 46.5 185.55 46.15 185.05 46.15 183.95L46.15 178.2 43.45 178.2 43.45 184.65Q43.45 186.35 44.35 187.3 45.2 188.25 46.95 188.25 47.95 188.25 48.75 187.85 49.55 187.5 49.95 186.8L50.1 186.8 50.45 188.05 52.5 188.05 52.5 178.2 49.85 178.2M59.1 178.55Q58.3 179.05 57.85 179.9L57.75 179.9 57.35 178.2 55.3 178.2 55.3 188.05 58 188.05 58 183.05Q58 181.85 58.7 181.2 59.4 180.55 60.7 180.55L61.5 180.65 61.7 178.1 60.8 178.05Q59.9 178.05 59.1 178.55M37.75 175Q35.9 175 34.55 175.8 33.15 176.6 32.45 178.15 31.7 179.65 31.7 181.65 31.7 184.8 33.2 186.55 34.65 188.25 37.45 188.25 39.4 188.25 41 187.55L41 185.3Q39.1 185.95 37.75 185.95 34.5 185.95 34.5 181.65 34.5 179.6 35.35 178.45 36.2 177.3 37.75 177.3 38.45 177.3 39.15 177.55L40.6 178.15 41.5 175.9Q39.6 175 37.75 175M47.5 74.35Q48.5 79.2 50.95 83.3 53.5 87.4 57.3 90.55L58.75 88.7Q55.25 85.8 52.95 82.1 50.65 78.3 49.75 73.9L47.5 74.35M92.15 90.55Q96.05 87.4 98.5 83.3 101 79.25 102 74.35L99.75 73.9Q98.9 78.1 96.55 82.1 94.25 85.85 90.7 88.7L92.15 90.55M84.75 45.35L85.65 43.25Q80.35 41.05 74.75 41.05 69.15 41.05 63.85 43.25L64.75 45.35Q69.5 43.35 74.75 43.35 80 43.35 84.75 45.35Z"/><path fill="#FFCB05" stroke="none" d="M144.4 46.3Q139.5 33.65 130.45 23.45 119.95 12.4 106 6.3 91.6 0 75.7 0 60.3 0 46.25 5.95 32.65 11.7 22.2 22.2 11.7 32.65 5.95 46.25 0 60.3 0 75.7 0 89.9 5.1 103 9.95 115.7 19 125.9 29.55 136.9 43.5 143 55.027 148.025 67.45 149.05 70.003 149.290 73.5 149.3 73.665 149.3 73.8 149.3 89.2 149.3 103.25 143.35 116.85 137.6 127.35 127.15 137.8 116.65 143.55 103.05 149.5 89 149.5 73.6 149.5 59.4 144.4 46.3M131.3 66L131.7 70.9Q131.783 71.898 131.8 72.85L131.8 73.25Q131.799 73.361 131.8 73.45L131.8 73.85Q131.8 97.8 114.9 114.75 97.95 131.65 74 131.65 73.702 131.65 73.4 131.65L61.85 130.4Q51.603 128.388 42.85 122.65L35.75 117.2 33.45 115.05Q32.823 114.450 32.2 113.8 32.091 113.677 31.95 113.55 16.2 96.961 16.2 73.85 16.2 49.95 33.15 33 50.1 16.05 74 16.05 97.95 16.05 114.9 33 128.963 47.063 131.3 66M71.45 72.9Q72.7 74.05 74.35 74.05 75.95 74.05 77.2 72.9 78.4 71.7 78.4 70 78.4 68.35 77.2 67.15 76 65.95 74.35 65.95 72.65 65.95 71.45 67.15 70.3 68.4 70.3 70 70.3 71.65 71.45 72.9Z"/><path fill="#D8D9DD" stroke="none" d="M31.95 113.55Q32.091 113.677 32.2 113.8 32.823 114.450 33.45 115.05 33.309 114.909 33.15 114.75 32.556 114.156 31.95 113.55Z"/><path fill="#FFF" stroke="none" d="M131.7 70.9L131.3 66Q128.963 47.063 114.9 33 97.95 16.05 74 16.05 50.1 16.05 33.15 33 16.2 49.95 16.2 73.85 16.2 96.961 31.95 113.55 32.556 114.156 33.15 114.75 33.309 114.909 33.45 115.05L35.75 117.2 42.85 122.65Q51.603 128.388 61.85 130.4L73.4 131.65Q73.702 131.65 74 131.65 97.95 131.65 114.9 114.75 131.8 97.8 131.8 73.85L131.8 73.45Q131.799 73.361 131.8 73.25L131.8 72.85Q131.783 71.898 131.7 70.9M89.75 45.25Q92.8 43.45 96.75 43.35 100.75 43.45 103.8 45.25 106.95 47.1 108.8 50.25 110.65 53.45 110.7 57.3 110.65 61.1 108.8 64.3 106.85 67.5 103.8 69.25 100.6 71.15 96.75 71.15 92.95 71.15 89.75 69.25 86.7 67.5 84.75 64.3 82.95 61.25 82.85 57.3 82.95 53.3 84.75 50.25 86.6 47.1 89.75 45.25M85.65 43.25L84.75 45.35Q80 43.35 74.75 43.35 69.5 43.35 64.75 45.35L63.85 43.25Q69.15 41.05 74.75 41.05 80.35 41.05 85.65 43.25M81.75 82.35Q84.9 84.2 86.75 87.35 88.55 90.4 88.65 94.35 88.55 98.35 86.75 101.4 84.9 104.55 81.75 106.4 78.7 108.25 74.75 108.3 70.8 108.25 67.75 106.4 64.55 104.5 62.7 101.4 60.9 98.2 60.8 94.35 60.9 90.55 62.7 87.35 64.55 84.25 67.75 82.35 70.8 80.55 74.75 80.45 78.7 80.55 81.75 82.35M98.5 83.3Q96.05 87.4 92.15 90.55L90.7 88.7Q94.25 85.85 96.55 82.1 98.9 78.1 99.75 73.9L102 74.35Q101 79.25 98.5 83.3M52.7 43.35Q56.7 43.45 59.75 45.25 62.9 47.1 64.75 50.25 66.6 53.45 66.65 57.3 66.6 61.1 64.75 64.3 62.8 67.5 59.75 69.25 56.55 71.15 52.7 71.15 48.9 71.15 45.7 69.25 42.65 67.5 40.7 64.3 38.9 61.25 38.8 57.3 38.9 53.3 40.7 50.25 42.55 47.1 45.7 45.25 48.75 43.45 52.7 43.35M74.35 74.05Q72.7 74.05 71.45 72.9 70.3 71.65 70.3 70 70.3 68.4 71.45 67.15 72.65 65.95 74.35 65.95 76 65.95 77.2 67.15 78.4 68.35 78.4 70 78.4 71.7 77.2 72.9 75.95 74.05 74.35 74.05M50.95 83.3Q48.5 79.2 47.5 74.35L49.75 73.9Q50.65 78.3 52.95 82.1 55.25 85.8 58.75 88.7L57.3 90.55Q53.5 87.4 50.95 83.3M58.75 51.85Q57.7 50.55 56 49.85 54.45 49.1 52.7 49.1 50.3 49.2 48.35 50.45 46.5 51.6 45.4 53.8L43.45 53.8 43.45 56.1 44.7 56.1 44.6 57.25 44.7 58.4 43.45 58.4 43.45 60.75 45.4 60.75Q46.45 62.85 48.35 64.1 50.4 65.35 52.7 65.35 54.35 65.35 56 64.65 57.65 63.95 58.75 62.7L57 61.1Q55.35 62.95 52.7 63.05 49.8 62.9 48.1 60.75L53.9 60.75 53.9 58.4 47.05 58.4Q46.95 58 46.95 57.25 46.95 56.45 47.05 56.1L53.9 56.1 53.9 53.8 48.1 53.8Q49.85 51.5 52.7 51.45 55.25 51.55 57 53.35L58.75 51.85M68.55 91.75L68.65 91.85 74.65 91.85 74.65 92.45Q73.85 95.2 69.7 95.2L68.95 95.2 68.95 95.3 76.4 104.15 78.85 104.15 78.85 104.1 72.35 96.45 72.5 96.4Q73.4 96.4 75.45 95.3 77.8 93.65 77.8 91.85L80.65 91.85 80.8 91.75 80.8 90.7 80.65 90.65 77.75 90.65 77.65 90.35Q77.1 88.8 76.15 88.3L80.65 88.3 80.8 88.2 80.8 87.05 80.65 87 68.65 87 68.55 87.05 68.55 88.2 68.65 88.3 70.8 88.3Q72.05 88.3 73.35 88.95 74.35 89.65 74.65 90.65L68.65 90.65 68.55 90.7 68.55 91.75M97.95 49.1L97.95 46.8 95.6 46.8 95.6 49.1Q93.7 49.15 92.3 50.5 91 51.8 91 53.8 91 55.75 92.3 57.05 93.7 58.4 95.6 58.45L97.95 58.45Q98.95 58.45 99.6 59.1 100.25 59.75 100.25 60.75 100.25 61.65 99.6 62.4 98.95 62.95 97.95 63.05L95.6 63.05Q94.6 62.95 93.95 62.4 93.3 61.65 93.3 60.75L91 60.75Q91 62.7 92.3 64 93.65 65.35 95.6 65.35L95.6 67.7 97.95 67.7 97.95 65.35Q99.95 65.35 101.2 64 102.55 62.75 102.55 60.75 102.55 58.8 101.2 57.45 99.95 56.2 97.95 56.1L95.6 56.1Q94.55 56 93.95 55.4 93.3 54.65 93.3 53.8 93.3 52.8 93.95 52.15 94.65 51.45 95.6 51.45L97.95 51.45Q98.9 51.45 99.6 52.15 100.25 52.8 100.25 53.8L102.55 53.8Q102.55 51.8 101.2 50.5 99.9 49.2 97.95 49.1Z"/><path fill="#39BB9D" stroke="none" d="M59.75 45.25Q56.7 43.45 52.7 43.35 48.75 43.45 45.7 45.25 42.55 47.1 40.7 50.25 38.9 53.3 38.8 57.3 38.9 61.25 40.7 64.3 42.65 67.5 45.7 69.25 48.9 71.15 52.7 71.15 56.55 71.15 59.75 69.25 62.8 67.5 64.75 64.3 66.6 61.1 66.65 57.3 66.6 53.45 64.75 50.25 62.9 47.1 59.75 45.25M56 49.85Q57.7 50.55 58.75 51.85L57 53.35Q55.25 51.55 52.7 51.45 49.85 51.5 48.1 53.8L53.9 53.8 53.9 56.1 47.05 56.1Q46.95 56.45 46.95 57.25 46.95 58 47.05 58.4L53.9 58.4 53.9 60.75 48.1 60.75Q49.8 62.9 52.7 63.05 55.35 62.95 57 61.1L58.75 62.7Q57.65 63.95 56 64.65 54.35 65.35 52.7 65.35 50.4 65.35 48.35 64.1 46.45 62.85 45.4 60.75L43.45 60.75 43.45 58.4 44.7 58.4 44.6 57.25 44.7 56.1 43.45 56.1 43.45 53.8 45.4 53.8Q46.5 51.6 48.35 50.45 50.3 49.2 52.7 49.1 54.45 49.1 56 49.85M86.75 87.35Q84.9 84.2 81.75 82.35 78.7 80.55 74.75 80.45 70.8 80.55 67.75 82.35 64.55 84.25 62.7 87.35 60.9 90.55 60.8 94.35 60.9 98.2 62.7 101.4 64.55 104.5 67.75 106.4 70.8 108.25 74.75 108.3 78.7 108.25 81.75 106.4 84.9 104.55 86.75 101.4 88.55 98.35 88.65 94.35 88.55 90.4 86.75 87.35M68.65 91.85L68.55 91.75 68.55 90.7 68.65 90.65 74.65 90.65Q74.35 89.65 73.35 88.95 72.05 88.3 70.8 88.3L68.65 88.3 68.55 88.2 68.55 87.05 68.65 87 80.65 87 80.8 87.05 80.8 88.2 80.65 88.3 76.15 88.3Q77.1 88.8 77.65 90.35L77.75 90.65 80.65 90.65 80.8 90.7 80.8 91.75 80.65 91.85 77.8 91.85Q77.8 93.65 75.45 95.3 73.4 96.4 72.5 96.4L72.35 96.45 78.85 104.1 78.85 104.15 76.4 104.15 68.95 95.3 68.95 95.2 69.7 95.2Q73.85 95.2 74.65 92.45L74.65 91.85 68.65 91.85M96.75 43.35Q92.8 43.45 89.75 45.25 86.6 47.1 84.75 50.25 82.95 53.3 82.85 57.3 82.95 61.25 84.75 64.3 86.7 67.5 89.75 69.25 92.95 71.15 96.75 71.15 100.6 71.15 103.8 69.25 106.85 67.5 108.8 64.3 110.65 61.1 110.7 57.3 110.65 53.45 108.8 50.25 106.95 47.1 103.8 45.25 100.75 43.45 96.75 43.35M97.95 46.8L97.95 49.1Q99.9 49.2 101.2 50.5 102.55 51.8 102.55 53.8L100.25 53.8Q100.25 52.8 99.6 52.15 98.9 51.45 97.95 51.45L95.6 51.45Q94.65 51.45 93.95 52.15 93.3 52.8 93.3 53.8 93.3 54.65 93.95 55.4 94.55 56 95.6 56.1L97.95 56.1Q99.95 56.2 101.2 57.45 102.55 58.8 102.55 60.75 102.55 62.75 101.2 64 99.95 65.35 97.95 65.35L97.95 67.7 95.6 67.7 95.6 65.35Q93.65 65.35 92.3 64 91 62.7 91 60.75L93.3 60.75Q93.3 61.65 93.95 62.4 94.6 62.95 95.6 63.05L97.95 63.05Q98.95 62.95 99.6 62.4 100.25 61.65 100.25 60.75 100.25 59.75 99.6 59.1 98.95 58.45 97.95 58.45L95.6 58.45Q93.7 58.4 92.3 57.05 91 55.75 91 53.8 91 51.8 92.3 50.5 93.7 49.15 95.6 49.1L95.6 46.8 97.95 46.8Z"/><path id="Layer1_0_1_STROKES" stroke="#404041" stroke-width="2" stroke-linejoin="round" stroke-linecap="round" fill="none" d="M103.8 45.25Q106.95 47.1 108.8 50.25 110.65 53.45 110.7 57.3 110.65 61.1 108.8 64.3 106.85 67.5 103.8 69.25 100.6 71.15 96.75 71.15 92.95 71.15 89.75 69.25 86.7 67.5 84.75 64.3 82.95 61.25 82.85 57.3 82.95 53.3 84.75 50.25 86.6 47.1 89.75 45.25 92.8 43.45 96.75 43.35 100.75 43.45 103.8 45.25ZM67.75 82.35Q70.8 80.55 74.75 80.45 78.7 80.55 81.75 82.35 84.9 84.2 86.75 87.35 88.55 90.4 88.65 94.35 88.55 98.35 86.75 101.4 84.9 104.55 81.75 106.4 78.7 108.25 74.75 108.3 70.8 108.25 67.75 106.4 64.55 104.5 62.7 101.4 60.9 98.2 60.8 94.35 60.9 90.55 62.7 87.35 64.55 84.25 67.75 82.35ZM52.7 43.35Q56.7 43.45 59.75 45.25 62.9 47.1 64.75 50.25 66.6 53.45 66.65 57.3 66.6 61.1 64.75 64.3 62.8 67.5 59.75 69.25 56.55 71.15 52.7 71.15 48.9 71.15 45.7 69.25 42.65 67.5 40.7 64.3 38.9 61.25 38.8 57.3 38.9 53.3 40.7 50.25 42.55 47.1 45.7 45.25 48.75 43.45 52.7 43.35Z"/></g><animate attributeName="display" fill="freeze" repeatCount="1" dur="1.125s" keyTimes="0;.37;1" values="none;inline;inline"/></g></g></svg>